M48
INCH
T01C0.0118
T02C0.0157
T03C0.0276
T04C0.0354
T05C0.0394
%
T01
X+006442Y+042356
X+007192Y+041812
X+007044Y+043416
X+009251Y+044378
X+010817Y+044062
X+011442Y+043562
X+011332Y+041140
X+009317Y+038562
X+008317Y+039187
X+007859Y+039876
X+008567Y+036937
X+007152Y+036312
X+009942Y+032937
X+010942Y+031937
X+009317Y+027744
X+007204Y+027744
X+004567Y+025437
X+005887Y+021960
X+006227Y+021187
X+006942Y+021812
X+006942Y+022562
X+009192Y+022187
X+010942Y+020437
X+011442Y+020382
X+009442Y+018437
X+008442Y+018437
X+007692Y+018687
X+007713Y+019083
X+008442Y+016562
X+006317Y+016687
T02
X+006917Y+016119
X+009409Y+019720
X+009939Y+021643
X+007893Y+023162
T03
X+004942Y+043232
X+004942Y+042642
X+004942Y+040357
X+004942Y+039767
X+004942Y+037482
X+004942Y+036892
X+004942Y+021607
X+004942Y+021017
X+004942Y+018732
X+004942Y+018142
X+004942Y+015732
X+004942Y+015142
T04
X+004446Y+027744
X+005233Y+027744
X+005233Y+028531
X+004446Y+028531
X+004446Y+029319
X+005233Y+029319
X+005233Y+030106
X+004446Y+030106
X+004446Y+030893
X+005233Y+030893
X+005233Y+031681
X+004446Y+031681
X+004446Y+032468
X+005233Y+032468
X+005233Y+033256
X+004446Y+033256
T05
X+007817Y+045374
X+007817Y+042106
X+007379Y+041124
X+007817Y+038374
X+007817Y+035106
X+007379Y+034124
X+007817Y+031499
X+007817Y+028231
X+007379Y+027249
X+007817Y+024499
X+007817Y+021231
X+007379Y+020249
X+007817Y+017624
X+007817Y+014356
X+007379Y+013374
X+007817Y+010624
X+007817Y+007356
X+007379Y+006374
T00
M30
