G04 DipTrace 4.0.0.5*
G04 TopMask.gbr*
%MOIN*%
G04 #@! TF.FileFunction,Soldermask,Top*
G04 #@! TF.Part,Single*
%ADD22R,0.059055X0.059055*%
%ADD23C,0.059055*%
%ADD32C,0.066929*%
%ADD38R,0.051181X0.051181*%
%ADD40C,0.051181*%
%FSLAX26Y26*%
G04*
G70*
G90*
G75*
G01*
G04 TopMask*
%LPD*%
D40*
X494157Y4323228D3*
D38*
X494160Y4264173D3*
D40*
X494158Y3748228D3*
D38*
X494160Y3689173D3*
D40*
Y1814173D3*
D38*
X494159Y1873228D3*
D40*
X494157Y4035728D3*
D38*
X494160Y3976673D3*
D40*
Y2101673D3*
D38*
X494159Y2160728D3*
D40*
X494160Y1514173D3*
D38*
X494159Y1573228D3*
D22*
X444553Y2774370D3*
D23*
X523293D3*
X444553Y2853110D3*
X523293D3*
X444553Y2931850D3*
X523293D3*
X444553Y3010591D3*
X523293D3*
X444553Y3089331D3*
X523293D3*
X444553Y3168071D3*
X523293D3*
X444553Y3246811D3*
X523293D3*
X444553Y3325551D3*
X523293D3*
D32*
X781659Y4537402D3*
Y4210630D3*
X737910Y4112449D3*
X781659Y3837402D3*
Y3510630D3*
X737910Y3412449D3*
X781659Y3149902D3*
Y2823130D3*
X737910Y2724949D3*
X781659Y2449902D3*
Y2123130D3*
X737910Y2024949D3*
X781659Y1762402D3*
Y1435630D3*
X737910Y1337449D3*
X781659Y1062402D3*
Y735630D3*
X737910Y637449D3*
M02*
