G04 DipTrace 4.0.0.5*
G04 BoardOutline.gbr*
%MOIN*%
G04 #@! TF.FileFunction,Profile*
G04 #@! TF.Part,Single*
%ADD12C,0.005512*%
%FSLAX26Y26*%
G04*
G70*
G90*
G75*
G01*
G04 BoardOutline*
%LPD*%
X3586614Y5452756D2*
D12*
Y393701D1*
X393701D1*
Y5452756D1*
X3586614D1*
X763714Y521982D2*
X763858Y517034D1*
X763714Y512087D1*
X763307Y507231D1*
X762638Y502493D1*
X761719Y497900D1*
X760564Y493451D1*
X759173Y489160D1*
X757559Y485039D1*
X755748Y481129D1*
X754252Y478320D1*
X752651Y475630D1*
X750945Y473071D1*
X749147Y470643D1*
X747244Y468360D1*
X745249Y466220D1*
X743176Y464226D1*
X741010Y462402D1*
X738780Y460735D1*
X736470Y459239D1*
X734094Y457913D1*
X731640Y456772D1*
X729987Y456129D1*
X728294Y455551D1*
X726575Y455079D1*
X724843Y454685D1*
X723084Y454383D1*
X721312Y454173D1*
X719514Y454068D1*
X580262D1*
X578465Y454173D1*
X576693Y454383D1*
X574934Y454685D1*
X573189Y455079D1*
X571483Y455551D1*
X569790Y456129D1*
X568123Y456772D1*
X565682Y457913D1*
X563307Y459239D1*
X560997Y460735D1*
X558753Y462402D1*
X556601Y464226D1*
X554514Y466220D1*
X552533Y468360D1*
X550630Y470643D1*
X548832Y473071D1*
X547126Y475630D1*
X545525Y478320D1*
X544029Y481129D1*
X542205Y485039D1*
X540604Y489160D1*
X539213Y493451D1*
X538058Y497900D1*
X537139Y502493D1*
X536470Y507231D1*
X536063Y512087D1*
X535919Y517034D1*
X536063Y521982D1*
X536470Y526837D1*
X537139Y531562D1*
X538058Y536168D1*
X539213Y540617D1*
X540604Y544908D1*
X542205Y549016D1*
X544029Y552940D1*
X545525Y555748D1*
X547126Y558438D1*
X548832Y560997D1*
X550630Y563425D1*
X552533Y565709D1*
X554514Y567848D1*
X556601Y569843D1*
X558753Y571667D1*
X560997Y573333D1*
X563307Y574829D1*
X565682Y576155D1*
X568123Y577283D1*
X569790Y577940D1*
X571483Y578517D1*
X573189Y578990D1*
X574934Y579383D1*
X576693Y579685D1*
X578465Y579895D1*
X580262Y580000D1*
X719514D1*
X721312Y579895D1*
X723084Y579685D1*
X724843Y579383D1*
X726575Y578990D1*
X728294Y578517D1*
X729987Y577940D1*
X731640Y577283D1*
X734094Y576155D1*
X736470Y574829D1*
X738780Y573333D1*
X741010Y571667D1*
X743176Y569843D1*
X745249Y567848D1*
X747244Y565709D1*
X749147Y563425D1*
X750945Y560997D1*
X752651Y558438D1*
X754252Y555748D1*
X755748Y552940D1*
X757559Y549016D1*
X759173Y544908D1*
X760564Y540617D1*
X761719Y536168D1*
X762638Y531562D1*
X763307Y526837D1*
X763714Y521982D1*
Y5334344D2*
X763858Y5329383D1*
X763714Y5324436D1*
X763307Y5319593D1*
X762638Y5314856D1*
X761719Y5310262D1*
X760564Y5305801D1*
X759173Y5301509D1*
X757559Y5297402D1*
X755748Y5293478D1*
X754252Y5290669D1*
X752651Y5287979D1*
X750945Y5285420D1*
X749147Y5282992D1*
X747244Y5280709D1*
X745249Y5278570D1*
X743176Y5276588D1*
X741010Y5274751D1*
X738780Y5273084D1*
X736470Y5271588D1*
X734094Y5270276D1*
X731640Y5269134D1*
X729987Y5268478D1*
X728294Y5267913D1*
X726575Y5267428D1*
X724843Y5267034D1*
X723084Y5266745D1*
X721312Y5266535D1*
X719514Y5266417D1*
X580262D1*
X578465Y5266535D1*
X576693Y5266745D1*
X574934Y5267034D1*
X573189Y5267428D1*
X571483Y5267913D1*
X569790Y5268478D1*
X568123Y5269134D1*
X565682Y5270276D1*
X563307Y5271588D1*
X560997Y5273084D1*
X558753Y5274751D1*
X556601Y5276588D1*
X554514Y5278570D1*
X552533Y5280709D1*
X550630Y5282992D1*
X548832Y5285420D1*
X547126Y5287979D1*
X545525Y5290669D1*
X544029Y5293478D1*
X542205Y5297402D1*
X540604Y5301509D1*
X539213Y5305801D1*
X538058Y5310262D1*
X537139Y5314856D1*
X536470Y5319593D1*
X536063Y5324436D1*
X535919Y5329383D1*
X536063Y5334344D1*
X536470Y5339186D1*
X537139Y5343924D1*
X538058Y5348517D1*
X539213Y5352979D1*
X540604Y5357257D1*
X542205Y5361378D1*
X544029Y5365302D1*
X545525Y5368110D1*
X547126Y5370801D1*
X548832Y5373360D1*
X550630Y5375787D1*
X552533Y5378071D1*
X554514Y5380210D1*
X556601Y5382192D1*
X558753Y5384029D1*
X560997Y5385696D1*
X563307Y5387192D1*
X565682Y5388504D1*
X568123Y5389646D1*
X569790Y5390302D1*
X571483Y5390866D1*
X573189Y5391352D1*
X574934Y5391745D1*
X576693Y5392034D1*
X578465Y5392244D1*
X580262Y5392362D1*
X719514D1*
X721312Y5392244D1*
X723084Y5392034D1*
X724843Y5391745D1*
X726575Y5391352D1*
X728294Y5390866D1*
X729987Y5390302D1*
X731640Y5389646D1*
X734094Y5388504D1*
X736470Y5387192D1*
X738780Y5385696D1*
X741010Y5384029D1*
X743176Y5382192D1*
X745249Y5380210D1*
X747244Y5378071D1*
X749147Y5375787D1*
X750945Y5373360D1*
X752651Y5370801D1*
X754252Y5368110D1*
X755748Y5365302D1*
X757559Y5361378D1*
X759173Y5357257D1*
X760564Y5352979D1*
X761719Y5348517D1*
X762638Y5343924D1*
X763307Y5339186D1*
X763714Y5334344D1*
X3444265Y521982D2*
X3444409Y517034D1*
X3444265Y512087D1*
X3443858Y507231D1*
X3443189Y502493D1*
X3442270Y497900D1*
X3441115Y493451D1*
X3439724Y489160D1*
X3438123Y485039D1*
X3436299Y481129D1*
X3434803Y478320D1*
X3433202Y475630D1*
X3431496Y473071D1*
X3429698Y470643D1*
X3427795Y468360D1*
X3425801Y466220D1*
X3423727Y464226D1*
X3421575Y462402D1*
X3419331Y460735D1*
X3417021Y459239D1*
X3414646Y457913D1*
X3412205Y456772D1*
X3410538Y456129D1*
X3408845Y455551D1*
X3407139Y455079D1*
X3405394Y454685D1*
X3403635Y454383D1*
X3401864Y454173D1*
X3400066Y454068D1*
X3260814D1*
X3259016Y454173D1*
X3257244Y454383D1*
X3255486Y454685D1*
X3253740Y455079D1*
X3252034Y455551D1*
X3250341Y456129D1*
X3248675Y456772D1*
X3246234Y457913D1*
X3243858Y459239D1*
X3241549Y460735D1*
X3239304Y462402D1*
X3237152Y464226D1*
X3235079Y466220D1*
X3233084Y468360D1*
X3231181Y470643D1*
X3229383Y473071D1*
X3227677Y475630D1*
X3226076Y478320D1*
X3224580Y481129D1*
X3222769Y485039D1*
X3221155Y489160D1*
X3219764Y493451D1*
X3218609Y497900D1*
X3217690Y502493D1*
X3217021Y507231D1*
X3216614Y512087D1*
X3216470Y517034D1*
X3216614Y521982D1*
X3217021Y526837D1*
X3217690Y531562D1*
X3218609Y536168D1*
X3219764Y540617D1*
X3221155Y544908D1*
X3222769Y549016D1*
X3224580Y552940D1*
X3226076Y555748D1*
X3227677Y558438D1*
X3229383Y560997D1*
X3231181Y563425D1*
X3233084Y565709D1*
X3235079Y567848D1*
X3237152Y569843D1*
X3239304Y571667D1*
X3241549Y573333D1*
X3243858Y574829D1*
X3246234Y576155D1*
X3248675Y577283D1*
X3250341Y577940D1*
X3252034Y578517D1*
X3253740Y578990D1*
X3255486Y579383D1*
X3257244Y579685D1*
X3259016Y579895D1*
X3260814Y580000D1*
X3400066D1*
X3401864Y579895D1*
X3403635Y579685D1*
X3405394Y579383D1*
X3407139Y578990D1*
X3408845Y578517D1*
X3410538Y577940D1*
X3412205Y577283D1*
X3414646Y576155D1*
X3417021Y574829D1*
X3419331Y573333D1*
X3421575Y571667D1*
X3423727Y569843D1*
X3425801Y567848D1*
X3427795Y565709D1*
X3429698Y563425D1*
X3431496Y560997D1*
X3433202Y558438D1*
X3434803Y555748D1*
X3436299Y552940D1*
X3438123Y549016D1*
X3439724Y544908D1*
X3441115Y540617D1*
X3442270Y536168D1*
X3443189Y531562D1*
X3443858Y526837D1*
X3444265Y521982D1*
Y5334344D2*
X3444409Y5329383D1*
X3444265Y5324436D1*
X3443858Y5319593D1*
X3443189Y5314856D1*
X3442270Y5310262D1*
X3441115Y5305801D1*
X3439724Y5301509D1*
X3438123Y5297402D1*
X3436299Y5293478D1*
X3434803Y5290669D1*
X3433202Y5287979D1*
X3431496Y5285420D1*
X3429698Y5282992D1*
X3427795Y5280709D1*
X3425801Y5278570D1*
X3423727Y5276588D1*
X3421575Y5274751D1*
X3419331Y5273084D1*
X3417021Y5271588D1*
X3414646Y5270276D1*
X3412205Y5269134D1*
X3410538Y5268478D1*
X3408845Y5267913D1*
X3407139Y5267428D1*
X3405394Y5267034D1*
X3403635Y5266745D1*
X3401864Y5266535D1*
X3400066Y5266417D1*
X3260814D1*
X3259016Y5266535D1*
X3257244Y5266745D1*
X3255486Y5267034D1*
X3253740Y5267428D1*
X3252034Y5267913D1*
X3250341Y5268478D1*
X3248675Y5269134D1*
X3246234Y5270276D1*
X3243858Y5271588D1*
X3241549Y5273084D1*
X3239304Y5274751D1*
X3237152Y5276588D1*
X3235079Y5278570D1*
X3233084Y5280709D1*
X3231181Y5282992D1*
X3229383Y5285420D1*
X3227677Y5287979D1*
X3226076Y5290669D1*
X3224580Y5293478D1*
X3222769Y5297402D1*
X3221155Y5301509D1*
X3219764Y5305801D1*
X3218609Y5310262D1*
X3217690Y5314856D1*
X3217021Y5319593D1*
X3216614Y5324436D1*
X3216470Y5329383D1*
X3216614Y5334344D1*
X3217021Y5339186D1*
X3217690Y5343924D1*
X3218609Y5348517D1*
X3219764Y5352979D1*
X3221155Y5357257D1*
X3222769Y5361378D1*
X3224580Y5365302D1*
X3226076Y5368110D1*
X3227677Y5370801D1*
X3229383Y5373360D1*
X3231181Y5375787D1*
X3233084Y5378071D1*
X3235079Y5380210D1*
X3237152Y5382192D1*
X3239304Y5384029D1*
X3241549Y5385696D1*
X3243858Y5387192D1*
X3246234Y5388504D1*
X3248675Y5389646D1*
X3250341Y5390302D1*
X3252034Y5390866D1*
X3253740Y5391352D1*
X3255486Y5391745D1*
X3257244Y5392034D1*
X3259016Y5392244D1*
X3260814Y5392362D1*
X3400066D1*
X3401864Y5392244D1*
X3403635Y5392034D1*
X3405394Y5391745D1*
X3407139Y5391352D1*
X3408845Y5390866D1*
X3410538Y5390302D1*
X3412205Y5389646D1*
X3414646Y5388504D1*
X3417021Y5387192D1*
X3419331Y5385696D1*
X3421575Y5384029D1*
X3423727Y5382192D1*
X3425801Y5380210D1*
X3427795Y5378071D1*
X3429698Y5375787D1*
X3431496Y5373360D1*
X3433202Y5370801D1*
X3434803Y5368110D1*
X3436299Y5365302D1*
X3438123Y5361378D1*
X3439724Y5357257D1*
X3441115Y5352979D1*
X3442270Y5348517D1*
X3443189Y5343924D1*
X3443858Y5339186D1*
X3444265Y5334344D1*
X2894567Y3529751D2*
X2894488Y3534619D1*
X2894567Y3539501D1*
X2894803Y3544331D1*
X2895184Y3549121D1*
X2895722Y3553871D1*
X2896417Y3558570D1*
X2897244Y3563215D1*
X2898228Y3567808D1*
X2899357Y3572362D1*
X2900617Y3576850D1*
X2902008Y3581273D1*
X2903543Y3585643D1*
X2905197Y3589948D1*
X2906995Y3594186D1*
X2908911Y3598360D1*
X2910958Y3602454D1*
X2913123Y3606483D1*
X2915407Y3610433D1*
X2917808Y3614291D1*
X2920328Y3618084D1*
X2922966Y3621798D1*
X2925696Y3625420D1*
X2928543Y3628950D1*
X2931509Y3632388D1*
X2934554Y3635735D1*
X2937717Y3638990D1*
X2940971Y3642152D1*
X2944318Y3645210D1*
X2947756Y3648163D1*
X2951286Y3651010D1*
X2954908Y3653740D1*
X2958622Y3656378D1*
X2962415Y3658898D1*
X2966273Y3661299D1*
X2970223Y3663583D1*
X2974252Y3665748D1*
X2978346Y3667795D1*
X2982520Y3669711D1*
X2986759Y3671509D1*
X2991063Y3673163D1*
X2995433Y3674698D1*
X2999856Y3676089D1*
X3004344Y3677349D1*
X3008898Y3678478D1*
X3013491Y3679462D1*
X3018136Y3680289D1*
X3022848Y3680984D1*
X3027585Y3681522D1*
X3032375Y3681903D1*
X3037205Y3682139D1*
X3042087Y3682218D1*
X3046955Y3682139D1*
X3051785Y3681903D1*
X3056575Y3681522D1*
X3061325Y3680984D1*
X3066024Y3680289D1*
X3070669Y3679462D1*
X3075276Y3678478D1*
X3079816Y3677349D1*
X3084304Y3676089D1*
X3088740Y3674698D1*
X3093110Y3673163D1*
X3097415Y3671509D1*
X3101640Y3669711D1*
X3105814Y3667795D1*
X3109908Y3665748D1*
X3113937Y3663583D1*
X3117887Y3661299D1*
X3121759Y3658898D1*
X3125551Y3656378D1*
X3129252Y3653740D1*
X3132874Y3651010D1*
X3136404Y3648163D1*
X3139856Y3645210D1*
X3143202Y3642152D1*
X3146457Y3638990D1*
X3149606Y3635735D1*
X3152664Y3632388D1*
X3155617Y3628950D1*
X3158465Y3625420D1*
X3161207Y3621798D1*
X3163832Y3618084D1*
X3166352Y3614304D1*
X3168753Y3610433D1*
X3171037Y3606483D1*
X3173202Y3602454D1*
X3175249Y3598360D1*
X3177165Y3594186D1*
X3178963Y3589948D1*
X3180630Y3585643D1*
X3182152Y3581273D1*
X3183556Y3576850D1*
X3184816Y3572362D1*
X3185932Y3567808D1*
X3186916Y3563215D1*
X3187756Y3558570D1*
X3188438Y3553871D1*
X3188976Y3549121D1*
X3189370Y3544331D1*
X3189606Y3539501D1*
X3189685Y3534619D1*
X3189606Y3529751D1*
X3189370Y3524921D1*
X3188976Y3520131D1*
X3188438Y3515381D1*
X3187756Y3510682D1*
X3186916Y3506037D1*
X3185932Y3501430D1*
X3184816Y3496890D1*
X3183556Y3492402D1*
X3182152Y3487966D1*
X3180630Y3483596D1*
X3178963Y3479304D1*
X3177165Y3475066D1*
X3175249Y3470892D1*
X3173202Y3466798D1*
X3171037Y3462769D1*
X3168753Y3458819D1*
X3166352Y3454948D1*
X3163832Y3451155D1*
X3161207Y3447454D1*
X3158465Y3443832D1*
X3155617Y3440302D1*
X3152664Y3436864D1*
X3149606Y3433504D1*
X3146457Y3430249D1*
X3143202Y3427100D1*
X3139856Y3424042D1*
X3136404Y3421089D1*
X3132874Y3418241D1*
X3129252Y3415499D1*
X3125551Y3412874D1*
X3121759Y3410354D1*
X3117887Y3407953D1*
X3113937Y3405669D1*
X3109908Y3403504D1*
X3105814Y3401457D1*
X3101640Y3399541D1*
X3097415Y3397743D1*
X3093110Y3396076D1*
X3088740Y3394554D1*
X3084304Y3393150D1*
X3079816Y3391890D1*
X3075276Y3390774D1*
X3070669Y3389790D1*
X3066024Y3388950D1*
X3061325Y3388268D1*
X3056575Y3387730D1*
X3051785Y3387336D1*
X3046955Y3387100D1*
X3042087Y3387021D1*
X3037205Y3387100D1*
X3032375Y3387336D1*
X3027585Y3387730D1*
X3022848Y3388268D1*
X3018136Y3388950D1*
X3013491Y3389790D1*
X3008898Y3390774D1*
X3004344Y3391890D1*
X2999856Y3393150D1*
X2995433Y3394554D1*
X2991063Y3396076D1*
X2986759Y3397743D1*
X2982520Y3399541D1*
X2978346Y3401457D1*
X2974252Y3403504D1*
X2970223Y3405669D1*
X2966273Y3407953D1*
X2962415Y3410354D1*
X2958622Y3412874D1*
X2954908Y3415499D1*
X2951286Y3418241D1*
X2947756Y3421089D1*
X2944318Y3424042D1*
X2940971Y3427100D1*
X2937717Y3430249D1*
X2934554Y3433504D1*
X2931509Y3436864D1*
X2928543Y3440302D1*
X2925696Y3443832D1*
X2922966Y3447454D1*
X2920328Y3451155D1*
X2917808Y3454948D1*
X2915407Y3458819D1*
X2913123Y3462769D1*
X2910958Y3466798D1*
X2908911Y3470892D1*
X2906995Y3475066D1*
X2905197Y3479304D1*
X2903543Y3483596D1*
X2902008Y3487966D1*
X2900617Y3492402D1*
X2899357Y3496890D1*
X2898228Y3501430D1*
X2897244Y3506037D1*
X2896417Y3510682D1*
X2895722Y3515381D1*
X2895184Y3520131D1*
X2894803Y3524921D1*
X2894567Y3529751D1*
X2881076Y4897651D2*
X2881102Y4895669D1*
X2880958Y4889738D1*
X2880525Y4883871D1*
X2879816Y4878097D1*
X2878845Y4872402D1*
X2877612Y4866811D1*
X2876115Y4861312D1*
X2874370Y4855919D1*
X2872375Y4850643D1*
X2870144Y4845499D1*
X2867690Y4840472D1*
X2865013Y4835577D1*
X2862113Y4830840D1*
X2859003Y4826234D1*
X2855696Y4821785D1*
X2852192Y4817507D1*
X2848491Y4813386D1*
X2844606Y4809449D1*
X2840551Y4805682D1*
X2836312Y4802113D1*
X2831929Y4798740D1*
X2827375Y4795564D1*
X2822677Y4792598D1*
X2817835Y4789843D1*
X2812861Y4787310D1*
X2807743Y4785000D1*
X2802507Y4782940D1*
X2797165Y4781102D1*
X2791706Y4779528D1*
X2786142Y4778202D1*
X2780472Y4777139D1*
X2774724Y4776339D1*
X2768898Y4775827D1*
X2762979Y4775577D1*
X2757034Y4775630D1*
X2751142Y4775958D1*
X2745341Y4776575D1*
X2739619Y4777467D1*
X2733990Y4778609D1*
X2728465Y4780026D1*
X2723031Y4781693D1*
X2717730Y4783596D1*
X2712533Y4785748D1*
X2707467Y4788123D1*
X2702533Y4790735D1*
X2697730Y4793556D1*
X2693084Y4796601D1*
X2688583Y4799843D1*
X2684252Y4803281D1*
X2680079Y4806916D1*
X2676076Y4810748D1*
X2672257Y4814738D1*
X2668622Y4818911D1*
X2665171Y4823255D1*
X2661929Y4827756D1*
X2658885Y4832402D1*
X2656063Y4837205D1*
X2653465Y4842139D1*
X2651076Y4847205D1*
X2648924Y4852388D1*
X2647021Y4857703D1*
X2645354Y4863123D1*
X2643950Y4868661D1*
X2642795Y4874291D1*
X2641903Y4880013D1*
X2641299Y4885814D1*
X2640958Y4891706D1*
X2640919Y4897651D1*
X2641155Y4903556D1*
X2641680Y4909396D1*
X2642467Y4915144D1*
X2643530Y4920814D1*
X2644856Y4926365D1*
X2646444Y4931837D1*
X2648268Y4937178D1*
X2650341Y4942415D1*
X2652638Y4947520D1*
X2655171Y4952507D1*
X2657927Y4957349D1*
X2660892Y4962047D1*
X2664068Y4966601D1*
X2667441Y4970984D1*
X2671024Y4975223D1*
X2674777Y4979278D1*
X2678727Y4983163D1*
X2682835Y4986850D1*
X2687126Y4990367D1*
X2691562Y4993675D1*
X2696168Y4996785D1*
X2700919Y4999685D1*
X2705801Y5002362D1*
X2710827Y5004816D1*
X2715984Y5007047D1*
X2721247Y5009029D1*
X2726640Y5010774D1*
X2732139Y5012270D1*
X2737730Y5013517D1*
X2743425Y5014488D1*
X2749199Y5015197D1*
X2755066Y5015617D1*
X2760997Y5015761D1*
X2766929Y5015617D1*
X2772795Y5015197D1*
X2778570Y5014488D1*
X2784265Y5013517D1*
X2789856Y5012270D1*
X2795354Y5010774D1*
X2800735Y5009029D1*
X2806010Y5007047D1*
X2811168Y5004816D1*
X2816194Y5002362D1*
X2821076Y4999685D1*
X2825827Y4996785D1*
X2830433Y4993675D1*
X2834869Y4990367D1*
X2839160Y4986850D1*
X2843268Y4983163D1*
X2847218Y4979278D1*
X2850971Y4975223D1*
X2854541Y4970984D1*
X2857927Y4966601D1*
X2861102Y4962047D1*
X2864068Y4957349D1*
X2866824Y4952507D1*
X2869357Y4947520D1*
X2871654Y4942415D1*
X2873727Y4937178D1*
X2875551Y4931837D1*
X2877139Y4926365D1*
X2878465Y4920814D1*
X2879528Y4915144D1*
X2880315Y4909396D1*
X2880840Y4903556D1*
X2881076Y4897651D1*
X3450525D2*
X3450538Y4895669D1*
X3450394Y4889738D1*
X3449974Y4883871D1*
X3449265Y4878097D1*
X3448294Y4872402D1*
X3447047Y4866811D1*
X3445551Y4861312D1*
X3443806Y4855919D1*
X3441824Y4850643D1*
X3439593Y4845499D1*
X3437139Y4840472D1*
X3434462Y4835577D1*
X3431562Y4830840D1*
X3428451Y4826234D1*
X3425144Y4821785D1*
X3421627Y4817507D1*
X3417927Y4813386D1*
X3414055Y4809449D1*
X3409987Y4805682D1*
X3405761Y4802113D1*
X3401365Y4798740D1*
X3396824Y4795564D1*
X3392126Y4792598D1*
X3387283Y4789843D1*
X3382297Y4787310D1*
X3377192Y4785000D1*
X3371955Y4782940D1*
X3366601Y4781102D1*
X3361142Y4779528D1*
X3355577Y4778202D1*
X3349921Y4777139D1*
X3344173Y4776339D1*
X3338333Y4775827D1*
X3332428Y4775577D1*
X3326483Y4775630D1*
X3320591Y4775958D1*
X3314790Y4776575D1*
X3309068Y4777467D1*
X3303438Y4778609D1*
X3297900Y4780026D1*
X3292480Y4781693D1*
X3287165Y4783596D1*
X3281982Y4785748D1*
X3276903Y4788123D1*
X3271969Y4790735D1*
X3267178Y4793556D1*
X3262533Y4796601D1*
X3258031Y4799843D1*
X3253688Y4803281D1*
X3249514Y4806916D1*
X3245512Y4810748D1*
X3241693Y4814738D1*
X3238058Y4818911D1*
X3234619Y4823255D1*
X3231378Y4827756D1*
X3228333Y4832402D1*
X3225512Y4837205D1*
X3222900Y4842139D1*
X3220525Y4847205D1*
X3218373Y4852388D1*
X3216470Y4857703D1*
X3214803Y4863123D1*
X3213386Y4868661D1*
X3212244Y4874291D1*
X3211352Y4880013D1*
X3210735Y4885814D1*
X3210407Y4891706D1*
X3210354Y4897651D1*
X3210591Y4903556D1*
X3211115Y4909396D1*
X3211916Y4915144D1*
X3212979Y4920814D1*
X3214304Y4926365D1*
X3215879Y4931837D1*
X3217717Y4937178D1*
X3219777Y4942415D1*
X3222087Y4947520D1*
X3224619Y4952507D1*
X3227375Y4957349D1*
X3230341Y4962047D1*
X3233517Y4966601D1*
X3236890Y4970984D1*
X3240459Y4975223D1*
X3244226Y4979278D1*
X3248163Y4983163D1*
X3252283Y4986850D1*
X3256562Y4990367D1*
X3261010Y4993675D1*
X3265617Y4996785D1*
X3270354Y4999685D1*
X3275249Y5002362D1*
X3280276Y5004816D1*
X3285420Y5007047D1*
X3290696Y5009029D1*
X3296089Y5010774D1*
X3301575Y5012270D1*
X3307178Y5013517D1*
X3312874Y5014488D1*
X3318648Y5015197D1*
X3324501Y5015617D1*
X3330446Y5015761D1*
X3336378Y5015617D1*
X3342231Y5015197D1*
X3348018Y5014488D1*
X3353701Y5013517D1*
X3359304Y5012270D1*
X3364803Y5010774D1*
X3370184Y5009029D1*
X3375459Y5007047D1*
X3380617Y5004816D1*
X3385630Y5002362D1*
X3390525Y4999685D1*
X3395276Y4996785D1*
X3399869Y4993675D1*
X3404318Y4990367D1*
X3408596Y4986850D1*
X3412717Y4983163D1*
X3416654Y4979278D1*
X3420420Y4975223D1*
X3423990Y4970984D1*
X3427375Y4966601D1*
X3430551Y4962047D1*
X3433517Y4957349D1*
X3436273Y4952507D1*
X3438806Y4947520D1*
X3441102Y4942415D1*
X3443176Y4937178D1*
X3445000Y4931837D1*
X3446575Y4926365D1*
X3447900Y4920814D1*
X3448963Y4915144D1*
X3449764Y4909396D1*
X3450289Y4903556D1*
X3450525Y4897651D1*
Y4368517D2*
X3450538Y4366535D1*
X3450394Y4360604D1*
X3449974Y4354738D1*
X3449265Y4348963D1*
X3448294Y4343268D1*
X3447047Y4337677D1*
X3445551Y4332178D1*
X3443806Y4326785D1*
X3441824Y4321509D1*
X3439593Y4316365D1*
X3437139Y4311339D1*
X3434462Y4306457D1*
X3431562Y4301706D1*
X3428451Y4297100D1*
X3425144Y4292651D1*
X3421627Y4288373D1*
X3417927Y4284252D1*
X3414055Y4280315D1*
X3409987Y4276549D1*
X3405761Y4272979D1*
X3401365Y4269606D1*
X3396824Y4266430D1*
X3392126Y4263465D1*
X3387283Y4260709D1*
X3382297Y4258176D1*
X3377192Y4255866D1*
X3371955Y4253806D1*
X3366601Y4251969D1*
X3361142Y4250394D1*
X3355577Y4249068D1*
X3349921Y4248005D1*
X3344173Y4247205D1*
X3338333Y4246693D1*
X3332428Y4246444D1*
X3326483Y4246496D1*
X3320591Y4246824D1*
X3314790Y4247441D1*
X3309068Y4248333D1*
X3303438Y4249475D1*
X3297900Y4250892D1*
X3292480Y4252559D1*
X3287165Y4254462D1*
X3281982Y4256614D1*
X3276903Y4258990D1*
X3271969Y4261601D1*
X3267178Y4264423D1*
X3262533Y4267467D1*
X3258031Y4270709D1*
X3253688Y4274147D1*
X3249514Y4277782D1*
X3245512Y4281614D1*
X3241693Y4285604D1*
X3238058Y4289777D1*
X3234619Y4294121D1*
X3231378Y4298622D1*
X3228333Y4303268D1*
X3225512Y4308071D1*
X3222900Y4313005D1*
X3220525Y4318071D1*
X3218373Y4323255D1*
X3216470Y4328570D1*
X3214803Y4333990D1*
X3213386Y4339528D1*
X3212244Y4345157D1*
X3211352Y4350879D1*
X3210735Y4356680D1*
X3210407Y4362572D1*
X3210354Y4368517D1*
X3210591Y4374423D1*
X3211115Y4380262D1*
X3211916Y4386010D1*
X3212979Y4391680D1*
X3214304Y4397231D1*
X3215879Y4402703D1*
X3217703Y4408045D1*
X3219777Y4413281D1*
X3222087Y4418386D1*
X3224619Y4423373D1*
X3227375Y4428215D1*
X3230341Y4432913D1*
X3233517Y4437467D1*
X3236890Y4441850D1*
X3240459Y4446089D1*
X3244226Y4450144D1*
X3248163Y4454029D1*
X3252283Y4457717D1*
X3256562Y4461234D1*
X3261010Y4464541D1*
X3265617Y4467651D1*
X3270354Y4470551D1*
X3275249Y4473228D1*
X3280276Y4475682D1*
X3285420Y4477913D1*
X3290696Y4479895D1*
X3296089Y4481640D1*
X3301575Y4483136D1*
X3307178Y4484383D1*
X3312861Y4485354D1*
X3318648Y4486063D1*
X3324501Y4486483D1*
X3330446Y4486627D1*
X3336378Y4486483D1*
X3342231Y4486063D1*
X3348018Y4485354D1*
X3353701Y4484383D1*
X3359304Y4483136D1*
X3364803Y4481640D1*
X3370184Y4479895D1*
X3375459Y4477913D1*
X3380604Y4475682D1*
X3385630Y4473228D1*
X3390525Y4470551D1*
X3395276Y4467651D1*
X3399869Y4464541D1*
X3404318Y4461234D1*
X3408596Y4457717D1*
X3412717Y4454029D1*
X3416654Y4450144D1*
X3420420Y4446089D1*
X3423990Y4441850D1*
X3427375Y4437467D1*
X3430551Y4432913D1*
X3433517Y4428215D1*
X3436273Y4423373D1*
X3438793Y4418386D1*
X3441102Y4413281D1*
X3443176Y4408045D1*
X3445000Y4402703D1*
X3446575Y4397231D1*
X3447900Y4391680D1*
X3448963Y4386010D1*
X3449764Y4380262D1*
X3450289Y4374423D1*
X3450525Y4368517D1*
X2881076Y4299226D2*
X2881102Y4297244D1*
X2880958Y4291312D1*
X2880525Y4285446D1*
X2879816Y4279672D1*
X2878845Y4273976D1*
X2877612Y4268386D1*
X2876115Y4262887D1*
X2874370Y4257493D1*
X2872375Y4252218D1*
X2870144Y4247073D1*
X2867690Y4242047D1*
X2865013Y4237152D1*
X2862113Y4232415D1*
X2859003Y4227808D1*
X2855696Y4223360D1*
X2852192Y4219081D1*
X2848491Y4214961D1*
X2844606Y4211024D1*
X2840551Y4207257D1*
X2836312Y4203688D1*
X2831929Y4200315D1*
X2827375Y4197139D1*
X2822677Y4194173D1*
X2817835Y4191417D1*
X2812861Y4188885D1*
X2807743Y4186575D1*
X2802507Y4184514D1*
X2797165Y4182677D1*
X2791706Y4181102D1*
X2786142Y4179777D1*
X2780472Y4178714D1*
X2774724Y4177913D1*
X2768898Y4177402D1*
X2762979Y4177152D1*
X2757034Y4177205D1*
X2751142Y4177533D1*
X2745341Y4178150D1*
X2739619Y4179042D1*
X2733990Y4180184D1*
X2728465Y4181601D1*
X2723031Y4183268D1*
X2717730Y4185171D1*
X2712533Y4187323D1*
X2707467Y4189698D1*
X2702533Y4192310D1*
X2697730Y4195131D1*
X2693084Y4198176D1*
X2688583Y4201417D1*
X2684252Y4204856D1*
X2680079Y4208491D1*
X2676076Y4212323D1*
X2672257Y4216312D1*
X2668622Y4220486D1*
X2665171Y4224829D1*
X2661929Y4229331D1*
X2658885Y4233976D1*
X2656063Y4238780D1*
X2653465Y4243714D1*
X2651076Y4248780D1*
X2648924Y4253963D1*
X2647021Y4259278D1*
X2645354Y4264698D1*
X2643950Y4270236D1*
X2642795Y4275866D1*
X2641903Y4281588D1*
X2641299Y4287388D1*
X2640958Y4293281D1*
X2640919Y4299226D1*
X2641155Y4305131D1*
X2641667Y4310971D1*
X2642467Y4316719D1*
X2643530Y4322388D1*
X2644856Y4327940D1*
X2646444Y4333412D1*
X2648268Y4338753D1*
X2650341Y4343990D1*
X2652638Y4349094D1*
X2655171Y4354081D1*
X2657927Y4358924D1*
X2660892Y4363622D1*
X2664068Y4368176D1*
X2667441Y4372559D1*
X2671024Y4376798D1*
X2674777Y4380853D1*
X2678727Y4384738D1*
X2682835Y4388425D1*
X2687126Y4391942D1*
X2691562Y4395249D1*
X2696168Y4398360D1*
X2700919Y4401260D1*
X2705801Y4403937D1*
X2710827Y4406391D1*
X2715984Y4408622D1*
X2721247Y4410604D1*
X2726640Y4412349D1*
X2732139Y4413845D1*
X2737730Y4415092D1*
X2743425Y4416063D1*
X2749199Y4416772D1*
X2755066Y4417192D1*
X2760997Y4417336D1*
X2766929Y4417192D1*
X2772795Y4416772D1*
X2778570Y4416063D1*
X2784265Y4415092D1*
X2789856Y4413845D1*
X2795354Y4412349D1*
X2800735Y4410604D1*
X2806010Y4408622D1*
X2811168Y4406391D1*
X2816194Y4403937D1*
X2821076Y4401260D1*
X2825827Y4398360D1*
X2830433Y4395249D1*
X2834869Y4391942D1*
X2839160Y4388425D1*
X2843268Y4384738D1*
X2847218Y4380853D1*
X2850971Y4376798D1*
X2854541Y4372559D1*
X2857927Y4368176D1*
X2861102Y4363622D1*
X2864068Y4358924D1*
X2866824Y4354081D1*
X2869357Y4349094D1*
X2871654Y4343990D1*
X2873727Y4338753D1*
X2875551Y4333412D1*
X2877139Y4327940D1*
X2878465Y4322388D1*
X2879528Y4316719D1*
X2880315Y4310971D1*
X2880840Y4305131D1*
X2881076Y4299226D1*
X2367192Y4897651D2*
X2367205Y4895669D1*
X2367060Y4889738D1*
X2366640Y4883871D1*
X2365932Y4878097D1*
X2364961Y4872402D1*
X2363714Y4866811D1*
X2362218Y4861312D1*
X2360472Y4855919D1*
X2358491Y4850643D1*
X2356260Y4845499D1*
X2353806Y4840472D1*
X2351115Y4835577D1*
X2348228Y4830840D1*
X2345118Y4826234D1*
X2341811Y4821785D1*
X2338294Y4817507D1*
X2334593Y4813386D1*
X2330722Y4809449D1*
X2326654Y4805682D1*
X2322428Y4802113D1*
X2318031Y4798740D1*
X2313491Y4795564D1*
X2308793Y4792598D1*
X2303950Y4789843D1*
X2298963Y4787310D1*
X2293858Y4785000D1*
X2288622Y4782940D1*
X2283268Y4781102D1*
X2277808Y4779528D1*
X2272244Y4778202D1*
X2266588Y4777139D1*
X2260840Y4776339D1*
X2255000Y4775827D1*
X2249094Y4775577D1*
X2243150Y4775630D1*
X2237257Y4775958D1*
X2231457Y4776575D1*
X2225735Y4777467D1*
X2220105Y4778609D1*
X2214567Y4780026D1*
X2209147Y4781693D1*
X2203832Y4783596D1*
X2198648Y4785748D1*
X2193570Y4788123D1*
X2188635Y4790735D1*
X2183845Y4793556D1*
X2179199Y4796601D1*
X2174698Y4799843D1*
X2170354Y4803281D1*
X2166181Y4806916D1*
X2162178Y4810748D1*
X2158360Y4814738D1*
X2154724Y4818911D1*
X2151286Y4823255D1*
X2148045Y4827756D1*
X2145000Y4832402D1*
X2142178Y4837205D1*
X2139567Y4842139D1*
X2137192Y4847205D1*
X2135039Y4852388D1*
X2133136Y4857703D1*
X2131470Y4863123D1*
X2130052Y4868661D1*
X2128911Y4874291D1*
X2128018Y4880013D1*
X2127402Y4885814D1*
X2127073Y4891706D1*
X2127021Y4897651D1*
X2127257Y4903556D1*
X2127782Y4909396D1*
X2128583Y4915144D1*
X2129646Y4920814D1*
X2130971Y4926365D1*
X2132546Y4931837D1*
X2134370Y4937178D1*
X2136444Y4942415D1*
X2138753Y4947520D1*
X2141286Y4952507D1*
X2144042Y4957349D1*
X2147008Y4962047D1*
X2150184Y4966601D1*
X2153556Y4970984D1*
X2157126Y4975223D1*
X2160892Y4979278D1*
X2164829Y4983163D1*
X2168950Y4986850D1*
X2173228Y4990367D1*
X2177677Y4993675D1*
X2182283Y4996785D1*
X2187021Y4999685D1*
X2191916Y5002362D1*
X2196942Y5004816D1*
X2202087Y5007047D1*
X2207362Y5009029D1*
X2212756Y5010774D1*
X2218241Y5012270D1*
X2223845Y5013517D1*
X2229528Y5014488D1*
X2235315Y5015197D1*
X2241168Y5015617D1*
X2247113Y5015761D1*
X2253045Y5015617D1*
X2258898Y5015197D1*
X2264685Y5014488D1*
X2270367Y5013517D1*
X2275971Y5012270D1*
X2281470Y5010774D1*
X2286850Y5009029D1*
X2292126Y5007047D1*
X2297270Y5004816D1*
X2302297Y5002362D1*
X2307192Y4999685D1*
X2311942Y4996785D1*
X2316535Y4993675D1*
X2320984Y4990367D1*
X2325262Y4986850D1*
X2329383Y4983163D1*
X2333320Y4979278D1*
X2337087Y4975223D1*
X2340656Y4970984D1*
X2344042Y4966601D1*
X2347218Y4962047D1*
X2350184Y4957349D1*
X2352940Y4952507D1*
X2355459Y4947520D1*
X2357769Y4942415D1*
X2359843Y4937178D1*
X2361667Y4931837D1*
X2363241Y4926365D1*
X2364567Y4920814D1*
X2365630Y4915144D1*
X2366430Y4909396D1*
X2366955Y4903556D1*
X2367192Y4897651D1*
Y4299226D2*
X2367205Y4297244D1*
X2367060Y4291312D1*
X2366640Y4285446D1*
X2365932Y4279672D1*
X2364961Y4273976D1*
X2363714Y4268386D1*
X2362218Y4262887D1*
X2360472Y4257493D1*
X2358491Y4252218D1*
X2356260Y4247073D1*
X2353806Y4242047D1*
X2351115Y4237152D1*
X2348228Y4232415D1*
X2345118Y4227808D1*
X2341811Y4223360D1*
X2338294Y4219081D1*
X2334593Y4214961D1*
X2330722Y4211024D1*
X2326654Y4207257D1*
X2322428Y4203688D1*
X2318031Y4200315D1*
X2313491Y4197139D1*
X2308793Y4194173D1*
X2303950Y4191417D1*
X2298963Y4188885D1*
X2293858Y4186575D1*
X2288622Y4184514D1*
X2283268Y4182677D1*
X2277808Y4181102D1*
X2272244Y4179777D1*
X2266588Y4178714D1*
X2260840Y4177913D1*
X2255000Y4177402D1*
X2249094Y4177152D1*
X2243150Y4177205D1*
X2237257Y4177533D1*
X2231457Y4178150D1*
X2225735Y4179042D1*
X2220105Y4180184D1*
X2214567Y4181601D1*
X2209147Y4183268D1*
X2203832Y4185171D1*
X2198648Y4187323D1*
X2193570Y4189698D1*
X2188635Y4192310D1*
X2183845Y4195131D1*
X2179199Y4198176D1*
X2174698Y4201417D1*
X2170354Y4204856D1*
X2166181Y4208491D1*
X2162178Y4212323D1*
X2158360Y4216312D1*
X2154724Y4220486D1*
X2151286Y4224829D1*
X2148045Y4229331D1*
X2145000Y4233976D1*
X2142178Y4238780D1*
X2139567Y4243714D1*
X2137192Y4248780D1*
X2135039Y4253963D1*
X2133136Y4259278D1*
X2131470Y4264698D1*
X2130052Y4270236D1*
X2128911Y4275866D1*
X2128018Y4281588D1*
X2127402Y4287388D1*
X2127073Y4293281D1*
X2127021Y4299226D1*
X2127257Y4305131D1*
X2127782Y4310971D1*
X2128583Y4316719D1*
X2129646Y4322388D1*
X2130971Y4327940D1*
X2132546Y4333412D1*
X2134370Y4338753D1*
X2136444Y4343990D1*
X2138753Y4349094D1*
X2141286Y4354081D1*
X2144042Y4358924D1*
X2147008Y4363622D1*
X2150184Y4368176D1*
X2153556Y4372559D1*
X2157126Y4376798D1*
X2160892Y4380853D1*
X2164829Y4384738D1*
X2168950Y4388425D1*
X2173228Y4391942D1*
X2177677Y4395249D1*
X2182283Y4398360D1*
X2187021Y4401260D1*
X2191916Y4403937D1*
X2196942Y4406391D1*
X2202087Y4408622D1*
X2207362Y4410604D1*
X2212756Y4412349D1*
X2218241Y4413845D1*
X2223845Y4415092D1*
X2229528Y4416063D1*
X2235315Y4416772D1*
X2241168Y4417192D1*
X2247113Y4417336D1*
X2253045Y4417192D1*
X2258898Y4416772D1*
X2264685Y4416063D1*
X2270367Y4415092D1*
X2275971Y4413845D1*
X2281470Y4412349D1*
X2286850Y4410604D1*
X2292126Y4408622D1*
X2297270Y4406391D1*
X2302297Y4403937D1*
X2307192Y4401260D1*
X2311942Y4398360D1*
X2316535Y4395249D1*
X2320984Y4391942D1*
X2325262Y4388425D1*
X2329383Y4384738D1*
X2333320Y4380853D1*
X2337087Y4376798D1*
X2340656Y4372559D1*
X2344029Y4368176D1*
X2347218Y4363622D1*
X2350184Y4358924D1*
X2352940Y4354081D1*
X2355459Y4349094D1*
X2357769Y4343990D1*
X2359843Y4338753D1*
X2361667Y4333412D1*
X2363241Y4327940D1*
X2364567Y4322388D1*
X2365630Y4316719D1*
X2366430Y4310971D1*
X2366955Y4305131D1*
X2367192Y4299226D1*
X1853307Y4897651D2*
X1853320Y4895669D1*
X1853176Y4889738D1*
X1852743Y4883871D1*
X1852047Y4878097D1*
X1851063Y4872402D1*
X1849829Y4866811D1*
X1848333Y4861312D1*
X1846588Y4855919D1*
X1844593Y4850643D1*
X1842375Y4845499D1*
X1839908Y4840472D1*
X1837231Y4835577D1*
X1834331Y4830840D1*
X1831234Y4826234D1*
X1827913Y4821785D1*
X1824409Y4817507D1*
X1820709Y4813386D1*
X1816824Y4809449D1*
X1812769Y4805682D1*
X1808543Y4802113D1*
X1804147Y4798740D1*
X1799593Y4795564D1*
X1794895Y4792598D1*
X1790052Y4789843D1*
X1785079Y4787310D1*
X1779961Y4785000D1*
X1774738Y4782940D1*
X1769383Y4781102D1*
X1763924Y4779528D1*
X1758360Y4778202D1*
X1752703Y4777139D1*
X1746955Y4776339D1*
X1741115Y4775827D1*
X1735210Y4775577D1*
X1729252Y4775630D1*
X1723373Y4775958D1*
X1717559Y4776575D1*
X1711837Y4777467D1*
X1706207Y4778609D1*
X1700682Y4780026D1*
X1695262Y4781693D1*
X1689948Y4783596D1*
X1684751Y4785748D1*
X1679685Y4788123D1*
X1674751Y4790735D1*
X1669961Y4793556D1*
X1665302Y4796601D1*
X1660814Y4799843D1*
X1656470Y4803281D1*
X1652297Y4806916D1*
X1648294Y4810748D1*
X1644475Y4814738D1*
X1640840Y4818911D1*
X1637402Y4823255D1*
X1634147Y4827756D1*
X1631115Y4832402D1*
X1628281Y4837205D1*
X1625682Y4842139D1*
X1623294Y4847205D1*
X1621155Y4852388D1*
X1619239Y4857703D1*
X1617572Y4863123D1*
X1616168Y4868661D1*
X1615013Y4874291D1*
X1614134Y4880013D1*
X1613517Y4885814D1*
X1613189Y4891706D1*
X1613136Y4897651D1*
X1613373Y4903556D1*
X1613898Y4909396D1*
X1614685Y4915144D1*
X1615748Y4920814D1*
X1617073Y4926365D1*
X1618661Y4931837D1*
X1620486Y4937178D1*
X1622559Y4942415D1*
X1624856Y4947520D1*
X1627388Y4952507D1*
X1630144Y4957349D1*
X1633110Y4962047D1*
X1636286Y4966601D1*
X1639672Y4970984D1*
X1643241Y4975223D1*
X1646995Y4979278D1*
X1650945Y4983163D1*
X1655052Y4986850D1*
X1659344Y4990367D1*
X1663793Y4993675D1*
X1668386Y4996785D1*
X1673136Y4999685D1*
X1678031Y5002362D1*
X1683045Y5004816D1*
X1688202Y5007047D1*
X1693478Y5009029D1*
X1698858Y5010774D1*
X1704357Y5012270D1*
X1709948Y5013517D1*
X1715643Y5014488D1*
X1721430Y5015197D1*
X1727283Y5015617D1*
X1733215Y5015761D1*
X1739147Y5015617D1*
X1745013Y5015197D1*
X1750787Y5014488D1*
X1756483Y5013517D1*
X1762087Y5012270D1*
X1767572Y5010774D1*
X1772966Y5009029D1*
X1778241Y5007047D1*
X1783386Y5004816D1*
X1788412Y5002362D1*
X1793307Y4999685D1*
X1798045Y4996785D1*
X1802651Y4993675D1*
X1807100Y4990367D1*
X1811378Y4986850D1*
X1815499Y4983163D1*
X1819436Y4979278D1*
X1823202Y4975223D1*
X1826772Y4970984D1*
X1830144Y4966601D1*
X1833320Y4962047D1*
X1836286Y4957349D1*
X1839042Y4952507D1*
X1841575Y4947520D1*
X1843885Y4942415D1*
X1845945Y4937178D1*
X1847782Y4931837D1*
X1849357Y4926365D1*
X1850682Y4920814D1*
X1851745Y4915144D1*
X1852546Y4909396D1*
X1853058Y4903556D1*
X1853307Y4897651D1*
Y4299226D2*
X1853320Y4297244D1*
X1853176Y4291312D1*
X1852743Y4285446D1*
X1852047Y4279672D1*
X1851063Y4273976D1*
X1849829Y4268386D1*
X1848333Y4262887D1*
X1846588Y4257493D1*
X1844593Y4252218D1*
X1842375Y4247073D1*
X1839908Y4242047D1*
X1837231Y4237152D1*
X1834331Y4232415D1*
X1831234Y4227808D1*
X1827913Y4223360D1*
X1824409Y4219081D1*
X1820709Y4214961D1*
X1816824Y4211024D1*
X1812769Y4207257D1*
X1808543Y4203688D1*
X1804147Y4200315D1*
X1799593Y4197139D1*
X1794895Y4194173D1*
X1790052Y4191417D1*
X1785079Y4188885D1*
X1779974Y4186575D1*
X1774738Y4184514D1*
X1769383Y4182677D1*
X1763924Y4181102D1*
X1758360Y4179777D1*
X1752703Y4178714D1*
X1746955Y4177913D1*
X1741115Y4177402D1*
X1735210Y4177152D1*
X1729252Y4177205D1*
X1723373Y4177533D1*
X1717559Y4178150D1*
X1711837Y4179042D1*
X1706207Y4180184D1*
X1700682Y4181601D1*
X1695262Y4183268D1*
X1689948Y4185171D1*
X1684751Y4187323D1*
X1679685Y4189698D1*
X1674751Y4192310D1*
X1669961Y4195131D1*
X1665302Y4198176D1*
X1660814Y4201417D1*
X1656470Y4204856D1*
X1652297Y4208491D1*
X1648294Y4212323D1*
X1644475Y4216312D1*
X1640840Y4220486D1*
X1637402Y4224829D1*
X1634147Y4229331D1*
X1631115Y4233976D1*
X1628281Y4238780D1*
X1625682Y4243714D1*
X1623294Y4248780D1*
X1621155Y4253963D1*
X1619239Y4259278D1*
X1617572Y4264698D1*
X1616168Y4270236D1*
X1615013Y4275866D1*
X1614134Y4281588D1*
X1613517Y4287388D1*
X1613189Y4293281D1*
X1613136Y4299226D1*
X1613373Y4305131D1*
X1613898Y4310971D1*
X1614685Y4316719D1*
X1615748Y4322388D1*
X1617073Y4327940D1*
X1618661Y4333412D1*
X1620486Y4338753D1*
X1622559Y4343990D1*
X1624856Y4349094D1*
X1627388Y4354081D1*
X1630144Y4358924D1*
X1633110Y4363622D1*
X1636286Y4368176D1*
X1639672Y4372559D1*
X1643241Y4376798D1*
X1647008Y4380853D1*
X1650945Y4384738D1*
X1655066Y4388425D1*
X1659344Y4391942D1*
X1663793Y4395249D1*
X1668386Y4398360D1*
X1673136Y4401260D1*
X1678031Y4403937D1*
X1683045Y4406391D1*
X1688202Y4408622D1*
X1693478Y4410604D1*
X1698858Y4412349D1*
X1704357Y4413845D1*
X1709948Y4415092D1*
X1715643Y4416063D1*
X1721430Y4416772D1*
X1727283Y4417192D1*
X1733215Y4417336D1*
X1739147Y4417192D1*
X1745013Y4416772D1*
X1750787Y4416063D1*
X1756483Y4415092D1*
X1762087Y4413845D1*
X1767572Y4412349D1*
X1772966Y4410604D1*
X1778241Y4408622D1*
X1783386Y4406391D1*
X1788412Y4403937D1*
X1793307Y4401260D1*
X1798045Y4398360D1*
X1802651Y4395249D1*
X1807100Y4391942D1*
X1811378Y4388425D1*
X1815499Y4384738D1*
X1819436Y4380853D1*
X1823202Y4376798D1*
X1826772Y4372559D1*
X1830144Y4368176D1*
X1833320Y4363622D1*
X1836286Y4358924D1*
X1839042Y4354081D1*
X1841575Y4349094D1*
X1843885Y4343990D1*
X1845945Y4338753D1*
X1847782Y4333412D1*
X1849357Y4327940D1*
X1850682Y4322388D1*
X1851745Y4316719D1*
X1852546Y4310971D1*
X1853058Y4305131D1*
X1853307Y4299226D1*
X1283858Y4897651D2*
X1283871Y4895669D1*
X1283727Y4889738D1*
X1283307Y4883871D1*
X1282598Y4878097D1*
X1281627Y4872402D1*
X1280381Y4866811D1*
X1278885Y4861312D1*
X1277139Y4855919D1*
X1275157Y4850643D1*
X1272927Y4845499D1*
X1270472Y4840472D1*
X1267782Y4835577D1*
X1264895Y4830840D1*
X1261785Y4826234D1*
X1258478Y4821785D1*
X1254961Y4817507D1*
X1251260Y4813386D1*
X1247388Y4809449D1*
X1243320Y4805682D1*
X1239094Y4802113D1*
X1234698Y4798740D1*
X1230157Y4795564D1*
X1225459Y4792598D1*
X1220617Y4789843D1*
X1215630Y4787310D1*
X1210525Y4785000D1*
X1205289Y4782940D1*
X1199934Y4781102D1*
X1194475Y4779528D1*
X1188911Y4778202D1*
X1183255Y4777139D1*
X1177507Y4776339D1*
X1171667Y4775827D1*
X1165761Y4775577D1*
X1159816Y4775630D1*
X1153924Y4775958D1*
X1148123Y4776575D1*
X1142402Y4777467D1*
X1136772Y4778609D1*
X1131234Y4780026D1*
X1125814Y4781693D1*
X1120499Y4783596D1*
X1115315Y4785748D1*
X1110236Y4788123D1*
X1105302Y4790735D1*
X1100512Y4793556D1*
X1095866Y4796601D1*
X1091365Y4799843D1*
X1087021Y4803281D1*
X1082848Y4806916D1*
X1078845Y4810748D1*
X1075026Y4814738D1*
X1071391Y4818911D1*
X1067953Y4823255D1*
X1064711Y4827756D1*
X1061667Y4832402D1*
X1058845Y4837205D1*
X1056234Y4842139D1*
X1053858Y4847205D1*
X1051706Y4852388D1*
X1049803Y4857703D1*
X1048136Y4863123D1*
X1046719Y4868661D1*
X1045577Y4874291D1*
X1044685Y4880013D1*
X1044068Y4885814D1*
X1043740Y4891706D1*
X1043688Y4897651D1*
X1043924Y4903556D1*
X1044449Y4909396D1*
X1045249Y4915144D1*
X1046312Y4920814D1*
X1047638Y4926365D1*
X1049213Y4931837D1*
X1051037Y4937178D1*
X1053110Y4942415D1*
X1055420Y4947520D1*
X1057953Y4952507D1*
X1060709Y4957349D1*
X1063675Y4962047D1*
X1066850Y4966601D1*
X1070223Y4970984D1*
X1073793Y4975223D1*
X1077559Y4979278D1*
X1081496Y4983163D1*
X1085617Y4986850D1*
X1089895Y4990367D1*
X1094344Y4993675D1*
X1098950Y4996785D1*
X1103688Y4999685D1*
X1108583Y5002362D1*
X1113609Y5004816D1*
X1118753Y5007047D1*
X1124029Y5009029D1*
X1129423Y5010774D1*
X1134908Y5012270D1*
X1140512Y5013517D1*
X1146194Y5014488D1*
X1151982Y5015197D1*
X1157835Y5015617D1*
X1163780Y5015761D1*
X1169711Y5015617D1*
X1175564Y5015197D1*
X1181352Y5014488D1*
X1187034Y5013517D1*
X1192638Y5012270D1*
X1198136Y5010774D1*
X1203517Y5009029D1*
X1208793Y5007047D1*
X1213937Y5004816D1*
X1218963Y5002362D1*
X1223858Y4999685D1*
X1228609Y4996785D1*
X1233202Y4993675D1*
X1237651Y4990367D1*
X1241929Y4986850D1*
X1246050Y4983163D1*
X1249987Y4979278D1*
X1253753Y4975223D1*
X1257323Y4970984D1*
X1260709Y4966601D1*
X1263885Y4962047D1*
X1266850Y4957349D1*
X1269606Y4952507D1*
X1272126Y4947520D1*
X1274436Y4942415D1*
X1276509Y4937178D1*
X1278333Y4931837D1*
X1279908Y4926365D1*
X1281234Y4920814D1*
X1282297Y4915144D1*
X1283097Y4909396D1*
X1283622Y4903556D1*
X1283858Y4897651D1*
Y4299226D2*
X1283871Y4297244D1*
X1283727Y4291312D1*
X1283307Y4285446D1*
X1282598Y4279672D1*
X1281627Y4273976D1*
X1280381Y4268386D1*
X1278885Y4262887D1*
X1277139Y4257493D1*
X1275157Y4252218D1*
X1272927Y4247073D1*
X1270472Y4242047D1*
X1267782Y4237152D1*
X1264895Y4232415D1*
X1261785Y4227808D1*
X1258478Y4223360D1*
X1254961Y4219081D1*
X1251260Y4214961D1*
X1247388Y4211024D1*
X1243320Y4207257D1*
X1239094Y4203688D1*
X1234698Y4200315D1*
X1230157Y4197139D1*
X1225459Y4194173D1*
X1220617Y4191417D1*
X1215630Y4188885D1*
X1210525Y4186575D1*
X1205289Y4184514D1*
X1199934Y4182677D1*
X1194475Y4181102D1*
X1188911Y4179777D1*
X1183255Y4178714D1*
X1177507Y4177913D1*
X1171667Y4177402D1*
X1165761Y4177152D1*
X1159816Y4177205D1*
X1153924Y4177533D1*
X1148123Y4178150D1*
X1142402Y4179042D1*
X1136772Y4180184D1*
X1131234Y4181601D1*
X1125814Y4183268D1*
X1120499Y4185171D1*
X1115315Y4187323D1*
X1110236Y4189698D1*
X1105302Y4192310D1*
X1100512Y4195131D1*
X1095866Y4198176D1*
X1091365Y4201417D1*
X1087021Y4204856D1*
X1082848Y4208491D1*
X1078845Y4212323D1*
X1075026Y4216312D1*
X1071391Y4220486D1*
X1067953Y4224829D1*
X1064711Y4229331D1*
X1061667Y4233976D1*
X1058845Y4238780D1*
X1056234Y4243714D1*
X1053858Y4248780D1*
X1051706Y4253963D1*
X1049803Y4259278D1*
X1048136Y4264698D1*
X1046719Y4270236D1*
X1045577Y4275866D1*
X1044685Y4281588D1*
X1044068Y4287388D1*
X1043740Y4293281D1*
X1043688Y4299226D1*
X1043924Y4305131D1*
X1044449Y4310971D1*
X1045249Y4316719D1*
X1046312Y4322388D1*
X1047638Y4327940D1*
X1049213Y4333412D1*
X1051037Y4338753D1*
X1053110Y4343990D1*
X1055420Y4349094D1*
X1057953Y4354081D1*
X1060709Y4358924D1*
X1063675Y4363622D1*
X1066850Y4368176D1*
X1070223Y4372559D1*
X1073793Y4376798D1*
X1077559Y4380853D1*
X1081496Y4384738D1*
X1085617Y4388425D1*
X1089895Y4391942D1*
X1094344Y4395249D1*
X1098950Y4398360D1*
X1103688Y4401260D1*
X1108583Y4403937D1*
X1113609Y4406391D1*
X1118753Y4408622D1*
X1124029Y4410604D1*
X1129423Y4412349D1*
X1134908Y4413845D1*
X1140512Y4415092D1*
X1146194Y4416063D1*
X1151982Y4416772D1*
X1157835Y4417192D1*
X1163780Y4417336D1*
X1169711Y4417192D1*
X1175564Y4416772D1*
X1181352Y4416063D1*
X1187034Y4415092D1*
X1192638Y4413845D1*
X1198136Y4412349D1*
X1203517Y4410604D1*
X1208793Y4408622D1*
X1213937Y4406391D1*
X1218963Y4403937D1*
X1223858Y4401260D1*
X1228609Y4398360D1*
X1233202Y4395249D1*
X1237651Y4391942D1*
X1241929Y4388425D1*
X1246050Y4384738D1*
X1249987Y4380853D1*
X1253753Y4376798D1*
X1257323Y4372559D1*
X1260709Y4368176D1*
X1263885Y4363622D1*
X1266850Y4358924D1*
X1269606Y4354081D1*
X1272126Y4349094D1*
X1274436Y4343990D1*
X1276509Y4338753D1*
X1278333Y4333412D1*
X1279908Y4327940D1*
X1281234Y4322388D1*
X1282297Y4316719D1*
X1283097Y4310971D1*
X1283622Y4305131D1*
X1283858Y4299226D1*
X769974Y4897651D2*
X769987Y4895669D1*
X769843Y4889738D1*
X769409Y4883871D1*
X768714Y4878097D1*
X767730Y4872402D1*
X766496Y4866811D1*
X765000Y4861312D1*
X763255Y4855919D1*
X761260Y4850643D1*
X759042Y4845499D1*
X756575Y4840472D1*
X753898Y4835577D1*
X750997Y4830840D1*
X747900Y4826234D1*
X744580Y4821785D1*
X741076Y4817507D1*
X737375Y4813386D1*
X733491Y4809449D1*
X729436Y4805682D1*
X725210Y4802113D1*
X720814Y4798740D1*
X716260Y4795564D1*
X711562Y4792598D1*
X706719Y4789843D1*
X701745Y4787310D1*
X696640Y4785000D1*
X691404Y4782940D1*
X686050Y4781102D1*
X680591Y4779528D1*
X675026Y4778202D1*
X669370Y4777139D1*
X663622Y4776339D1*
X657782Y4775827D1*
X651877Y4775577D1*
X645919Y4775630D1*
X640039Y4775958D1*
X634226Y4776575D1*
X628504Y4777467D1*
X622874Y4778609D1*
X617349Y4780026D1*
X611929Y4781693D1*
X606614Y4783596D1*
X601417Y4785748D1*
X596352Y4788123D1*
X591417Y4790735D1*
X586627Y4793556D1*
X581969Y4796601D1*
X577480Y4799843D1*
X573136Y4803281D1*
X568963Y4806916D1*
X564961Y4810748D1*
X561142Y4814738D1*
X557507Y4818911D1*
X554068Y4823255D1*
X550814Y4827756D1*
X547782Y4832402D1*
X544948Y4837205D1*
X542349Y4842139D1*
X539961Y4847205D1*
X537822Y4852388D1*
X535906Y4857703D1*
X534239Y4863123D1*
X532835Y4868661D1*
X531680Y4874291D1*
X530801Y4880013D1*
X530184Y4885814D1*
X529856Y4891706D1*
X529803Y4897651D1*
X530039Y4903556D1*
X530564Y4909396D1*
X531352Y4915144D1*
X532428Y4920814D1*
X533740Y4926365D1*
X535328Y4931837D1*
X537152Y4937178D1*
X539226Y4942415D1*
X541522Y4947520D1*
X544055Y4952507D1*
X546811Y4957349D1*
X549777Y4962047D1*
X552953Y4966601D1*
X556339Y4970984D1*
X559908Y4975223D1*
X563675Y4979278D1*
X567612Y4983163D1*
X571732Y4986850D1*
X576010Y4990367D1*
X580459Y4993675D1*
X585052Y4996785D1*
X589803Y4999685D1*
X594698Y5002362D1*
X599711Y5004816D1*
X604869Y5007047D1*
X610144Y5009029D1*
X615525Y5010774D1*
X621024Y5012270D1*
X626614Y5013517D1*
X632310Y5014488D1*
X638097Y5015197D1*
X643950Y5015617D1*
X649882Y5015761D1*
X655814Y5015617D1*
X661680Y5015197D1*
X667454Y5014488D1*
X673150Y5013517D1*
X678753Y5012270D1*
X684239Y5010774D1*
X689633Y5009029D1*
X694908Y5007047D1*
X700052Y5004816D1*
X705079Y5002362D1*
X709974Y4999685D1*
X714711Y4996785D1*
X719318Y4993675D1*
X723766Y4990367D1*
X728045Y4986850D1*
X732165Y4983163D1*
X736102Y4979278D1*
X739869Y4975223D1*
X743438Y4970984D1*
X746811Y4966601D1*
X749987Y4962047D1*
X752953Y4957349D1*
X755709Y4952507D1*
X758241Y4947520D1*
X760551Y4942415D1*
X762612Y4937178D1*
X764449Y4931837D1*
X766024Y4926365D1*
X767349Y4920814D1*
X768412Y4915144D1*
X769213Y4909396D1*
X769724Y4903556D1*
X769974Y4897651D1*
Y4299226D2*
X769987Y4297244D1*
X769843Y4291312D1*
X769409Y4285446D1*
X768714Y4279672D1*
X767730Y4273976D1*
X766496Y4268386D1*
X765000Y4262887D1*
X763255Y4257493D1*
X761260Y4252218D1*
X759042Y4247073D1*
X756575Y4242047D1*
X753898Y4237152D1*
X750997Y4232415D1*
X747900Y4227808D1*
X744580Y4223360D1*
X741076Y4219081D1*
X737375Y4214961D1*
X733491Y4211024D1*
X729436Y4207257D1*
X725210Y4203688D1*
X720814Y4200315D1*
X716260Y4197139D1*
X711562Y4194173D1*
X706719Y4191417D1*
X701745Y4188885D1*
X696640Y4186575D1*
X691404Y4184514D1*
X686050Y4182677D1*
X680591Y4181102D1*
X675026Y4179777D1*
X669370Y4178714D1*
X663622Y4177913D1*
X657782Y4177402D1*
X651877Y4177152D1*
X645919Y4177205D1*
X640039Y4177533D1*
X634226Y4178150D1*
X628504Y4179042D1*
X622874Y4180184D1*
X617349Y4181601D1*
X611929Y4183268D1*
X606614Y4185171D1*
X601417Y4187323D1*
X596352Y4189698D1*
X591417Y4192310D1*
X586627Y4195131D1*
X581969Y4198176D1*
X577480Y4201417D1*
X573136Y4204856D1*
X568963Y4208491D1*
X564961Y4212323D1*
X561142Y4216312D1*
X557507Y4220486D1*
X554068Y4224829D1*
X550814Y4229331D1*
X547782Y4233976D1*
X544948Y4238780D1*
X542349Y4243714D1*
X539961Y4248780D1*
X537822Y4253963D1*
X535906Y4259278D1*
X534239Y4264698D1*
X532835Y4270236D1*
X531680Y4275866D1*
X530801Y4281588D1*
X530184Y4287388D1*
X529856Y4293281D1*
X529803Y4299226D1*
X530039Y4305131D1*
X530564Y4310971D1*
X531352Y4316719D1*
X532428Y4322388D1*
X533740Y4327940D1*
X535328Y4333412D1*
X537152Y4338753D1*
X539226Y4343990D1*
X541522Y4349094D1*
X544055Y4354081D1*
X546811Y4358924D1*
X549777Y4363622D1*
X552953Y4368176D1*
X556339Y4372559D1*
X559908Y4376798D1*
X563675Y4380853D1*
X567612Y4384738D1*
X571732Y4388425D1*
X576010Y4391942D1*
X580459Y4395249D1*
X585052Y4398360D1*
X589803Y4401260D1*
X594698Y4403937D1*
X599711Y4406391D1*
X604869Y4408622D1*
X610144Y4410604D1*
X615525Y4412349D1*
X621024Y4413845D1*
X626614Y4415092D1*
X632310Y4416063D1*
X638097Y4416772D1*
X643950Y4417192D1*
X649882Y4417336D1*
X655814Y4417192D1*
X661680Y4416772D1*
X667454Y4416063D1*
X673150Y4415092D1*
X678753Y4413845D1*
X684239Y4412349D1*
X689633Y4410604D1*
X694908Y4408622D1*
X700052Y4406391D1*
X705079Y4403937D1*
X709974Y4401260D1*
X714711Y4398360D1*
X719318Y4395249D1*
X723766Y4391942D1*
X728045Y4388425D1*
X732165Y4384738D1*
X736102Y4380853D1*
X739869Y4376798D1*
X743438Y4372559D1*
X746811Y4368176D1*
X749987Y4363622D1*
X752953Y4358924D1*
X755709Y4354081D1*
X758241Y4349094D1*
X760551Y4343990D1*
X762612Y4338753D1*
X764449Y4333412D1*
X766024Y4327940D1*
X767349Y4322388D1*
X768412Y4316719D1*
X769213Y4310971D1*
X769724Y4305131D1*
X769974Y4299226D1*
X1842638Y3529751D2*
X1842559Y3534619D1*
X1842638Y3539501D1*
X1842874Y3544331D1*
X1843268Y3549121D1*
X1843806Y3553871D1*
X1844501Y3558570D1*
X1845328Y3563215D1*
X1846312Y3567808D1*
X1847428Y3572362D1*
X1848688Y3576850D1*
X1850092Y3581273D1*
X1851614Y3585643D1*
X1853281Y3589948D1*
X1855079Y3594186D1*
X1856995Y3598360D1*
X1859042Y3602454D1*
X1861207Y3606483D1*
X1863491Y3610433D1*
X1865892Y3614291D1*
X1868412Y3618084D1*
X1871037Y3621798D1*
X1873780Y3625420D1*
X1876627Y3628950D1*
X1879580Y3632388D1*
X1882638Y3635735D1*
X1885801Y3638990D1*
X1889042Y3642152D1*
X1892402Y3645210D1*
X1895840Y3648163D1*
X1899370Y3651010D1*
X1902992Y3653740D1*
X1906693Y3656378D1*
X1910486Y3658898D1*
X1914357Y3661299D1*
X1918307Y3663583D1*
X1922336Y3665748D1*
X1926430Y3667795D1*
X1930604Y3669711D1*
X1934843Y3671509D1*
X1939147Y3673163D1*
X1943504Y3674698D1*
X1947940Y3676089D1*
X1952428Y3677349D1*
X1956969Y3678478D1*
X1961575Y3679462D1*
X1966220Y3680289D1*
X1970919Y3680984D1*
X1975669Y3681522D1*
X1980459Y3681903D1*
X1985289Y3682139D1*
X1990157Y3682218D1*
X1995039Y3682139D1*
X1999869Y3681903D1*
X2004659Y3681522D1*
X2009409Y3680984D1*
X2014108Y3680289D1*
X2018753Y3679462D1*
X2023360Y3678478D1*
X2027900Y3677349D1*
X2032388Y3676089D1*
X2036811Y3674698D1*
X2041181Y3673163D1*
X2045486Y3671509D1*
X2049724Y3669711D1*
X2053898Y3667795D1*
X2057992Y3665748D1*
X2062021Y3663583D1*
X2065971Y3661299D1*
X2069843Y3658898D1*
X2073622Y3656378D1*
X2077336Y3653740D1*
X2080958Y3651010D1*
X2084488Y3648163D1*
X2087927Y3645210D1*
X2091273Y3642152D1*
X2094528Y3638990D1*
X2097690Y3635735D1*
X2100748Y3632388D1*
X2103701Y3628950D1*
X2106549Y3625420D1*
X2109291Y3621798D1*
X2111916Y3618084D1*
X2114436Y3614291D1*
X2116837Y3610433D1*
X2119121Y3606483D1*
X2121286Y3602454D1*
X2123333Y3598360D1*
X2125249Y3594186D1*
X2127047Y3589948D1*
X2128714Y3585643D1*
X2130236Y3581273D1*
X2131640Y3576850D1*
X2132900Y3572362D1*
X2134016Y3567808D1*
X2135000Y3563215D1*
X2135827Y3558570D1*
X2136522Y3553871D1*
X2137060Y3549121D1*
X2137454Y3544331D1*
X2137690Y3539501D1*
X2137769Y3534619D1*
X2137690Y3529751D1*
X2137454Y3524921D1*
X2137060Y3520131D1*
X2136522Y3515381D1*
X2135827Y3510682D1*
X2135000Y3506037D1*
X2134016Y3501430D1*
X2132900Y3496890D1*
X2131640Y3492402D1*
X2130236Y3487966D1*
X2128714Y3483596D1*
X2127047Y3479304D1*
X2125249Y3475066D1*
X2123333Y3470892D1*
X2121286Y3466798D1*
X2119121Y3462769D1*
X2116837Y3458819D1*
X2114436Y3454948D1*
X2111916Y3451155D1*
X2109291Y3447454D1*
X2106549Y3443832D1*
X2103701Y3440302D1*
X2100748Y3436864D1*
X2097690Y3433504D1*
X2094528Y3430249D1*
X2091273Y3427100D1*
X2087927Y3424042D1*
X2084488Y3421089D1*
X2080958Y3418241D1*
X2077336Y3415499D1*
X2073622Y3412874D1*
X2069843Y3410354D1*
X2065971Y3407953D1*
X2062021Y3405669D1*
X2057992Y3403504D1*
X2053898Y3401457D1*
X2049724Y3399541D1*
X2045486Y3397743D1*
X2041181Y3396076D1*
X2036811Y3394554D1*
X2032388Y3393150D1*
X2027900Y3391890D1*
X2023360Y3390774D1*
X2018753Y3389790D1*
X2014108Y3388950D1*
X2009409Y3388268D1*
X2004659Y3387730D1*
X1999869Y3387336D1*
X1995039Y3387100D1*
X1990157Y3387021D1*
X1985289Y3387100D1*
X1980459Y3387336D1*
X1975669Y3387730D1*
X1970919Y3388268D1*
X1966220Y3388950D1*
X1961575Y3389790D1*
X1956969Y3390774D1*
X1952428Y3391890D1*
X1947940Y3393150D1*
X1943504Y3394554D1*
X1939147Y3396076D1*
X1934843Y3397743D1*
X1930604Y3399541D1*
X1926430Y3401457D1*
X1922336Y3403504D1*
X1918307Y3405669D1*
X1914357Y3407953D1*
X1910486Y3410354D1*
X1906693Y3412874D1*
X1902992Y3415499D1*
X1899370Y3418241D1*
X1895840Y3421089D1*
X1892402Y3424042D1*
X1889042Y3427100D1*
X1885801Y3430249D1*
X1882638Y3433504D1*
X1879580Y3436864D1*
X1876627Y3440302D1*
X1873780Y3443832D1*
X1871037Y3447454D1*
X1868412Y3451155D1*
X1865892Y3454948D1*
X1863491Y3458819D1*
X1861207Y3462769D1*
X1859042Y3466798D1*
X1856995Y3470892D1*
X1855079Y3475066D1*
X1853281Y3479304D1*
X1851614Y3483596D1*
X1850092Y3487966D1*
X1848688Y3492402D1*
X1847428Y3496890D1*
X1846312Y3501430D1*
X1845328Y3506037D1*
X1844501Y3510682D1*
X1843806Y3515381D1*
X1843268Y3520131D1*
X1842874Y3524921D1*
X1842638Y3529751D1*
X1423963Y2027008D2*
X1423858Y2032913D1*
X1423963Y2038832D1*
X1424252Y2044698D1*
X1424711Y2050512D1*
X1425367Y2056273D1*
X1426207Y2061969D1*
X1427218Y2067612D1*
X1428412Y2073202D1*
X1429777Y2078714D1*
X1431299Y2084160D1*
X1432992Y2089541D1*
X1434856Y2094843D1*
X1436877Y2100066D1*
X1439055Y2105210D1*
X1441378Y2110262D1*
X1443858Y2115236D1*
X1446483Y2120118D1*
X1449265Y2124921D1*
X1452178Y2129619D1*
X1455236Y2134213D1*
X1458425Y2138714D1*
X1461759Y2143110D1*
X1465210Y2147388D1*
X1468793Y2151575D1*
X1472507Y2155630D1*
X1476325Y2159580D1*
X1480276Y2163412D1*
X1484344Y2167126D1*
X1488517Y2170709D1*
X1492808Y2174160D1*
X1497205Y2177493D1*
X1501706Y2180682D1*
X1506299Y2183740D1*
X1510997Y2186654D1*
X1515787Y2189423D1*
X1520682Y2192060D1*
X1525656Y2194541D1*
X1530709Y2196864D1*
X1535853Y2199042D1*
X1541076Y2201063D1*
X1546378Y2202913D1*
X1551759Y2204619D1*
X1557205Y2206142D1*
X1562717Y2207507D1*
X1568294Y2208688D1*
X1573937Y2209711D1*
X1579646Y2210538D1*
X1585407Y2211194D1*
X1591220Y2211667D1*
X1597087Y2211955D1*
X1603005Y2212047D1*
X1608911Y2211955D1*
X1614777Y2211667D1*
X1620591Y2211194D1*
X1626352Y2210538D1*
X1632060Y2209711D1*
X1637703Y2208688D1*
X1643281Y2207507D1*
X1648793Y2206142D1*
X1654239Y2204619D1*
X1659619Y2202913D1*
X1664921Y2201063D1*
X1670144Y2199042D1*
X1675289Y2196864D1*
X1680341Y2194541D1*
X1685315Y2192060D1*
X1690210Y2189423D1*
X1695000Y2186654D1*
X1699698Y2183740D1*
X1704291Y2180682D1*
X1708793Y2177493D1*
X1713189Y2174160D1*
X1717480Y2170709D1*
X1721654Y2167126D1*
X1725722Y2163412D1*
X1729672Y2159580D1*
X1733491Y2155630D1*
X1737205Y2151575D1*
X1740787Y2147388D1*
X1744239Y2143110D1*
X1747572Y2138714D1*
X1750761Y2134213D1*
X1753819Y2129619D1*
X1756732Y2124921D1*
X1759514Y2120118D1*
X1762139Y2115236D1*
X1764619Y2110262D1*
X1766942Y2105210D1*
X1769121Y2100066D1*
X1771142Y2094843D1*
X1773005Y2089541D1*
X1774698Y2084160D1*
X1776220Y2078714D1*
X1777585Y2073202D1*
X1778780Y2067612D1*
X1779790Y2061969D1*
X1780630Y2056273D1*
X1781286Y2050512D1*
X1781745Y2044698D1*
X1782034Y2038832D1*
X1782126Y2032913D1*
X1782034Y2027008D1*
X1781745Y2021142D1*
X1781286Y2015328D1*
X1780630Y2009567D1*
X1779790Y2003858D1*
X1778780Y1998215D1*
X1777585Y1992638D1*
X1776220Y1987113D1*
X1774698Y1981667D1*
X1773005Y1976299D1*
X1771142Y1970997D1*
X1769121Y1965774D1*
X1766942Y1960630D1*
X1764619Y1955564D1*
X1762139Y1950591D1*
X1759514Y1945709D1*
X1756732Y1940919D1*
X1753819Y1936220D1*
X1750761Y1931627D1*
X1747572Y1927126D1*
X1744239Y1922730D1*
X1740787Y1918438D1*
X1737205Y1914265D1*
X1733491Y1910197D1*
X1729672Y1906247D1*
X1725722Y1902415D1*
X1721654Y1898714D1*
X1717480Y1895131D1*
X1713189Y1891667D1*
X1708793Y1888346D1*
X1704291Y1885157D1*
X1699698Y1882100D1*
X1695000Y1879186D1*
X1690210Y1876404D1*
X1685315Y1873780D1*
X1680341Y1871299D1*
X1675289Y1868963D1*
X1670144Y1866798D1*
X1664921Y1864777D1*
X1659619Y1862913D1*
X1654239Y1861220D1*
X1648793Y1859685D1*
X1643281Y1858333D1*
X1637703Y1857139D1*
X1632060Y1856129D1*
X1626352Y1855289D1*
X1620591Y1854633D1*
X1614777Y1854160D1*
X1608911Y1853885D1*
X1603005Y1853780D1*
X1597087Y1853885D1*
X1591220Y1854160D1*
X1585407Y1854633D1*
X1579646Y1855289D1*
X1573937Y1856129D1*
X1568294Y1857139D1*
X1562717Y1858333D1*
X1557205Y1859685D1*
X1551759Y1861220D1*
X1546378Y1862913D1*
X1541076Y1864777D1*
X1535853Y1866798D1*
X1530709Y1868963D1*
X1525656Y1871299D1*
X1520682Y1873780D1*
X1515787Y1876404D1*
X1510997Y1879186D1*
X1506299Y1882100D1*
X1501706Y1885157D1*
X1497205Y1888346D1*
X1492808Y1891667D1*
X1488517Y1895131D1*
X1484344Y1898714D1*
X1480276Y1902415D1*
X1476325Y1906247D1*
X1472507Y1910197D1*
X1468793Y1914265D1*
X1465210Y1918438D1*
X1461759Y1922730D1*
X1458425Y1927126D1*
X1455236Y1931627D1*
X1452178Y1936220D1*
X1449265Y1940919D1*
X1446483Y1945709D1*
X1443858Y1950591D1*
X1441378Y1955564D1*
X1439055Y1960630D1*
X1436877Y1965774D1*
X1434856Y1970997D1*
X1432992Y1976299D1*
X1431299Y1981667D1*
X1429777Y1987113D1*
X1428412Y1992638D1*
X1427218Y1998215D1*
X1426207Y2003858D1*
X1425367Y2009567D1*
X1424711Y2015328D1*
X1424252Y2021142D1*
X1423963Y2027008D1*
X632297D2*
X632192Y2032913D1*
X632297Y2038832D1*
X632585Y2044698D1*
X633045Y2050512D1*
X633701Y2056273D1*
X634541Y2061969D1*
X635551Y2067612D1*
X636745Y2073202D1*
X638110Y2078714D1*
X639633Y2084160D1*
X641325Y2089541D1*
X643189Y2094843D1*
X645210Y2100066D1*
X647388Y2105210D1*
X649711Y2110262D1*
X652192Y2115236D1*
X654816Y2120118D1*
X657598Y2124921D1*
X660512Y2129619D1*
X663570Y2134213D1*
X666759Y2138714D1*
X670092Y2143110D1*
X673543Y2147388D1*
X677126Y2151575D1*
X680840Y2155630D1*
X684659Y2159580D1*
X688609Y2163412D1*
X692677Y2167126D1*
X696850Y2170709D1*
X701142Y2174160D1*
X705538Y2177493D1*
X710039Y2180682D1*
X714633Y2183740D1*
X719331Y2186654D1*
X724121Y2189423D1*
X729016Y2192060D1*
X733990Y2194541D1*
X739042Y2196864D1*
X744186Y2199042D1*
X749409Y2201063D1*
X754711Y2202913D1*
X760092Y2204619D1*
X765538Y2206142D1*
X771050Y2207507D1*
X776627Y2208688D1*
X782270Y2209711D1*
X787979Y2210538D1*
X793740Y2211194D1*
X799554Y2211667D1*
X805420Y2211955D1*
X811339Y2212047D1*
X817244Y2211955D1*
X823110Y2211667D1*
X828924Y2211194D1*
X834685Y2210538D1*
X840394Y2209711D1*
X846037Y2208688D1*
X851614Y2207507D1*
X857126Y2206142D1*
X862572Y2204619D1*
X867953Y2202913D1*
X873255Y2201063D1*
X878478Y2199042D1*
X883622Y2196864D1*
X888675Y2194541D1*
X893648Y2192060D1*
X898543Y2189423D1*
X903333Y2186654D1*
X908031Y2183740D1*
X912625Y2180682D1*
X917126Y2177493D1*
X921522Y2174160D1*
X925814Y2170709D1*
X929987Y2167126D1*
X934055Y2163412D1*
X938005Y2159580D1*
X941824Y2155630D1*
X945538Y2151575D1*
X949121Y2147388D1*
X952572Y2143110D1*
X955906Y2138714D1*
X959094Y2134213D1*
X962152Y2129619D1*
X965066Y2124921D1*
X967848Y2120118D1*
X970472Y2115236D1*
X972953Y2110262D1*
X975276Y2105210D1*
X977454Y2100066D1*
X979475Y2094843D1*
X981339Y2089541D1*
X983031Y2084160D1*
X984554Y2078714D1*
X985919Y2073202D1*
X987113Y2067612D1*
X988123Y2061969D1*
X988963Y2056273D1*
X989619Y2050512D1*
X990079Y2044698D1*
X990367Y2038832D1*
X990459Y2032913D1*
X990367Y2027008D1*
X990079Y2021142D1*
X989619Y2015328D1*
X988963Y2009567D1*
X988123Y2003858D1*
X987113Y1998215D1*
X985919Y1992638D1*
X984554Y1987113D1*
X983031Y1981667D1*
X981339Y1976299D1*
X979475Y1970997D1*
X977454Y1965774D1*
X975276Y1960630D1*
X972953Y1955564D1*
X970472Y1950591D1*
X967848Y1945709D1*
X965066Y1940919D1*
X962152Y1936220D1*
X959094Y1931627D1*
X955906Y1927126D1*
X952572Y1922730D1*
X949121Y1918438D1*
X945538Y1914265D1*
X941824Y1910197D1*
X938005Y1906247D1*
X934055Y1902415D1*
X929987Y1898714D1*
X925814Y1895131D1*
X921522Y1891667D1*
X917126Y1888346D1*
X912625Y1885157D1*
X908031Y1882100D1*
X903333Y1879186D1*
X898543Y1876404D1*
X893648Y1873780D1*
X888675Y1871299D1*
X883622Y1868963D1*
X878478Y1866798D1*
X873255Y1864777D1*
X867953Y1862913D1*
X862572Y1861220D1*
X857126Y1859685D1*
X851614Y1858333D1*
X846037Y1857139D1*
X840394Y1856129D1*
X834685Y1855289D1*
X828924Y1854633D1*
X823110Y1854160D1*
X817244Y1853885D1*
X811339Y1853780D1*
X805420Y1853885D1*
X799554Y1854160D1*
X793740Y1854633D1*
X787979Y1855289D1*
X782270Y1856129D1*
X776627Y1857139D1*
X771050Y1858333D1*
X765538Y1859685D1*
X760092Y1861220D1*
X754711Y1862913D1*
X749409Y1864777D1*
X744186Y1866798D1*
X739042Y1868963D1*
X733990Y1871299D1*
X729016Y1873780D1*
X724121Y1876404D1*
X719331Y1879186D1*
X714633Y1882100D1*
X710039Y1885157D1*
X705538Y1888346D1*
X701142Y1891667D1*
X696850Y1895131D1*
X692677Y1898714D1*
X688609Y1902415D1*
X684659Y1906247D1*
X680840Y1910197D1*
X677126Y1914265D1*
X673543Y1918438D1*
X670092Y1922730D1*
X666759Y1927126D1*
X663570Y1931627D1*
X660512Y1936220D1*
X657598Y1940919D1*
X654816Y1945709D1*
X652192Y1950591D1*
X649711Y1955564D1*
X647388Y1960630D1*
X645210Y1965774D1*
X643189Y1970997D1*
X641325Y1976299D1*
X639633Y1981667D1*
X638110Y1987113D1*
X636745Y1992638D1*
X635551Y1998215D1*
X634541Y2003858D1*
X633701Y2009567D1*
X633045Y2015328D1*
X632585Y2021142D1*
X632297Y2027008D1*
X1798045Y1029541D2*
X1798058Y1027559D1*
X1797913Y1021627D1*
X1797493Y1015761D1*
X1796785Y1009987D1*
X1795814Y1004291D1*
X1794567Y998701D1*
X1793071Y993202D1*
X1791325Y987808D1*
X1789344Y982533D1*
X1787113Y977388D1*
X1784659Y972362D1*
X1781969Y967467D1*
X1779081Y962730D1*
X1775971Y958123D1*
X1772664Y953675D1*
X1769147Y949396D1*
X1765446Y945276D1*
X1761575Y941339D1*
X1757507Y937572D1*
X1753281Y934003D1*
X1748885Y930630D1*
X1744344Y927454D1*
X1739646Y924488D1*
X1734803Y921732D1*
X1729816Y919199D1*
X1724711Y916890D1*
X1719475Y914829D1*
X1714121Y912992D1*
X1708661Y911417D1*
X1703097Y910092D1*
X1697441Y909029D1*
X1691693Y908228D1*
X1685853Y907717D1*
X1679948Y907467D1*
X1674003Y907520D1*
X1668110Y907848D1*
X1662310Y908465D1*
X1656588Y909357D1*
X1650958Y910499D1*
X1645420Y911916D1*
X1640000Y913583D1*
X1634685Y915486D1*
X1629501Y917638D1*
X1624423Y920013D1*
X1619488Y922625D1*
X1614698Y925446D1*
X1610052Y928491D1*
X1605551Y931732D1*
X1601207Y935171D1*
X1597034Y938806D1*
X1593031Y942638D1*
X1589213Y946627D1*
X1585577Y950801D1*
X1582139Y955144D1*
X1578898Y959646D1*
X1575853Y964291D1*
X1573031Y969094D1*
X1570420Y974029D1*
X1568045Y979094D1*
X1565892Y984278D1*
X1563990Y989593D1*
X1562323Y995013D1*
X1560906Y1000551D1*
X1559764Y1006181D1*
X1558871Y1011903D1*
X1558255Y1017703D1*
X1557927Y1023596D1*
X1557874Y1029541D1*
X1558110Y1035446D1*
X1558635Y1041286D1*
X1559436Y1047034D1*
X1560499Y1052703D1*
X1561824Y1058255D1*
X1563399Y1063727D1*
X1565223Y1069068D1*
X1567297Y1074304D1*
X1569606Y1079409D1*
X1572139Y1084396D1*
X1574882Y1089239D1*
X1577861Y1093937D1*
X1581037Y1098491D1*
X1584409Y1102874D1*
X1587979Y1107113D1*
X1591745Y1111168D1*
X1595682Y1115052D1*
X1599803Y1118740D1*
X1604081Y1122257D1*
X1608530Y1125564D1*
X1613136Y1128675D1*
X1617874Y1131575D1*
X1622769Y1134252D1*
X1627795Y1136706D1*
X1632940Y1138937D1*
X1638215Y1140919D1*
X1643609Y1142664D1*
X1649094Y1144160D1*
X1654698Y1145407D1*
X1660381Y1146378D1*
X1666168Y1147087D1*
X1672021Y1147507D1*
X1677966Y1147651D1*
X1683898Y1147507D1*
X1689751Y1147087D1*
X1695538Y1146378D1*
X1701220Y1145407D1*
X1706824Y1144160D1*
X1712323Y1142664D1*
X1717703Y1140919D1*
X1722979Y1138937D1*
X1728123Y1136706D1*
X1733150Y1134252D1*
X1738045Y1131575D1*
X1742795Y1128675D1*
X1747388Y1125564D1*
X1751837Y1122257D1*
X1756115Y1118740D1*
X1760236Y1115052D1*
X1764173Y1111168D1*
X1767940Y1107113D1*
X1771509Y1102874D1*
X1774882Y1098491D1*
X1778071Y1093937D1*
X1781037Y1089239D1*
X1783793Y1084396D1*
X1786312Y1079409D1*
X1788622Y1074304D1*
X1790696Y1069068D1*
X1792520Y1063727D1*
X1794094Y1058255D1*
X1795420Y1052703D1*
X1796483Y1047034D1*
X1797283Y1041286D1*
X1797808Y1035446D1*
X1798045Y1029541D1*
X1284160D2*
X1284173Y1027559D1*
X1284029Y1021627D1*
X1283596Y1015761D1*
X1282900Y1009987D1*
X1281916Y1004291D1*
X1280682Y998701D1*
X1279186Y993202D1*
X1277441Y987808D1*
X1275446Y982533D1*
X1273228Y977388D1*
X1270761Y972362D1*
X1268084Y967467D1*
X1265184Y962730D1*
X1262087Y958123D1*
X1258766Y953675D1*
X1255262Y949396D1*
X1251562Y945276D1*
X1247677Y941339D1*
X1243622Y937572D1*
X1239396Y934003D1*
X1235000Y930630D1*
X1230446Y927454D1*
X1225748Y924488D1*
X1220906Y921732D1*
X1215932Y919199D1*
X1210814Y916890D1*
X1205591Y914829D1*
X1200236Y912992D1*
X1194777Y911417D1*
X1189213Y910092D1*
X1183556Y909029D1*
X1177808Y908228D1*
X1171969Y907717D1*
X1166063Y907467D1*
X1160105Y907520D1*
X1154226Y907848D1*
X1148412Y908465D1*
X1142690Y909357D1*
X1137060Y910499D1*
X1131535Y911916D1*
X1126115Y913583D1*
X1120801Y915486D1*
X1115604Y917638D1*
X1110538Y920013D1*
X1105604Y922625D1*
X1100814Y925446D1*
X1096155Y928491D1*
X1091667Y931732D1*
X1087323Y935171D1*
X1083150Y938806D1*
X1079147Y942638D1*
X1075328Y946627D1*
X1071693Y950801D1*
X1068241Y955144D1*
X1065000Y959646D1*
X1061969Y964291D1*
X1059134Y969094D1*
X1056535Y974029D1*
X1054147Y979094D1*
X1052008Y984278D1*
X1050092Y989593D1*
X1048425Y995013D1*
X1047021Y1000551D1*
X1045866Y1006181D1*
X1044987Y1011903D1*
X1044370Y1017703D1*
X1044042Y1023596D1*
X1043990Y1029541D1*
X1044226Y1035446D1*
X1044751Y1041286D1*
X1045538Y1047034D1*
X1046601Y1052703D1*
X1047927Y1058255D1*
X1049514Y1063727D1*
X1051339Y1069068D1*
X1053412Y1074304D1*
X1055709Y1079409D1*
X1058241Y1084396D1*
X1060997Y1089239D1*
X1063963Y1093937D1*
X1067139Y1098491D1*
X1070525Y1102874D1*
X1074094Y1107113D1*
X1077848Y1111168D1*
X1081798Y1115052D1*
X1085906Y1118740D1*
X1090197Y1122257D1*
X1094646Y1125564D1*
X1099239Y1128675D1*
X1103990Y1131575D1*
X1108885Y1134252D1*
X1113898Y1136706D1*
X1119055Y1138937D1*
X1124331Y1140919D1*
X1129711Y1142664D1*
X1135210Y1144160D1*
X1140801Y1145407D1*
X1146496Y1146378D1*
X1152270Y1147087D1*
X1158136Y1147507D1*
X1164068Y1147651D1*
X1170000Y1147507D1*
X1175866Y1147087D1*
X1181640Y1146378D1*
X1187336Y1145407D1*
X1192927Y1144160D1*
X1198425Y1142664D1*
X1203819Y1140919D1*
X1209094Y1138937D1*
X1214239Y1136706D1*
X1219265Y1134252D1*
X1224160Y1131575D1*
X1228898Y1128675D1*
X1233504Y1125564D1*
X1237953Y1122257D1*
X1242231Y1118740D1*
X1246352Y1115052D1*
X1250289Y1111168D1*
X1254055Y1107113D1*
X1257625Y1102874D1*
X1260997Y1098491D1*
X1264173Y1093937D1*
X1267139Y1089239D1*
X1269895Y1084396D1*
X1272428Y1079409D1*
X1274738Y1074304D1*
X1276798Y1069068D1*
X1278635Y1063727D1*
X1280210Y1058255D1*
X1281535Y1052703D1*
X1282598Y1047034D1*
X1283399Y1041286D1*
X1283911Y1035446D1*
X1284160Y1029541D1*
X770262D2*
X770289Y1027559D1*
X770144Y1021627D1*
X769711Y1015761D1*
X769003Y1009987D1*
X768031Y1004291D1*
X766798Y998701D1*
X765302Y993202D1*
X763556Y987808D1*
X761562Y982533D1*
X759331Y977388D1*
X756877Y972362D1*
X754199Y967467D1*
X751299Y962730D1*
X748189Y958123D1*
X744882Y953675D1*
X741378Y949396D1*
X737677Y945276D1*
X733793Y941339D1*
X729738Y937572D1*
X725499Y934003D1*
X721115Y930630D1*
X716562Y927454D1*
X711864Y924488D1*
X707021Y921732D1*
X702047Y919199D1*
X696929Y916890D1*
X691693Y914829D1*
X686352Y912992D1*
X680892Y911417D1*
X675328Y910092D1*
X669659Y909029D1*
X663911Y908228D1*
X658084Y907717D1*
X652165Y907467D1*
X646220Y907520D1*
X640328Y907848D1*
X634528Y908465D1*
X628806Y909357D1*
X623176Y910499D1*
X617651Y911916D1*
X612218Y913583D1*
X606916Y915486D1*
X601719Y917638D1*
X596654Y920013D1*
X591719Y922625D1*
X586916Y925446D1*
X582270Y928491D1*
X577769Y931732D1*
X573438Y935171D1*
X569265Y938806D1*
X565262Y942638D1*
X561444Y946627D1*
X557808Y950801D1*
X554357Y955144D1*
X551115Y959646D1*
X548071Y964291D1*
X545249Y969094D1*
X542638Y974029D1*
X540262Y979094D1*
X538110Y984278D1*
X536207Y989593D1*
X534541Y995013D1*
X533136Y1000551D1*
X531982Y1006181D1*
X531089Y1011903D1*
X530486Y1017703D1*
X530144Y1023596D1*
X530105Y1029541D1*
X530341Y1035446D1*
X530853Y1041286D1*
X531654Y1047034D1*
X532717Y1052703D1*
X534042Y1058255D1*
X535630Y1063727D1*
X537454Y1069068D1*
X539514Y1074304D1*
X541824Y1079409D1*
X544357Y1084396D1*
X547113Y1089239D1*
X550079Y1093937D1*
X553255Y1098491D1*
X556627Y1102874D1*
X560210Y1107113D1*
X563963Y1111168D1*
X567900Y1115052D1*
X572021Y1118740D1*
X576312Y1122257D1*
X580748Y1125564D1*
X585354Y1128675D1*
X590105Y1131575D1*
X594987Y1134252D1*
X600013Y1136706D1*
X605171Y1138937D1*
X610433Y1140919D1*
X615827Y1142664D1*
X621325Y1144160D1*
X626916Y1145407D1*
X632612Y1146378D1*
X638386Y1147087D1*
X644252Y1147507D1*
X650184Y1147651D1*
X656115Y1147507D1*
X661982Y1147087D1*
X667756Y1146378D1*
X673451Y1145407D1*
X679042Y1144160D1*
X684541Y1142664D1*
X689921Y1140919D1*
X695197Y1138937D1*
X700354Y1136706D1*
X705381Y1134252D1*
X710262Y1131575D1*
X715013Y1128675D1*
X719619Y1125564D1*
X724055Y1122257D1*
X728346Y1118740D1*
X732454Y1115052D1*
X736404Y1111168D1*
X740157Y1107113D1*
X743727Y1102874D1*
X747113Y1098491D1*
X750289Y1093937D1*
X753255Y1089239D1*
X756010Y1084396D1*
X758543Y1079409D1*
X760840Y1074304D1*
X762913Y1069068D1*
X764738Y1063727D1*
X766325Y1058255D1*
X767651Y1052703D1*
X768714Y1047034D1*
X769501Y1041286D1*
X770026Y1035446D1*
X770262Y1029541D1*
X1798045Y1511824D2*
X1798058Y1509843D1*
X1797913Y1503911D1*
X1797493Y1498045D1*
X1796785Y1492270D1*
X1795814Y1486575D1*
X1794567Y1480971D1*
X1793071Y1475486D1*
X1791325Y1470092D1*
X1789344Y1464816D1*
X1787113Y1459672D1*
X1784659Y1454646D1*
X1781969Y1449751D1*
X1779081Y1445013D1*
X1775971Y1440407D1*
X1772664Y1435958D1*
X1769147Y1431680D1*
X1765446Y1427559D1*
X1761575Y1423622D1*
X1757507Y1419856D1*
X1753281Y1416286D1*
X1748885Y1412913D1*
X1744344Y1409738D1*
X1739646Y1406772D1*
X1734803Y1404016D1*
X1729816Y1401483D1*
X1724711Y1399173D1*
X1719475Y1397113D1*
X1714121Y1395276D1*
X1708661Y1393701D1*
X1703097Y1392375D1*
X1697441Y1391312D1*
X1691693Y1390512D1*
X1685853Y1390000D1*
X1679948Y1389751D1*
X1674003Y1389803D1*
X1668110Y1390131D1*
X1662310Y1390748D1*
X1656588Y1391640D1*
X1650958Y1392782D1*
X1645420Y1394199D1*
X1640000Y1395866D1*
X1634685Y1397769D1*
X1629501Y1399921D1*
X1624423Y1402297D1*
X1619488Y1404908D1*
X1614698Y1407730D1*
X1610052Y1410774D1*
X1605551Y1414016D1*
X1601207Y1417454D1*
X1597034Y1421089D1*
X1593031Y1424921D1*
X1589213Y1428911D1*
X1585577Y1433084D1*
X1582139Y1437428D1*
X1578898Y1441929D1*
X1575853Y1446575D1*
X1573031Y1451365D1*
X1570420Y1456312D1*
X1568045Y1461378D1*
X1565892Y1466562D1*
X1563990Y1471877D1*
X1562323Y1477297D1*
X1560906Y1482835D1*
X1559764Y1488465D1*
X1558871Y1494186D1*
X1558255Y1499987D1*
X1557927Y1505879D1*
X1557874Y1511824D1*
X1558110Y1517730D1*
X1558635Y1523570D1*
X1559436Y1529318D1*
X1560499Y1534974D1*
X1561824Y1540538D1*
X1563399Y1546010D1*
X1565223Y1551352D1*
X1567297Y1556588D1*
X1569606Y1561693D1*
X1572139Y1566680D1*
X1574882Y1571522D1*
X1577861Y1576220D1*
X1581037Y1580774D1*
X1584409Y1585157D1*
X1587979Y1589396D1*
X1591745Y1593451D1*
X1595682Y1597336D1*
X1599803Y1601024D1*
X1604081Y1604541D1*
X1608530Y1607848D1*
X1613136Y1610958D1*
X1617874Y1613858D1*
X1622769Y1616535D1*
X1627795Y1618990D1*
X1632940Y1621220D1*
X1638215Y1623202D1*
X1643609Y1624948D1*
X1649094Y1626444D1*
X1654698Y1627690D1*
X1660381Y1628661D1*
X1666168Y1629370D1*
X1672021Y1629790D1*
X1677966Y1629934D1*
X1683898Y1629790D1*
X1689751Y1629370D1*
X1695538Y1628661D1*
X1701220Y1627690D1*
X1706824Y1626444D1*
X1712323Y1624948D1*
X1717703Y1623202D1*
X1722979Y1621220D1*
X1728123Y1618990D1*
X1733150Y1616535D1*
X1738045Y1613858D1*
X1742795Y1610958D1*
X1747388Y1607848D1*
X1751837Y1604541D1*
X1756115Y1601024D1*
X1760236Y1597336D1*
X1764173Y1593451D1*
X1767940Y1589396D1*
X1771509Y1585157D1*
X1774882Y1580774D1*
X1778071Y1576220D1*
X1781037Y1571522D1*
X1783793Y1566680D1*
X1786312Y1561693D1*
X1788622Y1556588D1*
X1790696Y1551352D1*
X1792520Y1546010D1*
X1794094Y1540538D1*
X1795420Y1534974D1*
X1796483Y1529318D1*
X1797283Y1523570D1*
X1797808Y1517730D1*
X1798045Y1511824D1*
X1284160D2*
X1284173Y1509843D1*
X1284029Y1503911D1*
X1283596Y1498045D1*
X1282900Y1492270D1*
X1281916Y1486575D1*
X1280682Y1480984D1*
X1279186Y1475486D1*
X1277441Y1470092D1*
X1275446Y1464816D1*
X1273228Y1459672D1*
X1270761Y1454646D1*
X1268084Y1449751D1*
X1265184Y1445013D1*
X1262087Y1440407D1*
X1258766Y1435958D1*
X1255262Y1431680D1*
X1251562Y1427559D1*
X1247677Y1423622D1*
X1243622Y1419856D1*
X1239396Y1416286D1*
X1235000Y1412913D1*
X1230446Y1409738D1*
X1225748Y1406772D1*
X1220906Y1404016D1*
X1215932Y1401483D1*
X1210814Y1399173D1*
X1205591Y1397113D1*
X1200236Y1395276D1*
X1194777Y1393701D1*
X1189213Y1392375D1*
X1183556Y1391312D1*
X1177808Y1390512D1*
X1171969Y1390000D1*
X1166063Y1389751D1*
X1160105Y1389803D1*
X1154226Y1390131D1*
X1148412Y1390748D1*
X1142690Y1391640D1*
X1137060Y1392782D1*
X1131535Y1394199D1*
X1126115Y1395866D1*
X1120801Y1397769D1*
X1115604Y1399921D1*
X1110538Y1402297D1*
X1105604Y1404908D1*
X1100814Y1407730D1*
X1096155Y1410774D1*
X1091667Y1414016D1*
X1087323Y1417454D1*
X1083150Y1421089D1*
X1079147Y1424921D1*
X1075328Y1428911D1*
X1071693Y1433084D1*
X1068241Y1437428D1*
X1065000Y1441929D1*
X1061969Y1446575D1*
X1059134Y1451378D1*
X1056535Y1456312D1*
X1054147Y1461378D1*
X1052008Y1466562D1*
X1050092Y1471877D1*
X1048425Y1477297D1*
X1047021Y1482835D1*
X1045866Y1488465D1*
X1044987Y1494186D1*
X1044370Y1499987D1*
X1044042Y1505879D1*
X1043990Y1511824D1*
X1044226Y1517730D1*
X1044751Y1523570D1*
X1045538Y1529318D1*
X1046601Y1534987D1*
X1047927Y1540538D1*
X1049514Y1546010D1*
X1051339Y1551352D1*
X1053412Y1556588D1*
X1055709Y1561693D1*
X1058241Y1566680D1*
X1060997Y1571522D1*
X1063963Y1576220D1*
X1067139Y1580774D1*
X1070525Y1585157D1*
X1074094Y1589396D1*
X1077848Y1593451D1*
X1081798Y1597336D1*
X1085906Y1601024D1*
X1090197Y1604541D1*
X1094646Y1607848D1*
X1099239Y1610958D1*
X1103990Y1613858D1*
X1108885Y1616535D1*
X1113898Y1618990D1*
X1119055Y1621220D1*
X1124331Y1623202D1*
X1129711Y1624948D1*
X1135210Y1626444D1*
X1140801Y1627690D1*
X1146496Y1628661D1*
X1152270Y1629370D1*
X1158136Y1629790D1*
X1164068Y1629934D1*
X1170000Y1629790D1*
X1175866Y1629370D1*
X1181640Y1628661D1*
X1187336Y1627690D1*
X1192927Y1626444D1*
X1198425Y1624948D1*
X1203819Y1623202D1*
X1209094Y1621220D1*
X1214239Y1618990D1*
X1219265Y1616535D1*
X1224160Y1613858D1*
X1228898Y1610958D1*
X1233504Y1607848D1*
X1237953Y1604541D1*
X1242231Y1601024D1*
X1246352Y1597336D1*
X1250289Y1593451D1*
X1254055Y1589396D1*
X1257625Y1585157D1*
X1260997Y1580774D1*
X1264173Y1576220D1*
X1267139Y1571522D1*
X1269895Y1566680D1*
X1272428Y1561693D1*
X1274738Y1556588D1*
X1276798Y1551352D1*
X1278635Y1546010D1*
X1280210Y1540538D1*
X1281535Y1534987D1*
X1282598Y1529318D1*
X1283399Y1523570D1*
X1283911Y1517730D1*
X1284160Y1511824D1*
X770262D2*
X770289Y1509843D1*
X770144Y1503911D1*
X769711Y1498045D1*
X769003Y1492270D1*
X768031Y1486575D1*
X766798Y1480984D1*
X765302Y1475486D1*
X763556Y1470092D1*
X761562Y1464816D1*
X759331Y1459672D1*
X756877Y1454646D1*
X754199Y1449751D1*
X751299Y1445013D1*
X748189Y1440407D1*
X744882Y1435958D1*
X741378Y1431680D1*
X737677Y1427559D1*
X733793Y1423622D1*
X729738Y1419856D1*
X725499Y1416286D1*
X721115Y1412913D1*
X716562Y1409738D1*
X711864Y1406772D1*
X707021Y1404016D1*
X702047Y1401483D1*
X696929Y1399173D1*
X691693Y1397113D1*
X686352Y1395276D1*
X680892Y1393701D1*
X675328Y1392375D1*
X669659Y1391312D1*
X663911Y1390512D1*
X658084Y1390000D1*
X652165Y1389751D1*
X646220Y1389803D1*
X640328Y1390131D1*
X634528Y1390748D1*
X628806Y1391640D1*
X623176Y1392782D1*
X617651Y1394199D1*
X612218Y1395866D1*
X606916Y1397769D1*
X601719Y1399921D1*
X596654Y1402297D1*
X591719Y1404908D1*
X586916Y1407730D1*
X582270Y1410774D1*
X577769Y1414016D1*
X573438Y1417454D1*
X569265Y1421089D1*
X565262Y1424921D1*
X561444Y1428911D1*
X557808Y1433084D1*
X554357Y1437428D1*
X551115Y1441929D1*
X548071Y1446575D1*
X545249Y1451378D1*
X542638Y1456312D1*
X540262Y1461378D1*
X538110Y1466562D1*
X536207Y1471877D1*
X534541Y1477297D1*
X533136Y1482835D1*
X531982Y1488465D1*
X531089Y1494186D1*
X530486Y1499987D1*
X530144Y1505879D1*
X530105Y1511824D1*
X530341Y1517730D1*
X530853Y1523570D1*
X531654Y1529318D1*
X532717Y1534987D1*
X534042Y1540538D1*
X535630Y1546010D1*
X537454Y1551352D1*
X539514Y1556588D1*
X541824Y1561693D1*
X544357Y1566680D1*
X547113Y1571522D1*
X550079Y1576220D1*
X553255Y1580774D1*
X556627Y1585157D1*
X560210Y1589396D1*
X563963Y1593451D1*
X567900Y1597336D1*
X572021Y1601024D1*
X576312Y1604541D1*
X580748Y1607848D1*
X585354Y1610958D1*
X590105Y1613858D1*
X594987Y1616535D1*
X600013Y1618990D1*
X605171Y1621220D1*
X610433Y1623202D1*
X615827Y1624948D1*
X621325Y1626444D1*
X626916Y1627690D1*
X632612Y1628661D1*
X638386Y1629370D1*
X644252Y1629790D1*
X650184Y1629934D1*
X656115Y1629790D1*
X661982Y1629370D1*
X667756Y1628661D1*
X673451Y1627690D1*
X679042Y1626444D1*
X684541Y1624948D1*
X689921Y1623202D1*
X695197Y1621220D1*
X700354Y1618990D1*
X705381Y1616535D1*
X710262Y1613858D1*
X715013Y1610958D1*
X719619Y1607848D1*
X724055Y1604541D1*
X728346Y1601024D1*
X732454Y1597336D1*
X736404Y1593451D1*
X740157Y1589396D1*
X743727Y1585157D1*
X747113Y1580774D1*
X750289Y1576220D1*
X753255Y1571522D1*
X756010Y1566680D1*
X758543Y1561693D1*
X760840Y1556588D1*
X762913Y1551352D1*
X764738Y1546010D1*
X766325Y1540538D1*
X767651Y1534987D1*
X768714Y1529318D1*
X769501Y1523570D1*
X770026Y1517730D1*
X770262Y1511824D1*
X3447651Y1029541D2*
X3447664Y1027559D1*
X3447520Y1021627D1*
X3447100Y1015761D1*
X3446391Y1009987D1*
X3445420Y1004291D1*
X3444173Y998701D1*
X3442677Y993202D1*
X3440932Y987808D1*
X3438950Y982533D1*
X3436719Y977388D1*
X3434265Y972362D1*
X3431575Y967467D1*
X3428688Y962730D1*
X3425577Y958123D1*
X3422257Y953675D1*
X3418753Y949396D1*
X3415052Y945276D1*
X3411181Y941339D1*
X3407113Y937572D1*
X3402887Y934003D1*
X3398491Y930630D1*
X3393950Y927454D1*
X3389252Y924488D1*
X3384409Y921732D1*
X3379423Y919199D1*
X3374318Y916890D1*
X3369081Y914829D1*
X3363727Y912992D1*
X3358268Y911417D1*
X3352703Y910092D1*
X3347047Y909029D1*
X3341299Y908228D1*
X3335459Y907717D1*
X3329554Y907467D1*
X3323596Y907520D1*
X3317717Y907848D1*
X3311903Y908465D1*
X3306181Y909357D1*
X3300564Y910499D1*
X3295026Y911916D1*
X3289606Y913583D1*
X3284291Y915486D1*
X3279094Y917638D1*
X3274029Y920013D1*
X3269094Y922625D1*
X3264304Y925446D1*
X3259646Y928491D1*
X3255157Y931732D1*
X3250814Y935171D1*
X3246640Y938806D1*
X3242638Y942638D1*
X3238819Y946627D1*
X3235184Y950801D1*
X3231745Y955144D1*
X3228504Y959646D1*
X3225459Y964291D1*
X3222638Y969094D1*
X3220026Y974029D1*
X3217651Y979094D1*
X3215499Y984278D1*
X3213583Y989593D1*
X3211929Y995013D1*
X3210512Y1000551D1*
X3209357Y1006181D1*
X3208478Y1011903D1*
X3207861Y1017703D1*
X3207533Y1023596D1*
X3207480Y1029541D1*
X3207717Y1035446D1*
X3208241Y1041286D1*
X3209042Y1047034D1*
X3210105Y1052703D1*
X3211430Y1058255D1*
X3213005Y1063727D1*
X3214829Y1069068D1*
X3216903Y1074304D1*
X3219213Y1079409D1*
X3221745Y1084396D1*
X3224488Y1089239D1*
X3227467Y1093937D1*
X3230643Y1098491D1*
X3234016Y1102874D1*
X3237585Y1107113D1*
X3241352Y1111168D1*
X3245289Y1115052D1*
X3249409Y1118740D1*
X3253688Y1122257D1*
X3258136Y1125564D1*
X3262730Y1128675D1*
X3267480Y1131575D1*
X3272375Y1134252D1*
X3277402Y1136706D1*
X3282546Y1138937D1*
X3287822Y1140919D1*
X3293215Y1142664D1*
X3298701Y1144160D1*
X3304304Y1145407D1*
X3309987Y1146378D1*
X3315774Y1147087D1*
X3321627Y1147507D1*
X3327559Y1147651D1*
X3333504Y1147507D1*
X3339357Y1147087D1*
X3345144Y1146378D1*
X3350827Y1145407D1*
X3356430Y1144160D1*
X3361916Y1142664D1*
X3367310Y1140919D1*
X3372585Y1138937D1*
X3377730Y1136706D1*
X3382756Y1134252D1*
X3387651Y1131575D1*
X3392402Y1128675D1*
X3396995Y1125564D1*
X3401444Y1122257D1*
X3405722Y1118740D1*
X3409843Y1115052D1*
X3413780Y1111168D1*
X3417546Y1107113D1*
X3421115Y1102874D1*
X3424488Y1098491D1*
X3427664Y1093937D1*
X3430643Y1089239D1*
X3433386Y1084396D1*
X3435919Y1079409D1*
X3438228Y1074304D1*
X3440302Y1069068D1*
X3442126Y1063727D1*
X3443701Y1058255D1*
X3445026Y1052703D1*
X3446089Y1047034D1*
X3446890Y1041286D1*
X3447415Y1035446D1*
X3447651Y1029541D1*
X2961535D2*
X2961549Y1027559D1*
X2961404Y1021627D1*
X2960984Y1015761D1*
X2960276Y1009987D1*
X2959304Y1004291D1*
X2958058Y998701D1*
X2956562Y993202D1*
X2954816Y987808D1*
X2952835Y982533D1*
X2950604Y977388D1*
X2948150Y972362D1*
X2945472Y967467D1*
X2942572Y962730D1*
X2939462Y958123D1*
X2936155Y953675D1*
X2932638Y949396D1*
X2928950Y945276D1*
X2925066Y941339D1*
X2921010Y937572D1*
X2916772Y934003D1*
X2912388Y930630D1*
X2907835Y927454D1*
X2903136Y924488D1*
X2898294Y921732D1*
X2893307Y919199D1*
X2888202Y916890D1*
X2882966Y914829D1*
X2877625Y912992D1*
X2872165Y911417D1*
X2866601Y910092D1*
X2860932Y909029D1*
X2855184Y908228D1*
X2849357Y907717D1*
X2843438Y907467D1*
X2837493Y907520D1*
X2831601Y907848D1*
X2825801Y908465D1*
X2820079Y909357D1*
X2814449Y910499D1*
X2808924Y911916D1*
X2803491Y913583D1*
X2798176Y915486D1*
X2792992Y917638D1*
X2787927Y920013D1*
X2782992Y922625D1*
X2778189Y925446D1*
X2773543Y928491D1*
X2769042Y931732D1*
X2764698Y935171D1*
X2760525Y938806D1*
X2756535Y942638D1*
X2752703Y946627D1*
X2749068Y950801D1*
X2745630Y955144D1*
X2742388Y959646D1*
X2739344Y964291D1*
X2736522Y969094D1*
X2733911Y974029D1*
X2731535Y979094D1*
X2729383Y984278D1*
X2727480Y989593D1*
X2725814Y995013D1*
X2724409Y1000551D1*
X2723255Y1006181D1*
X2722362Y1011903D1*
X2721759Y1017703D1*
X2721417Y1023596D1*
X2721365Y1029541D1*
X2721614Y1035446D1*
X2722126Y1041286D1*
X2722927Y1047034D1*
X2723990Y1052703D1*
X2725315Y1058255D1*
X2726890Y1063727D1*
X2728727Y1069068D1*
X2730787Y1074304D1*
X2733097Y1079409D1*
X2735630Y1084396D1*
X2738386Y1089239D1*
X2741352Y1093937D1*
X2744528Y1098491D1*
X2747900Y1102874D1*
X2751483Y1107113D1*
X2755236Y1111168D1*
X2759173Y1115052D1*
X2763294Y1118740D1*
X2767585Y1122257D1*
X2772021Y1125564D1*
X2776627Y1128675D1*
X2781378Y1131575D1*
X2786260Y1134252D1*
X2791286Y1136706D1*
X2796444Y1138937D1*
X2801706Y1140919D1*
X2807100Y1142664D1*
X2812598Y1144160D1*
X2818189Y1145407D1*
X2823885Y1146378D1*
X2829659Y1147087D1*
X2835525Y1147507D1*
X2841457Y1147651D1*
X2847388Y1147507D1*
X2853255Y1147087D1*
X2859029Y1146378D1*
X2864724Y1145407D1*
X2870315Y1144160D1*
X2875814Y1142664D1*
X2881194Y1140919D1*
X2886470Y1138937D1*
X2891627Y1136706D1*
X2896654Y1134252D1*
X2901535Y1131575D1*
X2906286Y1128675D1*
X2910879Y1125564D1*
X2915328Y1122257D1*
X2919619Y1118740D1*
X2923727Y1115052D1*
X2927677Y1111168D1*
X2931430Y1107113D1*
X2935000Y1102874D1*
X2938386Y1098491D1*
X2941562Y1093937D1*
X2944528Y1089239D1*
X2947283Y1084396D1*
X2949816Y1079409D1*
X2952113Y1074304D1*
X2954186Y1069068D1*
X2956010Y1063727D1*
X2957598Y1058255D1*
X2958924Y1052703D1*
X2959987Y1047034D1*
X2960774Y1041286D1*
X2961299Y1035446D1*
X2961535Y1029541D1*
X2078478Y1025577D2*
X2078386Y1031496D1*
X2078478Y1037402D1*
X2078766Y1043268D1*
X2079239Y1049081D1*
X2079895Y1054843D1*
X2080735Y1060551D1*
X2081745Y1066194D1*
X2082940Y1071772D1*
X2084291Y1077297D1*
X2085827Y1082743D1*
X2087520Y1088110D1*
X2089383Y1093412D1*
X2091391Y1098635D1*
X2093570Y1103780D1*
X2095906Y1108845D1*
X2098386Y1113819D1*
X2101010Y1118701D1*
X2103780Y1123491D1*
X2106706Y1128189D1*
X2109751Y1132782D1*
X2112953Y1137283D1*
X2116273Y1141680D1*
X2119738Y1145971D1*
X2123320Y1150144D1*
X2127021Y1154213D1*
X2130853Y1158163D1*
X2134803Y1161995D1*
X2138871Y1165696D1*
X2143045Y1169278D1*
X2147336Y1172743D1*
X2151732Y1176063D1*
X2156220Y1179252D1*
X2160827Y1182310D1*
X2165525Y1185223D1*
X2170315Y1188005D1*
X2175197Y1190630D1*
X2180171Y1193110D1*
X2185236Y1195446D1*
X2190381Y1197612D1*
X2195604Y1199633D1*
X2200906Y1201496D1*
X2206273Y1203189D1*
X2211719Y1204724D1*
X2217244Y1206076D1*
X2222822Y1207270D1*
X2228465Y1208281D1*
X2234173Y1209121D1*
X2239934Y1209777D1*
X2245748Y1210249D1*
X2251601Y1210525D1*
X2257520Y1210630D1*
X2263438Y1210525D1*
X2269304Y1210249D1*
X2275118Y1209777D1*
X2280879Y1209121D1*
X2286575Y1208281D1*
X2292218Y1207270D1*
X2297808Y1206076D1*
X2303320Y1204724D1*
X2308766Y1203189D1*
X2314147Y1201496D1*
X2319436Y1199633D1*
X2324672Y1197612D1*
X2329803Y1195446D1*
X2334869Y1193110D1*
X2339843Y1190630D1*
X2344724Y1188005D1*
X2349514Y1185223D1*
X2354213Y1182310D1*
X2358819Y1179252D1*
X2363320Y1176063D1*
X2367703Y1172743D1*
X2371995Y1169278D1*
X2376168Y1165696D1*
X2380236Y1161995D1*
X2384186Y1158163D1*
X2388018Y1154213D1*
X2391732Y1150144D1*
X2395315Y1145971D1*
X2398766Y1141680D1*
X2402087Y1137283D1*
X2405289Y1132782D1*
X2408346Y1128189D1*
X2411260Y1123491D1*
X2414029Y1118701D1*
X2416654Y1113819D1*
X2419134Y1108845D1*
X2421470Y1103780D1*
X2423648Y1098635D1*
X2425669Y1093412D1*
X2427520Y1088110D1*
X2429213Y1082743D1*
X2430748Y1077297D1*
X2432113Y1071772D1*
X2433294Y1066194D1*
X2434304Y1060551D1*
X2435144Y1054843D1*
X2435801Y1049081D1*
X2436273Y1043268D1*
X2436562Y1037402D1*
X2436654Y1031496D1*
X2436562Y1025577D1*
X2436273Y1019711D1*
X2435801Y1013898D1*
X2435144Y1008136D1*
X2434304Y1002441D1*
X2433294Y996798D1*
X2432113Y991207D1*
X2430748Y985696D1*
X2429213Y980249D1*
X2427520Y974869D1*
X2425669Y969567D1*
X2423648Y964344D1*
X2421470Y959199D1*
X2419134Y954147D1*
X2416654Y949173D1*
X2414029Y944291D1*
X2411260Y939488D1*
X2408346Y934790D1*
X2405289Y930197D1*
X2402087Y925696D1*
X2398766Y921299D1*
X2395315Y917021D1*
X2391732Y912835D1*
X2388018Y908780D1*
X2384186Y904829D1*
X2380236Y900997D1*
X2376168Y897283D1*
X2371995Y893701D1*
X2367703Y890249D1*
X2363320Y886916D1*
X2358819Y883727D1*
X2354213Y880669D1*
X2349514Y877756D1*
X2344724Y874987D1*
X2339843Y872349D1*
X2334869Y869869D1*
X2329803Y867546D1*
X2324672Y865367D1*
X2319436Y863346D1*
X2314147Y861496D1*
X2308766Y859790D1*
X2303320Y858268D1*
X2297808Y856903D1*
X2292218Y855722D1*
X2286575Y854698D1*
X2280879Y853871D1*
X2275118Y853215D1*
X2269304Y852743D1*
X2263438Y852454D1*
X2257520Y852362D1*
X2251601Y852454D1*
X2245748Y852743D1*
X2239934Y853215D1*
X2234173Y853871D1*
X2228465Y854698D1*
X2222822Y855722D1*
X2217244Y856903D1*
X2211719Y858268D1*
X2206273Y859790D1*
X2200906Y861496D1*
X2195604Y863346D1*
X2190381Y865367D1*
X2185236Y867546D1*
X2180171Y869869D1*
X2175197Y872349D1*
X2170315Y874987D1*
X2165525Y877756D1*
X2160827Y880669D1*
X2156220Y883727D1*
X2151732Y886916D1*
X2147336Y890249D1*
X2143045Y893701D1*
X2138871Y897283D1*
X2134803Y900997D1*
X2130853Y904829D1*
X2127021Y908780D1*
X2123320Y912835D1*
X2119738Y917021D1*
X2116273Y921299D1*
X2112953Y925696D1*
X2109751Y930197D1*
X2106706Y934790D1*
X2103780Y939488D1*
X2101010Y944291D1*
X2098386Y949173D1*
X2095906Y954147D1*
X2093570Y959199D1*
X2091391Y964344D1*
X2089383Y969567D1*
X2087520Y974869D1*
X2085827Y980249D1*
X2084291Y985696D1*
X2082940Y991207D1*
X2081745Y996798D1*
X2080735Y1002441D1*
X2079895Y1008136D1*
X2079239Y1013898D1*
X2078766Y1019711D1*
X2078478Y1025577D1*
X682835Y2625262D2*
X682756Y2630144D1*
X682835Y2635013D1*
X683071Y2639843D1*
X683451Y2644633D1*
X684003Y2649383D1*
X684685Y2654081D1*
X685525Y2658727D1*
X686496Y2663333D1*
X687625Y2667874D1*
X688885Y2672362D1*
X690276Y2676798D1*
X691811Y2681155D1*
X693478Y2685459D1*
X695262Y2689698D1*
X697192Y2693871D1*
X699226Y2697966D1*
X701391Y2701995D1*
X703688Y2705945D1*
X706089Y2709816D1*
X708609Y2713609D1*
X711234Y2717310D1*
X713976Y2720932D1*
X716824Y2724462D1*
X719777Y2727900D1*
X722835Y2731260D1*
X725984Y2734501D1*
X729239Y2737664D1*
X732585Y2740722D1*
X736037Y2743675D1*
X739567Y2746522D1*
X743189Y2749265D1*
X746890Y2751890D1*
X750682Y2754409D1*
X754554Y2756811D1*
X758504Y2759094D1*
X762520Y2761260D1*
X766627Y2763307D1*
X770787Y2765223D1*
X775026Y2767021D1*
X779331Y2768688D1*
X783701Y2770210D1*
X788136Y2771614D1*
X792625Y2772874D1*
X797165Y2773990D1*
X801759Y2774974D1*
X806417Y2775801D1*
X811115Y2776496D1*
X815866Y2777034D1*
X820656Y2777428D1*
X825486Y2777664D1*
X830354Y2777743D1*
X835223Y2777664D1*
X840066Y2777428D1*
X844856Y2777034D1*
X849593Y2776496D1*
X854291Y2775801D1*
X858950Y2774974D1*
X863543Y2773990D1*
X868097Y2772874D1*
X872585Y2771614D1*
X877008Y2770210D1*
X881378Y2768688D1*
X885682Y2767021D1*
X889921Y2765223D1*
X894081Y2763307D1*
X898189Y2761260D1*
X902205Y2759094D1*
X906155Y2756811D1*
X910026Y2754409D1*
X913819Y2751890D1*
X917520Y2749265D1*
X921142Y2746522D1*
X924685Y2743675D1*
X928123Y2740722D1*
X931470Y2737664D1*
X934724Y2734501D1*
X937874Y2731260D1*
X940932Y2727900D1*
X943885Y2724462D1*
X946732Y2720932D1*
X949475Y2717310D1*
X952113Y2713609D1*
X954619Y2709816D1*
X957034Y2705945D1*
X959318Y2701995D1*
X961483Y2697966D1*
X963530Y2693871D1*
X965446Y2689698D1*
X967231Y2685459D1*
X968898Y2681155D1*
X970433Y2676798D1*
X971824Y2672362D1*
X973084Y2667874D1*
X974213Y2663333D1*
X975184Y2658727D1*
X976024Y2654081D1*
X976706Y2649383D1*
X977257Y2644633D1*
X977638Y2639843D1*
X977874Y2635013D1*
X977953Y2630144D1*
X977874Y2625262D1*
X977638Y2620433D1*
X977257Y2615643D1*
X976706Y2610892D1*
X976024Y2606194D1*
X975184Y2601549D1*
X974213Y2596942D1*
X973084Y2592402D1*
X971824Y2587913D1*
X970433Y2583491D1*
X968898Y2579121D1*
X967231Y2574816D1*
X965446Y2570577D1*
X963530Y2566404D1*
X961483Y2562310D1*
X959318Y2558281D1*
X957034Y2554331D1*
X954619Y2550459D1*
X952113Y2546680D1*
X949475Y2542966D1*
X946732Y2539344D1*
X943885Y2535814D1*
X940932Y2532375D1*
X937874Y2529029D1*
X934724Y2525774D1*
X931470Y2522612D1*
X928123Y2519554D1*
X924685Y2516601D1*
X921142Y2513753D1*
X917520Y2511024D1*
X913819Y2508386D1*
X910026Y2505866D1*
X906155Y2503465D1*
X902205Y2501181D1*
X898189Y2499016D1*
X894081Y2496969D1*
X889921Y2495052D1*
X885682Y2493255D1*
X881378Y2491601D1*
X877008Y2490066D1*
X872585Y2488661D1*
X868097Y2487402D1*
X863543Y2486286D1*
X858950Y2485302D1*
X854291Y2484475D1*
X849593Y2483780D1*
X844856Y2483241D1*
X840066Y2482848D1*
X835223Y2482612D1*
X830354Y2482533D1*
X825486Y2482612D1*
X820656Y2482848D1*
X815866Y2483241D1*
X811115Y2483780D1*
X806417Y2484475D1*
X801759Y2485302D1*
X797165Y2486286D1*
X792625Y2487402D1*
X788136Y2488661D1*
X783701Y2490066D1*
X779331Y2491601D1*
X775026Y2493255D1*
X770787Y2495052D1*
X766627Y2496969D1*
X762520Y2499016D1*
X758504Y2501181D1*
X754554Y2503465D1*
X750682Y2505866D1*
X746890Y2508386D1*
X743189Y2511024D1*
X739567Y2513753D1*
X736037Y2516601D1*
X732585Y2519554D1*
X729239Y2522612D1*
X725984Y2525774D1*
X722835Y2529029D1*
X719777Y2532375D1*
X716824Y2535814D1*
X713976Y2539344D1*
X711234Y2542966D1*
X708609Y2546680D1*
X706089Y2550459D1*
X703688Y2554331D1*
X701391Y2558281D1*
X699226Y2562310D1*
X697192Y2566404D1*
X695262Y2570577D1*
X693478Y2574816D1*
X691811Y2579121D1*
X690276Y2583491D1*
X688885Y2587913D1*
X687625Y2592402D1*
X686496Y2596942D1*
X685525Y2601549D1*
X684685Y2606194D1*
X684003Y2610892D1*
X683451Y2615643D1*
X683071Y2620433D1*
X682835Y2625262D1*
X1456732D2*
X1456654Y2630144D1*
X1456732Y2635013D1*
X1456969Y2639843D1*
X1457362Y2644633D1*
X1457900Y2649383D1*
X1458596Y2654081D1*
X1459423Y2658727D1*
X1460407Y2663333D1*
X1461522Y2667874D1*
X1462782Y2672362D1*
X1464186Y2676798D1*
X1465709Y2681155D1*
X1467375Y2685459D1*
X1469173Y2689698D1*
X1471089Y2693871D1*
X1473136Y2697966D1*
X1475302Y2701995D1*
X1477585Y2705945D1*
X1479987Y2709816D1*
X1482507Y2713609D1*
X1485131Y2717310D1*
X1487874Y2720932D1*
X1490722Y2724462D1*
X1493675Y2727900D1*
X1496732Y2731260D1*
X1499895Y2734501D1*
X1503136Y2737664D1*
X1506496Y2740722D1*
X1509934Y2743675D1*
X1513465Y2746522D1*
X1517087Y2749265D1*
X1520787Y2751890D1*
X1524580Y2754409D1*
X1528451Y2756811D1*
X1532402Y2759094D1*
X1536430Y2761260D1*
X1540525Y2763307D1*
X1544698Y2765223D1*
X1548937Y2767021D1*
X1553241Y2768688D1*
X1557612Y2770210D1*
X1562034Y2771614D1*
X1566522Y2772874D1*
X1571063Y2773990D1*
X1575669Y2774974D1*
X1580315Y2775801D1*
X1585013Y2776496D1*
X1589764Y2777034D1*
X1594554Y2777428D1*
X1599383Y2777664D1*
X1604252Y2777743D1*
X1609134Y2777664D1*
X1613963Y2777428D1*
X1618753Y2777034D1*
X1623504Y2776496D1*
X1628202Y2775801D1*
X1632848Y2774974D1*
X1637454Y2773990D1*
X1641995Y2772874D1*
X1646483Y2771614D1*
X1650906Y2770210D1*
X1655276Y2768688D1*
X1659580Y2767021D1*
X1663819Y2765223D1*
X1667992Y2763307D1*
X1672087Y2761260D1*
X1676115Y2759094D1*
X1680066Y2756811D1*
X1683937Y2754409D1*
X1687717Y2751890D1*
X1691430Y2749265D1*
X1695052Y2746522D1*
X1698583Y2743675D1*
X1702021Y2740722D1*
X1705367Y2737664D1*
X1708622Y2734501D1*
X1711785Y2731260D1*
X1714843Y2727900D1*
X1717795Y2724462D1*
X1720643Y2720932D1*
X1723386Y2717310D1*
X1726010Y2713609D1*
X1728530Y2709816D1*
X1730932Y2705945D1*
X1733215Y2701995D1*
X1735381Y2697966D1*
X1737428Y2693871D1*
X1739344Y2689698D1*
X1741142Y2685459D1*
X1742808Y2681155D1*
X1744331Y2676798D1*
X1745735Y2672362D1*
X1746995Y2667874D1*
X1748110Y2663333D1*
X1749094Y2658727D1*
X1749921Y2654081D1*
X1750617Y2649383D1*
X1751155Y2644633D1*
X1751549Y2639843D1*
X1751785Y2635013D1*
X1751864Y2630144D1*
X1751785Y2625262D1*
X1751549Y2620433D1*
X1751155Y2615643D1*
X1750617Y2610892D1*
X1749921Y2606194D1*
X1749094Y2601549D1*
X1748110Y2596942D1*
X1746995Y2592402D1*
X1745735Y2587913D1*
X1744331Y2583491D1*
X1742808Y2579121D1*
X1741142Y2574816D1*
X1739344Y2570577D1*
X1737428Y2566404D1*
X1735381Y2562310D1*
X1733215Y2558281D1*
X1730932Y2554331D1*
X1728530Y2550459D1*
X1726010Y2546680D1*
X1723386Y2542966D1*
X1720643Y2539344D1*
X1717795Y2535814D1*
X1714843Y2532375D1*
X1711785Y2529029D1*
X1708622Y2525774D1*
X1705367Y2522612D1*
X1702021Y2519554D1*
X1698583Y2516601D1*
X1695052Y2513753D1*
X1691430Y2511024D1*
X1687717Y2508386D1*
X1683937Y2505866D1*
X1680066Y2503465D1*
X1676115Y2501181D1*
X1672087Y2499016D1*
X1667992Y2496969D1*
X1663819Y2495052D1*
X1659580Y2493255D1*
X1655276Y2491601D1*
X1650906Y2490066D1*
X1646483Y2488661D1*
X1641995Y2487402D1*
X1637454Y2486286D1*
X1632848Y2485302D1*
X1628202Y2484475D1*
X1623504Y2483780D1*
X1618753Y2483241D1*
X1613963Y2482848D1*
X1609134Y2482612D1*
X1604252Y2482533D1*
X1599383Y2482612D1*
X1594554Y2482848D1*
X1589764Y2483241D1*
X1585013Y2483780D1*
X1580315Y2484475D1*
X1575669Y2485302D1*
X1571063Y2486286D1*
X1566522Y2487402D1*
X1562034Y2488661D1*
X1557612Y2490066D1*
X1553241Y2491601D1*
X1548937Y2493255D1*
X1544698Y2495052D1*
X1540525Y2496969D1*
X1536430Y2499016D1*
X1532402Y2501181D1*
X1528451Y2503465D1*
X1524580Y2505866D1*
X1520787Y2508386D1*
X1517087Y2511024D1*
X1513465Y2513753D1*
X1509934Y2516601D1*
X1506496Y2519554D1*
X1503136Y2522612D1*
X1499895Y2525774D1*
X1496732Y2529029D1*
X1493675Y2532375D1*
X1490722Y2535814D1*
X1487874Y2539344D1*
X1485131Y2542966D1*
X1482507Y2546680D1*
X1479987Y2550459D1*
X1477585Y2554331D1*
X1475302Y2558281D1*
X1473136Y2562310D1*
X1471089Y2566404D1*
X1469173Y2570577D1*
X1467375Y2574816D1*
X1465709Y2579121D1*
X1464186Y2583491D1*
X1462782Y2587913D1*
X1461522Y2592402D1*
X1460407Y2596942D1*
X1459423Y2601549D1*
X1458596Y2606194D1*
X1457900Y2610892D1*
X1457362Y2615643D1*
X1456969Y2620433D1*
X1456732Y2625262D1*
X2231732D2*
X2231654Y2630144D1*
X2231732Y2635013D1*
X2231969Y2639843D1*
X2232362Y2644633D1*
X2232900Y2649383D1*
X2233596Y2654081D1*
X2234423Y2658727D1*
X2235407Y2663333D1*
X2236522Y2667874D1*
X2237782Y2672362D1*
X2239186Y2676798D1*
X2240709Y2681155D1*
X2242375Y2685459D1*
X2244173Y2689698D1*
X2246089Y2693871D1*
X2248136Y2697966D1*
X2250302Y2701995D1*
X2252585Y2705945D1*
X2254987Y2709816D1*
X2257507Y2713609D1*
X2260131Y2717310D1*
X2262874Y2720932D1*
X2265722Y2724462D1*
X2268675Y2727900D1*
X2271732Y2731260D1*
X2274895Y2734501D1*
X2278136Y2737664D1*
X2281496Y2740722D1*
X2284934Y2743675D1*
X2288465Y2746522D1*
X2292087Y2749265D1*
X2295787Y2751890D1*
X2299580Y2754409D1*
X2303451Y2756811D1*
X2307402Y2759094D1*
X2311430Y2761260D1*
X2315525Y2763307D1*
X2319698Y2765223D1*
X2323937Y2767021D1*
X2328241Y2768688D1*
X2332612Y2770210D1*
X2337034Y2771614D1*
X2341522Y2772874D1*
X2346063Y2773990D1*
X2350669Y2774974D1*
X2355315Y2775801D1*
X2360013Y2776496D1*
X2364764Y2777034D1*
X2369554Y2777428D1*
X2374383Y2777664D1*
X2379252Y2777743D1*
X2384134Y2777664D1*
X2388963Y2777428D1*
X2393753Y2777034D1*
X2398504Y2776496D1*
X2403202Y2775801D1*
X2407848Y2774974D1*
X2412454Y2773990D1*
X2416995Y2772874D1*
X2421483Y2771614D1*
X2425906Y2770210D1*
X2430276Y2768688D1*
X2434580Y2767021D1*
X2438819Y2765223D1*
X2442992Y2763307D1*
X2447087Y2761260D1*
X2451115Y2759094D1*
X2455066Y2756811D1*
X2458937Y2754409D1*
X2462717Y2751890D1*
X2466430Y2749265D1*
X2470052Y2746522D1*
X2473583Y2743675D1*
X2477021Y2740722D1*
X2480367Y2737664D1*
X2483622Y2734501D1*
X2486785Y2731260D1*
X2489843Y2727900D1*
X2492795Y2724462D1*
X2495643Y2720932D1*
X2498386Y2717310D1*
X2501010Y2713609D1*
X2503530Y2709816D1*
X2505932Y2705945D1*
X2508215Y2701995D1*
X2510381Y2697966D1*
X2512428Y2693871D1*
X2514344Y2689698D1*
X2516142Y2685459D1*
X2517808Y2681155D1*
X2519331Y2676798D1*
X2520735Y2672362D1*
X2521995Y2667874D1*
X2523110Y2663333D1*
X2524094Y2658727D1*
X2524921Y2654081D1*
X2525617Y2649383D1*
X2526155Y2644633D1*
X2526549Y2639843D1*
X2526785Y2635013D1*
X2526864Y2630144D1*
X2526785Y2625262D1*
X2526549Y2620433D1*
X2526155Y2615643D1*
X2525617Y2610892D1*
X2524921Y2606194D1*
X2524094Y2601549D1*
X2523110Y2596942D1*
X2521995Y2592402D1*
X2520735Y2587913D1*
X2519331Y2583491D1*
X2517808Y2579121D1*
X2516142Y2574816D1*
X2514344Y2570577D1*
X2512428Y2566404D1*
X2510381Y2562310D1*
X2508215Y2558281D1*
X2505932Y2554331D1*
X2503530Y2550459D1*
X2501010Y2546680D1*
X2498386Y2542966D1*
X2495643Y2539344D1*
X2492795Y2535814D1*
X2489843Y2532375D1*
X2486785Y2529029D1*
X2483622Y2525774D1*
X2480367Y2522612D1*
X2477021Y2519554D1*
X2473583Y2516601D1*
X2470052Y2513753D1*
X2466430Y2511024D1*
X2462717Y2508386D1*
X2458937Y2505866D1*
X2455066Y2503465D1*
X2451115Y2501181D1*
X2447087Y2499016D1*
X2442992Y2496969D1*
X2438819Y2495052D1*
X2434580Y2493255D1*
X2430276Y2491601D1*
X2425906Y2490066D1*
X2421483Y2488661D1*
X2416995Y2487402D1*
X2412454Y2486286D1*
X2407848Y2485302D1*
X2403202Y2484475D1*
X2398504Y2483780D1*
X2393753Y2483241D1*
X2388963Y2482848D1*
X2384134Y2482612D1*
X2379252Y2482533D1*
X2374383Y2482612D1*
X2369554Y2482848D1*
X2364764Y2483241D1*
X2360013Y2483780D1*
X2355315Y2484475D1*
X2350669Y2485302D1*
X2346063Y2486286D1*
X2341522Y2487402D1*
X2337034Y2488661D1*
X2332612Y2490066D1*
X2328241Y2491601D1*
X2323937Y2493255D1*
X2319698Y2495052D1*
X2315525Y2496969D1*
X2311430Y2499016D1*
X2307402Y2501181D1*
X2303451Y2503465D1*
X2299580Y2505866D1*
X2295787Y2508386D1*
X2292087Y2511024D1*
X2288465Y2513753D1*
X2284934Y2516601D1*
X2281496Y2519554D1*
X2278136Y2522612D1*
X2274895Y2525774D1*
X2271732Y2529029D1*
X2268675Y2532375D1*
X2265722Y2535814D1*
X2262874Y2539344D1*
X2260131Y2542966D1*
X2257507Y2546680D1*
X2254987Y2550459D1*
X2252585Y2554331D1*
X2250302Y2558281D1*
X2248136Y2562310D1*
X2246089Y2566404D1*
X2244173Y2570577D1*
X2242375Y2574816D1*
X2240709Y2579121D1*
X2239186Y2583491D1*
X2237782Y2587913D1*
X2236522Y2592402D1*
X2235407Y2596942D1*
X2234423Y2601549D1*
X2233596Y2606194D1*
X2232900Y2610892D1*
X2232362Y2615643D1*
X2231969Y2620433D1*
X2231732Y2625262D1*
X3006732D2*
X3006654Y2630144D1*
X3006732Y2635013D1*
X3006969Y2639843D1*
X3007362Y2644633D1*
X3007900Y2649383D1*
X3008596Y2654081D1*
X3009423Y2658727D1*
X3010407Y2663333D1*
X3011522Y2667874D1*
X3012782Y2672362D1*
X3014186Y2676798D1*
X3015709Y2681155D1*
X3017375Y2685459D1*
X3019173Y2689698D1*
X3021089Y2693871D1*
X3023136Y2697966D1*
X3025302Y2701995D1*
X3027585Y2705945D1*
X3029987Y2709816D1*
X3032507Y2713609D1*
X3035131Y2717310D1*
X3037874Y2720932D1*
X3040722Y2724462D1*
X3043675Y2727900D1*
X3046732Y2731260D1*
X3049895Y2734501D1*
X3053136Y2737664D1*
X3056496Y2740722D1*
X3059934Y2743675D1*
X3063465Y2746522D1*
X3067087Y2749265D1*
X3070801Y2751890D1*
X3074580Y2754409D1*
X3078451Y2756811D1*
X3082402Y2759094D1*
X3086430Y2761260D1*
X3090525Y2763307D1*
X3094698Y2765223D1*
X3098937Y2767021D1*
X3103241Y2768688D1*
X3107612Y2770210D1*
X3112034Y2771614D1*
X3116522Y2772874D1*
X3121063Y2773990D1*
X3125669Y2774974D1*
X3130315Y2775801D1*
X3135013Y2776496D1*
X3139764Y2777034D1*
X3144554Y2777428D1*
X3149383Y2777664D1*
X3154252Y2777743D1*
X3159134Y2777664D1*
X3163963Y2777428D1*
X3168753Y2777034D1*
X3173504Y2776496D1*
X3178202Y2775801D1*
X3182848Y2774974D1*
X3187454Y2773990D1*
X3191995Y2772874D1*
X3196483Y2771614D1*
X3200906Y2770210D1*
X3205276Y2768688D1*
X3209580Y2767021D1*
X3213819Y2765223D1*
X3217992Y2763307D1*
X3222087Y2761260D1*
X3226115Y2759094D1*
X3230066Y2756811D1*
X3233937Y2754409D1*
X3237717Y2751890D1*
X3241430Y2749265D1*
X3245052Y2746522D1*
X3248583Y2743675D1*
X3252021Y2740722D1*
X3255367Y2737664D1*
X3258622Y2734501D1*
X3261785Y2731260D1*
X3264843Y2727900D1*
X3267795Y2724462D1*
X3270643Y2720932D1*
X3273386Y2717310D1*
X3276010Y2713609D1*
X3278530Y2709816D1*
X3280932Y2705945D1*
X3283215Y2701995D1*
X3285381Y2697966D1*
X3287428Y2693871D1*
X3289344Y2689698D1*
X3291142Y2685459D1*
X3292808Y2681155D1*
X3294331Y2676798D1*
X3295735Y2672362D1*
X3296995Y2667874D1*
X3298110Y2663333D1*
X3299094Y2658727D1*
X3299921Y2654081D1*
X3300617Y2649383D1*
X3301155Y2644633D1*
X3301549Y2639843D1*
X3301785Y2635013D1*
X3301864Y2630144D1*
X3301785Y2625262D1*
X3301549Y2620433D1*
X3301155Y2615643D1*
X3300617Y2610892D1*
X3299921Y2606194D1*
X3299094Y2601549D1*
X3298110Y2596942D1*
X3296995Y2592402D1*
X3295735Y2587913D1*
X3294331Y2583491D1*
X3292808Y2579121D1*
X3291142Y2574816D1*
X3289344Y2570577D1*
X3287428Y2566404D1*
X3285381Y2562310D1*
X3283215Y2558281D1*
X3280932Y2554331D1*
X3278530Y2550459D1*
X3276010Y2546680D1*
X3273386Y2542966D1*
X3270643Y2539344D1*
X3267795Y2535814D1*
X3264843Y2532375D1*
X3261785Y2529029D1*
X3258622Y2525774D1*
X3255367Y2522612D1*
X3252021Y2519554D1*
X3248583Y2516601D1*
X3245052Y2513753D1*
X3241430Y2511024D1*
X3237717Y2508386D1*
X3233937Y2505866D1*
X3230066Y2503465D1*
X3226115Y2501181D1*
X3222087Y2499016D1*
X3217992Y2496969D1*
X3213819Y2495052D1*
X3209580Y2493255D1*
X3205276Y2491601D1*
X3200906Y2490066D1*
X3196483Y2488661D1*
X3191995Y2487402D1*
X3187454Y2486286D1*
X3182848Y2485302D1*
X3178202Y2484475D1*
X3173504Y2483780D1*
X3168753Y2483241D1*
X3163963Y2482848D1*
X3159134Y2482612D1*
X3154252Y2482533D1*
X3149383Y2482612D1*
X3144554Y2482848D1*
X3139764Y2483241D1*
X3135013Y2483780D1*
X3130315Y2484475D1*
X3125669Y2485302D1*
X3121063Y2486286D1*
X3116522Y2487402D1*
X3112034Y2488661D1*
X3107612Y2490066D1*
X3103241Y2491601D1*
X3098937Y2493255D1*
X3094698Y2495052D1*
X3090525Y2496969D1*
X3086430Y2499016D1*
X3082402Y2501181D1*
X3078451Y2503465D1*
X3074580Y2505866D1*
X3070801Y2508386D1*
X3067087Y2511024D1*
X3063465Y2513753D1*
X3059934Y2516601D1*
X3056496Y2519554D1*
X3053136Y2522612D1*
X3049895Y2525774D1*
X3046732Y2529029D1*
X3043675Y2532375D1*
X3040722Y2535814D1*
X3037874Y2539344D1*
X3035131Y2542966D1*
X3032507Y2546680D1*
X3029987Y2550459D1*
X3027585Y2554331D1*
X3025302Y2558281D1*
X3023136Y2562310D1*
X3021089Y2566404D1*
X3019173Y2570577D1*
X3017375Y2574816D1*
X3015709Y2579121D1*
X3014186Y2583491D1*
X3012782Y2587913D1*
X3011522Y2592402D1*
X3010407Y2596942D1*
X3009423Y2601549D1*
X3008596Y2606194D1*
X3007900Y2610892D1*
X3007362Y2615643D1*
X3006969Y2620433D1*
X3006732Y2625262D1*
X2231732Y1778045D2*
X2231654Y1782913D1*
X2231732Y1787782D1*
X2231969Y1792625D1*
X2232362Y1797415D1*
X2232900Y1802152D1*
X2233596Y1806864D1*
X2234423Y1811509D1*
X2235407Y1816102D1*
X2236522Y1820656D1*
X2237782Y1825144D1*
X2239186Y1829567D1*
X2240709Y1833937D1*
X2242375Y1838241D1*
X2244173Y1842480D1*
X2246089Y1846654D1*
X2248136Y1850748D1*
X2250302Y1854777D1*
X2252585Y1858727D1*
X2254987Y1862585D1*
X2257507Y1866378D1*
X2260131Y1870092D1*
X2262874Y1873714D1*
X2265722Y1877244D1*
X2268675Y1880682D1*
X2271732Y1884029D1*
X2274895Y1887283D1*
X2278136Y1890446D1*
X2281496Y1893491D1*
X2284934Y1896444D1*
X2288465Y1899291D1*
X2292087Y1902034D1*
X2295787Y1904672D1*
X2299580Y1907192D1*
X2303451Y1909593D1*
X2307402Y1911877D1*
X2311430Y1914042D1*
X2315525Y1916089D1*
X2319698Y1918005D1*
X2323937Y1919803D1*
X2328241Y1921457D1*
X2332612Y1922992D1*
X2337034Y1924383D1*
X2341522Y1925643D1*
X2346063Y1926772D1*
X2350669Y1927743D1*
X2355315Y1928583D1*
X2360013Y1929278D1*
X2364764Y1929816D1*
X2369554Y1930197D1*
X2374383Y1930433D1*
X2379252Y1930512D1*
X2384134Y1930433D1*
X2388963Y1930197D1*
X2393753Y1929816D1*
X2398504Y1929278D1*
X2403202Y1928583D1*
X2407848Y1927743D1*
X2412454Y1926772D1*
X2416995Y1925643D1*
X2421483Y1924383D1*
X2425906Y1922992D1*
X2430276Y1921457D1*
X2434580Y1919803D1*
X2438819Y1918005D1*
X2442992Y1916089D1*
X2447087Y1914042D1*
X2451115Y1911877D1*
X2455066Y1909593D1*
X2458937Y1907192D1*
X2462717Y1904672D1*
X2466430Y1902034D1*
X2470052Y1899304D1*
X2473583Y1896444D1*
X2477021Y1893491D1*
X2480367Y1890446D1*
X2483622Y1887283D1*
X2486785Y1884029D1*
X2489843Y1880682D1*
X2492795Y1877244D1*
X2495643Y1873714D1*
X2498386Y1870092D1*
X2501010Y1866378D1*
X2503530Y1862585D1*
X2505932Y1858727D1*
X2508215Y1854777D1*
X2510381Y1850748D1*
X2512428Y1846654D1*
X2514344Y1842480D1*
X2516142Y1838241D1*
X2517808Y1833937D1*
X2519331Y1829567D1*
X2520735Y1825144D1*
X2521995Y1820656D1*
X2523110Y1816102D1*
X2524094Y1811509D1*
X2524921Y1806864D1*
X2525617Y1802152D1*
X2526155Y1797415D1*
X2526549Y1792625D1*
X2526785Y1787782D1*
X2526864Y1782913D1*
X2526785Y1778045D1*
X2526549Y1773215D1*
X2526155Y1768425D1*
X2525617Y1763675D1*
X2524921Y1758976D1*
X2524094Y1754331D1*
X2523110Y1749724D1*
X2521995Y1745184D1*
X2520735Y1740696D1*
X2519331Y1736260D1*
X2517808Y1731890D1*
X2516142Y1727585D1*
X2514344Y1723360D1*
X2512428Y1719186D1*
X2510381Y1715092D1*
X2508215Y1711063D1*
X2505932Y1707113D1*
X2503530Y1703241D1*
X2501010Y1699449D1*
X2498386Y1695748D1*
X2495643Y1692126D1*
X2492795Y1688596D1*
X2489843Y1685144D1*
X2486785Y1681798D1*
X2483622Y1678543D1*
X2480367Y1675394D1*
X2477021Y1672336D1*
X2473583Y1669383D1*
X2470052Y1666535D1*
X2466430Y1663793D1*
X2462717Y1661168D1*
X2458937Y1658648D1*
X2455066Y1656247D1*
X2451115Y1653963D1*
X2447087Y1651785D1*
X2442992Y1649751D1*
X2438819Y1647822D1*
X2434580Y1646037D1*
X2430276Y1644370D1*
X2425906Y1642835D1*
X2421483Y1641444D1*
X2416995Y1640184D1*
X2412454Y1639068D1*
X2407848Y1638084D1*
X2403202Y1637244D1*
X2398504Y1636562D1*
X2393753Y1636024D1*
X2388963Y1635630D1*
X2384134Y1635394D1*
X2379252Y1635315D1*
X2374383Y1635394D1*
X2369554Y1635630D1*
X2364764Y1636024D1*
X2360013Y1636562D1*
X2355315Y1637244D1*
X2350669Y1638084D1*
X2346063Y1639068D1*
X2341522Y1640184D1*
X2337034Y1641444D1*
X2332612Y1642835D1*
X2328241Y1644370D1*
X2323937Y1646037D1*
X2319698Y1647822D1*
X2315525Y1649751D1*
X2311430Y1651785D1*
X2307402Y1653963D1*
X2303451Y1656247D1*
X2299580Y1658648D1*
X2295787Y1661168D1*
X2292087Y1663793D1*
X2288465Y1666535D1*
X2284934Y1669383D1*
X2281496Y1672336D1*
X2278136Y1675394D1*
X2274895Y1678543D1*
X2271732Y1681798D1*
X2268675Y1685144D1*
X2265722Y1688596D1*
X2262874Y1692126D1*
X2260131Y1695748D1*
X2257507Y1699449D1*
X2254987Y1703241D1*
X2252585Y1707113D1*
X2250302Y1711063D1*
X2248136Y1715092D1*
X2246089Y1719186D1*
X2244173Y1723360D1*
X2242375Y1727585D1*
X2240709Y1731890D1*
X2239186Y1736260D1*
X2237782Y1740696D1*
X2236522Y1745184D1*
X2235407Y1749724D1*
X2234423Y1754331D1*
X2233596Y1758976D1*
X2232900Y1763675D1*
X2232362Y1768425D1*
X2231969Y1773215D1*
X2231732Y1778045D1*
X3006732D2*
X3006654Y1782913D1*
X3006732Y1787782D1*
X3006969Y1792625D1*
X3007362Y1797415D1*
X3007900Y1802152D1*
X3008596Y1806864D1*
X3009423Y1811509D1*
X3010407Y1816102D1*
X3011522Y1820656D1*
X3012782Y1825144D1*
X3014186Y1829567D1*
X3015709Y1833937D1*
X3017375Y1838241D1*
X3019173Y1842480D1*
X3021089Y1846654D1*
X3023136Y1850748D1*
X3025302Y1854777D1*
X3027585Y1858727D1*
X3029987Y1862585D1*
X3032507Y1866378D1*
X3035131Y1870092D1*
X3037874Y1873714D1*
X3040722Y1877244D1*
X3043675Y1880682D1*
X3046732Y1884029D1*
X3049895Y1887283D1*
X3053136Y1890446D1*
X3056496Y1893491D1*
X3059934Y1896444D1*
X3063465Y1899304D1*
X3067087Y1902034D1*
X3070787Y1904672D1*
X3074580Y1907192D1*
X3078451Y1909593D1*
X3082402Y1911877D1*
X3086430Y1914042D1*
X3090525Y1916089D1*
X3094698Y1918005D1*
X3098937Y1919803D1*
X3103241Y1921457D1*
X3107612Y1922992D1*
X3112034Y1924383D1*
X3116522Y1925643D1*
X3121063Y1926772D1*
X3125669Y1927743D1*
X3130315Y1928583D1*
X3135013Y1929278D1*
X3139764Y1929816D1*
X3144554Y1930197D1*
X3149383Y1930433D1*
X3154252Y1930512D1*
X3159134Y1930433D1*
X3163963Y1930197D1*
X3168753Y1929816D1*
X3173504Y1929278D1*
X3178202Y1928583D1*
X3182848Y1927743D1*
X3187454Y1926772D1*
X3191995Y1925643D1*
X3196483Y1924383D1*
X3200906Y1922992D1*
X3205276Y1921457D1*
X3209580Y1919803D1*
X3213819Y1918005D1*
X3217992Y1916089D1*
X3222087Y1914042D1*
X3226115Y1911877D1*
X3230066Y1909593D1*
X3233937Y1907192D1*
X3237717Y1904672D1*
X3241430Y1902034D1*
X3245052Y1899304D1*
X3248583Y1896444D1*
X3252021Y1893491D1*
X3255367Y1890446D1*
X3258622Y1887283D1*
X3261785Y1884029D1*
X3264843Y1880682D1*
X3267795Y1877244D1*
X3270643Y1873714D1*
X3273386Y1870092D1*
X3276010Y1866378D1*
X3278530Y1862585D1*
X3280932Y1858727D1*
X3283215Y1854777D1*
X3285381Y1850748D1*
X3287428Y1846654D1*
X3289344Y1842480D1*
X3291142Y1838241D1*
X3292808Y1833937D1*
X3294331Y1829567D1*
X3295735Y1825144D1*
X3296995Y1820656D1*
X3298110Y1816102D1*
X3299094Y1811509D1*
X3299921Y1806864D1*
X3300617Y1802152D1*
X3301155Y1797415D1*
X3301549Y1792625D1*
X3301785Y1787782D1*
X3301864Y1782913D1*
X3301785Y1778045D1*
X3301549Y1773215D1*
X3301155Y1768425D1*
X3300617Y1763675D1*
X3299921Y1758976D1*
X3299094Y1754331D1*
X3298110Y1749724D1*
X3296995Y1745184D1*
X3295735Y1740696D1*
X3294331Y1736260D1*
X3292808Y1731890D1*
X3291142Y1727585D1*
X3289344Y1723360D1*
X3287428Y1719186D1*
X3285381Y1715092D1*
X3283215Y1711063D1*
X3280932Y1707113D1*
X3278530Y1703241D1*
X3276010Y1699449D1*
X3273386Y1695748D1*
X3270643Y1692126D1*
X3267795Y1688596D1*
X3264843Y1685144D1*
X3261785Y1681798D1*
X3258622Y1678543D1*
X3255367Y1675394D1*
X3252021Y1672336D1*
X3248583Y1669383D1*
X3245052Y1666535D1*
X3241430Y1663793D1*
X3237717Y1661168D1*
X3233937Y1658648D1*
X3230066Y1656247D1*
X3226115Y1653963D1*
X3222087Y1651785D1*
X3217992Y1649751D1*
X3213819Y1647822D1*
X3209580Y1646037D1*
X3205276Y1644370D1*
X3200906Y1642835D1*
X3196483Y1641444D1*
X3191995Y1640184D1*
X3187454Y1639068D1*
X3182848Y1638084D1*
X3178202Y1637244D1*
X3173504Y1636562D1*
X3168753Y1636024D1*
X3163963Y1635630D1*
X3159134Y1635394D1*
X3154252Y1635315D1*
X3149383Y1635394D1*
X3144554Y1635630D1*
X3139764Y1636024D1*
X3135013Y1636562D1*
X3130315Y1637244D1*
X3125669Y1638084D1*
X3121063Y1639068D1*
X3116522Y1640184D1*
X3112034Y1641444D1*
X3107612Y1642835D1*
X3103241Y1644370D1*
X3098937Y1646037D1*
X3094698Y1647822D1*
X3090525Y1649751D1*
X3086430Y1651785D1*
X3082402Y1653963D1*
X3078451Y1656247D1*
X3074580Y1658648D1*
X3070801Y1661168D1*
X3067087Y1663793D1*
X3063465Y1666535D1*
X3059934Y1669383D1*
X3056496Y1672336D1*
X3053136Y1675394D1*
X3049895Y1678543D1*
X3046732Y1681798D1*
X3043675Y1685144D1*
X3040722Y1688596D1*
X3037874Y1692126D1*
X3035131Y1695748D1*
X3032507Y1699449D1*
X3029987Y1703241D1*
X3027585Y1707113D1*
X3025302Y1711063D1*
X3023136Y1715092D1*
X3021089Y1719186D1*
X3019173Y1723360D1*
X3017375Y1727585D1*
X3015709Y1731890D1*
X3014186Y1736260D1*
X3012782Y1740696D1*
X3011522Y1745184D1*
X3010407Y1749724D1*
X3009423Y1754331D1*
X3008596Y1758976D1*
X3007900Y1763675D1*
X3007362Y1768425D1*
X3006969Y1773215D1*
X3006732Y1778045D1*
X791562Y3529751D2*
X791483Y3534619D1*
X791562Y3539501D1*
X791785Y3544331D1*
X792178Y3549121D1*
X792717Y3553871D1*
X793412Y3558570D1*
X794239Y3563215D1*
X795223Y3567808D1*
X796339Y3572362D1*
X797598Y3576850D1*
X799003Y3581273D1*
X800538Y3585643D1*
X802192Y3589948D1*
X803990Y3594186D1*
X805906Y3598360D1*
X807953Y3602454D1*
X810118Y3606483D1*
X812402Y3610433D1*
X814803Y3614291D1*
X817323Y3618084D1*
X819961Y3621798D1*
X822690Y3625420D1*
X825538Y3628950D1*
X828491Y3632388D1*
X831549Y3635735D1*
X834711Y3638990D1*
X837966Y3642152D1*
X841312Y3645210D1*
X844751Y3648163D1*
X848281Y3651010D1*
X851903Y3653740D1*
X855617Y3656378D1*
X859396Y3658898D1*
X863268Y3661299D1*
X867218Y3663583D1*
X871247Y3665748D1*
X875341Y3667795D1*
X879514Y3669711D1*
X883753Y3671509D1*
X888058Y3673163D1*
X892428Y3674698D1*
X896850Y3676089D1*
X901339Y3677349D1*
X905892Y3678478D1*
X910486Y3679462D1*
X915131Y3680289D1*
X919829Y3680984D1*
X924580Y3681522D1*
X929370Y3681903D1*
X934199Y3682139D1*
X939081Y3682218D1*
X943950Y3682139D1*
X948780Y3681903D1*
X953570Y3681522D1*
X958320Y3680984D1*
X963018Y3680289D1*
X967664Y3679462D1*
X972270Y3678478D1*
X976811Y3677349D1*
X981299Y3676089D1*
X985735Y3674698D1*
X990092Y3673163D1*
X994396Y3671509D1*
X998635Y3669711D1*
X1002808Y3667795D1*
X1006903Y3665748D1*
X1010932Y3663583D1*
X1014882Y3661299D1*
X1018753Y3658898D1*
X1022546Y3656378D1*
X1026247Y3653740D1*
X1029869Y3651010D1*
X1033399Y3648163D1*
X1036837Y3645210D1*
X1040197Y3642152D1*
X1043451Y3638990D1*
X1046601Y3635735D1*
X1049659Y3632388D1*
X1052612Y3628950D1*
X1055459Y3625420D1*
X1058202Y3621798D1*
X1060827Y3618084D1*
X1063346Y3614304D1*
X1065748Y3610433D1*
X1068031Y3606483D1*
X1070197Y3602454D1*
X1072244Y3598360D1*
X1074160Y3594186D1*
X1075958Y3589948D1*
X1077625Y3585643D1*
X1079147Y3581273D1*
X1080551Y3576850D1*
X1081811Y3572362D1*
X1082927Y3567808D1*
X1083911Y3563215D1*
X1084751Y3558570D1*
X1085433Y3553871D1*
X1085971Y3549121D1*
X1086365Y3544331D1*
X1086601Y3539501D1*
X1086680Y3534619D1*
X1086601Y3529751D1*
X1086365Y3524921D1*
X1085971Y3520131D1*
X1085433Y3515381D1*
X1084751Y3510682D1*
X1083911Y3506037D1*
X1082927Y3501430D1*
X1081811Y3496890D1*
X1080551Y3492402D1*
X1079147Y3487966D1*
X1077625Y3483596D1*
X1075958Y3479304D1*
X1074160Y3475066D1*
X1072244Y3470892D1*
X1070197Y3466798D1*
X1068031Y3462769D1*
X1065748Y3458819D1*
X1063346Y3454948D1*
X1060827Y3451155D1*
X1058202Y3447454D1*
X1055459Y3443832D1*
X1052612Y3440302D1*
X1049659Y3436864D1*
X1046601Y3433504D1*
X1043451Y3430249D1*
X1040197Y3427100D1*
X1036837Y3424042D1*
X1033399Y3421089D1*
X1029869Y3418241D1*
X1026247Y3415499D1*
X1022546Y3412874D1*
X1018753Y3410354D1*
X1014882Y3407953D1*
X1010932Y3405669D1*
X1006903Y3403504D1*
X1002808Y3401457D1*
X998635Y3399541D1*
X994396Y3397743D1*
X990092Y3396076D1*
X985735Y3394554D1*
X981299Y3393150D1*
X976811Y3391890D1*
X972270Y3390774D1*
X967664Y3389790D1*
X963018Y3388950D1*
X958320Y3388268D1*
X953570Y3387730D1*
X948780Y3387336D1*
X943950Y3387100D1*
X939081Y3387021D1*
X934199Y3387100D1*
X929370Y3387336D1*
X924580Y3387730D1*
X919829Y3388268D1*
X915131Y3388950D1*
X910486Y3389790D1*
X905892Y3390774D1*
X901339Y3391890D1*
X896850Y3393150D1*
X892428Y3394554D1*
X888058Y3396076D1*
X883753Y3397743D1*
X879514Y3399541D1*
X875341Y3401457D1*
X871247Y3403504D1*
X867218Y3405669D1*
X863268Y3407953D1*
X859396Y3410354D1*
X855617Y3412874D1*
X851903Y3415499D1*
X848281Y3418241D1*
X844751Y3421089D1*
X841312Y3424042D1*
X837966Y3427100D1*
X834711Y3430249D1*
X831549Y3433504D1*
X828491Y3436864D1*
X825538Y3440302D1*
X822690Y3443832D1*
X819961Y3447454D1*
X817323Y3451155D1*
X814803Y3454948D1*
X812402Y3458819D1*
X810118Y3462769D1*
X807953Y3466798D1*
X805906Y3470892D1*
X803990Y3475066D1*
X802192Y3479304D1*
X800538Y3483596D1*
X799003Y3487966D1*
X797598Y3492402D1*
X796339Y3496890D1*
X795223Y3501430D1*
X794239Y3506037D1*
X793412Y3510682D1*
X792717Y3515381D1*
X792178Y3520131D1*
X791785Y3524921D1*
X791562Y3529751D1*
M02*
