G04 DipTrace 4.0.0.5*
G04 TopSilk.gbr*
%MOIN*%
G04 #@! TF.FileFunction,Legend,Top*
G04 #@! TF.Part,Single*
%ADD11C,0.000004*%
%FSLAX26Y26*%
G04*
G70*
G90*
G75*
G01*
G04 TopSilk*
%LPD*%
X444353Y3538100D2*
D11*
X1433801D1*
G36*
Y3534627D2*
X444353D1*
Y3541572D1*
X1433801D1*
Y3534627D1*
G37*
G36*
X590580Y5452739D2*
D1*
D1*
D1*
D1*
D1*
D1*
D1*
D1*
D1*
D1*
D1*
D1*
D1*
D1*
D1*
D1*
D1*
D1*
D1*
D1*
D1*
D1*
D1*
D1*
D1*
D1*
D1*
D1*
D1*
D1*
D1*
D1*
D1*
D1*
D1*
G37*
X691715Y3109656D2*
D11*
X1186440Y3966543D1*
G36*
X694719Y3107917D2*
X688711Y3111390D1*
X1183434Y3968276D1*
X1189444Y3964803D1*
X694719Y3107917D1*
G37*
X1186440Y3109656D2*
D11*
X691715Y3966543D1*
G36*
X1183434Y3107917D2*
X688711Y3964803D1*
X694719Y3968276D1*
X1189444Y3111390D1*
X1183434Y3107917D1*
G37*
G36*
X529594Y3785879D2*
X529459Y3783566D1*
X529066Y3781331D1*
X528428Y3779190D1*
X527562Y3777160D1*
X526483Y3775253D1*
X525205Y3773487D1*
X523743Y3771875D1*
X522113Y3770433D1*
X520329Y3769176D1*
X518408Y3768119D1*
X516365Y3767278D1*
X514214Y3766667D1*
X511969Y3766301D1*
X509648Y3766197D1*
X507343Y3766361D1*
X505118Y3766782D1*
X502988Y3767445D1*
X500971Y3768336D1*
X499079Y3769438D1*
X497329Y3770738D1*
X495735Y3772219D1*
X494314Y3773866D1*
X493077Y3775665D1*
X492045Y3777601D1*
X491227Y3779657D1*
X490643Y3781820D1*
X490306Y3784073D1*
X490231Y3786400D1*
X490424Y3788697D1*
X490873Y3790912D1*
X491563Y3793030D1*
X492478Y3795034D1*
X493602Y3796911D1*
X494923Y3798644D1*
X496424Y3800220D1*
X498088Y3801622D1*
X499903Y3802836D1*
X501853Y3803846D1*
X503923Y3804638D1*
X506096Y3805196D1*
X508358Y3805504D1*
X510688Y3805550D1*
X512976Y3805327D1*
X515182Y3804850D1*
X517287Y3804135D1*
X519278Y3803196D1*
X521140Y3802049D1*
X522857Y3800707D1*
X524413Y3799188D1*
X525795Y3797505D1*
X526988Y3795675D1*
X527975Y3793711D1*
X528740Y3791630D1*
X529272Y3789446D1*
X529552Y3787175D1*
X529594Y3785879D1*
G37*
G36*
X1400467D2*
X1400332Y3783566D1*
X1399938Y3781331D1*
X1399302Y3779190D1*
X1398436Y3777160D1*
X1397356Y3775253D1*
X1396077Y3773487D1*
X1394615Y3771875D1*
X1392986Y3770433D1*
X1391202Y3769176D1*
X1389282Y3768119D1*
X1387238Y3767278D1*
X1385087Y3766667D1*
X1382843Y3766301D1*
X1380521Y3766197D1*
X1378215Y3766361D1*
X1375991Y3766782D1*
X1373862Y3767445D1*
X1371844Y3768336D1*
X1369953Y3769438D1*
X1368202Y3770738D1*
X1366608Y3772219D1*
X1365186Y3773866D1*
X1363950Y3775665D1*
X1362917Y3777601D1*
X1362100Y3779657D1*
X1361516Y3781820D1*
X1361178Y3784073D1*
X1361104Y3786400D1*
X1361297Y3788697D1*
X1361745Y3790912D1*
X1362436Y3793030D1*
X1363350Y3795034D1*
X1364475Y3796911D1*
X1365797Y3798644D1*
X1367297Y3800220D1*
X1368962Y3801622D1*
X1370777Y3802836D1*
X1372726Y3803846D1*
X1374795Y3804638D1*
X1376969Y3805196D1*
X1379231Y3805504D1*
X1381560Y3805550D1*
X1383850Y3805327D1*
X1386055Y3804850D1*
X1388160Y3804135D1*
X1390151Y3803196D1*
X1392013Y3802049D1*
X1393730Y3800707D1*
X1395286Y3799188D1*
X1396669Y3797505D1*
X1397861Y3795675D1*
X1398848Y3793711D1*
X1399614Y3791630D1*
X1400144Y3789446D1*
X1400425Y3787175D1*
X1400467Y3785879D1*
G37*
G36*
X958762Y4037870D2*
X958627Y4035556D1*
X958234Y4033322D1*
X957596Y4031181D1*
X956730Y4029151D1*
X955651Y4027244D1*
X954373Y4025478D1*
X952911Y4023865D1*
X951281Y4022424D1*
X949497Y4021167D1*
X947576Y4020109D1*
X945533Y4019268D1*
X943382Y4018657D1*
X941138Y4018291D1*
X938816Y4018186D1*
X936510Y4018350D1*
X934286Y4018772D1*
X932157Y4019436D1*
X930139Y4020327D1*
X928248Y4021429D1*
X926497Y4022728D1*
X924903Y4024210D1*
X923482Y4025857D1*
X922245Y4027656D1*
X921213Y4029592D1*
X920395Y4031648D1*
X919811Y4033811D1*
X919474Y4036064D1*
X919399Y4038390D1*
X919592Y4040688D1*
X920041Y4042903D1*
X920731Y4045020D1*
X921646Y4047025D1*
X922770Y4048902D1*
X924091Y4050635D1*
X925592Y4052210D1*
X927257Y4053613D1*
X929072Y4054827D1*
X931021Y4055836D1*
X933091Y4056629D1*
X935264Y4057186D1*
X937526Y4057495D1*
X939856Y4057539D1*
X942146Y4057318D1*
X944350Y4056841D1*
X946455Y4056126D1*
X948446Y4055186D1*
X950308Y4054039D1*
X952025Y4052698D1*
X953581Y4051178D1*
X954963Y4049496D1*
X956156Y4047665D1*
X957143Y4045702D1*
X957909Y4043619D1*
X958440Y4041436D1*
X958720Y4039164D1*
X958762Y4037870D1*
G37*
G36*
X1361097Y3293077D2*
X1361231Y3295391D1*
X1361625Y3297625D1*
X1362262Y3299765D1*
X1363129Y3301797D1*
X1364209Y3303703D1*
X1365487Y3305470D1*
X1366949Y3307081D1*
X1368579Y3308524D1*
X1370361Y3309781D1*
X1372282Y3310837D1*
X1374325Y3311678D1*
X1376478Y3312290D1*
X1378722Y3312655D1*
X1381042Y3312760D1*
X1383348Y3312596D1*
X1385573Y3312175D1*
X1387702Y3311512D1*
X1389719Y3310621D1*
X1391612Y3309518D1*
X1393362Y3308219D1*
X1394955Y3306738D1*
X1396378Y3305089D1*
X1397613Y3303291D1*
X1398647Y3301356D1*
X1399463Y3299299D1*
X1400049Y3297136D1*
X1400386Y3294883D1*
X1400461Y3292556D1*
X1400266Y3290259D1*
X1399818Y3288045D1*
X1399129Y3285927D1*
X1398214Y3283923D1*
X1397088Y3282046D1*
X1395768Y3280312D1*
X1394268Y3278736D1*
X1392602Y3277335D1*
X1390787Y3276121D1*
X1388837Y3275110D1*
X1386769Y3274319D1*
X1384594Y3273761D1*
X1382332Y3273451D1*
X1380003Y3273407D1*
X1377714Y3273630D1*
X1375509Y3274106D1*
X1373403Y3274822D1*
X1371412Y3275760D1*
X1369551Y3276908D1*
X1367833Y3278249D1*
X1366277Y3279769D1*
X1364895Y3281451D1*
X1363703Y3283282D1*
X1362717Y3285245D1*
X1361950Y3287327D1*
X1361419Y3289510D1*
X1361139Y3291782D1*
X1361097Y3293077D1*
G37*
G36*
X490224D2*
X490358Y3295391D1*
X490752Y3297626D1*
X491390Y3299766D1*
X492256Y3301797D1*
X493335Y3303703D1*
X494614Y3305470D1*
X496075Y3307081D1*
X497705Y3308524D1*
X499488Y3309781D1*
X501409Y3310837D1*
X503453Y3311678D1*
X505605Y3312290D1*
X507849Y3312656D1*
X510169Y3312760D1*
X512475Y3312596D1*
X514699Y3312175D1*
X516829Y3311512D1*
X518846Y3310621D1*
X520739Y3309518D1*
X522488Y3308219D1*
X524083Y3306738D1*
X525505Y3305091D1*
X526740Y3303291D1*
X527774Y3301356D1*
X528591Y3299299D1*
X529175Y3297136D1*
X529512Y3294883D1*
X529587Y3292556D1*
X529394Y3290260D1*
X528945Y3288045D1*
X528255Y3285927D1*
X527340Y3283923D1*
X526215Y3282046D1*
X524895Y3280312D1*
X523395Y3278736D1*
X521730Y3277335D1*
X519915Y3276121D1*
X517965Y3275110D1*
X515895Y3274319D1*
X513722Y3273761D1*
X511459Y3273453D1*
X509130Y3273407D1*
X506841Y3273630D1*
X504636Y3274106D1*
X502530Y3274822D1*
X500539Y3275761D1*
X498677Y3276908D1*
X496961Y3278249D1*
X495404Y3279769D1*
X494022Y3281451D1*
X492829Y3283282D1*
X491844Y3285245D1*
X491077Y3287327D1*
X490546Y3289510D1*
X490265Y3291782D1*
X490224Y3293077D1*
G37*
X1495440Y3538100D2*
D11*
X2484887D1*
G36*
X2484881Y3534627D2*
X1495440D1*
Y3541572D1*
X2484881D1*
Y3534627D1*
G37*
X1742802Y3109656D2*
D11*
X2237525Y3966543D1*
G36*
X1745806Y3107917D2*
X1739798Y3111390D1*
X2234514Y3968276D1*
X2240537Y3964803D1*
X1745806Y3107917D1*
G37*
X2237525Y3109656D2*
D11*
X1742802Y3966543D1*
G36*
X2234514Y3107917D2*
X1739798Y3964803D1*
X1745806Y3968276D1*
X2240537Y3111390D1*
X2234514Y3107917D1*
G37*
G36*
X1580680Y3785879D2*
X1580546Y3783566D1*
X1580152Y3781331D1*
X1579514Y3779190D1*
X1578648Y3777160D1*
X1577568Y3775253D1*
X1576290Y3773487D1*
X1574829Y3771875D1*
X1573199Y3770433D1*
X1571416Y3769176D1*
X1569495Y3768119D1*
X1567451Y3767278D1*
X1565299Y3766667D1*
X1563055Y3766301D1*
X1560735Y3766197D1*
X1558429Y3766361D1*
X1556205Y3766782D1*
X1554075Y3767445D1*
X1552058Y3768336D1*
X1550165Y3769438D1*
X1548416Y3770738D1*
X1546822Y3772219D1*
X1545399Y3773866D1*
X1544164Y3775665D1*
X1543130Y3777601D1*
X1542314Y3779657D1*
X1541730Y3781820D1*
X1541392Y3784073D1*
X1541318Y3786400D1*
X1541510Y3788697D1*
X1541959Y3790912D1*
X1542650Y3793030D1*
X1543564Y3795034D1*
X1544689Y3796911D1*
X1546009Y3798644D1*
X1547509Y3800220D1*
X1549175Y3801622D1*
X1550990Y3802836D1*
X1552940Y3803846D1*
X1555009Y3804638D1*
X1557182Y3805196D1*
X1559445Y3805504D1*
X1561774Y3805550D1*
X1564063Y3805327D1*
X1566268Y3804850D1*
X1568374Y3804135D1*
X1570365Y3803196D1*
X1572227Y3802049D1*
X1573944Y3800707D1*
X1575500Y3799188D1*
X1576882Y3797505D1*
X1578075Y3795675D1*
X1579060Y3793711D1*
X1579827Y3791630D1*
X1580358Y3789446D1*
X1580638Y3787175D1*
X1580680Y3785879D1*
G37*
G36*
X2451552D2*
X2451419Y3783566D1*
X2451025Y3781331D1*
X2450387Y3779190D1*
X2449521Y3777160D1*
X2448442Y3775253D1*
X2447163Y3773487D1*
X2445702Y3771875D1*
X2444072Y3770433D1*
X2442289Y3769176D1*
X2440367Y3768119D1*
X2438324Y3767278D1*
X2436172Y3766667D1*
X2433928Y3766301D1*
X2431608Y3766197D1*
X2429302Y3766361D1*
X2427077Y3766782D1*
X2424948Y3767445D1*
X2422930Y3768336D1*
X2421038Y3769438D1*
X2419289Y3770738D1*
X2417694Y3772219D1*
X2416273Y3773866D1*
X2415037Y3775665D1*
X2414003Y3777601D1*
X2413186Y3779657D1*
X2412602Y3781820D1*
X2412265Y3784073D1*
X2412190Y3786400D1*
X2412383Y3788697D1*
X2412832Y3790912D1*
X2413522Y3793030D1*
X2414437Y3795034D1*
X2415562Y3796911D1*
X2416882Y3798644D1*
X2418383Y3800220D1*
X2420047Y3801622D1*
X2421862Y3802836D1*
X2423812Y3803846D1*
X2425882Y3804638D1*
X2428055Y3805196D1*
X2430318Y3805504D1*
X2432647Y3805550D1*
X2434936Y3805327D1*
X2437142Y3804850D1*
X2439247Y3804135D1*
X2441238Y3803196D1*
X2443100Y3802049D1*
X2444816Y3800707D1*
X2446373Y3799188D1*
X2447755Y3797505D1*
X2448948Y3795675D1*
X2449933Y3793711D1*
X2450699Y3791630D1*
X2451231Y3789446D1*
X2451512Y3787175D1*
X2451552Y3785879D1*
G37*
G36*
X2009848Y4037870D2*
X2009714Y4035556D1*
X2009320Y4033322D1*
X2008682Y4031181D1*
X2007816Y4029151D1*
X2006736Y4027244D1*
X2005458Y4025478D1*
X2003997Y4023865D1*
X2002367Y4022424D1*
X2000584Y4021167D1*
X1998663Y4020110D1*
X1996619Y4019268D1*
X1994467Y4018657D1*
X1992223Y4018291D1*
X1989903Y4018186D1*
X1987597Y4018350D1*
X1985373Y4018772D1*
X1983243Y4019436D1*
X1981226Y4020327D1*
X1979333Y4021429D1*
X1977584Y4022728D1*
X1975990Y4024210D1*
X1974567Y4025857D1*
X1973332Y4027656D1*
X1972298Y4029592D1*
X1971482Y4031648D1*
X1970898Y4033811D1*
X1970560Y4036064D1*
X1970486Y4038390D1*
X1970678Y4040688D1*
X1971127Y4042903D1*
X1971818Y4045020D1*
X1972732Y4047025D1*
X1973857Y4048902D1*
X1975177Y4050635D1*
X1976677Y4052210D1*
X1978343Y4053613D1*
X1980157Y4054827D1*
X1982108Y4055836D1*
X1984177Y4056629D1*
X1986350Y4057186D1*
X1988613Y4057495D1*
X1990942Y4057539D1*
X1993231Y4057318D1*
X1995436Y4056841D1*
X1997542Y4056126D1*
X1999533Y4055186D1*
X2001395Y4054039D1*
X2003112Y4052698D1*
X2004668Y4051178D1*
X2006050Y4049496D1*
X2007241Y4047665D1*
X2008228Y4045702D1*
X2008995Y4043619D1*
X2009526Y4041436D1*
X2009806Y4039164D1*
X2009848Y4037870D1*
G37*
G36*
X2412182Y3293077D2*
X2412318Y3295391D1*
X2412711Y3297626D1*
X2413348Y3299766D1*
X2414214Y3301797D1*
X2415294Y3303703D1*
X2416572Y3305470D1*
X2418034Y3307081D1*
X2419664Y3308524D1*
X2421448Y3309781D1*
X2423367Y3310837D1*
X2425412Y3311678D1*
X2427563Y3312290D1*
X2429807Y3312656D1*
X2432129Y3312760D1*
X2434434Y3312596D1*
X2436659Y3312175D1*
X2438787Y3311512D1*
X2440806Y3310621D1*
X2442697Y3309518D1*
X2444448Y3308219D1*
X2446042Y3306738D1*
X2447463Y3305091D1*
X2448699Y3303291D1*
X2449732Y3301356D1*
X2450550Y3299299D1*
X2451134Y3297136D1*
X2451471Y3294883D1*
X2451546Y3292556D1*
X2451353Y3290260D1*
X2450904Y3288045D1*
X2450214Y3285927D1*
X2449299Y3283923D1*
X2448175Y3282046D1*
X2446853Y3280312D1*
X2445353Y3278736D1*
X2443688Y3277335D1*
X2441873Y3276121D1*
X2439924Y3275110D1*
X2437854Y3274319D1*
X2435681Y3273761D1*
X2433419Y3273453D1*
X2431089Y3273407D1*
X2428799Y3273630D1*
X2426594Y3274106D1*
X2424490Y3274822D1*
X2422499Y3275761D1*
X2420636Y3276908D1*
X2418920Y3278249D1*
X2417362Y3279769D1*
X2415980Y3281451D1*
X2414789Y3283282D1*
X2413802Y3285245D1*
X2413035Y3287327D1*
X2412505Y3289510D1*
X2412224Y3291782D1*
X2412182Y3293077D1*
G37*
G36*
X1541311D2*
X1541445Y3295391D1*
X1541839Y3297626D1*
X1542476Y3299765D1*
X1543343Y3301797D1*
X1544423Y3303703D1*
X1545701Y3305470D1*
X1547161Y3307081D1*
X1548791Y3308524D1*
X1550575Y3309781D1*
X1552496Y3310837D1*
X1554539Y3311678D1*
X1556692Y3312290D1*
X1558936Y3312656D1*
X1561256Y3312760D1*
X1563562Y3312596D1*
X1565787Y3312175D1*
X1567916Y3311512D1*
X1569933Y3310621D1*
X1571825Y3309518D1*
X1573575Y3308219D1*
X1575169Y3306738D1*
X1576592Y3305091D1*
X1577827Y3303291D1*
X1578861Y3301356D1*
X1579677Y3299299D1*
X1580261Y3297136D1*
X1580598Y3294883D1*
X1580675Y3292556D1*
X1580480Y3290260D1*
X1580031Y3288045D1*
X1579343Y3285927D1*
X1578427Y3283923D1*
X1577302Y3282046D1*
X1575982Y3280312D1*
X1574482Y3278736D1*
X1572816Y3277335D1*
X1571001Y3276121D1*
X1569051Y3275110D1*
X1566983Y3274319D1*
X1564808Y3273761D1*
X1562546Y3273453D1*
X1560217Y3273407D1*
X1557928Y3273630D1*
X1555723Y3274106D1*
X1553617Y3274822D1*
X1551626Y3275761D1*
X1549765Y3276908D1*
X1548047Y3278249D1*
X1546491Y3279769D1*
X1545109Y3281451D1*
X1543917Y3283282D1*
X1542930Y3285245D1*
X1542164Y3287327D1*
X1541633Y3289510D1*
X1541353Y3291782D1*
X1541311Y3293077D1*
G37*
X2547360Y3538100D2*
D11*
X3536807D1*
G36*
X3536802Y3534627D2*
X2547353D1*
Y3541572D1*
X3536802D1*
Y3534627D1*
G37*
X2794720Y3109656D2*
D11*
X3289445Y3966543D1*
G36*
X2797734Y3107917D2*
X2791711Y3111390D1*
X3286436Y3968276D1*
X3292457Y3964803D1*
X2797734Y3107917D1*
G37*
X3289445Y3109656D2*
D11*
X2794720Y3966543D1*
G36*
X3286436Y3107917D2*
X2791711Y3964803D1*
X2797734Y3968276D1*
X3292457Y3111390D1*
X3286436Y3107917D1*
G37*
G36*
X2632600Y3785879D2*
X2632466Y3783566D1*
X2632072Y3781331D1*
X2631434Y3779190D1*
X2630568Y3777160D1*
X2629488Y3775253D1*
X2628210Y3773487D1*
X2626748Y3771875D1*
X2625118Y3770433D1*
X2623336Y3769176D1*
X2621415Y3768119D1*
X2619371Y3767278D1*
X2617219Y3766667D1*
X2614975Y3766301D1*
X2612655Y3766197D1*
X2610349Y3766361D1*
X2608123Y3766782D1*
X2605995Y3767445D1*
X2603976Y3768336D1*
X2602085Y3769438D1*
X2600335Y3770738D1*
X2598741Y3772219D1*
X2597319Y3773866D1*
X2596084Y3775665D1*
X2595050Y3777601D1*
X2594234Y3779657D1*
X2593648Y3781820D1*
X2593311Y3784073D1*
X2593236Y3786400D1*
X2593430Y3788697D1*
X2593879Y3790912D1*
X2594568Y3793030D1*
X2595483Y3795034D1*
X2596609Y3796911D1*
X2597929Y3798644D1*
X2599429Y3800220D1*
X2601094Y3801622D1*
X2602909Y3802836D1*
X2604860Y3803846D1*
X2606928Y3804638D1*
X2609101Y3805196D1*
X2611365Y3805504D1*
X2613694Y3805550D1*
X2615983Y3805327D1*
X2618188Y3804850D1*
X2620294Y3804135D1*
X2622285Y3803196D1*
X2624146Y3802049D1*
X2625862Y3800707D1*
X2627420Y3799188D1*
X2628802Y3797505D1*
X2629993Y3795675D1*
X2630980Y3793711D1*
X2631747Y3791630D1*
X2632278Y3789446D1*
X2632558Y3787175D1*
X2632600Y3785879D1*
G37*
G36*
X3503472D2*
X3503339Y3783566D1*
X3502945Y3781331D1*
X3502307Y3779190D1*
X3501441Y3777160D1*
X3500361Y3775253D1*
X3499083Y3773487D1*
X3497622Y3771875D1*
X3495992Y3770433D1*
X3494209Y3769176D1*
X3492287Y3768119D1*
X3490244Y3767278D1*
X3488092Y3766667D1*
X3485848Y3766301D1*
X3483528Y3766197D1*
X3481222Y3766361D1*
X3478996Y3766782D1*
X3476867Y3767445D1*
X3474850Y3768336D1*
X3472958Y3769438D1*
X3471209Y3770738D1*
X3469614Y3772219D1*
X3468192Y3773866D1*
X3466957Y3775665D1*
X3465923Y3777601D1*
X3465106Y3779657D1*
X3464522Y3781820D1*
X3464185Y3784073D1*
X3464109Y3786400D1*
X3464303Y3788697D1*
X3464752Y3790912D1*
X3465441Y3793030D1*
X3466357Y3795034D1*
X3467482Y3796911D1*
X3468802Y3798644D1*
X3470302Y3800220D1*
X3471967Y3801622D1*
X3473782Y3802836D1*
X3475732Y3803846D1*
X3477801Y3804638D1*
X3479975Y3805196D1*
X3482238Y3805504D1*
X3484567Y3805550D1*
X3486856Y3805327D1*
X3489060Y3804850D1*
X3491167Y3804135D1*
X3493157Y3803196D1*
X3495018Y3802049D1*
X3496736Y3800707D1*
X3498293Y3799188D1*
X3499675Y3797505D1*
X3500866Y3795675D1*
X3501853Y3793711D1*
X3502619Y3791630D1*
X3503151Y3789446D1*
X3503430Y3787175D1*
X3503472Y3785879D1*
G37*
G36*
X3061768Y4037870D2*
X3061634Y4035556D1*
X3061240Y4033322D1*
X3060602Y4031181D1*
X3059736Y4029151D1*
X3058656Y4027244D1*
X3057378Y4025478D1*
X3055916Y4023865D1*
X3054287Y4022424D1*
X3052504Y4021167D1*
X3050583Y4020109D1*
X3048539Y4019268D1*
X3046387Y4018657D1*
X3044143Y4018291D1*
X3041823Y4018186D1*
X3039517Y4018350D1*
X3037291Y4018772D1*
X3035163Y4019436D1*
X3033146Y4020327D1*
X3031253Y4021429D1*
X3029503Y4022728D1*
X3027909Y4024210D1*
X3026487Y4025857D1*
X3025252Y4027656D1*
X3024218Y4029592D1*
X3023402Y4031648D1*
X3022818Y4033811D1*
X3022480Y4036064D1*
X3022404Y4038390D1*
X3022598Y4040688D1*
X3023047Y4042903D1*
X3023736Y4045020D1*
X3024652Y4047025D1*
X3025777Y4048902D1*
X3027097Y4050635D1*
X3028597Y4052210D1*
X3030262Y4053613D1*
X3032077Y4054827D1*
X3034028Y4055836D1*
X3036096Y4056629D1*
X3038270Y4057186D1*
X3040533Y4057495D1*
X3042862Y4057539D1*
X3045151Y4057318D1*
X3047356Y4056841D1*
X3049462Y4056126D1*
X3051453Y4055186D1*
X3053314Y4054039D1*
X3055031Y4052698D1*
X3056588Y4051178D1*
X3057970Y4049496D1*
X3059161Y4047665D1*
X3060148Y4045702D1*
X3060915Y4043619D1*
X3061446Y4041436D1*
X3061726Y4039164D1*
X3061768Y4037870D1*
G37*
G36*
X3464102Y3293077D2*
X3464238Y3295391D1*
X3464631Y3297626D1*
X3465268Y3299765D1*
X3466134Y3301797D1*
X3467214Y3303703D1*
X3468492Y3305470D1*
X3469954Y3307081D1*
X3471584Y3308524D1*
X3473367Y3309781D1*
X3475287Y3310837D1*
X3477332Y3311678D1*
X3479483Y3312290D1*
X3481727Y3312656D1*
X3484049Y3312760D1*
X3486354Y3312596D1*
X3488579Y3312175D1*
X3490707Y3311512D1*
X3492726Y3310621D1*
X3494617Y3309518D1*
X3496367Y3308219D1*
X3497962Y3306738D1*
X3499383Y3305091D1*
X3500619Y3303291D1*
X3501652Y3301356D1*
X3502470Y3299299D1*
X3503054Y3297136D1*
X3503391Y3294883D1*
X3503466Y3292556D1*
X3503273Y3290260D1*
X3502824Y3288045D1*
X3502134Y3285927D1*
X3501219Y3283923D1*
X3500094Y3282046D1*
X3498773Y3280312D1*
X3497273Y3278736D1*
X3495608Y3277335D1*
X3493793Y3276121D1*
X3491844Y3275110D1*
X3489774Y3274319D1*
X3487601Y3273761D1*
X3485339Y3273451D1*
X3483009Y3273407D1*
X3480719Y3273630D1*
X3478514Y3274106D1*
X3476409Y3274822D1*
X3474419Y3275761D1*
X3472556Y3276908D1*
X3470840Y3278249D1*
X3469282Y3279769D1*
X3467900Y3281451D1*
X3466709Y3283282D1*
X3465722Y3285245D1*
X3464955Y3287327D1*
X3464425Y3289510D1*
X3464144Y3291782D1*
X3464102Y3293077D1*
G37*
G36*
X2593230D2*
X2593365Y3295391D1*
X2593759Y3297626D1*
X2594395Y3299766D1*
X2595261Y3301797D1*
X2596341Y3303703D1*
X2597619Y3305470D1*
X2599081Y3307081D1*
X2600711Y3308524D1*
X2602495Y3309781D1*
X2604415Y3310837D1*
X2606459Y3311678D1*
X2608610Y3312290D1*
X2610854Y3312656D1*
X2613176Y3312760D1*
X2615482Y3312596D1*
X2617706Y3312175D1*
X2619835Y3311512D1*
X2621853Y3310621D1*
X2623744Y3309518D1*
X2625495Y3308219D1*
X2627089Y3306738D1*
X2628510Y3305091D1*
X2629747Y3303291D1*
X2630780Y3301356D1*
X2631597Y3299299D1*
X2632181Y3297136D1*
X2632518Y3294883D1*
X2632593Y3292556D1*
X2632400Y3290260D1*
X2631951Y3288045D1*
X2631261Y3285927D1*
X2630346Y3283923D1*
X2629222Y3282046D1*
X2627900Y3280312D1*
X2626400Y3278736D1*
X2624735Y3277335D1*
X2622920Y3276121D1*
X2620971Y3275110D1*
X2618902Y3274319D1*
X2616728Y3273761D1*
X2614466Y3273453D1*
X2612136Y3273407D1*
X2609846Y3273630D1*
X2607642Y3274106D1*
X2605537Y3274822D1*
X2603546Y3275761D1*
X2601684Y3276908D1*
X2599967Y3278249D1*
X2598409Y3279769D1*
X2597028Y3281451D1*
X2595836Y3283282D1*
X2594849Y3285245D1*
X2594083Y3287327D1*
X2593552Y3289510D1*
X2593272Y3291782D1*
X2593230Y3293077D1*
G37*
G36*
X3586619Y4126961D2*
X393449Y4126979D1*
X392950Y4127135D1*
X392504Y4127448D1*
X392176Y4127881D1*
X392003Y4128371D1*
X391984Y4128911D1*
X392129Y4129416D1*
X392429Y4129869D1*
X392854Y4130207D1*
X393340Y4130394D1*
X393707Y4130433D1*
X3586881Y4130413D1*
X3587381Y4130257D1*
X3587825Y4129945D1*
X3588152Y4129512D1*
X3588325Y4129021D1*
X3588343Y4128482D1*
X3588201Y4127978D1*
X3587900Y4127524D1*
X3587476Y4127185D1*
X3586990Y4127000D1*
X3586619Y4126961D1*
G37*
G36*
Y5208999D2*
X393449Y5209017D1*
X392950Y5209173D1*
X392504Y5209486D1*
X392176Y5209919D1*
X392003Y5210409D1*
X391984Y5210949D1*
X392129Y5211454D1*
X392429Y5211907D1*
X392854Y5212245D1*
X393340Y5212432D1*
X393707Y5212471D1*
X3586881Y5212451D1*
X3587381Y5212295D1*
X3587825Y5211983D1*
X3588152Y5211550D1*
X3588325Y5211059D1*
X3588343Y5210520D1*
X3588201Y5210016D1*
X3587900Y5209562D1*
X3587476Y5209223D1*
X3586990Y5209038D1*
X3586619Y5208999D1*
G37*
G36*
Y1299337D2*
X1934349Y1299357D1*
X1933850Y1299510D1*
X1933404Y1299822D1*
X1933076Y1300255D1*
X1932903Y1300747D1*
X1932886Y1301289D1*
X1933029Y1301795D1*
X1933329Y1302248D1*
X1933755Y1302585D1*
X1934240Y1302770D1*
X1934608Y1302810D1*
X3586881Y1302790D1*
X3587381Y1302635D1*
X3587825Y1302325D1*
X3588152Y1301892D1*
X3588325Y1301400D1*
X3588343Y1300857D1*
X3588201Y1300352D1*
X3587900Y1299898D1*
X3587476Y1299560D1*
X3586990Y1299377D1*
X3586619Y1299337D1*
G37*
G36*
X1934608Y1729892D2*
X393449Y1729912D1*
X392950Y1730067D1*
X392504Y1730377D1*
X392176Y1730810D1*
X392003Y1731302D1*
X391984Y1731845D1*
X392129Y1732350D1*
X392429Y1732804D1*
X392854Y1733142D1*
X393340Y1733325D1*
X393707Y1733365D1*
X1934867Y1733345D1*
X1935366Y1733192D1*
X1935812Y1732881D1*
X1936140Y1732448D1*
X1936314Y1731955D1*
X1936331Y1731413D1*
X1936188Y1730907D1*
X1935886Y1730454D1*
X1935462Y1730117D1*
X1934976Y1729932D1*
X1934608Y1729892D1*
G37*
G36*
X3586619Y638950D2*
X2575516Y641000D1*
D1*
X2575538Y1301085D1*
X2575504Y1301421D1*
X2575325Y1301911D1*
X2574993Y1302340D1*
X2574543Y1302644D1*
X2574041Y1302794D1*
X2573497Y1302783D1*
X2573003Y1302617D1*
X2572566Y1302295D1*
X2572249Y1301854D1*
X2572089Y1301356D1*
X2572066Y641272D1*
X1936322Y641000D1*
D1*
X1936344Y1731640D1*
X1936310Y1731978D1*
X1936130Y1732466D1*
X1935797Y1732895D1*
X1935346Y1733201D1*
X1934845Y1733349D1*
X1934306Y1733339D1*
X1933811Y1733172D1*
X1933374Y1732850D1*
X1933056Y1732409D1*
X1932895Y1731912D1*
X1932871Y641272D1*
X1932957Y640743D1*
X1933207Y640256D1*
X1933593Y639874D1*
X1934081Y639629D1*
X1934608Y639547D1*
X1934911Y639573D1*
X1935404Y639740D1*
X1935843Y640062D1*
X1936160Y640503D1*
X1936322Y641000D1*
X2572066Y641272D1*
X2572151Y640743D1*
X2572400Y640256D1*
X2572783Y639874D1*
X2573273Y639629D1*
X2573802Y639547D1*
X2574106Y639573D1*
X2574602Y639740D1*
X2575039Y640062D1*
X2575356Y640503D1*
X2575516Y641000D1*
X3586619Y638950D1*
X393449Y638970D1*
X392950Y639125D1*
X392504Y639434D1*
X392176Y639867D1*
X392003Y640360D1*
X391984Y640903D1*
X392129Y641408D1*
X392429Y641862D1*
X392854Y642199D1*
X393340Y642383D1*
X393707Y642423D1*
X3586881Y642403D1*
X3587381Y642249D1*
X3587825Y641938D1*
X3588152Y641505D1*
X3588325Y641013D1*
X3588343Y640470D1*
X3588201Y639965D1*
X3587900Y639510D1*
X3587476Y639175D1*
X3586990Y638990D1*
X3586619Y638950D1*
G37*
G36*
X885854Y5382705D2*
X943308Y5294244D1*
X943608D1*
Y5382705D1*
X957361D1*
Y5273621D1*
X941465D1*
X884484Y5361165D1*
X884173D1*
Y5273621D1*
X870433D1*
Y5382705D1*
X885854D1*
G37*
G36*
X985247Y5299669D2*
X985967Y5297272D1*
X986858Y5294984D1*
X987920Y5292807D1*
X989154Y5290740D1*
X990559Y5288790D1*
X991801Y5287332D1*
X993146Y5285969D1*
X994972Y5284396D1*
X996961Y5282972D1*
X998671Y5281948D1*
X1000030Y5281285D1*
X1001462Y5280722D1*
X1002962Y5280261D1*
X1004531Y5279900D1*
X1006168Y5279642D1*
X1008457Y5279453D1*
X1010510Y5279433D1*
X1012303Y5279510D1*
X1014025Y5279673D1*
X1015675Y5279921D1*
X1017253Y5280253D1*
X1018760Y5280672D1*
X1020196Y5281175D1*
X1021560Y5281764D1*
X1022854Y5282437D1*
X1024077Y5283196D1*
X1025228Y5284041D1*
X1026310Y5284970D1*
X1027328Y5285970D1*
X1028290Y5287026D1*
X1029194Y5288139D1*
X1030042Y5289308D1*
X1031207Y5291169D1*
X1032243Y5293157D1*
X1033151Y5295274D1*
X1033930Y5297518D1*
X1034517Y5299594D1*
X1044131D1*
X1043362Y5296558D1*
X1042681Y5294362D1*
X1041920Y5292264D1*
X1041080Y5290259D1*
X1040160Y5288348D1*
X1039160Y5286533D1*
X1038083Y5284812D1*
X1036924Y5283185D1*
X1035686Y5281654D1*
X1034370Y5280217D1*
X1032974Y5278874D1*
X1031487Y5277635D1*
X1029894Y5276510D1*
X1028197Y5275499D1*
X1026394Y5274600D1*
X1024486Y5273816D1*
X1022471Y5273144D1*
X1020353Y5272588D1*
X1018129Y5272144D1*
X1015799Y5271814D1*
X1013365Y5271597D1*
X1010825Y5271495D1*
X1007197Y5271549D1*
X1004119Y5271812D1*
X1001913Y5272143D1*
X999795Y5272588D1*
X997766Y5273148D1*
X995824Y5273822D1*
X993970Y5274612D1*
X991635Y5275823D1*
X989986Y5276831D1*
X988425Y5277924D1*
X986950Y5279101D1*
X985563Y5280365D1*
X984264Y5281713D1*
X983050Y5283146D1*
X981568Y5285181D1*
X980224Y5287332D1*
X979020Y5289597D1*
X977950Y5291976D1*
X977020Y5294467D1*
X976050Y5297739D1*
X975155Y5301808D1*
X974545Y5305997D1*
X974222Y5310303D1*
X974186Y5314592D1*
X974440Y5318668D1*
X974980Y5322702D1*
X975807Y5326694D1*
X976715Y5329972D1*
X977596Y5332495D1*
X978614Y5334917D1*
X979770Y5337240D1*
X981063Y5339463D1*
X982493Y5341588D1*
X983664Y5343105D1*
X984923Y5344543D1*
X986268Y5345902D1*
X987699Y5347180D1*
X989744Y5348760D1*
X991945Y5350199D1*
X993697Y5351185D1*
X995538Y5352066D1*
X997466Y5352823D1*
X999483Y5353453D1*
X1001587Y5353958D1*
X1003780Y5354339D1*
X1006059Y5354594D1*
X1009236Y5354740D1*
X1011698Y5354702D1*
X1014076Y5354530D1*
X1013635Y5346646D1*
D1*
X1017093Y5345860D1*
X1020146Y5344280D1*
X1023211Y5342699D1*
X1025802Y5340617D1*
X1027945Y5338020D1*
X1030088Y5335423D1*
X1031743Y5332438D1*
X1032908Y5329081D1*
X1034075Y5325718D1*
X1034713Y5322205D1*
X1034822Y5318537D1*
X983795D1*
X984202Y5322104D1*
X985030Y5325589D1*
X986304Y5329000D1*
X987580Y5332412D1*
X989289Y5335423D1*
X991432Y5338020D1*
X993575Y5340617D1*
X996165Y5342699D1*
X999218Y5344280D1*
X1002282Y5345860D1*
X1005795Y5346646D1*
X1009756D1*
X1013635D1*
X1014076Y5354530D1*
X1016360Y5354226D1*
X1018545Y5353789D1*
X1020634Y5353218D1*
X1022627Y5352514D1*
X1024524Y5351677D1*
X1026325Y5350710D1*
X1028592Y5349270D1*
X1030188Y5348093D1*
X1031696Y5346835D1*
X1033114Y5345492D1*
X1034446Y5344068D1*
X1035692Y5342562D1*
X1036849Y5340972D1*
X1038256Y5338738D1*
X1039517Y5336391D1*
X1040634Y5333930D1*
X1041605Y5331357D1*
X1042428Y5328671D1*
X1043251Y5325167D1*
X1043958Y5320906D1*
X1044367Y5316610D1*
X1044479Y5312283D1*
X1044451Y5310835D1*
X1044366Y5310438D1*
X983822D1*
X983797Y5310106D1*
X983962Y5306861D1*
X984402Y5303546D1*
X985121Y5300159D1*
X985247Y5299669D1*
G37*
G36*
X1066289Y5352451D2*
Y5339169D1*
X1066293Y5339165D1*
X1066748D1*
X1067635Y5340766D1*
X1068756Y5342551D1*
X1069959Y5344224D1*
X1071244Y5345786D1*
X1072612Y5347236D1*
X1074062Y5348573D1*
X1075593Y5349799D1*
X1077209Y5350912D1*
X1078056Y5351420D1*
X1078933Y5351891D1*
X1079841Y5352325D1*
X1080778Y5352726D1*
X1081745Y5353088D1*
X1082743Y5353415D1*
X1083770Y5353706D1*
X1084828Y5353961D1*
X1087033Y5354364D1*
X1089360Y5354622D1*
X1091808Y5354738D1*
X1093995Y5354711D1*
X1095991Y5354551D1*
X1097936Y5354259D1*
X1099831Y5353833D1*
X1101673Y5353274D1*
X1103465Y5352584D1*
X1105206Y5351760D1*
X1106895Y5350802D1*
X1107706Y5350273D1*
X1108479Y5349709D1*
X1109217Y5349110D1*
X1109917Y5348476D1*
X1110580Y5347808D1*
X1111207Y5347106D1*
X1111798Y5346369D1*
X1112352Y5345596D1*
X1112869Y5344789D1*
X1113350Y5343948D1*
X1113794Y5343072D1*
X1114202Y5342161D1*
X1114575Y5341215D1*
X1115226Y5339408D1*
X1115706Y5340417D1*
X1116215Y5341390D1*
X1116753Y5342329D1*
X1117323Y5343234D1*
X1117920Y5344104D1*
X1118549Y5344938D1*
X1119205Y5345739D1*
X1119892Y5346505D1*
X1120608Y5347236D1*
X1121353Y5347933D1*
X1122127Y5348594D1*
X1122932Y5349222D1*
X1123765Y5349814D1*
X1124627Y5350371D1*
X1126429Y5351383D1*
X1128276Y5352262D1*
X1130152Y5353008D1*
X1132062Y5353621D1*
X1134003Y5354101D1*
X1135975Y5354448D1*
X1137980Y5354661D1*
X1140017Y5354743D1*
X1142882Y5354669D1*
X1146037Y5354358D1*
X1148965Y5353807D1*
X1151664Y5353016D1*
X1154136Y5351983D1*
X1156382Y5350709D1*
X1158399Y5349194D1*
X1160189Y5347438D1*
X1161751Y5345442D1*
X1163085Y5343205D1*
X1164192Y5340727D1*
X1165071Y5338008D1*
X1165723Y5335049D1*
X1166147Y5331848D1*
X1166344Y5328406D1*
X1166358Y5273802D1*
X1166329Y5273621D1*
X1156783D1*
X1156728Y5273697D1*
X1156703Y5328130D1*
X1156547Y5330534D1*
X1156247Y5332776D1*
X1156043Y5333836D1*
X1155803Y5334854D1*
X1155528Y5335833D1*
X1155217Y5336772D1*
X1154869Y5337671D1*
X1154484Y5338528D1*
X1154066Y5339345D1*
X1153609Y5340121D1*
X1153117Y5340857D1*
X1152589Y5341554D1*
X1152017Y5342205D1*
X1151391Y5342812D1*
X1150709Y5343374D1*
X1149972Y5343892D1*
X1149182Y5344365D1*
X1148336Y5344794D1*
X1147434Y5345178D1*
X1146479Y5345517D1*
X1145469Y5345812D1*
X1144404Y5346063D1*
X1143285Y5346268D1*
X1142110Y5346429D1*
X1140881Y5346546D1*
X1139597Y5346618D1*
X1137373Y5346638D1*
X1135789Y5346560D1*
X1134281Y5346402D1*
X1132846Y5346159D1*
X1131487Y5345835D1*
X1130201Y5345427D1*
X1128990Y5344937D1*
X1127852Y5344364D1*
X1126787Y5343718D1*
X1125780Y5343017D1*
X1124831Y5342260D1*
X1123938Y5341448D1*
X1123104Y5340579D1*
X1122329Y5339654D1*
X1121613Y5338672D1*
X1120646Y5337101D1*
X1119794Y5335437D1*
X1119055Y5333682D1*
X1118429Y5331837D1*
X1117916Y5329903D1*
X1117301Y5326518D1*
X1116902Y5323042D1*
X1116717Y5319480D1*
X1116701Y5273621D1*
X1107087D1*
X1107058Y5328558D1*
X1106861Y5331091D1*
X1106483Y5333541D1*
X1106046Y5335436D1*
X1105622Y5336781D1*
X1105117Y5338055D1*
X1104529Y5339259D1*
X1103857Y5340390D1*
X1103097Y5341445D1*
X1102238Y5342411D1*
X1101277Y5343290D1*
X1100215Y5344079D1*
X1099054Y5344777D1*
X1098224Y5345193D1*
X1097343Y5345559D1*
X1096413Y5345873D1*
X1094929Y5346243D1*
X1093339Y5346493D1*
X1091642Y5346625D1*
X1089614Y5346633D1*
X1088063Y5346546D1*
X1086568Y5346385D1*
X1085129Y5346144D1*
X1083745Y5345828D1*
X1082416Y5345434D1*
X1081142Y5344965D1*
X1079924Y5344417D1*
X1078768Y5343802D1*
X1077668Y5343127D1*
X1076626Y5342394D1*
X1075643Y5341602D1*
X1074718Y5340753D1*
X1073854Y5339844D1*
X1073049Y5338878D1*
X1071946Y5337322D1*
X1070954Y5335655D1*
X1070075Y5333882D1*
X1069312Y5332000D1*
X1068665Y5330012D1*
X1067974Y5327205D1*
X1067472Y5324257D1*
X1067164Y5321171D1*
X1067047Y5317415D1*
Y5273787D1*
X1067022Y5273621D1*
X1057491D1*
X1057432Y5273714D1*
X1057434Y5352451D1*
X1066289D1*
G37*
G36*
X1191803Y5299669D2*
X1192524Y5297272D1*
X1193415Y5294984D1*
X1194476Y5292807D1*
X1195710Y5290740D1*
X1197115Y5288790D1*
X1198357Y5287332D1*
X1199702Y5285969D1*
X1201529Y5284396D1*
X1203518Y5282972D1*
X1205227Y5281948D1*
X1206587Y5281285D1*
X1208018Y5280722D1*
X1209518Y5280261D1*
X1211088Y5279900D1*
X1212724Y5279642D1*
X1215013Y5279453D1*
X1217067Y5279433D1*
X1218860Y5279510D1*
X1220581Y5279673D1*
X1222231Y5279921D1*
X1223810Y5280253D1*
X1225316Y5280672D1*
X1226752Y5281175D1*
X1228117Y5281764D1*
X1229411Y5282437D1*
X1230634Y5283196D1*
X1231786Y5284041D1*
X1232866Y5284970D1*
X1233885Y5285970D1*
X1234846Y5287026D1*
X1235751Y5288139D1*
X1236598Y5289308D1*
X1237764Y5291169D1*
X1238801Y5293157D1*
X1239707Y5295274D1*
X1240487Y5297518D1*
X1241073Y5299594D1*
X1250688D1*
X1249919Y5296558D1*
X1249238Y5294362D1*
X1248476Y5292264D1*
X1247636Y5290259D1*
X1246717Y5288348D1*
X1245717Y5286533D1*
X1244639Y5284812D1*
X1243480Y5283185D1*
X1242243Y5281654D1*
X1240927Y5280217D1*
X1239530Y5278874D1*
X1238043Y5277635D1*
X1236450Y5276510D1*
X1234753Y5275499D1*
X1232950Y5274600D1*
X1231042Y5273816D1*
X1229028Y5273144D1*
X1226909Y5272588D1*
X1224685Y5272144D1*
X1222356Y5271814D1*
X1219921Y5271597D1*
X1217382Y5271495D1*
X1213753Y5271549D1*
X1210676Y5271812D1*
X1208470Y5272143D1*
X1206352Y5272588D1*
X1204323Y5273148D1*
X1202381Y5273822D1*
X1200526Y5274612D1*
X1198192Y5275823D1*
X1196543Y5276831D1*
X1194982Y5277924D1*
X1193507Y5279101D1*
X1192119Y5280365D1*
X1190820Y5281713D1*
X1189606Y5283146D1*
X1188125Y5285181D1*
X1186781Y5287332D1*
X1185576Y5289597D1*
X1184507Y5291976D1*
X1183576Y5294467D1*
X1182606Y5297739D1*
X1181711Y5301808D1*
X1181101Y5305997D1*
X1180778Y5310303D1*
X1180743Y5314592D1*
X1180996Y5318668D1*
X1181537Y5322702D1*
X1182364Y5326694D1*
X1183272Y5329972D1*
X1184152Y5332495D1*
X1185171Y5334917D1*
X1186327Y5337240D1*
X1187621Y5339463D1*
X1189050Y5341588D1*
X1190220Y5343105D1*
X1191479Y5344543D1*
X1192824Y5345902D1*
X1194256Y5347180D1*
X1196301Y5348760D1*
X1198501Y5350199D1*
X1200253Y5351185D1*
X1202094Y5352066D1*
X1204022Y5352823D1*
X1206039Y5353453D1*
X1208143Y5353958D1*
X1210336Y5354339D1*
X1212615Y5354594D1*
X1215793Y5354740D1*
X1218255Y5354702D1*
X1220634Y5354530D1*
X1220192Y5346646D1*
D1*
X1223650Y5345860D1*
X1226702Y5344280D1*
X1229768Y5342699D1*
X1232358Y5340617D1*
X1234501Y5338020D1*
X1236644Y5335423D1*
X1238299Y5332438D1*
X1239465Y5329081D1*
X1240631Y5325718D1*
X1241269Y5322205D1*
X1241378Y5318537D1*
X1190352D1*
X1190759Y5322104D1*
X1191587Y5325589D1*
X1192861Y5329000D1*
X1194136Y5332412D1*
X1195845Y5335423D1*
X1197988Y5338020D1*
X1200131Y5340617D1*
X1202722Y5342699D1*
X1205774Y5344280D1*
X1208839Y5345860D1*
X1212352Y5346646D1*
X1216312D1*
X1220192D1*
X1220634Y5354530D1*
X1222916Y5354226D1*
X1225101Y5353789D1*
X1227192Y5353218D1*
X1229184Y5352514D1*
X1231081Y5351677D1*
X1232882Y5350710D1*
X1235148Y5349270D1*
X1236744Y5348093D1*
X1238252Y5346835D1*
X1239671Y5345492D1*
X1241003Y5344068D1*
X1242248Y5342562D1*
X1243406Y5340972D1*
X1244812Y5338738D1*
X1246075Y5336391D1*
X1247190Y5333930D1*
X1248161Y5331357D1*
X1248984Y5328671D1*
X1249807Y5325167D1*
X1250514Y5320906D1*
X1250924Y5316610D1*
X1251035Y5312283D1*
X1251008Y5310835D1*
X1250923Y5310438D1*
X1190378D1*
X1190353Y5310106D1*
X1190518Y5306861D1*
X1190958Y5303546D1*
X1191677Y5300159D1*
X1191803Y5299669D1*
G37*
G36*
X1309357Y5337097D2*
X1308673Y5338318D1*
X1307903Y5339453D1*
X1307046Y5340504D1*
X1306105Y5341470D1*
X1305079Y5342350D1*
X1303975Y5343146D1*
X1302808Y5343858D1*
X1301579Y5344486D1*
X1300289Y5345029D1*
X1298938Y5345490D1*
X1297531Y5345865D1*
X1295356Y5346289D1*
X1293102Y5346550D1*
X1290770Y5346646D1*
X1288248Y5346559D1*
X1285749Y5346269D1*
X1283865Y5345916D1*
X1282627Y5345606D1*
X1281430Y5345230D1*
X1280274Y5344786D1*
X1279159Y5344274D1*
X1278084Y5343694D1*
X1277064Y5343045D1*
X1276123Y5342322D1*
X1275261Y5341526D1*
X1274475Y5340659D1*
X1273769Y5339718D1*
X1273448Y5339218D1*
X1273159Y5338697D1*
X1272899Y5338152D1*
X1272672Y5337585D1*
X1272474Y5336996D1*
X1272307Y5336385D1*
X1272172Y5335751D1*
X1272067Y5335093D1*
X1271949Y5333713D1*
X1271953Y5332392D1*
X1272000Y5331806D1*
X1272075Y5331238D1*
X1272181Y5330688D1*
X1272315Y5330156D1*
X1272480Y5329642D1*
X1272675Y5329147D1*
X1272898Y5328671D1*
X1273151Y5328213D1*
X1273436Y5327773D1*
X1274072Y5326938D1*
X1274769Y5326155D1*
X1275528Y5325423D1*
X1276349Y5324740D1*
X1277231Y5324110D1*
X1278656Y5323249D1*
X1280161Y5322480D1*
X1282290Y5321593D1*
X1287039Y5320083D1*
X1301110Y5316854D1*
X1303483Y5316420D1*
X1305841Y5315822D1*
X1308186Y5315060D1*
X1309738Y5314461D1*
X1311235Y5313785D1*
X1312667Y5313037D1*
X1314033Y5312215D1*
X1315333Y5311322D1*
X1316564Y5310356D1*
X1317718Y5309306D1*
X1318787Y5308165D1*
X1319772Y5306936D1*
X1320671Y5305615D1*
X1321483Y5304206D1*
X1321854Y5303466D1*
X1322192Y5302699D1*
X1322492Y5301908D1*
X1322755Y5301093D1*
X1322982Y5300252D1*
X1323172Y5299386D1*
X1323324Y5298493D1*
X1323441Y5297577D1*
X1323563Y5295669D1*
X1323568Y5294601D1*
X1323524Y5293399D1*
X1323425Y5292231D1*
X1323273Y5291098D1*
X1323067Y5290001D1*
X1322807Y5288938D1*
X1322495Y5287912D1*
X1322129Y5286920D1*
X1321710Y5285965D1*
X1321239Y5285043D1*
X1320715Y5284157D1*
X1320144Y5283304D1*
X1319545Y5282484D1*
X1318915Y5281694D1*
X1318256Y5280934D1*
X1317568Y5280206D1*
X1316849Y5279509D1*
X1316102Y5278843D1*
X1315324Y5278207D1*
X1314517Y5277604D1*
X1313680Y5277029D1*
X1311930Y5275972D1*
X1310096Y5275035D1*
X1308175Y5274217D1*
X1306168Y5273514D1*
X1304077Y5272933D1*
X1300840Y5272266D1*
X1297614Y5271804D1*
X1294412Y5271546D1*
X1292294Y5271486D1*
X1290185Y5271512D1*
X1287630Y5271652D1*
X1285172Y5271915D1*
X1282810Y5272297D1*
X1280546Y5272801D1*
X1278379Y5273425D1*
X1276308Y5274172D1*
X1274336Y5275039D1*
X1272461Y5276028D1*
X1270682Y5277138D1*
X1269003Y5278370D1*
X1267445Y5279741D1*
X1266025Y5281259D1*
X1264741Y5282923D1*
X1263596Y5284734D1*
X1262587Y5286690D1*
X1261715Y5288793D1*
X1260979Y5291043D1*
X1260381Y5293440D1*
X1259919Y5295982D1*
X1259593Y5298671D1*
X1259727Y5299134D1*
X1269096D1*
X1269240Y5298360D1*
X1269457Y5296563D1*
X1269781Y5294856D1*
X1270214Y5293238D1*
X1270756Y5291707D1*
X1271406Y5290266D1*
X1272164Y5288913D1*
X1273031Y5287650D1*
X1274008Y5286474D1*
X1275094Y5285388D1*
X1276290Y5284390D1*
X1277564Y5283483D1*
X1278898Y5282667D1*
X1280287Y5281942D1*
X1281736Y5281310D1*
X1283241Y5280769D1*
X1284806Y5280319D1*
X1286428Y5279961D1*
X1288106Y5279693D1*
X1289844Y5279518D1*
X1291638Y5279434D1*
X1294161Y5279472D1*
X1296236Y5279644D1*
X1299062Y5280073D1*
X1300491Y5280377D1*
X1301886Y5280755D1*
X1303241Y5281211D1*
X1304555Y5281748D1*
X1305829Y5282364D1*
X1307060Y5283059D1*
X1308222Y5283827D1*
X1309298Y5284667D1*
X1310287Y5285581D1*
X1311193Y5286570D1*
X1312009Y5287631D1*
X1312373Y5288194D1*
X1312698Y5288781D1*
X1312987Y5289391D1*
X1313236Y5290025D1*
X1313449Y5290682D1*
X1313623Y5291365D1*
X1313760Y5292071D1*
X1313858Y5292801D1*
X1313919Y5293555D1*
X1313930Y5295009D1*
X1313827Y5296276D1*
X1313617Y5297459D1*
X1313471Y5298020D1*
X1313299Y5298559D1*
X1313101Y5299076D1*
X1312877Y5299573D1*
X1312626Y5300050D1*
X1312054Y5300946D1*
X1311406Y5301786D1*
X1310684Y5302568D1*
X1309888Y5303295D1*
X1309020Y5303965D1*
X1307593Y5304875D1*
X1306050Y5305693D1*
X1304392Y5306421D1*
X1300199Y5307822D1*
X1296184Y5308866D1*
X1284315Y5311508D1*
X1280073Y5312726D1*
X1276045Y5314159D1*
X1273810Y5315121D1*
X1272409Y5315832D1*
X1271081Y5316600D1*
X1269824Y5317424D1*
X1268640Y5318306D1*
X1267546Y5319256D1*
X1266546Y5320285D1*
X1265642Y5321392D1*
X1264833Y5322579D1*
X1264123Y5323844D1*
X1263804Y5324507D1*
X1263514Y5325197D1*
X1263255Y5325917D1*
X1263028Y5326668D1*
X1262832Y5327449D1*
X1262533Y5329098D1*
X1262357Y5330869D1*
X1262307Y5332785D1*
X1262340Y5333908D1*
X1262423Y5335001D1*
X1262554Y5336063D1*
X1262735Y5337093D1*
X1262965Y5338092D1*
X1263244Y5339060D1*
X1263572Y5339997D1*
X1263950Y5340904D1*
X1264377Y5341778D1*
X1264852Y5342622D1*
X1265370Y5343434D1*
X1265919Y5344217D1*
X1266499Y5344967D1*
X1267108Y5345688D1*
X1267747Y5346378D1*
X1268416Y5347037D1*
X1269115Y5347664D1*
X1269845Y5348262D1*
X1270604Y5348828D1*
X1271392Y5349365D1*
X1273046Y5350346D1*
X1274772Y5351226D1*
X1276571Y5352003D1*
X1278445Y5352678D1*
X1280395Y5353255D1*
X1283421Y5353930D1*
X1286441Y5354403D1*
X1289448Y5354673D1*
X1291444Y5354740D1*
X1293640Y5354711D1*
X1295852Y5354571D1*
X1298000Y5354318D1*
X1300088Y5353953D1*
X1302114Y5353474D1*
X1304072Y5352882D1*
X1305942Y5352167D1*
X1307723Y5351327D1*
X1309413Y5350364D1*
X1311013Y5349277D1*
X1312522Y5348067D1*
X1313238Y5347417D1*
X1313923Y5346739D1*
X1314579Y5346034D1*
X1315203Y5345301D1*
X1315799Y5344539D1*
X1316366Y5343749D1*
X1316903Y5342932D1*
X1317411Y5342085D1*
X1317888Y5341210D1*
X1318336Y5340308D1*
X1318747Y5339377D1*
X1319121Y5338413D1*
X1319459Y5337420D1*
X1319761Y5336395D1*
X1320026Y5335339D1*
X1320449Y5333134D1*
X1320724Y5330803D1*
X1320808Y5329592D1*
X1320643Y5329387D1*
X1311276D1*
X1311175Y5329739D1*
X1311039Y5331379D1*
X1310790Y5332934D1*
X1310427Y5334406D1*
X1309949Y5335794D1*
X1309667Y5336457D1*
X1309357Y5337097D1*
G37*
G36*
X1347253Y5382705D2*
Y5367276D1*
X1337623D1*
Y5382705D1*
X1347253D1*
G37*
G36*
Y5352451D2*
Y5273621D1*
X1337623D1*
Y5352451D1*
X1347253D1*
G37*
G36*
X1411096Y5337097D2*
X1410412Y5338318D1*
X1409642Y5339453D1*
X1408785Y5340504D1*
X1407844Y5341470D1*
X1406818Y5342350D1*
X1405714Y5343146D1*
X1404547Y5343858D1*
X1403318Y5344486D1*
X1402028Y5345029D1*
X1400677Y5345490D1*
X1399270Y5345865D1*
X1397094Y5346289D1*
X1394841Y5346550D1*
X1392509Y5346646D1*
X1389987Y5346559D1*
X1387488Y5346269D1*
X1385604Y5345916D1*
X1384366Y5345606D1*
X1383169Y5345230D1*
X1382013Y5344786D1*
X1380898Y5344274D1*
X1379822Y5343694D1*
X1378803Y5343045D1*
X1377862Y5342322D1*
X1377000Y5341526D1*
X1376214Y5340659D1*
X1375508Y5339718D1*
X1375186Y5339218D1*
X1374898Y5338697D1*
X1374638Y5338152D1*
X1374411Y5337585D1*
X1374213Y5336996D1*
X1374046Y5336385D1*
X1373911Y5335751D1*
X1373806Y5335093D1*
X1373688Y5333713D1*
X1373692Y5332392D1*
X1373739Y5331806D1*
X1373814Y5331238D1*
X1373920Y5330688D1*
X1374054Y5330156D1*
X1374219Y5329642D1*
X1374412Y5329147D1*
X1374636Y5328671D1*
X1374890Y5328213D1*
X1375175Y5327773D1*
X1375810Y5326938D1*
X1376508Y5326155D1*
X1377266Y5325423D1*
X1378088Y5324740D1*
X1378970Y5324110D1*
X1380395Y5323249D1*
X1381900Y5322480D1*
X1384029Y5321593D1*
X1388778Y5320083D1*
X1402849Y5316854D1*
X1405222Y5316420D1*
X1407580Y5315822D1*
X1409925Y5315060D1*
X1411476Y5314461D1*
X1412974Y5313785D1*
X1414406Y5313037D1*
X1415772Y5312215D1*
X1417071Y5311322D1*
X1418303Y5310356D1*
X1419457Y5309306D1*
X1420526Y5308165D1*
X1421510Y5306936D1*
X1422409Y5305615D1*
X1423222Y5304206D1*
X1423593Y5303466D1*
X1423930Y5302699D1*
X1424231Y5301908D1*
X1424493Y5301093D1*
X1424720Y5300252D1*
X1424911Y5299386D1*
X1425063Y5298493D1*
X1425180Y5297577D1*
X1425302Y5295669D1*
X1425307Y5294601D1*
X1425262Y5293399D1*
X1425164Y5292231D1*
X1425012Y5291098D1*
X1424806Y5290001D1*
X1424546Y5288938D1*
X1424234Y5287912D1*
X1423867Y5286920D1*
X1423449Y5285965D1*
X1422978Y5285043D1*
X1422454Y5284157D1*
X1421883Y5283304D1*
X1421283Y5282484D1*
X1420654Y5281694D1*
X1419995Y5280934D1*
X1419307Y5280206D1*
X1418588Y5279509D1*
X1417841Y5278843D1*
X1417063Y5278207D1*
X1416256Y5277604D1*
X1415419Y5277029D1*
X1413669Y5275972D1*
X1411835Y5275035D1*
X1409913Y5274217D1*
X1407907Y5273514D1*
X1405816Y5272933D1*
X1402579Y5272266D1*
X1399353Y5271804D1*
X1396151Y5271546D1*
X1394033Y5271486D1*
X1391924Y5271512D1*
X1389369Y5271652D1*
X1386911Y5271915D1*
X1384549Y5272297D1*
X1382285Y5272801D1*
X1380118Y5273425D1*
X1378047Y5274172D1*
X1376075Y5275039D1*
X1374199Y5276028D1*
X1372421Y5277138D1*
X1370741Y5278370D1*
X1369184Y5279741D1*
X1367764Y5281259D1*
X1366480Y5282923D1*
X1365335Y5284734D1*
X1364325Y5286690D1*
X1363454Y5288793D1*
X1362718Y5291043D1*
X1362119Y5293440D1*
X1361657Y5295982D1*
X1361332Y5298671D1*
X1361466Y5299134D1*
X1370835D1*
X1370979Y5298360D1*
X1371196Y5296563D1*
X1371520Y5294856D1*
X1371953Y5293238D1*
X1372495Y5291707D1*
X1373144Y5290266D1*
X1373903Y5288913D1*
X1374770Y5287650D1*
X1375747Y5286474D1*
X1376833Y5285388D1*
X1378029Y5284390D1*
X1379303Y5283483D1*
X1380636Y5282667D1*
X1382026Y5281942D1*
X1383475Y5281310D1*
X1384980Y5280769D1*
X1386545Y5280319D1*
X1388167Y5279961D1*
X1389845Y5279693D1*
X1391583Y5279518D1*
X1393377Y5279434D1*
X1395900Y5279472D1*
X1397975Y5279644D1*
X1400801Y5280073D1*
X1402230Y5280377D1*
X1403625Y5280755D1*
X1404980Y5281211D1*
X1406294Y5281748D1*
X1407568Y5282364D1*
X1408799Y5283059D1*
X1409961Y5283827D1*
X1411035Y5284667D1*
X1412026Y5285581D1*
X1412930Y5286570D1*
X1413748Y5287631D1*
X1414112Y5288194D1*
X1414437Y5288781D1*
X1414726Y5289391D1*
X1414975Y5290025D1*
X1415188Y5290682D1*
X1415362Y5291365D1*
X1415499Y5292071D1*
X1415597Y5292801D1*
X1415657Y5293555D1*
X1415669Y5295009D1*
X1415566Y5296276D1*
X1415356Y5297459D1*
X1415210Y5298020D1*
X1415038Y5298559D1*
X1414840Y5299076D1*
X1414615Y5299573D1*
X1414365Y5300050D1*
X1413793Y5300946D1*
X1413144Y5301786D1*
X1412423Y5302568D1*
X1411627Y5303295D1*
X1410759Y5303965D1*
X1409332Y5304875D1*
X1407789Y5305693D1*
X1406131Y5306421D1*
X1401938Y5307822D1*
X1397923Y5308866D1*
X1386054Y5311508D1*
X1381812Y5312726D1*
X1377783Y5314159D1*
X1375549Y5315121D1*
X1374148Y5315832D1*
X1372820Y5316600D1*
X1371563Y5317424D1*
X1370379Y5318306D1*
X1369285Y5319256D1*
X1368285Y5320285D1*
X1367381Y5321392D1*
X1366572Y5322579D1*
X1365862Y5323844D1*
X1365543Y5324507D1*
X1365253Y5325197D1*
X1364993Y5325917D1*
X1364766Y5326668D1*
X1364571Y5327449D1*
X1364272Y5329098D1*
X1364096Y5330869D1*
X1364046Y5332785D1*
X1364079Y5333908D1*
X1364160Y5335001D1*
X1364293Y5336063D1*
X1364474Y5337093D1*
X1364703Y5338092D1*
X1364983Y5339060D1*
X1365311Y5339997D1*
X1365689Y5340904D1*
X1366115Y5341778D1*
X1366591Y5342622D1*
X1367109Y5343434D1*
X1367657Y5344217D1*
X1368238Y5344967D1*
X1368846Y5345688D1*
X1369486Y5346378D1*
X1370155Y5347037D1*
X1370854Y5347664D1*
X1371584Y5348262D1*
X1372343Y5348828D1*
X1373131Y5349365D1*
X1374785Y5350346D1*
X1376510Y5351226D1*
X1378310Y5352003D1*
X1380184Y5352678D1*
X1382134Y5353255D1*
X1385160Y5353930D1*
X1388180Y5354403D1*
X1391186Y5354673D1*
X1393182Y5354740D1*
X1395379Y5354711D1*
X1397591Y5354571D1*
X1399739Y5354318D1*
X1401827Y5353953D1*
X1403853Y5353474D1*
X1405811Y5352882D1*
X1407681Y5352167D1*
X1409462Y5351327D1*
X1411152Y5350364D1*
X1412752Y5349277D1*
X1414261Y5348067D1*
X1414976Y5347417D1*
X1415661Y5346739D1*
X1416316Y5346034D1*
X1416942Y5345301D1*
X1417538Y5344539D1*
X1418105Y5343749D1*
X1418642Y5342932D1*
X1419150Y5342085D1*
X1419627Y5341210D1*
X1420075Y5340308D1*
X1420486Y5339377D1*
X1420860Y5338413D1*
X1421198Y5337420D1*
X1421500Y5336395D1*
X1421765Y5335339D1*
X1422188Y5333134D1*
X1422463Y5330803D1*
X1422547Y5329592D1*
X1422382Y5329387D1*
X1413014D1*
X1412913Y5329739D1*
X1412778Y5331379D1*
X1412529Y5332934D1*
X1412165Y5334406D1*
X1411688Y5335794D1*
X1411406Y5336457D1*
X1411096Y5337097D1*
G37*
G36*
X1317244Y4048021D2*
X1345301Y4006491D1*
X1374325Y4048021D1*
X1384885D1*
X1350990Y3999689D1*
X1386824Y3948853D1*
X1375438D1*
X1345301Y3992601D1*
X1314741Y3948853D1*
X1304189D1*
X1339745Y3999966D1*
X1306129Y4048021D1*
X1317244D1*
G37*
G36*
X2352991D2*
X2364098D1*
X2396732Y3997741D1*
X2429230Y4048021D1*
X2440488D1*
X2401316Y3989685D1*
Y3948853D1*
X2391877D1*
Y3989685D1*
X2352991Y4048021D1*
G37*
G36*
X2248255Y526740D2*
X2248579D1*
X2251316Y526301D1*
D1*
X2252552Y528566D1*
X2253848Y530428D1*
X2255143Y531907D1*
X2256589Y533240D1*
X2258190Y534428D1*
X2259944Y535472D1*
X2261290Y536097D1*
X2263018Y536694D1*
X2264870Y537129D1*
X2267186Y537429D1*
X2269673Y537508D1*
X2272159Y537361D1*
X2274150Y537052D1*
X2276013Y536576D1*
X2277749Y535933D1*
X2279100Y535268D1*
X2280853Y534180D1*
X2282454Y532949D1*
X2283906Y531573D1*
X2285205Y530052D1*
X2286354Y528390D1*
X2287634Y526101D1*
X2288689Y523647D1*
X2289601Y520724D1*
X2290352Y517064D1*
X2290741Y513364D1*
X2290770Y509493D1*
X2290427Y505564D1*
X2289780Y502121D1*
X2288911Y499142D1*
X2287895Y496661D1*
X2286655Y494377D1*
X2285367Y492508D1*
X2284094Y491017D1*
X2282672Y489672D1*
X2281106Y488472D1*
X2279142Y487278D1*
X2277538Y486530D1*
X2275823Y485937D1*
X2273997Y485497D1*
X2271727Y485180D1*
X2269304Y485073D1*
X2267799Y485109D1*
X2265316Y485341D1*
X2263343Y485714D1*
X2261512Y486248D1*
X2259823Y486942D1*
X2258274Y487782D1*
X2256625Y488902D1*
X2255143Y490167D1*
X2253828Y491579D1*
X2252681Y493138D1*
X2251562Y495066D1*
X2250517Y497411D1*
X2249702Y499941D1*
X2249007Y503255D1*
X2248466Y507953D1*
X2248391Y512808D1*
X2248772Y517255D1*
X2249529Y521243D1*
X2250308Y523860D1*
X2251316Y526301D1*
X2248579Y526740D1*
X2249407Y528816D1*
X2250854Y531488D1*
X2252028Y533155D1*
X2253423Y534739D1*
X2255038Y536231D1*
X2256648Y537433D1*
X2258710Y538651D1*
X2261013Y539705D1*
X2262570Y540255D1*
X2264563Y540748D1*
X2266690Y541058D1*
X2269340Y541185D1*
X2272010Y541080D1*
X2274043Y540840D1*
X2275980Y540463D1*
X2277822Y539948D1*
X2279566Y539295D1*
X2281213Y538504D1*
X2283138Y537365D1*
X2284913Y536083D1*
X2286541Y534654D1*
X2288024Y533079D1*
X2289357Y531361D1*
X2290546Y529521D1*
X2291596Y527563D1*
X2292505Y525490D1*
X2293411Y522848D1*
X2294209Y519602D1*
X2294740Y516264D1*
X2295004Y512829D1*
X2294996Y509167D1*
X2294715Y505510D1*
X2294167Y502043D1*
X2293487Y499223D1*
X2292761Y497004D1*
X2291895Y494915D1*
X2290888Y492957D1*
X2289738Y491129D1*
X2288445Y489434D1*
X2287306Y488184D1*
X2286072Y487029D1*
X2284743Y485971D1*
X2283318Y485012D1*
X2281403Y483951D1*
X2279766Y483217D1*
X2278035Y482605D1*
X2276207Y482118D1*
X2273786Y481685D1*
X2271211Y481448D1*
X2268425Y481411D1*
X2266104Y481564D1*
X2263871Y481894D1*
X2261730Y482399D1*
X2260181Y482894D1*
X2258684Y483487D1*
X2257236Y484178D1*
X2255844Y484972D1*
X2254963Y485568D1*
X2254126Y486219D1*
X2253332Y486924D1*
X2252579Y487684D1*
X2251869Y488499D1*
X2250885Y489823D1*
X2249995Y491270D1*
X2249201Y492843D1*
X2248470Y494622D1*
X2248255D1*
X2248253Y462287D1*
X2244151D1*
X2244144Y539783D1*
X2244152Y539843D1*
X2248253D1*
X2248255Y526740D1*
G37*
G36*
X2309140Y527188D2*
X2309466D1*
X2309995Y529033D1*
X2310930Y530769D1*
X2312301Y532409D1*
X2313671Y534038D1*
X2315339Y535434D1*
X2317306Y536629D1*
X2319272Y537808D1*
X2321455Y538717D1*
X2323857Y539354D1*
X2326270Y539979D1*
X2328766Y540249D1*
X2331357Y540182D1*
Y535963D1*
X2329133Y536248D1*
X2326596Y536031D1*
X2323748Y535299D1*
X2320899Y534552D1*
X2318173Y532925D1*
X2315583Y530403D1*
X2314538Y529290D1*
X2313643Y528219D1*
X2312857Y527188D1*
X2312084Y526144D1*
X2311432Y524991D1*
X2310917Y523743D1*
X2310402Y522482D1*
X2309995Y521071D1*
X2309697Y519512D1*
X2309398Y517965D1*
X2309207Y516106D1*
X2309140Y513963D1*
Y482741D1*
X2304923D1*
Y539843D1*
X2309140D1*
Y527188D1*
G37*
G36*
X2331804Y511291D2*
X2331980Y515127D1*
X2332440Y518455D1*
X2333186Y521664D1*
X2334213Y524734D1*
X2335352Y527287D1*
X2336705Y529672D1*
X2338269Y531891D1*
X2339803Y533681D1*
X2341493Y535302D1*
X2343343Y536752D1*
X2345352Y538029D1*
X2347198Y538986D1*
X2349150Y539776D1*
X2351209Y540391D1*
X2353374Y540832D1*
X2356034Y541125D1*
X2355696Y537402D1*
D1*
X2358022Y537510D1*
X2360349Y537402D1*
X2362555Y537077D1*
X2364349Y536626D1*
X2366055Y536017D1*
X2367673Y535248D1*
X2369672Y534020D1*
X2371278Y532785D1*
X2372748Y531402D1*
X2374084Y529869D1*
X2375454Y527945D1*
X2376787Y525617D1*
X2377898Y523115D1*
X2378785Y520444D1*
X2379493Y517364D1*
X2379904Y514202D1*
X2380017Y510640D1*
X2379774Y507108D1*
X2379245Y503979D1*
X2378419Y500933D1*
X2377432Y498336D1*
X2376222Y495915D1*
X2374790Y493669D1*
X2373144Y491612D1*
X2371711Y490182D1*
X2370144Y488907D1*
X2368444Y487783D1*
X2366605Y486815D1*
X2364928Y486147D1*
X2363163Y485640D1*
X2360992Y485253D1*
X2358699Y485083D1*
X2356348Y485129D1*
X2354109Y485392D1*
X2352287Y485793D1*
X2350555Y486352D1*
X2348913Y487073D1*
X2346867Y488247D1*
X2345220Y489434D1*
X2343707Y490776D1*
X2342329Y492270D1*
X2340919Y494154D1*
X2339541Y496438D1*
X2338386Y498898D1*
X2337451Y501534D1*
X2336680Y504598D1*
X2336203Y507743D1*
X2336022Y511291D1*
X2336096Y513562D1*
X2336454Y516738D1*
X2337108Y519835D1*
X2338050Y522827D1*
X2339131Y525346D1*
X2340433Y527694D1*
X2341961Y529869D1*
X2343299Y531402D1*
X2344774Y532785D1*
X2346383Y534020D1*
X2348386Y535248D1*
X2349997Y536017D1*
X2351699Y536626D1*
X2353492Y537077D1*
X2355696Y537402D1*
X2356034Y541125D1*
X2358829Y541176D1*
X2361555Y540987D1*
X2363774Y540634D1*
X2365886Y540105D1*
X2367894Y539402D1*
X2369795Y538524D1*
X2371866Y537320D1*
X2373782Y535945D1*
X2375543Y534398D1*
X2377148Y532678D1*
X2378790Y530524D1*
X2380219Y528201D1*
X2381438Y525711D1*
X2382448Y523051D1*
X2383318Y519896D1*
X2383906Y516621D1*
X2384226Y512843D1*
X2384190Y508972D1*
X2383854Y505583D1*
X2383235Y502301D1*
X2382333Y499130D1*
X2381298Y496472D1*
X2380052Y493999D1*
X2378597Y491710D1*
X2376929Y489601D1*
X2375301Y487925D1*
X2373518Y486419D1*
X2371580Y485083D1*
X2369487Y483915D1*
X2367567Y483060D1*
X2365542Y482382D1*
X2363412Y481881D1*
X2360791Y481518D1*
X2358022Y481398D1*
X2355260Y481518D1*
X2352640Y481881D1*
X2350510Y482382D1*
X2348488Y483060D1*
X2346261Y484071D1*
X2344184Y485262D1*
X2342266Y486623D1*
X2340508Y488154D1*
X2338908Y489854D1*
X2337268Y491986D1*
X2335835Y494298D1*
X2334614Y496794D1*
X2333610Y499475D1*
X2332736Y502660D1*
X2332148Y505954D1*
X2331832Y509740D1*
X2331804Y511291D1*
G37*
G36*
X2441247Y539843D2*
X2441231Y484596D1*
X2441071Y481959D1*
X2440735Y479367D1*
X2440223Y476822D1*
X2439715Y474963D1*
X2439298Y473774D1*
X2438816Y472627D1*
X2438272Y471521D1*
X2437664Y470455D1*
X2436992Y469429D1*
X2436256Y468445D1*
X2435451Y467513D1*
X2434567Y466635D1*
X2433600Y465812D1*
X2432551Y465043D1*
X2431421Y464328D1*
X2430211Y463668D1*
X2428919Y463062D1*
X2427542Y462520D1*
X2426066Y462059D1*
X2424490Y461678D1*
X2422814Y461377D1*
X2421038Y461157D1*
X2418188Y460979D1*
X2415131Y460988D1*
X2412087Y461223D1*
X2409748Y461580D1*
X2407497Y462085D1*
X2405906Y462571D1*
X2404403Y463156D1*
X2402987Y463841D1*
X2401659Y464623D1*
X2400820Y465199D1*
X2400025Y465827D1*
X2399276Y466508D1*
X2398575Y467240D1*
X2397919Y468024D1*
X2397310Y468860D1*
X2396480Y470210D1*
X2395991Y471182D1*
X2395564Y472218D1*
X2395202Y473318D1*
X2394902Y474479D1*
X2394570Y476339D1*
X2394379Y478343D1*
X2394370Y478740D1*
X2398533D1*
X2398584Y478664D1*
X2398786Y477130D1*
X2399093Y475696D1*
X2399507Y474360D1*
X2400026Y473122D1*
X2400432Y472350D1*
X2401126Y471269D1*
X2401903Y470269D1*
X2402761Y469352D1*
X2403699Y468517D1*
X2404719Y467768D1*
X2405807Y467105D1*
X2406949Y466522D1*
X2408146Y466022D1*
X2409395Y465606D1*
X2411588Y465091D1*
X2413895Y464762D1*
X2416310Y464625D1*
X2418415Y464655D1*
X2420688Y464840D1*
X2422108Y465050D1*
X2423453Y465331D1*
X2424720Y465682D1*
X2425913Y466102D1*
X2427559Y466850D1*
X2429062Y467694D1*
X2429987Y468308D1*
X2430849Y468963D1*
X2431648Y469661D1*
X2432385Y470399D1*
X2433058Y471180D1*
X2433955Y472419D1*
X2434732Y473723D1*
X2435388Y475096D1*
X2435921Y476537D1*
X2436453Y478547D1*
X2436831Y480576D1*
X2437059Y482614D1*
X2437136Y497850D1*
X2436815D1*
X2435799Y495902D1*
X2434823Y494322D1*
X2433761Y492858D1*
X2432614Y491513D1*
X2431382Y490285D1*
X2430064Y489173D1*
X2428660Y488180D1*
X2427929Y487730D1*
X2427176Y487311D1*
X2426402Y486925D1*
X2425606Y486573D1*
X2424790Y486253D1*
X2423951Y485966D1*
X2422211Y485490D1*
X2420387Y485143D1*
X2418479Y484929D1*
X2416487Y484845D1*
X2414702Y484875D1*
X2413024Y484991D1*
X2411412Y485193D1*
X2409869Y485480D1*
X2408391Y485850D1*
X2406980Y486306D1*
X2405636Y486844D1*
X2404360Y487465D1*
X2403146Y488152D1*
X2401993Y488904D1*
X2400902Y489722D1*
X2399871Y490604D1*
X2398903Y491552D1*
X2397997Y492567D1*
X2396747Y494198D1*
X2395988Y495349D1*
X2395289Y496551D1*
X2394354Y498448D1*
X2393556Y500457D1*
X2392898Y502576D1*
X2392375Y504783D1*
X2391983Y507070D1*
X2391723Y509433D1*
X2391593Y511878D1*
X2391598Y514311D1*
X2391744Y516643D1*
X2392034Y518925D1*
X2392465Y521157D1*
X2393035Y523340D1*
X2393745Y525453D1*
X2394588Y527457D1*
X2395563Y529348D1*
X2396287Y530546D1*
X2397071Y531693D1*
X2398356Y533320D1*
X2399286Y534335D1*
X2400276Y535287D1*
X2401323Y536178D1*
X2402429Y537008D1*
X2403593Y537777D1*
X2404814Y538484D1*
X2406096Y539129D1*
X2407434Y539690D1*
X2408828Y540163D1*
X2410277Y540546D1*
X2411780Y540839D1*
X2413336Y541043D1*
X2414946Y541157D1*
X2416656Y541182D1*
X2418524Y541085D1*
X2420349Y540853D1*
X2422134Y540487D1*
X2423877Y539984D1*
X2425577Y539348D1*
X2427238Y538576D1*
X2428857Y537671D1*
X2429639Y537169D1*
X2430388Y536639D1*
X2431105Y536080D1*
X2431790Y535495D1*
X2432442Y534881D1*
X2433062Y534239D1*
X2433648Y533568D1*
X2434203Y532870D1*
X2434726Y532143D1*
X2435217Y531388D1*
X2435675Y530605D1*
X2436101Y529794D1*
X2436496Y528955D1*
X2433601Y527488D1*
D1*
X2434710Y525222D1*
X2435594Y522785D1*
X2436388Y519634D1*
X2436869Y516394D1*
X2437029Y513068D1*
X2436839Y509391D1*
X2436329Y506146D1*
X2435508Y503025D1*
X2434598Y500625D1*
X2433463Y498382D1*
X2432109Y496298D1*
X2430717Y494589D1*
X2429362Y493251D1*
X2427882Y492058D1*
X2426269Y491012D1*
X2424529Y490119D1*
X2422933Y489507D1*
X2421240Y489042D1*
X2419142Y488685D1*
X2416911Y488528D1*
X2414371Y488589D1*
X2412289Y488852D1*
X2410324Y489310D1*
X2408474Y489965D1*
X2406982Y490681D1*
X2405139Y491808D1*
X2403453Y493115D1*
X2401925Y494604D1*
X2400556Y496276D1*
X2399362Y498110D1*
X2398343Y500096D1*
X2397408Y502512D1*
X2396623Y505392D1*
X2396056Y508689D1*
X2395802Y512430D1*
X2395904Y515680D1*
X2396327Y518836D1*
X2397146Y522230D1*
X2398101Y524923D1*
X2399312Y527427D1*
X2400618Y529514D1*
X2401954Y531220D1*
X2403466Y532756D1*
X2405150Y534118D1*
X2407007Y535306D1*
X2408514Y536052D1*
X2410127Y536647D1*
X2411844Y537087D1*
X2413978Y537404D1*
X2416251Y537510D1*
X2418518Y537409D1*
X2420654Y537110D1*
X2422657Y536609D1*
X2424269Y536021D1*
X2425785Y535289D1*
X2427659Y534134D1*
X2429362Y532797D1*
X2430900Y531278D1*
X2432270Y529581D1*
X2433601Y527488D1*
X2436496Y528955D1*
X2436909Y527961D1*
X2437136D1*
X2437143Y539843D1*
X2441247D1*
G37*
G36*
X2458025Y527188D2*
X2458350D1*
X2458879Y529033D1*
X2459816Y530769D1*
X2461185Y532409D1*
X2462555Y534038D1*
X2464223Y535434D1*
X2466190Y536629D1*
X2468157Y537808D1*
X2470341Y538717D1*
X2472741Y539354D1*
X2475156Y539979D1*
X2477651Y540249D1*
X2480241Y540182D1*
Y535963D1*
X2478017Y536248D1*
X2475482Y536031D1*
X2472633Y535299D1*
X2469785Y534552D1*
X2467059Y532925D1*
X2464469Y530403D1*
X2463424Y529290D1*
X2462529Y528219D1*
X2461741Y527188D1*
X2460969Y526144D1*
X2460318Y524991D1*
X2459802Y523743D1*
X2459286Y522482D1*
X2458879Y521071D1*
X2458581Y519512D1*
X2458283Y517965D1*
X2458093Y516106D1*
X2458025Y513963D1*
Y482741D1*
X2453807D1*
Y539843D1*
X2458025D1*
Y527188D1*
G37*
G36*
X2520362Y494067D2*
X2520147D1*
X2518049Y495588D1*
D1*
X2516550Y493148D1*
X2515382Y491696D1*
X2513827Y490155D1*
X2511803Y488559D1*
X2509707Y487240D1*
X2508391Y486626D1*
X2506656Y486024D1*
X2504755Y485570D1*
X2502320Y485224D1*
X2499257Y485075D1*
X2496605Y485173D1*
X2494520Y485444D1*
X2492605Y485886D1*
X2491136Y486387D1*
X2489786Y487008D1*
X2488552Y487748D1*
X2487652Y488427D1*
X2486848Y489186D1*
X2486144Y490029D1*
X2485542Y490954D1*
X2485041Y491962D1*
X2484640Y493052D1*
X2484339Y494223D1*
X2484139Y495478D1*
X2484029Y497160D1*
X2484085Y499025D1*
X2484337Y500801D1*
X2484728Y502218D1*
X2485199Y503335D1*
X2485879Y504470D1*
X2486871Y505727D1*
X2488013Y506823D1*
X2489306Y507755D1*
X2491026Y508671D1*
X2493374Y509554D1*
X2496272Y510210D1*
X2509542Y511718D1*
X2516448Y512820D1*
X2517831Y513316D1*
X2518891Y513888D1*
X2519688Y514490D1*
X2520362Y515185D1*
X2520349Y504139D1*
X2519570Y499423D1*
X2518984Y497614D1*
X2518049Y495588D1*
X2520147Y494067D1*
X2519509Y492661D1*
X2518857Y491490D1*
X2518106Y490348D1*
X2517256Y489238D1*
X2516299Y488172D1*
X2515247Y487164D1*
X2514098Y486215D1*
X2512860Y485325D1*
X2511525Y484504D1*
X2510105Y483769D1*
X2508602Y483122D1*
X2507020Y482567D1*
X2505356Y482108D1*
X2503613Y481761D1*
X2501793Y481529D1*
X2499896Y481413D1*
X2498197Y481404D1*
X2496790Y481455D1*
X2495437Y481556D1*
X2494138Y481707D1*
X2492890Y481909D1*
X2491694Y482163D1*
X2490552Y482466D1*
X2489463Y482819D1*
X2488428Y483223D1*
X2487445Y483678D1*
X2486514Y484184D1*
X2485636Y484739D1*
X2484812Y485345D1*
X2484045Y486004D1*
X2483340Y486718D1*
X2482699Y487486D1*
X2482122Y488308D1*
X2481610Y489186D1*
X2481161Y490118D1*
X2480777Y491105D1*
X2480457Y492147D1*
X2480201Y493244D1*
X2480008Y494395D1*
X2479881Y495600D1*
X2479816Y496861D1*
X2479837Y498686D1*
X2479965Y500171D1*
X2480194Y501560D1*
X2480526Y502856D1*
X2480730Y503467D1*
X2480959Y504055D1*
X2481215Y504619D1*
X2481496Y505160D1*
X2482131Y506176D1*
X2482827Y507123D1*
X2483577Y508001D1*
X2484379Y508810D1*
X2485235Y509551D1*
X2486144Y510223D1*
X2487106Y510827D1*
X2488623Y511625D1*
X2490220Y512302D1*
X2491894Y512860D1*
X2493643Y513299D1*
X2498291Y514105D1*
X2510697Y515289D1*
X2513409Y515741D1*
X2514736Y516071D1*
X2515890Y516463D1*
X2516898Y516919D1*
X2517488Y517257D1*
X2518016Y517623D1*
X2518478Y518020D1*
X2518875Y518442D1*
X2519223Y518906D1*
X2519522Y519406D1*
X2519770Y519944D1*
X2519969Y520518D1*
X2520117Y521130D1*
X2520369Y523249D1*
X2520471Y526293D1*
X2520420Y527395D1*
X2520266Y528458D1*
X2520012Y529483D1*
X2519657Y530471D1*
X2519361Y531105D1*
X2519012Y531715D1*
X2518392Y532588D1*
X2517659Y533411D1*
X2516808Y534186D1*
X2516176Y534665D1*
X2515118Y535320D1*
X2513933Y535899D1*
X2512619Y536404D1*
X2511176Y536829D1*
X2509585Y537152D1*
X2507840Y537371D1*
X2505273Y537504D1*
X2503379Y537486D1*
X2502209Y537413D1*
X2501076Y537293D1*
X2499980Y537123D1*
X2498921Y536906D1*
X2497902Y536639D1*
X2496919Y536325D1*
X2495974Y535963D1*
X2495067Y535554D1*
X2494198Y535094D1*
X2493367Y534589D1*
X2492573Y534034D1*
X2491820Y533430D1*
X2491121Y532776D1*
X2490474Y532071D1*
X2489883Y531316D1*
X2489346Y530513D1*
X2488865Y529660D1*
X2488438Y528757D1*
X2488066Y527803D1*
X2487748Y526801D1*
X2487484Y525748D1*
X2487277Y524646D1*
X2487122Y523493D1*
X2487024Y522291D1*
X2482825D1*
X2482849Y523039D1*
X2482987Y524490D1*
X2483192Y525879D1*
X2483462Y527209D1*
X2483798Y528478D1*
X2484199Y529686D1*
X2484668Y530835D1*
X2485203Y531924D1*
X2485803Y532951D1*
X2486471Y533920D1*
X2487203Y534829D1*
X2488003Y535677D1*
X2488869Y536466D1*
X2489794Y537190D1*
X2490781Y537856D1*
X2491828Y538459D1*
X2492936Y539003D1*
X2494105Y539487D1*
X2495335Y539909D1*
X2496625Y540272D1*
X2497976Y540573D1*
X2499388Y540815D1*
X2500860Y540997D1*
X2502392Y541118D1*
X2503986Y541178D1*
X2505623D1*
X2507205Y541127D1*
X2508715Y541022D1*
X2510152Y540867D1*
X2511518Y540659D1*
X2512814Y540399D1*
X2514035Y540087D1*
X2515186Y539723D1*
X2516265Y539308D1*
X2517272Y538841D1*
X2518206Y538323D1*
X2519070Y537752D1*
X2519861Y537130D1*
X2520585Y536463D1*
X2521251Y535765D1*
X2521854Y535035D1*
X2522398Y534274D1*
X2522882Y533482D1*
X2523304Y532657D1*
X2523667Y531801D1*
X2523969Y530911D1*
X2524211Y529990D1*
X2524392Y529037D1*
X2524513Y528050D1*
X2524573Y527031D1*
X2524640Y490755D1*
X2524773Y489639D1*
X2525029Y488627D1*
X2525213Y488171D1*
X2525450Y487756D1*
X2525740Y487387D1*
X2526079Y487063D1*
X2526336Y486875D1*
X2526627Y486719D1*
X2526954Y486594D1*
X2527508Y486466D1*
X2528138Y486407D1*
X2529633Y486479D1*
X2531471Y486726D1*
Y483189D1*
X2530122Y482902D1*
X2528736Y482759D1*
X2527050Y482768D1*
X2525986Y482869D1*
X2525042Y483046D1*
X2524479Y483209D1*
X2523734Y483516D1*
X2523081Y483878D1*
X2522514Y484290D1*
X2522030Y484755D1*
X2521755Y485093D1*
X2521402Y485644D1*
X2521106Y486238D1*
X2520799Y487094D1*
X2520634Y487786D1*
X2520399Y489827D1*
X2520362Y494067D1*
G37*
G36*
X2538144Y539843D2*
X2542327D1*
X2542362Y539807D1*
X2542365Y528178D1*
X2542576D1*
X2543009Y529589D1*
X2543558Y530911D1*
X2544239Y532194D1*
X2545054Y533437D1*
X2545979Y534614D1*
X2547000Y535711D1*
X2548115Y536728D1*
X2549325Y537661D1*
X2550621Y538501D1*
X2551987Y539234D1*
X2553428Y539861D1*
X2554936Y540382D1*
X2556487Y540778D1*
X2558076Y541041D1*
X2559702Y541171D1*
X2561583Y541165D1*
X2563552Y541020D1*
X2564783Y540844D1*
X2565950Y540606D1*
X2567051Y540306D1*
X2568583Y539749D1*
X2569992Y539101D1*
X2571282Y538365D1*
X2572076Y537824D1*
X2573169Y536941D1*
X2574147Y535995D1*
X2575007Y534992D1*
X2575747Y533928D1*
X2576371Y532815D1*
X2576890Y531690D1*
X2577307Y530559D1*
X2577621Y529419D1*
X2577696Y529073D1*
X2577911D1*
X2578585Y530539D1*
X2579076Y531484D1*
X2579592Y532387D1*
X2580133Y533245D1*
X2580699Y534060D1*
X2581291Y534832D1*
X2581908Y535559D1*
X2582550Y536243D1*
X2583218Y536883D1*
X2583911Y537480D1*
X2584629Y538034D1*
X2585378Y538547D1*
X2586167Y539014D1*
X2586997Y539436D1*
X2587867Y539811D1*
X2588780Y540142D1*
X2589731Y540427D1*
X2590723Y540667D1*
X2591756Y540861D1*
X2592828Y541009D1*
X2593941Y541113D1*
X2595093Y541172D1*
X2596835Y541173D1*
X2598766Y541031D1*
X2600009Y540852D1*
X2601215Y540602D1*
X2602386Y540285D1*
X2603520Y539898D1*
X2604605Y539437D1*
X2605636Y538906D1*
X2606618Y538303D1*
X2607547Y537630D1*
X2608424Y536885D1*
X2609247Y536063D1*
X2610007Y535164D1*
X2610705Y534192D1*
X2611341Y533143D1*
X2611913Y532021D1*
X2612423Y530823D1*
X2612869Y529550D1*
X2613238Y528198D1*
X2613528Y526766D1*
X2613739Y525256D1*
X2613870Y523665D1*
X2613923Y482741D1*
X2609719D1*
X2609690Y482906D1*
X2609682Y522596D1*
X2609593Y524345D1*
X2609406Y525955D1*
X2609118Y527427D1*
X2608937Y528110D1*
X2608732Y528760D1*
X2608503Y529375D1*
X2608248Y529955D1*
X2607680Y531022D1*
X2607071Y531996D1*
X2606424Y532879D1*
X2605740Y533675D1*
X2605020Y534382D1*
X2604261Y534999D1*
X2603087Y535773D1*
X2602303Y536199D1*
X2601518Y536555D1*
X2600735Y536839D1*
X2599951Y537049D1*
X2597192Y537449D1*
X2596182Y537509D1*
X2594510Y537458D1*
X2593231Y537331D1*
X2591987Y537123D1*
X2590781Y536836D1*
X2589613Y536469D1*
X2588480Y536022D1*
X2587398Y535500D1*
X2586369Y534895D1*
X2585392Y534211D1*
X2584469Y533449D1*
X2583598Y532608D1*
X2582778Y531689D1*
X2582018Y530696D1*
X2581323Y529627D1*
X2580689Y528483D1*
X2580118Y527262D1*
X2579609Y525966D1*
X2579168Y524593D1*
X2578807Y523152D1*
X2578524Y521640D1*
X2578318Y520062D1*
X2578157Y517563D1*
X2578140Y482741D1*
X2573944D1*
X2573924Y482982D1*
X2573915Y522663D1*
X2573823Y524374D1*
X2573635Y525959D1*
X2573353Y527416D1*
X2572975Y528745D1*
X2572751Y529362D1*
X2572504Y529946D1*
X2571950Y531028D1*
X2571358Y532009D1*
X2570734Y532895D1*
X2570075Y533684D1*
X2569382Y534378D1*
X2568656Y534974D1*
X2567534Y535724D1*
X2566777Y536140D1*
X2566013Y536491D1*
X2565244Y536774D1*
X2564470Y536993D1*
X2561982Y537407D1*
X2560612Y537509D1*
X2559227Y537458D1*
X2558175Y537336D1*
X2557108Y537140D1*
X2555484Y536713D1*
X2553833Y536122D1*
X2552749Y535633D1*
X2551701Y535063D1*
X2550685Y534416D1*
X2549703Y533690D1*
X2548755Y532888D1*
X2547845Y532003D1*
X2546992Y531030D1*
X2546198Y529972D1*
X2545465Y528831D1*
X2544790Y527602D1*
X2544172Y526287D1*
X2543625Y524892D1*
X2543175Y523412D1*
X2542824Y521845D1*
X2542571Y520190D1*
X2542417Y518450D1*
X2542356Y482741D1*
X2538156D1*
X2538144Y539843D1*
G37*
G36*
X2626591D2*
X2630773D1*
X2630808Y539807D1*
X2630811Y528178D1*
X2631022D1*
X2631457Y529589D1*
X2632004Y530911D1*
X2632685Y532194D1*
X2633500Y533437D1*
X2634425Y534614D1*
X2635446Y535711D1*
X2636562Y536728D1*
X2637773Y537661D1*
X2639067Y538501D1*
X2640434Y539234D1*
X2641874Y539861D1*
X2643383Y540382D1*
X2644933Y540778D1*
X2646522Y541041D1*
X2648148Y541171D1*
X2650029Y541165D1*
X2651999Y541020D1*
X2653230Y540844D1*
X2654396Y540606D1*
X2655499Y540306D1*
X2657029Y539749D1*
X2658438Y539101D1*
X2659730Y538365D1*
X2660522Y537824D1*
X2661615Y536941D1*
X2662594Y535995D1*
X2663454Y534992D1*
X2664194Y533928D1*
X2664818Y532815D1*
X2665337Y531690D1*
X2665753Y530559D1*
X2666067Y529419D1*
X2666142Y529073D1*
X2666357D1*
X2667031Y530539D1*
X2667522Y531484D1*
X2668038Y532387D1*
X2668579Y533245D1*
X2669146Y534060D1*
X2669738Y534832D1*
X2670354Y535559D1*
X2670997Y536243D1*
X2671664Y536883D1*
X2672357Y537480D1*
X2673075Y538034D1*
X2673824Y538547D1*
X2674614Y539014D1*
X2675444Y539436D1*
X2676315Y539811D1*
X2677226Y540142D1*
X2678178Y540427D1*
X2679171Y540667D1*
X2680202Y540861D1*
X2681276Y541009D1*
X2682387Y541113D1*
X2683539Y541172D1*
X2685281Y541173D1*
X2687213Y541031D1*
X2688455Y540852D1*
X2689661Y540602D1*
X2690832Y540285D1*
X2691966Y539898D1*
X2693051Y539437D1*
X2694084Y538906D1*
X2695064Y538303D1*
X2695993Y537630D1*
X2696871Y536885D1*
X2697694Y536063D1*
X2698453Y535164D1*
X2699151Y534192D1*
X2699787Y533143D1*
X2700361Y532021D1*
X2700870Y530823D1*
X2701315Y529550D1*
X2701685Y528198D1*
X2701975Y526766D1*
X2702185Y525256D1*
X2702316Y523665D1*
X2702369Y482741D1*
X2698165D1*
X2698138Y482906D1*
X2698130Y522596D1*
X2698039Y524345D1*
X2697852Y525955D1*
X2697564Y527427D1*
X2697385Y528110D1*
X2697178Y528760D1*
X2696949Y529375D1*
X2696694Y529955D1*
X2696126Y531022D1*
X2695517Y531996D1*
X2694871Y532879D1*
X2694186Y533675D1*
X2693466Y534382D1*
X2692709Y534999D1*
X2691533Y535773D1*
X2690749Y536199D1*
X2689966Y536555D1*
X2689181Y536839D1*
X2688398Y537049D1*
X2685638Y537449D1*
X2684630Y537509D1*
X2682958Y537458D1*
X2681677Y537331D1*
X2680434Y537123D1*
X2679228Y536836D1*
X2678059Y536469D1*
X2676928Y536022D1*
X2675845Y535500D1*
X2674815Y534895D1*
X2673839Y534211D1*
X2672915Y533449D1*
X2672045Y532608D1*
X2671224Y531689D1*
X2670466Y530696D1*
X2669769Y529627D1*
X2669136Y528483D1*
X2668566Y527262D1*
X2668055Y525966D1*
X2667615Y524593D1*
X2667253Y523152D1*
X2666970Y521640D1*
X2666765Y520062D1*
X2666604Y517563D1*
X2666587Y482741D1*
X2662391D1*
X2662371Y482982D1*
X2662361Y522663D1*
X2662269Y524374D1*
X2662083Y525959D1*
X2661799Y527416D1*
X2661423Y528745D1*
X2661198Y529362D1*
X2660950Y529946D1*
X2660396Y531028D1*
X2659806Y532009D1*
X2659180Y532895D1*
X2658521Y533684D1*
X2657829Y534378D1*
X2657102Y534974D1*
X2655982Y535724D1*
X2655224Y536140D1*
X2654461Y536491D1*
X2653690Y536774D1*
X2652916Y536993D1*
X2650428Y537407D1*
X2649058Y537509D1*
X2647673Y537458D1*
X2646621Y537336D1*
X2645555Y537140D1*
X2643930Y536713D1*
X2642280Y536122D1*
X2641197Y535633D1*
X2640147Y535063D1*
X2639131Y534416D1*
X2638150Y533690D1*
X2637202Y532888D1*
X2636291Y532003D1*
X2635438Y531030D1*
X2634646Y529972D1*
X2633912Y528831D1*
X2633236Y527602D1*
X2632619Y526287D1*
X2632072Y524892D1*
X2631622Y523412D1*
X2631270Y521845D1*
X2631018Y520190D1*
X2630865Y518450D1*
X2630803Y482741D1*
X2626604D1*
X2626591Y539843D1*
G37*
G36*
X2752811Y494067D2*
X2752596D1*
X2750497Y495588D1*
D1*
X2748999Y493148D1*
X2747831Y491696D1*
X2746276Y490155D1*
X2744252Y488559D1*
X2742156Y487240D1*
X2740840Y486626D1*
X2739105Y486024D1*
X2737203Y485570D1*
X2734770Y485224D1*
X2731706Y485075D1*
X2729054Y485173D1*
X2726970Y485444D1*
X2725054Y485886D1*
X2723587Y486387D1*
X2722235Y487008D1*
X2721001Y487748D1*
X2720101Y488427D1*
X2719297Y489186D1*
X2718594Y490029D1*
X2717992Y490954D1*
X2717490Y491962D1*
X2717089Y493052D1*
X2716789Y494223D1*
X2716588Y495478D1*
X2716479Y497160D1*
X2716534Y499025D1*
X2716787Y500801D1*
X2717177Y502218D1*
X2717650Y503335D1*
X2718328Y504470D1*
X2719320Y505727D1*
X2720463Y506823D1*
X2721755Y507755D1*
X2723475Y508671D1*
X2725823Y509554D1*
X2728720Y510210D1*
X2741991Y511718D1*
X2748896Y512820D1*
X2750280Y513316D1*
X2751340Y513888D1*
X2752136Y514490D1*
X2752811Y515185D1*
X2752798Y504139D1*
X2752018Y499423D1*
X2751433Y497614D1*
X2750497Y495588D1*
X2752596Y494067D1*
X2751958Y492661D1*
X2751306Y491490D1*
X2750555Y490348D1*
X2749706Y489238D1*
X2748748Y488172D1*
X2747696Y487164D1*
X2746549Y486215D1*
X2745310Y485325D1*
X2743974Y484504D1*
X2742554Y483769D1*
X2741052Y483122D1*
X2739469Y482567D1*
X2737804Y482108D1*
X2736062Y481761D1*
X2734241Y481529D1*
X2732345Y481413D1*
X2730646Y481404D1*
X2729240Y481455D1*
X2727886Y481556D1*
X2726587Y481707D1*
X2725339Y481909D1*
X2724144Y482163D1*
X2723001Y482466D1*
X2721913Y482819D1*
X2720877Y483223D1*
X2719894Y483678D1*
X2718963Y484184D1*
X2718087Y484739D1*
X2717262Y485345D1*
X2716493Y486004D1*
X2715789Y486718D1*
X2715148Y487486D1*
X2714571Y488308D1*
X2714059Y489186D1*
X2713610Y490118D1*
X2713226Y491105D1*
X2712906Y492147D1*
X2712650Y493244D1*
X2712457Y494395D1*
X2712329Y495600D1*
X2712265Y496861D1*
X2712286Y498686D1*
X2712413Y500171D1*
X2712643Y501560D1*
X2712975Y502856D1*
X2713178Y503467D1*
X2713408Y504055D1*
X2713664Y504619D1*
X2713945Y505160D1*
X2714580Y506176D1*
X2715277Y507123D1*
X2716026Y508001D1*
X2716828Y508810D1*
X2717684Y509551D1*
X2718593Y510223D1*
X2719555Y510827D1*
X2721073Y511625D1*
X2722669Y512302D1*
X2724343Y512860D1*
X2726092Y513299D1*
X2730740Y514105D1*
X2743146Y515289D1*
X2745858Y515741D1*
X2747185Y516071D1*
X2748339Y516463D1*
X2749346Y516919D1*
X2749937Y517257D1*
X2750465Y517623D1*
X2750927Y518020D1*
X2751324Y518442D1*
X2751672Y518906D1*
X2751971Y519406D1*
X2752219Y519944D1*
X2752417Y520518D1*
X2752566Y521130D1*
X2752818Y523249D1*
X2752920Y526293D1*
X2752869Y527395D1*
X2752715Y528458D1*
X2752461Y529483D1*
X2752108Y530471D1*
X2751810Y531105D1*
X2751461Y531715D1*
X2750841Y532588D1*
X2750108Y533411D1*
X2749259Y534186D1*
X2748625Y534665D1*
X2747567Y535320D1*
X2746382Y535899D1*
X2745068Y536404D1*
X2743625Y536829D1*
X2742034Y537152D1*
X2740289Y537371D1*
X2737722Y537504D1*
X2735829Y537486D1*
X2734657Y537413D1*
X2733525Y537293D1*
X2732429Y537123D1*
X2731371Y536906D1*
X2730350Y536639D1*
X2729367Y536325D1*
X2728423Y535963D1*
X2727516Y535554D1*
X2726647Y535094D1*
X2725816Y534589D1*
X2725022Y534034D1*
X2724269Y533430D1*
X2723570Y532776D1*
X2722924Y532071D1*
X2722332Y531316D1*
X2721795Y530513D1*
X2721314Y529660D1*
X2720887Y528757D1*
X2720514Y527803D1*
X2720197Y526801D1*
X2719933Y525748D1*
X2719726Y524646D1*
X2719572Y523493D1*
X2719472Y522291D1*
X2715274D1*
X2715299Y523039D1*
X2715437Y524490D1*
X2715640Y525879D1*
X2715911Y527209D1*
X2716247Y528478D1*
X2716648Y529686D1*
X2717117Y530835D1*
X2717652Y531924D1*
X2718253Y532951D1*
X2718920Y533920D1*
X2719652Y534829D1*
X2720451Y535677D1*
X2721318Y536466D1*
X2722243Y537190D1*
X2723230Y537856D1*
X2724277Y538459D1*
X2725385Y539003D1*
X2726554Y539487D1*
X2727783Y539909D1*
X2729075Y540272D1*
X2730425Y540573D1*
X2731837Y540815D1*
X2733310Y540997D1*
X2734841Y541118D1*
X2736436Y541178D1*
X2738072D1*
X2739654Y541127D1*
X2741164Y541022D1*
X2742602Y540867D1*
X2743969Y540659D1*
X2745262Y540399D1*
X2746484Y540087D1*
X2747635Y539723D1*
X2748714Y539308D1*
X2749720Y538841D1*
X2750655Y538323D1*
X2751518Y537752D1*
X2752310Y537130D1*
X2753034Y536463D1*
X2753699Y535765D1*
X2754303Y535035D1*
X2754848Y534274D1*
X2755331Y533482D1*
X2755753Y532657D1*
X2756115Y531801D1*
X2756419Y530911D1*
X2756660Y529990D1*
X2756841Y529037D1*
X2756962Y528050D1*
X2757022Y527031D1*
X2757089Y490755D1*
X2757223Y489639D1*
X2757478Y488627D1*
X2757661Y488171D1*
X2757899Y487756D1*
X2758189Y487387D1*
X2758529Y487063D1*
X2758785Y486875D1*
X2759076Y486719D1*
X2759403Y486594D1*
X2759957Y486466D1*
X2760587Y486407D1*
X2762081Y486479D1*
X2763920Y486726D1*
Y483189D1*
X2762571Y482902D1*
X2761185Y482759D1*
X2759499Y482768D1*
X2758434Y482869D1*
X2757491Y483046D1*
X2756928Y483209D1*
X2756184Y483516D1*
X2755530Y483878D1*
X2754963Y484290D1*
X2754479Y484755D1*
X2754203Y485093D1*
X2753850Y485644D1*
X2753555Y486238D1*
X2753248Y487094D1*
X2753083Y487786D1*
X2752848Y489827D1*
X2752811Y494067D1*
G37*
G36*
X2771475Y562073D2*
X2775571D1*
X2775584Y562059D1*
X2775585Y527744D1*
X2775815D1*
X2778853Y527043D1*
D1*
X2779993Y528962D1*
X2781310Y530719D1*
X2782609Y532110D1*
X2784055Y533354D1*
X2785648Y534453D1*
X2787387Y535408D1*
X2789269Y536206D1*
X2791297Y536815D1*
X2793471Y537234D1*
X2796131Y537479D1*
X2798822Y537475D1*
X2800983Y537248D1*
X2803014Y536811D1*
X2804655Y536268D1*
X2806199Y535572D1*
X2807877Y534583D1*
X2809646Y533278D1*
X2811257Y531793D1*
X2812710Y530125D1*
X2814146Y528059D1*
X2815354Y525835D1*
X2816341Y523451D1*
X2817182Y520631D1*
X2817807Y517430D1*
X2818113Y514143D1*
X2818089Y510429D1*
X2817640Y506026D1*
X2816747Y501615D1*
X2815790Y498633D1*
X2814698Y496123D1*
X2813387Y493778D1*
X2812203Y492096D1*
X2810875Y490566D1*
X2809406Y489185D1*
X2807793Y487957D1*
X2806287Y487034D1*
X2804934Y486396D1*
X2803490Y485885D1*
X2801636Y485434D1*
X2799650Y485164D1*
X2797530Y485073D1*
X2796049Y485112D1*
X2793597Y485362D1*
X2791638Y485762D1*
X2789810Y486336D1*
X2788385Y486946D1*
X2787051Y487673D1*
X2785320Y488832D1*
X2783738Y490139D1*
X2782304Y491594D1*
X2781021Y493201D1*
X2779891Y494954D1*
X2778640Y497379D1*
X2777619Y499997D1*
X2776832Y502807D1*
X2776068Y507009D1*
X2775727Y511290D1*
X2775815Y515634D1*
X2776247Y519131D1*
X2776930Y522143D1*
X2777782Y524694D1*
X2778853Y527043D1*
X2775815Y527744D1*
X2776537Y529453D1*
X2777434Y531108D1*
X2778486Y532638D1*
X2779686Y534037D1*
X2781235Y535514D1*
X2782917Y536836D1*
X2784735Y537997D1*
X2786948Y539100D1*
X2789282Y539967D1*
X2791727Y540596D1*
X2794562Y541034D1*
X2797472Y541185D1*
X2799711Y541117D1*
X2801878Y540896D1*
X2803928Y540525D1*
X2805861Y540005D1*
X2807234Y539516D1*
X2808961Y538735D1*
X2810581Y537831D1*
X2812101Y536811D1*
X2813517Y535677D1*
X2814832Y534433D1*
X2816046Y533076D1*
X2817159Y531617D1*
X2818163Y530072D1*
X2819054Y528441D1*
X2820014Y526281D1*
X2820804Y523983D1*
X2821535Y521075D1*
X2822038Y518037D1*
X2822310Y514873D1*
X2822360Y511811D1*
X2822226Y508248D1*
X2821903Y504958D1*
X2821537Y502672D1*
X2821066Y500538D1*
X2820487Y498560D1*
X2819802Y496736D1*
X2818759Y494521D1*
X2817636Y492504D1*
X2816440Y490681D1*
X2815167Y489055D1*
X2814163Y487963D1*
X2813115Y486982D1*
X2811312Y485563D1*
X2809844Y484596D1*
X2808350Y483778D1*
X2806835Y483112D1*
X2805297Y482596D1*
X2801597Y481782D1*
X2799007Y481457D1*
X2797554Y481398D1*
X2795051Y481490D1*
X2792710Y481770D1*
X2790969Y482131D1*
X2789344Y482614D1*
X2787475Y483382D1*
X2785117Y484606D1*
X2783328Y485760D1*
X2781752Y487010D1*
X2779969Y488759D1*
X2778520Y490496D1*
X2777521Y492007D1*
X2776133Y494668D1*
X2775814Y495517D1*
X2775598D1*
Y482762D1*
X2775592Y482741D1*
X2771476D1*
X2771475Y562073D1*
G37*
G36*
X2837488D2*
Y482741D1*
X2833256D1*
Y562073D1*
X2837488D1*
G37*
G36*
X2852475Y510736D2*
X2852559Y507597D1*
X2852882Y504701D1*
X2853445Y501886D1*
X2854096Y499609D1*
X2854907Y497458D1*
X2855879Y495448D1*
X2857012Y493576D1*
X2858030Y492178D1*
X2859161Y490885D1*
X2860398Y489709D1*
X2861740Y488648D1*
X2863189Y487703D1*
X2864741Y486873D1*
X2865974Y486350D1*
X2867265Y485916D1*
X2868615Y485572D1*
X2870507Y485253D1*
X2872503Y485094D1*
X2874387Y485085D1*
X2876029Y485175D1*
X2877601Y485354D1*
X2879101Y485623D1*
X2880531Y485983D1*
X2881890Y486432D1*
X2883178Y486972D1*
X2884395Y487604D1*
X2885542Y488324D1*
X2886618Y489136D1*
X2887622Y490035D1*
X2888562Y491004D1*
X2889438Y492043D1*
X2890253Y493154D1*
X2891007Y494332D1*
X2891697Y495581D1*
X2892325Y496900D1*
X2892891Y498290D1*
X2893395Y499749D1*
X2894033Y502068D1*
X2898252D1*
X2897829Y500117D1*
X2897320Y498259D1*
X2896723Y496493D1*
X2896039Y494820D1*
X2895268Y493240D1*
X2894408Y491755D1*
X2893459Y490361D1*
X2892424Y489062D1*
X2891299Y487856D1*
X2890087Y486743D1*
X2888793Y485730D1*
X2887416Y484822D1*
X2885958Y484021D1*
X2884417Y483325D1*
X2882797Y482738D1*
X2881093Y482256D1*
X2879310Y481881D1*
X2877444Y481613D1*
X2875497Y481451D1*
X2872843Y481404D1*
X2870407Y481542D1*
X2868664Y481766D1*
X2866993Y482093D1*
X2865395Y482521D1*
X2863870Y483049D1*
X2862417Y483677D1*
X2860591Y484655D1*
X2858890Y485766D1*
X2857312Y487012D1*
X2856213Y488033D1*
X2854856Y489512D1*
X2853621Y491118D1*
X2852514Y492840D1*
X2851538Y494677D1*
X2850692Y496630D1*
X2849975Y498698D1*
X2849253Y501424D1*
X2848727Y504252D1*
X2848396Y507185D1*
X2848257Y510844D1*
X2848357Y513815D1*
X2848657Y516722D1*
X2849161Y519567D1*
X2849871Y522346D1*
X2850579Y524496D1*
X2851416Y526537D1*
X2852383Y528470D1*
X2853478Y530297D1*
X2854699Y532017D1*
X2856050Y533618D1*
X2857150Y534731D1*
X2858728Y536097D1*
X2860437Y537328D1*
X2862276Y538424D1*
X2863741Y539152D1*
X2865282Y539772D1*
X2866899Y540281D1*
X2868594Y540676D1*
X2870366Y540959D1*
X2870677Y537510D1*
D1*
X2874094D1*
X2877282D1*
X2880117Y536886D1*
X2882613Y535625D1*
X2885094Y534364D1*
X2887211Y532681D1*
X2888961Y530566D1*
X2890710Y528463D1*
X2892026Y526022D1*
X2892921Y523241D1*
X2893803Y520461D1*
X2894332Y517517D1*
X2894480Y514398D1*
X2852584D1*
X2852814Y517369D1*
X2853411Y520257D1*
X2854374Y523064D1*
X2855337Y525886D1*
X2856707Y528354D1*
X2858497Y530457D1*
X2860274Y532572D1*
X2862471Y534268D1*
X2865062Y535571D1*
X2867667Y536873D1*
X2870677Y537510D1*
X2870366Y540959D1*
X2872218Y541129D1*
X2874745Y541180D1*
X2877062Y541046D1*
X2879265Y540734D1*
X2880845Y540383D1*
X2882362Y539933D1*
X2883819Y539383D1*
X2885664Y538501D1*
X2887388Y537484D1*
X2888991Y536337D1*
X2890474Y535059D1*
X2891836Y533651D1*
X2893081Y532121D1*
X2894206Y530493D1*
X2895210Y528766D1*
X2896093Y526941D1*
X2896857Y525014D1*
X2897644Y522483D1*
X2898231Y519856D1*
X2898612Y517136D1*
X2898791Y514325D1*
X2898699Y510736D1*
X2852475D1*
G37*
G36*
X2982249Y482741D2*
Y490513D1*
X2982033D1*
X2977385Y495038D1*
D1*
X2976056Y493707D1*
X2974568Y492530D1*
X2972920Y491505D1*
X2971568Y490873D1*
X2970112Y490381D1*
X2968277Y489983D1*
X2966298Y489774D1*
X2963948Y489765D1*
X2961762Y489988D1*
X2959978Y490375D1*
X2958307Y490942D1*
X2956969Y491573D1*
X2955327Y492572D1*
X2953843Y493734D1*
X2952518Y495054D1*
X2951356Y496533D1*
X2950108Y498564D1*
X2949091Y500762D1*
X2948301Y503127D1*
X2947778Y505346D1*
X2947335Y508609D1*
X2947256Y511974D1*
X2947600Y516209D1*
X2948352Y520068D1*
X2949205Y522701D1*
X2950217Y524907D1*
X2951320Y526735D1*
X2952324Y528029D1*
X2953463Y529201D1*
X2954736Y530249D1*
X2956357Y531298D1*
X2957690Y531949D1*
X2959130Y532463D1*
X2960944Y532891D1*
X2962903Y533130D1*
X2965316Y533169D1*
X2967659Y532966D1*
X2969555Y532592D1*
X2971308Y532034D1*
X2972698Y531411D1*
X2974185Y530539D1*
X2975727Y529399D1*
X2977101Y528104D1*
X2978307Y526654D1*
X2979478Y524864D1*
X2980455Y522913D1*
X2981236Y520804D1*
X2981930Y518041D1*
X2982448Y514407D1*
X2982568Y510699D1*
X2982273Y506899D1*
X2981545Y503147D1*
X2980781Y500765D1*
X2979783Y498560D1*
X2978554Y496526D1*
X2977385Y495038D1*
X2982033Y490513D1*
X2981315Y489209D1*
X2980588Y488143D1*
X2979777Y487161D1*
X2978882Y486265D1*
X2977902Y485453D1*
X2976837Y484726D1*
X2975688Y484081D1*
X2974030Y483356D1*
X2971857Y482625D1*
X2969597Y482077D1*
X2967251Y481715D1*
X2964814Y481539D1*
X2962171Y481554D1*
X2960045Y481718D1*
X2958018Y482020D1*
X2956089Y482459D1*
X2954257Y483037D1*
X2952522Y483752D1*
X2950490Y484818D1*
X2948602Y486034D1*
X2946864Y487396D1*
X2945577Y488592D1*
X2944104Y490219D1*
X2942769Y491984D1*
X2941579Y493867D1*
X2940533Y495869D1*
X2939630Y497990D1*
X2938732Y500685D1*
X2938045Y503487D1*
X2937570Y506375D1*
X2937282Y509857D1*
Y513424D1*
X2937563Y516899D1*
X2938122Y520262D1*
X2938822Y523056D1*
X2939562Y525285D1*
X2940449Y527394D1*
X2941484Y529382D1*
X2942665Y531247D1*
X2943995Y532987D1*
X2945165Y534280D1*
X2946430Y535480D1*
X2948147Y536849D1*
X2950008Y538071D1*
X2952016Y539143D1*
X2953723Y539878D1*
X2955522Y540475D1*
X2957411Y540937D1*
X2959390Y541262D1*
X2961992Y541480D1*
X2965255Y541444D1*
X2968567Y541020D1*
X2971357Y540307D1*
X2973932Y539327D1*
X2976202Y538140D1*
X2978167Y536812D1*
X2979446Y535727D1*
X2980601Y534503D1*
X2981770Y532930D1*
X2982033Y532518D1*
X2982249D1*
Y562022D1*
X2982259Y562073D1*
X2991682D1*
X2991689Y482756D1*
X2991657Y482741D1*
X2982249D1*
G37*
G36*
X3013472Y495572D2*
X3014012Y494770D1*
X3014614Y494037D1*
X3015280Y493370D1*
X3016008Y492768D1*
X3016799Y492231D1*
X3017640Y491755D1*
X3018522Y491332D1*
X3019448Y490963D1*
X3020912Y490512D1*
X3022996Y490085D1*
X3025139Y489829D1*
X3027790Y489741D1*
X3030899Y489920D1*
X3032753Y490163D1*
X3034098Y490445D1*
X3035381Y490819D1*
X3036605Y491285D1*
X3037370Y491651D1*
X3038080Y492079D1*
X3038736Y492570D1*
X3039339Y493123D1*
X3039887Y493740D1*
X3040142Y494072D1*
X3040375Y494421D1*
X3040583Y494787D1*
X3040766Y495172D1*
X3040925Y495572D1*
X3041059Y495991D1*
X3041169Y496427D1*
X3041314Y497349D1*
X3041358Y498357D1*
X3041328Y499041D1*
X3041247Y499692D1*
X3041113Y500310D1*
X3040929Y500895D1*
X3040693Y501448D1*
X3040407Y501967D1*
X3040068Y502455D1*
X3039681Y502909D1*
X3039241Y503332D1*
X3038752Y503723D1*
X3037652Y504432D1*
X3036449Y505088D1*
X3035144Y505690D1*
X3033738Y506239D1*
X3031433Y506966D1*
X3024580Y508613D1*
X3019969Y509583D1*
X3017327Y510314D1*
X3014806Y511177D1*
X3013196Y511824D1*
X3011665Y512555D1*
X3010240Y513390D1*
X3009566Y513845D1*
X3008916Y514328D1*
X3008294Y514836D1*
X3007697Y515370D1*
X3007126Y515929D1*
X3006583Y516514D1*
X3006072Y517134D1*
X3005615Y517799D1*
X3005209Y518509D1*
X3004854Y519264D1*
X3004551Y520064D1*
X3004301Y520909D1*
X3004100Y521801D1*
X3003950Y522735D1*
X3003853Y523715D1*
X3003806Y524740D1*
X3003808Y525663D1*
X3003846Y526470D1*
X3003921Y527255D1*
X3004033Y528018D1*
X3004178Y528759D1*
X3004361Y529475D1*
X3004579Y530171D1*
X3004832Y530844D1*
X3005121Y531493D1*
X3005444Y532121D1*
X3005804Y532727D1*
X3006601Y533871D1*
X3007479Y534929D1*
X3008438Y535902D1*
X3009479Y536789D1*
X3010600Y537592D1*
X3011794Y538308D1*
X3013045Y538951D1*
X3014353Y539522D1*
X3015720Y540021D1*
X3017147Y540449D1*
X3019348Y540948D1*
X3021542Y541289D1*
X3023730Y541474D1*
X3026098Y541505D1*
X3028808Y541395D1*
X3031388Y541148D1*
X3033841Y540762D1*
X3035402Y540419D1*
X3036894Y539986D1*
X3038316Y539462D1*
X3039671Y538850D1*
X3040955Y538147D1*
X3042168Y537352D1*
X3042739Y536915D1*
X3043286Y536450D1*
X3043810Y535959D1*
X3044311Y535442D1*
X3044787Y534898D1*
X3045240Y534327D1*
X3045669Y533730D1*
X3046458Y532457D1*
X3046816Y531778D1*
X3047146Y531070D1*
X3047446Y530329D1*
X3047717Y529558D1*
X3048173Y527919D1*
X3048517Y526151D1*
X3048747Y524256D1*
X3048789Y523513D1*
X3039358D1*
X3039241Y524463D1*
X3039054Y525432D1*
X3038791Y526331D1*
X3038457Y527157D1*
X3038047Y527916D1*
X3037568Y528609D1*
X3037039Y529249D1*
X3036459Y529837D1*
X3035829Y530371D1*
X3035151Y530849D1*
X3034054Y531474D1*
X3032891Y531995D1*
X3031665Y532415D1*
X3029936Y532824D1*
X3028173Y533076D1*
X3026392Y533180D1*
X3023909Y533101D1*
X3021434Y532794D1*
X3020231Y532542D1*
X3019096Y532203D1*
X3018028Y531782D1*
X3017357Y531455D1*
X3016732Y531089D1*
X3016157Y530681D1*
X3015630Y530231D1*
X3015150Y529739D1*
X3014722Y529203D1*
X3014537Y528915D1*
X3014373Y528612D1*
X3014228Y528293D1*
X3014106Y527958D1*
X3013923Y527243D1*
X3013820Y526467D1*
X3013802Y525613D1*
X3013833Y525159D1*
X3013896Y524720D1*
X3013991Y524297D1*
X3014118Y523888D1*
X3014277Y523496D1*
X3014467Y523118D1*
X3014689Y522757D1*
X3014944Y522411D1*
X3015230Y522080D1*
X3015890Y521462D1*
X3016626Y520886D1*
X3017430Y520350D1*
X3018304Y519857D1*
X3019248Y519407D1*
X3021323Y518612D1*
X3024196Y517756D1*
X3035841Y515055D1*
X3039797Y513873D1*
X3041663Y513155D1*
X3043404Y512320D1*
X3044492Y511697D1*
X3045522Y511021D1*
X3046487Y510282D1*
X3047378Y509472D1*
X3048196Y508592D1*
X3048941Y507644D1*
X3049610Y506629D1*
X3049916Y506093D1*
X3050193Y505531D1*
X3050440Y504946D1*
X3050659Y504337D1*
X3050846Y503703D1*
X3051005Y503045D1*
X3051135Y502362D1*
X3051304Y500924D1*
X3051354Y499352D1*
X3051328Y498370D1*
X3051261Y497421D1*
X3051155Y496505D1*
X3051009Y495622D1*
X3050823Y494773D1*
X3050596Y493955D1*
X3050329Y493172D1*
X3050022Y492421D1*
X3049676Y491703D1*
X3049287Y491018D1*
X3048421Y489728D1*
X3047950Y489122D1*
X3047454Y488539D1*
X3046933Y487983D1*
X3046387Y487450D1*
X3045220Y486461D1*
X3043958Y485567D1*
X3042605Y484770D1*
X3041188Y484070D1*
X3039705Y483463D1*
X3038155Y482953D1*
X3036539Y482535D1*
X3034020Y482070D1*
X3031503Y481749D1*
X3028996Y481567D1*
X3026455Y481522D1*
X3023751Y481631D1*
X3021121Y481904D1*
X3018566Y482343D1*
X3016908Y482735D1*
X3015323Y483220D1*
X3013810Y483797D1*
X3012371Y484467D1*
X3011007Y485231D1*
X3009714Y486091D1*
X3009102Y486559D1*
X3008516Y487052D1*
X3007953Y487573D1*
X3007416Y488122D1*
X3006903Y488696D1*
X3006415Y489297D1*
X3005951Y489924D1*
X3005513Y490579D1*
X3004710Y491967D1*
X3004348Y492705D1*
X3004021Y493472D1*
X3003726Y494269D1*
X3003465Y495096D1*
X3003236Y495953D1*
X3002879Y497755D1*
X3002654Y499675D1*
X3002588Y500678D1*
X3002752Y500848D1*
X3011936D1*
X3012031Y500601D1*
X3012136Y499454D1*
X3012333Y498378D1*
X3012622Y497371D1*
X3013001Y496436D1*
X3013226Y495995D1*
X3013472Y495572D1*
G37*
G36*
X3071577Y540182D2*
Y532409D1*
X3071794D1*
X3076287Y527702D1*
D1*
X3077596Y529052D1*
X3079064Y530252D1*
X3080693Y531298D1*
X3082026Y531949D1*
X3083466Y532463D1*
X3085280Y532891D1*
X3087238Y533130D1*
X3089596Y533169D1*
X3091799Y532972D1*
X3093600Y532608D1*
X3095282Y532067D1*
X3096846Y531349D1*
X3098496Y530345D1*
X3099983Y529185D1*
X3101308Y527867D1*
X3102471Y526390D1*
X3103719Y524358D1*
X3104736Y522160D1*
X3105526Y519797D1*
X3105991Y517819D1*
X3106458Y514564D1*
X3106564Y511217D1*
X3106257Y506976D1*
X3105539Y503102D1*
X3104711Y500446D1*
X3103722Y498227D1*
X3102507Y496188D1*
X3101353Y494719D1*
X3100205Y493566D1*
X3098736Y492396D1*
X3097098Y491391D1*
X3095741Y490781D1*
X3094264Y490312D1*
X3092669Y489983D1*
X3090657Y489774D1*
X3088203Y489766D1*
X3085879Y489999D1*
X3084003Y490399D1*
X3082512Y490888D1*
X3081129Y491513D1*
X3079441Y492517D1*
X3077919Y493676D1*
X3076566Y494986D1*
X3075382Y496448D1*
X3074231Y498261D1*
X3073276Y500227D1*
X3072517Y502349D1*
X3071845Y505126D1*
X3071348Y508773D1*
X3071253Y512469D1*
X3071549Y516022D1*
X3072281Y519774D1*
X3073037Y522152D1*
X3074034Y524360D1*
X3075139Y526201D1*
X3076287Y527702D1*
X3071794Y532409D1*
X3072513Y533710D1*
X3073239Y534777D1*
X3074050Y535762D1*
X3074945Y536667D1*
X3075925Y537487D1*
X3076990Y538227D1*
X3078139Y538883D1*
X3079798Y539630D1*
X3081970Y540381D1*
X3084230Y540941D1*
X3086577Y541312D1*
X3089013Y541492D1*
X3091657Y541478D1*
X3093782Y541314D1*
X3095808Y541012D1*
X3097738Y540572D1*
X3099570Y539995D1*
X3101304Y539280D1*
X3103339Y538211D1*
X3105224Y536988D1*
X3106627Y535900D1*
X3107937Y534717D1*
X3109152Y533436D1*
X3110539Y531703D1*
X3111785Y529848D1*
X3112888Y527881D1*
X3113852Y525799D1*
X3114818Y523152D1*
X3115576Y520373D1*
X3116123Y517509D1*
X3116492Y514066D1*
X3116575Y510513D1*
X3116373Y507005D1*
X3115892Y503610D1*
X3115261Y500789D1*
X3114424Y498070D1*
X3113563Y495934D1*
X3112554Y493925D1*
X3111398Y492038D1*
X3110097Y490274D1*
X3108951Y488954D1*
X3107711Y487732D1*
X3106378Y486610D1*
X3104950Y485587D1*
X3103033Y484445D1*
X3101392Y483643D1*
X3099663Y482959D1*
X3097841Y482409D1*
X3095928Y481991D1*
X3093408Y481654D1*
X3089577Y481534D1*
X3085744Y481936D1*
X3082694Y482640D1*
X3080106Y483549D1*
X3078030Y484559D1*
X3076046Y485827D1*
X3074734Y486865D1*
X3073543Y488046D1*
X3072476Y489375D1*
X3071795Y490404D1*
X3071579D1*
X3071577Y460900D1*
X3071568Y460850D1*
X3062144D1*
X3062138Y540167D1*
X3062169Y540182D1*
X3071577D1*
G37*
G36*
X1090336Y2244555D2*
Y2236499D1*
X1055756D1*
Y2145392D1*
X1046310D1*
Y2236499D1*
X1011865D1*
Y2244555D1*
X1090336D1*
G37*
G36*
X1113462Y2224480D2*
X1116567Y2224807D1*
X1119247Y2225580D1*
X1121518Y2226773D1*
X1123790Y2227980D1*
X1125689Y2229811D1*
X1127215Y2232266D1*
X1128740Y2234722D1*
X1129825Y2238167D1*
X1130476Y2242615D1*
X1137563D1*
Y2145392D1*
X1128808D1*
Y2217618D1*
X1103119D1*
Y2223857D1*
X1106911Y2223951D1*
X1110362Y2224155D1*
X1113462Y2224480D1*
G37*
G36*
X1882003Y2244555D2*
Y2236499D1*
X1847423D1*
Y2145392D1*
X1837976D1*
Y2236499D1*
X1803531D1*
Y2244555D1*
X1882003D1*
G37*
G36*
X1886308Y2145392D2*
X1886396Y2147438D1*
X1886575Y2149415D1*
X1886846Y2151322D1*
X1887209Y2153160D1*
X1887664Y2154928D1*
X1888210Y2156629D1*
X1888849Y2158259D1*
X1889945Y2160602D1*
X1891184Y2162844D1*
X1892567Y2164980D1*
X1894092Y2167012D1*
X1896332Y2169571D1*
X1898741Y2171997D1*
X1901314Y2174294D1*
X1908303Y2179589D1*
X1925143Y2191114D1*
X1928573Y2193765D1*
X1931734Y2196543D1*
X1934054Y2198853D1*
X1935596Y2200614D1*
X1936950Y2202395D1*
X1938115Y2204197D1*
X1938789Y2205411D1*
X1939378Y2206635D1*
X1939883Y2207913D1*
X1940306Y2209257D1*
X1940644Y2210667D1*
X1940900Y2212143D1*
X1941072Y2213686D1*
X1941160Y2215297D1*
X1941165Y2216820D1*
X1941097Y2218140D1*
X1940957Y2219417D1*
X1940744Y2220651D1*
X1940459Y2221843D1*
X1940104Y2222990D1*
X1939677Y2224094D1*
X1939180Y2225152D1*
X1938332Y2226651D1*
X1937367Y2228050D1*
X1936661Y2228925D1*
X1935903Y2229753D1*
X1935093Y2230537D1*
X1933785Y2231625D1*
X1932386Y2232596D1*
X1930896Y2233449D1*
X1929316Y2234184D1*
X1927646Y2234804D1*
X1925906Y2235303D1*
X1924123Y2235678D1*
X1922298Y2235930D1*
X1920428Y2236059D1*
X1918238Y2236058D1*
X1916600Y2235951D1*
X1915035Y2235753D1*
X1913543Y2235463D1*
X1912123Y2235081D1*
X1910776Y2234608D1*
X1909499Y2234041D1*
X1908294Y2233386D1*
X1907155Y2232667D1*
X1906083Y2231885D1*
X1905076Y2231041D1*
X1904135Y2230133D1*
X1903260Y2229161D1*
X1902450Y2228125D1*
X1901707Y2227033D1*
X1901026Y2225894D1*
X1900115Y2224098D1*
X1899340Y2222199D1*
X1898702Y2220196D1*
X1898198Y2218098D1*
X1897818Y2215945D1*
X1897562Y2213741D1*
X1897412Y2210722D1*
X1897420Y2209178D1*
X1897345Y2209005D1*
X1888671D1*
X1888701Y2212071D1*
X1888916Y2215148D1*
X1889318Y2218118D1*
X1889690Y2220038D1*
X1890146Y2221909D1*
X1890686Y2223726D1*
X1891311Y2225471D1*
X1892018Y2227146D1*
X1892810Y2228748D1*
X1893684Y2230278D1*
X1894640Y2231738D1*
X1895680Y2233125D1*
X1896804Y2234440D1*
X1898012Y2235673D1*
X1899304Y2236823D1*
X1900680Y2237887D1*
X1902139Y2238869D1*
X1903682Y2239766D1*
X1905307Y2240584D1*
X1907017Y2241310D1*
X1908810Y2241930D1*
X1910686Y2242445D1*
X1912647Y2242852D1*
X1914690Y2243154D1*
X1916818Y2243348D1*
X1919028Y2243437D1*
X1921904Y2243394D1*
X1924555Y2243185D1*
X1927122Y2242815D1*
X1929606Y2242285D1*
X1932008Y2241594D1*
X1933545Y2241046D1*
X1935025Y2240428D1*
X1936449Y2239741D1*
X1937814Y2238984D1*
X1939122Y2238156D1*
X1940373Y2237259D1*
X1941566Y2236291D1*
X1942688Y2235256D1*
X1943735Y2234150D1*
X1944707Y2232970D1*
X1945604Y2231719D1*
X1946427Y2230396D1*
X1947173Y2229003D1*
X1947844Y2227537D1*
X1948424Y2225996D1*
X1948909Y2224387D1*
X1949301Y2222710D1*
X1949597Y2220965D1*
X1949798Y2219151D1*
X1949903Y2217269D1*
X1949915Y2215403D1*
X1949841Y2213681D1*
X1949682Y2212007D1*
X1949441Y2210379D1*
X1949117Y2208799D1*
X1948709Y2207266D1*
X1948217Y2205782D1*
X1947333Y2203631D1*
X1946318Y2201559D1*
X1945172Y2199564D1*
X1943895Y2197648D1*
X1942488Y2195808D1*
X1940450Y2193459D1*
X1938251Y2191217D1*
X1935888Y2189079D1*
X1931427Y2185555D1*
X1926714Y2182287D1*
X1913049Y2173564D1*
X1908537Y2170247D1*
X1906081Y2168213D1*
X1903795Y2166070D1*
X1901682Y2163823D1*
X1900214Y2162073D1*
X1899336Y2160870D1*
X1898562Y2159635D1*
X1897890Y2158369D1*
X1897322Y2157070D1*
X1896857Y2155739D1*
X1896495Y2154377D1*
X1896353Y2153682D1*
X1896673Y2153450D1*
X1950301D1*
X1950341Y2153377D1*
Y2145395D1*
X1886308Y2145392D1*
G37*
G36*
X3484324Y4048014D2*
Y4039680D1*
X3419058Y3956903D1*
X3485722D1*
Y3948846D1*
X3408492D1*
Y3957181D1*
X3473773Y4039958D1*
X3412941D1*
Y4048014D1*
X3484324D1*
G37*
G36*
X2764462Y4417339D2*
X2757518D1*
Y4775567D1*
X2764462D1*
Y4417339D1*
G37*
G36*
X2250573D2*
X2243629D1*
Y4775567D1*
X2250573D1*
Y4417339D1*
G37*
G36*
X1736692D2*
X1729747D1*
Y4775567D1*
X1736692D1*
Y4417339D1*
G37*
G36*
X945724Y4916420D2*
X956730Y4903755D1*
D1*
X772797D1*
Y4896810D1*
X956730D1*
Y4903755D1*
X945724Y4916420D1*
X1005951Y4900290D1*
X945724Y4884139D1*
Y4916420D1*
G37*
G36*
X3045766Y4126961D2*
X3045238Y4127042D1*
X3044748Y4127290D1*
X3044365Y4127672D1*
X3044115Y4128159D1*
X3044030Y4128685D1*
X3044054Y5211016D1*
X3044228Y5211541D1*
X3044552Y5211976D1*
X3044996Y5212291D1*
X3045495Y5212450D1*
X3046038D1*
X3046538Y5212291D1*
X3046980Y5211976D1*
X3047304Y5211541D1*
X3047475Y5211049D1*
X3047503Y5210745D1*
X3047480Y4128416D1*
X3047304Y4127890D1*
X3046980Y4127455D1*
X3046538Y4127140D1*
X3046038Y4126982D1*
X3045766Y4126961D1*
G37*
G36*
X1448497D2*
X1447970Y4127042D1*
X1447482Y4127290D1*
X1447097Y4127672D1*
X1446846Y4128159D1*
X1446761Y4128685D1*
X1446783Y5211016D1*
X1446945Y5211512D1*
X1447262Y5211954D1*
X1447701Y5212277D1*
X1448194Y5212444D1*
X1448734Y5212454D1*
X1449236Y5212304D1*
X1449685Y5211999D1*
X1450018Y5211570D1*
X1450198Y5211081D1*
X1450234Y5210745D1*
X1450210Y4128416D1*
X1450049Y4127919D1*
X1449731Y4127478D1*
X1449294Y4127155D1*
X1448801Y4126987D1*
X1448497Y4126961D1*
G37*
G36*
X1713484Y5155525D2*
X1720774D1*
X1735165Y5126357D1*
X1760346Y5155525D1*
X1768219D1*
X1738081Y5121202D1*
X1756168Y5086108D1*
X1749169D1*
X1733707Y5117025D1*
X1706486Y5086108D1*
X1698802D1*
X1730594Y5122274D1*
X1713484Y5155525D1*
G37*
G36*
X1167247Y4417339D2*
X1160303D1*
Y4775567D1*
X1167247D1*
Y4417339D1*
G37*
G36*
X1050073Y5136272D2*
X1039277Y5086108D1*
X1033255D1*
X1043949Y5136272D1*
X1050073D1*
G37*
G36*
X1054251Y5155525D2*
X1052114Y5145705D1*
X1045991D1*
X1048127Y5155525D1*
X1054251D1*
G37*
G36*
X1067570Y5136272D2*
X1065820Y5127136D1*
X1066017D1*
X1067895Y5130114D1*
X1070404Y5132630D1*
X1073551Y5134671D1*
X1076692Y5136713D1*
X1080143Y5137730D1*
X1083907D1*
X1086104D1*
X1088131Y5137472D1*
X1089983Y5136957D1*
X1091828Y5136434D1*
X1093428Y5135640D1*
X1094791Y5134570D1*
X1096155Y5133505D1*
X1097206Y5132108D1*
X1097951Y5130392D1*
X1098698Y5128676D1*
X1099071Y5126614D1*
Y5124220D1*
Y5122857D1*
X1098814Y5120877D1*
X1098291Y5118286D1*
X1091387Y5086108D1*
X1085264D1*
X1092262Y5118483D1*
X1092458Y5119262D1*
X1092621Y5120084D1*
X1092751Y5120958D1*
X1092879Y5121833D1*
X1092948Y5122694D1*
Y5123535D1*
Y5125224D1*
X1092655Y5126635D1*
X1092072Y5127768D1*
X1091488Y5128900D1*
X1090709Y5129823D1*
X1089739Y5130541D1*
X1088762Y5131253D1*
X1087643Y5131769D1*
X1086382Y5132094D1*
X1085121Y5132420D1*
X1083806Y5132583D1*
X1082442D1*
X1080238D1*
X1078102Y5132094D1*
X1076026Y5131125D1*
X1073951Y5130148D1*
X1072046Y5128772D1*
X1070289Y5126987D1*
X1068539Y5125203D1*
X1067021Y5123034D1*
X1065726Y5120476D1*
X1064423Y5117913D1*
X1063453Y5115045D1*
X1062810Y5111871D1*
X1057261Y5086108D1*
X1051240D1*
X1061934Y5136272D1*
X1067570D1*
G37*
G36*
X1120264D2*
X1118318Y5127231D1*
X1118513D1*
X1120014Y5129362D1*
X1121504Y5131140D1*
X1123083Y5132726D1*
X1124752Y5134118D1*
X1126151Y5135094D1*
X1127269Y5135731D1*
X1128463Y5136280D1*
X1129734Y5136740D1*
X1131079Y5137113D1*
X1132991Y5137474D1*
X1135035Y5137678D1*
X1137900Y5137710D1*
X1140190Y5137526D1*
X1142314Y5137151D1*
X1143955Y5136693D1*
X1145482Y5136102D1*
X1147173Y5135245D1*
X1148467Y5134420D1*
X1149660Y5133490D1*
X1150748Y5132457D1*
X1151736Y5131320D1*
X1152617Y5130085D1*
X1153531Y5128474D1*
X1154291Y5126719D1*
X1154983Y5124501D1*
X1155471Y5122143D1*
X1155785Y5119282D1*
X1155839Y5116475D1*
X1155657Y5113538D1*
X1155235Y5110608D1*
X1154571Y5107684D1*
X1153667Y5104772D1*
X1152542Y5101974D1*
X1151440Y5099755D1*
X1150186Y5097636D1*
X1148782Y5095622D1*
X1147238Y5093726D1*
X1145562Y5091979D1*
X1143757Y5090382D1*
X1141823Y5088934D1*
X1139761Y5087638D1*
X1138025Y5086745D1*
X1136218Y5086017D1*
X1134340Y5085451D1*
X1132390Y5085051D1*
X1130369Y5084815D1*
X1127385Y5084765D1*
X1124530Y5085039D1*
X1122232Y5085516D1*
X1120302Y5086156D1*
X1118728Y5086898D1*
X1117459Y5087685D1*
X1116303Y5088613D1*
X1115268Y5089684D1*
X1114346Y5090896D1*
X1113672Y5092049D1*
X1113119Y5093304D1*
X1112631Y5094904D1*
X1112390Y5096123D1*
X1115345Y5097988D1*
D1*
X1114867Y5099550D1*
X1114539Y5101230D1*
X1114348Y5103337D1*
X1114383Y5106094D1*
X1114856Y5110010D1*
X1115883Y5114280D1*
X1117232Y5117975D1*
X1118845Y5121206D1*
X1120797Y5124198D1*
X1122604Y5126341D1*
X1124630Y5128243D1*
X1126875Y5129904D1*
X1127669Y5130392D1*
X1129323Y5131223D1*
X1131063Y5131857D1*
X1132888Y5132294D1*
X1135046Y5132549D1*
X1137287Y5132555D1*
X1139117Y5132367D1*
X1140529Y5132075D1*
X1141836Y5131660D1*
X1143041Y5131121D1*
X1144142Y5130459D1*
X1144948Y5129843D1*
X1145688Y5129146D1*
X1146361Y5128371D1*
X1147252Y5127098D1*
X1148007Y5125739D1*
X1148625Y5124290D1*
X1149172Y5122488D1*
X1149533Y5120566D1*
X1149706Y5118521D1*
X1149673Y5115841D1*
X1149193Y5111773D1*
X1148134Y5107346D1*
X1146814Y5103748D1*
X1145226Y5100597D1*
X1143434Y5097866D1*
X1141655Y5095770D1*
X1139651Y5093916D1*
X1137424Y5092303D1*
X1135818Y5091416D1*
X1134122Y5090723D1*
X1132339Y5090223D1*
X1130224Y5089892D1*
X1127907Y5089807D1*
X1125772Y5089959D1*
X1124079Y5090264D1*
X1122513Y5090728D1*
X1121306Y5091240D1*
X1120186Y5091864D1*
X1119156Y5092598D1*
X1118214Y5093445D1*
X1117364Y5094395D1*
X1116617Y5095428D1*
X1115976Y5096543D1*
X1115345Y5097988D1*
X1112390Y5096123D1*
X1112194D1*
X1106063Y5067634D1*
X1100045D1*
X1114720Y5136259D1*
X1114741Y5136272D1*
X1120264D1*
G37*
G36*
X1193668Y5086108D2*
X1195419Y5095249D1*
X1195222D1*
X1193343Y5092265D1*
X1190827Y5089769D1*
X1187686Y5087762D1*
X1184541Y5085755D1*
X1181088Y5084744D1*
X1177331D1*
X1175127D1*
X1173106Y5084988D1*
X1171255Y5085476D1*
X1169411Y5085958D1*
X1167803Y5086738D1*
X1166446Y5087810D1*
X1165084Y5088881D1*
X1164026Y5090272D1*
X1163286Y5091987D1*
X1162541Y5093703D1*
X1162168Y5095765D1*
Y5098165D1*
Y5099521D1*
X1162425Y5101501D1*
X1162941Y5104092D1*
X1169844Y5136272D1*
X1175969D1*
X1168970Y5103896D1*
X1168780Y5103122D1*
X1168617Y5102295D1*
X1168488Y5101420D1*
X1168353Y5100546D1*
X1168291Y5099684D1*
Y5098844D1*
Y5097223D1*
X1168583Y5095832D1*
X1169167Y5094665D1*
X1169749Y5093500D1*
X1170529Y5092556D1*
X1171499Y5091845D1*
X1172469Y5091133D1*
X1173588Y5090610D1*
X1174856Y5090285D1*
X1176117Y5089966D1*
X1177427Y5089803D1*
X1178790D1*
X1181062D1*
X1183211Y5090285D1*
X1185259Y5091261D1*
X1187301Y5092231D1*
X1189178Y5093608D1*
X1190895Y5095391D1*
X1192610Y5097175D1*
X1194115Y5099345D1*
X1195419Y5101908D1*
X1196714Y5104466D1*
X1197717Y5107335D1*
X1198429Y5110508D1*
X1203970Y5136272D1*
X1210093D1*
X1199304Y5086108D1*
X1193668D1*
G37*
G36*
X1225651Y5136272D2*
X1228858Y5151442D1*
X1234983D1*
X1231774Y5136272D1*
X1241785D1*
X1240815Y5131125D1*
X1230608D1*
X1223705Y5098938D1*
X1223446Y5097772D1*
X1223264Y5096883D1*
X1223169Y5096266D1*
X1223073Y5095650D1*
X1223026Y5094958D1*
Y5094177D1*
Y5093269D1*
X1223264Y5092462D1*
X1223752Y5091743D1*
X1224240Y5091031D1*
X1225068Y5090678D1*
X1226234D1*
X1228629D1*
X1231029Y5090869D1*
X1233429Y5091261D1*
X1232358Y5086013D1*
X1231320Y5085883D1*
X1230282Y5085782D1*
X1229245Y5085720D1*
X1228207Y5085654D1*
X1227171Y5085619D1*
X1226133D1*
X1224966D1*
X1223833Y5085701D1*
X1222735Y5085864D1*
X1221630Y5086026D1*
X1220639Y5086365D1*
X1219764Y5086887D1*
X1218890Y5087403D1*
X1218198Y5088135D1*
X1217676Y5089071D1*
X1217160Y5090013D1*
X1216896Y5091227D1*
Y5092719D1*
Y5093235D1*
X1216950Y5093948D1*
X1217045Y5094856D1*
X1217140Y5095765D1*
X1217323Y5096768D1*
X1217580Y5097874D1*
X1224484Y5131125D1*
X1215437D1*
X1216604Y5136272D1*
X1225651D1*
G37*
G36*
X1277999Y5140748D2*
X1278837Y5142539D1*
X1279798Y5144223D1*
X1280881Y5145798D1*
X1282087Y5147265D1*
X1283412Y5148622D1*
X1284356Y5149459D1*
X1285346Y5150239D1*
X1286383Y5150963D1*
X1288028Y5151942D1*
X1289776Y5152795D1*
X1290997Y5153290D1*
X1292253Y5153713D1*
X1293545Y5154063D1*
X1294869Y5154341D1*
X1296227Y5154547D1*
X1298329Y5154719D1*
X1300293Y5154735D1*
X1302528Y5154580D1*
X1304156Y5154343D1*
X1305744Y5154000D1*
X1307291Y5153552D1*
X1308772Y5153003D1*
X1310171Y5152349D1*
X1311488Y5151592D1*
X1312724Y5150728D1*
X1313874Y5149761D1*
X1314920Y5148698D1*
X1315864Y5147539D1*
X1316705Y5146286D1*
X1317440Y5144938D1*
X1317867Y5143984D1*
X1318230Y5142990D1*
X1318528Y5141951D1*
X1318761Y5140873D1*
X1318930Y5139752D1*
X1319063Y5137992D1*
X1319049Y5136093D1*
X1318885Y5134222D1*
X1318693Y5133028D1*
X1318433Y5131877D1*
X1318108Y5130769D1*
X1317715Y5129703D1*
X1317010Y5128176D1*
X1316199Y5126709D1*
X1315285Y5125301D1*
X1314266Y5123951D1*
X1313142Y5122660D1*
X1311507Y5121028D1*
X1309732Y5119480D1*
X1307325Y5117671D1*
X1301525Y5114025D1*
X1288298Y5106446D1*
X1284194Y5103690D1*
X1281829Y5101840D1*
X1279665Y5099874D1*
X1278079Y5098222D1*
X1277007Y5096904D1*
X1276059Y5095507D1*
X1275232Y5094025D1*
X1274529Y5092463D1*
X1274322Y5091925D1*
X1274509Y5091743D1*
X1312238D1*
X1312257Y5091692D1*
X1311202Y5086109D1*
X1267256Y5086108D1*
X1267377Y5087648D1*
X1267576Y5089134D1*
X1267850Y5090566D1*
X1268203Y5091944D1*
X1268633Y5093266D1*
X1269138Y5094535D1*
X1269719Y5095749D1*
X1270698Y5097490D1*
X1271781Y5099148D1*
X1272971Y5100727D1*
X1274265Y5102226D1*
X1276146Y5104100D1*
X1278167Y5105854D1*
X1280323Y5107497D1*
X1289151Y5112949D1*
X1300352Y5119354D1*
X1303016Y5121136D1*
X1305441Y5123017D1*
X1306776Y5124199D1*
X1307999Y5125438D1*
X1309110Y5126736D1*
X1310108Y5128092D1*
X1310992Y5129505D1*
X1311507Y5130490D1*
X1311944Y5131521D1*
X1312302Y5132598D1*
X1312583Y5133722D1*
X1312785Y5134891D1*
X1312907Y5136106D1*
X1312946Y5137833D1*
X1312860Y5139115D1*
X1312663Y5140322D1*
X1312358Y5141450D1*
X1312096Y5142160D1*
X1311613Y5143161D1*
X1311051Y5144089D1*
X1310421Y5144942D1*
X1309723Y5145723D1*
X1308959Y5146432D1*
X1308130Y5147067D1*
X1307240Y5147630D1*
X1306290Y5148122D1*
X1304934Y5148665D1*
X1303480Y5149080D1*
X1301971Y5149371D1*
X1300018Y5149564D1*
X1298209Y5149577D1*
X1296602Y5149450D1*
X1295072Y5149186D1*
X1294094Y5148934D1*
X1293151Y5148622D1*
X1292243Y5148248D1*
X1290946Y5147589D1*
X1289736Y5146833D1*
X1288613Y5145983D1*
X1287575Y5145038D1*
X1286625Y5144000D1*
X1285764Y5142875D1*
X1284992Y5141675D1*
X1284312Y5140396D1*
X1283723Y5139042D1*
X1283079Y5137131D1*
X1282593Y5135152D1*
X1282270Y5133109D1*
X1282135Y5131534D1*
X1282073Y5131416D1*
X1276007D1*
X1276155Y5133482D1*
X1276458Y5135559D1*
X1276911Y5137564D1*
X1277513Y5139499D1*
X1277999Y5140748D1*
G37*
G36*
X653358Y4417339D2*
X646413D1*
Y4775567D1*
X653358D1*
Y4417339D1*
G37*
G36*
X550073Y5136272D2*
X539277Y5086108D1*
X533255D1*
X543949Y5136272D1*
X550073D1*
G37*
G36*
X554251Y5155525D2*
X552114Y5145705D1*
X545991D1*
X548127Y5155525D1*
X554251D1*
G37*
G36*
X567570Y5136272D2*
X565820Y5127136D1*
X566017D1*
X567895Y5130114D1*
X570404Y5132630D1*
X573551Y5134671D1*
X576692Y5136713D1*
X580143Y5137730D1*
X583907D1*
X586104D1*
X588131Y5137472D1*
X589983Y5136957D1*
X591828Y5136434D1*
X593428Y5135640D1*
X594791Y5134570D1*
X596155Y5133505D1*
X597206Y5132108D1*
X597951Y5130392D1*
X598698Y5128676D1*
X599071Y5126614D1*
Y5124220D1*
Y5122857D1*
X598814Y5120877D1*
X598291Y5118286D1*
X591387Y5086108D1*
X585264D1*
X592262Y5118483D1*
X592458Y5119262D1*
X592621Y5120084D1*
X592751Y5120958D1*
X592879Y5121833D1*
X592948Y5122694D1*
Y5123535D1*
Y5125224D1*
X592655Y5126635D1*
X592072Y5127768D1*
X591488Y5128900D1*
X590709Y5129823D1*
X589739Y5130541D1*
X588762Y5131253D1*
X587643Y5131769D1*
X586382Y5132094D1*
X585121Y5132420D1*
X583806Y5132583D1*
X582442D1*
X580238D1*
X578102Y5132094D1*
X576026Y5131125D1*
X573951Y5130148D1*
X572046Y5128772D1*
X570289Y5126987D1*
X568539Y5125203D1*
X567021Y5123034D1*
X565726Y5120476D1*
X564423Y5117913D1*
X563453Y5115045D1*
X562810Y5111871D1*
X557261Y5086108D1*
X551240D1*
X561934Y5136272D1*
X567570D1*
G37*
G36*
X620264D2*
X618318Y5127231D1*
X618513D1*
X620014Y5129362D1*
X621504Y5131140D1*
X623083Y5132726D1*
X624752Y5134118D1*
X626151Y5135094D1*
X627269Y5135731D1*
X628463Y5136280D1*
X629734Y5136740D1*
X631079Y5137113D1*
X632991Y5137474D1*
X635035Y5137678D1*
X637900Y5137710D1*
X640190Y5137526D1*
X642314Y5137151D1*
X643955Y5136693D1*
X645482Y5136102D1*
X647173Y5135245D1*
X648467Y5134420D1*
X649660Y5133490D1*
X650748Y5132457D1*
X651736Y5131320D1*
X652617Y5130085D1*
X653531Y5128474D1*
X654291Y5126719D1*
X654983Y5124501D1*
X655471Y5122143D1*
X655785Y5119282D1*
X655839Y5116475D1*
X655657Y5113538D1*
X655235Y5110608D1*
X654571Y5107684D1*
X653667Y5104772D1*
X652542Y5101974D1*
X651440Y5099755D1*
X650186Y5097636D1*
X648782Y5095622D1*
X647238Y5093726D1*
X645562Y5091979D1*
X643757Y5090382D1*
X641823Y5088934D1*
X639761Y5087638D1*
X638025Y5086745D1*
X636218Y5086017D1*
X634340Y5085451D1*
X632390Y5085051D1*
X630369Y5084815D1*
X627385Y5084765D1*
X624530Y5085039D1*
X622232Y5085516D1*
X620302Y5086156D1*
X618728Y5086898D1*
X617459Y5087685D1*
X616303Y5088613D1*
X615268Y5089684D1*
X614346Y5090896D1*
X613672Y5092049D1*
X613119Y5093304D1*
X612631Y5094904D1*
X612390Y5096123D1*
X615345Y5097988D1*
D1*
X614867Y5099550D1*
X614539Y5101230D1*
X614348Y5103337D1*
X614383Y5106094D1*
X614856Y5110010D1*
X615883Y5114280D1*
X617232Y5117975D1*
X618845Y5121206D1*
X620797Y5124198D1*
X622604Y5126341D1*
X624630Y5128243D1*
X626875Y5129904D1*
X627669Y5130392D1*
X629323Y5131223D1*
X631063Y5131857D1*
X632888Y5132294D1*
X635046Y5132549D1*
X637287Y5132555D1*
X639117Y5132367D1*
X640529Y5132075D1*
X641836Y5131660D1*
X643041Y5131121D1*
X644142Y5130459D1*
X644948Y5129843D1*
X645688Y5129146D1*
X646361Y5128371D1*
X647252Y5127098D1*
X648007Y5125739D1*
X648625Y5124290D1*
X649172Y5122488D1*
X649533Y5120566D1*
X649706Y5118521D1*
X649673Y5115841D1*
X649193Y5111773D1*
X648134Y5107346D1*
X646814Y5103748D1*
X645226Y5100597D1*
X643434Y5097866D1*
X641655Y5095770D1*
X639651Y5093916D1*
X637424Y5092303D1*
X635818Y5091416D1*
X634122Y5090723D1*
X632339Y5090223D1*
X630224Y5089892D1*
X627907Y5089807D1*
X625772Y5089959D1*
X624079Y5090264D1*
X622513Y5090728D1*
X621306Y5091240D1*
X620186Y5091864D1*
X619156Y5092598D1*
X618214Y5093445D1*
X617364Y5094395D1*
X616617Y5095428D1*
X615976Y5096543D1*
X615345Y5097988D1*
X612390Y5096123D1*
X612194D1*
X606063Y5067634D1*
X600045D1*
X614720Y5136259D1*
X614741Y5136272D1*
X620264D1*
G37*
G36*
X693668Y5086108D2*
X695419Y5095249D1*
X695222D1*
X693343Y5092265D1*
X690827Y5089769D1*
X687686Y5087762D1*
X684541Y5085755D1*
X681088Y5084744D1*
X677331D1*
X675127D1*
X673106Y5084988D1*
X671255Y5085476D1*
X669411Y5085958D1*
X667803Y5086738D1*
X666446Y5087810D1*
X665084Y5088881D1*
X664026Y5090272D1*
X663286Y5091987D1*
X662541Y5093703D1*
X662168Y5095765D1*
Y5098165D1*
Y5099521D1*
X662425Y5101501D1*
X662941Y5104092D1*
X669844Y5136272D1*
X675969D1*
X668970Y5103896D1*
X668780Y5103122D1*
X668617Y5102295D1*
X668488Y5101420D1*
X668353Y5100546D1*
X668291Y5099684D1*
Y5098844D1*
Y5097223D1*
X668583Y5095832D1*
X669167Y5094665D1*
X669749Y5093500D1*
X670529Y5092556D1*
X671499Y5091845D1*
X672469Y5091133D1*
X673588Y5090610D1*
X674856Y5090285D1*
X676117Y5089966D1*
X677427Y5089803D1*
X678790D1*
X681062D1*
X683211Y5090285D1*
X685259Y5091261D1*
X687301Y5092231D1*
X689178Y5093608D1*
X690895Y5095391D1*
X692610Y5097175D1*
X694115Y5099345D1*
X695419Y5101908D1*
X696714Y5104466D1*
X697717Y5107335D1*
X698429Y5110508D1*
X703970Y5136272D1*
X710093D1*
X699304Y5086108D1*
X693668D1*
G37*
G36*
X725651Y5136272D2*
X728858Y5151442D1*
X734983D1*
X731774Y5136272D1*
X741785D1*
X740815Y5131125D1*
X730608D1*
X723705Y5098938D1*
X723446Y5097772D1*
X723264Y5096883D1*
X723169Y5096266D1*
X723073Y5095650D1*
X723026Y5094958D1*
Y5094177D1*
Y5093269D1*
X723264Y5092462D1*
X723752Y5091743D1*
X724240Y5091031D1*
X725068Y5090678D1*
X726234D1*
X728629D1*
X731029Y5090869D1*
X733429Y5091261D1*
X732358Y5086013D1*
X731320Y5085883D1*
X730282Y5085782D1*
X729245Y5085720D1*
X728207Y5085654D1*
X727171Y5085619D1*
X726133D1*
X724966D1*
X723833Y5085701D1*
X722735Y5085864D1*
X721630Y5086026D1*
X720639Y5086365D1*
X719764Y5086887D1*
X718890Y5087403D1*
X718198Y5088135D1*
X717676Y5089071D1*
X717160Y5090013D1*
X716896Y5091227D1*
Y5092719D1*
Y5093235D1*
X716950Y5093948D1*
X717045Y5094856D1*
X717140Y5095765D1*
X717323Y5096768D1*
X717580Y5097874D1*
X724484Y5131125D1*
X715437D1*
X716604Y5136272D1*
X725651D1*
G37*
G36*
X788741Y5143420D2*
X790816Y5144037D1*
X792810Y5144829D1*
X794722Y5145799D1*
X796629Y5146777D1*
X798378Y5147957D1*
X799971Y5149353D1*
X801558Y5150744D1*
X802934Y5152350D1*
X804101Y5154161D1*
X808768D1*
X794186Y5086108D1*
X788063D1*
X800114Y5142592D1*
X797130Y5141039D1*
X794071Y5139873D1*
X790925Y5139093D1*
X787785Y5138312D1*
X784556Y5137668D1*
X781253Y5137147D1*
X782516Y5142009D1*
X784591Y5142335D1*
X786665Y5142802D1*
X788741Y5143420D1*
G37*
G36*
X2285417Y5155525D2*
X2250614Y5114109D1*
X2244483Y5086108D1*
X2237783D1*
X2244104Y5114787D1*
X2225630Y5155525D1*
X2232629D1*
X2248281Y5120328D1*
X2277348Y5155525D1*
X2285417D1*
G37*
G36*
X2793949D2*
X2792782Y5149984D1*
X2737268Y5091743D1*
X2783546D1*
X2782285Y5086108D1*
X2728329D1*
X2729591Y5091940D1*
X2784822Y5149882D1*
X2742626D1*
X2743887Y5155525D1*
X2793949D1*
G37*
G36*
X3302249Y5136272D2*
X3305451Y5151442D1*
X3311581D1*
X3308367Y5136272D1*
X3318377D1*
X3317413Y5131125D1*
X3307201D1*
X3300297Y5098938D1*
X3300039Y5097772D1*
X3299862Y5096883D1*
X3299768Y5096266D1*
X3299673Y5095650D1*
X3299618Y5094958D1*
Y5094177D1*
Y5093269D1*
X3299862Y5092462D1*
X3300352Y5091743D1*
X3300840Y5091031D1*
X3301667Y5090678D1*
X3302833D1*
X3305220D1*
X3307621Y5090869D1*
X3310022Y5091261D1*
X3308950Y5086013D1*
X3307920Y5085883D1*
X3306875Y5085782D1*
X3305844Y5085720D1*
X3304801Y5085654D1*
X3303769Y5085619D1*
X3302724D1*
X3301558D1*
X3300433Y5085701D1*
X3299333Y5085864D1*
X3298222Y5086026D1*
X3297231Y5086365D1*
X3296364Y5086887D1*
X3295482Y5087403D1*
X3294790Y5088135D1*
X3294274Y5089071D1*
X3293760Y5090013D1*
X3293488Y5091227D1*
Y5092719D1*
Y5093235D1*
X3293542Y5093948D1*
X3293638Y5094856D1*
X3293732Y5095765D1*
X3293923Y5096768D1*
X3294180Y5097874D1*
X3301084Y5131125D1*
X3292037D1*
X3293203Y5136272D1*
X3302249D1*
G37*
G36*
X3338315Y5143420D2*
X3340390Y5144037D1*
X3342385Y5144829D1*
X3344297Y5145799D1*
X3346196Y5146777D1*
X3347945Y5147957D1*
X3349546Y5149353D1*
X3351133Y5150744D1*
X3352503Y5152350D1*
X3353669Y5154161D1*
X3358335D1*
X3343753Y5086108D1*
X3337636D1*
X3349681Y5142592D1*
X3346697Y5141039D1*
X3343646Y5139873D1*
X3340499Y5139093D1*
X3337352Y5138312D1*
X3334123Y5137668D1*
X3330828Y5137147D1*
X3332089Y5142009D1*
X3334164Y5142335D1*
X3336240Y5142802D1*
X3338315Y5143420D1*
G37*
G36*
X3302249Y4622383D2*
X3305451Y4637554D1*
X3311581D1*
X3308367Y4622383D1*
X3318377D1*
X3317413Y4617235D1*
X3307201D1*
X3300297Y4585050D1*
X3300039Y4583883D1*
X3299862Y4582995D1*
X3299768Y4582378D1*
X3299673Y4581760D1*
X3299618Y4581068D1*
Y4580289D1*
Y4579381D1*
X3299862Y4578573D1*
X3300352Y4577854D1*
X3300840Y4577142D1*
X3301667Y4576790D1*
X3302833D1*
X3305220D1*
X3307621Y4576979D1*
X3310022Y4577373D1*
X3308950Y4572123D1*
X3307920Y4571995D1*
X3306875Y4571892D1*
X3305844Y4571832D1*
X3304801Y4571764D1*
X3303769Y4571730D1*
X3302724D1*
X3301558D1*
X3300433Y4571811D1*
X3299333Y4571975D1*
X3298222Y4572138D1*
X3297231Y4572476D1*
X3296364Y4572999D1*
X3295482Y4573514D1*
X3294790Y4574247D1*
X3294274Y4575182D1*
X3293760Y4576125D1*
X3293488Y4577339D1*
Y4578831D1*
Y4579346D1*
X3293542Y4580058D1*
X3293638Y4580967D1*
X3293732Y4581875D1*
X3293923Y4582879D1*
X3294180Y4583984D1*
X3301084Y4617235D1*
X3292037D1*
X3293203Y4622383D1*
X3302249D1*
G37*
G36*
X3327572Y4626858D2*
X3328408Y4628650D1*
X3329369Y4630333D1*
X3330453Y4631908D1*
X3331660Y4633375D1*
X3332986Y4634734D1*
X3333927Y4635570D1*
X3334917Y4636350D1*
X3335955Y4637073D1*
X3337600Y4638054D1*
X3339350Y4638906D1*
X3340572Y4639400D1*
X3341828Y4639824D1*
X3343118Y4640175D1*
X3344441Y4640453D1*
X3345799Y4640659D1*
X3347899Y4640831D1*
X3349860Y4640845D1*
X3352094Y4640692D1*
X3353724Y4640453D1*
X3355315Y4640112D1*
X3356865Y4639664D1*
X3358343Y4639114D1*
X3359740Y4638461D1*
X3361059Y4637703D1*
X3362297Y4636840D1*
X3363448Y4635873D1*
X3364495Y4634810D1*
X3365437Y4633651D1*
X3366276Y4632398D1*
X3367008Y4631050D1*
X3367436Y4630096D1*
X3367799Y4629100D1*
X3368098Y4628063D1*
X3368331Y4626984D1*
X3368500Y4625864D1*
X3368631Y4624104D1*
X3368617Y4622205D1*
X3368454Y4620332D1*
X3368264Y4619139D1*
X3368005Y4617988D1*
X3367681Y4616879D1*
X3367289Y4615815D1*
X3366585Y4614287D1*
X3365774Y4612820D1*
X3364860Y4611412D1*
X3363840Y4610063D1*
X3362715Y4608772D1*
X3361077Y4607139D1*
X3358840Y4605219D1*
X3356392Y4603437D1*
X3349992Y4599505D1*
X3337869Y4592558D1*
X3333768Y4589801D1*
X3331400Y4587950D1*
X3329235Y4585986D1*
X3327647Y4584333D1*
X3326579Y4583016D1*
X3325631Y4581617D1*
X3324807Y4580136D1*
X3324102Y4578575D1*
X3323895Y4578035D1*
X3324084Y4577854D1*
X3361804D1*
X3361824Y4577803D1*
X3360776Y4572219D1*
X3316831D1*
X3316951Y4573759D1*
X3317150Y4575245D1*
X3317425Y4576677D1*
X3317777Y4578055D1*
X3318206Y4579378D1*
X3318711Y4580647D1*
X3319293Y4581861D1*
X3320270Y4583601D1*
X3321353Y4585260D1*
X3322542Y4586839D1*
X3323837Y4588336D1*
X3325719Y4590210D1*
X3327738Y4591966D1*
X3329895Y4593609D1*
X3338722Y4599060D1*
X3349927Y4605466D1*
X3352589Y4607247D1*
X3355016Y4609129D1*
X3356348Y4610310D1*
X3357570Y4611550D1*
X3358682Y4612848D1*
X3359681Y4614203D1*
X3360566Y4615615D1*
X3361080Y4616601D1*
X3361517Y4617631D1*
X3361877Y4618709D1*
X3362156Y4619832D1*
X3362358Y4621001D1*
X3362482Y4622217D1*
X3362521Y4623944D1*
X3362433Y4625227D1*
X3362238Y4626433D1*
X3361932Y4627562D1*
X3361669Y4628272D1*
X3361360Y4628948D1*
X3360818Y4629899D1*
X3360210Y4630777D1*
X3359535Y4631583D1*
X3358795Y4632315D1*
X3357987Y4632974D1*
X3357117Y4633562D1*
X3356188Y4634077D1*
X3355199Y4634521D1*
X3353791Y4635000D1*
X3352303Y4635353D1*
X3350770Y4635583D1*
X3348785Y4635701D1*
X3347232Y4635661D1*
X3345651Y4635488D1*
X3344640Y4635297D1*
X3343664Y4635046D1*
X3342722Y4634732D1*
X3341816Y4634358D1*
X3340518Y4633699D1*
X3339306Y4632945D1*
X3338181Y4632094D1*
X3337143Y4631150D1*
X3336193Y4630110D1*
X3335332Y4628986D1*
X3334563Y4627785D1*
X3333885Y4626508D1*
X3333298Y4625152D1*
X3332650Y4623241D1*
X3332164Y4621262D1*
X3331841Y4619219D1*
X3331703Y4617646D1*
X3331640Y4617528D1*
X3325580D1*
X3325726Y4619593D1*
X3326026Y4621669D1*
X3326480Y4623676D1*
X3327085Y4625609D1*
X3327572Y4626858D1*
G37*
G36*
X661340Y1294413D2*
X673982Y1224996D1*
X667077D1*
X663579Y1246576D1*
X662609Y1252218D1*
D1*
X635190D1*
X656484Y1288772D1*
X656675D1*
X662609Y1252218D1*
X663579Y1246576D1*
X631887D1*
X619050Y1224996D1*
X611760D1*
X654151Y1294413D1*
X661340D1*
G37*
G36*
X1173534D2*
X1177400Y1294198D1*
X1180594Y1293652D1*
X1182739Y1293045D1*
X1184715Y1292217D1*
X1186349Y1291285D1*
X1187680Y1290301D1*
X1188869Y1289173D1*
X1189909Y1287902D1*
X1190804Y1286484D1*
X1191462Y1285115D1*
X1191971Y1283612D1*
X1192367Y1281728D1*
X1192576Y1279399D1*
X1192552Y1277265D1*
X1192383Y1275589D1*
X1192079Y1273988D1*
X1191638Y1272463D1*
X1191062Y1271014D1*
X1190350Y1269640D1*
X1189503Y1268341D1*
X1188520Y1267117D1*
X1187424Y1265984D1*
X1186240Y1264965D1*
X1184969Y1264059D1*
X1183610Y1263266D1*
X1182164Y1262587D1*
X1180630Y1262021D1*
X1179010Y1261568D1*
X1177521Y1261265D1*
X1177161Y1265537D1*
D1*
X1175087Y1264954D1*
X1173012Y1264371D1*
X1170841Y1264045D1*
X1168576Y1263991D1*
X1146698D1*
X1152050Y1288772D1*
X1173432D1*
X1175189D1*
X1176823Y1288581D1*
X1178341Y1288188D1*
X1179867Y1287808D1*
X1181197Y1287171D1*
X1182329Y1286303D1*
X1183462Y1285421D1*
X1184357Y1284282D1*
X1185001Y1282899D1*
X1185652Y1281501D1*
X1185978Y1279833D1*
Y1277894D1*
Y1275492D1*
X1185490Y1273432D1*
X1184520Y1271709D1*
X1183543Y1270000D1*
X1182248Y1268589D1*
X1180627Y1267491D1*
X1179007Y1266378D1*
X1177161Y1265537D1*
X1177521Y1261265D1*
Y1261075D1*
X1176240Y1256898D1*
D1*
X1177759Y1255962D1*
X1179285Y1255026D1*
X1180499Y1253764D1*
X1181407Y1252177D1*
X1182316Y1250591D1*
X1182770Y1248529D1*
Y1246007D1*
Y1243280D1*
X1182188Y1240948D1*
X1181021Y1238993D1*
X1179854Y1237054D1*
X1178328Y1235467D1*
X1176450Y1234234D1*
X1174571Y1232999D1*
X1172449Y1232104D1*
X1170081Y1231520D1*
X1167715Y1230924D1*
X1165335Y1230639D1*
X1162934D1*
X1139408D1*
X1145437Y1258349D1*
X1166339D1*
X1168475D1*
X1170537Y1258186D1*
X1172509Y1257861D1*
X1174490Y1257535D1*
X1176240Y1256898D1*
X1177521Y1261075D1*
X1178983Y1260825D1*
X1180278Y1260478D1*
X1181497Y1260020D1*
X1182638Y1259453D1*
X1183701Y1258777D1*
X1184685Y1257992D1*
X1185593Y1257097D1*
X1186421Y1256096D1*
X1187318Y1254751D1*
X1187919Y1253619D1*
X1188417Y1252437D1*
X1188895Y1250891D1*
X1189211Y1249268D1*
X1189366Y1247568D1*
X1189328Y1244962D1*
X1189106Y1242793D1*
X1188711Y1240768D1*
X1188146Y1238887D1*
X1187542Y1237430D1*
X1186665Y1235814D1*
X1185490Y1234085D1*
X1184163Y1232521D1*
X1182685Y1231118D1*
X1181055Y1229881D1*
X1179025Y1228663D1*
X1176835Y1227633D1*
X1174178Y1226693D1*
X1170346Y1225793D1*
X1165684Y1225171D1*
X1131558Y1224996D1*
X1131546Y1225049D1*
X1146609Y1294413D1*
X1173534D1*
G37*
G36*
X1698029Y1285760D2*
X1697348Y1286312D1*
X1696638Y1286828D1*
X1695899Y1287307D1*
X1695131Y1287751D1*
X1694335Y1288157D1*
X1693509Y1288528D1*
X1692654Y1288861D1*
X1691770Y1289159D1*
X1690857Y1289419D1*
X1689916Y1289643D1*
X1688944Y1289831D1*
X1686915Y1290096D1*
X1684768Y1290215D1*
X1682703Y1290197D1*
X1680769Y1290071D1*
X1678903Y1289837D1*
X1677106Y1289497D1*
X1675377Y1289051D1*
X1673717Y1288497D1*
X1672125Y1287837D1*
X1670600Y1287071D1*
X1669143Y1286213D1*
X1667748Y1285287D1*
X1666416Y1284297D1*
X1665144Y1283238D1*
X1663936Y1282113D1*
X1662789Y1280921D1*
X1661703Y1279663D1*
X1660681Y1278337D1*
X1659265Y1276247D1*
X1657997Y1274046D1*
X1656878Y1271736D1*
X1655907Y1269319D1*
X1655081Y1266795D1*
X1654399Y1264194D1*
X1653856Y1261566D1*
X1653454Y1258912D1*
X1653192Y1256235D1*
X1653070Y1253534D1*
X1653083Y1251244D1*
X1653213Y1249274D1*
X1653457Y1247388D1*
X1653816Y1245583D1*
X1654290Y1243857D1*
X1654877Y1242210D1*
X1655567Y1240652D1*
X1656364Y1239181D1*
X1657264Y1237799D1*
X1658268Y1236501D1*
X1659375Y1235293D1*
X1660584Y1234194D1*
X1661888Y1233197D1*
X1663290Y1232303D1*
X1664786Y1231514D1*
X1666379Y1230828D1*
X1668063Y1230256D1*
X1669824Y1229803D1*
X1671665Y1229472D1*
X1673584Y1229264D1*
X1676205Y1229175D1*
X1678268Y1229280D1*
X1679786Y1229476D1*
X1681281Y1229774D1*
X1682749Y1230175D1*
X1684663Y1230860D1*
X1686493Y1231696D1*
X1688238Y1232688D1*
X1689892Y1233833D1*
X1691455Y1235130D1*
X1692919Y1236576D1*
X1694281Y1238171D1*
X1695541Y1239915D1*
X1696692Y1241790D1*
X1697710Y1243774D1*
X1698596Y1245871D1*
X1699348Y1248079D1*
X1699514Y1248647D1*
X1699594Y1248719D1*
X1706102D1*
X1706109Y1248547D1*
X1705409Y1245862D1*
X1704533Y1243274D1*
X1703478Y1240785D1*
X1702245Y1238394D1*
X1701203Y1236681D1*
X1700060Y1235063D1*
X1698819Y1233542D1*
X1697478Y1232117D1*
X1696035Y1230787D1*
X1694490Y1229547D1*
X1692845Y1228419D1*
X1691100Y1227400D1*
X1689256Y1226488D1*
X1687311Y1225681D1*
X1685264Y1224993D1*
X1683109Y1224446D1*
X1680846Y1224037D1*
X1678478Y1223768D1*
X1676001Y1223639D1*
X1673432Y1223654D1*
X1670938Y1223828D1*
X1668556Y1224160D1*
X1666286Y1224648D1*
X1664126Y1225291D1*
X1662748Y1225804D1*
X1660778Y1226697D1*
X1658933Y1227713D1*
X1657209Y1228852D1*
X1656126Y1229680D1*
X1655097Y1230566D1*
X1654122Y1231507D1*
X1653203Y1232504D1*
X1652343Y1233554D1*
X1651538Y1234655D1*
X1650791Y1235810D1*
X1649778Y1237639D1*
X1648894Y1239589D1*
X1648140Y1241656D1*
X1647524Y1243816D1*
X1647045Y1246060D1*
X1646706Y1248388D1*
X1646507Y1250801D1*
X1646449Y1253354D1*
X1646558Y1256542D1*
X1646853Y1259676D1*
X1647336Y1262760D1*
X1648004Y1265793D1*
X1648857Y1268776D1*
X1649894Y1271669D1*
X1651102Y1274441D1*
X1652003Y1276220D1*
X1652979Y1277946D1*
X1654033Y1279615D1*
X1655163Y1281231D1*
X1656369Y1282790D1*
X1657647Y1284281D1*
X1658996Y1285693D1*
X1660416Y1287025D1*
X1661906Y1288277D1*
X1663466Y1289450D1*
X1665097Y1290543D1*
X1666798Y1291558D1*
X1668567Y1292492D1*
X1670403Y1293319D1*
X1672302Y1294030D1*
X1674264Y1294625D1*
X1676290Y1295102D1*
X1678381Y1295466D1*
X1680535Y1295711D1*
X1682755Y1295843D1*
X1685385Y1295846D1*
X1688081Y1295665D1*
X1690682Y1295287D1*
X1692572Y1294875D1*
X1694408Y1294349D1*
X1696167Y1293707D1*
X1697835Y1292965D1*
X1699408Y1292119D1*
X1700888Y1291172D1*
X1702276Y1290122D1*
X1703564Y1288969D1*
X1704747Y1287705D1*
X1705822Y1286333D1*
X1706789Y1284856D1*
X1707650Y1283274D1*
X1708161Y1282157D1*
X1708613Y1280990D1*
X1709176Y1279152D1*
X1709597Y1277209D1*
X1709879Y1275157D1*
X1710020Y1272999D1*
X1710028Y1272441D1*
X1703432D1*
X1703327Y1274235D1*
X1703214Y1275290D1*
X1703062Y1276311D1*
X1702867Y1277295D1*
X1702633Y1278244D1*
X1702357Y1279157D1*
X1702039Y1280034D1*
X1701682Y1280875D1*
X1701283Y1281680D1*
X1700844Y1282449D1*
X1700362Y1283182D1*
X1699841Y1283881D1*
X1699278Y1284543D1*
X1698675Y1285169D1*
X1698029Y1285760D1*
G37*
G36*
X2702369Y757495D2*
X2704525Y756567D1*
X2706312Y755529D1*
X2707938Y754301D1*
X2709400Y752879D1*
X2710681Y751282D1*
X2711778Y749510D1*
X2712778Y747354D1*
X2713462Y745226D1*
X2713954Y742701D1*
X2714177Y739726D1*
X2714021Y735350D1*
X2713466Y731192D1*
X2712516Y727104D1*
X2711425Y723819D1*
X2710068Y720745D1*
X2708448Y717887D1*
X2706760Y715499D1*
X2705070Y713552D1*
X2703205Y711795D1*
X2701167Y710226D1*
X2698957Y708844D1*
X2697178Y707942D1*
X2695299Y707198D1*
X2692978Y706533D1*
X2690520Y706084D1*
X2690283Y711079D1*
D1*
X2688188Y710887D1*
X2685646Y710951D1*
X2683664Y711211D1*
X2682139Y711571D1*
X2680728Y712060D1*
X2679433Y712681D1*
X2678479Y713270D1*
X2677600Y713944D1*
X2676794Y714699D1*
X2675888Y715760D1*
X2674941Y717150D1*
X2674148Y718655D1*
X2673508Y720276D1*
X2673022Y722010D1*
X2672648Y724182D1*
X2672484Y726512D1*
X2672555Y729325D1*
X2673052Y733017D1*
X2674139Y737266D1*
X2675370Y740483D1*
X2676934Y743472D1*
X2678692Y746049D1*
X2680425Y748022D1*
X2682371Y749769D1*
X2684530Y751291D1*
X2686077Y752130D1*
X2687710Y752786D1*
X2689650Y753304D1*
X2691697Y753592D1*
X2694097Y753642D1*
X2696089Y753480D1*
X2697928Y753136D1*
X2699344Y752711D1*
X2700654Y752160D1*
X2701856Y751483D1*
X2702740Y750850D1*
X2703556Y750138D1*
X2704304Y749344D1*
X2705302Y748037D1*
X2706147Y746618D1*
X2706837Y745091D1*
X2707375Y743455D1*
X2707759Y741710D1*
X2708013Y739537D1*
X2708054Y737052D1*
X2707696Y733172D1*
X2706730Y728690D1*
X2705525Y725143D1*
X2703950Y721831D1*
X2702136Y718946D1*
X2700450Y716879D1*
X2698552Y715049D1*
X2696442Y713454D1*
X2695310Y712764D1*
X2693724Y712010D1*
X2692049Y711449D1*
X2690283Y711079D1*
X2690520Y706084D1*
X2687924Y705853D1*
X2685303Y705836D1*
X2683240Y705976D1*
X2681293Y706259D1*
X2679459Y706682D1*
X2677741Y707248D1*
X2676529Y707765D1*
X2675381Y708362D1*
X2674297Y709039D1*
X2673277Y709795D1*
X2672322Y710634D1*
X2671147Y711871D1*
X2670097Y713213D1*
X2669177Y714652D1*
X2668387Y716189D1*
X2667727Y717824D1*
X2667197Y719556D1*
X2666797Y721387D1*
X2666478Y723815D1*
X2666362Y727163D1*
X2666587Y730900D1*
X2667160Y734584D1*
X2668087Y738213D1*
X2669227Y741390D1*
X2670639Y744357D1*
X2672144Y746846D1*
X2673874Y749167D1*
X2675816Y751282D1*
X2677961Y753177D1*
X2680310Y754849D1*
X2682570Y756148D1*
X2684669Y757093D1*
X2686888Y757831D1*
X2689224Y758361D1*
X2691677Y758682D1*
X2695256Y758782D1*
X2698287Y758510D1*
X2700913Y757954D1*
X2702369Y757495D1*
G37*
G36*
X2752500Y707175D2*
X2754249Y716316D1*
X2754046D1*
X2752175Y713332D1*
X2749651Y710836D1*
X2746518Y708829D1*
X2743371Y706822D1*
X2739913Y705818D1*
X2736156D1*
X2733958D1*
X2731937Y706062D1*
X2730079Y706550D1*
X2728235Y707025D1*
X2726634Y707811D1*
X2725278Y708883D1*
X2723908Y709954D1*
X2722850Y711339D1*
X2722118Y713060D1*
X2721371Y714769D1*
X2720992Y716831D1*
Y719232D1*
Y720588D1*
X2721249Y722568D1*
X2721765Y725159D1*
X2728669Y757345D1*
X2734799D1*
X2727801Y724970D1*
X2727610Y724196D1*
X2727448Y723369D1*
X2727312Y722487D1*
X2727177Y721619D1*
X2727122Y720751D1*
Y719909D1*
Y718297D1*
X2727407Y716899D1*
X2727991Y715732D1*
X2728573Y714566D1*
X2729361Y713630D1*
X2730323Y712911D1*
X2731301Y712206D1*
X2732412Y711677D1*
X2733688Y711352D1*
X2734949Y711039D1*
X2736251Y710877D1*
X2737621D1*
X2739886D1*
X2742042Y711352D1*
X2744091Y712328D1*
X2746125Y713304D1*
X2748010Y714675D1*
X2749719Y716465D1*
X2751441Y718241D1*
X2752948Y720412D1*
X2754249Y722975D1*
X2755538Y725539D1*
X2756542Y728400D1*
X2757260Y731575D1*
X2762794Y757345D1*
X2768925D1*
X2758129Y707175D1*
X2752500D1*
G37*
G36*
X2784482Y757345D2*
X2787682Y772509D1*
X2793814D1*
X2790598Y757345D1*
X2800609D1*
X2799646Y752190D1*
X2789433D1*
X2782529Y720005D1*
X2782272Y718839D1*
X2782094Y717957D1*
X2782000Y717333D1*
X2781906Y716723D1*
X2781850Y716031D1*
Y715244D1*
Y714336D1*
X2782094Y713535D1*
X2782583Y712816D1*
X2783071Y712097D1*
X2783899Y711745D1*
X2785066D1*
X2787453D1*
X2789853Y711934D1*
X2792253Y712328D1*
X2791182Y707079D1*
X2790151Y706957D1*
X2789108Y706849D1*
X2788076Y706794D1*
X2787031Y706727D1*
X2786001Y706686D1*
X2784957D1*
X2783790D1*
X2782664Y706768D1*
X2781566Y706930D1*
X2780454Y707093D1*
X2779463Y707432D1*
X2778596Y707961D1*
X2777714Y708476D1*
X2777022Y709209D1*
X2776507Y710144D1*
X2775991Y711080D1*
X2775720Y712301D1*
Y713793D1*
Y714308D1*
X2775774Y715013D1*
X2775869Y715923D1*
X2775965Y716831D1*
X2776154Y717835D1*
X2776412Y718948D1*
X2783315Y752190D1*
X2774269D1*
X2775436Y757345D1*
X2784482D1*
G37*
G36*
X2815881D2*
X2813928Y748298D1*
X2814131D1*
X2815629Y750429D1*
X2817117Y752209D1*
X2818697Y753795D1*
X2820025Y754924D1*
X2821412Y755929D1*
X2822505Y756594D1*
X2823675Y757173D1*
X2824917Y757663D1*
X2826236Y758066D1*
X2827631Y758379D1*
X2829608Y758663D1*
X2831720Y758789D1*
X2834294Y758736D1*
X2836530Y758488D1*
X2838265Y758136D1*
X2839882Y757651D1*
X2841675Y756900D1*
X2843316Y755996D1*
X2844570Y755130D1*
X2845719Y754159D1*
X2846966Y752854D1*
X2847892Y751663D1*
X2848710Y750369D1*
X2849546Y748685D1*
X2850226Y746856D1*
X2850828Y744575D1*
X2851272Y741804D1*
X2851453Y738853D1*
X2851390Y736072D1*
X2851089Y733140D1*
X2850547Y730214D1*
X2849760Y727291D1*
X2848743Y724421D1*
X2847510Y721697D1*
X2846318Y719538D1*
X2844974Y717482D1*
X2843483Y715534D1*
X2841862Y713727D1*
X2840110Y712071D1*
X2838227Y710566D1*
X2836214Y709210D1*
X2834514Y708244D1*
X2832744Y707434D1*
X2830902Y706787D1*
X2828988Y706304D1*
X2827003Y705987D1*
X2824949Y705833D1*
X2821797Y705911D1*
X2818984Y706315D1*
X2816966Y706845D1*
X2815311Y707483D1*
X2813789Y708285D1*
X2812563Y709133D1*
X2811457Y710123D1*
X2810470Y711255D1*
X2809720Y712336D1*
X2809089Y713525D1*
X2808579Y714816D1*
X2808136Y716459D1*
X2808001Y717197D1*
X2811475Y717844D1*
D1*
X2810869Y719310D1*
X2810415Y720894D1*
X2810112Y722593D1*
X2809949Y724724D1*
X2810009Y727392D1*
X2810467Y731083D1*
X2811500Y735353D1*
X2812849Y739049D1*
X2814463Y742280D1*
X2816413Y745272D1*
X2818218Y747413D1*
X2820241Y749314D1*
X2822487Y750970D1*
X2823081Y751343D1*
X2824726Y752201D1*
X2826454Y752861D1*
X2828269Y753323D1*
X2830168Y753587D1*
X2832256Y753651D1*
X2834135Y753522D1*
X2835866Y753215D1*
X2837194Y752823D1*
X2838420Y752308D1*
X2839542Y751669D1*
X2840366Y751071D1*
X2841123Y750394D1*
X2841978Y749438D1*
X2842867Y748168D1*
X2843621Y746808D1*
X2844239Y745360D1*
X2844787Y743558D1*
X2845150Y741636D1*
X2845324Y739593D1*
X2845277Y736689D1*
X2844764Y732613D1*
X2843673Y728186D1*
X2842331Y724600D1*
X2840723Y721465D1*
X2838909Y718753D1*
X2837109Y716675D1*
X2835085Y714839D1*
X2832839Y713249D1*
X2831224Y712387D1*
X2829521Y711719D1*
X2827726Y711245D1*
X2825600Y710944D1*
X2823209Y710888D1*
X2821097Y711071D1*
X2819424Y711402D1*
X2817878Y711892D1*
X2816688Y712424D1*
X2815585Y713068D1*
X2814572Y713825D1*
X2813647Y714694D1*
X2812819Y715663D1*
X2812094Y716713D1*
X2811475Y717844D1*
X2808001Y717197D1*
X2807811D1*
X2801675Y688701D1*
X2795663D1*
X2810331Y757332D1*
X2810353Y757345D1*
X2815881D1*
G37*
G36*
X2889286Y707175D2*
X2891035Y716316D1*
X2890832D1*
X2888961Y713332D1*
X2886438Y710836D1*
X2883304Y708829D1*
X2880157Y706822D1*
X2876699Y705818D1*
X2872942D1*
X2870745D1*
X2868724Y706062D1*
X2866866Y706550D1*
X2865021Y707025D1*
X2863421Y707811D1*
X2862064Y708883D1*
X2860694Y709954D1*
X2859636Y711339D1*
X2858904Y713060D1*
X2858159Y714769D1*
X2857778Y716831D1*
Y719232D1*
Y720588D1*
X2858037Y722568D1*
X2858551Y725159D1*
X2865455Y757345D1*
X2871585D1*
X2864587Y724970D1*
X2864398Y724196D1*
X2864235Y723369D1*
X2864098Y722487D1*
X2863963Y721619D1*
X2863909Y720751D1*
Y719909D1*
Y718297D1*
X2864194Y716899D1*
X2864777Y715732D1*
X2865361Y714566D1*
X2866147Y713630D1*
X2867110Y712911D1*
X2868087Y712206D1*
X2869198Y711677D1*
X2870474Y711352D1*
X2871735Y711039D1*
X2873037Y710877D1*
X2874407D1*
X2876672D1*
X2878829Y711352D1*
X2880877Y712328D1*
X2882911Y713304D1*
X2884797Y714675D1*
X2886505Y716465D1*
X2888228Y718241D1*
X2889734Y720412D1*
X2891035Y722975D1*
X2892324Y725539D1*
X2893328Y728400D1*
X2894047Y731575D1*
X2899580Y757345D1*
X2905711D1*
X2894915Y707175D1*
X2889286D1*
G37*
G36*
X2921269Y757345D2*
X2924470Y772509D1*
X2930600D1*
X2927386Y757345D1*
X2937395D1*
X2936432Y752190D1*
X2926219D1*
X2919315Y720005D1*
X2919058Y718839D1*
X2918882Y717957D1*
X2918786Y717333D1*
X2918692Y716723D1*
X2918638Y716031D1*
Y715244D1*
Y714336D1*
X2918882Y713535D1*
X2919370Y712816D1*
X2919858Y712097D1*
X2920685Y711745D1*
X2921852D1*
X2924239D1*
X2926639Y711934D1*
X2929041Y712328D1*
X2927969Y707079D1*
X2926938Y706957D1*
X2925894Y706849D1*
X2924862Y706794D1*
X2923819Y706727D1*
X2922787Y706686D1*
X2921743D1*
X2920577D1*
X2919451Y706768D1*
X2918353Y706930D1*
X2917240Y707093D1*
X2916251Y707432D1*
X2915382Y707961D1*
X2914500Y708476D1*
X2913808Y709209D1*
X2913293Y710144D1*
X2912778Y711080D1*
X2912507Y712301D1*
Y713793D1*
Y714308D1*
X2912560Y715013D1*
X2912656Y715923D1*
X2912751Y716831D1*
X2912941Y717835D1*
X2913198Y718948D1*
X2920102Y752190D1*
X2911055D1*
X2912222Y757345D1*
X2921269D1*
G37*
G36*
X2984352Y764493D2*
X2986427Y765104D1*
X2988421Y765903D1*
X2990333Y766866D1*
X2992245Y767843D1*
X2993995Y769024D1*
X2995583Y770420D1*
X2997169Y771818D1*
X2998552Y773417D1*
X2999719Y775235D1*
X3004385D1*
X2989804Y707175D1*
X2983673D1*
X2995731Y763665D1*
X2992748Y762106D1*
X2989682Y760940D1*
X2986535Y760167D1*
X2983403Y759379D1*
X2980175Y758741D1*
X2976865Y758213D1*
X2978126Y763083D1*
X2980201Y763408D1*
X2982277Y763869D1*
X2984352Y764493D1*
G37*
G36*
X2141442Y776592D2*
X2135516Y748501D1*
X2135705D1*
X2137303Y745671D1*
D1*
X2138982Y747702D1*
X2140862Y749518D1*
X2142941Y751122D1*
X2144276Y751928D1*
X2145682Y752580D1*
X2147157Y753079D1*
X2148702Y753424D1*
X2150589Y753631D1*
X2152618Y753634D1*
X2154576Y753462D1*
X2156025Y753203D1*
X2157367Y752839D1*
X2158606Y752365D1*
X2159739Y751785D1*
X2160520Y751280D1*
X2161241Y750714D1*
X2161903Y750089D1*
X2162507Y749404D1*
X2163232Y748415D1*
X2164017Y747083D1*
X2164667Y745644D1*
X2165182Y744098D1*
X2165564Y742445D1*
X2165848Y740320D1*
X2165938Y738062D1*
X2165727Y734428D1*
X2165097Y730707D1*
X2164049Y726938D1*
X2162828Y723890D1*
X2161314Y721052D1*
X2159663Y718643D1*
X2157951Y716672D1*
X2156043Y714924D1*
X2153934Y713400D1*
X2153265Y712993D1*
X2151870Y712289D1*
X2150400Y711726D1*
X2148591Y711249D1*
X2146680Y710966D1*
X2144697Y710877D1*
X2142451Y711017D1*
X2140577Y711386D1*
X2139029Y711924D1*
X2137487Y712717D1*
X2135993Y713760D1*
X2134697Y714987D1*
X2133688Y716277D1*
X2132709Y717978D1*
X2131955Y719869D1*
X2131367Y722251D1*
X2131059Y725143D1*
X2131151Y728678D1*
X2131654Y732239D1*
X2132722Y736483D1*
X2133966Y739819D1*
X2135549Y742962D1*
X2137303Y745671D1*
X2135705Y748501D1*
X2136850Y750327D1*
X2138052Y751888D1*
X2139385Y753319D1*
X2140846Y754617D1*
X2142441Y755782D1*
X2143802Y756602D1*
X2145227Y757291D1*
X2146718Y757852D1*
X2148274Y758282D1*
X2149898Y758583D1*
X2151587Y758753D1*
X2154009Y758780D1*
X2156432Y758579D1*
X2158360Y758226D1*
X2160150Y757706D1*
X2161801Y757018D1*
X2163570Y756050D1*
X2164957Y755089D1*
X2166223Y754009D1*
X2167367Y752806D1*
X2168547Y751248D1*
X2169558Y749545D1*
X2170394Y747689D1*
X2171135Y745387D1*
X2171711Y742640D1*
X2172017Y739747D1*
X2172054Y736816D1*
X2171843Y733765D1*
X2171383Y730715D1*
X2170555Y727235D1*
X2169571Y724224D1*
X2168358Y721373D1*
X2166920Y718693D1*
X2165260Y716181D1*
X2163929Y714499D1*
X2162482Y712941D1*
X2160920Y711507D1*
X2158895Y709948D1*
X2157083Y708783D1*
X2155549Y707963D1*
X2153946Y707274D1*
X2152277Y706719D1*
X2150541Y706298D1*
X2148738Y706008D1*
X2146390Y705831D1*
X2144462Y705841D1*
X2142602Y706001D1*
X2140828Y706315D1*
X2139138Y706781D1*
X2137927Y707231D1*
X2136761Y707768D1*
X2135644Y708391D1*
X2134576Y709101D1*
X2133572Y709887D1*
X2132655Y710751D1*
X2131825Y711690D1*
X2131081Y712705D1*
X2130424Y713797D1*
X2129852Y714965D1*
X2129366Y716209D1*
X2128967Y717528D1*
X2128706Y718648D1*
X2128517D1*
X2126075Y707175D1*
X2120639D1*
X2135315Y776592D1*
X2141442D1*
G37*
G36*
X2210860Y707175D2*
X2212610Y716316D1*
X2212420D1*
X2210534Y713332D1*
X2208025Y710836D1*
X2204878Y708829D1*
X2201732Y706822D1*
X2198287Y705818D1*
X2194530D1*
X2192319D1*
X2190298Y706062D1*
X2188453Y706550D1*
X2186609Y707025D1*
X2184995Y707811D1*
X2183638Y708883D1*
X2182282Y709954D1*
X2181224Y711339D1*
X2180478Y713060D1*
X2179732Y714769D1*
X2179366Y716831D1*
Y719232D1*
Y720588D1*
X2179623Y722568D1*
X2180139Y725159D1*
X2187043Y757345D1*
X2193160D1*
X2186161Y724970D1*
X2185971Y724196D1*
X2185808Y723369D1*
X2185686Y722487D1*
X2185551Y721619D1*
X2185483Y720751D1*
Y719909D1*
Y718297D1*
X2185781Y716899D1*
X2186365Y715732D1*
X2186948Y714566D1*
X2187720Y713630D1*
X2188697Y712911D1*
X2189660Y712206D1*
X2190786Y711677D1*
X2192047Y711352D1*
X2193308Y711039D1*
X2194625Y710877D1*
X2195982D1*
X2198260D1*
X2200403Y711352D1*
X2202450Y712328D1*
X2204499Y713304D1*
X2206370Y714675D1*
X2208093Y716465D1*
X2209802Y718241D1*
X2211307Y720412D1*
X2212610Y722975D1*
X2213912Y725539D1*
X2214916Y728400D1*
X2215621Y731575D1*
X2221168Y757345D1*
X2227285D1*
X2216503Y707175D1*
X2210860D1*
G37*
G36*
X2242843Y757345D2*
X2246056Y772509D1*
X2252175D1*
X2248972Y757345D1*
X2258983D1*
X2258007Y752190D1*
X2247807D1*
X2240903Y720005D1*
X2240646Y718839D1*
X2240455Y717957D1*
X2240361Y717333D1*
X2240265Y716723D1*
X2240224Y716031D1*
Y715244D1*
Y714336D1*
X2240455Y713535D1*
X2240944Y712816D1*
X2241432Y712097D1*
X2242260Y711745D1*
X2243425D1*
X2245827D1*
X2248227Y711934D1*
X2250627Y712328D1*
X2249556Y707079D1*
X2248512Y706957D1*
X2247482Y706849D1*
X2246437Y706794D1*
X2245406Y706727D1*
X2244361Y706686D1*
X2243331D1*
X2242164D1*
X2241025Y706768D1*
X2239927Y706930D1*
X2238828Y707093D1*
X2237837Y707432D1*
X2236955Y707961D1*
X2236088Y708476D1*
X2235396Y709209D1*
X2234867Y710144D1*
X2234352Y711080D1*
X2234094Y712301D1*
Y713793D1*
Y714308D1*
X2234148Y715013D1*
X2234243Y715923D1*
X2234339Y716831D1*
X2234514Y717835D1*
X2234772Y718948D1*
X2241676Y752190D1*
X2232629D1*
X2233795Y757345D1*
X2242843D1*
G37*
G36*
X2271623D2*
X2274825Y772509D1*
X2280955D1*
X2277741Y757345D1*
X2287751D1*
X2286787Y752190D1*
X2276575D1*
X2269671Y720005D1*
X2269413Y718839D1*
X2269236Y717957D1*
X2269142Y717333D1*
X2269047Y716723D1*
X2268992Y716031D1*
Y715244D1*
Y714336D1*
X2269236Y713535D1*
X2269724Y712816D1*
X2270214Y712097D1*
X2271041Y711745D1*
X2272207D1*
X2274594D1*
X2276995Y711934D1*
X2279396Y712328D1*
X2278324Y707079D1*
X2277294Y706957D1*
X2276249Y706849D1*
X2275218Y706794D1*
X2274173Y706727D1*
X2273143Y706686D1*
X2272098D1*
X2270932D1*
X2269806Y706768D1*
X2268707Y706930D1*
X2267596Y707093D1*
X2266605Y707432D1*
X2265738Y707961D1*
X2264856Y708476D1*
X2264164Y709209D1*
X2263648Y710144D1*
X2263134Y711080D1*
X2262862Y712301D1*
Y713793D1*
Y714308D1*
X2262916Y715013D1*
X2263010Y715923D1*
X2263106Y716831D1*
X2263297Y717835D1*
X2263554Y718948D1*
X2270458Y752190D1*
X2261411D1*
X2262577Y757345D1*
X2271623D1*
G37*
G36*
X2324549Y757495D2*
X2326703Y756567D1*
X2328492Y755529D1*
X2330117Y754301D1*
X2331579Y752879D1*
X2332860Y751282D1*
X2333958Y749510D1*
X2334957Y747354D1*
X2335640Y745226D1*
X2336133Y742701D1*
X2336357Y739726D1*
X2336201Y735350D1*
X2335646Y731192D1*
X2334696Y727104D1*
X2333605Y723819D1*
X2332248Y720745D1*
X2330626Y717887D1*
X2328938Y715499D1*
X2327249Y713552D1*
X2325385Y711795D1*
X2323346Y710226D1*
X2321135Y708844D1*
X2319358Y707942D1*
X2317478Y707198D1*
X2315157Y706533D1*
X2312698Y706084D1*
X2312462Y711079D1*
D1*
X2310366Y710887D1*
X2307824Y710951D1*
X2305844Y711211D1*
X2304318Y711571D1*
X2302908Y712060D1*
X2301612Y712681D1*
X2300657Y713270D1*
X2299778Y713944D1*
X2298972Y714699D1*
X2298067Y715760D1*
X2297119Y717150D1*
X2296327Y718655D1*
X2295686Y720276D1*
X2295201Y722010D1*
X2294827Y724182D1*
X2294663Y726512D1*
X2294734Y729325D1*
X2295232Y733017D1*
X2296318Y737266D1*
X2297550Y740483D1*
X2299114Y743472D1*
X2300870Y746049D1*
X2302605Y748022D1*
X2304550Y749769D1*
X2306710Y751291D1*
X2308256Y752130D1*
X2309888Y752786D1*
X2311828Y753304D1*
X2313875Y753592D1*
X2316277Y753642D1*
X2318268Y753480D1*
X2320108Y753136D1*
X2321524Y752711D1*
X2322832Y752160D1*
X2324034Y751483D1*
X2324920Y750850D1*
X2325735Y750138D1*
X2326483Y749344D1*
X2327480Y748037D1*
X2328325Y746618D1*
X2329016Y745091D1*
X2329554Y743455D1*
X2329937Y741710D1*
X2330192Y739537D1*
X2330232Y737052D1*
X2329874Y733172D1*
X2328908Y728690D1*
X2327703Y725143D1*
X2326129Y721831D1*
X2324315Y718946D1*
X2322630Y716879D1*
X2320731Y715049D1*
X2318621Y713454D1*
X2317490Y712764D1*
X2315903Y712010D1*
X2314227Y711449D1*
X2312462Y711079D1*
X2312698Y706084D1*
X2310102Y705853D1*
X2307482Y705836D1*
X2305419Y705976D1*
X2303471Y706259D1*
X2301638Y706682D1*
X2299920Y707248D1*
X2298707Y707765D1*
X2297559Y708362D1*
X2296475Y709039D1*
X2295455Y709795D1*
X2294500Y710634D1*
X2293327Y711871D1*
X2292276Y713213D1*
X2291356Y714652D1*
X2290566Y716189D1*
X2289907Y717824D1*
X2289377Y719556D1*
X2288975Y721387D1*
X2288656Y723815D1*
X2288541Y727163D1*
X2288765Y730900D1*
X2289339Y734584D1*
X2290265Y738213D1*
X2291406Y741390D1*
X2292818Y744357D1*
X2294323Y746846D1*
X2296052Y749167D1*
X2297995Y751282D1*
X2300139Y753177D1*
X2302488Y754849D1*
X2304748Y756148D1*
X2306849Y757093D1*
X2309067Y757831D1*
X2311403Y758361D1*
X2313856Y758682D1*
X2317434Y758782D1*
X2320466Y758510D1*
X2323092Y757954D1*
X2324549Y757495D1*
G37*
G36*
X2356585Y757345D2*
X2354835Y748203D1*
X2355038D1*
X2356911Y751188D1*
X2359420Y753697D1*
X2362566Y755744D1*
X2365713Y757780D1*
X2369157Y758797D1*
X2372929D1*
X2375126D1*
X2377147Y758538D1*
X2379005Y758024D1*
X2380849Y757508D1*
X2382450Y756707D1*
X2383807Y755636D1*
X2385176Y754577D1*
X2386220Y753181D1*
X2386967Y751458D1*
X2387713Y749749D1*
X2388093Y747688D1*
Y745287D1*
Y743930D1*
X2387835Y741950D1*
X2387306Y739360D1*
X2380402Y707175D1*
X2374285D1*
X2381283Y739550D1*
X2381474Y740336D1*
X2381636Y741151D1*
X2381772Y742031D1*
X2381894Y742900D1*
X2381962Y743768D1*
Y744609D1*
Y746291D1*
X2381677Y747701D1*
X2381094Y748841D1*
X2380510Y749966D1*
X2379724Y750888D1*
X2378761Y751608D1*
X2377785Y752327D1*
X2376659Y752843D1*
X2375398Y753168D1*
X2374135Y753493D1*
X2372820Y753656D1*
X2371463D1*
X2369253D1*
X2367123Y753168D1*
X2365049Y752190D1*
X2362974Y751214D1*
X2361060Y749844D1*
X2359311Y748054D1*
X2357562Y746277D1*
X2356042Y744108D1*
X2354740Y741543D1*
X2353438Y738980D1*
X2352475Y736118D1*
X2351824Y732945D1*
X2346277Y707175D1*
X2340255D1*
X2350955Y757345D1*
X2356585D1*
G37*
G36*
X3188493Y757480D2*
X3190650Y756559D1*
X3192437Y755518D1*
X3194063Y754287D1*
X3195525Y752870D1*
X3196806Y751276D1*
X3198004Y749316D1*
X3198903Y747354D1*
X3199587Y745223D1*
X3200079Y742692D1*
X3200302Y739713D1*
X3200146Y735339D1*
X3199591Y731188D1*
X3198640Y727104D1*
X3197550Y723812D1*
X3196193Y720739D1*
X3194572Y717879D1*
X3193084Y715743D1*
X3191416Y713780D1*
X3189572Y712001D1*
X3187556Y710406D1*
X3185367Y708995D1*
X3183608Y708071D1*
X3181744Y707303D1*
X3179442Y706606D1*
X3177004Y706125D1*
X3176181Y711031D1*
D1*
X3174072Y710867D1*
X3171429Y710967D1*
X3169475Y711259D1*
X3167972Y711644D1*
X3166585Y712161D1*
X3165312Y712807D1*
X3164377Y713417D1*
X3163516Y714112D1*
X3162728Y714888D1*
X3162013Y715747D1*
X3161066Y717142D1*
X3160273Y718650D1*
X3159633Y720272D1*
X3159147Y722007D1*
X3158773Y724176D1*
X3158609Y726501D1*
X3158665Y729100D1*
X3159135Y732791D1*
X3160193Y737042D1*
X3161495Y740476D1*
X3163059Y743465D1*
X3164816Y746034D1*
X3166550Y748008D1*
X3168496Y749756D1*
X3170655Y751278D1*
X3172202Y752117D1*
X3173835Y752772D1*
X3175774Y753291D1*
X3177822Y753579D1*
X3180222Y753629D1*
X3182214Y753467D1*
X3184052Y753126D1*
X3185469Y752702D1*
X3186778Y752152D1*
X3187980Y751475D1*
X3188865Y750841D1*
X3189681Y750127D1*
X3190429Y749331D1*
X3191427Y748024D1*
X3192272Y746608D1*
X3192962Y745083D1*
X3193500Y743449D1*
X3193883Y741707D1*
X3194138Y739537D1*
X3194178Y737051D1*
X3193820Y733164D1*
X3192854Y728677D1*
X3191650Y725140D1*
X3190075Y721831D1*
X3188261Y718946D1*
X3186575Y716878D1*
X3184677Y715043D1*
X3182567Y713441D1*
X3181241Y712646D1*
X3179644Y711917D1*
X3177958Y711379D1*
X3176181Y711031D1*
X3177004Y706125D1*
X3174428Y705860D1*
X3171962Y705808D1*
X3169870Y705915D1*
X3167894Y706163D1*
X3166031Y706552D1*
X3164285Y707084D1*
X3163050Y707576D1*
X3161881Y708146D1*
X3160774Y708797D1*
X3159734Y709526D1*
X3158757Y710335D1*
X3157845Y711223D1*
X3156731Y712517D1*
X3155745Y713908D1*
X3154891Y715398D1*
X3154165Y716986D1*
X3153571Y718669D1*
X3153105Y720453D1*
X3152769Y722332D1*
X3152530Y724818D1*
X3152528Y728514D1*
X3152879Y732232D1*
X3153581Y735896D1*
X3154635Y739499D1*
X3155883Y742598D1*
X3157240Y745205D1*
X3158820Y747639D1*
X3160623Y749896D1*
X3162399Y751719D1*
X3164589Y753559D1*
X3166984Y755177D1*
X3169282Y756428D1*
X3171416Y757319D1*
X3173668Y758001D1*
X3176038Y758474D1*
X3178888Y758757D1*
X3182097Y758751D1*
X3184861Y758437D1*
X3187249Y757887D1*
X3188493Y757480D1*
G37*
G36*
X3238625Y707175D2*
X3240374Y716316D1*
X3240171D1*
X3238299Y713332D1*
X3235776Y710836D1*
X3232643Y708829D1*
X3229496Y706822D1*
X3226038Y705804D1*
X3222281D1*
X3220083D1*
X3218062Y706049D1*
X3216203Y706537D1*
X3214360Y707025D1*
X3212759Y707798D1*
X3211403Y708870D1*
X3210033Y709941D1*
X3208975Y711339D1*
X3208243Y713047D1*
X3207496Y714769D1*
X3207117Y716831D1*
Y719232D1*
Y720588D1*
X3207374Y722568D1*
X3207890Y725159D1*
X3214794Y757332D1*
X3220924D1*
X3213925Y724955D1*
X3213735Y724182D1*
X3213572Y723356D1*
X3213437Y722487D1*
X3213302Y721605D1*
X3213247Y720751D1*
Y719909D1*
Y718282D1*
X3213531Y716899D1*
X3214115Y715732D1*
X3214698Y714566D1*
X3215486Y713617D1*
X3216448Y712911D1*
X3217425Y712193D1*
X3218537Y711677D1*
X3219812Y711352D1*
X3221073Y711026D1*
X3222375Y710864D1*
X3223745D1*
X3226010D1*
X3228167Y711352D1*
X3230215Y712328D1*
X3232249Y713291D1*
X3234135Y714675D1*
X3235844Y716451D1*
X3237566Y718241D1*
X3239072Y720412D1*
X3240374Y722975D1*
X3241663Y725525D1*
X3242667Y728400D1*
X3243385Y731575D1*
X3248919Y757332D1*
X3255050D1*
X3244253Y707175D1*
X3238625D1*
G37*
G36*
X3270606Y757332D2*
X3273807Y772509D1*
X3279938D1*
X3276723Y757332D1*
X3286734D1*
X3285770Y752190D1*
X3275558D1*
X3268654Y720005D1*
X3268396Y718839D1*
X3268219Y717944D1*
X3268125Y717333D1*
X3268030Y716709D1*
X3267975Y716017D1*
Y715244D1*
Y714336D1*
X3268219Y713522D1*
X3268707Y712803D1*
X3269196Y712097D1*
X3270024Y711745D1*
X3271190D1*
X3273577D1*
X3275978Y711934D1*
X3278378Y712328D1*
X3277307Y707079D1*
X3276276Y706944D1*
X3275232Y706849D1*
X3274201Y706781D1*
X3273156Y706713D1*
X3272126Y706686D1*
X3271081D1*
X3269915D1*
X3268789Y706768D1*
X3267690Y706930D1*
X3266579Y707093D1*
X3265588Y707432D1*
X3264720Y707948D1*
X3263839Y708462D1*
X3263147Y709196D1*
X3262631Y710131D1*
X3262115Y711080D1*
X3261845Y712287D1*
Y713780D1*
Y714295D1*
X3261899Y715013D1*
X3261993Y715923D1*
X3262089Y716831D1*
X3262278Y717835D1*
X3262537Y718933D1*
X3269440Y752190D1*
X3260394D1*
X3261560Y757332D1*
X3270606D1*
G37*
G36*
X3302005D2*
X3300052Y748298D1*
X3300256D1*
X3301753Y750428D1*
X3303241Y752205D1*
X3304822Y753789D1*
X3306491Y755182D1*
X3307894Y756160D1*
X3309012Y756797D1*
X3310205Y757346D1*
X3311474Y757807D1*
X3312818Y758180D1*
X3314727Y758541D1*
X3316772Y758745D1*
X3319636Y758776D1*
X3321928Y758592D1*
X3324051Y758218D1*
X3325693Y757759D1*
X3327218Y757168D1*
X3328911Y756311D1*
X3330206Y755483D1*
X3331396Y754554D1*
X3332484Y753522D1*
X3333474Y752385D1*
X3334357Y751148D1*
X3335131Y749814D1*
X3335915Y748085D1*
X3336542Y746217D1*
X3337088Y743896D1*
X3337467Y741077D1*
X3337581Y738031D1*
X3337441Y735092D1*
X3337060Y732159D1*
X3336437Y729234D1*
X3335568Y726319D1*
X3334480Y723497D1*
X3333408Y721256D1*
X3332185Y719118D1*
X3330811Y717084D1*
X3329294Y715160D1*
X3327647Y713383D1*
X3325869Y711755D1*
X3323959Y710276D1*
X3321920Y708945D1*
X3320203Y708013D1*
X3318415Y707243D1*
X3316555Y706638D1*
X3314623Y706196D1*
X3312621Y705919D1*
X3310549Y705807D1*
X3307684Y705925D1*
X3304878Y706364D1*
X3302877Y706909D1*
X3301239Y707571D1*
X3299732Y708398D1*
X3298522Y709262D1*
X3297433Y710272D1*
X3296463Y711424D1*
X3295732Y712524D1*
X3295121Y713726D1*
X3294560Y715264D1*
X3294167Y716945D1*
X3294126Y717184D1*
X3297600Y717840D1*
D1*
X3296993Y719303D1*
X3296539Y720883D1*
X3296236Y722581D1*
X3296073Y724711D1*
X3296134Y727385D1*
X3296592Y731072D1*
X3297625Y735339D1*
X3298974Y739035D1*
X3300588Y742266D1*
X3302538Y745257D1*
X3304343Y747402D1*
X3306366Y749304D1*
X3308612Y750970D1*
X3309407Y751458D1*
X3311062Y752286D1*
X3312801Y752917D1*
X3314626Y753354D1*
X3316782Y753609D1*
X3319024Y753614D1*
X3320853Y753428D1*
X3322264Y753136D1*
X3323572Y752722D1*
X3324777Y752185D1*
X3325879Y751525D1*
X3326686Y750908D1*
X3327428Y750213D1*
X3328102Y749438D1*
X3328992Y748164D1*
X3329745Y746802D1*
X3330364Y745353D1*
X3330912Y743551D1*
X3331274Y741629D1*
X3331458Y739281D1*
X3331386Y736459D1*
X3330845Y732378D1*
X3329726Y727946D1*
X3328358Y724379D1*
X3326728Y721255D1*
X3325034Y718745D1*
X3323234Y716672D1*
X3321210Y714839D1*
X3318963Y713248D1*
X3317349Y712385D1*
X3315646Y711714D1*
X3313850Y711236D1*
X3311724Y710930D1*
X3309333Y710875D1*
X3307222Y711059D1*
X3305549Y711391D1*
X3304003Y711886D1*
X3302812Y712420D1*
X3301710Y713067D1*
X3300697Y713824D1*
X3299772Y714694D1*
X3298944Y715661D1*
X3298219Y716710D1*
X3297600Y717840D1*
X3294126Y717184D1*
X3293936D1*
X3287799Y688701D1*
X3281787D1*
X3296455Y757319D1*
X3296478Y757332D1*
X3302005D1*
G37*
G36*
X3375411Y707175D2*
X3377160Y716316D1*
X3376957D1*
X3375085Y713332D1*
X3372563Y710836D1*
X3369429Y708829D1*
X3366282Y706822D1*
X3362824Y705804D1*
X3359067D1*
X3356870D1*
X3354849Y706049D1*
X3352991Y706537D1*
X3351146Y707025D1*
X3349546Y707798D1*
X3348189Y708870D1*
X3346819Y709941D1*
X3345761Y711339D1*
X3345029Y713047D1*
X3344283Y714769D1*
X3343903Y716831D1*
Y719232D1*
Y720588D1*
X3344161Y722568D1*
X3344676Y725159D1*
X3351580Y757332D1*
X3357710D1*
X3350711Y724955D1*
X3350522Y724182D1*
X3350360Y723356D1*
X3350223Y722487D1*
X3350088Y721605D1*
X3350034Y720751D1*
Y719909D1*
Y718282D1*
X3350319Y716899D1*
X3350902Y715732D1*
X3351486Y714566D1*
X3352272Y713617D1*
X3353235Y712911D1*
X3354211Y712193D1*
X3355323Y711677D1*
X3356598Y711352D1*
X3357860Y711026D1*
X3359161Y710864D1*
X3360531D1*
X3362797D1*
X3364954Y711352D1*
X3367001Y712328D1*
X3369035Y713291D1*
X3370921Y714675D1*
X3372630Y716451D1*
X3374353Y718241D1*
X3375858Y720412D1*
X3377160Y722975D1*
X3378449Y725525D1*
X3379453Y728400D1*
X3380172Y731575D1*
X3385705Y757332D1*
X3391836D1*
X3381039Y707175D1*
X3375411D1*
G37*
G36*
X3407394Y757332D2*
X3410594Y772509D1*
X3416724D1*
X3413510Y757332D1*
X3423520D1*
X3422556Y752190D1*
X3412344D1*
X3405440Y720005D1*
X3405182Y718839D1*
X3405007Y717944D1*
X3404911Y717333D1*
X3404816Y716709D1*
X3404762Y716017D1*
Y715244D1*
Y714336D1*
X3405007Y713522D1*
X3405495Y712803D1*
X3405983Y712097D1*
X3406810Y711745D1*
X3407976D1*
X3410364D1*
X3412764Y711934D1*
X3415165Y712328D1*
X3414093Y707079D1*
X3413063Y706944D1*
X3412018Y706849D1*
X3410987Y706781D1*
X3409944Y706713D1*
X3408912Y706686D1*
X3407867D1*
X3406702D1*
X3405576Y706768D1*
X3404478Y706930D1*
X3403365Y707093D1*
X3402375Y707432D1*
X3401507Y707948D1*
X3400625Y708462D1*
X3399933Y709196D1*
X3399417Y710131D1*
X3398903Y711080D1*
X3398631Y712287D1*
Y713780D1*
Y714295D1*
X3398685Y715013D1*
X3398781Y715923D1*
X3398875Y716831D1*
X3399066Y717835D1*
X3399323Y718933D1*
X3406227Y752190D1*
X3397180D1*
X3398346Y757332D1*
X3407394D1*
G37*
G36*
X3459734Y761807D2*
X3460576Y763600D1*
X3461537Y765285D1*
X3462618Y766862D1*
X3463407Y767853D1*
X3464251Y768797D1*
X3465150Y769689D1*
X3466094Y770525D1*
X3467085Y771303D1*
X3468657Y772366D1*
X3470335Y773302D1*
X3472118Y774110D1*
X3473357Y774570D1*
X3474630Y774957D1*
X3475938Y775272D1*
X3477281Y775513D1*
X3479360Y775740D1*
X3481465Y775804D1*
X3483718Y775697D1*
X3485360Y775496D1*
X3486959Y775192D1*
X3488517Y774781D1*
X3490026Y774265D1*
X3491454Y773646D1*
X3492799Y772923D1*
X3494060Y772094D1*
X3495238Y771161D1*
X3496319Y770130D1*
X3497298Y769003D1*
X3498173Y767781D1*
X3498948Y766465D1*
X3499403Y765533D1*
X3499797Y764555D1*
X3500126Y763537D1*
X3500392Y762478D1*
X3500594Y761378D1*
X3500777Y759650D1*
X3500812Y757799D1*
X3500698Y755896D1*
X3500537Y754681D1*
X3500310Y753510D1*
X3500016Y752382D1*
X3499656Y751297D1*
X3498993Y749744D1*
X3498217Y748255D1*
X3497337Y746825D1*
X3496353Y745457D1*
X3495264Y744150D1*
X3493667Y742493D1*
X3491928Y740923D1*
X3489559Y739081D1*
X3484354Y735727D1*
X3470035Y727509D1*
X3465930Y724756D1*
X3463568Y722902D1*
X3461404Y720934D1*
X3459820Y719282D1*
X3458745Y717969D1*
X3457795Y716571D1*
X3456969Y715089D1*
X3456265Y713525D1*
X3456056Y712986D1*
X3456245Y712803D1*
X3493980D1*
X3493999Y712752D1*
X3492937Y707175D1*
X3448992D1*
X3449113Y708713D1*
X3449311Y710198D1*
X3449587Y711630D1*
X3449938Y713008D1*
X3450367Y714332D1*
X3450873Y715601D1*
X3451454Y716816D1*
X3452434Y718555D1*
X3453520Y720213D1*
X3454709Y721791D1*
X3456003Y723290D1*
X3457882Y725165D1*
X3459904Y726921D1*
X3462062Y728564D1*
X3470891Y734014D1*
X3482088Y740419D1*
X3484751Y742199D1*
X3487177Y744079D1*
X3488513Y745259D1*
X3489738Y746500D1*
X3490848Y747799D1*
X3491845Y749155D1*
X3492727Y750566D1*
X3493241Y751550D1*
X3493678Y752581D1*
X3494038Y753660D1*
X3494318Y754783D1*
X3494520Y755954D1*
X3494643Y757168D1*
X3494682Y758892D1*
X3494594Y760177D1*
X3494399Y761385D1*
X3494093Y762513D1*
X3493831Y763222D1*
X3493349Y764223D1*
X3492789Y765154D1*
X3492159Y766008D1*
X3491461Y766790D1*
X3490694Y767497D1*
X3489865Y768134D1*
X3488975Y768697D1*
X3488026Y769189D1*
X3486669Y769731D1*
X3485218Y770147D1*
X3483710Y770436D1*
X3481759Y770625D1*
X3479951Y770638D1*
X3478344Y770512D1*
X3476814Y770249D1*
X3475835Y769999D1*
X3474890Y769688D1*
X3473979Y769314D1*
X3472685Y768652D1*
X3471478Y767895D1*
X3470354Y767045D1*
X3469318Y766102D1*
X3468367Y765066D1*
X3467505Y763941D1*
X3466731Y762740D1*
X3466050Y761461D1*
X3465459Y760104D1*
X3464816Y758194D1*
X3464333Y756217D1*
X3464010Y754172D1*
X3463877Y752594D1*
X3463815Y752475D1*
X3457741D1*
X3457894Y754543D1*
X3458198Y756621D1*
X3458651Y758627D1*
X3459252Y760560D1*
X3459734Y761807D1*
G37*
G36*
X654795Y776577D2*
X659787D1*
X663965Y775913D1*
X667335Y774584D1*
X670706Y773255D1*
X673432Y771383D1*
X675507Y768955D1*
X677576Y766514D1*
X679054Y763597D1*
X679929Y760193D1*
X680803Y756802D1*
X681238Y752991D1*
Y748773D1*
Y743335D1*
X680430Y738098D1*
X678810Y733080D1*
X677189Y728049D1*
X674774Y723613D1*
X671567Y719761D1*
X668360Y715895D1*
X664385Y712829D1*
X659659Y710564D1*
X654925Y708299D1*
X649451Y707160D1*
X643226D1*
X641965Y712803D1*
D1*
X625244D1*
Y712814D1*
X637882Y770936D1*
X656626Y770827D1*
X659024Y770550D1*
X660710Y770228D1*
X662299Y769811D1*
X663793Y769298D1*
X665189Y768689D1*
X666491Y767983D1*
X667694Y767181D1*
X668803Y766282D1*
X669814Y765287D1*
X670730Y764196D1*
X671549Y763008D1*
X672272Y761724D1*
X672898Y760344D1*
X673428Y758866D1*
X673861Y757293D1*
X674198Y755623D1*
X674499Y753247D1*
X674627Y750698D1*
X674585Y747747D1*
X673948Y741454D1*
X672630Y735554D1*
X671176Y731428D1*
X669387Y727803D1*
X667202Y724463D1*
X664909Y721749D1*
X662294Y719348D1*
X659354Y717256D1*
X656091Y715475D1*
X653357Y714395D1*
X650173Y713542D1*
X646487Y712986D1*
X641965Y712803D1*
X643226Y707160D1*
X617367D1*
X632437Y776577D1*
X654795D1*
G37*
G36*
X1197406Y776592D2*
X1196136Y770949D1*
X1156281D1*
X1150930Y745870D1*
X1188168D1*
X1186900Y740228D1*
X1149764D1*
X1143932Y712803D1*
X1184764D1*
X1183503Y707175D1*
X1136058D1*
X1150836Y776592D1*
X1197406D1*
G37*
G36*
X1711056D2*
X1709890Y770949D1*
X1672068D1*
X1666718Y745870D1*
X1700260D1*
X1699196Y740228D1*
X1665457D1*
X1658364Y707175D1*
X1651751D1*
X1666623Y776592D1*
X1711056D1*
G37*
G36*
X559913Y3015598D2*
X598806Y2916429D1*
X588668D1*
X576583Y2947266D1*
X531444D1*
X534360Y2955316D1*
D1*
X554223Y3006151D1*
X573388Y2955316D1*
X534360D1*
X531444Y2947266D1*
X519501Y2916429D1*
X509499D1*
X549361Y3015598D1*
X559913D1*
G37*
G36*
X1333615D2*
X1338534Y3015408D1*
X1343299Y3014840D1*
X1346538Y3014218D1*
X1349171Y3013488D1*
X1351644Y3012568D1*
X1353584Y3011657D1*
X1355412Y3010614D1*
X1357119Y3009432D1*
X1358689Y3008105D1*
X1360119Y3006633D1*
X1361411Y3005017D1*
X1362563Y3003259D1*
X1363373Y3001739D1*
X1364049Y3000101D1*
X1364589Y2998348D1*
X1364993Y2996478D1*
X1365264Y2994492D1*
X1365411Y2991844D1*
X1365343Y2989436D1*
X1365024Y2986999D1*
X1364449Y2984609D1*
X1363625Y2982280D1*
X1362585Y2980083D1*
X1361332Y2978030D1*
X1359873Y2976125D1*
X1358234Y2974398D1*
X1356425Y2972856D1*
X1354703Y2971660D1*
X1352860Y2970647D1*
X1350896Y2969831D1*
X1348812Y2969210D1*
X1348196Y2969070D1*
X1346293Y2974520D1*
D1*
X1342730Y2973220D1*
X1338885Y2972446D1*
X1333615Y2972121D1*
X1301117D1*
X1301110Y2972127D1*
Y3007542D1*
X1336719Y3007445D1*
X1339283Y3007197D1*
X1341664Y3006797D1*
X1343862Y3006244D1*
X1345391Y3005730D1*
X1346816Y3005130D1*
X1348138Y3004444D1*
X1349357Y3003672D1*
X1350474Y3002814D1*
X1351487Y3001870D1*
X1352398Y3000841D1*
X1353205Y2999727D1*
X1353908Y2998526D1*
X1354509Y2997240D1*
X1355007Y2995867D1*
X1355402Y2994411D1*
X1355694Y2992867D1*
X1355883Y2991238D1*
X1355975Y2988933D1*
X1355831Y2986749D1*
X1355252Y2984144D1*
X1354230Y2981680D1*
X1352898Y2979604D1*
X1351192Y2977734D1*
X1349004Y2976012D1*
X1346293Y2974520D1*
X1348196Y2969070D1*
Y2968791D1*
X1346323Y2962446D1*
D1*
X1348850Y2961543D1*
X1350861Y2960589D1*
X1352685Y2959484D1*
X1354094Y2958417D1*
X1355346Y2957236D1*
X1356441Y2955945D1*
X1357379Y2954541D1*
X1358160Y2953025D1*
X1358782Y2951398D1*
X1359248Y2949659D1*
X1359556Y2947808D1*
X1359718Y2945508D1*
X1359654Y2942770D1*
X1359223Y2939531D1*
X1358520Y2936987D1*
X1357668Y2935018D1*
X1356345Y2932865D1*
X1354770Y2930976D1*
X1353063Y2929446D1*
X1351004Y2928070D1*
X1348304Y2926755D1*
X1345185Y2925738D1*
X1340748Y2924930D1*
X1333615Y2924487D1*
X1301121D1*
X1301110Y2924493D1*
Y2964071D1*
X1334667Y2964063D1*
X1339340Y2963794D1*
X1343188Y2963224D1*
X1346323Y2962446D1*
X1348196Y2968791D1*
X1350440Y2968413D1*
X1351874Y2968076D1*
X1353257Y2967671D1*
X1354592Y2967197D1*
X1355877Y2966655D1*
X1357112Y2966043D1*
X1358297Y2965365D1*
X1359432Y2964617D1*
X1360517Y2963802D1*
X1361552Y2962917D1*
X1362538Y2961966D1*
X1363475Y2960945D1*
X1364349Y2959869D1*
X1365150Y2958752D1*
X1365878Y2957596D1*
X1366533Y2956400D1*
X1367115Y2955164D1*
X1367626Y2953888D1*
X1368063Y2952573D1*
X1368427Y2951218D1*
X1368718Y2949822D1*
X1369020Y2947654D1*
X1369156Y2945394D1*
X1368975Y2941122D1*
X1368503Y2937835D1*
X1367718Y2934904D1*
X1366766Y2932419D1*
X1365627Y2930182D1*
X1364025Y2927718D1*
X1362883Y2926260D1*
X1361564Y2924883D1*
X1360064Y2923592D1*
X1358081Y2922198D1*
X1355841Y2920927D1*
X1352938Y2919630D1*
X1349228Y2918375D1*
X1346014Y2917559D1*
X1342454Y2916955D1*
X1337944Y2916545D1*
X1291671Y2916429D1*
Y3015598D1*
X1333615D1*
G37*
G36*
X2132504Y2995803D2*
X2131290Y2997584D1*
X2129971Y2999244D1*
X2128549Y3000782D1*
X2127024Y3002198D1*
X2125395Y3003492D1*
X2123678Y3004668D1*
X2121892Y3005722D1*
X2120041Y3006654D1*
X2118119Y3007465D1*
X2116133Y3008155D1*
X2114093Y3008711D1*
X2112012Y3009136D1*
X2109890Y3009429D1*
X2107727Y3009591D1*
X2105004Y3009610D1*
X2102417Y3009480D1*
X2099934Y3009211D1*
X2097555Y3008803D1*
X2095280Y3008256D1*
X2093106Y3007571D1*
X2091035Y3006747D1*
X2090039Y3006282D1*
X2088121Y3005257D1*
X2086298Y3004139D1*
X2084571Y3002930D1*
X2082937Y3001634D1*
X2081399Y3000247D1*
X2079957Y2998769D1*
X2078608Y2997203D1*
X2077354Y2995547D1*
X2076189Y2993822D1*
X2075113Y2992038D1*
X2074123Y2990196D1*
X2073220Y2988294D1*
X2072406Y2986333D1*
X2071677Y2984314D1*
X2071037Y2982236D1*
X2070234Y2979047D1*
X2069613Y2975824D1*
X2069172Y2972566D1*
X2068909Y2969273D1*
X2068824Y2965946D1*
X2068916Y2962668D1*
X2069185Y2959409D1*
X2069634Y2956167D1*
X2070262Y2952941D1*
X2071072Y2949732D1*
X2071718Y2947640D1*
X2072451Y2945609D1*
X2073272Y2943640D1*
X2074178Y2941732D1*
X2075173Y2939886D1*
X2076256Y2938102D1*
X2077425Y2936381D1*
X2078685Y2934728D1*
X2080038Y2933165D1*
X2081487Y2931693D1*
X2083031Y2930311D1*
X2084669Y2929020D1*
X2086403Y2927818D1*
X2088231Y2926706D1*
X2090155Y2925689D1*
X2091155Y2925230D1*
X2093231Y2924413D1*
X2095411Y2923735D1*
X2097693Y2923197D1*
X2100079Y2922798D1*
X2102567Y2922537D1*
X2105159Y2922415D1*
X2107337Y2922423D1*
X2109171Y2922525D1*
X2110953Y2922722D1*
X2112681Y2923009D1*
X2114358Y2923390D1*
X2115984Y2923862D1*
X2117559Y2924427D1*
X2119081Y2925083D1*
X2120549Y2925814D1*
X2121958Y2926612D1*
X2123312Y2927476D1*
X2124609Y2928408D1*
X2125849Y2929407D1*
X2127034Y2930472D1*
X2128163Y2931605D1*
X2129751Y2933415D1*
X2131213Y2935346D1*
X2132549Y2937400D1*
X2133756Y2939575D1*
X2134836Y2941871D1*
X2135776Y2944262D1*
X2136563Y2946728D1*
X2137199Y2949272D1*
X2137685Y2951890D1*
X2138005Y2954210D1*
X2147427D1*
X2146999Y2950896D1*
X2146324Y2947365D1*
X2145766Y2945096D1*
X2145121Y2942892D1*
X2144387Y2940756D1*
X2143567Y2938686D1*
X2142661Y2936686D1*
X2141684Y2934768D1*
X2140634Y2932930D1*
X2139512Y2931175D1*
X2138318Y2929500D1*
X2137051Y2927909D1*
X2135713Y2926400D1*
X2134301Y2924974D1*
X2132822Y2923633D1*
X2131272Y2922379D1*
X2129654Y2921213D1*
X2127965Y2920134D1*
X2126207Y2919143D1*
X2124381Y2918239D1*
X2122487Y2917421D1*
X2120522Y2916697D1*
X2118499Y2916073D1*
X2116416Y2915554D1*
X2114274Y2915135D1*
X2112075Y2914820D1*
X2109816Y2914609D1*
X2107499Y2914500D1*
X2104789Y2914499D1*
X2101717Y2914647D1*
X2098748Y2914951D1*
X2095885Y2915413D1*
X2093126Y2916031D1*
X2090472Y2916806D1*
X2087927Y2917738D1*
X2086693Y2918261D1*
X2084303Y2919417D1*
X2082024Y2920684D1*
X2079854Y2922056D1*
X2077797Y2923534D1*
X2075850Y2925117D1*
X2074016Y2926806D1*
X2072291Y2928598D1*
X2070678Y2930496D1*
X2069169Y2932483D1*
X2067769Y2934552D1*
X2066476Y2936703D1*
X2065291Y2938938D1*
X2064214Y2941255D1*
X2063244Y2943654D1*
X2062382Y2946135D1*
X2061630Y2948677D1*
X2060987Y2951257D1*
X2060450Y2953874D1*
X2060022Y2956526D1*
X2059701Y2959215D1*
X2059488Y2961940D1*
X2059383Y2964699D1*
X2059386Y2967487D1*
X2059497Y2970245D1*
X2059717Y2972969D1*
X2060045Y2975655D1*
X2060479Y2978306D1*
X2061022Y2980920D1*
X2061672Y2983499D1*
X2062429Y2986042D1*
X2063298Y2988520D1*
X2064274Y2990917D1*
X2065358Y2993236D1*
X2066550Y2995474D1*
X2067849Y2997633D1*
X2069256Y2999711D1*
X2070770Y3001711D1*
X2072390Y3003621D1*
X2074119Y3005424D1*
X2075962Y3007118D1*
X2077915Y3008705D1*
X2079979Y3010184D1*
X2082155Y3011555D1*
X2084441Y3012818D1*
X2086837Y3013967D1*
X2088073Y3014487D1*
X2090626Y3015411D1*
X2093285Y3016176D1*
X2096050Y3016785D1*
X2098920Y3017236D1*
X2101894Y3017530D1*
X2104974Y3017669D1*
X2108323Y3017633D1*
X2111177Y3017417D1*
X2114003Y3017029D1*
X2116801Y3016466D1*
X2119568Y3015730D1*
X2122278Y3014822D1*
X2124886Y3013745D1*
X2127388Y3012501D1*
X2129790Y3011091D1*
X2132088Y3009512D1*
X2133554Y3008367D1*
X2134953Y3007155D1*
X2136283Y3005874D1*
X2137549Y3004522D1*
X2138745Y3003104D1*
X2139877Y3001615D1*
X2140940Y3000058D1*
X2141933Y2998430D1*
X2142827Y2996734D1*
X2143622Y2994971D1*
X2144316Y2993142D1*
X2144909Y2991247D1*
X2145404Y2989285D1*
X2145798Y2987256D1*
X2145958Y2986215D1*
X2146018Y2985596D1*
X2136612D1*
X2135866Y2988391D1*
X2135126Y2990543D1*
X2134255Y2992597D1*
X2133249Y2994552D1*
X2132504Y2995803D1*
G37*
G36*
X2874719Y3015598D2*
X2880248Y3015273D1*
X2879507Y3007021D1*
D1*
X2884934Y3006131D1*
X2889138Y3005024D1*
X2892343Y3003827D1*
X2895000Y3002526D1*
X2897446Y3001012D1*
X2899681Y2999286D1*
X2901490Y2997575D1*
X2903133Y2995684D1*
X2904612Y2993613D1*
X2906079Y2991067D1*
X2907341Y2988294D1*
X2908507Y2984945D1*
X2909580Y2980533D1*
X2910373Y2975251D1*
X2910807Y2968504D1*
X2910678Y2960450D1*
X2910017Y2954014D1*
X2909028Y2949000D1*
X2907881Y2945159D1*
X2906575Y2941966D1*
X2905184Y2939335D1*
X2903587Y2936933D1*
X2901992Y2934992D1*
X2900232Y2933228D1*
X2898306Y2931634D1*
X2895940Y2930041D1*
X2893361Y2928661D1*
X2890568Y2927493D1*
X2887215Y2926442D1*
X2882818Y2925483D1*
X2877160Y2924769D1*
X2869999Y2924487D1*
X2849864D1*
X2849857Y2924522D1*
X2849858Y3007542D1*
X2872606Y3007507D1*
X2879507Y3007021D1*
X2880248Y3015273D1*
X2884864Y3014675D1*
X2889199Y3013786D1*
X2892762Y3012770D1*
X2896110Y3011531D1*
X2899244Y3010070D1*
X2901759Y3008640D1*
X2904115Y3007047D1*
X2906314Y3005290D1*
X2908354Y3003370D1*
X2910236Y3001282D1*
X2911957Y2999016D1*
X2913517Y2996572D1*
X2914915Y2993951D1*
X2916341Y2990669D1*
X2917547Y2987147D1*
X2918657Y2982824D1*
X2919479Y2978188D1*
X2920060Y2972594D1*
X2920278Y2965912D1*
X2920047Y2959244D1*
X2919454Y2953663D1*
X2918622Y2949037D1*
X2917657Y2945248D1*
X2916474Y2941701D1*
X2915070Y2938396D1*
X2913692Y2935755D1*
X2912151Y2933291D1*
X2910450Y2931005D1*
X2908587Y2928896D1*
X2906566Y2926955D1*
X2904385Y2925178D1*
X2902047Y2923564D1*
X2899551Y2922115D1*
X2896440Y2920631D1*
X2893114Y2919369D1*
X2889572Y2918331D1*
X2885262Y2917416D1*
X2880077Y2916736D1*
X2840417Y2916429D1*
X2840421Y3015598D1*
X2874719D1*
G37*
G36*
X2695832Y2168369D2*
Y2160312D1*
X2636804D1*
Y2124478D1*
X2692088D1*
Y2116421D1*
X2636804D1*
Y2077264D1*
X2696537D1*
Y2069207D1*
X2627364D1*
Y2168369D1*
X2695832D1*
G37*
G36*
X3469161D2*
Y2160312D1*
X3415694D1*
Y2124478D1*
X3463193D1*
Y2116421D1*
X3415694D1*
Y2069207D1*
X3406253D1*
Y2168369D1*
X3469161D1*
G37*
M02*
