G04 DipTrace 4.0.0.5*
G04 1 - Top.gbr*
%MOIN*%
G04 #@! TF.FileFunction,Copper,L1,Top*
G04 #@! TF.Part,Single*
G04 #@! TA.AperFunction,CopperBalancing*
%ADD15C,0.011811*%
G04 #@! TA.AperFunction,Conductor*
%ADD16C,0.005906*%
%ADD17C,0.00748*%
%ADD18C,0.007874*%
G04 #@! TA.AperFunction,ComponentPad*
%ADD19C,0.047244*%
%ADD20R,0.047244X0.047244*%
%ADD21R,0.059055X0.059055*%
%ADD22C,0.059055*%
%ADD23C,0.062992*%
%ADD24C,0.066929*%
%ADD25O,0.098425X0.11811*%
G04 #@! TA.AperFunction,ViaPad*
%ADD26C,0.025591*%
%FSLAX26Y26*%
G04*
G70*
G90*
G75*
G01*
G04 Top*
%LPD*%
X856249Y1131249D2*
D15*
X866304Y1141304D1*
X1340954D1*
X1433880Y1234231D1*
Y1874643D1*
X1279563Y2028960D1*
Y2339678D1*
X1281446Y2341561D1*
X1449060Y2509176D1*
Y2663493D1*
X1281446Y2341561D2*
X942661D1*
X802913Y2481309D1*
X786935Y3667451D2*
X745467D1*
X700542Y3712376D1*
Y3911084D1*
X837044Y4047586D1*
X1445190Y2853158D2*
X1449393D1*
X1432947Y2836712D1*
X1311552D1*
X877530Y3270735D1*
X882166D1*
X1445190Y2853158D2*
X1345554Y2753522D1*
Y2581267D1*
X1234437Y2470151D1*
X897720D1*
X842325Y1607351D2*
X843938Y1605739D1*
Y1425985D1*
X1523930Y3246859D2*
Y3168119D1*
Y3089379D1*
Y3010639D1*
Y2931899D1*
Y2853158D1*
Y2774418D1*
Y3246859D2*
X1519506D1*
X1484882Y3281484D1*
D16*
Y3367538D1*
D17*
X1479207Y3373212D1*
Y3381878D1*
D18*
X1497830Y3400501D1*
X1290895Y3401979D2*
Y3351800D1*
X1311802Y3330893D1*
Y3236811D1*
X1301347Y3226357D1*
X1100637D1*
X1075548Y3201267D1*
Y3297637D1*
X1064043Y3309143D1*
X1168749Y1006249D2*
D15*
X943749D1*
X734760Y3751871D2*
X756267Y3730363D1*
X889872D1*
X921387Y3761878D1*
X1264043Y4004025D2*
X1159542Y4108526D1*
X608127D1*
X1081249Y4256668D2*
X1029361Y4204779D1*
X949533D1*
X932426Y4187673D1*
X571298D1*
X521880Y4138256D1*
Y4045123D1*
X552291Y4014712D1*
X609311D1*
X613113Y4010910D1*
X932325Y4052651D2*
X1169934Y3815042D1*
Y3476235D1*
X1138494Y690539D2*
X866656D1*
X700886Y856309D1*
Y1200380D1*
X756249Y1255744D1*
X1277214Y1718749D2*
X1228578Y1670114D1*
X740921D1*
X700445Y1629637D1*
Y1515796D1*
X1143749Y1061262D2*
X768749D1*
X1467155Y3762368D2*
Y3582401D1*
X1356249Y3471496D1*
Y3099580D1*
X1445190Y3010639D1*
X1467156Y4055477D2*
X1419512Y4007833D1*
Y3570225D1*
X1331249Y3481963D1*
Y3045840D1*
X1445190Y2931899D1*
X1467156Y3469257D2*
X1469257D1*
X1381249Y3381249D1*
Y3156249D1*
X1445190Y3092308D1*
Y3089379D1*
X772784Y858039D2*
X726347Y904476D1*
Y1126120D1*
X888620Y1288393D1*
X953530D1*
X956127Y1285796D1*
X909072Y1615044D2*
X908431Y1614404D1*
Y1403204D1*
X1264043Y3309143D2*
X1158956Y3414229D1*
X608127D1*
X1264043Y2614261D2*
X1158372Y2719931D1*
X608127D1*
X1264043Y1919379D2*
X1157787Y2025635D1*
X608127D1*
X1264043Y1224497D2*
X1157202Y1331338D1*
X608127D1*
X1264043Y529615D2*
X1156618Y637040D1*
X608127D1*
X1347170Y2352829D2*
X1393750Y2306249D1*
X1481249D1*
Y2308332D1*
X1485746D1*
X1343749Y2031249D2*
X1368749Y2006249D1*
X1481249D1*
Y2015221D1*
X1485748D1*
D26*
X856249Y1131249D3*
X1168749Y1006249D3*
X943749D3*
X734760Y3751871D3*
X921387Y3761878D3*
X1081249Y4256668D3*
X1138494Y690539D3*
X756249Y1255744D3*
X1277214Y1718749D3*
X1143749Y1061262D3*
X768749D3*
X772784Y858039D3*
X1347170Y2352829D3*
X1343749Y2031249D3*
X882166Y3270735D3*
X932426Y4187673D3*
X613113Y4010910D3*
X1169934Y3476235D3*
X932325Y4052651D3*
X956127Y1285796D3*
X1449060Y2663493D3*
X843938Y1425985D3*
X842325Y1607351D3*
X897720Y2470151D3*
X908431Y1403204D3*
X909072Y1615044D3*
X700445Y1515796D3*
X837044Y4047586D3*
X786935Y3667451D3*
X802913Y2481309D3*
X1170102Y2262046D3*
X1290895Y3401979D3*
X1497830Y3400501D3*
X879803Y3864379D3*
X853368Y4359048D3*
X435363Y4652468D2*
D15*
X1540019D1*
X423691Y4640788D2*
X1551265D1*
X417197Y4629109D2*
X1557483D1*
X413863Y4617429D2*
X1560826D1*
X412687Y4605749D2*
X1562281D1*
X412652Y4594069D2*
X1562350D1*
X412652Y4582389D2*
X1562350D1*
X412652Y4570710D2*
X624515D1*
X679231D2*
X1562350D1*
X412652Y4559030D2*
X613039D1*
X690719D2*
X1562350D1*
X412652Y4547350D2*
X607353D1*
X696405D2*
X1562350D1*
X412652Y4535670D2*
X605241D1*
X698517D2*
X1562350D1*
X412652Y4523991D2*
X606187D1*
X697571D2*
X1562350D1*
X412652Y4512311D2*
X610409D1*
X693349D2*
X1562350D1*
X412652Y4500631D2*
X619198D1*
X684560D2*
X1562350D1*
X412652Y4488951D2*
X641286D1*
X662472D2*
X1562350D1*
X412652Y4477271D2*
X580800D1*
X635447D2*
X1562350D1*
X412652Y4465592D2*
X567859D1*
X648388D2*
X1562350D1*
X412652Y4453912D2*
X561135D1*
X655124D2*
X1562350D1*
X412652Y4442232D2*
X557985D1*
X658273D2*
X1562350D1*
X412652Y4430552D2*
X557720D1*
X658527D2*
X1562350D1*
X412652Y4418872D2*
X560304D1*
X655955D2*
X1562350D1*
X412652Y4407193D2*
X566256D1*
X649992D2*
X1562350D1*
X412652Y4395513D2*
X577582D1*
X638677D2*
X1562350D1*
X412652Y4383833D2*
X1562350D1*
X412652Y4372153D2*
X941971D1*
X1011081D2*
X1316971D1*
X1386081D2*
X1562350D1*
X412652Y4360473D2*
X926976D1*
X1026064D2*
X1301976D1*
X1401064D2*
X1562350D1*
X412652Y4348794D2*
X917968D1*
X1035073D2*
X1292968D1*
X1410073D2*
X1562350D1*
X412652Y4337114D2*
X912328D1*
X1040712D2*
X1287328D1*
X1415712D2*
X1562350D1*
X412652Y4325434D2*
X909179D1*
X1043862D2*
X1284179D1*
X1418862D2*
X1562350D1*
X412652Y4313754D2*
X908176D1*
X1044865D2*
X1283176D1*
X1419865D2*
X1562350D1*
X412652Y4302074D2*
X908176D1*
X1044865D2*
X1283176D1*
X1419865D2*
X1562350D1*
X412652Y4290395D2*
X908279D1*
X1044761D2*
X1283279D1*
X1419761D2*
X1562350D1*
X412652Y4278715D2*
X909987D1*
X1043065D2*
X1064811D1*
X1097691D2*
X1284987D1*
X1418065D2*
X1562350D1*
X412652Y4267035D2*
X913908D1*
X1039144D2*
X1055341D1*
X1107149D2*
X1288908D1*
X1414144D2*
X1562350D1*
X412652Y4255355D2*
X920540D1*
X1032512D2*
X1050589D1*
X1109215D2*
X1295540D1*
X1407512D2*
X1562350D1*
X412652Y4243676D2*
X931071D1*
X1021981D2*
X1038904D1*
X1105882D2*
X1306071D1*
X1396981D2*
X1562350D1*
X412652Y4231996D2*
X949964D1*
X1003089D2*
X1027220D1*
X1092929D2*
X1324964D1*
X1378089D2*
X1562350D1*
X412652Y4220316D2*
X935880D1*
X1074254D2*
X1562350D1*
X412652Y4208636D2*
X914531D1*
X1062571D2*
X1562350D1*
X412652Y4196956D2*
X551227D1*
X1050886D2*
X1562350D1*
X412652Y4185277D2*
X539543D1*
X1034599D2*
X1562350D1*
X412652Y4173597D2*
X527870D1*
X956421D2*
X1562350D1*
X412652Y4161917D2*
X516186D1*
X574892D2*
X923792D1*
X941057D2*
X1562350D1*
X412652Y4150237D2*
X504778D1*
X563220D2*
X588736D1*
X627512D2*
X1454067D1*
X1480246D2*
X1562350D1*
X412652Y4138557D2*
X500777D1*
X551535D2*
X572749D1*
X643509D2*
X1437008D1*
X1497305D2*
X1562350D1*
X412652Y4126878D2*
X500777D1*
X542977D2*
X565299D1*
X1168477D2*
X1430421D1*
X1503892D2*
X1562350D1*
X412652Y4115198D2*
X500777D1*
X542977D2*
X561930D1*
X1182225D2*
X1428345D1*
X1505968D2*
X1562350D1*
X412652Y4103518D2*
X500777D1*
X542977D2*
X561711D1*
X1193899D2*
X1429983D1*
X1504330D2*
X1562350D1*
X412652Y4091838D2*
X500777D1*
X542977D2*
X564606D1*
X1205582D2*
X1428333D1*
X1505980D2*
X1562350D1*
X412652Y4080158D2*
X500777D1*
X542977D2*
X571354D1*
X644893D2*
X1158560D1*
X1217267D2*
X1428333D1*
X1505980D2*
X1562350D1*
X412652Y4068479D2*
X500777D1*
X542977D2*
X585321D1*
X630926D2*
X819063D1*
X855023D2*
X909502D1*
X955152D2*
X1170233D1*
X1228939D2*
X1428333D1*
X1505980D2*
X1562350D1*
X412652Y4056799D2*
X500777D1*
X542977D2*
X810689D1*
X863409D2*
X904657D1*
X959997D2*
X1181917D1*
X1240623D2*
X1428333D1*
X1505980D2*
X1562350D1*
X412652Y4045119D2*
X500777D1*
X551236D2*
X805221D1*
X864920D2*
X905408D1*
X969212D2*
X1039077D1*
X1089006D2*
X1139078D1*
X1289010D2*
X1427446D1*
X1505980D2*
X1562350D1*
X412652Y4033439D2*
X504559D1*
X628826D2*
X793548D1*
X860998D2*
X912443D1*
X980886D2*
X1025594D1*
X1102491D2*
X1125595D1*
X1302493D2*
X1415761D1*
X1505980D2*
X1562350D1*
X412652Y4021760D2*
X515886D1*
X638815D2*
X781865D1*
X845428D2*
X933862D1*
X992569D2*
X1018824D1*
X1109273D2*
X1118813D1*
X1209262D2*
X1216958D1*
X1309263D2*
X1404089D1*
X1505980D2*
X1562350D1*
X412652Y4010080D2*
X527571D1*
X641088D2*
X770181D1*
X828887D2*
X945547D1*
X1004253D2*
X1015766D1*
X1312320D2*
X1398540D1*
X1451111D2*
X1562350D1*
X412652Y3998400D2*
X539669D1*
X638008D2*
X758508D1*
X817215D2*
X957219D1*
X1312366D2*
X1398414D1*
X1440615D2*
X1562350D1*
X412652Y3986720D2*
X600374D1*
X625850D2*
X746824D1*
X805530D2*
X968903D1*
X1109434D2*
X1118652D1*
X1209435D2*
X1218641D1*
X1309437D2*
X1398414D1*
X1440615D2*
X1562350D1*
X412652Y3975040D2*
X735140D1*
X793858D2*
X980576D1*
X1102836D2*
X1125249D1*
X1202826D2*
X1225250D1*
X1302828D2*
X1398414D1*
X1440615D2*
X1562350D1*
X412652Y3963361D2*
X723467D1*
X782174D2*
X992260D1*
X1089733D2*
X1138353D1*
X1189735D2*
X1238354D1*
X1289736D2*
X1398414D1*
X1440615D2*
X1562350D1*
X412652Y3951681D2*
X711783D1*
X770489D2*
X1003945D1*
X1062651D2*
X1398414D1*
X1440615D2*
X1562350D1*
X412652Y3940001D2*
X700110D1*
X758817D2*
X1015616D1*
X1074324D2*
X1398414D1*
X1440615D2*
X1562350D1*
X412652Y3928321D2*
X688426D1*
X747132D2*
X1027302D1*
X1086008D2*
X1398414D1*
X1440615D2*
X1562350D1*
X412652Y3916641D2*
X680225D1*
X735449D2*
X1038985D1*
X1097691D2*
X1398414D1*
X1440615D2*
X1562350D1*
X412652Y3904962D2*
X679441D1*
X723777D2*
X1050657D1*
X1109365D2*
X1398414D1*
X1440615D2*
X1562350D1*
X412652Y3893282D2*
X679441D1*
X721643D2*
X1062342D1*
X1121048D2*
X1398414D1*
X1440615D2*
X1562350D1*
X412652Y3881602D2*
X634203D1*
X669542D2*
X679441D1*
X721643D2*
X1074014D1*
X1132733D2*
X1398414D1*
X1440615D2*
X1562350D1*
X412652Y3869922D2*
X617134D1*
X721643D2*
X1085699D1*
X1144405D2*
X1398414D1*
X1440615D2*
X1562350D1*
X412652Y3858242D2*
X609371D1*
X721643D2*
X1097383D1*
X1156089D2*
X1398414D1*
X1440615D2*
X1458173D1*
X1476140D2*
X1562350D1*
X412652Y3846563D2*
X605783D1*
X721643D2*
X1109055D1*
X1167762D2*
X1398414D1*
X1496349D2*
X1562350D1*
X412652Y3834883D2*
X605391D1*
X721643D2*
X1120740D1*
X1179446D2*
X1398414D1*
X1503488D2*
X1562350D1*
X412652Y3823203D2*
X608078D1*
X721643D2*
X1132424D1*
X1189284D2*
X1398414D1*
X1505933D2*
X1562350D1*
X412652Y3811523D2*
X614550D1*
X721643D2*
X1144097D1*
X1191038D2*
X1398414D1*
X1504653D2*
X1562350D1*
X412652Y3799844D2*
X627813D1*
X721643D2*
X1148837D1*
X1191038D2*
X1398414D1*
X1505980D2*
X1562350D1*
X412652Y3788164D2*
X592081D1*
X624166D2*
X679441D1*
X721643D2*
X914924D1*
X927850D2*
X1148837D1*
X1191038D2*
X1398414D1*
X1505980D2*
X1562350D1*
X412652Y3776484D2*
X572508D1*
X643752D2*
X679441D1*
X746568D2*
X897725D1*
X945048D2*
X1148837D1*
X1191038D2*
X1398414D1*
X1505980D2*
X1562350D1*
X412652Y3764804D2*
X563603D1*
X652656D2*
X679441D1*
X759429D2*
X893551D1*
X949224D2*
X1148837D1*
X1191038D2*
X1398414D1*
X1505980D2*
X1562350D1*
X412652Y3753124D2*
X559001D1*
X657246D2*
X679441D1*
X762866D2*
X883284D1*
X947909D2*
X1148837D1*
X1191038D2*
X1398414D1*
X1505980D2*
X1562350D1*
X412652Y3741445D2*
X557501D1*
X658758D2*
X679441D1*
X939928D2*
X1148837D1*
X1191038D2*
X1398414D1*
X1505980D2*
X1562350D1*
X412652Y3729765D2*
X558794D1*
X657466D2*
X679441D1*
X918623D2*
X1148837D1*
X1191038D2*
X1398414D1*
X1505980D2*
X1562350D1*
X412652Y3718085D2*
X563130D1*
X653130D2*
X679441D1*
X724191D2*
X739189D1*
X906951D2*
X1148837D1*
X1191038D2*
X1398414D1*
X1488263D2*
X1562350D1*
X412652Y3706405D2*
X571619D1*
X644640D2*
X680353D1*
X735865D2*
X1148837D1*
X1191038D2*
X1398414D1*
X1488263D2*
X1562350D1*
X412652Y3694725D2*
X589521D1*
X626739D2*
X688841D1*
X747548D2*
X1148837D1*
X1191038D2*
X1398414D1*
X1488263D2*
X1562350D1*
X412652Y3683046D2*
X700514D1*
X809925D2*
X955155D1*
X997887D2*
X1148837D1*
X1191038D2*
X1330155D1*
X1372887D2*
X1398414D1*
X1488263D2*
X1562350D1*
X412652Y3671366D2*
X712198D1*
X814643D2*
X933298D1*
X1019744D2*
X1148837D1*
X1191038D2*
X1308298D1*
X1488263D2*
X1562350D1*
X412652Y3659686D2*
X723882D1*
X813778D2*
X921913D1*
X1031128D2*
X1148837D1*
X1191038D2*
X1296913D1*
X1488263D2*
X1562350D1*
X412652Y3648006D2*
X739960D1*
X806580D2*
X914773D1*
X1038279D2*
X1148837D1*
X1191038D2*
X1289773D1*
X1488263D2*
X1562350D1*
X412652Y3636326D2*
X910459D1*
X1042593D2*
X1148837D1*
X1191038D2*
X1285459D1*
X1488263D2*
X1562350D1*
X412652Y3624647D2*
X908418D1*
X1044635D2*
X1148837D1*
X1191038D2*
X1283418D1*
X1488263D2*
X1562350D1*
X412652Y3612967D2*
X908176D1*
X1044865D2*
X1148837D1*
X1191038D2*
X1283176D1*
X1488263D2*
X1562350D1*
X412652Y3601287D2*
X908176D1*
X1044865D2*
X1148837D1*
X1191038D2*
X1283176D1*
X1488263D2*
X1562350D1*
X412652Y3589607D2*
X908879D1*
X1044161D2*
X1148837D1*
X1191038D2*
X1283879D1*
X1488263D2*
X1562350D1*
X412652Y3577928D2*
X911670D1*
X1041382D2*
X1148837D1*
X1191038D2*
X1286670D1*
X1487744D2*
X1562350D1*
X412652Y3566248D2*
X916872D1*
X1036179D2*
X1148837D1*
X1191038D2*
X1291872D1*
X1480350D2*
X1562350D1*
X412652Y3554568D2*
X925235D1*
X1027805D2*
X1148837D1*
X1191038D2*
X1300235D1*
X1495299D2*
X1562350D1*
X412652Y3542888D2*
X938891D1*
X1014161D2*
X1148837D1*
X1191038D2*
X1313891D1*
X1503038D2*
X1562350D1*
X412652Y3531208D2*
X1148837D1*
X1191038D2*
X1351135D1*
X1505865D2*
X1562350D1*
X412652Y3519529D2*
X1148837D1*
X1191038D2*
X1339463D1*
X1504930D2*
X1562350D1*
X412652Y3507849D2*
X1148837D1*
X1191038D2*
X1327778D1*
X1499924D2*
X1562350D1*
X412652Y3496169D2*
X1148837D1*
X1191038D2*
X1316106D1*
X1505980D2*
X1562350D1*
X412652Y3484489D2*
X1143242D1*
X1196620D2*
X1310304D1*
X1505980D2*
X1562350D1*
X412652Y3472809D2*
X1142158D1*
X1197704D2*
X1310143D1*
X1505980D2*
X1562350D1*
X412652Y3461130D2*
X1146599D1*
X1193265D2*
X1310143D1*
X1505980D2*
X1562350D1*
X412652Y3449450D2*
X578124D1*
X638135D2*
X1167568D1*
X1172309D2*
X1310143D1*
X1505980D2*
X1562350D1*
X412652Y3437770D2*
X567997D1*
X648262D2*
X1310143D1*
X1505980D2*
X1562350D1*
X412652Y3426090D2*
X563004D1*
X1176447D2*
X1310143D1*
X1455449D2*
X1562350D1*
X412652Y3414410D2*
X561434D1*
X1188131D2*
X1310143D1*
X1443763D2*
X1562350D1*
X412652Y3402731D2*
X562910D1*
X1199804D2*
X1310143D1*
X1432080D2*
X1562350D1*
X412652Y3391051D2*
X567778D1*
X648481D2*
X1152782D1*
X1211488D2*
X1310143D1*
X1420408D2*
X1562350D1*
X412652Y3379371D2*
X577686D1*
X638573D2*
X1164466D1*
X1223173D2*
X1310143D1*
X1408723D2*
X1562350D1*
X412652Y3367691D2*
X1176139D1*
X1234845D2*
X1310143D1*
X1402357D2*
X1432855D1*
X1457525D2*
X1479211D1*
X412652Y3356012D2*
X1055271D1*
X1072824D2*
X1155261D1*
X1172825D2*
X1187823D1*
X1246529D2*
X1255263D1*
X1272816D2*
X1310143D1*
X1402357D2*
X1412844D1*
X412652Y3344332D2*
X1030980D1*
X1097103D2*
X1130981D1*
X1297095D2*
X1310143D1*
X412652Y3332652D2*
X1021614D1*
X1106481D2*
X1121605D1*
X412652Y3320972D2*
X1016874D1*
X412652Y3309292D2*
X1015386D1*
X412652Y3297613D2*
X1016804D1*
X1402357D2*
X1410652D1*
X412652Y3285933D2*
X858901D1*
X905439D2*
X1021442D1*
X1106643D2*
X1121443D1*
X1206644D2*
X1221445D1*
X1402357D2*
X1424792D1*
X412652Y3274253D2*
X854403D1*
X909926D2*
X1030657D1*
X1097426D2*
X1130658D1*
X1197428D2*
X1230660D1*
X1297430D2*
X1310143D1*
X1402357D2*
X1410168D1*
X412652Y3262573D2*
X855441D1*
X915048D2*
X1053610D1*
X1074473D2*
X1153613D1*
X1174475D2*
X1253602D1*
X1274476D2*
X1310143D1*
X412652Y3250893D2*
X862950D1*
X926720D2*
X1310143D1*
X412652Y3239214D2*
X879698D1*
X938404D2*
X1310143D1*
X412652Y3227534D2*
X891382D1*
X950089D2*
X1310143D1*
X412652Y3215854D2*
X903055D1*
X961761D2*
X1310143D1*
X1402357D2*
X1413431D1*
X412652Y3204174D2*
X914739D1*
X973446D2*
X1310143D1*
X1402357D2*
X1419590D1*
X412652Y3192494D2*
X926412D1*
X985130D2*
X1310143D1*
X412652Y3180815D2*
X622762D1*
X680996D2*
X938095D1*
X996802D2*
X1310143D1*
X412652Y3169135D2*
X612185D1*
X691573D2*
X949779D1*
X1008487D2*
X1310143D1*
X412652Y3157455D2*
X606949D1*
X696798D2*
X961452D1*
X1020158D2*
X1310143D1*
X412652Y3145775D2*
X605195D1*
X698563D2*
X973136D1*
X1031844D2*
X1310143D1*
X412652Y3134095D2*
X606476D1*
X697270D2*
X984820D1*
X1043527D2*
X1310143D1*
X412652Y3122416D2*
X611113D1*
X692634D2*
X996493D1*
X1055199D2*
X1310143D1*
X412652Y3110736D2*
X620605D1*
X683141D2*
X1008177D1*
X1066884D2*
X1310143D1*
X412652Y3099056D2*
X1019850D1*
X1078568D2*
X1310143D1*
X412652Y3087376D2*
X578828D1*
X637431D2*
X1031534D1*
X1090241D2*
X1310143D1*
X412652Y3075697D2*
X566889D1*
X649368D2*
X1043218D1*
X1101925D2*
X1310143D1*
X412652Y3064017D2*
X560627D1*
X655632D2*
X1054891D1*
X1113598D2*
X1310143D1*
X412652Y3052337D2*
X557824D1*
X658435D2*
X1066575D1*
X1125282D2*
X1310143D1*
X412652Y3040657D2*
X557870D1*
X658388D2*
X1078248D1*
X1136966D2*
X1310834D1*
X412652Y3028977D2*
X560788D1*
X655471D2*
X1089931D1*
X1148639D2*
X1318758D1*
X412652Y3017298D2*
X567190D1*
X649069D2*
X1101615D1*
X1160323D2*
X1330431D1*
X412652Y3005618D2*
X579428D1*
X636820D2*
X1113288D1*
X1171996D2*
X1342115D1*
X412652Y2993938D2*
X1124972D1*
X1183679D2*
X1353799D1*
X412652Y2982258D2*
X941740D1*
X1011312D2*
X1136657D1*
X1195363D2*
X1316740D1*
X412652Y2970578D2*
X926850D1*
X1026191D2*
X1148329D1*
X1207036D2*
X1301850D1*
X412652Y2958899D2*
X917887D1*
X1035153D2*
X1160013D1*
X1218720D2*
X1292887D1*
X412652Y2947219D2*
X912282D1*
X1040770D2*
X1171686D1*
X1230404D2*
X1287282D1*
X412652Y2935539D2*
X909156D1*
X1043884D2*
X1183370D1*
X1242077D2*
X1284156D1*
X412652Y2923859D2*
X908176D1*
X1044865D2*
X1195055D1*
X1253761D2*
X1283176D1*
X412652Y2912179D2*
X908176D1*
X1044865D2*
X1206727D1*
X1265434D2*
X1283176D1*
X412652Y2900500D2*
X908291D1*
X1044750D2*
X1218410D1*
X1277118D2*
X1283291D1*
X412652Y2888820D2*
X910010D1*
X1043031D2*
X1230095D1*
X412652Y2877140D2*
X913966D1*
X1039086D2*
X1241767D1*
X412652Y2865460D2*
X920632D1*
X1032420D2*
X1253452D1*
X412652Y2853781D2*
X931221D1*
X1021832D2*
X1265124D1*
X412652Y2842101D2*
X950287D1*
X1002754D2*
X1276809D1*
X412652Y2830421D2*
X1288493D1*
X412652Y2818741D2*
X1301781D1*
X412652Y2807061D2*
X1369740D1*
X412652Y2795382D2*
X1358056D1*
X412652Y2783702D2*
X1346383D1*
X412652Y2772022D2*
X1334699D1*
X1393405D2*
X1400536D1*
X412652Y2760342D2*
X586014D1*
X630245D2*
X1325656D1*
X1381733D2*
X1402808D1*
X412652Y2748662D2*
X571653D1*
X644605D2*
X1324456D1*
X1370050D2*
X1408899D1*
X1481481D2*
X1487643D1*
X412652Y2736983D2*
X564745D1*
X1169850D2*
X1324456D1*
X1366658D2*
X1421770D1*
X1468609D2*
X1500514D1*
X1547353D2*
X1562350D1*
X412652Y2725303D2*
X561757D1*
X1182353D2*
X1324456D1*
X1366658D2*
X1562350D1*
X412652Y2713623D2*
X561872D1*
X1194036D2*
X1324456D1*
X1366658D2*
X1562350D1*
X412652Y2701943D2*
X565137D1*
X1205710D2*
X1324456D1*
X1366658D2*
X1562350D1*
X412652Y2690263D2*
X572438D1*
X643821D2*
X1158687D1*
X1217393D2*
X1324456D1*
X1366658D2*
X1446408D1*
X1451719D2*
X1562350D1*
X412652Y2678584D2*
X587929D1*
X628330D2*
X1170371D1*
X1229078D2*
X1324456D1*
X1366658D2*
X1425715D1*
X1472404D2*
X1562350D1*
X412652Y2666904D2*
X1182044D1*
X1240750D2*
X1324456D1*
X1366658D2*
X1421286D1*
X1476833D2*
X1562350D1*
X412652Y2655224D2*
X1038858D1*
X1089237D2*
X1138849D1*
X1289229D2*
X1324456D1*
X1366658D2*
X1422370D1*
X1475748D2*
X1562350D1*
X412652Y2643544D2*
X1025491D1*
X1102594D2*
X1125492D1*
X1302597D2*
X1324456D1*
X1366658D2*
X1427952D1*
X1470166D2*
X1562350D1*
X412652Y2631865D2*
X1018766D1*
X1109319D2*
X1118767D1*
X1209320D2*
X1217085D1*
X1309321D2*
X1324456D1*
X1366658D2*
X1427952D1*
X1470166D2*
X1562350D1*
X412652Y2620185D2*
X1015756D1*
X1312332D2*
X1324456D1*
X1366658D2*
X1427952D1*
X1470166D2*
X1562350D1*
X412652Y2608505D2*
X1015732D1*
X1312355D2*
X1324456D1*
X1366658D2*
X1427952D1*
X1470166D2*
X1562350D1*
X412652Y2596825D2*
X1018697D1*
X1109388D2*
X1118698D1*
X1209389D2*
X1218699D1*
X1309391D2*
X1324456D1*
X1366658D2*
X1427952D1*
X1470166D2*
X1562350D1*
X412652Y2585145D2*
X1025351D1*
X1102732D2*
X1125353D1*
X1202733D2*
X1225354D1*
X1302736D2*
X1320073D1*
X1366658D2*
X1427952D1*
X1470166D2*
X1562350D1*
X412652Y2573466D2*
X1038569D1*
X1089514D2*
X1138572D1*
X1189515D2*
X1238573D1*
X1289517D2*
X1308401D1*
X1365067D2*
X1427952D1*
X1470166D2*
X1562350D1*
X412652Y2561786D2*
X1296716D1*
X1355424D2*
X1427952D1*
X1470166D2*
X1562350D1*
X412652Y2550106D2*
X1285033D1*
X1343750D2*
X1427952D1*
X1470166D2*
X1562350D1*
X412652Y2538426D2*
X1273361D1*
X1332067D2*
X1427952D1*
X1470166D2*
X1562350D1*
X412652Y2526746D2*
X1261676D1*
X1320383D2*
X1427952D1*
X1470166D2*
X1562350D1*
X412652Y2515067D2*
X1250004D1*
X1308710D2*
X1425599D1*
X1470166D2*
X1562350D1*
X412652Y2503387D2*
X786525D1*
X819303D2*
X1238319D1*
X1297026D2*
X1413916D1*
X1469300D2*
X1562350D1*
X412652Y2491707D2*
X631194D1*
X672564D2*
X777021D1*
X828807D2*
X880597D1*
X914840D2*
X1226635D1*
X1285342D2*
X1402232D1*
X1460950D2*
X1562350D1*
X412652Y2480027D2*
X615992D1*
X687766D2*
X774955D1*
X833547D2*
X871613D1*
X1273669D2*
X1390559D1*
X1449266D2*
X1562350D1*
X412652Y2468347D2*
X608794D1*
X694963D2*
X778266D1*
X845231D2*
X869790D1*
X1261985D2*
X1378875D1*
X1437581D2*
X1562350D1*
X412652Y2456668D2*
X605588D1*
X698158D2*
X791173D1*
X856904D2*
X873366D1*
X1250312D2*
X1367202D1*
X1425909D2*
X1562350D1*
X412652Y2444988D2*
X605530D1*
X698228D2*
X809882D1*
X868588D2*
X887287D1*
X908162D2*
X1355518D1*
X1414225D2*
X1562350D1*
X412652Y2433308D2*
X608586D1*
X695160D2*
X821565D1*
X880273D2*
X1343834D1*
X1402552D2*
X1562350D1*
X412652Y2421628D2*
X615588D1*
X688170D2*
X833239D1*
X891945D2*
X1332161D1*
X1390868D2*
X1562350D1*
X412652Y2409949D2*
X630202D1*
X673544D2*
X844922D1*
X903628D2*
X1320477D1*
X1379183D2*
X1562350D1*
X412652Y2398269D2*
X588459D1*
X627800D2*
X856594D1*
X915313D2*
X1308804D1*
X1367512D2*
X1446926D1*
X1524561D2*
X1562350D1*
X412652Y2386589D2*
X571215D1*
X645043D2*
X868279D1*
X926985D2*
X1297120D1*
X1355828D2*
X1446926D1*
X1524561D2*
X1562350D1*
X412652Y2374909D2*
X562910D1*
X653337D2*
X879963D1*
X938670D2*
X1285437D1*
X1363555D2*
X1446926D1*
X1524561D2*
X1562350D1*
X412652Y2363229D2*
X558700D1*
X657559D2*
X891636D1*
X950342D2*
X1273763D1*
X1373059D2*
X1446926D1*
X1524561D2*
X1562350D1*
X412652Y2351550D2*
X557501D1*
X658746D2*
X903320D1*
X1377800D2*
X1446926D1*
X1524561D2*
X1562350D1*
X412652Y2339870D2*
X559116D1*
X657143D2*
X915004D1*
X1309114D2*
X1322519D1*
X1389484D2*
X1446926D1*
X1524561D2*
X1562350D1*
X412652Y2328190D2*
X563833D1*
X652425D2*
X926677D1*
X1300670D2*
X1335414D1*
X1401168D2*
X1452590D1*
X1518897D2*
X1562350D1*
X412652Y2316510D2*
X572934D1*
X643313D2*
X1258458D1*
X1300670D2*
X1354134D1*
X1523661D2*
X1562350D1*
X412652Y2304830D2*
X593464D1*
X622783D2*
X1258458D1*
X1300670D2*
X1365819D1*
X1524400D2*
X1562350D1*
X412652Y2293151D2*
X954740D1*
X998302D2*
X1258458D1*
X1300670D2*
X1329740D1*
X1521366D2*
X1562350D1*
X412652Y2281471D2*
X933136D1*
X1019905D2*
X1258458D1*
X1300670D2*
X1308136D1*
X1394905D2*
X1458195D1*
X1513292D2*
X1562350D1*
X412652Y2269791D2*
X921809D1*
X1031232D2*
X1258458D1*
X1406232D2*
X1562350D1*
X412652Y2258111D2*
X914704D1*
X1038337D2*
X1258458D1*
X1413337D2*
X1562350D1*
X412652Y2246431D2*
X910413D1*
X1042627D2*
X1258458D1*
X1417627D2*
X1562350D1*
X412652Y2234752D2*
X908407D1*
X1044645D2*
X1258458D1*
X1419645D2*
X1562350D1*
X412652Y2223072D2*
X908176D1*
X1044865D2*
X1258458D1*
X1419865D2*
X1562350D1*
X412652Y2211392D2*
X908176D1*
X1044865D2*
X1258458D1*
X1419865D2*
X1562350D1*
X412652Y2199712D2*
X908903D1*
X1044151D2*
X1258458D1*
X1419151D2*
X1562350D1*
X412652Y2188033D2*
X911716D1*
X1041336D2*
X1258458D1*
X1416336D2*
X1562350D1*
X412652Y2176353D2*
X916942D1*
X1036099D2*
X1258458D1*
X1411099D2*
X1562350D1*
X412652Y2164673D2*
X925362D1*
X1027691D2*
X1258458D1*
X1402691D2*
X1562350D1*
X412652Y2152993D2*
X939088D1*
X1013954D2*
X1258458D1*
X1300670D2*
X1314088D1*
X1388954D2*
X1562350D1*
X412652Y2141313D2*
X1258458D1*
X1300670D2*
X1562350D1*
X412652Y2129634D2*
X1258458D1*
X1300670D2*
X1562350D1*
X412652Y2117954D2*
X1258458D1*
X1300670D2*
X1562350D1*
X412652Y2106274D2*
X1258458D1*
X1300670D2*
X1446926D1*
X1524561D2*
X1562350D1*
X412652Y2094594D2*
X1258458D1*
X1300670D2*
X1446926D1*
X1524561D2*
X1562350D1*
X412652Y2082914D2*
X1258458D1*
X1300670D2*
X1446926D1*
X1524561D2*
X1562350D1*
X412652Y2071235D2*
X1258458D1*
X1300670D2*
X1446926D1*
X1524561D2*
X1562350D1*
X412652Y2059555D2*
X576602D1*
X639657D2*
X1258458D1*
X1300670D2*
X1446926D1*
X1524561D2*
X1562350D1*
X412652Y2047875D2*
X567236D1*
X649012D2*
X1258458D1*
X1300670D2*
X1321538D1*
X1365966D2*
X1446926D1*
X1524561D2*
X1562350D1*
X412652Y2036195D2*
X562679D1*
X1176586D2*
X1258458D1*
X1301686D2*
X1316221D1*
X1371283D2*
X1453317D1*
X1518182D2*
X1562350D1*
X412652Y2024515D2*
X561446D1*
X1188258D2*
X1258966D1*
X1523396D2*
X1562350D1*
X412652Y2012836D2*
X563269D1*
X1199942D2*
X1266336D1*
X1524492D2*
X1562350D1*
X412652Y2001156D2*
X568575D1*
X647673D2*
X1152908D1*
X1211615D2*
X1278009D1*
X1336727D2*
X1344492D1*
X1521840D2*
X1562350D1*
X412652Y1989476D2*
X579312D1*
X636947D2*
X1164593D1*
X1223299D2*
X1289693D1*
X1348399D2*
X1356821D1*
X1514388D2*
X1562350D1*
X412652Y1977796D2*
X1176277D1*
X1234984D2*
X1301376D1*
X1360084D2*
X1480572D1*
X1490916D2*
X1562350D1*
X412652Y1966116D2*
X1054498D1*
X1073585D2*
X1154500D1*
X1173586D2*
X1187950D1*
X1246656D2*
X1254501D1*
X1273589D2*
X1313050D1*
X1371756D2*
X1562350D1*
X412652Y1954437D2*
X1030842D1*
X1097242D2*
X1130844D1*
X1297245D2*
X1324733D1*
X1383441D2*
X1562350D1*
X412652Y1942757D2*
X1021534D1*
X1106550D2*
X1121535D1*
X1306554D2*
X1336417D1*
X1395124D2*
X1562350D1*
X412652Y1931077D2*
X1016851D1*
X1311236D2*
X1348090D1*
X1406796D2*
X1562350D1*
X412652Y1919397D2*
X1015386D1*
X1312700D2*
X1359774D1*
X1418481D2*
X1562350D1*
X412652Y1907718D2*
X1016840D1*
X1311248D2*
X1371447D1*
X1430165D2*
X1562350D1*
X412652Y1896038D2*
X1021510D1*
X1106573D2*
X1121513D1*
X1206575D2*
X1221514D1*
X1306576D2*
X1383131D1*
X1441838D2*
X1562350D1*
X412652Y1884358D2*
X1030796D1*
X1097288D2*
X1130798D1*
X1197290D2*
X1230799D1*
X1297279D2*
X1394815D1*
X1452450D2*
X1562350D1*
X412652Y1872678D2*
X1054291D1*
X1073792D2*
X1154292D1*
X1173795D2*
X1254294D1*
X1273796D2*
X1406488D1*
X1454987D2*
X1562350D1*
X412652Y1860998D2*
X1412774D1*
X1454987D2*
X1562350D1*
X412652Y1849319D2*
X1412774D1*
X1454987D2*
X1562350D1*
X412652Y1837639D2*
X1412774D1*
X1454987D2*
X1562350D1*
X412652Y1825959D2*
X1412774D1*
X1454987D2*
X1562350D1*
X412652Y1814279D2*
X1412774D1*
X1524561D2*
X1562350D1*
X412652Y1802599D2*
X1412774D1*
X1524561D2*
X1562350D1*
X412652Y1790920D2*
X621158D1*
X682588D2*
X1412774D1*
X1524561D2*
X1562350D1*
X412652Y1779240D2*
X611389D1*
X692357D2*
X1412774D1*
X1524561D2*
X1562350D1*
X412652Y1767560D2*
X606602D1*
X697155D2*
X1412774D1*
X1524561D2*
X1562350D1*
X412652Y1755880D2*
X605183D1*
X698563D2*
X1412774D1*
X1524561D2*
X1562350D1*
X412652Y1744200D2*
X606821D1*
X696935D2*
X1267605D1*
X1286829D2*
X1412774D1*
X1524561D2*
X1562350D1*
X412652Y1732521D2*
X611886D1*
X691872D2*
X1253025D1*
X1301397D2*
X1412774D1*
X1523097D2*
X1562350D1*
X412652Y1720841D2*
X622151D1*
X681595D2*
X1249300D1*
X1305123D2*
X1412774D1*
X1524550D2*
X1562350D1*
X412652Y1709161D2*
X1238273D1*
X1303428D2*
X1412774D1*
X1522266D2*
X1562350D1*
X412652Y1697481D2*
X577029D1*
X639231D2*
X1226589D1*
X1294719D2*
X1412774D1*
X1515392D2*
X1562350D1*
X412652Y1685802D2*
X565979D1*
X650281D2*
X727458D1*
X1273623D2*
X1412774D1*
X1454987D2*
X1474655D1*
X1496833D2*
X1562350D1*
X412652Y1674122D2*
X560165D1*
X656093D2*
X715577D1*
X1261939D2*
X1412774D1*
X1454987D2*
X1562350D1*
X412652Y1662442D2*
X557686D1*
X658561D2*
X703893D1*
X1250266D2*
X1412774D1*
X1454987D2*
X1562350D1*
X412652Y1650762D2*
X558043D1*
X658204D2*
X692220D1*
X1234488D2*
X1412774D1*
X1454987D2*
X1562350D1*
X412652Y1639082D2*
X561308D1*
X654951D2*
X681724D1*
X739244D2*
X896018D1*
X922130D2*
X1412774D1*
X1454987D2*
X1562350D1*
X412652Y1627403D2*
X568182D1*
X648065D2*
X679337D1*
X727559D2*
X823342D1*
X861309D2*
X884093D1*
X934044D2*
X1412774D1*
X1454987D2*
X1562350D1*
X412652Y1615723D2*
X581481D1*
X634778D2*
X679337D1*
X721550D2*
X815672D1*
X868980D2*
X881093D1*
X937055D2*
X1412774D1*
X1454987D2*
X1562350D1*
X412652Y1604043D2*
X679337D1*
X721550D2*
X814540D1*
X870110D2*
X883446D1*
X934702D2*
X1412774D1*
X1454987D2*
X1562350D1*
X412652Y1592363D2*
X679337D1*
X721550D2*
X818913D1*
X865739D2*
X887333D1*
X929535D2*
X941509D1*
X1011531D2*
X1316509D1*
X1386531D2*
X1412774D1*
X1454987D2*
X1562350D1*
X412652Y1580683D2*
X679337D1*
X721550D2*
X822834D1*
X865035D2*
X887333D1*
X1026319D2*
X1301723D1*
X1401319D2*
X1412774D1*
X1454987D2*
X1562350D1*
X412652Y1569004D2*
X679337D1*
X721550D2*
X822834D1*
X865035D2*
X887333D1*
X1035235D2*
X1292819D1*
X1454987D2*
X1562350D1*
X412652Y1557324D2*
X679337D1*
X721550D2*
X822834D1*
X865035D2*
X887333D1*
X1040817D2*
X1287236D1*
X1454987D2*
X1562350D1*
X412652Y1545644D2*
X679337D1*
X721550D2*
X822834D1*
X865035D2*
X887333D1*
X1043908D2*
X1284134D1*
X1454987D2*
X1562350D1*
X412652Y1533964D2*
X679337D1*
X721550D2*
X822834D1*
X865035D2*
X887333D1*
X1044865D2*
X1283176D1*
X1454987D2*
X1562350D1*
X412652Y1522284D2*
X673246D1*
X727640D2*
X822834D1*
X865035D2*
X887333D1*
X1044865D2*
X1283176D1*
X1454987D2*
X1562350D1*
X412652Y1510605D2*
X672959D1*
X727929D2*
X822834D1*
X865035D2*
X887333D1*
X1044750D2*
X1283303D1*
X1454987D2*
X1562350D1*
X412652Y1498925D2*
X678426D1*
X722462D2*
X822834D1*
X865035D2*
X887333D1*
X1042997D2*
X1285044D1*
X1454987D2*
X1562350D1*
X412652Y1487245D2*
X822834D1*
X865035D2*
X887333D1*
X1039017D2*
X1289023D1*
X1454987D2*
X1562350D1*
X412652Y1475565D2*
X822834D1*
X865035D2*
X887333D1*
X1032328D2*
X1295725D1*
X1454987D2*
X1562350D1*
X412652Y1463886D2*
X822834D1*
X865035D2*
X887333D1*
X1021681D2*
X1306371D1*
X1396681D2*
X1412774D1*
X1454987D2*
X1562350D1*
X412652Y1452206D2*
X822834D1*
X865035D2*
X887333D1*
X929535D2*
X950622D1*
X1002431D2*
X1325622D1*
X1377431D2*
X1412774D1*
X1454987D2*
X1562350D1*
X412652Y1440526D2*
X820227D1*
X867643D2*
X887333D1*
X929535D2*
X1412774D1*
X1454987D2*
X1562350D1*
X412652Y1428846D2*
X816098D1*
X871771D2*
X887333D1*
X929535D2*
X1412774D1*
X1454987D2*
X1562350D1*
X412652Y1417166D2*
X817437D1*
X870433D2*
X884358D1*
X932498D2*
X1412774D1*
X1454987D2*
X1562350D1*
X412652Y1405487D2*
X825475D1*
X862405D2*
X880539D1*
X936328D2*
X1412774D1*
X1454987D2*
X1562350D1*
X412652Y1393807D2*
X882143D1*
X934725D2*
X1412774D1*
X1454987D2*
X1562350D1*
X412652Y1382127D2*
X890678D1*
X926178D2*
X1412774D1*
X1454987D2*
X1562350D1*
X412652Y1370447D2*
X583673D1*
X632586D2*
X1412774D1*
X1454987D2*
X1562350D1*
X412652Y1358767D2*
X570627D1*
X645620D2*
X1412774D1*
X1454987D2*
X1562350D1*
X412652Y1347088D2*
X564249D1*
X1170576D2*
X1412774D1*
X1454987D2*
X1562350D1*
X412652Y1335408D2*
X561619D1*
X1182492D2*
X1412774D1*
X1454987D2*
X1562350D1*
X412652Y1323728D2*
X562080D1*
X1194164D2*
X1412774D1*
X1454987D2*
X1562350D1*
X412652Y1312048D2*
X565725D1*
X1205847D2*
X1412774D1*
X1454987D2*
X1562350D1*
X412652Y1300368D2*
X573592D1*
X642656D2*
X871242D1*
X979812D2*
X1158813D1*
X1217521D2*
X1412774D1*
X1454987D2*
X1562350D1*
X412652Y1288689D2*
X591065D1*
X625193D2*
X859559D1*
X983964D2*
X1170498D1*
X1229204D2*
X1412774D1*
X1454987D2*
X1562350D1*
X412652Y1277009D2*
X738739D1*
X773754D2*
X847887D1*
X982637D2*
X1182182D1*
X1240889D2*
X1412774D1*
X1454987D2*
X1562350D1*
X412652Y1265329D2*
X730030D1*
X782473D2*
X836202D1*
X894909D2*
X937623D1*
X974622D2*
X1038627D1*
X1089456D2*
X1138630D1*
X1289459D2*
X1412774D1*
X1454987D2*
X1562350D1*
X412652Y1253649D2*
X724805D1*
X784157D2*
X824518D1*
X883225D2*
X1025387D1*
X1102698D2*
X1125388D1*
X1302700D2*
X1412774D1*
X1454987D2*
X1562350D1*
X412652Y1241970D2*
X713120D1*
X780431D2*
X812845D1*
X871552D2*
X1018708D1*
X1109376D2*
X1118710D1*
X1209378D2*
X1217211D1*
X1309367D2*
X1412266D1*
X1454987D2*
X1562350D1*
X412652Y1230290D2*
X701437D1*
X765853D2*
X801161D1*
X859868D2*
X1015732D1*
X1312355D2*
X1400582D1*
X1454594D2*
X1562350D1*
X412652Y1218610D2*
X689763D1*
X748471D2*
X789477D1*
X848195D2*
X1015744D1*
X1312344D2*
X1388909D1*
X1447616D2*
X1562350D1*
X412652Y1206930D2*
X680895D1*
X736787D2*
X777804D1*
X836512D2*
X1018754D1*
X1109330D2*
X1118756D1*
X1209332D2*
X1218745D1*
X1309333D2*
X1377225D1*
X1435933D2*
X1562350D1*
X412652Y1195250D2*
X679787D1*
X725114D2*
X766120D1*
X824828D2*
X1025455D1*
X1102628D2*
X1125456D1*
X1202630D2*
X1225459D1*
X1302631D2*
X1365542D1*
X1424260D2*
X1562350D1*
X412652Y1183571D2*
X679787D1*
X721988D2*
X754447D1*
X813155D2*
X1038788D1*
X1089295D2*
X1138791D1*
X1189296D2*
X1238792D1*
X1289298D2*
X1353868D1*
X1412576D2*
X1562350D1*
X412652Y1171891D2*
X679787D1*
X721988D2*
X742763D1*
X801471D2*
X1342185D1*
X1400891D2*
X1562350D1*
X412652Y1160211D2*
X679787D1*
X721988D2*
X731080D1*
X789798D2*
X858844D1*
X1389219D2*
X1562350D1*
X412652Y1148531D2*
X679787D1*
X778114D2*
X834576D1*
X1377535D2*
X1562350D1*
X412652Y1136851D2*
X679787D1*
X766430D2*
X828844D1*
X1365850D2*
X1562350D1*
X412652Y1125172D2*
X679787D1*
X754757D2*
X828959D1*
X1353820D2*
X1562350D1*
X412652Y1113492D2*
X679787D1*
X747445D2*
X834980D1*
X877515D2*
X1562350D1*
X412652Y1101812D2*
X628656D1*
X747445D2*
X1562350D1*
X412652Y1090132D2*
X614930D1*
X747445D2*
X1562350D1*
X412652Y1078452D2*
X608263D1*
X1165501D2*
X1562350D1*
X412652Y1066773D2*
X605438D1*
X1171165D2*
X1562350D1*
X412652Y1055093D2*
X605714D1*
X1171026D2*
X1562350D1*
X412652Y1043413D2*
X609152D1*
X1164937D2*
X1562350D1*
X412652Y1031733D2*
X616695D1*
X747445D2*
X934242D1*
X953261D2*
X1159241D1*
X1178258D2*
X1562350D1*
X412652Y1020054D2*
X633015D1*
X670731D2*
X679787D1*
X747445D2*
X919582D1*
X1192918D2*
X1562350D1*
X412652Y1008374D2*
X585506D1*
X630741D2*
X679787D1*
X747445D2*
X915846D1*
X1196656D2*
X1562350D1*
X412652Y996694D2*
X570015D1*
X646242D2*
X679787D1*
X747445D2*
X917518D1*
X1194983D2*
X1562350D1*
X412652Y985014D2*
X562277D1*
X653983D2*
X679787D1*
X747445D2*
X926203D1*
X961300D2*
X1151202D1*
X1186298D2*
X1562350D1*
X412652Y973334D2*
X558424D1*
X657834D2*
X679787D1*
X747445D2*
X1562350D1*
X412652Y961655D2*
X557547D1*
X658711D2*
X679787D1*
X747445D2*
X1562350D1*
X412652Y949975D2*
X559473D1*
X656786D2*
X679787D1*
X747445D2*
X1562350D1*
X412652Y938295D2*
X564594D1*
X651664D2*
X679787D1*
X747445D2*
X1562350D1*
X412652Y926615D2*
X574365D1*
X641895D2*
X679787D1*
X747445D2*
X1562350D1*
X412652Y914935D2*
X599439D1*
X616808D2*
X679787D1*
X747445D2*
X1562350D1*
X412652Y903256D2*
X679787D1*
X756925D2*
X954347D1*
X998706D2*
X1329347D1*
X1373706D2*
X1562350D1*
X412652Y891576D2*
X679787D1*
X768598D2*
X932975D1*
X1020067D2*
X1307975D1*
X1395067D2*
X1562350D1*
X412652Y879896D2*
X679787D1*
X789498D2*
X921716D1*
X1031336D2*
X1296716D1*
X1406336D2*
X1562350D1*
X412652Y868216D2*
X679787D1*
X721988D2*
X733248D1*
X798771D2*
X914647D1*
X1038407D2*
X1289647D1*
X1413407D2*
X1562350D1*
X412652Y856536D2*
X679787D1*
X730015D2*
X744840D1*
X800732D2*
X910391D1*
X1042662D2*
X1285391D1*
X1417662D2*
X1562350D1*
X412652Y844857D2*
X683409D1*
X741689D2*
X748254D1*
X797307D2*
X908395D1*
X1044657D2*
X1283395D1*
X1419657D2*
X1562350D1*
X412652Y833177D2*
X694666D1*
X753372D2*
X761564D1*
X783996D2*
X908176D1*
X1044865D2*
X1283176D1*
X1419865D2*
X1562350D1*
X412652Y821497D2*
X706338D1*
X765057D2*
X908176D1*
X1044865D2*
X1283176D1*
X1419865D2*
X1562350D1*
X412652Y809817D2*
X718023D1*
X776729D2*
X908914D1*
X1044127D2*
X1283914D1*
X1419127D2*
X1562350D1*
X412652Y798137D2*
X729707D1*
X788413D2*
X911752D1*
X1041290D2*
X1286752D1*
X1416290D2*
X1562350D1*
X412652Y786458D2*
X741379D1*
X800086D2*
X917022D1*
X1036030D2*
X1292022D1*
X1411030D2*
X1562350D1*
X412652Y774778D2*
X753064D1*
X811770D2*
X925477D1*
X1027576D2*
X1300477D1*
X1402576D2*
X1562350D1*
X412652Y763098D2*
X764748D1*
X823455D2*
X939295D1*
X1013746D2*
X1314295D1*
X1388746D2*
X1562350D1*
X412652Y751418D2*
X776421D1*
X835127D2*
X1562350D1*
X412652Y739739D2*
X788105D1*
X846811D2*
X1562350D1*
X412652Y728059D2*
X799777D1*
X858496D2*
X1562350D1*
X412652Y716379D2*
X811462D1*
X870168D2*
X1130162D1*
X1146828D2*
X1562350D1*
X412652Y704699D2*
X823145D1*
X1162445D2*
X1562350D1*
X412652Y693019D2*
X834819D1*
X1166366D2*
X1562350D1*
X412652Y681340D2*
X596510D1*
X619749D2*
X846502D1*
X1164855D2*
X1562350D1*
X412652Y669660D2*
X575206D1*
X641042D2*
X1120497D1*
X1156493D2*
X1562350D1*
X412652Y657980D2*
X566533D1*
X649715D2*
X1562350D1*
X412652Y646300D2*
X562392D1*
X1176712D2*
X1562350D1*
X412652Y634620D2*
X561504D1*
X1188397D2*
X1562350D1*
X412652Y622941D2*
X563672D1*
X1200069D2*
X1562350D1*
X412652Y611261D2*
X569439D1*
X646820D2*
X1153047D1*
X1211753D2*
X1562350D1*
X412652Y599581D2*
X581101D1*
X635158D2*
X1164719D1*
X1223426D2*
X1562350D1*
X412652Y587901D2*
X1176404D1*
X1235110D2*
X1562350D1*
X412652Y576221D2*
X1053795D1*
X1074288D2*
X1153796D1*
X1174291D2*
X1188088D1*
X1246795D2*
X1253798D1*
X1274292D2*
X1562350D1*
X412652Y564542D2*
X1030703D1*
X1097392D2*
X1130694D1*
X1297383D2*
X1562350D1*
X412652Y552862D2*
X1021464D1*
X1106619D2*
X1121466D1*
X1306622D2*
X1562350D1*
X412652Y541182D2*
X1016816D1*
X1311270D2*
X1562350D1*
X412652Y529502D2*
X1015386D1*
X1312700D2*
X1562350D1*
X412652Y517823D2*
X1016874D1*
X1311214D2*
X1562350D1*
X412652Y506143D2*
X1021592D1*
X1106492D2*
X1121593D1*
X1206494D2*
X1221594D1*
X1306496D2*
X1562350D1*
X412652Y494463D2*
X1030946D1*
X1097139D2*
X1130947D1*
X1197140D2*
X1230949D1*
X1297141D2*
X1562350D1*
X412652Y482783D2*
X1055040D1*
X1073043D2*
X1155042D1*
X1173044D2*
X1255044D1*
X1273047D2*
X1562350D1*
X412652Y471103D2*
X1562119D1*
X413679Y459424D2*
X1558001D1*
X416471Y447744D2*
X1551484D1*
X422283Y436064D2*
X1542119D1*
X432918Y424384D2*
X1527966D1*
X458523Y412704D2*
X1497539D1*
X657224Y4429407D2*
X656182Y4423640D1*
X654466Y4418039D1*
X652099Y4412679D1*
X649116Y4407637D1*
X645556Y4402984D1*
X641472Y4398783D1*
X636920Y4395095D1*
X631963Y4391972D1*
X626672Y4389458D1*
X621119Y4387586D1*
X615386Y4386384D1*
X609550Y4385870D1*
X603693Y4386048D1*
X597899Y4386918D1*
X592249Y4388467D1*
X586821Y4390674D1*
X581694Y4393508D1*
X576937Y4396926D1*
X572616Y4400886D1*
X568796Y4405326D1*
X565527Y4410189D1*
X562857Y4415404D1*
X560821Y4420897D1*
X559450Y4426593D1*
X558762Y4432412D1*
X558767Y4438270D1*
X559466Y4444088D1*
X560846Y4449781D1*
X562892Y4455271D1*
X565572Y4460481D1*
X568849Y4465337D1*
X572677Y4469773D1*
X577004Y4473723D1*
X581766Y4477135D1*
X586900Y4479959D1*
X592332Y4482156D1*
X597984Y4483695D1*
X603779Y4484555D1*
X609636Y4484723D1*
X615471Y4484198D1*
X621203Y4482987D1*
X626752Y4481105D1*
X632039Y4478581D1*
X636989Y4475449D1*
X641536Y4471753D1*
X645614Y4467546D1*
X649164Y4462886D1*
X652139Y4457838D1*
X654496Y4452475D1*
X656203Y4446870D1*
X657233Y4441103D1*
X657576Y4435298D1*
X657224Y4429407D1*
X697346Y4531510D2*
X697218Y4529543D1*
X697005Y4527582D1*
X696707Y4525634D1*
X696325Y4523699D1*
X695859Y4521782D1*
X695312Y4519888D1*
X694682Y4518019D1*
X693972Y4516179D1*
X693183Y4514372D1*
X692317Y4512601D1*
X691375Y4510868D1*
X690358Y4509178D1*
X689269Y4507534D1*
X688110Y4505939D1*
X686883Y4504395D1*
X685590Y4502907D1*
X684235Y4501475D1*
X682817Y4500102D1*
X681342Y4498794D1*
X679812Y4497550D1*
X678231Y4496374D1*
X676598Y4495266D1*
X674920Y4494232D1*
X673198Y4493270D1*
X671435Y4492384D1*
X669637Y4491576D1*
X667805Y4490846D1*
X665943Y4490195D1*
X664056Y4489627D1*
X662144Y4489140D1*
X660214Y4488737D1*
X658269Y4488418D1*
X656311Y4488183D1*
X654344Y4488034D1*
X652372Y4487970D1*
X650401Y4487991D1*
X648431Y4488097D1*
X646470Y4488290D1*
X644517Y4488565D1*
X642578Y4488926D1*
X640657Y4489371D1*
X638757Y4489899D1*
X636882Y4490508D1*
X635034Y4491198D1*
X633219Y4491967D1*
X631438Y4492815D1*
X629695Y4493739D1*
X627994Y4494736D1*
X626338Y4495807D1*
X624731Y4496949D1*
X623174Y4498158D1*
X621670Y4499435D1*
X620224Y4500775D1*
X618837Y4502178D1*
X617513Y4503639D1*
X616252Y4505155D1*
X615059Y4506724D1*
X613934Y4508345D1*
X612882Y4510012D1*
X611901Y4511723D1*
X610996Y4513475D1*
X610168Y4515265D1*
X609418Y4517089D1*
X608748Y4518943D1*
X608158Y4520825D1*
X607652Y4522731D1*
X607228Y4524657D1*
X606888Y4526599D1*
X606632Y4528555D1*
X606460Y4530519D1*
X606375Y4532489D1*
Y4534462D1*
X606460Y4536431D1*
X606631Y4538396D1*
X606887Y4540351D1*
X607227Y4542294D1*
X607651Y4544219D1*
X608157Y4546126D1*
X608746Y4548008D1*
X609416Y4549862D1*
X610165Y4551686D1*
X610993Y4553476D1*
X611897Y4555228D1*
X612878Y4556939D1*
X613930Y4558607D1*
X615055Y4560227D1*
X616248Y4561796D1*
X617508Y4563313D1*
X618833Y4564774D1*
X620219Y4566177D1*
X621665Y4567517D1*
X623168Y4568794D1*
X624725Y4570005D1*
X626333Y4571147D1*
X627988Y4572218D1*
X629689Y4573216D1*
X631431Y4574140D1*
X633212Y4574987D1*
X635027Y4575757D1*
X636875Y4576447D1*
X638750Y4577056D1*
X640651Y4577584D1*
X642571Y4578029D1*
X644510Y4578391D1*
X646462Y4578668D1*
X648425Y4578859D1*
X650393Y4578967D1*
X652366Y4578988D1*
X654337Y4578924D1*
X656303Y4578775D1*
X658261Y4578540D1*
X660207Y4578221D1*
X662137Y4577819D1*
X664048Y4577333D1*
X665937Y4576763D1*
X667799Y4576114D1*
X669631Y4575384D1*
X671429Y4574576D1*
X673191Y4573690D1*
X674913Y4572729D1*
X676592Y4571695D1*
X678224Y4570588D1*
X679807Y4569412D1*
X681337Y4568169D1*
X682812Y4566859D1*
X684229Y4565488D1*
X685585Y4564056D1*
X686879Y4562568D1*
X688106Y4561025D1*
X689265Y4559429D1*
X690354Y4557784D1*
X691371Y4556095D1*
X692313Y4554363D1*
X693181Y4552592D1*
X693970Y4550784D1*
X694679Y4548945D1*
X695309Y4547076D1*
X695858Y4545182D1*
X696324Y4543266D1*
X696706Y4541332D1*
X697004Y4539382D1*
X697218Y4537422D1*
X697345Y4535454D1*
X697388Y4533479D1*
X697346Y4531510D1*
X657224Y3735110D2*
X656182Y3729344D1*
X654466Y3723742D1*
X652099Y3718383D1*
X649116Y3713341D1*
X645556Y3708687D1*
X641472Y3704487D1*
X636920Y3700799D1*
X631963Y3697676D1*
X626672Y3695161D1*
X621119Y3693290D1*
X615386Y3692088D1*
X609550Y3691573D1*
X603693Y3691752D1*
X597899Y3692622D1*
X592249Y3694170D1*
X586821Y3696378D1*
X581694Y3699211D1*
X576937Y3702630D1*
X572616Y3706589D1*
X568796Y3711030D1*
X565527Y3715892D1*
X562857Y3721107D1*
X560821Y3726601D1*
X559450Y3732296D1*
X558762Y3738115D1*
X558767Y3743973D1*
X559466Y3749791D1*
X560846Y3755484D1*
X562892Y3760975D1*
X565572Y3766185D1*
X568849Y3771040D1*
X572677Y3775476D1*
X577004Y3779426D1*
X581766Y3782838D1*
X586900Y3785662D1*
X592332Y3787859D1*
X597984Y3789399D1*
X603779Y3790258D1*
X609636Y3790426D1*
X615471Y3789901D1*
X621203Y3788690D1*
X626752Y3786808D1*
X632039Y3784284D1*
X636989Y3781152D1*
X641536Y3777456D1*
X645614Y3773249D1*
X649164Y3768589D1*
X652139Y3763542D1*
X654496Y3758178D1*
X656203Y3752573D1*
X657233Y3746807D1*
X657576Y3741001D1*
X657224Y3735110D1*
Y3040812D2*
X656182Y3035046D1*
X654466Y3029445D1*
X652099Y3024085D1*
X649116Y3019043D1*
X645556Y3014389D1*
X641472Y3010189D1*
X636920Y3006501D1*
X631963Y3003378D1*
X626672Y3000863D1*
X621119Y2998992D1*
X615386Y2997790D1*
X609550Y2997275D1*
X603693Y2997454D1*
X597899Y2998324D1*
X592249Y2999872D1*
X586821Y3002080D1*
X581694Y3004913D1*
X576937Y3008332D1*
X572616Y3012291D1*
X568796Y3016732D1*
X565527Y3021594D1*
X562857Y3026809D1*
X560821Y3032303D1*
X559450Y3037998D1*
X558762Y3043817D1*
X558767Y3049676D1*
X559466Y3055493D1*
X560846Y3061186D1*
X562892Y3066677D1*
X565572Y3071887D1*
X568849Y3076742D1*
X572677Y3081178D1*
X577004Y3085128D1*
X581766Y3088540D1*
X586900Y3091365D1*
X592332Y3093561D1*
X597984Y3095101D1*
X603779Y3095960D1*
X609636Y3096128D1*
X615471Y3095603D1*
X621203Y3094392D1*
X626752Y3092510D1*
X632039Y3089987D1*
X636989Y3086854D1*
X641536Y3083158D1*
X645614Y3078951D1*
X649164Y3074291D1*
X652139Y3069244D1*
X654496Y3063880D1*
X656203Y3058275D1*
X657233Y3052509D1*
X657576Y3046703D1*
X657224Y3040812D1*
X697346Y3142916D2*
X697218Y3140949D1*
X697005Y3138988D1*
X696707Y3137039D1*
X696325Y3135105D1*
X695859Y3133187D1*
X695312Y3131294D1*
X694682Y3129425D1*
X693972Y3127585D1*
X693183Y3125778D1*
X692317Y3124006D1*
X691375Y3122274D1*
X690358Y3120584D1*
X689269Y3118939D1*
X688110Y3117345D1*
X686883Y3115800D1*
X685590Y3114312D1*
X684235Y3112880D1*
X682817Y3111508D1*
X681342Y3110199D1*
X679812Y3108955D1*
X678231Y3107779D1*
X676598Y3106672D1*
X674920Y3105637D1*
X673198Y3104676D1*
X671435Y3103790D1*
X669637Y3102981D1*
X667805Y3102252D1*
X665943Y3101601D1*
X664056Y3101033D1*
X662144Y3100546D1*
X660214Y3100143D1*
X658269Y3099824D1*
X656311Y3099589D1*
X654344Y3099439D1*
X652372Y3099375D1*
X650401Y3099396D1*
X648431Y3099502D1*
X646470Y3099695D1*
X644517Y3099971D1*
X642578Y3100332D1*
X640657Y3100777D1*
X638757Y3101304D1*
X636882Y3101913D1*
X635034Y3102603D1*
X633219Y3103372D1*
X631438Y3104220D1*
X629695Y3105144D1*
X627994Y3106141D1*
X626338Y3107212D1*
X624731Y3108354D1*
X623174Y3109564D1*
X621670Y3110841D1*
X620224Y3112181D1*
X618837Y3113584D1*
X617513Y3115044D1*
X616252Y3116560D1*
X615059Y3118130D1*
X613934Y3119750D1*
X612882Y3121417D1*
X611901Y3123128D1*
X610996Y3124880D1*
X610168Y3126670D1*
X609418Y3128494D1*
X608748Y3130349D1*
X608158Y3132231D1*
X607652Y3134136D1*
X607228Y3136063D1*
X606888Y3138005D1*
X606632Y3139960D1*
X606460Y3141925D1*
X606375Y3143895D1*
Y3145867D1*
X606460Y3147837D1*
X606631Y3149802D1*
X606887Y3151757D1*
X607227Y3153699D1*
X607651Y3155624D1*
X608157Y3157531D1*
X608746Y3159413D1*
X609416Y3161267D1*
X610165Y3163092D1*
X610993Y3164882D1*
X611897Y3166634D1*
X612878Y3168345D1*
X613930Y3170013D1*
X615055Y3171632D1*
X616248Y3173202D1*
X617508Y3174719D1*
X618833Y3176179D1*
X620219Y3177582D1*
X621665Y3178922D1*
X623168Y3180199D1*
X624725Y3181410D1*
X626333Y3182552D1*
X627988Y3183623D1*
X629689Y3184622D1*
X631431Y3185546D1*
X633212Y3186392D1*
X635027Y3187162D1*
X636875Y3187853D1*
X638750Y3188462D1*
X640651Y3188989D1*
X642571Y3189434D1*
X644510Y3189796D1*
X646462Y3190073D1*
X648425Y3190265D1*
X650393Y3190372D1*
X652366Y3190393D1*
X654337Y3190329D1*
X656303Y3190181D1*
X658261Y3189946D1*
X660207Y3189627D1*
X662137Y3189224D1*
X664048Y3188739D1*
X665937Y3188169D1*
X667799Y3187519D1*
X669631Y3186790D1*
X671429Y3185981D1*
X673191Y3185095D1*
X674913Y3184135D1*
X676592Y3183101D1*
X678224Y3181993D1*
X679807Y3180817D1*
X681337Y3179574D1*
X682812Y3178265D1*
X684229Y3176893D1*
X685585Y3175462D1*
X686879Y3173973D1*
X688106Y3172430D1*
X689265Y3170834D1*
X690354Y3169190D1*
X691371Y3167501D1*
X692313Y3165769D1*
X693181Y3163997D1*
X693970Y3162190D1*
X694679Y3160350D1*
X695309Y3158481D1*
X695858Y3156588D1*
X696324Y3154672D1*
X696706Y3152737D1*
X697004Y3150787D1*
X697218Y3148828D1*
X697345Y3146859D1*
X697388Y3144884D1*
X697346Y3142916D1*
X657224Y2346515D2*
X656182Y2340749D1*
X654466Y2335148D1*
X652099Y2329788D1*
X649116Y2324746D1*
X645556Y2320093D1*
X641472Y2315892D1*
X636920Y2312204D1*
X631963Y2309081D1*
X626672Y2306567D1*
X621119Y2304695D1*
X615386Y2303493D1*
X609550Y2302979D1*
X603693Y2303157D1*
X597899Y2304027D1*
X592249Y2305576D1*
X586821Y2307783D1*
X581694Y2310616D1*
X576937Y2314035D1*
X572616Y2317994D1*
X568796Y2322435D1*
X565527Y2327298D1*
X562857Y2332513D1*
X560821Y2338006D1*
X559450Y2343702D1*
X558762Y2349521D1*
X558767Y2355379D1*
X559466Y2361197D1*
X560846Y2366889D1*
X562892Y2372380D1*
X565572Y2377590D1*
X568849Y2382446D1*
X572677Y2386882D1*
X577004Y2390832D1*
X581766Y2394244D1*
X586900Y2397068D1*
X592332Y2399265D1*
X597984Y2400804D1*
X603779Y2401664D1*
X609636Y2401832D1*
X615471Y2401307D1*
X621203Y2400095D1*
X626752Y2398214D1*
X632039Y2395690D1*
X636989Y2392557D1*
X641536Y2388862D1*
X645614Y2384655D1*
X649164Y2379994D1*
X652139Y2374947D1*
X654496Y2369584D1*
X656203Y2363979D1*
X657233Y2358212D1*
X657576Y2352407D1*
X657224Y2346515D1*
X697346Y2448619D2*
X697218Y2446652D1*
X697005Y2444691D1*
X696707Y2442742D1*
X696325Y2440808D1*
X695859Y2438891D1*
X695312Y2436997D1*
X694682Y2435128D1*
X693972Y2433288D1*
X693183Y2431481D1*
X692317Y2429710D1*
X691375Y2427977D1*
X690358Y2426287D1*
X689269Y2424643D1*
X688110Y2423048D1*
X686883Y2421504D1*
X685590Y2420015D1*
X684235Y2418584D1*
X682817Y2417211D1*
X681342Y2415903D1*
X679812Y2414658D1*
X678231Y2413483D1*
X676598Y2412375D1*
X674920Y2411341D1*
X673198Y2410379D1*
X671435Y2409493D1*
X669637Y2408685D1*
X667805Y2407955D1*
X665943Y2407304D1*
X664056Y2406736D1*
X662144Y2406249D1*
X660214Y2405846D1*
X658269Y2405527D1*
X656311Y2405292D1*
X654344Y2405143D1*
X652372Y2405078D1*
X650401Y2405099D1*
X648431Y2405206D1*
X646470Y2405399D1*
X644517Y2405674D1*
X642578Y2406035D1*
X640657Y2406480D1*
X638757Y2407008D1*
X636882Y2407616D1*
X635034Y2408307D1*
X633219Y2409076D1*
X631438Y2409924D1*
X629695Y2410847D1*
X627994Y2411845D1*
X626338Y2412916D1*
X624731Y2414057D1*
X623174Y2415267D1*
X621670Y2416544D1*
X620224Y2417884D1*
X618837Y2419287D1*
X617513Y2420748D1*
X616252Y2422263D1*
X615059Y2423833D1*
X613934Y2425454D1*
X612882Y2427120D1*
X611901Y2428832D1*
X610996Y2430584D1*
X610168Y2432374D1*
X609418Y2434198D1*
X608748Y2436052D1*
X608158Y2437934D1*
X607652Y2439840D1*
X607228Y2441766D1*
X606888Y2443708D1*
X606632Y2445664D1*
X606460Y2447628D1*
X606375Y2449598D1*
Y2451571D1*
X606460Y2453540D1*
X606631Y2455505D1*
X606887Y2457460D1*
X607227Y2459403D1*
X607651Y2461328D1*
X608157Y2463235D1*
X608746Y2465116D1*
X609416Y2466971D1*
X610165Y2468795D1*
X610993Y2470585D1*
X611897Y2472337D1*
X612878Y2474048D1*
X613930Y2475716D1*
X615055Y2477336D1*
X616248Y2478905D1*
X617508Y2480422D1*
X618833Y2481883D1*
X620219Y2483286D1*
X621665Y2484626D1*
X623168Y2485903D1*
X624725Y2487114D1*
X626333Y2488256D1*
X627988Y2489326D1*
X629689Y2490325D1*
X631431Y2491249D1*
X633212Y2492095D1*
X635027Y2492866D1*
X636875Y2493556D1*
X638750Y2494165D1*
X640651Y2494693D1*
X642571Y2495137D1*
X644510Y2495500D1*
X646462Y2495777D1*
X648425Y2495968D1*
X650393Y2496076D1*
X652366Y2496097D1*
X654337Y2496033D1*
X656303Y2495884D1*
X658261Y2495649D1*
X660207Y2495330D1*
X662137Y2494928D1*
X664048Y2494442D1*
X665937Y2493872D1*
X667799Y2493223D1*
X669631Y2492493D1*
X671429Y2491685D1*
X673191Y2490799D1*
X674913Y2489838D1*
X676592Y2488804D1*
X678224Y2487697D1*
X679807Y2486521D1*
X681337Y2485278D1*
X682812Y2483968D1*
X684229Y2482597D1*
X685585Y2481165D1*
X686879Y2479677D1*
X688106Y2478134D1*
X689265Y2476538D1*
X690354Y2474893D1*
X691371Y2473204D1*
X692313Y2471472D1*
X693181Y2469700D1*
X693970Y2467893D1*
X694679Y2466054D1*
X695309Y2464185D1*
X695858Y2462291D1*
X696324Y2460375D1*
X696706Y2458441D1*
X697004Y2456491D1*
X697218Y2454531D1*
X697345Y2452563D1*
X697388Y2450588D1*
X697346Y2448619D1*
X657224Y1652219D2*
X656182Y1646452D1*
X654466Y1640851D1*
X652099Y1635492D1*
X649116Y1630450D1*
X645556Y1625796D1*
X641472Y1621595D1*
X636920Y1617908D1*
X631963Y1614784D1*
X626672Y1612270D1*
X621119Y1610399D1*
X615386Y1609197D1*
X609550Y1608682D1*
X603693Y1608861D1*
X597899Y1609731D1*
X592249Y1611279D1*
X586821Y1613487D1*
X581694Y1616320D1*
X576937Y1619739D1*
X572616Y1623698D1*
X568796Y1628139D1*
X565527Y1633001D1*
X562857Y1638216D1*
X560821Y1643710D1*
X559450Y1649405D1*
X558762Y1655224D1*
X558767Y1661082D1*
X559466Y1666900D1*
X560846Y1672593D1*
X562892Y1678084D1*
X565572Y1683294D1*
X568849Y1688149D1*
X572677Y1692585D1*
X577004Y1696535D1*
X581766Y1699947D1*
X586900Y1702771D1*
X592332Y1704968D1*
X597984Y1706508D1*
X603779Y1707367D1*
X609636Y1707535D1*
X615471Y1707010D1*
X621203Y1705799D1*
X626752Y1703917D1*
X632039Y1701393D1*
X636989Y1698261D1*
X641536Y1694565D1*
X645614Y1690358D1*
X649164Y1685698D1*
X652139Y1680651D1*
X654496Y1675287D1*
X656203Y1669682D1*
X657233Y1663916D1*
X657576Y1658110D1*
X657224Y1652219D1*
X697346Y1754323D2*
X697218Y1752355D1*
X697005Y1750395D1*
X696707Y1748446D1*
X696325Y1746512D1*
X695859Y1744594D1*
X695312Y1742700D1*
X694682Y1740832D1*
X693972Y1738992D1*
X693183Y1737185D1*
X692317Y1735413D1*
X691375Y1733681D1*
X690358Y1731991D1*
X689269Y1730346D1*
X688110Y1728752D1*
X686883Y1727207D1*
X685590Y1725719D1*
X684235Y1724287D1*
X682817Y1722914D1*
X681342Y1721606D1*
X679812Y1720362D1*
X678231Y1719186D1*
X676598Y1718078D1*
X674920Y1717044D1*
X673198Y1716082D1*
X671435Y1715197D1*
X669637Y1714388D1*
X667805Y1713658D1*
X665943Y1713008D1*
X664056Y1712439D1*
X662144Y1711952D1*
X660214Y1711550D1*
X658269Y1711231D1*
X656311Y1710996D1*
X654344Y1710846D1*
X652372Y1710782D1*
X650401Y1710803D1*
X648431Y1710909D1*
X646470Y1711102D1*
X644517Y1711378D1*
X642578Y1711739D1*
X640657Y1712183D1*
X638757Y1712711D1*
X636882Y1713320D1*
X635034Y1714010D1*
X633219Y1714779D1*
X631438Y1715627D1*
X629695Y1716551D1*
X627994Y1717548D1*
X626338Y1718619D1*
X624731Y1719761D1*
X623174Y1720971D1*
X621670Y1722248D1*
X620224Y1723588D1*
X618837Y1724991D1*
X617513Y1726451D1*
X616252Y1727967D1*
X615059Y1729536D1*
X613934Y1731157D1*
X612882Y1732824D1*
X611901Y1734535D1*
X610996Y1736287D1*
X610168Y1738077D1*
X609418Y1739901D1*
X608748Y1741756D1*
X608158Y1743637D1*
X607652Y1745543D1*
X607228Y1747470D1*
X606888Y1749412D1*
X606632Y1751367D1*
X606460Y1753332D1*
X606375Y1755302D1*
Y1757274D1*
X606460Y1759244D1*
X606631Y1761208D1*
X606887Y1763164D1*
X607227Y1765106D1*
X607651Y1767031D1*
X608157Y1768938D1*
X608746Y1770820D1*
X609416Y1772674D1*
X610165Y1774498D1*
X610993Y1776288D1*
X611897Y1778040D1*
X612878Y1779752D1*
X613930Y1781420D1*
X615055Y1783039D1*
X616248Y1784609D1*
X617508Y1786126D1*
X618833Y1787586D1*
X620219Y1788989D1*
X621665Y1790329D1*
X623168Y1791606D1*
X624725Y1792817D1*
X626333Y1793959D1*
X627988Y1795030D1*
X629689Y1796029D1*
X631431Y1796952D1*
X633212Y1797799D1*
X635027Y1798569D1*
X636875Y1799260D1*
X638750Y1799868D1*
X640651Y1800396D1*
X642571Y1800841D1*
X644510Y1801203D1*
X646462Y1801480D1*
X648425Y1801672D1*
X650393Y1801779D1*
X652366Y1801800D1*
X654337Y1801736D1*
X656303Y1801588D1*
X658261Y1801353D1*
X660207Y1801034D1*
X662137Y1800631D1*
X664048Y1800145D1*
X665937Y1799576D1*
X667799Y1798926D1*
X669631Y1798197D1*
X671429Y1797388D1*
X673191Y1796502D1*
X674913Y1795542D1*
X676592Y1794508D1*
X678224Y1793400D1*
X679807Y1792224D1*
X681337Y1790981D1*
X682812Y1789672D1*
X684229Y1788300D1*
X685585Y1786868D1*
X686879Y1785380D1*
X688106Y1783837D1*
X689265Y1782241D1*
X690354Y1780597D1*
X691371Y1778908D1*
X692313Y1777176D1*
X693181Y1775404D1*
X693970Y1773597D1*
X694679Y1771757D1*
X695309Y1769888D1*
X695858Y1767994D1*
X696324Y1766078D1*
X696706Y1764144D1*
X697004Y1762194D1*
X697218Y1760235D1*
X697345Y1758266D1*
X697388Y1756291D1*
X697346Y1754323D1*
X657224Y957921D2*
X656182Y952155D1*
X654466Y946554D1*
X652099Y941194D1*
X649116Y936152D1*
X645556Y931498D1*
X641472Y927298D1*
X636920Y923610D1*
X631963Y920487D1*
X626672Y917972D1*
X621119Y916101D1*
X615386Y914899D1*
X609550Y914384D1*
X603693Y914563D1*
X597899Y915433D1*
X592249Y916981D1*
X586821Y919189D1*
X581694Y922022D1*
X576937Y925441D1*
X572616Y929400D1*
X568796Y933841D1*
X565527Y938703D1*
X562857Y943918D1*
X560821Y949412D1*
X559450Y955107D1*
X558762Y960926D1*
X558767Y966784D1*
X559466Y972602D1*
X560846Y978295D1*
X562892Y983786D1*
X565572Y988996D1*
X568849Y993851D1*
X572677Y998287D1*
X577004Y1002237D1*
X581766Y1005649D1*
X586900Y1008473D1*
X592332Y1010670D1*
X597984Y1012210D1*
X603779Y1013069D1*
X609636Y1013237D1*
X615471Y1012712D1*
X621203Y1011501D1*
X626752Y1009619D1*
X632039Y1007095D1*
X636989Y1003963D1*
X641536Y1000267D1*
X645614Y996060D1*
X649164Y991400D1*
X652139Y986353D1*
X654496Y980989D1*
X656203Y975384D1*
X657233Y969618D1*
X657576Y963812D1*
X657224Y957921D1*
X1211157Y3998135D2*
X1210076Y3992389D1*
X1208296Y3986821D1*
X1205847Y3981513D1*
X1202763Y3976546D1*
X1199094Y3971996D1*
X1194892Y3967931D1*
X1190223Y3964414D1*
X1185157Y3961497D1*
X1179770Y3959225D1*
X1174145Y3957632D1*
X1168368Y3956741D1*
X1162525Y3956568D1*
X1156704Y3957115D1*
X1150996Y3958372D1*
X1145484Y3960321D1*
X1140254Y3962934D1*
X1135386Y3966168D1*
X1130950Y3969977D1*
X1127017Y3974302D1*
X1123645Y3979077D1*
X1120886Y3984231D1*
X1118781Y3989685D1*
X1117361Y3995355D1*
X1116649Y4001157D1*
X1116656Y4007004D1*
X1117382Y4012804D1*
X1118815Y4018472D1*
X1120933Y4023921D1*
X1123704Y4029068D1*
X1127088Y4033834D1*
X1131030Y4038151D1*
X1135475Y4041949D1*
X1140351Y4045172D1*
X1145588Y4047771D1*
X1151103Y4049707D1*
X1156815Y4050951D1*
X1162636Y4051484D1*
X1168480Y4051298D1*
X1174256Y4050393D1*
X1179876Y4048787D1*
X1185257Y4046502D1*
X1190316Y4043573D1*
X1194977Y4040046D1*
X1199169Y4035971D1*
X1202829Y4031412D1*
X1205900Y4026438D1*
X1208337Y4021124D1*
X1210103Y4015551D1*
X1211170Y4009804D1*
X1211523Y4004025D1*
X1211157Y3998135D1*
X1043689Y4308946D2*
Y4294182D1*
X1043429Y4288284D1*
X1042653Y4282431D1*
X1041366Y4276670D1*
X1039577Y4271044D1*
X1037302Y4265597D1*
X1034557Y4260370D1*
X1031363Y4255404D1*
X1027746Y4250739D1*
X1023735Y4246408D1*
X1019357Y4242447D1*
X1014648Y4238886D1*
X1009645Y4235752D1*
X1004387Y4233069D1*
X998913Y4230858D1*
X993265Y4229136D1*
X987489Y4227918D1*
X981628Y4227211D1*
X975727Y4227022D1*
X969833Y4227350D1*
X963991Y4228197D1*
X958244Y4229552D1*
X952640Y4231407D1*
X947219Y4233746D1*
X942026Y4236554D1*
X937098Y4239805D1*
X932476Y4243477D1*
X928194Y4247540D1*
X924284Y4251964D1*
X920779Y4256715D1*
X917704Y4261754D1*
X915084Y4267046D1*
X912938Y4272546D1*
X911284Y4278212D1*
X910134Y4284002D1*
X909496Y4289871D1*
X909358Y4294182D1*
Y4313867D1*
X909618Y4319765D1*
X910393Y4325618D1*
X911681Y4331379D1*
X913470Y4337005D1*
X915745Y4342452D1*
X918489Y4347679D1*
X921683Y4352645D1*
X925300Y4357311D1*
X929312Y4361641D1*
X933690Y4365602D1*
X938399Y4369164D1*
X943401Y4372298D1*
X948660Y4374980D1*
X954134Y4377191D1*
X959782Y4378913D1*
X965557Y4380131D1*
X971418Y4380838D1*
X977320Y4381027D1*
X983214Y4380699D1*
X989056Y4379853D1*
X994803Y4378497D1*
X1000407Y4376643D1*
X1005828Y4374303D1*
X1011021Y4371496D1*
X1015949Y4368244D1*
X1020571Y4364572D1*
X1024853Y4360509D1*
X1028762Y4356085D1*
X1032267Y4351334D1*
X1035342Y4346295D1*
X1037963Y4341004D1*
X1040109Y4335504D1*
X1041762Y4329837D1*
X1042913Y4324047D1*
X1043551Y4318178D1*
X1043689Y4313867D1*
Y4308946D1*
X1418689D2*
Y4294182D1*
X1418429Y4288284D1*
X1417653Y4282431D1*
X1416366Y4276670D1*
X1414577Y4271044D1*
X1412302Y4265597D1*
X1409557Y4260370D1*
X1406365Y4255404D1*
X1402746Y4250739D1*
X1398735Y4246408D1*
X1394357Y4242447D1*
X1389648Y4238886D1*
X1384645Y4235752D1*
X1379387Y4233069D1*
X1373913Y4230858D1*
X1368266Y4229136D1*
X1362489Y4227918D1*
X1356628Y4227211D1*
X1350727Y4227022D1*
X1344833Y4227350D1*
X1338991Y4228197D1*
X1333244Y4229552D1*
X1327640Y4231407D1*
X1322219Y4233746D1*
X1317026Y4236554D1*
X1312098Y4239805D1*
X1307476Y4243477D1*
X1303194Y4247540D1*
X1299284Y4251964D1*
X1295779Y4256715D1*
X1292704Y4261754D1*
X1290084Y4267046D1*
X1287938Y4272544D1*
X1286284Y4278212D1*
X1285134Y4284002D1*
X1284496Y4289871D1*
X1284358Y4294182D1*
Y4313867D1*
X1284618Y4319765D1*
X1285393Y4325618D1*
X1286681Y4331379D1*
X1288470Y4337005D1*
X1290745Y4342452D1*
X1293489Y4347679D1*
X1296682Y4352645D1*
X1300300Y4357311D1*
X1304312Y4361641D1*
X1308690Y4365602D1*
X1313399Y4369164D1*
X1318401Y4372298D1*
X1323660Y4374980D1*
X1329134Y4377191D1*
X1334781Y4378913D1*
X1340557Y4380131D1*
X1346418Y4380838D1*
X1352320Y4381027D1*
X1358214Y4380699D1*
X1364056Y4379853D1*
X1369803Y4378497D1*
X1375407Y4376643D1*
X1380828Y4374303D1*
X1386021Y4371496D1*
X1390949Y4368244D1*
X1395571Y4364572D1*
X1399853Y4360509D1*
X1403762Y4356085D1*
X1407267Y4351334D1*
X1410342Y4346295D1*
X1412963Y4341004D1*
X1415109Y4335505D1*
X1416762Y4329837D1*
X1417913Y4324047D1*
X1418551Y4318178D1*
X1418689Y4313867D1*
Y4308946D1*
X1111483Y3307174D2*
X1111361Y3305216D1*
X1111158Y3303263D1*
X1110875Y3301323D1*
X1110512Y3299393D1*
X1110069Y3297481D1*
X1109548Y3295589D1*
X1108949Y3293720D1*
X1108273Y3291878D1*
X1107522Y3290065D1*
X1106697Y3288284D1*
X1105798Y3286539D1*
X1104828Y3284833D1*
X1103788Y3283169D1*
X1102681Y3281548D1*
X1101508Y3279975D1*
X1100271Y3278452D1*
X1098971Y3276981D1*
X1097613Y3275565D1*
X1096197Y3274207D1*
X1094725Y3272908D1*
X1093202Y3271670D1*
X1091628Y3270497D1*
X1090008Y3269391D1*
X1088342Y3268351D1*
X1086636Y3267383D1*
X1084891Y3266484D1*
X1083110Y3265660D1*
X1081298Y3264908D1*
X1079454Y3264233D1*
X1077585Y3263635D1*
X1075693Y3263114D1*
X1073781Y3262672D1*
X1071853Y3262309D1*
X1069910Y3262026D1*
X1067958Y3261824D1*
X1066000Y3261703D1*
X1064038Y3261662D1*
X1062075Y3261703D1*
X1060116Y3261825D1*
X1058164Y3262027D1*
X1056223Y3262311D1*
X1054294Y3262674D1*
X1052382Y3263116D1*
X1050489Y3263637D1*
X1048620Y3264237D1*
X1046778Y3264913D1*
X1044966Y3265664D1*
X1043185Y3266489D1*
X1041439Y3267388D1*
X1039733Y3268358D1*
X1038069Y3269397D1*
X1036449Y3270505D1*
X1034875Y3271678D1*
X1033353Y3272914D1*
X1031882Y3274215D1*
X1030466Y3275573D1*
X1029107Y3276989D1*
X1027808Y3278460D1*
X1026571Y3279984D1*
X1025397Y3281557D1*
X1024291Y3283178D1*
X1023252Y3284844D1*
X1022283Y3286550D1*
X1021384Y3288295D1*
X1020560Y3290076D1*
X1019808Y3291888D1*
X1019134Y3293732D1*
X1018535Y3295601D1*
X1018014Y3297493D1*
X1017572Y3299405D1*
X1017210Y3301333D1*
X1016926Y3303275D1*
X1016724Y3305228D1*
X1016603Y3307186D1*
X1016563Y3309148D1*
X1016603Y3311111D1*
X1016725Y3313069D1*
X1016928Y3315022D1*
X1017211Y3316963D1*
X1017575Y3318892D1*
X1018017Y3320804D1*
X1018538Y3322697D1*
X1019137Y3324565D1*
X1019813Y3326408D1*
X1020564Y3328220D1*
X1021389Y3330001D1*
X1022288Y3331746D1*
X1023258Y3333452D1*
X1024298Y3335116D1*
X1025405Y3336737D1*
X1026578Y3338311D1*
X1027815Y3339833D1*
X1029115Y3341304D1*
X1030473Y3342720D1*
X1031889Y3344078D1*
X1033361Y3345378D1*
X1034884Y3346615D1*
X1036458Y3347788D1*
X1038078Y3348895D1*
X1039744Y3349934D1*
X1041450Y3350903D1*
X1043195Y3351802D1*
X1044976Y3352626D1*
X1046788Y3353378D1*
X1048632Y3354052D1*
X1050501Y3354651D1*
X1052393Y3355172D1*
X1054305Y3355614D1*
X1056233Y3355976D1*
X1058176Y3356260D1*
X1060128Y3356462D1*
X1062086Y3356582D1*
X1064048Y3356623D1*
X1066012Y3356582D1*
X1067970Y3356460D1*
X1069922Y3356258D1*
X1071863Y3355975D1*
X1073792Y3355611D1*
X1075704Y3355169D1*
X1077597Y3354648D1*
X1079466Y3354048D1*
X1081308Y3353372D1*
X1083120Y3352622D1*
X1084901Y3351796D1*
X1086647Y3350897D1*
X1088353Y3349928D1*
X1090017Y3348888D1*
X1091637Y3347781D1*
X1093211Y3346607D1*
X1094733Y3345371D1*
X1096204Y3344071D1*
X1097620Y3342712D1*
X1098979Y3341296D1*
X1100278Y3339825D1*
X1101515Y3338302D1*
X1102689Y3336728D1*
X1103795Y3335107D1*
X1104834Y3333442D1*
X1105803Y3331736D1*
X1106702Y3329991D1*
X1107526Y3328210D1*
X1108278Y3326397D1*
X1108952Y3324554D1*
X1109551Y3322685D1*
X1110072Y3320792D1*
X1110514Y3318880D1*
X1110876Y3316952D1*
X1111160Y3315010D1*
X1111362Y3313057D1*
X1111483Y3311099D1*
X1111523Y3309143D1*
X1111483Y3307174D1*
X1211157Y3303253D2*
X1210076Y3297508D1*
X1208296Y3291939D1*
X1205847Y3286631D1*
X1202763Y3281664D1*
X1199094Y3277114D1*
X1194892Y3273050D1*
X1190223Y3269533D1*
X1185157Y3266615D1*
X1179770Y3264344D1*
X1174145Y3262750D1*
X1168368Y3261859D1*
X1162525Y3261686D1*
X1156704Y3262233D1*
X1150996Y3263491D1*
X1145484Y3265439D1*
X1140254Y3268052D1*
X1135386Y3271286D1*
X1130950Y3275095D1*
X1127017Y3279420D1*
X1123645Y3284195D1*
X1120886Y3289349D1*
X1118781Y3294803D1*
X1117361Y3300473D1*
X1116649Y3306275D1*
X1116656Y3312122D1*
X1117382Y3317922D1*
X1118815Y3323590D1*
X1120933Y3329039D1*
X1123704Y3334186D1*
X1127088Y3338952D1*
X1131030Y3343269D1*
X1135475Y3347067D1*
X1140351Y3350290D1*
X1145588Y3352889D1*
X1151103Y3354825D1*
X1156815Y3356069D1*
X1162636Y3356602D1*
X1168480Y3356416D1*
X1174256Y3355512D1*
X1179876Y3353905D1*
X1185257Y3351620D1*
X1190316Y3348691D1*
X1194977Y3345164D1*
X1199169Y3341089D1*
X1202829Y3336530D1*
X1205900Y3331556D1*
X1208337Y3326242D1*
X1210103Y3320669D1*
X1211170Y3314922D1*
X1211523Y3309143D1*
X1211157Y3303253D1*
X1043689Y3614064D2*
Y3599300D1*
X1043429Y3593403D1*
X1042653Y3587550D1*
X1041366Y3581788D1*
X1039577Y3576162D1*
X1037302Y3570715D1*
X1034557Y3565488D1*
X1031365Y3560522D1*
X1027746Y3555857D1*
X1023735Y3551526D1*
X1019357Y3547565D1*
X1014648Y3544004D1*
X1009645Y3540870D1*
X1004387Y3538187D1*
X998913Y3535976D1*
X993266Y3534254D1*
X987489Y3533036D1*
X981628Y3532329D1*
X975727Y3532140D1*
X969833Y3532468D1*
X963991Y3533315D1*
X958244Y3534670D1*
X952640Y3536525D1*
X947219Y3538865D1*
X942026Y3541672D1*
X937098Y3544924D1*
X932476Y3548595D1*
X928194Y3552658D1*
X924284Y3557082D1*
X920779Y3561833D1*
X917704Y3566872D1*
X915084Y3572164D1*
X912938Y3577662D1*
X911284Y3583330D1*
X910134Y3589120D1*
X909496Y3594989D1*
X909358Y3599300D1*
Y3618985D1*
X909618Y3624883D1*
X910393Y3630736D1*
X911681Y3636497D1*
X913470Y3642123D1*
X915745Y3647571D1*
X918489Y3652798D1*
X921682Y3657763D1*
X925300Y3662429D1*
X929312Y3666760D1*
X933690Y3670720D1*
X938399Y3674282D1*
X943401Y3677416D1*
X948660Y3680098D1*
X954134Y3682309D1*
X959781Y3684031D1*
X965557Y3685249D1*
X971418Y3685956D1*
X977320Y3686145D1*
X983214Y3685817D1*
X989056Y3684971D1*
X994803Y3683615D1*
X1000407Y3681761D1*
X1005828Y3679421D1*
X1011021Y3676614D1*
X1015949Y3673362D1*
X1020571Y3669690D1*
X1024853Y3665627D1*
X1028762Y3661203D1*
X1032267Y3656452D1*
X1035342Y3651413D1*
X1037963Y3646122D1*
X1040109Y3640623D1*
X1041762Y3634955D1*
X1042913Y3629165D1*
X1043551Y3623296D1*
X1043689Y3618985D1*
Y3614064D1*
X1111483Y2612292D2*
X1111361Y2610334D1*
X1111158Y2608382D1*
X1110875Y2606441D1*
X1110512Y2604512D1*
X1110069Y2602599D1*
X1109548Y2600707D1*
X1108949Y2598838D1*
X1108273Y2596996D1*
X1107522Y2595183D1*
X1106697Y2593403D1*
X1105798Y2591657D1*
X1104828Y2589951D1*
X1103788Y2588287D1*
X1102681Y2586666D1*
X1101508Y2585093D1*
X1100271Y2583571D1*
X1098971Y2582099D1*
X1097613Y2580683D1*
X1096197Y2579325D1*
X1094725Y2578026D1*
X1093202Y2576788D1*
X1091628Y2575615D1*
X1090008Y2574509D1*
X1088342Y2573470D1*
X1086636Y2572501D1*
X1084891Y2571602D1*
X1083110Y2570778D1*
X1081298Y2570026D1*
X1079454Y2569351D1*
X1077585Y2568753D1*
X1075693Y2568232D1*
X1073781Y2567790D1*
X1071853Y2567428D1*
X1069910Y2567144D1*
X1067958Y2566942D1*
X1066000Y2566821D1*
X1064038Y2566781D1*
X1062075Y2566821D1*
X1060116Y2566943D1*
X1058164Y2567145D1*
X1056223Y2567429D1*
X1054294Y2567792D1*
X1052382Y2568235D1*
X1050489Y2568756D1*
X1048620Y2569355D1*
X1046778Y2570031D1*
X1044966Y2570782D1*
X1043185Y2571607D1*
X1041439Y2572506D1*
X1039733Y2573476D1*
X1038069Y2574515D1*
X1036449Y2575623D1*
X1034875Y2576796D1*
X1033353Y2578033D1*
X1031882Y2579333D1*
X1030466Y2580691D1*
X1029107Y2582107D1*
X1027808Y2583578D1*
X1026571Y2585102D1*
X1025397Y2586676D1*
X1024291Y2588296D1*
X1023252Y2589962D1*
X1022283Y2591668D1*
X1021384Y2593413D1*
X1020560Y2595194D1*
X1019808Y2597006D1*
X1019134Y2598850D1*
X1018535Y2600719D1*
X1018014Y2602611D1*
X1017572Y2604523D1*
X1017210Y2606451D1*
X1016926Y2608393D1*
X1016724Y2610346D1*
X1016603Y2612304D1*
X1016563Y2614266D1*
X1016603Y2616229D1*
X1016725Y2618187D1*
X1016928Y2620140D1*
X1017211Y2622081D1*
X1017575Y2624010D1*
X1018017Y2625922D1*
X1018538Y2627815D1*
X1019137Y2629683D1*
X1019813Y2631526D1*
X1020564Y2633338D1*
X1021389Y2635119D1*
X1022288Y2636865D1*
X1023258Y2638571D1*
X1024298Y2640235D1*
X1025405Y2641855D1*
X1026578Y2643429D1*
X1027815Y2644951D1*
X1029115Y2646422D1*
X1030473Y2647838D1*
X1031889Y2649197D1*
X1033361Y2650496D1*
X1034884Y2651733D1*
X1036458Y2652907D1*
X1038078Y2654013D1*
X1039744Y2655052D1*
X1041450Y2656021D1*
X1043195Y2656920D1*
X1044976Y2657744D1*
X1046788Y2658496D1*
X1048632Y2659170D1*
X1050501Y2659769D1*
X1052393Y2660290D1*
X1054305Y2660732D1*
X1056233Y2661094D1*
X1058176Y2661378D1*
X1060128Y2661580D1*
X1062086Y2661700D1*
X1064048Y2661741D1*
X1066012Y2661700D1*
X1067970Y2661578D1*
X1069922Y2661376D1*
X1071863Y2661093D1*
X1073792Y2660729D1*
X1075704Y2660287D1*
X1077597Y2659766D1*
X1079466Y2659166D1*
X1081308Y2658491D1*
X1083120Y2657740D1*
X1084901Y2656914D1*
X1086647Y2656015D1*
X1088353Y2655046D1*
X1090017Y2654006D1*
X1091637Y2652899D1*
X1093211Y2651725D1*
X1094733Y2650489D1*
X1096204Y2649189D1*
X1097620Y2647830D1*
X1098979Y2646414D1*
X1100278Y2644943D1*
X1101515Y2643420D1*
X1102689Y2641846D1*
X1103795Y2640225D1*
X1104834Y2638560D1*
X1105803Y2636854D1*
X1106702Y2635109D1*
X1107526Y2633328D1*
X1108278Y2631515D1*
X1108952Y2629672D1*
X1109551Y2627803D1*
X1110072Y2625910D1*
X1110514Y2623998D1*
X1110876Y2622071D1*
X1111160Y2620128D1*
X1111362Y2618176D1*
X1111483Y2616218D1*
X1111523Y2614261D1*
X1111483Y2612292D1*
X1211157Y2608371D2*
X1210076Y2602626D1*
X1208296Y2597057D1*
X1205847Y2591749D1*
X1202763Y2586782D1*
X1199094Y2582232D1*
X1194892Y2578168D1*
X1190223Y2574651D1*
X1185157Y2571733D1*
X1179770Y2569462D1*
X1174145Y2567868D1*
X1168368Y2566977D1*
X1162525Y2566804D1*
X1156704Y2567351D1*
X1150996Y2568609D1*
X1145484Y2570557D1*
X1140254Y2573170D1*
X1135386Y2576404D1*
X1130950Y2580214D1*
X1127017Y2584538D1*
X1123645Y2589313D1*
X1120886Y2594467D1*
X1118781Y2599921D1*
X1117361Y2605592D1*
X1116649Y2611393D1*
X1116656Y2617240D1*
X1117382Y2623040D1*
X1118815Y2628708D1*
X1120933Y2634157D1*
X1123704Y2639304D1*
X1127088Y2644071D1*
X1131030Y2648387D1*
X1135475Y2652185D1*
X1140351Y2655408D1*
X1145588Y2658008D1*
X1151103Y2659943D1*
X1156815Y2661187D1*
X1162636Y2661720D1*
X1168480Y2661534D1*
X1174256Y2660630D1*
X1179876Y2659023D1*
X1185257Y2656739D1*
X1190316Y2653809D1*
X1194977Y2650282D1*
X1199169Y2646207D1*
X1202829Y2641648D1*
X1205900Y2636674D1*
X1208337Y2631361D1*
X1210103Y2625787D1*
X1211170Y2620040D1*
X1211523Y2614261D1*
X1211157Y2608371D1*
X1043689Y2919182D2*
Y2904418D1*
X1043429Y2898521D1*
X1042653Y2892668D1*
X1041366Y2886907D1*
X1039577Y2881281D1*
X1037302Y2875833D1*
X1034557Y2870606D1*
X1031365Y2865640D1*
X1027746Y2860975D1*
X1023735Y2856644D1*
X1019357Y2852683D1*
X1014648Y2849122D1*
X1009645Y2845988D1*
X1004387Y2843305D1*
X998913Y2841094D1*
X993266Y2839372D1*
X987489Y2838155D1*
X981628Y2837447D1*
X975728Y2837257D1*
X969833Y2837586D1*
X963991Y2838433D1*
X958244Y2839788D1*
X952640Y2841643D1*
X947220Y2843983D1*
X942026Y2846790D1*
X937098Y2850042D1*
X932476Y2853714D1*
X928194Y2857777D1*
X924284Y2862200D1*
X920779Y2866951D1*
X917704Y2871991D1*
X915084Y2877281D1*
X912938Y2882781D1*
X911284Y2888449D1*
X910134Y2894239D1*
X909496Y2900107D1*
X909358Y2904418D1*
Y2924103D1*
X909618Y2930001D1*
X910393Y2935854D1*
X911681Y2941615D1*
X913470Y2947241D1*
X915745Y2952689D1*
X918489Y2957916D1*
X921682Y2962882D1*
X925300Y2967547D1*
X929312Y2971878D1*
X933690Y2975838D1*
X938399Y2979400D1*
X943401Y2982534D1*
X948660Y2985216D1*
X954134Y2987428D1*
X959781Y2989149D1*
X965557Y2990367D1*
X971418Y2991074D1*
X977319Y2991265D1*
X983214Y2990935D1*
X989056Y2990089D1*
X994803Y2988733D1*
X1000407Y2986879D1*
X1005826Y2984539D1*
X1011021Y2981732D1*
X1015949Y2978480D1*
X1020571Y2974808D1*
X1024853Y2970745D1*
X1028762Y2966321D1*
X1032267Y2961571D1*
X1035342Y2956531D1*
X1037963Y2951241D1*
X1040109Y2945741D1*
X1041762Y2940073D1*
X1042913Y2934283D1*
X1043551Y2928414D1*
X1043689Y2924103D1*
Y2919182D1*
X1111483Y1917410D2*
X1111361Y1915452D1*
X1111158Y1913500D1*
X1110875Y1911559D1*
X1110512Y1909630D1*
X1110069Y1907718D1*
X1109548Y1905825D1*
X1108949Y1903956D1*
X1108273Y1902114D1*
X1107522Y1900302D1*
X1106697Y1898521D1*
X1105798Y1896775D1*
X1104828Y1895069D1*
X1103788Y1893405D1*
X1102681Y1891784D1*
X1101508Y1890211D1*
X1100271Y1888689D1*
X1098971Y1887218D1*
X1097613Y1885802D1*
X1096197Y1884443D1*
X1094725Y1883144D1*
X1093202Y1881907D1*
X1091628Y1880733D1*
X1090008Y1879627D1*
X1088342Y1878588D1*
X1086636Y1877619D1*
X1084891Y1876720D1*
X1083110Y1875896D1*
X1081298Y1875144D1*
X1079454Y1874470D1*
X1077585Y1873871D1*
X1075693Y1873350D1*
X1073781Y1872908D1*
X1071853Y1872546D1*
X1069910Y1872262D1*
X1067958Y1872060D1*
X1066000Y1871939D1*
X1064038Y1871899D1*
X1062075Y1871939D1*
X1060116Y1872061D1*
X1058164Y1872263D1*
X1056223Y1872547D1*
X1054294Y1872910D1*
X1052382Y1873353D1*
X1050489Y1873874D1*
X1048620Y1874473D1*
X1046778Y1875149D1*
X1044966Y1875900D1*
X1043185Y1876725D1*
X1041439Y1877624D1*
X1039733Y1878594D1*
X1038069Y1879634D1*
X1036449Y1880741D1*
X1034875Y1881914D1*
X1033353Y1883151D1*
X1031882Y1884451D1*
X1030466Y1885809D1*
X1029107Y1887225D1*
X1027808Y1888697D1*
X1026571Y1890220D1*
X1025397Y1891794D1*
X1024291Y1893414D1*
X1023252Y1895080D1*
X1022283Y1896786D1*
X1021384Y1898531D1*
X1020560Y1900312D1*
X1019808Y1902124D1*
X1019134Y1903968D1*
X1018535Y1905837D1*
X1018014Y1907729D1*
X1017572Y1909641D1*
X1017210Y1911569D1*
X1016926Y1913512D1*
X1016724Y1915464D1*
X1016603Y1917422D1*
X1016563Y1919384D1*
X1016603Y1921347D1*
X1016725Y1923305D1*
X1016928Y1925258D1*
X1017211Y1927199D1*
X1017575Y1929128D1*
X1018017Y1931040D1*
X1018538Y1932933D1*
X1019137Y1934802D1*
X1019813Y1936644D1*
X1020564Y1938456D1*
X1021389Y1940237D1*
X1022288Y1941983D1*
X1023258Y1943689D1*
X1024298Y1945353D1*
X1025405Y1946973D1*
X1026578Y1948547D1*
X1027815Y1950069D1*
X1029115Y1951540D1*
X1030473Y1952956D1*
X1031889Y1954315D1*
X1033361Y1955614D1*
X1034884Y1956851D1*
X1036458Y1958025D1*
X1038078Y1959131D1*
X1039744Y1960170D1*
X1041450Y1961139D1*
X1043195Y1962038D1*
X1044976Y1962862D1*
X1046788Y1963614D1*
X1048632Y1964288D1*
X1050501Y1964887D1*
X1052393Y1965408D1*
X1054305Y1965850D1*
X1056233Y1966212D1*
X1058176Y1966496D1*
X1060128Y1966698D1*
X1062086Y1966819D1*
X1064048Y1966859D1*
X1066012Y1966819D1*
X1067970Y1966697D1*
X1069922Y1966494D1*
X1071863Y1966211D1*
X1073792Y1965847D1*
X1075704Y1965405D1*
X1077597Y1964884D1*
X1079466Y1964284D1*
X1081308Y1963609D1*
X1083120Y1962858D1*
X1084901Y1962033D1*
X1086647Y1961134D1*
X1088353Y1960164D1*
X1090017Y1959124D1*
X1091637Y1958017D1*
X1093211Y1956844D1*
X1094733Y1955607D1*
X1096204Y1954307D1*
X1097620Y1952949D1*
X1098979Y1951533D1*
X1100278Y1950061D1*
X1101515Y1948538D1*
X1102689Y1946964D1*
X1103795Y1945344D1*
X1104834Y1943678D1*
X1105803Y1941972D1*
X1106702Y1940227D1*
X1107526Y1938446D1*
X1108278Y1936634D1*
X1108952Y1934790D1*
X1109551Y1932921D1*
X1110072Y1931029D1*
X1110514Y1929116D1*
X1110876Y1927189D1*
X1111160Y1925246D1*
X1111362Y1923294D1*
X1111483Y1921336D1*
X1111523Y1919379D1*
X1111483Y1917410D1*
X1211157Y1913489D2*
X1210076Y1907744D1*
X1208296Y1902176D1*
X1205847Y1896867D1*
X1202763Y1891900D1*
X1199094Y1887350D1*
X1194892Y1883286D1*
X1190223Y1879769D1*
X1185157Y1876851D1*
X1179770Y1874580D1*
X1174145Y1872987D1*
X1168368Y1872095D1*
X1162525Y1871922D1*
X1156704Y1872470D1*
X1150996Y1873727D1*
X1145484Y1875676D1*
X1140254Y1878288D1*
X1135386Y1881522D1*
X1130950Y1885332D1*
X1127017Y1889656D1*
X1123645Y1894431D1*
X1120886Y1899585D1*
X1118781Y1905039D1*
X1117361Y1910710D1*
X1116649Y1916512D1*
X1116656Y1922358D1*
X1117382Y1928158D1*
X1118815Y1933826D1*
X1120933Y1939275D1*
X1123704Y1944422D1*
X1127088Y1949189D1*
X1131030Y1953505D1*
X1135475Y1957303D1*
X1140351Y1960526D1*
X1145588Y1963126D1*
X1151103Y1965061D1*
X1156815Y1966305D1*
X1162636Y1966838D1*
X1168480Y1966652D1*
X1174256Y1965748D1*
X1179876Y1964141D1*
X1185257Y1961857D1*
X1190316Y1958928D1*
X1194977Y1955400D1*
X1199169Y1951325D1*
X1202829Y1946766D1*
X1205900Y1941792D1*
X1208337Y1936479D1*
X1210103Y1930905D1*
X1211170Y1925158D1*
X1211523Y1919379D1*
X1211157Y1913489D1*
X1043689Y2224300D2*
Y2209536D1*
X1043429Y2203639D1*
X1042653Y2197786D1*
X1041366Y2192025D1*
X1039577Y2186399D1*
X1037302Y2180951D1*
X1034557Y2175724D1*
X1031365Y2170758D1*
X1027746Y2166093D1*
X1023735Y2161762D1*
X1019357Y2157802D1*
X1014648Y2154240D1*
X1009645Y2151106D1*
X1004387Y2148424D1*
X998913Y2146212D1*
X993266Y2144491D1*
X987489Y2143273D1*
X981628Y2142565D1*
X975728Y2142375D1*
X969833Y2142704D1*
X963991Y2143551D1*
X958244Y2144907D1*
X952640Y2146761D1*
X947220Y2149101D1*
X942026Y2151908D1*
X937098Y2155158D1*
X932476Y2158832D1*
X928194Y2162895D1*
X924284Y2167319D1*
X920779Y2172069D1*
X917704Y2177109D1*
X915084Y2182399D1*
X912938Y2187899D1*
X911284Y2193567D1*
X910134Y2199357D1*
X909496Y2205225D1*
X909358Y2209536D1*
Y2229221D1*
X909618Y2235119D1*
X910393Y2240972D1*
X911681Y2246733D1*
X913470Y2252359D1*
X915745Y2257807D1*
X918489Y2263034D1*
X921682Y2268000D1*
X925300Y2272665D1*
X929312Y2276996D1*
X933690Y2280956D1*
X938399Y2284518D1*
X943401Y2287652D1*
X948660Y2290334D1*
X954134Y2292546D1*
X959781Y2294267D1*
X965557Y2295485D1*
X971418Y2296193D1*
X977319Y2296383D1*
X983214Y2296054D1*
X989056Y2295207D1*
X994803Y2293851D1*
X1000407Y2291997D1*
X1005826Y2289657D1*
X1011021Y2286850D1*
X1015949Y2283599D1*
X1020571Y2279926D1*
X1024853Y2275863D1*
X1028762Y2271439D1*
X1032267Y2266689D1*
X1035342Y2261649D1*
X1037963Y2256359D1*
X1040109Y2250859D1*
X1041762Y2245191D1*
X1042913Y2239401D1*
X1043551Y2233533D1*
X1043689Y2229221D1*
Y2224300D1*
X1111483Y1222529D2*
X1111361Y1220571D1*
X1111158Y1218618D1*
X1110875Y1216677D1*
X1110512Y1214748D1*
X1110069Y1212836D1*
X1109548Y1210943D1*
X1108949Y1209074D1*
X1108273Y1207232D1*
X1107522Y1205420D1*
X1106697Y1203639D1*
X1105798Y1201893D1*
X1104828Y1200187D1*
X1103788Y1198523D1*
X1102681Y1196903D1*
X1101508Y1195329D1*
X1100271Y1193807D1*
X1098971Y1192336D1*
X1097613Y1190920D1*
X1096197Y1189561D1*
X1094725Y1188262D1*
X1093202Y1187025D1*
X1091628Y1185851D1*
X1090008Y1184745D1*
X1088342Y1183706D1*
X1086636Y1182737D1*
X1084891Y1181838D1*
X1083110Y1181014D1*
X1081298Y1180262D1*
X1079454Y1179588D1*
X1077585Y1178989D1*
X1075693Y1178468D1*
X1073781Y1178026D1*
X1071853Y1177664D1*
X1069910Y1177380D1*
X1067958Y1177178D1*
X1066000Y1177057D1*
X1064038Y1177017D1*
X1062075Y1177057D1*
X1060116Y1177179D1*
X1058164Y1177382D1*
X1056223Y1177665D1*
X1054294Y1178029D1*
X1052382Y1178471D1*
X1050489Y1178992D1*
X1048620Y1179592D1*
X1046778Y1180267D1*
X1044966Y1181018D1*
X1043185Y1181844D1*
X1041439Y1182742D1*
X1039733Y1183712D1*
X1038069Y1184752D1*
X1036449Y1185859D1*
X1034875Y1187033D1*
X1033353Y1188269D1*
X1031882Y1189569D1*
X1030466Y1190928D1*
X1029107Y1192344D1*
X1027808Y1193815D1*
X1026571Y1195338D1*
X1025397Y1196912D1*
X1024291Y1198533D1*
X1023252Y1200198D1*
X1022283Y1201904D1*
X1021384Y1203649D1*
X1020560Y1205430D1*
X1019808Y1207242D1*
X1019134Y1209086D1*
X1018535Y1210955D1*
X1018014Y1212847D1*
X1017572Y1214760D1*
X1017210Y1216687D1*
X1016926Y1218630D1*
X1016724Y1220582D1*
X1016603Y1222540D1*
X1016563Y1224502D1*
X1016603Y1226466D1*
X1016725Y1228424D1*
X1016928Y1230376D1*
X1017211Y1232317D1*
X1017575Y1234246D1*
X1018017Y1236158D1*
X1018538Y1238051D1*
X1019137Y1239920D1*
X1019813Y1241762D1*
X1020564Y1243574D1*
X1021389Y1245355D1*
X1022288Y1247101D1*
X1023258Y1248807D1*
X1024298Y1250471D1*
X1025405Y1252092D1*
X1026578Y1253665D1*
X1027815Y1255187D1*
X1029115Y1256658D1*
X1030473Y1258074D1*
X1031889Y1259433D1*
X1033361Y1260732D1*
X1034884Y1261970D1*
X1036458Y1263143D1*
X1038078Y1264249D1*
X1039744Y1265288D1*
X1041450Y1266257D1*
X1043195Y1267156D1*
X1044976Y1267980D1*
X1046788Y1268732D1*
X1048632Y1269407D1*
X1050501Y1270005D1*
X1052393Y1270526D1*
X1054305Y1270968D1*
X1056233Y1271330D1*
X1058176Y1271614D1*
X1060128Y1271816D1*
X1062086Y1271937D1*
X1064048Y1271977D1*
X1066012Y1271937D1*
X1067970Y1271815D1*
X1069922Y1271613D1*
X1071863Y1271329D1*
X1073792Y1270966D1*
X1075704Y1270523D1*
X1077597Y1270002D1*
X1079466Y1269403D1*
X1081308Y1268727D1*
X1083120Y1267976D1*
X1084901Y1267151D1*
X1086647Y1266252D1*
X1088353Y1265282D1*
X1090017Y1264242D1*
X1091637Y1263135D1*
X1093211Y1261962D1*
X1094733Y1260725D1*
X1096204Y1259425D1*
X1097620Y1258067D1*
X1098979Y1256651D1*
X1100278Y1255179D1*
X1101515Y1253656D1*
X1102689Y1252082D1*
X1103795Y1250462D1*
X1104834Y1248796D1*
X1105803Y1247090D1*
X1106702Y1245345D1*
X1107526Y1243564D1*
X1108278Y1241752D1*
X1108952Y1239908D1*
X1109551Y1238039D1*
X1110072Y1236147D1*
X1110514Y1234235D1*
X1110876Y1232307D1*
X1111160Y1230365D1*
X1111362Y1228412D1*
X1111483Y1226454D1*
X1111523Y1224497D1*
X1111483Y1222529D1*
X1211157Y1218607D2*
X1210076Y1212862D1*
X1208296Y1207294D1*
X1205847Y1201985D1*
X1202763Y1197018D1*
X1199094Y1192468D1*
X1194892Y1188404D1*
X1190223Y1184887D1*
X1185157Y1181970D1*
X1179770Y1179698D1*
X1174145Y1178105D1*
X1168368Y1177214D1*
X1162525Y1177040D1*
X1156704Y1177588D1*
X1150996Y1178845D1*
X1145484Y1180794D1*
X1140254Y1183407D1*
X1135386Y1186640D1*
X1130950Y1190450D1*
X1127017Y1194774D1*
X1123645Y1199550D1*
X1120886Y1204703D1*
X1118781Y1210157D1*
X1117361Y1215828D1*
X1116649Y1221630D1*
X1116656Y1227476D1*
X1117382Y1233277D1*
X1118815Y1238945D1*
X1120933Y1244393D1*
X1123704Y1249540D1*
X1127088Y1254307D1*
X1131030Y1258623D1*
X1135475Y1262421D1*
X1140351Y1265644D1*
X1145588Y1268244D1*
X1151103Y1270179D1*
X1156815Y1271424D1*
X1162636Y1271956D1*
X1168480Y1271770D1*
X1174256Y1270866D1*
X1179876Y1269260D1*
X1185257Y1266975D1*
X1190316Y1264046D1*
X1194977Y1260518D1*
X1199169Y1256443D1*
X1202829Y1251884D1*
X1205900Y1246910D1*
X1208337Y1241597D1*
X1210103Y1236023D1*
X1211170Y1230277D1*
X1211523Y1224497D1*
X1211157Y1218607D1*
X1043689Y1529418D2*
Y1514655D1*
X1043429Y1508757D1*
X1042653Y1502904D1*
X1041366Y1497143D1*
X1039577Y1491517D1*
X1037302Y1486069D1*
X1034557Y1480842D1*
X1031363Y1475876D1*
X1027746Y1471211D1*
X1023735Y1466880D1*
X1019357Y1462920D1*
X1014648Y1459358D1*
X1009645Y1456224D1*
X1004387Y1453542D1*
X998913Y1451330D1*
X993265Y1449609D1*
X987489Y1448391D1*
X981628Y1447683D1*
X975727Y1447494D1*
X969833Y1447824D1*
X963991Y1448669D1*
X958244Y1450025D1*
X952640Y1451879D1*
X947219Y1454219D1*
X942026Y1457026D1*
X937098Y1460278D1*
X932476Y1463950D1*
X928357Y1467858D1*
X928353Y1421147D1*
X929834Y1419353D1*
X932805Y1414374D1*
X934636Y1408874D1*
X935242Y1403204D1*
X934594Y1397346D1*
X932724Y1391859D1*
X929718Y1386903D1*
X925715Y1382707D1*
X920904Y1379471D1*
X915512Y1377345D1*
X909787Y1376428D1*
X903998Y1376762D1*
X898418Y1378333D1*
X893305Y1381068D1*
X888900Y1384837D1*
X885409Y1389464D1*
X882993Y1394735D1*
X881767Y1400401D1*
X881788Y1406199D1*
X883055Y1411857D1*
X885508Y1417110D1*
X888506Y1421025D1*
X888510Y1597834D1*
X886050Y1601304D1*
X883634Y1606574D1*
X882408Y1612241D1*
X882429Y1618039D1*
X883695Y1623697D1*
X886148Y1628950D1*
X889674Y1633552D1*
X894106Y1637290D1*
X899239Y1639987D1*
X904829Y1641518D1*
X910620Y1641811D1*
X916337Y1640853D1*
X921716Y1638687D1*
X926502Y1635416D1*
X930475Y1631193D1*
X933446Y1626214D1*
X935277Y1620714D1*
X935883Y1615044D1*
X935235Y1609186D1*
X933365Y1603699D1*
X930358Y1598742D1*
X928353Y1596641D1*
Y1581149D1*
X929312Y1582114D1*
X933690Y1586074D1*
X938399Y1589636D1*
X943401Y1592770D1*
X948660Y1595452D1*
X954134Y1597664D1*
X959782Y1599386D1*
X965557Y1600603D1*
X971418Y1601311D1*
X977320Y1601500D1*
X983214Y1601170D1*
X989056Y1600325D1*
X994803Y1598970D1*
X1000407Y1597115D1*
X1005828Y1594775D1*
X1011021Y1591968D1*
X1015949Y1588716D1*
X1020571Y1585044D1*
X1024853Y1580981D1*
X1028762Y1576556D1*
X1032267Y1571807D1*
X1035342Y1566766D1*
X1037963Y1561476D1*
X1040109Y1555976D1*
X1041762Y1550309D1*
X1042913Y1544519D1*
X1043551Y1538651D1*
X1043689Y1534340D1*
Y1529418D1*
X1111483Y527647D2*
X1111361Y525689D1*
X1111158Y523736D1*
X1110875Y521795D1*
X1110512Y519866D1*
X1110069Y517954D1*
X1109548Y516061D1*
X1108949Y514193D1*
X1108273Y512350D1*
X1107522Y510538D1*
X1106697Y508757D1*
X1105798Y507012D1*
X1104828Y505305D1*
X1103788Y503641D1*
X1102681Y502021D1*
X1101508Y500447D1*
X1100271Y498925D1*
X1098971Y497454D1*
X1097613Y496038D1*
X1096197Y494679D1*
X1094725Y493380D1*
X1093202Y492143D1*
X1091628Y490970D1*
X1090008Y489863D1*
X1088342Y488824D1*
X1086636Y487855D1*
X1084891Y486956D1*
X1083110Y486132D1*
X1081298Y485380D1*
X1079454Y484706D1*
X1077585Y484107D1*
X1075693Y483586D1*
X1073781Y483144D1*
X1071853Y482782D1*
X1069910Y482498D1*
X1067958Y482296D1*
X1066000Y482176D1*
X1064038Y482135D1*
X1062075Y482176D1*
X1060116Y482298D1*
X1058164Y482500D1*
X1056223Y482783D1*
X1054294Y483147D1*
X1052382Y483589D1*
X1050489Y484110D1*
X1048620Y484710D1*
X1046778Y485386D1*
X1044966Y486136D1*
X1043185Y486962D1*
X1041439Y487861D1*
X1039733Y488830D1*
X1038069Y489870D1*
X1036449Y490977D1*
X1034875Y492151D1*
X1033353Y493387D1*
X1031882Y494687D1*
X1030466Y496046D1*
X1029107Y497462D1*
X1027808Y498933D1*
X1026571Y500456D1*
X1025397Y502030D1*
X1024291Y503651D1*
X1023252Y505316D1*
X1022283Y507022D1*
X1021384Y508767D1*
X1020560Y510548D1*
X1019808Y512361D1*
X1019134Y514204D1*
X1018535Y516073D1*
X1018014Y517966D1*
X1017572Y519878D1*
X1017210Y521805D1*
X1016926Y523748D1*
X1016724Y525700D1*
X1016603Y527658D1*
X1016563Y529620D1*
X1016603Y531584D1*
X1016725Y533542D1*
X1016928Y535494D1*
X1017211Y537435D1*
X1017575Y539365D1*
X1018017Y541277D1*
X1018538Y543169D1*
X1019137Y545038D1*
X1019813Y546880D1*
X1020564Y548693D1*
X1021389Y550473D1*
X1022288Y552219D1*
X1023258Y553925D1*
X1024298Y555589D1*
X1025405Y557210D1*
X1026578Y558783D1*
X1027815Y560305D1*
X1029115Y561777D1*
X1030473Y563193D1*
X1031889Y564551D1*
X1033361Y565850D1*
X1034884Y567088D1*
X1036458Y568261D1*
X1038078Y569367D1*
X1039744Y570407D1*
X1041450Y571375D1*
X1043195Y572274D1*
X1044976Y573098D1*
X1046788Y573850D1*
X1048632Y574525D1*
X1050501Y575123D1*
X1052393Y575644D1*
X1054305Y576086D1*
X1056233Y576449D1*
X1058176Y576732D1*
X1060128Y576934D1*
X1062086Y577055D1*
X1064048Y577095D1*
X1066012Y577055D1*
X1067970Y576933D1*
X1069922Y576731D1*
X1071863Y576447D1*
X1073792Y576084D1*
X1075704Y575641D1*
X1077597Y575120D1*
X1079466Y574521D1*
X1081308Y573845D1*
X1083120Y573094D1*
X1084901Y572269D1*
X1086647Y571370D1*
X1088353Y570400D1*
X1090017Y569361D1*
X1091637Y568253D1*
X1093211Y567080D1*
X1094733Y565844D1*
X1096204Y564543D1*
X1097620Y563185D1*
X1098979Y561769D1*
X1100278Y560298D1*
X1101515Y558774D1*
X1102689Y557200D1*
X1103795Y555580D1*
X1104834Y553914D1*
X1105803Y552208D1*
X1106702Y550463D1*
X1107526Y548682D1*
X1108278Y546870D1*
X1108952Y545026D1*
X1109551Y543157D1*
X1110072Y541265D1*
X1110514Y539353D1*
X1110876Y537425D1*
X1111160Y535483D1*
X1111362Y533530D1*
X1111483Y531572D1*
X1111523Y529615D1*
X1111483Y527647D1*
X1211157Y523725D2*
X1210076Y517980D1*
X1208296Y512412D1*
X1205847Y507103D1*
X1202763Y502136D1*
X1199094Y497586D1*
X1194892Y493522D1*
X1190223Y490005D1*
X1185157Y487088D1*
X1179770Y484816D1*
X1174145Y483223D1*
X1168368Y482332D1*
X1162525Y482158D1*
X1156704Y482706D1*
X1150996Y483963D1*
X1145484Y485912D1*
X1140254Y488525D1*
X1135386Y491758D1*
X1130950Y495568D1*
X1127017Y499892D1*
X1123645Y504668D1*
X1120886Y509821D1*
X1118781Y515275D1*
X1117361Y520946D1*
X1116649Y526748D1*
X1116656Y532594D1*
X1117382Y538395D1*
X1118815Y544063D1*
X1120933Y549512D1*
X1123704Y554658D1*
X1127088Y559425D1*
X1131030Y563741D1*
X1135475Y567539D1*
X1140351Y570762D1*
X1145588Y573362D1*
X1151103Y575298D1*
X1156815Y576542D1*
X1162636Y577074D1*
X1168480Y576888D1*
X1174256Y575984D1*
X1179876Y574378D1*
X1185257Y572093D1*
X1190316Y569164D1*
X1194977Y565636D1*
X1199169Y561561D1*
X1202829Y557002D1*
X1205900Y552029D1*
X1208337Y546715D1*
X1210103Y541141D1*
X1211170Y535395D1*
X1211523Y529615D1*
X1211157Y523725D1*
X1043689Y834536D2*
Y819773D1*
X1043429Y813875D1*
X1042653Y808022D1*
X1041366Y802261D1*
X1039577Y796635D1*
X1037302Y791187D1*
X1034557Y785960D1*
X1031363Y780994D1*
X1027746Y776329D1*
X1023735Y771998D1*
X1019357Y768038D1*
X1014648Y764476D1*
X1009645Y761342D1*
X1004387Y758660D1*
X998913Y756449D1*
X993265Y754727D1*
X987489Y753509D1*
X981628Y752802D1*
X975727Y752613D1*
X969833Y752942D1*
X963991Y753787D1*
X958244Y755143D1*
X952640Y756997D1*
X947219Y759337D1*
X942026Y762144D1*
X937098Y765396D1*
X932476Y769068D1*
X928194Y773131D1*
X924284Y777555D1*
X920779Y782305D1*
X917704Y787345D1*
X915084Y792636D1*
X912938Y798136D1*
X911284Y803803D1*
X910134Y809593D1*
X909496Y815462D1*
X909358Y819773D1*
Y839458D1*
X909618Y845355D1*
X910393Y851208D1*
X911681Y856970D1*
X913470Y862595D1*
X915745Y868043D1*
X918489Y873270D1*
X921683Y878236D1*
X925300Y882901D1*
X929312Y887232D1*
X933690Y891193D1*
X938399Y894754D1*
X943401Y897888D1*
X948660Y900571D1*
X954134Y902782D1*
X959782Y904504D1*
X965557Y905721D1*
X971418Y906429D1*
X977320Y906618D1*
X983214Y906288D1*
X989056Y905443D1*
X994803Y904088D1*
X1000407Y902233D1*
X1005828Y899893D1*
X1011021Y897086D1*
X1015949Y893834D1*
X1020571Y890162D1*
X1024853Y886099D1*
X1028762Y881676D1*
X1032267Y876925D1*
X1035342Y871886D1*
X1037963Y866594D1*
X1040109Y861094D1*
X1041762Y855428D1*
X1042913Y849637D1*
X1043551Y843769D1*
X1043689Y839458D1*
Y834536D1*
X1418689D2*
Y819773D1*
X1418429Y813875D1*
X1417653Y808022D1*
X1416366Y802261D1*
X1414577Y796635D1*
X1412302Y791187D1*
X1409557Y785960D1*
X1406365Y780994D1*
X1402746Y776329D1*
X1398735Y771998D1*
X1394357Y768038D1*
X1389648Y764476D1*
X1384645Y761342D1*
X1379387Y758660D1*
X1373913Y756449D1*
X1368265Y754727D1*
X1362489Y753509D1*
X1356628Y752802D1*
X1350727Y752613D1*
X1344833Y752941D1*
X1338991Y753787D1*
X1333244Y755143D1*
X1327640Y756997D1*
X1322219Y759337D1*
X1317026Y762144D1*
X1312098Y765396D1*
X1307476Y769068D1*
X1303194Y773131D1*
X1299284Y777555D1*
X1295779Y782305D1*
X1292704Y787345D1*
X1290084Y792636D1*
X1287938Y798135D1*
X1286284Y803803D1*
X1285134Y809593D1*
X1284496Y815462D1*
X1284358Y819773D1*
Y839458D1*
X1284618Y845355D1*
X1285393Y851208D1*
X1286681Y856970D1*
X1288470Y862595D1*
X1290745Y868043D1*
X1293489Y873270D1*
X1296682Y878236D1*
X1300300Y882901D1*
X1304312Y887232D1*
X1308690Y891193D1*
X1313399Y894754D1*
X1318401Y897888D1*
X1323660Y900571D1*
X1329134Y902782D1*
X1334782Y904504D1*
X1340557Y905721D1*
X1346418Y906429D1*
X1352320Y906618D1*
X1358214Y906290D1*
X1364056Y905443D1*
X1369803Y904088D1*
X1375407Y902233D1*
X1380828Y899893D1*
X1386021Y897086D1*
X1390949Y893834D1*
X1395571Y890162D1*
X1399853Y886099D1*
X1403762Y881676D1*
X1407267Y876925D1*
X1410342Y871886D1*
X1412963Y866594D1*
X1415109Y861095D1*
X1416762Y855428D1*
X1417913Y849637D1*
X1418551Y843769D1*
X1418689Y839458D1*
Y834536D1*
X870101Y1420127D2*
X868231Y1414640D1*
X865224Y1409683D1*
X861221Y1405488D1*
X856410Y1402252D1*
X851018Y1400126D1*
X845294Y1399208D1*
X839505Y1399543D1*
X833925Y1401114D1*
X828812Y1403849D1*
X824407Y1407618D1*
X820916Y1412245D1*
X818500Y1417515D1*
X817274Y1423182D1*
X817295Y1428980D1*
X818561Y1434637D1*
X821014Y1439891D1*
X824021Y1443815D1*
X824017Y1587763D1*
X822794Y1588984D1*
X819303Y1593611D1*
X816887Y1598882D1*
X815661Y1604548D1*
X815682Y1610346D1*
X816949Y1616004D1*
X819401Y1621257D1*
X822928Y1625859D1*
X827359Y1629597D1*
X832492Y1632294D1*
X838082Y1633825D1*
X843874Y1634118D1*
X849590Y1633160D1*
X854970Y1630994D1*
X859756Y1627723D1*
X863728Y1623500D1*
X866699Y1618521D1*
X868530Y1613021D1*
X869136Y1607351D1*
X868488Y1601493D1*
X866618Y1596006D1*
X863861Y1591460D1*
X863859Y1443925D1*
X865341Y1442134D1*
X868312Y1437155D1*
X870143Y1431655D1*
X870749Y1425985D1*
X870101Y1420127D1*
X889857Y3710442D2*
X756267D1*
X750736Y3711225D1*
X745635Y3713518D1*
X742170Y3716287D1*
X733365Y3725093D1*
X730328Y3725429D1*
X724746Y3727000D1*
X720458Y3729294D1*
X720464Y3720627D1*
X753724Y3687372D1*
X769212Y3687371D1*
X771970Y3689697D1*
X777102Y3692393D1*
X782693Y3693925D1*
X788484Y3694218D1*
X794200Y3693260D1*
X799580Y3691094D1*
X804366Y3687823D1*
X808338Y3683599D1*
X811309Y3678620D1*
X813140Y3673120D1*
X813746Y3667451D1*
X813098Y3661593D1*
X811228Y3656106D1*
X808221Y3651149D1*
X804219Y3646954D1*
X799408Y3643718D1*
X794015Y3641592D1*
X788291Y3640674D1*
X782502Y3641009D1*
X776922Y3642580D1*
X771809Y3645315D1*
X769224Y3647526D1*
X745483Y3647530D1*
X741972Y3647838D1*
X736664Y3649581D1*
X732047Y3652728D1*
X731380Y3653365D1*
X686466Y3698279D1*
X684203Y3700980D1*
X681681Y3705966D1*
X680641Y3711455D1*
X680620Y3712376D1*
Y3803910D1*
X679812Y3803253D1*
X678231Y3802077D1*
X676598Y3800970D1*
X674920Y3799935D1*
X673198Y3798973D1*
X671435Y3798088D1*
X669637Y3797279D1*
X667805Y3796550D1*
X665943Y3795899D1*
X664056Y3795330D1*
X662144Y3794844D1*
X660214Y3794441D1*
X658269Y3794122D1*
X656311Y3793887D1*
X654344Y3793737D1*
X652372Y3793673D1*
X650401Y3793694D1*
X648431Y3793800D1*
X646470Y3793993D1*
X644517Y3794269D1*
X642578Y3794630D1*
X640657Y3795074D1*
X638757Y3795602D1*
X636882Y3796211D1*
X635034Y3796901D1*
X633219Y3797670D1*
X631438Y3798518D1*
X629695Y3799442D1*
X627994Y3800439D1*
X626338Y3801510D1*
X624731Y3802652D1*
X623174Y3803862D1*
X621670Y3805139D1*
X620224Y3806479D1*
X618837Y3807882D1*
X617513Y3809342D1*
X616252Y3810858D1*
X615059Y3812428D1*
X613934Y3814048D1*
X612882Y3815715D1*
X611901Y3817426D1*
X610996Y3819178D1*
X610168Y3820968D1*
X609418Y3822792D1*
X608748Y3824647D1*
X608158Y3826529D1*
X607652Y3828434D1*
X607228Y3830361D1*
X606888Y3832303D1*
X606632Y3834258D1*
X606460Y3836223D1*
X606375Y3838193D1*
Y3840165D1*
X606460Y3842135D1*
X606631Y3844099D1*
X606887Y3846055D1*
X607227Y3847997D1*
X607651Y3849922D1*
X608157Y3851829D1*
X608746Y3853711D1*
X609416Y3855565D1*
X610165Y3857389D1*
X610993Y3859179D1*
X611897Y3860931D1*
X612878Y3862643D1*
X613930Y3864311D1*
X615055Y3865930D1*
X616248Y3867500D1*
X617508Y3869017D1*
X618833Y3870477D1*
X620219Y3871880D1*
X621665Y3873220D1*
X623168Y3874497D1*
X624725Y3875708D1*
X626333Y3876850D1*
X627988Y3877921D1*
X629689Y3878920D1*
X631431Y3879844D1*
X633212Y3880690D1*
X635027Y3881460D1*
X636875Y3882151D1*
X638750Y3882760D1*
X640651Y3883287D1*
X642571Y3883732D1*
X644510Y3884094D1*
X646462Y3884371D1*
X648425Y3884563D1*
X650393Y3884670D1*
X652366Y3884691D1*
X654337Y3884627D1*
X656303Y3884479D1*
X658261Y3884244D1*
X660207Y3883925D1*
X662137Y3883522D1*
X664048Y3883036D1*
X665937Y3882467D1*
X667799Y3881817D1*
X669631Y3881088D1*
X671429Y3880279D1*
X673191Y3879393D1*
X674913Y3878433D1*
X676592Y3877399D1*
X678224Y3876291D1*
X679807Y3875115D1*
X680622Y3874454D1*
X680620Y3911065D1*
X680929Y3914578D1*
X682672Y3919887D1*
X685819Y3924504D1*
X686455Y3925170D1*
X810396Y4049115D1*
X810401Y4050581D1*
X811668Y4056239D1*
X814120Y4061492D1*
X817647Y4066094D1*
X822078Y4069832D1*
X827211Y4072529D1*
X832802Y4074060D1*
X838593Y4074353D1*
X844309Y4073395D1*
X849689Y4071229D1*
X854475Y4067958D1*
X858447Y4063735D1*
X861418Y4058756D1*
X863249Y4053256D1*
X863855Y4047586D1*
X863207Y4041728D1*
X861337Y4036241D1*
X858330Y4031284D1*
X854328Y4027089D1*
X849517Y4023853D1*
X844124Y4021727D1*
X838450Y4020817D1*
X720467Y3902836D1*
X720463Y3774551D1*
X724926Y3776813D1*
X730518Y3778344D1*
X736308Y3778636D1*
X742026Y3777678D1*
X747404Y3775513D1*
X752191Y3772242D1*
X756162Y3768019D1*
X759134Y3763040D1*
X760966Y3757539D1*
X761408Y3753393D1*
X764521Y3750283D1*
X881623Y3750284D1*
X894614Y3763278D1*
X894744Y3764872D1*
X896010Y3770530D1*
X898463Y3775783D1*
X901989Y3780386D1*
X906421Y3784123D1*
X911554Y3786820D1*
X917144Y3788351D1*
X922935Y3788644D1*
X928652Y3787686D1*
X934031Y3785521D1*
X938817Y3782249D1*
X942790Y3778026D1*
X945761Y3773047D1*
X947592Y3767547D1*
X948198Y3761878D1*
X947550Y3756019D1*
X945679Y3750533D1*
X942673Y3745576D1*
X938670Y3741380D1*
X933859Y3738144D1*
X928467Y3736018D1*
X922792Y3735109D1*
X903959Y3716277D1*
X899493Y3712918D1*
X894265Y3710933D1*
X889857Y3710442D1*
X932029Y2324716D2*
X937130Y2322424D1*
X942661Y2321640D1*
X1259641Y2321645D1*
Y2028960D1*
X1259662Y2028039D1*
X1260702Y2022548D1*
X1263227Y2017559D1*
X1265488Y2014862D1*
X1413959Y1866392D1*
X1413958Y1558925D1*
X1412963Y1561476D1*
X1410342Y1566767D1*
X1407267Y1571807D1*
X1403762Y1576557D1*
X1399853Y1580981D1*
X1395571Y1585044D1*
X1390949Y1588716D1*
X1386021Y1591968D1*
X1380828Y1594775D1*
X1375407Y1597115D1*
X1369803Y1598970D1*
X1364056Y1600325D1*
X1358214Y1601170D1*
X1352320Y1601500D1*
X1346418Y1601311D1*
X1340557Y1600603D1*
X1334782Y1599386D1*
X1329134Y1597664D1*
X1323660Y1595452D1*
X1318401Y1592770D1*
X1313399Y1589636D1*
X1308690Y1586074D1*
X1304312Y1582114D1*
X1300300Y1577783D1*
X1296683Y1573118D1*
X1293489Y1568152D1*
X1290745Y1562925D1*
X1288470Y1557477D1*
X1286681Y1551851D1*
X1285393Y1546090D1*
X1284618Y1540237D1*
X1284358Y1534340D1*
Y1514655D1*
X1284496Y1510344D1*
X1285134Y1504475D1*
X1286284Y1498685D1*
X1287938Y1493018D1*
X1290084Y1487518D1*
X1292704Y1482227D1*
X1295779Y1477187D1*
X1299284Y1472437D1*
X1303194Y1468013D1*
X1307476Y1463950D1*
X1312098Y1460278D1*
X1317026Y1457026D1*
X1322219Y1454219D1*
X1327640Y1451879D1*
X1333244Y1450025D1*
X1338991Y1448669D1*
X1344833Y1447824D1*
X1350727Y1447494D1*
X1356628Y1447683D1*
X1362489Y1448391D1*
X1368265Y1449609D1*
X1373913Y1451330D1*
X1379387Y1453542D1*
X1384645Y1456224D1*
X1389648Y1459358D1*
X1394357Y1462920D1*
X1398735Y1466880D1*
X1402746Y1471211D1*
X1406363Y1475876D1*
X1409557Y1480842D1*
X1412302Y1486069D1*
X1413958Y1490033D1*
X1413959Y1242483D1*
X1332700Y1161225D1*
X866304D1*
X865383Y1161204D1*
X859892Y1160165D1*
X855270Y1157887D1*
X852006Y1157723D1*
X846416Y1156191D1*
X841283Y1153494D1*
X836851Y1149757D1*
X833325Y1145155D1*
X830872Y1139901D1*
X829606Y1134244D1*
X829585Y1128446D1*
X830811Y1122779D1*
X833227Y1117509D1*
X836718Y1112882D1*
X841123Y1109113D1*
X846236Y1106378D1*
X851816Y1104807D1*
X857605Y1104472D1*
X863329Y1105389D1*
X868721Y1107515D1*
X873533Y1110752D1*
X877535Y1114947D1*
X880542Y1119904D1*
X881178Y1121383D1*
X1340937D1*
X1345351Y1121875D1*
X1350575Y1123859D1*
X1355040Y1127218D1*
X1447955Y1220132D1*
X1450729Y1223602D1*
X1453018Y1228699D1*
X1453802Y1234231D1*
X1453803Y1702426D1*
X1455300Y1699983D1*
X1459137Y1695493D1*
X1463628Y1691657D1*
X1468665Y1688573D1*
X1474122Y1686313D1*
X1479865Y1684935D1*
X1485753Y1684473D1*
X1491641Y1684938D1*
X1497383Y1686317D1*
X1502840Y1688578D1*
X1507875Y1691665D1*
X1512365Y1695502D1*
X1516200Y1699993D1*
X1519284Y1705030D1*
X1521544Y1710487D1*
X1522922Y1716229D1*
X1523384Y1722118D1*
X1522920Y1728006D1*
X1521540Y1733748D1*
X1519279Y1739204D1*
X1516630Y1743526D1*
X1523384Y1743529D1*
Y1818804D1*
X1453802Y1818799D1*
Y1874626D1*
X1453311Y1879040D1*
X1451325Y1884263D1*
X1447967Y1888729D1*
X1299484Y2037212D1*
X1299487Y2167090D1*
X1303194Y2162895D1*
X1307476Y2158832D1*
X1312098Y2155160D1*
X1317026Y2151908D1*
X1322219Y2149101D1*
X1327640Y2146761D1*
X1333244Y2144907D1*
X1338991Y2143551D1*
X1344833Y2142706D1*
X1350727Y2142376D1*
X1356628Y2142565D1*
X1362489Y2143273D1*
X1368265Y2144491D1*
X1373912Y2146212D1*
X1379387Y2148424D1*
X1384645Y2151106D1*
X1389648Y2154240D1*
X1394357Y2157802D1*
X1398735Y2161762D1*
X1402746Y2166093D1*
X1406363Y2170758D1*
X1409557Y2175724D1*
X1412302Y2180951D1*
X1414577Y2186399D1*
X1416366Y2192025D1*
X1417653Y2197786D1*
X1418429Y2203639D1*
X1418689Y2209536D1*
Y2229221D1*
X1418551Y2233531D1*
X1417913Y2239401D1*
X1416762Y2245191D1*
X1415109Y2250858D1*
X1412963Y2256358D1*
X1410342Y2261648D1*
X1407267Y2266689D1*
X1403762Y2271438D1*
X1399853Y2275863D1*
X1395571Y2279926D1*
X1390949Y2283598D1*
X1386021Y2286850D1*
X1380828Y2289657D1*
X1375407Y2291997D1*
X1369803Y2293851D1*
X1364056Y2295207D1*
X1358214Y2296052D1*
X1352320Y2296382D1*
X1346418Y2296193D1*
X1340557Y2295485D1*
X1334782Y2294267D1*
X1329135Y2292546D1*
X1323660Y2290334D1*
X1318401Y2287652D1*
X1313399Y2284518D1*
X1308690Y2280956D1*
X1304312Y2276996D1*
X1300300Y2272665D1*
X1299484Y2271613D1*
X1299488Y2331430D1*
X1320515Y2352455D1*
X1320506Y2350026D1*
X1321732Y2344359D1*
X1324148Y2339089D1*
X1327639Y2334462D1*
X1332044Y2330693D1*
X1337157Y2327958D1*
X1342737Y2326387D1*
X1345773Y2326054D1*
X1379652Y2292174D1*
X1383122Y2289400D1*
X1388219Y2287111D1*
X1393750Y2286328D1*
X1455225Y2286326D1*
X1455300Y2286203D1*
X1459137Y2281714D1*
X1463628Y2277878D1*
X1468665Y2274794D1*
X1474122Y2272534D1*
X1479865Y2271156D1*
X1485753Y2270694D1*
X1491641Y2271158D1*
X1497383Y2272538D1*
X1502840Y2274799D1*
X1507875Y2277886D1*
X1512365Y2281723D1*
X1516200Y2286214D1*
X1519284Y2291250D1*
X1521544Y2296707D1*
X1522922Y2302450D1*
X1523384Y2308338D1*
X1522920Y2314227D1*
X1521540Y2319968D1*
X1519279Y2325425D1*
X1516700Y2329749D1*
X1523384D1*
Y2405025D1*
X1448109D1*
Y2329749D1*
X1454863D1*
X1452670Y2326168D1*
X1402000Y2326173D1*
X1373819Y2354351D1*
X1373375Y2358498D1*
X1371544Y2363998D1*
X1368573Y2368977D1*
X1364601Y2373200D1*
X1359815Y2376472D1*
X1354435Y2378637D1*
X1348719Y2379595D1*
X1347689Y2379632D1*
X1463135Y2495077D1*
X1465909Y2498547D1*
X1468198Y2503644D1*
X1468981Y2509176D1*
Y2645761D1*
X1470346Y2647191D1*
X1473353Y2652148D1*
X1475223Y2657635D1*
X1475871Y2663493D1*
X1475265Y2669162D1*
X1473434Y2674662D1*
X1470463Y2679641D1*
X1466491Y2683865D1*
X1461704Y2687136D1*
X1456325Y2689302D1*
X1450609Y2690260D1*
X1444817Y2689967D1*
X1439227Y2688435D1*
X1434094Y2685739D1*
X1429662Y2682001D1*
X1426136Y2677399D1*
X1423683Y2672145D1*
X1422417Y2666488D1*
X1422396Y2660690D1*
X1423622Y2655023D1*
X1426038Y2649753D1*
X1429137Y2645645D1*
X1429143Y2517431D1*
X1273195Y2361483D1*
X950916Y2361480D1*
X829561Y2482832D1*
X829118Y2486979D1*
X827287Y2492479D1*
X824316Y2497458D1*
X820344Y2501681D1*
X815557Y2504952D1*
X810178Y2507118D1*
X804462Y2508076D1*
X798670Y2507783D1*
X793080Y2506252D1*
X787947Y2503555D1*
X783515Y2499817D1*
X779989Y2495215D1*
X777536Y2489962D1*
X776270Y2484304D1*
X776249Y2478506D1*
X777475Y2472840D1*
X779891Y2467569D1*
X783382Y2462942D1*
X787787Y2459173D1*
X792900Y2456438D1*
X798480Y2454867D1*
X801346Y2454702D1*
X928522Y2327527D1*
X932029Y2324716D1*
X1150804Y986328D2*
X961689D1*
X961033Y985752D1*
X956221Y982515D1*
X950829Y980389D1*
X945105Y979472D1*
X939316Y979807D1*
X933736Y981378D1*
X928623Y984113D1*
X924218Y987882D1*
X920727Y992509D1*
X918311Y997779D1*
X917085Y1003446D1*
X917106Y1009244D1*
X918372Y1014901D1*
X920825Y1020155D1*
X924351Y1024757D1*
X928783Y1028494D1*
X933916Y1031191D1*
X939506Y1032723D1*
X945298Y1033015D1*
X951014Y1032057D1*
X956393Y1029892D1*
X961179Y1026620D1*
X961602Y1026172D1*
X1150809Y1026170D1*
X1153783Y1028494D1*
X1158916Y1031191D1*
X1164506Y1032723D1*
X1170298Y1033015D1*
X1176014Y1032057D1*
X1181393Y1029892D1*
X1186179Y1026620D1*
X1190152Y1022397D1*
X1193123Y1017418D1*
X1194954Y1011918D1*
X1195560Y1006249D1*
X1194912Y1000391D1*
X1193042Y994904D1*
X1190035Y989947D1*
X1186033Y985752D1*
X1181221Y982515D1*
X1175829Y980389D1*
X1170105Y979472D1*
X1164316Y979807D1*
X1158736Y981378D1*
X1153623Y984113D1*
X1151038Y986324D1*
X1163031Y4128139D2*
X1168345Y4126396D1*
X1172962Y4123249D1*
X1173628Y4122613D1*
X1247725Y4048522D1*
X1251103Y4049707D1*
X1256815Y4050951D1*
X1262636Y4051484D1*
X1268480Y4051298D1*
X1274256Y4050393D1*
X1279876Y4048787D1*
X1285257Y4046502D1*
X1290316Y4043573D1*
X1294977Y4040046D1*
X1299169Y4035971D1*
X1302829Y4031412D1*
X1305900Y4026438D1*
X1308337Y4021124D1*
X1310103Y4015551D1*
X1311170Y4009804D1*
X1311523Y4004025D1*
X1311157Y3998135D1*
X1310076Y3992389D1*
X1308296Y3986821D1*
X1305847Y3981513D1*
X1302763Y3976546D1*
X1299094Y3971996D1*
X1294892Y3967931D1*
X1290223Y3964414D1*
X1285157Y3961497D1*
X1279770Y3959225D1*
X1274145Y3957632D1*
X1268368Y3956741D1*
X1262525Y3956568D1*
X1256704Y3957115D1*
X1250996Y3958372D1*
X1245484Y3960321D1*
X1240254Y3962934D1*
X1235386Y3966168D1*
X1230950Y3969977D1*
X1227017Y3974302D1*
X1223645Y3979077D1*
X1220886Y3984231D1*
X1218781Y3989685D1*
X1217361Y3995355D1*
X1216649Y4001157D1*
X1216656Y4007004D1*
X1217382Y4012804D1*
X1218815Y4018472D1*
X1219544Y4020350D1*
X1151292Y4088602D1*
X648939Y4088606D1*
X647568Y4085815D1*
X644266Y4080862D1*
X640345Y4076382D1*
X635874Y4072451D1*
X630928Y4069137D1*
X625592Y4066498D1*
X619956Y4064578D1*
X614119Y4063410D1*
X608179Y4063014D1*
X602239Y4063397D1*
X596397Y4064551D1*
X590758Y4066459D1*
X585416Y4069085D1*
X580463Y4072387D1*
X575983Y4076308D1*
X572052Y4080779D1*
X568739Y4085725D1*
X566099Y4091061D1*
X564179Y4096697D1*
X563012Y4102534D1*
X562615Y4108473D1*
X562998Y4114414D1*
X564152Y4120256D1*
X566060Y4125895D1*
X568686Y4131237D1*
X571988Y4136190D1*
X575909Y4140670D1*
X580380Y4144601D1*
X585326Y4147914D1*
X590662Y4150554D1*
X596298Y4152473D1*
X602135Y4153641D1*
X608075Y4154038D1*
X614015Y4153655D1*
X619857Y4152501D1*
X625496Y4150593D1*
X630838Y4147967D1*
X635791Y4144665D1*
X640271Y4140744D1*
X644202Y4136273D1*
X647515Y4131326D1*
X648941Y4128445D1*
X1159460Y4128447D1*
X1163031Y4128139D1*
X505035Y4148888D2*
X502742Y4143787D1*
X501959Y4138256D1*
Y4045140D1*
X502451Y4040725D1*
X504437Y4035502D1*
X507794Y4031036D1*
X538194Y4000637D1*
X541662Y3997863D1*
X546760Y3995574D1*
X552291Y3994791D1*
X591887Y3994788D1*
X593581Y3992543D1*
X597987Y3988774D1*
X603099Y3986039D1*
X608679Y3984468D1*
X614468Y3984134D1*
X620193Y3985051D1*
X625585Y3987177D1*
X630396Y3990413D1*
X634399Y3994609D1*
X637405Y3999565D1*
X639275Y4005052D1*
X639924Y4010910D1*
X639317Y4016580D1*
X637487Y4022080D1*
X634515Y4027059D1*
X630543Y4031282D1*
X625757Y4034554D1*
X620378Y4036719D1*
X614661Y4037677D1*
X608870Y4037384D1*
X603279Y4035853D1*
X600618Y4034634D1*
X560546Y4034631D1*
X541802Y4053374D1*
X541804Y4130006D1*
X579555Y4167752D1*
X914715Y4167748D1*
X917300Y4165536D1*
X922413Y4162802D1*
X927993Y4161231D1*
X933782Y4160896D1*
X939506Y4161813D1*
X944899Y4163939D1*
X949710Y4167176D1*
X953712Y4171371D1*
X956719Y4176328D1*
X958589Y4181815D1*
X958925Y4184853D1*
X982320Y4184858D1*
X1029361D1*
X1030282Y4184879D1*
X1035771Y4185918D1*
X1040761Y4188443D1*
X1043458Y4190704D1*
X1082655Y4229899D1*
X1088329Y4230808D1*
X1093721Y4232934D1*
X1098533Y4236170D1*
X1102535Y4240366D1*
X1105542Y4245323D1*
X1107412Y4250809D1*
X1108060Y4256668D1*
X1107454Y4262337D1*
X1105623Y4267837D1*
X1102652Y4272816D1*
X1098679Y4277039D1*
X1093893Y4280311D1*
X1088514Y4282476D1*
X1082798Y4283434D1*
X1077006Y4283141D1*
X1071416Y4281610D1*
X1066283Y4278913D1*
X1061851Y4275176D1*
X1058325Y4270573D1*
X1055872Y4265320D1*
X1054606Y4259662D1*
X1054477Y4258068D1*
X1021113Y4224700D1*
X949550D1*
X945135Y4224208D1*
X939912Y4222223D1*
X935446Y4218866D1*
X930858Y4214282D1*
X928183Y4214147D1*
X922593Y4212615D1*
X917460Y4209918D1*
X914703Y4207593D1*
X571315Y4207594D1*
X566900Y4207102D1*
X561677Y4205116D1*
X557211Y4201760D1*
X507805Y4152354D1*
X505035Y4148888D1*
X1186270Y3826443D2*
X1188795Y3821454D1*
X1189834Y3815963D1*
X1189855Y3815042D1*
X1189859Y3493954D1*
X1191337Y3492383D1*
X1194308Y3487404D1*
X1196139Y3481904D1*
X1196745Y3476235D1*
X1196097Y3470376D1*
X1194227Y3464889D1*
X1191220Y3459933D1*
X1187218Y3455737D1*
X1182407Y3452501D1*
X1177014Y3450375D1*
X1171290Y3449458D1*
X1165501Y3449792D1*
X1159921Y3451363D1*
X1154808Y3454098D1*
X1150403Y3457867D1*
X1146912Y3462494D1*
X1144496Y3467765D1*
X1143270Y3473431D1*
X1143291Y3479229D1*
X1144557Y3484887D1*
X1147010Y3490140D1*
X1150017Y3494064D1*
X1150013Y3771446D1*
Y3806792D1*
X930925Y4025878D1*
X927892Y4026208D1*
X922312Y4027779D1*
X917199Y4030514D1*
X912794Y4034283D1*
X909303Y4038910D1*
X906887Y4044181D1*
X905661Y4049847D1*
X905682Y4055645D1*
X906949Y4061303D1*
X909401Y4066556D1*
X912928Y4071158D1*
X917359Y4074896D1*
X922492Y4077593D1*
X928082Y4079124D1*
X933874Y4079417D1*
X939590Y4078459D1*
X944970Y4076294D1*
X949756Y4073022D1*
X953728Y4068799D1*
X956699Y4063820D1*
X958530Y4058320D1*
X958973Y4054173D1*
X1017274Y3995875D1*
X1017210Y3996215D1*
X1016926Y3998157D1*
X1016724Y4000110D1*
X1016603Y4002068D1*
X1016563Y4004030D1*
X1016603Y4005993D1*
X1016725Y4007951D1*
X1016928Y4009904D1*
X1017211Y4011845D1*
X1017575Y4013774D1*
X1018017Y4015686D1*
X1018538Y4017578D1*
X1019137Y4019447D1*
X1019813Y4021290D1*
X1020564Y4023102D1*
X1021389Y4024883D1*
X1022288Y4026628D1*
X1023258Y4028334D1*
X1024298Y4029998D1*
X1025405Y4031619D1*
X1026578Y4033193D1*
X1027815Y4034715D1*
X1029115Y4036186D1*
X1030473Y4037602D1*
X1031889Y4038960D1*
X1033361Y4040260D1*
X1034884Y4041497D1*
X1036458Y4042670D1*
X1038078Y4043777D1*
X1039744Y4044816D1*
X1041450Y4045784D1*
X1043195Y4046683D1*
X1044976Y4047508D1*
X1046788Y4048260D1*
X1048632Y4048934D1*
X1050501Y4049533D1*
X1052393Y4050054D1*
X1054305Y4050496D1*
X1056233Y4050858D1*
X1058176Y4051141D1*
X1060128Y4051344D1*
X1062086Y4051464D1*
X1064048Y4051505D1*
X1066012Y4051464D1*
X1067970Y4051342D1*
X1069922Y4051140D1*
X1071863Y4050857D1*
X1073792Y4050493D1*
X1075704Y4050051D1*
X1077597Y4049530D1*
X1079466Y4048930D1*
X1081308Y4048254D1*
X1083120Y4047504D1*
X1084901Y4046678D1*
X1086647Y4045779D1*
X1088353Y4044809D1*
X1090017Y4043770D1*
X1091637Y4042662D1*
X1093211Y4041489D1*
X1094733Y4040253D1*
X1096204Y4038952D1*
X1097620Y4037594D1*
X1098979Y4036178D1*
X1100278Y4034707D1*
X1101515Y4033183D1*
X1102689Y4031610D1*
X1103795Y4029989D1*
X1104834Y4028324D1*
X1105803Y4026618D1*
X1106702Y4024872D1*
X1107526Y4023092D1*
X1108278Y4021279D1*
X1108952Y4019435D1*
X1109551Y4017567D1*
X1110072Y4015674D1*
X1110514Y4013762D1*
X1110876Y4011834D1*
X1111160Y4009892D1*
X1111362Y4007939D1*
X1111483Y4005981D1*
X1111523Y4004025D1*
X1111483Y4002056D1*
X1111361Y4000098D1*
X1111158Y3998145D1*
X1110875Y3996204D1*
X1110512Y3994275D1*
X1110069Y3992363D1*
X1109548Y3990471D1*
X1108949Y3988602D1*
X1108273Y3986760D1*
X1107522Y3984947D1*
X1106697Y3983166D1*
X1105798Y3981421D1*
X1104828Y3979715D1*
X1103788Y3978051D1*
X1102681Y3976430D1*
X1101508Y3974857D1*
X1100271Y3973334D1*
X1098971Y3971863D1*
X1097613Y3970447D1*
X1096197Y3969089D1*
X1094725Y3967790D1*
X1093202Y3966552D1*
X1091628Y3965379D1*
X1090008Y3964273D1*
X1088342Y3963233D1*
X1086636Y3962265D1*
X1084891Y3961366D1*
X1083110Y3960542D1*
X1081298Y3959790D1*
X1079454Y3959115D1*
X1077585Y3958517D1*
X1075693Y3957996D1*
X1073781Y3957554D1*
X1071853Y3957191D1*
X1069910Y3956908D1*
X1067958Y3956706D1*
X1066000Y3956585D1*
X1064038Y3956544D1*
X1062075Y3956585D1*
X1060116Y3956707D1*
X1058164Y3956909D1*
X1056223Y3957193D1*
X1055892Y3957254D1*
X1184009Y3829139D1*
X1186270Y3826443D1*
X1167834Y1348183D2*
X1162733Y1350476D1*
X1157202Y1351260D1*
X648941Y1351257D1*
X647515Y1354139D1*
X644202Y1359085D1*
X640271Y1363556D1*
X635791Y1367477D1*
X630838Y1370779D1*
X625496Y1373405D1*
X619857Y1375313D1*
X614015Y1376467D1*
X608075Y1376850D1*
X602135Y1376454D1*
X596298Y1375286D1*
X590662Y1373366D1*
X585326Y1370727D1*
X580380Y1367413D1*
X575909Y1363483D1*
X571988Y1359002D1*
X568686Y1354050D1*
X566060Y1348707D1*
X564152Y1343068D1*
X562998Y1337227D1*
X562615Y1331286D1*
X563012Y1325346D1*
X564179Y1319509D1*
X566099Y1313874D1*
X568739Y1308538D1*
X572052Y1303592D1*
X575983Y1299120D1*
X580463Y1295199D1*
X585416Y1291897D1*
X590758Y1289271D1*
X596397Y1287363D1*
X602239Y1286210D1*
X608179Y1285826D1*
X614119Y1286223D1*
X619956Y1287391D1*
X625592Y1289311D1*
X630928Y1291950D1*
X635874Y1295263D1*
X640345Y1299194D1*
X644266Y1303674D1*
X647568Y1308627D1*
X648939Y1311418D1*
X948766Y1311416D1*
X946294Y1310739D1*
X941677Y1308313D1*
X888620Y1308315D1*
X887699Y1308294D1*
X882208Y1307254D1*
X877219Y1304729D1*
X874523Y1302470D1*
X720807Y1148756D1*
X720809Y1192131D1*
X757655Y1228975D1*
X763329Y1229884D1*
X768721Y1232010D1*
X773533Y1235246D1*
X777535Y1239442D1*
X780542Y1244399D1*
X782412Y1249886D1*
X783060Y1255744D1*
X782454Y1261413D1*
X780623Y1266913D1*
X777652Y1271892D1*
X773679Y1276115D1*
X768893Y1279387D1*
X763514Y1281552D1*
X757798Y1282510D1*
X752006Y1282218D1*
X746416Y1280686D1*
X741283Y1277989D1*
X736851Y1274252D1*
X733325Y1269649D1*
X730872Y1264396D1*
X729606Y1258739D1*
X729473Y1257141D1*
X686799Y1214467D1*
X686162Y1213800D1*
X683015Y1209183D1*
X681273Y1203870D1*
X680964Y1200365D1*
X680966Y1096985D1*
X679807Y1097926D1*
X678224Y1099102D1*
X676592Y1100210D1*
X674913Y1101244D1*
X673191Y1102204D1*
X671429Y1103090D1*
X669631Y1103899D1*
X667799Y1104628D1*
X665937Y1105278D1*
X664048Y1105847D1*
X662137Y1106333D1*
X660207Y1106736D1*
X658261Y1107055D1*
X656303Y1107290D1*
X654337Y1107438D1*
X652366Y1107502D1*
X650393Y1107481D1*
X648425Y1107374D1*
X646462Y1107182D1*
X644510Y1106905D1*
X642571Y1106543D1*
X640651Y1106098D1*
X638750Y1105571D1*
X636875Y1104962D1*
X635027Y1104271D1*
X633212Y1103501D1*
X631431Y1102655D1*
X629689Y1101731D1*
X627988Y1100732D1*
X626333Y1099661D1*
X624725Y1098519D1*
X623168Y1097308D1*
X621665Y1096031D1*
X620219Y1094691D1*
X618833Y1093288D1*
X617508Y1091828D1*
X616248Y1090311D1*
X615055Y1088741D1*
X613930Y1087122D1*
X612878Y1085454D1*
X611897Y1083742D1*
X610993Y1081991D1*
X610165Y1080200D1*
X609416Y1078376D1*
X608746Y1076522D1*
X608157Y1074640D1*
X607651Y1072733D1*
X607227Y1070808D1*
X606887Y1068866D1*
X606631Y1066910D1*
X606460Y1064946D1*
X606375Y1062976D1*
Y1061004D1*
X606460Y1059034D1*
X606632Y1057069D1*
X606888Y1055114D1*
X607228Y1053172D1*
X607652Y1051245D1*
X608158Y1049340D1*
X608748Y1047458D1*
X609418Y1045603D1*
X610168Y1043779D1*
X610996Y1041989D1*
X611901Y1040237D1*
X612882Y1038526D1*
X613934Y1036859D1*
X615059Y1035239D1*
X616252Y1033669D1*
X617513Y1032153D1*
X618837Y1030693D1*
X620224Y1029290D1*
X621670Y1027950D1*
X623174Y1026673D1*
X624731Y1025463D1*
X626338Y1024321D1*
X627994Y1023250D1*
X629695Y1022253D1*
X631438Y1021329D1*
X633219Y1020481D1*
X635034Y1019712D1*
X636882Y1019022D1*
X638757Y1018413D1*
X640657Y1017886D1*
X642578Y1017441D1*
X644517Y1017080D1*
X646470Y1016804D1*
X648431Y1016611D1*
X650401Y1016505D1*
X652372Y1016484D1*
X654344Y1016548D1*
X656311Y1016698D1*
X658269Y1016933D1*
X660214Y1017252D1*
X662144Y1017655D1*
X664056Y1018141D1*
X665943Y1018710D1*
X667805Y1019361D1*
X669637Y1020090D1*
X671435Y1020899D1*
X673198Y1021784D1*
X674920Y1022746D1*
X676598Y1023781D1*
X678231Y1024888D1*
X679812Y1026064D1*
X680964Y1026991D1*
Y856309D1*
X680985Y855388D1*
X682025Y849897D1*
X684550Y844908D1*
X686808Y842214D1*
X852569Y676452D1*
X853236Y675816D1*
X857853Y672669D1*
X863166Y670926D1*
X866672Y670618D1*
X1120783Y670614D1*
X1123368Y668403D1*
X1128481Y665668D1*
X1134061Y664097D1*
X1139850Y663762D1*
X1145575Y664679D1*
X1150967Y666805D1*
X1155778Y670042D1*
X1159781Y674237D1*
X1162787Y679194D1*
X1164657Y684681D1*
X1165305Y690539D1*
X1164699Y696208D1*
X1162868Y701708D1*
X1159897Y706687D1*
X1155925Y710910D1*
X1151139Y714182D1*
X1145760Y716347D1*
X1140043Y717305D1*
X1134252Y717013D1*
X1128661Y715481D1*
X1123529Y712784D1*
X1120556Y710460D1*
X874907Y710462D1*
X720807Y864564D1*
X720805Y881845D1*
X746124Y856522D1*
X746120Y855236D1*
X747346Y849569D1*
X749762Y844299D1*
X753253Y839672D1*
X757658Y835903D1*
X762771Y833168D1*
X768351Y831597D1*
X774140Y831262D1*
X779865Y832179D1*
X785257Y834305D1*
X790068Y837542D1*
X794071Y841737D1*
X797077Y846694D1*
X798947Y852181D1*
X799595Y858039D1*
X798989Y863708D1*
X797158Y869208D1*
X794187Y874187D1*
X790215Y878410D1*
X785429Y881682D1*
X780050Y883847D1*
X774333Y884805D1*
X774183Y884813D1*
X746269Y912724D1*
Y1046804D1*
X749218Y1042895D1*
X753623Y1039126D1*
X758736Y1036391D1*
X764316Y1034820D1*
X770105Y1034485D1*
X775829Y1035403D1*
X781221Y1037529D1*
X786033Y1040765D1*
X786691Y1041341D1*
X1126038Y1041337D1*
X1128624Y1039126D1*
X1133736Y1036391D1*
X1139317Y1034820D1*
X1145105Y1034485D1*
X1150829Y1035403D1*
X1156223Y1037529D1*
X1161033Y1040765D1*
X1165035Y1044960D1*
X1168042Y1049917D1*
X1169913Y1055404D1*
X1170560Y1061262D1*
X1169955Y1066931D1*
X1168123Y1072431D1*
X1165152Y1077410D1*
X1161181Y1081634D1*
X1156393Y1084905D1*
X1151015Y1087071D1*
X1145298Y1088029D1*
X1139508Y1087736D1*
X1133916Y1086204D1*
X1128783Y1083508D1*
X1125808Y1081183D1*
X786602Y1081185D1*
X786179Y1081634D1*
X781393Y1084905D1*
X776014Y1087071D1*
X770298Y1088029D1*
X764506Y1087736D1*
X758916Y1086204D1*
X753783Y1083508D1*
X749351Y1079770D1*
X746269Y1075875D1*
Y1117868D1*
X896868Y1268472D1*
X935808D1*
X936595Y1267429D1*
X941001Y1263660D1*
X946114Y1260925D1*
X951694Y1259354D1*
X957483Y1259019D1*
X963207Y1259937D1*
X968599Y1262063D1*
X973410Y1265299D1*
X977413Y1269494D1*
X980420Y1274451D1*
X982290Y1279938D1*
X982938Y1285796D1*
X982332Y1291466D1*
X980501Y1296966D1*
X977530Y1301945D1*
X973557Y1306168D1*
X968771Y1309439D1*
X964027Y1311417D1*
X1148951Y1311416D1*
X1219544Y1240823D1*
X1218815Y1238945D1*
X1217382Y1233277D1*
X1216656Y1227476D1*
X1216649Y1221630D1*
X1217361Y1215828D1*
X1218781Y1210157D1*
X1220886Y1204703D1*
X1223645Y1199550D1*
X1227017Y1194774D1*
X1230950Y1190450D1*
X1235386Y1186640D1*
X1240254Y1183407D1*
X1245484Y1180794D1*
X1250996Y1178845D1*
X1256704Y1177588D1*
X1262525Y1177040D1*
X1268368Y1177214D1*
X1274145Y1178105D1*
X1279770Y1179698D1*
X1285157Y1181970D1*
X1290223Y1184887D1*
X1294892Y1188404D1*
X1299094Y1192468D1*
X1302763Y1197018D1*
X1305847Y1201985D1*
X1308296Y1207294D1*
X1310076Y1212862D1*
X1311157Y1218607D1*
X1311523Y1224497D1*
X1311170Y1230277D1*
X1310103Y1236023D1*
X1308337Y1241597D1*
X1305900Y1246910D1*
X1302829Y1251884D1*
X1299169Y1256443D1*
X1294977Y1260518D1*
X1290316Y1264046D1*
X1285257Y1266975D1*
X1279876Y1269260D1*
X1274256Y1270866D1*
X1268480Y1271770D1*
X1262636Y1271956D1*
X1256815Y1271424D1*
X1251103Y1270179D1*
X1247725Y1268994D1*
X1238035Y1278678D1*
X1171300Y1345413D1*
X1167834Y1348183D1*
X740938Y1690035D2*
X1220326D1*
X1250438Y1720147D1*
X1250571Y1721744D1*
X1251837Y1727401D1*
X1254290Y1732655D1*
X1257816Y1737257D1*
X1262248Y1740994D1*
X1267380Y1743691D1*
X1272971Y1745223D1*
X1278762Y1745515D1*
X1284479Y1744557D1*
X1289858Y1742392D1*
X1294644Y1739120D1*
X1298616Y1734897D1*
X1301588Y1729918D1*
X1303418Y1724418D1*
X1304025Y1718749D1*
X1303376Y1712891D1*
X1301506Y1707404D1*
X1298500Y1702447D1*
X1294497Y1698252D1*
X1289686Y1695015D1*
X1284294Y1692889D1*
X1278614Y1691976D1*
X1242678Y1656042D1*
X1239976Y1653775D1*
X1234991Y1651253D1*
X1229500Y1650214D1*
X1228578Y1650193D1*
X749173D1*
X720363Y1621383D1*
X720370Y1533515D1*
X721847Y1531945D1*
X724819Y1526966D1*
X726649Y1521466D1*
X727256Y1515796D1*
X726607Y1509938D1*
X724737Y1504451D1*
X721731Y1499494D1*
X717728Y1495299D1*
X712917Y1492063D1*
X707525Y1489937D1*
X701800Y1489019D1*
X696012Y1489354D1*
X690431Y1490925D1*
X685319Y1493660D1*
X680913Y1497429D1*
X677422Y1502056D1*
X675006Y1507326D1*
X673781Y1512993D1*
X673802Y1518791D1*
X675068Y1524449D1*
X677521Y1529702D1*
X680519Y1533616D1*
X680523Y1629637D1*
X681307Y1635169D1*
X683599Y1640270D1*
X686370Y1643736D1*
X726834Y1684200D1*
X731300Y1687559D1*
X736529Y1689544D1*
X740938Y1690035D1*
X1311328Y3045857D2*
Y3305996D1*
X1311157Y3303253D1*
X1310076Y3297508D1*
X1308296Y3291939D1*
X1307855Y3290844D1*
X1307387Y3289760D1*
X1306891Y3288687D1*
X1306368Y3287628D1*
X1303404Y3282589D1*
X1299842Y3277954D1*
X1295739Y3273791D1*
X1291155Y3270164D1*
X1286158Y3267127D1*
X1280828Y3264728D1*
X1275242Y3263002D1*
X1269488Y3261976D1*
X1263649Y3261664D1*
X1257819Y3262072D1*
X1252081Y3263194D1*
X1246525Y3265013D1*
X1241235Y3267500D1*
X1236290Y3270618D1*
X1231766Y3274320D1*
X1227732Y3278551D1*
X1224248Y3283245D1*
X1221367Y3288332D1*
X1219132Y3293733D1*
X1217580Y3299370D1*
X1216731Y3305153D1*
X1216599Y3310998D1*
X1217186Y3316815D1*
X1218484Y3322514D1*
X1219551Y3325462D1*
X1150707Y3394305D1*
X648939Y3394309D1*
X647568Y3391518D1*
X644266Y3386565D1*
X640345Y3382085D1*
X635874Y3378155D1*
X630928Y3374841D1*
X625592Y3372202D1*
X619956Y3370282D1*
X614119Y3369114D1*
X608179Y3368718D1*
X602239Y3369101D1*
X596397Y3370254D1*
X590758Y3372162D1*
X585416Y3374788D1*
X580463Y3378090D1*
X575983Y3382012D1*
X572052Y3386483D1*
X568739Y3391429D1*
X566099Y3396765D1*
X564179Y3402400D1*
X563012Y3408237D1*
X562615Y3414177D1*
X562998Y3420118D1*
X564152Y3425959D1*
X566060Y3431598D1*
X568686Y3436941D1*
X571988Y3441893D1*
X575909Y3446374D1*
X580380Y3450304D1*
X585326Y3453618D1*
X590662Y3456257D1*
X596298Y3458177D1*
X602135Y3459345D1*
X608075Y3459741D1*
X614015Y3459358D1*
X619857Y3458204D1*
X625496Y3456296D1*
X630838Y3453670D1*
X635791Y3450368D1*
X640271Y3446447D1*
X644202Y3441976D1*
X647515Y3437030D1*
X648941Y3434148D1*
X1158956Y3434151D1*
X1164488Y3433367D1*
X1169589Y3431074D1*
X1173055Y3428304D1*
X1247723Y3353636D1*
X1250025Y3354506D1*
X1255706Y3355886D1*
X1261513Y3356556D1*
X1267358Y3356508D1*
X1273153Y3355741D1*
X1278811Y3354267D1*
X1284244Y3352111D1*
X1289371Y3349303D1*
X1294115Y3345886D1*
X1298403Y3341912D1*
X1302169Y3337441D1*
X1305358Y3332542D1*
X1307920Y3327287D1*
X1308358Y3326190D1*
X1308767Y3325082D1*
X1309151Y3323966D1*
X1309505Y3322838D1*
X1309832Y3321704D1*
X1310130Y3320561D1*
X1310400Y3319412D1*
X1310640Y3318254D1*
X1310853Y3317093D1*
X1311036Y3315926D1*
X1311190Y3314756D1*
X1311328Y3313430D1*
Y3481963D1*
X1312111Y3487494D1*
X1314404Y3492595D1*
X1317174Y3496061D1*
X1353338Y3532223D1*
X1350728Y3532140D1*
X1344833Y3532468D1*
X1338991Y3533315D1*
X1333244Y3534670D1*
X1327640Y3536525D1*
X1322219Y3538865D1*
X1317026Y3541672D1*
X1312098Y3544924D1*
X1307476Y3548595D1*
X1303194Y3552658D1*
X1299284Y3557082D1*
X1295779Y3561833D1*
X1292704Y3566872D1*
X1290084Y3572162D1*
X1287938Y3577662D1*
X1286284Y3583330D1*
X1285134Y3589120D1*
X1284496Y3594989D1*
X1284358Y3599300D1*
Y3618985D1*
X1284618Y3624883D1*
X1285393Y3630736D1*
X1286681Y3636497D1*
X1288470Y3642123D1*
X1290745Y3647571D1*
X1293489Y3652798D1*
X1296682Y3657763D1*
X1300300Y3662429D1*
X1304312Y3666760D1*
X1308690Y3670720D1*
X1313399Y3674282D1*
X1318401Y3677416D1*
X1323660Y3680098D1*
X1329134Y3682309D1*
X1334781Y3684031D1*
X1340557Y3685249D1*
X1346418Y3685956D1*
X1352319Y3686145D1*
X1358214Y3685817D1*
X1364056Y3684971D1*
X1369803Y3683615D1*
X1375407Y3681761D1*
X1380828Y3679421D1*
X1386021Y3676614D1*
X1390949Y3673362D1*
X1395571Y3669690D1*
X1399590Y3665876D1*
X1399589Y4007833D1*
X1400374Y4013365D1*
X1402665Y4018466D1*
X1405435Y4021930D1*
X1429518Y4046012D1*
Y4093115D1*
X1436273Y4093118D1*
X1433623Y4097439D1*
X1431362Y4102896D1*
X1429983Y4108637D1*
X1429518Y4114526D1*
X1429980Y4120414D1*
X1431358Y4126157D1*
X1433618Y4131614D1*
X1436702Y4136651D1*
X1440538Y4141141D1*
X1445027Y4144979D1*
X1450063Y4148065D1*
X1455519Y4150326D1*
X1461261Y4151706D1*
X1467149Y4152170D1*
X1473038Y4151708D1*
X1478781Y4150330D1*
X1484237Y4148071D1*
X1489274Y4144987D1*
X1493765Y4141151D1*
X1497602Y4136661D1*
X1500689Y4131626D1*
X1502950Y4126169D1*
X1504329Y4120428D1*
X1504794Y4114533D1*
X1504332Y4108651D1*
X1502954Y4102908D1*
X1500694Y4097451D1*
X1498040Y4093118D1*
X1504794Y4093115D1*
Y4017840D1*
X1457694D1*
X1439433Y3999581D1*
Y3846882D1*
X1440539Y3848033D1*
X1445030Y3851868D1*
X1450064Y3854956D1*
X1455521Y3857216D1*
X1461263Y3858597D1*
X1467151Y3859061D1*
X1473039Y3858598D1*
X1478782Y3857221D1*
X1484239Y3854962D1*
X1489275Y3851876D1*
X1493767Y3848042D1*
X1497603Y3843551D1*
X1500690Y3838517D1*
X1502951Y3833060D1*
X1504330Y3827317D1*
X1504795Y3821424D1*
X1504333Y3815542D1*
X1502955Y3809799D1*
X1500697Y3804342D1*
X1498042Y3800009D1*
X1504792Y3800006D1*
Y3724731D1*
X1487071D1*
X1487076Y3673693D1*
Y3582420D1*
X1486767Y3578907D1*
X1485026Y3573598D1*
X1481878Y3568981D1*
X1481241Y3568315D1*
X1477372Y3564447D1*
X1478781Y3564110D1*
X1484237Y3561850D1*
X1489274Y3558766D1*
X1493765Y3554930D1*
X1497602Y3550441D1*
X1500689Y3545405D1*
X1502950Y3539949D1*
X1504329Y3534207D1*
X1504794Y3528312D1*
X1504332Y3522430D1*
X1502954Y3516687D1*
X1500694Y3511231D1*
X1498040Y3506897D1*
X1504794Y3506895D1*
Y3431619D1*
X1459794D1*
X1401173Y3373000D1*
X1401170Y3164500D1*
X1401862Y3163809D1*
X1401647Y3168077D1*
X1402047Y3174006D1*
X1403250Y3179826D1*
X1405235Y3185429D1*
X1407964Y3190707D1*
X1411387Y3195567D1*
X1415438Y3199913D1*
X1420046Y3203669D1*
X1425120Y3206761D1*
X1426690Y3207445D1*
X1425195Y3208178D1*
X1420114Y3211261D1*
X1415500Y3215008D1*
X1411439Y3219347D1*
X1408008Y3224199D1*
X1405269Y3229473D1*
X1403273Y3235071D1*
X1402057Y3240888D1*
X1401647Y3246817D1*
X1402047Y3252746D1*
X1403250Y3258567D1*
X1405235Y3264169D1*
X1407964Y3269447D1*
X1411387Y3274307D1*
X1415438Y3278653D1*
X1420046Y3282409D1*
X1425120Y3285501D1*
X1426690Y3286185D1*
X1425195Y3286918D1*
X1420114Y3290001D1*
X1415500Y3293748D1*
X1411439Y3298088D1*
X1408008Y3302939D1*
X1405269Y3308214D1*
X1403273Y3313811D1*
X1402057Y3319628D1*
X1401647Y3325557D1*
X1402047Y3331487D1*
X1403250Y3337307D1*
X1405235Y3342909D1*
X1407964Y3348187D1*
X1411387Y3353047D1*
X1415438Y3357393D1*
X1420046Y3361149D1*
X1425120Y3364241D1*
X1430568Y3366614D1*
X1436290Y3368223D1*
X1442177Y3369038D1*
X1448119Y3369044D1*
X1454008Y3368241D1*
X1459732Y3366643D1*
X1465185Y3364281D1*
X1470266Y3361198D1*
X1474880Y3357451D1*
X1478941Y3353111D1*
X1480386Y3351069D1*
X1480387Y3369143D1*
X1563534D1*
X1563533Y4605156D1*
X1561300Y4623187D1*
X1554543Y4638368D1*
X1543653Y4650926D1*
X1529578Y4659766D1*
X1513539Y4664123D1*
X1493930Y4663531D1*
X469639Y4663533D1*
X453279Y4661884D1*
X439422Y4656438D1*
X427554Y4647445D1*
X418561Y4635576D1*
X413115Y4621718D1*
X411467Y4605358D1*
X411466Y469641D1*
X413115Y453279D1*
X418561Y439421D1*
X427554Y427554D1*
X439422Y418560D1*
X453281Y413114D1*
X469635Y411466D1*
X1492106D1*
X1508805Y414592D1*
X1524286Y421035D1*
X1538092Y430557D1*
X1549614Y442742D1*
X1558350Y457056D1*
X1563534Y471775D1*
X1563533Y2756345D1*
X1563099Y2755399D1*
X1562200Y2753648D1*
X1561223Y2751941D1*
X1560169Y2750278D1*
X1559042Y2748665D1*
X1557842Y2747105D1*
X1556573Y2745601D1*
X1555237Y2744155D1*
X1553838Y2742771D1*
X1552378Y2741452D1*
X1550858Y2740200D1*
X1549284Y2739018D1*
X1547658Y2737909D1*
X1545985Y2736874D1*
X1544266Y2735916D1*
X1542505Y2735036D1*
X1540707Y2734237D1*
X1538874Y2733519D1*
X1537010Y2732886D1*
X1535120Y2732337D1*
X1533207Y2731875D1*
X1531275Y2731500D1*
X1529329Y2731211D1*
X1527371Y2731012D1*
X1525405Y2730900D1*
X1523438Y2730878D1*
X1521471Y2730945D1*
X1519509Y2731099D1*
X1517556Y2731344D1*
X1515616Y2731676D1*
X1513693Y2732095D1*
X1511791Y2732601D1*
X1509914Y2733193D1*
X1508065Y2733868D1*
X1506249Y2734626D1*
X1504470Y2735466D1*
X1502729Y2736386D1*
X1501033Y2737382D1*
X1499382Y2738455D1*
X1497782Y2739601D1*
X1496235Y2740817D1*
X1494745Y2742103D1*
X1493315Y2743455D1*
X1491947Y2744870D1*
X1490644Y2746346D1*
X1489409Y2747879D1*
X1488245Y2749466D1*
X1487155Y2751103D1*
X1486139Y2752790D1*
X1485200Y2754519D1*
X1484564Y2755828D1*
X1482416Y2751830D1*
X1478993Y2746971D1*
X1474942Y2742624D1*
X1470334Y2738868D1*
X1465260Y2735777D1*
X1459812Y2733404D1*
X1454090Y2731795D1*
X1448203Y2730980D1*
X1442261Y2730973D1*
X1436372Y2731777D1*
X1430648Y2733375D1*
X1425195Y2735737D1*
X1420114Y2738820D1*
X1415500Y2742567D1*
X1411439Y2746907D1*
X1408008Y2751758D1*
X1405269Y2757033D1*
X1403273Y2762630D1*
X1402057Y2768447D1*
X1401647Y2774376D1*
X1402047Y2780305D1*
X1402447Y2782244D1*
X1365471Y2745266D1*
X1365475Y2600143D1*
Y2581284D1*
X1365166Y2577773D1*
X1363424Y2572464D1*
X1360277Y2567847D1*
X1359640Y2567181D1*
X1248536Y2456077D1*
X1245834Y2453812D1*
X1240849Y2451290D1*
X1235358Y2450250D1*
X1234437Y2450229D1*
X915555Y2450232D1*
X915004Y2449653D1*
X910193Y2446417D1*
X904800Y2444291D1*
X899076Y2443374D1*
X893287Y2443708D1*
X887707Y2445279D1*
X882594Y2448014D1*
X878189Y2451783D1*
X874698Y2456410D1*
X872282Y2461681D1*
X871056Y2467347D1*
X871077Y2473145D1*
X872344Y2478803D1*
X874796Y2484056D1*
X878323Y2488658D1*
X882754Y2492396D1*
X887887Y2495093D1*
X893477Y2496624D1*
X899269Y2496917D1*
X904985Y2495959D1*
X910365Y2493794D1*
X915151Y2490522D1*
X915573Y2490073D1*
X1226189Y2490072D1*
X1325635Y2589522D1*
X1325632Y2753522D1*
X1326416Y2759054D1*
X1328708Y2764155D1*
X1331479Y2767620D1*
X1380652Y2816791D1*
X1311571D1*
X1308057Y2817099D1*
X1302749Y2818842D1*
X1298132Y2821989D1*
X1297466Y2822626D1*
X875036Y3245052D1*
X872153Y3245863D1*
X867040Y3248598D1*
X862635Y3252367D1*
X859144Y3256994D1*
X856728Y3262265D1*
X855502Y3267931D1*
X855523Y3273729D1*
X856790Y3279387D1*
X859242Y3284640D1*
X862769Y3289242D1*
X867200Y3292980D1*
X872333Y3295677D1*
X877924Y3297208D1*
X883715Y3297501D1*
X889431Y3296543D1*
X894811Y3294378D1*
X899597Y3291106D1*
X903569Y3286883D1*
X906540Y3281904D1*
X908371Y3276404D1*
X908977Y3270735D1*
X908652Y3267788D1*
X1285861Y2890580D1*
X1285134Y2894239D1*
X1284496Y2900107D1*
X1284358Y2904418D1*
Y2924103D1*
X1284618Y2930001D1*
X1285393Y2935854D1*
X1286681Y2941615D1*
X1288470Y2947241D1*
X1290745Y2952689D1*
X1293489Y2957916D1*
X1296682Y2962882D1*
X1300300Y2967547D1*
X1304312Y2971878D1*
X1308690Y2975838D1*
X1313399Y2979400D1*
X1318401Y2982534D1*
X1323660Y2985216D1*
X1329134Y2987428D1*
X1334781Y2989149D1*
X1340557Y2990367D1*
X1346418Y2991074D1*
X1352319Y2991265D1*
X1357966Y2990949D1*
X1317162Y3031753D1*
X1313805Y3036219D1*
X1311819Y3041447D1*
X1311328Y3045857D1*
X1172471Y2734006D2*
X1247715Y2658754D1*
X1251103Y2659943D1*
X1256815Y2661187D1*
X1262636Y2661720D1*
X1268480Y2661534D1*
X1274256Y2660630D1*
X1279876Y2659023D1*
X1285257Y2656739D1*
X1290316Y2653809D1*
X1294977Y2650282D1*
X1299169Y2646207D1*
X1302829Y2641648D1*
X1305900Y2636674D1*
X1308337Y2631361D1*
X1310103Y2625787D1*
X1311170Y2620040D1*
X1311523Y2614261D1*
X1311157Y2608371D1*
X1310076Y2602626D1*
X1308296Y2597057D1*
X1305847Y2591749D1*
X1302763Y2586782D1*
X1299094Y2582232D1*
X1294892Y2578168D1*
X1290223Y2574651D1*
X1285157Y2571733D1*
X1279770Y2569462D1*
X1274145Y2567868D1*
X1268368Y2566977D1*
X1262525Y2566804D1*
X1256704Y2567351D1*
X1250996Y2568609D1*
X1245484Y2570557D1*
X1240254Y2573170D1*
X1235386Y2576404D1*
X1230950Y2580214D1*
X1227017Y2584538D1*
X1223645Y2589313D1*
X1220886Y2594467D1*
X1218781Y2599921D1*
X1217361Y2605592D1*
X1216649Y2611393D1*
X1216656Y2617240D1*
X1217382Y2623040D1*
X1218815Y2628708D1*
X1219544Y2630586D1*
X1150122Y2700009D1*
X648939Y2700012D1*
X647568Y2697220D1*
X644266Y2692267D1*
X640345Y2687787D1*
X635874Y2683857D1*
X630928Y2680543D1*
X625592Y2677904D1*
X619956Y2675984D1*
X614119Y2674816D1*
X608179Y2674420D1*
X602239Y2674803D1*
X596397Y2675956D1*
X590758Y2677865D1*
X585416Y2680491D1*
X580463Y2683792D1*
X575983Y2687714D1*
X572052Y2692185D1*
X568739Y2697131D1*
X566099Y2702467D1*
X564179Y2708102D1*
X563012Y2713939D1*
X562615Y2719879D1*
X562998Y2725820D1*
X564152Y2731661D1*
X566060Y2737300D1*
X568686Y2742643D1*
X571988Y2747595D1*
X575909Y2752076D1*
X580380Y2756006D1*
X585326Y2759320D1*
X590662Y2761959D1*
X596298Y2763879D1*
X602135Y2765047D1*
X608075Y2765443D1*
X614015Y2765060D1*
X619857Y2763907D1*
X625496Y2761998D1*
X630838Y2759372D1*
X635791Y2756071D1*
X640271Y2752149D1*
X644202Y2747678D1*
X647515Y2742732D1*
X648941Y2739850D1*
X1158372Y2739853D1*
X1163904Y2739069D1*
X1169005Y2736777D1*
X1172471Y2734006D1*
X1171886Y2039710D2*
X1247715Y1963872D1*
X1251103Y1965061D1*
X1256815Y1966305D1*
X1262636Y1966838D1*
X1268480Y1966652D1*
X1274256Y1965748D1*
X1279876Y1964141D1*
X1285257Y1961857D1*
X1290316Y1958928D1*
X1294977Y1955400D1*
X1299169Y1951325D1*
X1302829Y1946766D1*
X1305900Y1941792D1*
X1308337Y1936479D1*
X1310103Y1930905D1*
X1311170Y1925158D1*
X1311523Y1919379D1*
X1311157Y1913489D1*
X1310076Y1907744D1*
X1308296Y1902176D1*
X1305847Y1896867D1*
X1302763Y1891900D1*
X1299094Y1887350D1*
X1294892Y1883286D1*
X1290223Y1879769D1*
X1285157Y1876851D1*
X1279770Y1874580D1*
X1274145Y1872987D1*
X1268368Y1872095D1*
X1262525Y1871922D1*
X1256704Y1872470D1*
X1250996Y1873727D1*
X1245484Y1875676D1*
X1240254Y1878288D1*
X1235386Y1881522D1*
X1230950Y1885332D1*
X1227017Y1889656D1*
X1223645Y1894431D1*
X1220886Y1899585D1*
X1218781Y1905039D1*
X1217361Y1910710D1*
X1216649Y1916512D1*
X1216656Y1922358D1*
X1217382Y1928158D1*
X1218815Y1933826D1*
X1219544Y1935704D1*
X1149536Y2005712D1*
X648939Y2005715D1*
X647568Y2002924D1*
X644266Y1997971D1*
X640345Y1993491D1*
X635874Y1989560D1*
X630928Y1986246D1*
X625592Y1983607D1*
X619956Y1981687D1*
X614119Y1980519D1*
X608179Y1980123D1*
X602239Y1980506D1*
X596397Y1981660D1*
X590758Y1983568D1*
X585416Y1986194D1*
X580463Y1989496D1*
X575983Y1993417D1*
X572052Y1997888D1*
X568739Y2002834D1*
X566099Y2008170D1*
X564179Y2013805D1*
X563012Y2019643D1*
X562615Y2025582D1*
X562998Y2031523D1*
X564152Y2037365D1*
X566060Y2043004D1*
X568686Y2048346D1*
X571988Y2053299D1*
X575909Y2057779D1*
X580380Y2061710D1*
X585326Y2065023D1*
X590662Y2067662D1*
X596298Y2069582D1*
X602135Y2070750D1*
X608075Y2071147D1*
X614015Y2070763D1*
X619857Y2069610D1*
X625496Y2067702D1*
X630838Y2065076D1*
X635791Y2061774D1*
X640271Y2057853D1*
X644202Y2053382D1*
X647515Y2048435D1*
X648941Y2045554D1*
X1157787Y2045556D1*
X1163319Y2044773D1*
X1168420Y2042480D1*
X1171886Y2039710D1*
X1170716Y651115D2*
X1247725Y574113D1*
X1251103Y575298D1*
X1256815Y576542D1*
X1262636Y577074D1*
X1268480Y576888D1*
X1274256Y575984D1*
X1279876Y574378D1*
X1285257Y572093D1*
X1290316Y569164D1*
X1294977Y565636D1*
X1299169Y561561D1*
X1302829Y557002D1*
X1305900Y552029D1*
X1308337Y546715D1*
X1310103Y541141D1*
X1311170Y535395D1*
X1311523Y529615D1*
X1311157Y523725D1*
X1310076Y517980D1*
X1308296Y512412D1*
X1305847Y507103D1*
X1302763Y502136D1*
X1299094Y497586D1*
X1294892Y493522D1*
X1290223Y490005D1*
X1285157Y487088D1*
X1279770Y484816D1*
X1274145Y483223D1*
X1268368Y482332D1*
X1262525Y482158D1*
X1256704Y482706D1*
X1250996Y483963D1*
X1245484Y485912D1*
X1240254Y488525D1*
X1235386Y491758D1*
X1230950Y495568D1*
X1227017Y499892D1*
X1223645Y504668D1*
X1220886Y509821D1*
X1218781Y515275D1*
X1217361Y520946D1*
X1216649Y526748D1*
X1216656Y532594D1*
X1217382Y538395D1*
X1218815Y544063D1*
X1219544Y545941D1*
X1148366Y617119D1*
X648939Y617120D1*
X647568Y614329D1*
X644266Y609376D1*
X640345Y604896D1*
X635874Y600966D1*
X630928Y597652D1*
X625592Y595013D1*
X619956Y593093D1*
X614119Y591925D1*
X608179Y591529D1*
X602239Y591912D1*
X596397Y593065D1*
X590758Y594973D1*
X585416Y597599D1*
X580463Y600901D1*
X575983Y604823D1*
X572052Y609294D1*
X568739Y614240D1*
X566099Y619576D1*
X564179Y625211D1*
X563012Y631048D1*
X562615Y636988D1*
X562998Y642929D1*
X564152Y648770D1*
X566060Y654409D1*
X568686Y659752D1*
X571988Y664704D1*
X575909Y669185D1*
X580380Y673115D1*
X585326Y676429D1*
X590662Y679068D1*
X596298Y680988D1*
X602135Y682156D1*
X608075Y682552D1*
X614015Y682169D1*
X619857Y681015D1*
X625496Y679107D1*
X630838Y676481D1*
X635791Y673179D1*
X640271Y669258D1*
X644202Y664787D1*
X647515Y659841D1*
X648941Y656959D1*
X1156618Y656962D1*
X1162149Y656178D1*
X1167250Y653886D1*
X1170716Y651115D1*
X1354651Y1992174D2*
X1342353Y2004473D1*
X1339316Y2004807D1*
X1333736Y2006378D1*
X1328623Y2009113D1*
X1324218Y2012882D1*
X1320727Y2017509D1*
X1318311Y2022779D1*
X1317085Y2028446D1*
X1317106Y2034244D1*
X1318372Y2039901D1*
X1320825Y2045155D1*
X1324351Y2049757D1*
X1328783Y2053494D1*
X1333916Y2056191D1*
X1339506Y2057723D1*
X1345298Y2058015D1*
X1351014Y2057057D1*
X1356393Y2054892D1*
X1361179Y2051620D1*
X1365152Y2047397D1*
X1368123Y2042418D1*
X1369954Y2036918D1*
X1370397Y2032771D1*
X1376997Y2026174D1*
X1449733Y2026170D1*
X1449787Y2026168D1*
X1449950Y2026846D1*
X1452208Y2032303D1*
X1454863Y2036636D1*
X1448109Y2036639D1*
Y2111914D1*
X1523384D1*
Y2036639D1*
X1516700D1*
X1519279Y2032315D1*
X1521540Y2026859D1*
X1522921Y2021116D1*
X1523386Y2015221D1*
X1522922Y2009341D1*
X1521544Y2003597D1*
X1519286Y1998140D1*
X1516200Y1993105D1*
X1512366Y1988613D1*
X1507875Y1984777D1*
X1502840Y1981690D1*
X1497384Y1979429D1*
X1491641Y1978048D1*
X1485754Y1977584D1*
X1479866Y1978047D1*
X1474123Y1979424D1*
X1468666Y1981683D1*
X1463630Y1984769D1*
X1461800Y1986330D1*
X1368749Y1986328D1*
X1363218Y1987111D1*
X1358116Y1989404D1*
X1354651Y1992174D1*
X1523930Y2774418D2*
Y2730899D1*
X651876Y4487991D2*
Y4578967D1*
X697365Y4533479D2*
X606388D1*
X651876Y3793694D2*
Y3884670D1*
Y3839182D2*
X606388D1*
X651876Y3099396D2*
Y3190372D1*
X697365Y3144884D2*
X606388D1*
X651876Y2405099D2*
Y2496076D1*
X697365Y2450588D2*
X606388D1*
X651876Y1710803D2*
Y1801779D1*
X697365Y1756291D2*
X606388D1*
X651876Y1016505D2*
Y1107481D1*
Y1061993D2*
X606388D1*
X1064043Y4051481D2*
Y3956568D1*
X1016586Y4004025D2*
X1111500D1*
X1064043Y3356599D2*
Y3261686D1*
X1016586Y3309143D2*
X1111500D1*
X1064043Y2661718D2*
Y2566804D1*
X1016586Y2614261D2*
X1111500D1*
X1064043Y1966836D2*
Y1871922D1*
X1016586Y1919379D2*
X1111500D1*
X1064043Y1271954D2*
Y1177040D1*
X1016586Y1224497D2*
X1111500D1*
X1064043Y577072D2*
Y482158D1*
X1016586Y529615D2*
X1111500D1*
D19*
X1467156Y4114533D3*
D20*
Y4055477D3*
D19*
X1467158Y3821423D3*
D20*
X1467155Y3762368D3*
D19*
X1467156Y3528312D3*
D20*
Y3469257D3*
D19*
X1485746Y2308332D3*
D20*
Y2367387D3*
D19*
X1485747Y2015222D3*
D20*
X1485746Y2074277D3*
D19*
Y1722111D3*
D20*
Y1781166D3*
D21*
X1523930Y3325599D3*
D22*
X1445190D3*
X1523930Y3246859D3*
X1445190D3*
X1523930Y3168119D3*
X1445190D3*
X1523930Y3089379D3*
X1445190D3*
X1523930Y3010639D3*
X1445190D3*
X1523930Y2931899D3*
X1445190D3*
X1523930Y2853158D3*
X1445190D3*
X1523930Y2774418D3*
X1445190D3*
D23*
X608127Y4108526D3*
Y4435298D3*
X651876Y4533479D3*
X608127Y3414229D3*
Y3741001D3*
X651876Y3839182D3*
X608127Y2719931D3*
Y3046703D3*
X651876Y3144884D3*
X608127Y2025635D3*
Y2352407D3*
X651876Y2450588D3*
X608127Y1331338D3*
Y1658110D3*
X651876Y1756291D3*
X608127Y637040D3*
Y963812D3*
X651876Y1061993D3*
D24*
X1064043Y4004025D3*
X1164043D3*
X1264043D3*
D25*
X976523Y4304025D3*
X1351523D3*
D24*
X1064043Y3309143D3*
X1164043D3*
X1264043D3*
D25*
X976523Y3609143D3*
X1351523D3*
D24*
X1064043Y2614261D3*
X1164043D3*
X1264043D3*
D25*
X976523Y2914261D3*
X1351523D3*
D24*
X1064043Y1919379D3*
X1164043D3*
X1264043D3*
D25*
X976523Y2219379D3*
X1351523D3*
D24*
X1064043Y1224497D3*
X1164043D3*
X1264043D3*
D25*
X976523Y1524497D3*
X1351523D3*
D24*
X1064043Y529615D3*
X1164043D3*
X1264043D3*
D25*
X976523Y829615D3*
X1351523D3*
M02*
