M48
INCH
T01C0.0118
T02C0.0276
T03C0.0354
T04C0.0394
T05C0.0709
%
T01
X+008822Y+032707
X+011699Y+034762
X+012909Y+034020
X+014978Y+034005
X+009214Y+037619
X+008798Y+038644
X+007348Y+037519
X+007869Y+036675
X+008370Y+040476
X+009323Y+040527
X+009324Y+041877
X+010812Y+042567
X+008534Y+043590
X+006131Y+040109
X+008029Y+024813
X+008977Y+024702
X+011701Y+022620
X+013472Y+023528
X+013437Y+020312
X+012772Y+017187
X+009091Y+016150
X+008423Y+016074
X+007004Y+015158
X+008439Y+014260
X+009084Y+014032
X+009561Y+012858
X+008562Y+011312
X+007687Y+010613
X+009437Y+010062
X+011437Y+010613
X+011687Y+010062
X+011385Y+006905
X+007728Y+008580
X+007562Y+012557
X+014491Y+026635
T02
X+014672Y+041145
X+014672Y+040555
X+014672Y+038214
X+014672Y+037624
X+014672Y+035283
X+014672Y+034693
X+014857Y+023674
X+014857Y+023083
X+014857Y+020743
X+014857Y+020152
X+014857Y+017812
X+014857Y+017221
T03
X+015239Y+033256
X+014452Y+033256
X+014452Y+032469
X+015239Y+032469
X+015239Y+031681
X+014452Y+031681
X+014452Y+030894
X+015239Y+030894
X+015239Y+030106
X+014452Y+030106
X+014452Y+029319
X+015239Y+029319
X+015239Y+028532
X+014452Y+028532
X+014452Y+027744
X+015239Y+027744
T04
X+006081Y+041085
X+006519Y+038392
X+006081Y+037410
X+006081Y+034142
X+006519Y+031449
X+006081Y+030467
X+006081Y+027199
X+006519Y+024506
X+006081Y+023524
X+006081Y+020256
X+006519Y+017563
X+006081Y+016581
X+006081Y+013313
X+006519Y+010620
X+006081Y+009638
X+006081Y+006370
X+010640Y+005296
X+011640Y+005296
X+012640Y+005296
X+012640Y+012245
X+011640Y+012245
X+010640Y+012245
X+010640Y+019194
X+011640Y+019194
X+012640Y+019194
X+012640Y+026143
X+011640Y+026143
X+010640Y+026143
X+010640Y+033091
X+011640Y+033091
X+012640Y+033091
X+012640Y+040040
X+011640Y+040040
X+010640Y+040040
X+006081Y+044353
X+006519Y+045335
T05
X+009765Y+043119G85X+009765Y+042962
X+013515Y+043119G85X+013515Y+042962
X+013515Y+036170G85X+013515Y+036013
X+009765Y+036170G85X+009765Y+036013
X+009765Y+029221G85X+009765Y+029064
X+013515Y+029221G85X+013515Y+029064
X+013515Y+022273G85X+013515Y+022115
X+009765Y+022273G85X+009765Y+022115
X+009765Y+015324G85X+009765Y+015166
X+013515Y+015324G85X+013515Y+015166
X+013515Y+008375G85X+013515Y+008217
X+009765Y+008375G85X+009765Y+008217
T00
M30
