G04 DipTrace 4.0.0.5*
G04 TopSilk.gbr*
%MOIN*%
G04 #@! TF.FileFunction,Legend,Top*
G04 #@! TF.Part,Single*
%ADD10C,0.009843*%
%ADD45C,0.003281*%
%FSLAX26Y26*%
G04*
G70*
G90*
G75*
G01*
G04 TopSilk*
%LPD*%
X1405820Y3364970D2*
D10*
Y2735048D1*
X1563300D1*
Y3364970D1*
X1405820D1*
X785292Y4064481D2*
Y4477850D1*
X430962D1*
Y4064481D1*
X785292D1*
X490017Y4302227D2*
G02X490017Y4302227I118110J0D01*
G01*
X785292Y3370185D2*
Y3783554D1*
X430962D1*
Y3370185D1*
X785292D1*
X490017Y3607930D2*
G02X490017Y3607930I118110J0D01*
G01*
X785292Y2675887D2*
Y3089256D1*
X430962D1*
Y2675887D1*
X785292D1*
X490017Y2913632D2*
G02X490017Y2913632I118110J0D01*
G01*
X785292Y1981590D2*
Y2394959D1*
X430962D1*
Y1981590D1*
X785292D1*
X490017Y2219336D2*
G02X490017Y2219336I118110J0D01*
G01*
X785292Y1287294D2*
Y1700662D1*
X430962D1*
Y1287294D1*
X785292D1*
X490017Y1525039D2*
G02X490017Y1525039I118110J0D01*
G01*
X785292Y592996D2*
Y1006365D1*
X430962D1*
Y592996D1*
X785292D1*
X490017Y830741D2*
G02X490017Y830741I118110J0D01*
G01*
X989095Y4504025D2*
Y4385263D1*
Y4504025D2*
X1338991D1*
Y4385263D2*
Y4504025D1*
Y4222792D2*
Y4079013D1*
X989095D2*
X1338991D1*
X989095D2*
Y4222792D1*
X1043964Y4304025D2*
G02X1043964Y4304025I120079J0D01*
G01*
X989095Y3809143D2*
Y3690382D1*
Y3809143D2*
X1338991D1*
Y3690382D2*
Y3809143D1*
Y3527910D2*
Y3384131D1*
X989095D2*
X1338991D1*
X989095D2*
Y3527910D1*
X1043964Y3609143D2*
G02X1043964Y3609143I120079J0D01*
G01*
X989095Y3114261D2*
Y2995500D1*
Y3114261D2*
X1338991D1*
Y2995500D2*
Y3114261D1*
Y2833029D2*
Y2689249D1*
X989095D2*
X1338991D1*
X989095D2*
Y2833029D1*
X1043964Y2914261D2*
G02X1043964Y2914261I120079J0D01*
G01*
X989095Y2419379D2*
Y2300618D1*
Y2419379D2*
X1338991D1*
Y2300618D2*
Y2419379D1*
Y2138147D2*
Y1994367D1*
X989095D2*
X1338991D1*
X989095D2*
Y2138147D1*
X1043964Y2219379D2*
G02X1043964Y2219379I120079J0D01*
G01*
X989095Y1724497D2*
Y1605736D1*
Y1724497D2*
X1338991D1*
Y1605736D2*
Y1724497D1*
Y1443265D2*
Y1299485D1*
X989095D2*
X1338991D1*
X989095D2*
Y1443265D1*
X1043964Y1524497D2*
G02X1043964Y1524497I120079J0D01*
G01*
X989095Y1029615D2*
Y910854D1*
Y1029615D2*
X1338991D1*
Y910854D2*
Y1029615D1*
Y748383D2*
Y604603D1*
X989095D2*
X1338991D1*
X989095D2*
Y748383D1*
X1043964Y829615D2*
G02X1043964Y829615I120079J0D01*
G01*
X1489782Y3437755D2*
D45*
Y3414808D1*
X1488356Y3410497D1*
X1486897Y3409071D1*
X1484045Y3407611D1*
X1481160D1*
X1478308Y3409071D1*
X1476882Y3410497D1*
X1475423Y3414808D1*
Y3417659D1*
X1496344Y3431985D2*
X1499229Y3433444D1*
X1503540Y3437722D1*
Y3407611D1*
X624436Y4021223D2*
Y4044171D1*
X625862Y4048482D1*
X627321Y4049908D1*
X630173Y4051367D1*
X633058D1*
X635910Y4049908D1*
X637336Y4048482D1*
X638795Y4044171D1*
Y4041319D1*
X617874Y4021223D2*
Y4051367D1*
X591217Y4021223D2*
Y4051367D1*
X611313Y4021223D1*
Y4051367D1*
X584655Y4026993D2*
X581770Y4025534D1*
X577459Y4021256D1*
Y4051367D1*
X630886Y3326926D2*
Y3349874D1*
X632312Y3354185D1*
X633771Y3355611D1*
X636623Y3357070D1*
X639508D1*
X642360Y3355611D1*
X643786Y3354185D1*
X645245Y3349874D1*
Y3347022D1*
X624324Y3326926D2*
Y3357070D1*
X597667Y3326926D2*
Y3357070D1*
X617763Y3326926D1*
Y3357070D1*
X589646Y3334122D2*
Y3332696D1*
X588220Y3329811D1*
X586794Y3328385D1*
X583909Y3326960D1*
X578172D1*
X575320Y3328385D1*
X573894Y3329811D1*
X572435Y3332696D1*
Y3335548D1*
X573894Y3338433D1*
X576746Y3342711D1*
X591105Y3357070D1*
X571009D1*
X630886Y2632628D2*
Y2655576D1*
X632312Y2659887D1*
X633771Y2661313D1*
X636623Y2662772D1*
X639508D1*
X642360Y2661313D1*
X643786Y2659887D1*
X645245Y2655576D1*
Y2652724D1*
X624324Y2632628D2*
Y2662772D1*
X597667Y2632628D2*
Y2662772D1*
X617763Y2632628D1*
Y2662772D1*
X588220Y2632662D2*
X572468D1*
X581057Y2644136D1*
X576746D1*
X573894Y2645562D1*
X572468Y2646987D1*
X571009Y2651299D1*
Y2654150D1*
X572468Y2658461D1*
X575320Y2661347D1*
X579631Y2662772D1*
X583942D1*
X588220Y2661347D1*
X589646Y2659887D1*
X591105Y2657035D1*
X631599Y1938332D2*
Y1961280D1*
X633025Y1965591D1*
X634484Y1967017D1*
X637336Y1968476D1*
X640221D1*
X643073Y1967017D1*
X644499Y1965591D1*
X645958Y1961280D1*
Y1958428D1*
X625037Y1938332D2*
Y1968476D1*
X598380Y1938332D2*
Y1968476D1*
X618476Y1938332D1*
Y1968476D1*
X577459D2*
Y1938365D1*
X591818Y1958428D1*
X570296D1*
X630886Y1244035D2*
Y1266983D1*
X632312Y1271294D1*
X633771Y1272720D1*
X636623Y1274179D1*
X639508D1*
X642360Y1272720D1*
X643786Y1271294D1*
X645245Y1266983D1*
Y1264131D1*
X624324Y1244035D2*
Y1274179D1*
X597667Y1244035D2*
Y1274179D1*
X617763Y1244035D1*
Y1274179D1*
X573894Y1244068D2*
X588220D1*
X589646Y1256968D1*
X588220Y1255542D1*
X583909Y1254083D1*
X579631D1*
X575320Y1255542D1*
X572435Y1258394D1*
X571009Y1262705D1*
Y1265557D1*
X572435Y1269868D1*
X575320Y1272753D1*
X579631Y1274179D1*
X583909D1*
X588220Y1272753D1*
X589646Y1271294D1*
X591105Y1268442D1*
X630156Y549737D2*
Y572685D1*
X631582Y576996D1*
X633042Y578422D1*
X635893Y579881D1*
X638778D1*
X641630Y578422D1*
X643056Y576996D1*
X644515Y572685D1*
Y569833D1*
X623595Y549737D2*
Y579881D1*
X596937Y549737D2*
Y579881D1*
X617033Y549737D1*
Y579881D1*
X573164Y554048D2*
X574590Y551196D1*
X578901Y549771D1*
X581753D1*
X586064Y551196D1*
X588949Y555508D1*
X590375Y562670D1*
Y569833D1*
X588949Y575570D1*
X586064Y578455D1*
X581753Y579881D1*
X580327D1*
X576050Y578455D1*
X573164Y575570D1*
X571739Y571259D1*
Y569833D1*
X573164Y565522D1*
X576050Y562670D1*
X580327Y561244D1*
X581753D1*
X586064Y562670D1*
X588949Y565522D1*
X590375Y569833D1*
X1119013Y4531498D2*
X1131946D1*
X1136224Y4532924D1*
X1137683Y4534383D1*
X1139109Y4537235D1*
Y4541546D1*
X1137683Y4544398D1*
X1136224Y4545857D1*
X1131946Y4547283D1*
X1119013D1*
Y4517139D1*
X1154293Y4547283D2*
X1151407Y4545857D1*
X1148556Y4542972D1*
X1147096Y4540120D1*
X1145670Y4535809D1*
Y4528613D1*
X1147096Y4524335D1*
X1148556Y4521450D1*
X1151407Y4518598D1*
X1154293Y4517139D1*
X1160030D1*
X1162881Y4518598D1*
X1165766Y4521450D1*
X1167192Y4524335D1*
X1168618Y4528613D1*
Y4535809D1*
X1167192Y4540120D1*
X1165766Y4542972D1*
X1162881Y4545857D1*
X1160030Y4547283D1*
X1154293D1*
X1185228D2*
Y4517139D1*
X1175180Y4547283D2*
X1195276D1*
X1201838Y4541513D2*
X1204723Y4542972D1*
X1209034Y4547250D1*
Y4517139D1*
X1112563Y3836616D2*
X1125496D1*
X1129774Y3838042D1*
X1131233Y3839501D1*
X1132659Y3842353D1*
Y3846664D1*
X1131233Y3849516D1*
X1129774Y3850975D1*
X1125496Y3852401D1*
X1112563D1*
Y3822257D1*
X1147843Y3852401D2*
X1144958Y3850975D1*
X1142106Y3848090D1*
X1140646Y3845238D1*
X1139221Y3840927D1*
Y3833731D1*
X1140646Y3829453D1*
X1142106Y3826568D1*
X1144958Y3823716D1*
X1147843Y3822257D1*
X1153580D1*
X1156431Y3823716D1*
X1159317Y3826568D1*
X1160742Y3829453D1*
X1162168Y3833731D1*
Y3840927D1*
X1160742Y3845238D1*
X1159317Y3848090D1*
X1156431Y3850975D1*
X1153580Y3852401D1*
X1147843D1*
X1178778D2*
Y3822257D1*
X1168730Y3852401D2*
X1188826D1*
X1196847Y3845205D2*
Y3846631D1*
X1198273Y3849516D1*
X1199699Y3850942D1*
X1202584Y3852368D1*
X1208321D1*
X1211173Y3850942D1*
X1212599Y3849516D1*
X1214058Y3846631D1*
Y3843779D1*
X1212599Y3840894D1*
X1209747Y3836616D1*
X1195388Y3822257D1*
X1215484D1*
X1112563Y3141734D2*
X1125496D1*
X1129774Y3143160D1*
X1131233Y3144619D1*
X1132659Y3147471D1*
Y3151782D1*
X1131233Y3154634D1*
X1129774Y3156093D1*
X1125496Y3157519D1*
X1112563D1*
Y3127375D1*
X1147843Y3157519D2*
X1144958Y3156093D1*
X1142106Y3153208D1*
X1140646Y3150356D1*
X1139221Y3146045D1*
Y3138849D1*
X1140646Y3134571D1*
X1142106Y3131686D1*
X1144958Y3128834D1*
X1147843Y3127375D1*
X1153580D1*
X1156431Y3128834D1*
X1159317Y3131686D1*
X1160742Y3134571D1*
X1162168Y3138849D1*
Y3146045D1*
X1160742Y3150356D1*
X1159317Y3153208D1*
X1156431Y3156093D1*
X1153580Y3157519D1*
X1147843D1*
X1178778D2*
Y3127375D1*
X1168730Y3157519D2*
X1188826D1*
X1198273Y3157486D2*
X1214025D1*
X1205436Y3146012D1*
X1209747D1*
X1212599Y3144586D1*
X1214025Y3143160D1*
X1215484Y3138849D1*
Y3135997D1*
X1214025Y3131686D1*
X1211173Y3128801D1*
X1206862Y3127375D1*
X1202551D1*
X1198273Y3128801D1*
X1196847Y3130260D1*
X1195388Y3133112D1*
X1111850Y2446852D2*
X1124783D1*
X1129061Y2448278D1*
X1130520Y2449737D1*
X1131946Y2452589D1*
Y2456900D1*
X1130520Y2459752D1*
X1129061Y2461211D1*
X1124783Y2462637D1*
X1111850D1*
Y2432493D1*
X1147130Y2462637D2*
X1144245Y2461211D1*
X1141393Y2458326D1*
X1139934Y2455474D1*
X1138508Y2451163D1*
Y2443967D1*
X1139934Y2439689D1*
X1141393Y2436804D1*
X1144245Y2433952D1*
X1147130Y2432493D1*
X1152867D1*
X1155718Y2433952D1*
X1158604Y2436804D1*
X1160030Y2439689D1*
X1161455Y2443967D1*
Y2451163D1*
X1160030Y2455474D1*
X1158604Y2458326D1*
X1155718Y2461211D1*
X1152867Y2462637D1*
X1147130D1*
X1178065D2*
Y2432493D1*
X1168017Y2462637D2*
X1188113D1*
X1209034Y2432493D2*
Y2462604D1*
X1194675Y2442541D1*
X1216197D1*
X1112563Y1751970D2*
X1125496D1*
X1129774Y1753396D1*
X1131233Y1754856D1*
X1132659Y1757707D1*
Y1762018D1*
X1131233Y1764870D1*
X1129774Y1766329D1*
X1125496Y1767755D1*
X1112563D1*
Y1737611D1*
X1147843Y1767755D2*
X1144958Y1766329D1*
X1142106Y1763444D1*
X1140646Y1760593D1*
X1139221Y1756281D1*
Y1749085D1*
X1140646Y1744808D1*
X1142106Y1741922D1*
X1144958Y1739071D1*
X1147843Y1737611D1*
X1153580D1*
X1156431Y1739071D1*
X1159317Y1741922D1*
X1160742Y1744808D1*
X1162168Y1749085D1*
Y1756281D1*
X1160742Y1760593D1*
X1159317Y1763444D1*
X1156431Y1766329D1*
X1153580Y1767755D1*
X1147843D1*
X1178778D2*
Y1737611D1*
X1168730Y1767755D2*
X1188826D1*
X1212599Y1767722D2*
X1198273D1*
X1196847Y1754822D1*
X1198273Y1756248D1*
X1202584Y1757707D1*
X1206862D1*
X1211173Y1756248D1*
X1214058Y1753396D1*
X1215484Y1749085D1*
Y1746233D1*
X1214058Y1741922D1*
X1211173Y1739037D1*
X1206862Y1737611D1*
X1202584D1*
X1198273Y1739037D1*
X1196847Y1740497D1*
X1195388Y1743348D1*
X1113292Y1057089D2*
X1126225D1*
X1130503Y1058515D1*
X1131962Y1059974D1*
X1133388Y1062826D1*
Y1067137D1*
X1131962Y1069988D1*
X1130503Y1071448D1*
X1126225Y1072874D1*
X1113292D1*
Y1042730D1*
X1148572Y1072874D2*
X1145687Y1071448D1*
X1142835Y1068563D1*
X1141376Y1065711D1*
X1139950Y1061400D1*
Y1054204D1*
X1141376Y1049926D1*
X1142835Y1047041D1*
X1145687Y1044189D1*
X1148572Y1042730D1*
X1154309D1*
X1157161Y1044189D1*
X1160046Y1047041D1*
X1161472Y1049926D1*
X1162898Y1054204D1*
Y1061400D1*
X1161472Y1065711D1*
X1160046Y1068563D1*
X1157161Y1071448D1*
X1154309Y1072874D1*
X1148572D1*
X1179508D2*
Y1042730D1*
X1169460Y1072874D2*
X1189556D1*
X1213328Y1068563D2*
X1211902Y1071414D1*
X1207591Y1072840D1*
X1204739D1*
X1200428Y1071414D1*
X1197543Y1067103D1*
X1196117Y1059940D1*
Y1052778D1*
X1197543Y1047041D1*
X1200428Y1044156D1*
X1204739Y1042730D1*
X1206165D1*
X1210443Y1044156D1*
X1213328Y1047041D1*
X1214754Y1051352D1*
Y1052778D1*
X1213328Y1057089D1*
X1210443Y1059940D1*
X1206165Y1061366D1*
X1204739D1*
X1200428Y1059940D1*
X1197543Y1057089D1*
X1196117Y1052778D1*
M02*
