G04 DipTrace 4.0.0.5*
G04 TopAssembly.gbr*
%MOIN*%
G04 #@! TF.FileFunction,Drawing,Top*
G04 #@! TF.Part,Single*
%ADD12C,0.005512*%
%FSLAX26Y26*%
G04*
G70*
G90*
G75*
G01*
G04 TopAssy*
%LPD*%
X1181102Y5452756D2*
D12*
Y393701D1*
X393701D1*
Y5452756D1*
X1181102D1*
X763714Y521995D2*
X763858Y517034D1*
X763714Y512087D1*
X763307Y507231D1*
X762638Y502507D1*
X761719Y497900D1*
X760564Y493451D1*
X759173Y489160D1*
X757559Y485052D1*
X755748Y481129D1*
X754252Y478320D1*
X752651Y475630D1*
X750945Y473071D1*
X749134Y470643D1*
X747244Y468360D1*
X745249Y466220D1*
X743176Y464226D1*
X741010Y462402D1*
X738780Y460735D1*
X736470Y459239D1*
X734094Y457913D1*
X731640Y456785D1*
X729987Y456129D1*
X728294Y455564D1*
X726575Y455079D1*
X724843Y454685D1*
X723084Y454383D1*
X721299Y454173D1*
X719501Y454068D1*
X580262D1*
X578465Y454173D1*
X576680Y454383D1*
X574921Y454685D1*
X573189Y455079D1*
X571483Y455564D1*
X569790Y456129D1*
X568123Y456785D1*
X565682Y457913D1*
X563307Y459239D1*
X560997Y460735D1*
X558753Y462402D1*
X556601Y464226D1*
X554514Y466220D1*
X552533Y468360D1*
X550630Y470643D1*
X548819Y473071D1*
X547126Y475630D1*
X545512Y478320D1*
X544029Y481129D1*
X542205Y485052D1*
X540604Y489160D1*
X539213Y493451D1*
X538058Y497900D1*
X537139Y502507D1*
X536470Y507231D1*
X536050Y512087D1*
X535919Y517034D1*
X536050Y521995D1*
X536470Y526837D1*
X537139Y531575D1*
X538058Y536168D1*
X539213Y540617D1*
X540604Y544908D1*
X542205Y549029D1*
X544029Y552953D1*
X545512Y555761D1*
X547126Y558438D1*
X548819Y560997D1*
X550630Y563425D1*
X552533Y565722D1*
X554514Y567861D1*
X556601Y569843D1*
X558753Y571680D1*
X560997Y573346D1*
X563307Y574843D1*
X565682Y576155D1*
X568123Y577297D1*
X569790Y577953D1*
X571483Y578517D1*
X573189Y579003D1*
X574921Y579383D1*
X576680Y579685D1*
X578465Y579895D1*
X580262Y580013D1*
X719501D1*
X721299Y579895D1*
X723084Y579685D1*
X724843Y579383D1*
X726575Y579003D1*
X728294Y578517D1*
X729987Y577953D1*
X731640Y577297D1*
X734094Y576155D1*
X736470Y574843D1*
X738780Y573346D1*
X741010Y571680D1*
X743176Y569843D1*
X745249Y567861D1*
X747244Y565722D1*
X749134Y563425D1*
X750945Y560997D1*
X752651Y558438D1*
X754252Y555761D1*
X755748Y552953D1*
X757559Y549029D1*
X759173Y544908D1*
X760564Y540617D1*
X761719Y536168D1*
X762638Y531575D1*
X763307Y526837D1*
X763714Y521995D1*
Y5334344D2*
X763858Y5329396D1*
X763714Y5324436D1*
X763307Y5319593D1*
X762638Y5314856D1*
X761719Y5310262D1*
X760564Y5305814D1*
X759173Y5301522D1*
X757559Y5297402D1*
X755748Y5293478D1*
X754252Y5290669D1*
X752651Y5287992D1*
X750945Y5285433D1*
X749134Y5283005D1*
X747244Y5280709D1*
X745249Y5278570D1*
X743176Y5276588D1*
X741010Y5274751D1*
X738780Y5273084D1*
X736470Y5271588D1*
X734094Y5270276D1*
X731640Y5269134D1*
X729987Y5268478D1*
X728294Y5267913D1*
X726575Y5267428D1*
X724843Y5267047D1*
X723084Y5266745D1*
X721299Y5266535D1*
X719501Y5266417D1*
X580262D1*
X578465Y5266535D1*
X576680Y5266745D1*
X574921Y5267047D1*
X573189Y5267428D1*
X571483Y5267913D1*
X569790Y5268478D1*
X568123Y5269134D1*
X565682Y5270276D1*
X563307Y5271588D1*
X560997Y5273084D1*
X558753Y5274751D1*
X556601Y5276588D1*
X554514Y5278570D1*
X552533Y5280709D1*
X550630Y5283005D1*
X548819Y5285433D1*
X547126Y5287992D1*
X545512Y5290669D1*
X544029Y5293478D1*
X542205Y5297402D1*
X540604Y5301522D1*
X539213Y5305814D1*
X538058Y5310262D1*
X537139Y5314856D1*
X536470Y5319593D1*
X536050Y5324436D1*
X535919Y5329396D1*
X536050Y5334344D1*
X536470Y5339199D1*
X537139Y5343924D1*
X538058Y5348530D1*
X539213Y5352979D1*
X540604Y5357270D1*
X542205Y5361378D1*
X544029Y5365302D1*
X545512Y5368110D1*
X547126Y5370801D1*
X548819Y5373360D1*
X550630Y5375787D1*
X552533Y5378071D1*
X554514Y5380210D1*
X556601Y5382205D1*
X558753Y5384029D1*
X560997Y5385696D1*
X563307Y5387192D1*
X565682Y5388517D1*
X568123Y5389646D1*
X569790Y5390302D1*
X571483Y5390866D1*
X573189Y5391352D1*
X574921Y5391745D1*
X576680Y5392047D1*
X578465Y5392257D1*
X580262Y5392362D1*
X719501D1*
X721299Y5392257D1*
X723084Y5392047D1*
X724843Y5391745D1*
X726575Y5391352D1*
X728294Y5390866D1*
X729987Y5390302D1*
X731640Y5389646D1*
X734094Y5388517D1*
X736470Y5387192D1*
X738780Y5385696D1*
X741010Y5384029D1*
X743176Y5382205D1*
X745249Y5380210D1*
X747244Y5378071D1*
X749134Y5375787D1*
X750945Y5373360D1*
X752651Y5370801D1*
X754252Y5368110D1*
X755748Y5365302D1*
X757559Y5361378D1*
X759173Y5357270D1*
X760564Y5352979D1*
X761719Y5348530D1*
X762638Y5343924D1*
X763307Y5339199D1*
X763714Y5334344D1*
X790289Y4853478D2*
X792270Y4853491D1*
X798202Y4853346D1*
X804068Y4852913D1*
X809843Y4852218D1*
X815538Y4851234D1*
X821129Y4850000D1*
X826627Y4848504D1*
X832021Y4846759D1*
X837283Y4844764D1*
X842441Y4842546D1*
X847467Y4840079D1*
X852349Y4837402D1*
X857100Y4834501D1*
X861706Y4831404D1*
X866142Y4828084D1*
X870433Y4824580D1*
X874554Y4820879D1*
X878491Y4816995D1*
X882244Y4812940D1*
X885827Y4808714D1*
X889199Y4804318D1*
X892375Y4799777D1*
X895341Y4795066D1*
X898097Y4790223D1*
X900630Y4785249D1*
X902940Y4780144D1*
X905000Y4774908D1*
X906837Y4769554D1*
X908412Y4764094D1*
X909738Y4758530D1*
X910801Y4752874D1*
X911601Y4747126D1*
X912113Y4741286D1*
X912349Y4735381D1*
X912310Y4729423D1*
X911969Y4723543D1*
X911365Y4717730D1*
X910472Y4712008D1*
X909318Y4706378D1*
X907913Y4700853D1*
X906247Y4695433D1*
X904344Y4690118D1*
X902192Y4684921D1*
X899816Y4679856D1*
X897205Y4674921D1*
X894383Y4670131D1*
X891339Y4665472D1*
X888097Y4660984D1*
X884659Y4656640D1*
X881010Y4652467D1*
X877192Y4648465D1*
X873189Y4644646D1*
X869016Y4641010D1*
X864685Y4637572D1*
X860184Y4634318D1*
X855538Y4631286D1*
X850735Y4628465D1*
X845801Y4625853D1*
X840735Y4623465D1*
X835538Y4621325D1*
X830236Y4619409D1*
X824803Y4617756D1*
X819278Y4616339D1*
X813648Y4615184D1*
X807927Y4614304D1*
X802126Y4613688D1*
X796234Y4613360D1*
X790289Y4613307D1*
X784370Y4613543D1*
X778543Y4614068D1*
X772795Y4614856D1*
X767126Y4615932D1*
X761562Y4617257D1*
X756102Y4618832D1*
X750761Y4620656D1*
X745525Y4622730D1*
X740420Y4625026D1*
X735433Y4627559D1*
X730591Y4630315D1*
X725892Y4633281D1*
X721339Y4636457D1*
X716955Y4639843D1*
X712717Y4643412D1*
X708661Y4647178D1*
X704777Y4651115D1*
X701076Y4655236D1*
X697572Y4659514D1*
X694265Y4663963D1*
X691155Y4668556D1*
X688255Y4673307D1*
X685577Y4678202D1*
X683123Y4683215D1*
X680892Y4688373D1*
X678898Y4693648D1*
X677152Y4699029D1*
X675656Y4704528D1*
X674423Y4710131D1*
X673451Y4715814D1*
X672743Y4721601D1*
X672310Y4727454D1*
X672165Y4733386D1*
X672310Y4739331D1*
X672743Y4745184D1*
X673451Y4750958D1*
X674423Y4756654D1*
X675656Y4762257D1*
X677152Y4767743D1*
X678898Y4773136D1*
X680892Y4778412D1*
X683123Y4783556D1*
X685577Y4788583D1*
X688255Y4793478D1*
X691155Y4798215D1*
X694265Y4802822D1*
X697572Y4807270D1*
X701076Y4811549D1*
X704777Y4815669D1*
X708661Y4819606D1*
X712717Y4823373D1*
X716955Y4826942D1*
X721339Y4830315D1*
X725892Y4833491D1*
X730591Y4836457D1*
X735433Y4839213D1*
X740420Y4841745D1*
X745525Y4844055D1*
X750761Y4846115D1*
X756102Y4847953D1*
X761562Y4849528D1*
X767126Y4850853D1*
X772795Y4851916D1*
X778543Y4852717D1*
X784370Y4853228D1*
X790289Y4853478D1*
Y2770144D2*
X792270Y2770157D1*
X798202Y2770013D1*
X804068Y2769580D1*
X809843Y2768885D1*
X815538Y2767900D1*
X821129Y2766667D1*
X826627Y2765171D1*
X832021Y2763425D1*
X837283Y2761430D1*
X842441Y2759213D1*
X847467Y2756745D1*
X852349Y2754068D1*
X857100Y2751168D1*
X861706Y2748071D1*
X866142Y2744751D1*
X870433Y2741247D1*
X874554Y2737546D1*
X878491Y2733661D1*
X882244Y2729606D1*
X885827Y2725381D1*
X889199Y2720984D1*
X892375Y2716444D1*
X895341Y2711732D1*
X898097Y2706890D1*
X900630Y2701916D1*
X902940Y2696811D1*
X905000Y2691575D1*
X906837Y2686220D1*
X908412Y2680761D1*
X909738Y2675197D1*
X910801Y2669541D1*
X911601Y2663793D1*
X912113Y2657953D1*
X912349Y2652047D1*
X912310Y2646089D1*
X911969Y2640210D1*
X911365Y2634396D1*
X910472Y2628675D1*
X909318Y2623045D1*
X907913Y2617520D1*
X906247Y2612100D1*
X904344Y2606785D1*
X902192Y2601588D1*
X899816Y2596522D1*
X897205Y2591588D1*
X894383Y2586798D1*
X891339Y2582139D1*
X888097Y2577651D1*
X884646Y2573307D1*
X881010Y2569134D1*
X877192Y2565131D1*
X873189Y2561312D1*
X869016Y2557677D1*
X864685Y2554239D1*
X860184Y2550984D1*
X855538Y2547953D1*
X850735Y2545131D1*
X845801Y2542520D1*
X840735Y2540131D1*
X835538Y2537992D1*
X830236Y2536076D1*
X824803Y2534423D1*
X819278Y2533005D1*
X813648Y2531850D1*
X807927Y2530971D1*
X802126Y2530354D1*
X796234Y2530026D1*
X790289Y2529974D1*
X784370Y2530210D1*
X778543Y2530735D1*
X772795Y2531535D1*
X767126Y2532598D1*
X761562Y2533924D1*
X756102Y2535499D1*
X750761Y2537323D1*
X745525Y2539396D1*
X740420Y2541693D1*
X735433Y2544226D1*
X730591Y2546982D1*
X725892Y2549948D1*
X721339Y2553123D1*
X716955Y2556509D1*
X712717Y2560079D1*
X708661Y2563845D1*
X704777Y2567782D1*
X701076Y2571903D1*
X697572Y2576181D1*
X694265Y2580630D1*
X691155Y2585223D1*
X688255Y2589974D1*
X685577Y2594869D1*
X683123Y2599882D1*
X680892Y2605039D1*
X678898Y2610315D1*
X677152Y2615696D1*
X675656Y2621194D1*
X674423Y2626798D1*
X673451Y2632480D1*
X672743Y2638268D1*
X672310Y2644121D1*
X672165Y2650052D1*
X672310Y2655997D1*
X672743Y2661850D1*
X673451Y2667625D1*
X674423Y2673320D1*
X675656Y2678924D1*
X677152Y2684409D1*
X678898Y2689803D1*
X680892Y2695079D1*
X683123Y2700223D1*
X685577Y2705249D1*
X688255Y2710144D1*
X691155Y2714882D1*
X694265Y2719488D1*
X697572Y2723937D1*
X701076Y2728215D1*
X704777Y2732336D1*
X708661Y2736273D1*
X712717Y2740039D1*
X716955Y2743609D1*
X721339Y2746982D1*
X725892Y2750157D1*
X730591Y2753123D1*
X735433Y2755879D1*
X740407Y2758412D1*
X745525Y2760722D1*
X750761Y2762782D1*
X756102Y2764619D1*
X761562Y2766194D1*
X767126Y2767520D1*
X772795Y2768583D1*
X778543Y2769383D1*
X784370Y2769908D1*
X790289Y2770144D1*
Y4159029D2*
X792270Y4159042D1*
X798202Y4158898D1*
X804068Y4158478D1*
X809843Y4157769D1*
X815538Y4156798D1*
X821129Y4155551D1*
X826627Y4154055D1*
X832021Y4152310D1*
X837283Y4150328D1*
X842441Y4148097D1*
X847467Y4145643D1*
X852349Y4142966D1*
X857100Y4140066D1*
X861706Y4136955D1*
X866142Y4133648D1*
X870433Y4130131D1*
X874554Y4126444D1*
X878491Y4122559D1*
X882244Y4118491D1*
X885827Y4114265D1*
X889199Y4109882D1*
X892375Y4105328D1*
X895341Y4100630D1*
X898097Y4095787D1*
X900630Y4090801D1*
X902940Y4085696D1*
X905000Y4080459D1*
X906837Y4075105D1*
X908412Y4069646D1*
X909738Y4064081D1*
X910801Y4058425D1*
X911601Y4052677D1*
X912113Y4046837D1*
X912349Y4040932D1*
X912310Y4034987D1*
X911969Y4029094D1*
X911365Y4023294D1*
X910472Y4017572D1*
X909318Y4011942D1*
X907913Y4006404D1*
X906247Y4000984D1*
X904344Y3995669D1*
X902192Y3990486D1*
X899816Y3985407D1*
X897205Y3980472D1*
X894383Y3975682D1*
X891339Y3971037D1*
X888097Y3966535D1*
X884646Y3962192D1*
X881010Y3958018D1*
X877192Y3954029D1*
X873189Y3950197D1*
X869016Y3946562D1*
X864685Y3943123D1*
X860184Y3939882D1*
X855538Y3936837D1*
X850735Y3934016D1*
X845801Y3931404D1*
X840735Y3929029D1*
X835538Y3926877D1*
X830236Y3924974D1*
X824803Y3923307D1*
X819278Y3921890D1*
X813648Y3920748D1*
X807927Y3919856D1*
X802126Y3919239D1*
X796234Y3918911D1*
X790289Y3918858D1*
X784370Y3919108D1*
X778543Y3919619D1*
X772795Y3920420D1*
X767126Y3921483D1*
X761562Y3922808D1*
X756102Y3924383D1*
X750761Y3926220D1*
X745525Y3928281D1*
X740407Y3930591D1*
X735433Y3933123D1*
X730591Y3935879D1*
X725892Y3938845D1*
X721339Y3942021D1*
X716955Y3945394D1*
X712717Y3948963D1*
X708661Y3952730D1*
X704777Y3956667D1*
X701076Y3960787D1*
X697572Y3965066D1*
X694265Y3969514D1*
X691155Y3974121D1*
X688255Y3978858D1*
X685577Y3983753D1*
X683123Y3988780D1*
X680892Y3993924D1*
X678898Y3999199D1*
X677152Y4004593D1*
X675656Y4010079D1*
X674423Y4015682D1*
X673451Y4021378D1*
X672743Y4027152D1*
X672310Y4033005D1*
X672165Y4038950D1*
X672310Y4044882D1*
X672743Y4050735D1*
X673451Y4056522D1*
X674423Y4062205D1*
X675656Y4067808D1*
X677152Y4073307D1*
X678898Y4078688D1*
X680892Y4083963D1*
X683123Y4089121D1*
X685577Y4094134D1*
X688255Y4099029D1*
X691155Y4103780D1*
X694265Y4108373D1*
X697572Y4112822D1*
X701076Y4117100D1*
X704777Y4121220D1*
X708661Y4125157D1*
X712717Y4128924D1*
X716955Y4132493D1*
X721339Y4135879D1*
X725892Y4139055D1*
X730591Y4142021D1*
X735433Y4144777D1*
X740407Y4147310D1*
X745525Y4149606D1*
X750761Y4151680D1*
X756102Y4153504D1*
X761562Y4155092D1*
X767126Y4156404D1*
X772795Y4157480D1*
X778543Y4158268D1*
X784370Y4158793D1*
X790289Y4159029D1*
Y2075696D2*
X792270Y2075709D1*
X798202Y2075564D1*
X804068Y2075144D1*
X809843Y2074436D1*
X815538Y2073465D1*
X821129Y2072218D1*
X826627Y2070722D1*
X832021Y2068976D1*
X837283Y2066995D1*
X842441Y2064764D1*
X847467Y2062310D1*
X852349Y2059633D1*
X857100Y2056732D1*
X861706Y2053622D1*
X866142Y2050315D1*
X870433Y2046798D1*
X874554Y2043110D1*
X878491Y2039226D1*
X882244Y2035157D1*
X885827Y2030932D1*
X889199Y2026549D1*
X892375Y2021995D1*
X895341Y2017297D1*
X898097Y2012454D1*
X900630Y2007467D1*
X902940Y2002362D1*
X905000Y1997126D1*
X906837Y1991772D1*
X908412Y1986312D1*
X909738Y1980748D1*
X910801Y1975092D1*
X911601Y1969344D1*
X912113Y1963504D1*
X912349Y1957598D1*
X912310Y1951654D1*
X911969Y1945761D1*
X911365Y1939961D1*
X910472Y1934239D1*
X909318Y1928609D1*
X907913Y1923071D1*
X906247Y1917651D1*
X904344Y1912336D1*
X902192Y1907152D1*
X899816Y1902073D1*
X897205Y1897139D1*
X894383Y1892349D1*
X891339Y1887703D1*
X888097Y1883202D1*
X884646Y1878858D1*
X881010Y1874685D1*
X877192Y1870696D1*
X873189Y1866864D1*
X869016Y1863228D1*
X864685Y1859790D1*
X860184Y1856549D1*
X855538Y1853504D1*
X850735Y1850682D1*
X845801Y1848071D1*
X840735Y1845696D1*
X835538Y1843543D1*
X830236Y1841640D1*
X824803Y1839974D1*
X819278Y1838556D1*
X813648Y1837415D1*
X807927Y1836522D1*
X802126Y1835906D1*
X796234Y1835577D1*
X790289Y1835525D1*
X784370Y1835774D1*
X778543Y1836286D1*
X772795Y1837087D1*
X767126Y1838150D1*
X761562Y1839475D1*
X756102Y1841050D1*
X750761Y1842887D1*
X745525Y1844948D1*
X740407Y1847257D1*
X735433Y1849790D1*
X730591Y1852546D1*
X725892Y1855512D1*
X721339Y1858688D1*
X716955Y1862060D1*
X712717Y1865630D1*
X708661Y1869396D1*
X704777Y1873333D1*
X701076Y1877454D1*
X697572Y1881732D1*
X694265Y1886181D1*
X691155Y1890787D1*
X688255Y1895525D1*
X685577Y1900420D1*
X683123Y1905446D1*
X680892Y1910591D1*
X678898Y1915866D1*
X677152Y1921260D1*
X675656Y1926745D1*
X674423Y1932349D1*
X673451Y1938045D1*
X672743Y1943819D1*
X672310Y1949672D1*
X672165Y1955617D1*
X672310Y1961549D1*
X672743Y1967402D1*
X673451Y1973189D1*
X674423Y1978871D1*
X675656Y1984475D1*
X677152Y1989974D1*
X678898Y1995354D1*
X680892Y2000630D1*
X683123Y2005787D1*
X685577Y2010801D1*
X688255Y2015696D1*
X691155Y2020446D1*
X694265Y2025039D1*
X697572Y2029488D1*
X701076Y2033766D1*
X704777Y2037887D1*
X708661Y2041824D1*
X712717Y2045591D1*
X716955Y2049160D1*
X721339Y2052546D1*
X725892Y2055722D1*
X730591Y2058688D1*
X735433Y2061444D1*
X740407Y2063976D1*
X745525Y2066273D1*
X750761Y2068346D1*
X756102Y2070171D1*
X761562Y2071745D1*
X767126Y2073071D1*
X772795Y2074147D1*
X778543Y2074934D1*
X784370Y2075459D1*
X790289Y2075696D1*
Y3464580D2*
X792270Y3464606D1*
X798202Y3464462D1*
X804068Y3464029D1*
X809843Y3463320D1*
X815538Y3462349D1*
X821129Y3461115D1*
X826627Y3459619D1*
X832021Y3457874D1*
X837283Y3455879D1*
X842441Y3453648D1*
X847467Y3451194D1*
X852349Y3448517D1*
X857100Y3445617D1*
X861706Y3442507D1*
X866142Y3439199D1*
X870433Y3435696D1*
X874554Y3431995D1*
X878491Y3428110D1*
X882244Y3424055D1*
X885827Y3419829D1*
X889199Y3415433D1*
X892375Y3410879D1*
X895341Y3406181D1*
X898097Y3401339D1*
X900630Y3396365D1*
X902940Y3391247D1*
X905000Y3386010D1*
X906837Y3380669D1*
X908412Y3375210D1*
X909738Y3369646D1*
X910801Y3363976D1*
X911601Y3358228D1*
X912113Y3352402D1*
X912349Y3346483D1*
X912310Y3340538D1*
X911969Y3334646D1*
X911365Y3328845D1*
X910472Y3323123D1*
X909318Y3317493D1*
X907913Y3311969D1*
X906247Y3306535D1*
X904344Y3301234D1*
X902192Y3296037D1*
X899816Y3290971D1*
X897205Y3286037D1*
X894383Y3281234D1*
X891339Y3276588D1*
X888097Y3272087D1*
X884646Y3267756D1*
X881010Y3263583D1*
X877192Y3259580D1*
X873189Y3255761D1*
X869016Y3252126D1*
X864685Y3248675D1*
X860184Y3245433D1*
X855538Y3242402D1*
X850735Y3239567D1*
X845801Y3236969D1*
X840735Y3234580D1*
X835538Y3232428D1*
X830236Y3230525D1*
X824803Y3228858D1*
X819278Y3227454D1*
X813648Y3226299D1*
X807927Y3225407D1*
X802126Y3224803D1*
X796234Y3224462D1*
X790289Y3224423D1*
X784370Y3224659D1*
X778543Y3225184D1*
X772795Y3225971D1*
X767126Y3227034D1*
X761562Y3228360D1*
X756102Y3229948D1*
X750761Y3231772D1*
X745525Y3233845D1*
X740420Y3236142D1*
X735433Y3238675D1*
X730591Y3241430D1*
X725892Y3244396D1*
X721339Y3247572D1*
X716955Y3250958D1*
X712717Y3254528D1*
X708661Y3258281D1*
X704777Y3262231D1*
X701076Y3266339D1*
X697572Y3270630D1*
X694265Y3275066D1*
X691155Y3279672D1*
X688255Y3284423D1*
X685577Y3289304D1*
X683123Y3294331D1*
X680892Y3299488D1*
X678898Y3304751D1*
X677152Y3310144D1*
X675656Y3315643D1*
X674423Y3321234D1*
X673451Y3326929D1*
X672743Y3332703D1*
X672310Y3338570D1*
X672165Y3344501D1*
X672310Y3350433D1*
X672743Y3356299D1*
X673451Y3362073D1*
X674423Y3367769D1*
X675656Y3373360D1*
X677152Y3378858D1*
X678898Y3384252D1*
X680892Y3389514D1*
X683123Y3394672D1*
X685577Y3399698D1*
X688255Y3404580D1*
X691155Y3409331D1*
X694265Y3413937D1*
X697572Y3418373D1*
X701076Y3422664D1*
X704777Y3426772D1*
X708661Y3430722D1*
X712717Y3434475D1*
X716955Y3438058D1*
X721339Y3441430D1*
X725892Y3444606D1*
X730591Y3447572D1*
X735433Y3450328D1*
X740407Y3452861D1*
X745525Y3455157D1*
X750761Y3457231D1*
X756102Y3459055D1*
X761562Y3460643D1*
X767126Y3461969D1*
X772795Y3463031D1*
X778543Y3463819D1*
X784370Y3464344D1*
X790289Y3464580D1*
Y1381247D2*
X792270Y1381273D1*
X798202Y1381129D1*
X804068Y1380696D1*
X809843Y1379987D1*
X815538Y1379016D1*
X821129Y1377782D1*
X826627Y1376286D1*
X832021Y1374541D1*
X837283Y1372546D1*
X842441Y1370315D1*
X847467Y1367861D1*
X852349Y1365184D1*
X857100Y1362283D1*
X861706Y1359173D1*
X866142Y1355866D1*
X870433Y1352362D1*
X874554Y1348661D1*
X878491Y1344777D1*
X882244Y1340722D1*
X885827Y1336496D1*
X889199Y1332100D1*
X892375Y1327546D1*
X895341Y1322848D1*
X898097Y1318005D1*
X900630Y1313031D1*
X902940Y1307913D1*
X905000Y1302677D1*
X906837Y1297336D1*
X908412Y1291877D1*
X909738Y1286312D1*
X910801Y1280643D1*
X911601Y1274895D1*
X912113Y1269068D1*
X912349Y1263150D1*
X912310Y1257205D1*
X911969Y1251312D1*
X911365Y1245512D1*
X910472Y1239790D1*
X909318Y1234160D1*
X907913Y1228635D1*
X906247Y1223202D1*
X904344Y1217900D1*
X902192Y1212703D1*
X899816Y1207638D1*
X897205Y1202703D1*
X894383Y1197900D1*
X891339Y1193255D1*
X888097Y1188753D1*
X884646Y1184423D1*
X881010Y1180249D1*
X877192Y1176247D1*
X873189Y1172428D1*
X869016Y1168793D1*
X864685Y1165341D1*
X860184Y1162100D1*
X855538Y1159068D1*
X850735Y1156234D1*
X845801Y1153635D1*
X840735Y1151247D1*
X835538Y1149094D1*
X830236Y1147192D1*
X824803Y1145525D1*
X819278Y1144121D1*
X813648Y1142966D1*
X807927Y1142073D1*
X802126Y1141470D1*
X796234Y1141129D1*
X790289Y1141089D1*
X784370Y1141325D1*
X778543Y1141850D1*
X772795Y1142638D1*
X767126Y1143701D1*
X761562Y1145026D1*
X756102Y1146614D1*
X750761Y1148438D1*
X745525Y1150512D1*
X740407Y1152808D1*
X735433Y1155341D1*
X730591Y1158097D1*
X725892Y1161063D1*
X721339Y1164239D1*
X716955Y1167612D1*
X712717Y1171194D1*
X708661Y1174948D1*
X704777Y1178898D1*
X701076Y1183005D1*
X697572Y1187297D1*
X694265Y1191732D1*
X691155Y1196339D1*
X688255Y1201089D1*
X685577Y1205971D1*
X683123Y1210997D1*
X680892Y1216155D1*
X678898Y1221417D1*
X677152Y1226811D1*
X675656Y1232310D1*
X674423Y1237900D1*
X673451Y1243596D1*
X672743Y1249370D1*
X672310Y1255236D1*
X672165Y1261168D1*
X672310Y1267100D1*
X672743Y1272966D1*
X673451Y1278740D1*
X674423Y1284436D1*
X675656Y1290026D1*
X677152Y1295525D1*
X678898Y1300919D1*
X680892Y1306181D1*
X683123Y1311339D1*
X685577Y1316365D1*
X688255Y1321247D1*
X691155Y1325997D1*
X694265Y1330604D1*
X697572Y1335039D1*
X701076Y1339331D1*
X704777Y1343438D1*
X708661Y1347388D1*
X712717Y1351142D1*
X716955Y1354724D1*
X721339Y1358097D1*
X725892Y1361273D1*
X730591Y1364239D1*
X735433Y1366995D1*
X740407Y1369528D1*
X745525Y1371824D1*
X750761Y1373898D1*
X756102Y1375722D1*
X761562Y1377310D1*
X767126Y1378635D1*
X772795Y1379698D1*
X778543Y1380486D1*
X784370Y1381010D1*
X790289Y1381247D1*
M02*
