G04 DipTrace 4.0.0.5*
G04 TopSilk.gbr*
%MOIN*%
G04 #@! TF.FileFunction,Legend,Top*
G04 #@! TF.Part,Single*
%FSLAX26Y26*%
G04*
G70*
G90*
G75*
G01*
G04 TopSilk*
%LPD*%
G36*
X653199Y4464259D2*
X655356Y4463335D1*
X657143Y4462294D1*
X658769Y4461064D1*
X660231Y4459646D1*
X661510Y4458049D1*
X662609Y4456277D1*
X663608Y4454125D1*
X664293Y4451995D1*
X664785Y4449467D1*
X665008Y4446490D1*
X664852Y4442115D1*
X664297Y4437961D1*
X663346Y4433874D1*
X662256Y4430587D1*
X660899Y4427513D1*
X659278Y4424654D1*
X657591Y4422264D1*
X655900Y4420320D1*
X654035Y4418564D1*
X651997Y4416993D1*
X649787Y4415608D1*
X648009Y4414707D1*
X646130Y4413965D1*
X643808Y4413299D1*
X641350Y4412849D1*
X641113Y4417843D1*
D1*
X639018Y4417651D1*
X636476Y4417715D1*
X634495Y4417975D1*
X632970Y4418335D1*
X631559Y4418824D1*
X630264Y4419445D1*
X629310Y4420034D1*
X628429Y4420707D1*
X627623Y4421463D1*
X626718Y4422524D1*
X625772Y4423916D1*
X624978Y4425423D1*
X624339Y4427045D1*
X623852Y4428780D1*
X623479Y4430950D1*
X623315Y4433277D1*
X623370Y4435877D1*
X623841Y4439564D1*
X624899Y4443814D1*
X626201Y4447251D1*
X627765Y4450239D1*
X629522Y4452812D1*
X631256Y4454786D1*
X633202Y4456533D1*
X635361Y4458055D1*
X636908Y4458894D1*
X638541Y4459550D1*
X640480Y4460068D1*
X642526Y4460356D1*
X644928Y4460406D1*
X646920Y4460244D1*
X648759Y4459902D1*
X650175Y4459478D1*
X651484Y4458927D1*
X652686Y4458249D1*
X653571Y4457617D1*
X654387Y4456903D1*
X655134Y4456109D1*
X656133Y4454801D1*
X656976Y4453383D1*
X657668Y4451857D1*
X658205Y4450223D1*
X658589Y4448479D1*
X658843Y4446307D1*
X658885Y4443823D1*
X658526Y4439938D1*
X657559Y4435454D1*
X656354Y4431912D1*
X654781Y4428601D1*
X652967Y4425718D1*
X651281Y4423650D1*
X649382Y4421816D1*
X647273Y4420218D1*
X646140Y4419528D1*
X644554Y4418776D1*
X642879Y4418214D1*
X641113Y4417843D1*
X641350Y4412849D1*
X638753Y4412617D1*
X636134Y4412600D1*
X634071Y4412740D1*
X632122Y4413024D1*
X630290Y4413448D1*
X628572Y4414014D1*
X627358Y4414531D1*
X626210Y4415129D1*
X625126Y4415806D1*
X624106Y4416562D1*
X623152Y4417399D1*
X621978Y4418635D1*
X620928Y4419978D1*
X620008Y4421417D1*
X619218Y4422955D1*
X618558Y4424591D1*
X618028Y4426323D1*
X617627Y4428155D1*
X617307Y4430580D1*
X617193Y4433927D1*
X617416Y4437664D1*
X617991Y4441348D1*
X618917Y4444976D1*
X620058Y4448157D1*
X621315Y4450840D1*
X622797Y4453349D1*
X624501Y4455688D1*
X626420Y4457828D1*
X628542Y4459744D1*
X630869Y4461440D1*
X633400Y4462912D1*
X635500Y4463861D1*
X637718Y4464600D1*
X640054Y4465131D1*
X642507Y4465454D1*
X646085Y4465552D1*
X649118Y4465281D1*
X651744Y4464722D1*
X653199Y4464259D1*
G37*
G36*
X703329Y4413945D2*
X705080Y4423087D1*
X704877D1*
X703004Y4420102D1*
X700482Y4417606D1*
X697348Y4415600D1*
X694202Y4413592D1*
X690743Y4412581D1*
X686986D1*
X684789D1*
X682768Y4412825D1*
X680909Y4413314D1*
X679066Y4413795D1*
X677465Y4414576D1*
X676108Y4415647D1*
X674739Y4416718D1*
X673680Y4418109D1*
X672948Y4419824D1*
X672202Y4421541D1*
X671822Y4423602D1*
Y4426003D1*
Y4427360D1*
X672080Y4429339D1*
X672596Y4431930D1*
X679499Y4464109D1*
X685630D1*
X678631Y4431734D1*
X678441Y4430961D1*
X678278Y4430133D1*
X678143Y4429257D1*
X678007Y4428383D1*
X677953Y4427522D1*
Y4426681D1*
Y4425060D1*
X678238Y4423669D1*
X678820Y4422503D1*
X679404Y4421337D1*
X680190Y4420394D1*
X681154Y4419682D1*
X682130Y4418970D1*
X683243Y4418448D1*
X684517Y4418122D1*
X685778Y4417803D1*
X687081Y4417640D1*
X688451D1*
X690717D1*
X692873Y4418122D1*
X694920Y4419098D1*
X696955Y4420068D1*
X698840Y4421445D1*
X700550Y4423228D1*
X702272Y4425013D1*
X703777Y4427182D1*
X705080Y4429747D1*
X706367Y4432303D1*
X707371Y4435172D1*
X708091Y4438345D1*
X713625Y4464109D1*
X719755D1*
X708958Y4413945D1*
X703329D1*
G37*
G36*
X735312Y4464109D2*
X738513Y4479280D1*
X744644D1*
X741429Y4464109D1*
X751440D1*
X750476Y4458962D1*
X740262D1*
X733360Y4426776D1*
X733101Y4425609D1*
X732925Y4424720D1*
X732831Y4424104D1*
X732735Y4423487D1*
X732681Y4422795D1*
Y4422014D1*
Y4421106D1*
X732925Y4420299D1*
X733413Y4419580D1*
X733902Y4418869D1*
X734730Y4418516D1*
X735895D1*
X738282D1*
X740684Y4418706D1*
X743084Y4419098D1*
X742013Y4413850D1*
X740982Y4413720D1*
X739937Y4413619D1*
X738907Y4413558D1*
X737862Y4413491D1*
X736832Y4413457D1*
X735787D1*
X734621D1*
X733495Y4413538D1*
X732396Y4413701D1*
X731283Y4413864D1*
X730294Y4414202D1*
X729425Y4414724D1*
X728545Y4415240D1*
X727853Y4415972D1*
X727337Y4416908D1*
X726822Y4417850D1*
X726550Y4419064D1*
Y4420556D1*
Y4421072D1*
X726605Y4421785D1*
X726699Y4422693D1*
X726794Y4423602D1*
X726984Y4424605D1*
X727241Y4425711D1*
X734146Y4458962D1*
X725098D1*
X726265Y4464109D1*
X735312D1*
G37*
G36*
X766711D2*
X764759Y4455070D1*
X764962D1*
X766459Y4457199D1*
X767948Y4458978D1*
X769526Y4460563D1*
X771197Y4461955D1*
X772598Y4462932D1*
X773718Y4463568D1*
X774911Y4464117D1*
X776180Y4464577D1*
X777524Y4464950D1*
X779433Y4465311D1*
X781478Y4465516D1*
X784343Y4465547D1*
X786634Y4465364D1*
X788757Y4464988D1*
X790399Y4464530D1*
X791924Y4463940D1*
X793617Y4463083D1*
X794911Y4462257D1*
X796102Y4461327D1*
X797190Y4460294D1*
X798180Y4459157D1*
X799063Y4457923D1*
X799836Y4456589D1*
X800621Y4454858D1*
X801339Y4452665D1*
X801856Y4450325D1*
X802201Y4447487D1*
X802287Y4444802D1*
X802147Y4441864D1*
X801766Y4438932D1*
X801143Y4436008D1*
X800274Y4433089D1*
X799186Y4430268D1*
X798114Y4428028D1*
X796891Y4425890D1*
X795517Y4423854D1*
X794000Y4421930D1*
X792353Y4420154D1*
X790575Y4418528D1*
X788665Y4417050D1*
X786626Y4415722D1*
X784909Y4414790D1*
X783121Y4414021D1*
X781260Y4413415D1*
X779328Y4412974D1*
X777325Y4412697D1*
X775255Y4412584D1*
X772388Y4412699D1*
X769584Y4413134D1*
X767581Y4413684D1*
X765945Y4414344D1*
X764438Y4415168D1*
X763228Y4416034D1*
X762139Y4417045D1*
X761169Y4418197D1*
X760437Y4419297D1*
X759827Y4420500D1*
X759266Y4422038D1*
X758871Y4423720D1*
X758831Y4423962D1*
X762304Y4424613D1*
D1*
X761699Y4426077D1*
X761244Y4427659D1*
X760941Y4429358D1*
X760780Y4431488D1*
X760839Y4434159D1*
X761298Y4437848D1*
X762331Y4442117D1*
X763680Y4445812D1*
X765293Y4449043D1*
X767244Y4452035D1*
X769049Y4454178D1*
X771072Y4456080D1*
X773316Y4457741D1*
X774113Y4458230D1*
X775768Y4459060D1*
X777507Y4459694D1*
X779332Y4460131D1*
X781487Y4460386D1*
X783730Y4460392D1*
X785559Y4460205D1*
X786970Y4459912D1*
X788278Y4459497D1*
X789483Y4458958D1*
X790585Y4458297D1*
X791392Y4457680D1*
X792133Y4456983D1*
X792808Y4456209D1*
X793698Y4454937D1*
X794451Y4453576D1*
X795070Y4452127D1*
X795618Y4450325D1*
X795979Y4448403D1*
X796154Y4446358D1*
X796106Y4443457D1*
X795594Y4439381D1*
X794504Y4434951D1*
X793160Y4431369D1*
X791552Y4428232D1*
X789739Y4425520D1*
X787938Y4423444D1*
X785915Y4421609D1*
X783669Y4420020D1*
X782055Y4419156D1*
X780350Y4418487D1*
X778556Y4418012D1*
X776430Y4417707D1*
X774039Y4417654D1*
X771927Y4417836D1*
X770255Y4418167D1*
X768709Y4418660D1*
X767518Y4419193D1*
X766416Y4419839D1*
X765402Y4420596D1*
X764478Y4421465D1*
X763650Y4422433D1*
X762925Y4423482D1*
X762304Y4424613D1*
X758831Y4423962D1*
X758642D1*
X752505Y4395471D1*
X746493D1*
X761161Y4464096D1*
X761182Y4464109D1*
X766711D1*
G37*
G36*
X840117Y4413945D2*
X841866Y4423087D1*
X841663D1*
X839791Y4420102D1*
X837268Y4417606D1*
X834135Y4415600D1*
X830988Y4413592D1*
X827530Y4412581D1*
X823773D1*
X821575D1*
X819554Y4412825D1*
X817696Y4413314D1*
X815852Y4413795D1*
X814251Y4414576D1*
X812895Y4415647D1*
X811525Y4416718D1*
X810467Y4418109D1*
X809735Y4419824D1*
X808988Y4421541D1*
X808609Y4423602D1*
Y4426003D1*
Y4427360D1*
X808866Y4429339D1*
X809382Y4431930D1*
X816286Y4464109D1*
X822416D1*
X815417Y4431734D1*
X815227Y4430961D1*
X815064Y4430133D1*
X814929Y4429257D1*
X814794Y4428383D1*
X814739Y4427522D1*
Y4426681D1*
Y4425060D1*
X815024Y4423669D1*
X815608Y4422503D1*
X816190Y4421337D1*
X816978Y4420394D1*
X817941Y4419682D1*
X818917Y4418970D1*
X820029Y4418448D1*
X821304Y4418122D1*
X822566Y4417803D1*
X823867Y4417640D1*
X825238D1*
X827503D1*
X829659Y4418122D1*
X831707Y4419098D1*
X833741Y4420068D1*
X835627Y4421445D1*
X837336Y4423228D1*
X839059Y4425013D1*
X840564Y4427182D1*
X841866Y4429747D1*
X843155Y4432303D1*
X844159Y4435172D1*
X844877Y4438345D1*
X850411Y4464109D1*
X856542D1*
X845745Y4413945D1*
X840117D1*
G37*
G36*
X872098Y4464109D2*
X875299Y4479280D1*
X881430D1*
X878217Y4464109D1*
X888226D1*
X887262Y4458962D1*
X877050D1*
X870146Y4426776D1*
X869888Y4425609D1*
X869711Y4424720D1*
X869617Y4424104D1*
X869522Y4423487D1*
X869467Y4422795D1*
Y4422014D1*
Y4421106D1*
X869711Y4420299D1*
X870199Y4419580D1*
X870688Y4418869D1*
X871516Y4418516D1*
X872682D1*
X875070D1*
X877470Y4418706D1*
X879870Y4419098D1*
X878799Y4413850D1*
X877768Y4413720D1*
X876724Y4413619D1*
X875693Y4413558D1*
X874648Y4413491D1*
X873618Y4413457D1*
X872573D1*
X871407D1*
X870281Y4413538D1*
X869182Y4413701D1*
X868071Y4413864D1*
X867080Y4414202D1*
X866213Y4414724D1*
X865331Y4415240D1*
X864639Y4415972D1*
X864123Y4416908D1*
X863608Y4417850D1*
X863337Y4419064D1*
Y4420556D1*
Y4421072D1*
X863391Y4421785D1*
X863486Y4422693D1*
X863581Y4423602D1*
X863770Y4424605D1*
X864029Y4425711D1*
X870932Y4458962D1*
X861886D1*
X863052Y4464109D1*
X872098D1*
G37*
G36*
X924983Y4422598D2*
X925697Y4421727D1*
X926483Y4420940D1*
X927344Y4420238D1*
X928276Y4419619D1*
X929282Y4419084D1*
X930360Y4418634D1*
X931510Y4418268D1*
X932734Y4417986D1*
X934030Y4417787D1*
X935398Y4417672D1*
X936738Y4417640D1*
X938112Y4417686D1*
X939453Y4417815D1*
X940762Y4418025D1*
X942041Y4418318D1*
X943287Y4418694D1*
X944495Y4419150D1*
X945651Y4419675D1*
X946756Y4420269D1*
X947808Y4420933D1*
X948808Y4421667D1*
X949753Y4422469D1*
X950631Y4423333D1*
X951438Y4424255D1*
X952173Y4425236D1*
X952837Y4426277D1*
X953429Y4427378D1*
X953941Y4428535D1*
X954353Y4429739D1*
X954664Y4430987D1*
X954875Y4432282D1*
X954990Y4433623D1*
X955008Y4434970D1*
X954941Y4436196D1*
X954794Y4437345D1*
X954563Y4438420D1*
X954251Y4439420D1*
X953853Y4440345D1*
X953381Y4441198D1*
X952850Y4441992D1*
X952262Y4442726D1*
X951613Y4443402D1*
X950906Y4444017D1*
X950139Y4444573D1*
X949328Y4445071D1*
X948475Y4445509D1*
X947579Y4445888D1*
X946640Y4446207D1*
X945156Y4446579D1*
X943075Y4446916D1*
X940883Y4447083D1*
X936591Y4447101D1*
X936554Y4447113D1*
X937601Y4452207D1*
X937629Y4452248D1*
X943070Y4452274D1*
X945955Y4452484D1*
X948278Y4452802D1*
X949404Y4453037D1*
X950487Y4453337D1*
X951528Y4453703D1*
X952525Y4454136D1*
X953479Y4454635D1*
X954382Y4455205D1*
X955219Y4455852D1*
X955992Y4456580D1*
X956698Y4457386D1*
X957337Y4458272D1*
X957903Y4459239D1*
X958151Y4459760D1*
X958373Y4460307D1*
X958568Y4460881D1*
X958738Y4461480D1*
X958999Y4462760D1*
X959154Y4464144D1*
X959202Y4465614D1*
X959161Y4466663D1*
X959042Y4467665D1*
X958848Y4468621D1*
X958577Y4469531D1*
X958232Y4470395D1*
X957818Y4471213D1*
X957357Y4471978D1*
X956850Y4472690D1*
X956297Y4473350D1*
X955694Y4473957D1*
X955046Y4474509D1*
X954360Y4475014D1*
X953253Y4475686D1*
X952056Y4476256D1*
X950773Y4476722D1*
X949434Y4477071D1*
X948059Y4477302D1*
X946647Y4477416D1*
X945139Y4477415D1*
X943808Y4477332D1*
X942535Y4477176D1*
X941320Y4476946D1*
X940165Y4476642D1*
X939068Y4476264D1*
X938029Y4475811D1*
X937049Y4475285D1*
X936127Y4474684D1*
X935265Y4474010D1*
X934461Y4473261D1*
X933711Y4472445D1*
X933014Y4471577D1*
X932366Y4470657D1*
X931769Y4469688D1*
X931222Y4468667D1*
X930724Y4467596D1*
X930277Y4466472D1*
X929879Y4465299D1*
X929531Y4464073D1*
X929234Y4462798D1*
X928986Y4461471D1*
X928845Y4461294D1*
X922840D1*
X923194Y4463049D1*
X923617Y4464736D1*
X924105Y4466358D1*
X924661Y4467913D1*
X925283Y4469402D1*
X925971Y4470823D1*
X926726Y4472178D1*
X927547Y4473467D1*
X928436Y4474690D1*
X929388Y4475846D1*
X930409Y4476936D1*
X931505Y4477938D1*
X932677Y4478844D1*
X933925Y4479651D1*
X935249Y4480360D1*
X936650Y4480970D1*
X938126Y4481483D1*
X939680Y4481898D1*
X941310Y4482215D1*
X943017Y4482434D1*
X944801Y4482555D1*
X947046Y4482568D1*
X949094Y4482419D1*
X950429Y4482230D1*
X951740Y4481969D1*
X953025Y4481634D1*
X954283Y4481226D1*
X955491Y4480747D1*
X956646Y4480202D1*
X957747Y4479588D1*
X958798Y4478906D1*
X959795Y4478154D1*
X960719Y4477328D1*
X961570Y4476430D1*
X962345Y4475461D1*
X963046Y4474417D1*
X963672Y4473303D1*
X964207Y4472119D1*
X964638Y4470865D1*
X964963Y4469542D1*
X965185Y4468150D1*
X965301Y4466688D1*
X965315Y4465304D1*
X965251Y4464151D1*
X965114Y4463026D1*
X964904Y4461930D1*
X964622Y4460865D1*
X964265Y4459827D1*
X963849Y4458829D1*
X963377Y4457878D1*
X962846Y4456971D1*
X962260Y4456112D1*
X961618Y4455299D1*
X960921Y4454530D1*
X960175Y4453807D1*
X959377Y4453131D1*
X958528Y4452501D1*
X957159Y4451644D1*
X955692Y4450895D1*
X954154Y4450270D1*
X952543Y4449772D1*
X951038Y4449433D1*
Y4449239D1*
X952325Y4448857D1*
X953172Y4448539D1*
X953975Y4448176D1*
X954736Y4447768D1*
X955454Y4447316D1*
X956130Y4446819D1*
X956764Y4446278D1*
X957356Y4445693D1*
X957906Y4445063D1*
X958412Y4444390D1*
X958875Y4443675D1*
X959294Y4442936D1*
X959669Y4442172D1*
X960003Y4441387D1*
X960294Y4440577D1*
X960542Y4439747D1*
X960747Y4438891D1*
X960909Y4438013D1*
X961029Y4437112D1*
X961106Y4436188D1*
X961140Y4435240D1*
X961093Y4433307D1*
X960912Y4431444D1*
X960594Y4429660D1*
X960386Y4428799D1*
X960143Y4427957D1*
X959866Y4427135D1*
X959556Y4426335D1*
X958837Y4424791D1*
X958021Y4423333D1*
X957112Y4421965D1*
X956112Y4420684D1*
X955018Y4419492D1*
X953832Y4418390D1*
X952564Y4417379D1*
X951232Y4416466D1*
X949835Y4415648D1*
X948373Y4414924D1*
X946845Y4414295D1*
X945257Y4413764D1*
X943640Y4413331D1*
X942000Y4412995D1*
X940339Y4412759D1*
X938655Y4412621D1*
X936898Y4412583D1*
X934782Y4412651D1*
X932783Y4412832D1*
X930900Y4413125D1*
X929135Y4413529D1*
X927488Y4414045D1*
X925951Y4414667D1*
X924525Y4415386D1*
X923853Y4415782D1*
X923210Y4416202D1*
X922594Y4416646D1*
X922007Y4417113D1*
X921449Y4417605D1*
X920919Y4418119D1*
X920417Y4418659D1*
X919492Y4419804D1*
X918664Y4421030D1*
X917934Y4422335D1*
X917306Y4423719D1*
X916776Y4425182D1*
X916344Y4426722D1*
X916004Y4428322D1*
X915755Y4429979D1*
X915594Y4431693D1*
X915521Y4433463D1*
X915534Y4435289D1*
X915623Y4435531D1*
X921671D1*
X921638Y4434274D1*
X921660Y4432877D1*
X921753Y4431530D1*
X921913Y4430235D1*
X922144Y4428990D1*
X922444Y4427797D1*
X922814Y4426655D1*
X923251Y4425563D1*
X923759Y4424524D1*
X924336Y4423535D1*
X924983Y4422598D1*
G37*
G36*
X653199Y2380925D2*
X655356Y2380004D1*
X657143Y2378963D1*
X658769Y2377732D1*
X660231Y2376315D1*
X661510Y2374719D1*
X662709Y2372761D1*
X663608Y2370798D1*
X664293Y2368667D1*
X664785Y2366135D1*
X665008Y2363156D1*
X664852Y2358783D1*
X664297Y2354631D1*
X663346Y2350547D1*
X662256Y2347257D1*
X660899Y2344184D1*
X659278Y2341323D1*
X657790Y2339186D1*
X656121Y2337224D1*
X654278Y2335445D1*
X652261Y2333850D1*
X650072Y2332440D1*
X648312Y2331516D1*
X646450Y2330748D1*
X644148Y2330050D1*
X641710Y2329568D1*
X640886Y2334475D1*
D1*
X638778Y2334311D1*
X636134Y2334412D1*
X634181Y2334703D1*
X632678Y2335089D1*
X631290Y2335605D1*
X630018Y2336251D1*
X629083Y2336862D1*
X628222Y2337555D1*
X627434Y2338332D1*
X626718Y2339192D1*
X625772Y2340587D1*
X624978Y2342094D1*
X624339Y2343715D1*
X623852Y2345451D1*
X623479Y2347621D1*
X623315Y2349945D1*
X623370Y2352545D1*
X623841Y2356236D1*
X624899Y2360486D1*
X626201Y2363921D1*
X627765Y2366908D1*
X629522Y2369479D1*
X631256Y2371453D1*
X633202Y2373199D1*
X635361Y2374722D1*
X636908Y2375560D1*
X638541Y2376217D1*
X640480Y2376735D1*
X642526Y2377022D1*
X644928Y2377072D1*
X646920Y2376912D1*
X648759Y2376570D1*
X650175Y2376146D1*
X651484Y2375596D1*
X652686Y2374919D1*
X653571Y2374286D1*
X654387Y2373571D1*
X655134Y2372776D1*
X656133Y2371467D1*
X656976Y2370051D1*
X657668Y2368526D1*
X658205Y2366894D1*
X658589Y2365151D1*
X658843Y2362980D1*
X658885Y2360496D1*
X658526Y2356609D1*
X657559Y2352122D1*
X656354Y2348584D1*
X654781Y2345274D1*
X652967Y2342391D1*
X651281Y2340323D1*
X649382Y2338488D1*
X647273Y2336885D1*
X645948Y2336089D1*
X644349Y2335361D1*
X642663Y2334823D1*
X640886Y2334475D1*
X641710Y2329568D1*
X639133Y2329304D1*
X636668Y2329253D1*
X634576Y2329360D1*
X632598Y2329608D1*
X630738Y2329997D1*
X628991Y2330529D1*
X627756Y2331020D1*
X626587Y2331591D1*
X625480Y2332240D1*
X624440Y2332970D1*
X623463Y2333780D1*
X622551Y2334668D1*
X621436Y2335961D1*
X620451Y2337353D1*
X619596Y2338843D1*
X618871Y2340429D1*
X618277Y2342114D1*
X617811Y2343896D1*
X617475Y2345776D1*
X617236Y2348262D1*
X617234Y2351958D1*
X617584Y2355676D1*
X618286Y2359340D1*
X619341Y2362942D1*
X620589Y2366043D1*
X621946Y2368650D1*
X623526Y2371083D1*
X625329Y2373340D1*
X627105Y2375163D1*
X629295Y2377003D1*
X631689Y2378622D1*
X633988Y2379873D1*
X636122Y2380764D1*
X638374Y2381445D1*
X640743Y2381917D1*
X643594Y2382201D1*
X646803Y2382194D1*
X649567Y2381881D1*
X651955Y2381331D1*
X653199Y2380925D1*
G37*
G36*
X703329Y2330618D2*
X705080Y2339760D1*
X704877D1*
X703004Y2336776D1*
X700482Y2334281D1*
X697348Y2332273D1*
X694202Y2330265D1*
X690743Y2329248D1*
X686986D1*
X684789D1*
X682768Y2329492D1*
X680909Y2329980D1*
X679066Y2330469D1*
X677465Y2331243D1*
X676108Y2332314D1*
X674739Y2333385D1*
X673680Y2334782D1*
X672948Y2336491D1*
X672202Y2338214D1*
X671822Y2340276D1*
Y2342676D1*
Y2344033D1*
X672080Y2346013D1*
X672596Y2348604D1*
X679499Y2380776D1*
X685630D1*
X678631Y2348400D1*
X678441Y2347627D1*
X678278Y2346799D1*
X678143Y2345932D1*
X678007Y2345050D1*
X677953Y2344196D1*
Y2343354D1*
Y2341727D1*
X678238Y2340343D1*
X678820Y2339177D1*
X679404Y2338010D1*
X680190Y2337060D1*
X681154Y2336356D1*
X682130Y2335636D1*
X683243Y2335121D1*
X684517Y2334795D1*
X685778Y2334470D1*
X687081Y2334307D1*
X688451D1*
X690717D1*
X692873Y2334795D1*
X694920Y2335772D1*
X696955Y2336735D1*
X698840Y2338118D1*
X700550Y2339895D1*
X702272Y2341686D1*
X703777Y2343856D1*
X705080Y2346420D1*
X706367Y2348970D1*
X707371Y2351845D1*
X708091Y2355018D1*
X713625Y2380776D1*
X719755D1*
X708958Y2330618D1*
X703329D1*
G37*
G36*
X735312Y2380776D2*
X738513Y2395953D1*
X744644D1*
X741429Y2380776D1*
X751440D1*
X750476Y2375635D1*
X740262D1*
X733360Y2343449D1*
X733101Y2342282D1*
X732925Y2341387D1*
X732831Y2340777D1*
X732735Y2340154D1*
X732681Y2339462D1*
Y2338689D1*
Y2337780D1*
X732925Y2336966D1*
X733413Y2336247D1*
X733902Y2335542D1*
X734730Y2335189D1*
X735895D1*
X738282D1*
X740684Y2335379D1*
X743084Y2335772D1*
X742013Y2330524D1*
X740982Y2330387D1*
X739937Y2330293D1*
X738907Y2330224D1*
X737862Y2330157D1*
X736832Y2330130D1*
X735787D1*
X734621D1*
X733495Y2330211D1*
X732396Y2330374D1*
X731283Y2330537D1*
X730294Y2330875D1*
X729425Y2331391D1*
X728545Y2331907D1*
X727853Y2332639D1*
X727337Y2333575D1*
X726822Y2334525D1*
X726550Y2335731D1*
Y2337223D1*
Y2337739D1*
X726605Y2338458D1*
X726699Y2339366D1*
X726794Y2340276D1*
X726984Y2341280D1*
X727241Y2342378D1*
X734146Y2375635D1*
X725098D1*
X726265Y2380776D1*
X735312D1*
G37*
G36*
X766711D2*
X764759Y2371743D1*
X764962D1*
X766459Y2373873D1*
X767948Y2375650D1*
X769526Y2377234D1*
X771197Y2378627D1*
X772598Y2379605D1*
X773718Y2380241D1*
X774911Y2380790D1*
X776180Y2381251D1*
X777524Y2381623D1*
X779433Y2381984D1*
X781478Y2382189D1*
X784343Y2382220D1*
X786634Y2382037D1*
X788757Y2381661D1*
X790399Y2381203D1*
X791924Y2380613D1*
X793617Y2379756D1*
X794911Y2378928D1*
X796102Y2377997D1*
X797190Y2376966D1*
X798180Y2375829D1*
X799063Y2374592D1*
X799836Y2373257D1*
X800621Y2371529D1*
X801248Y2369661D1*
X801794Y2367340D1*
X802172Y2364521D1*
X802287Y2361475D1*
X802147Y2358537D1*
X801766Y2355604D1*
X801143Y2352678D1*
X800274Y2349762D1*
X799186Y2346941D1*
X798114Y2344701D1*
X796891Y2342563D1*
X795517Y2340528D1*
X794000Y2338604D1*
X792353Y2336827D1*
X790575Y2335199D1*
X788665Y2333720D1*
X786626Y2332390D1*
X784909Y2331457D1*
X783121Y2330688D1*
X781260Y2330081D1*
X779328Y2329640D1*
X777325Y2329364D1*
X775255Y2329251D1*
X772388Y2329369D1*
X769584Y2329807D1*
X767581Y2330354D1*
X765945Y2331016D1*
X764438Y2331841D1*
X763228Y2332707D1*
X762139Y2333715D1*
X761169Y2334867D1*
X760437Y2335969D1*
X759827Y2337171D1*
X759266Y2338707D1*
X758871Y2340388D1*
X758831Y2340629D1*
X762304Y2341285D1*
D1*
X761699Y2342747D1*
X761244Y2344328D1*
X760941Y2346025D1*
X760780Y2348155D1*
X760839Y2350828D1*
X761298Y2354517D1*
X762331Y2358783D1*
X763680Y2362479D1*
X765293Y2365710D1*
X767244Y2368702D1*
X769049Y2370845D1*
X771072Y2372749D1*
X773316Y2374415D1*
X774113Y2374902D1*
X775768Y2375730D1*
X777507Y2376362D1*
X779332Y2376798D1*
X781487Y2377052D1*
X783730Y2377059D1*
X785559Y2376871D1*
X786970Y2376581D1*
X788278Y2376167D1*
X789483Y2375629D1*
X790585Y2374969D1*
X791392Y2374352D1*
X792133Y2373656D1*
X792808Y2372882D1*
X793698Y2371608D1*
X794451Y2370247D1*
X795070Y2368798D1*
X795618Y2366996D1*
X795979Y2365072D1*
X796164Y2362724D1*
X796092Y2359904D1*
X795550Y2355822D1*
X794430Y2351390D1*
X793064Y2347824D1*
X791434Y2344699D1*
X789739Y2342190D1*
X787938Y2340117D1*
X785915Y2338282D1*
X783669Y2336693D1*
X782055Y2335829D1*
X780350Y2335159D1*
X778556Y2334681D1*
X776430Y2334375D1*
X774039Y2334320D1*
X771927Y2334504D1*
X770255Y2334836D1*
X768709Y2335329D1*
X767518Y2335865D1*
X766416Y2336510D1*
X765402Y2337269D1*
X764478Y2338138D1*
X763650Y2339106D1*
X762925Y2340155D1*
X762304Y2341285D1*
X758831Y2340629D1*
X758642D1*
X752505Y2312144D1*
X746493D1*
X761161Y2380762D1*
X761182Y2380776D1*
X766711D1*
G37*
G36*
X840117Y2330618D2*
X841866Y2339760D1*
X841663D1*
X839791Y2336776D1*
X837268Y2334281D1*
X834135Y2332273D1*
X830988Y2330265D1*
X827530Y2329248D1*
X823773D1*
X821575D1*
X819554Y2329492D1*
X817696Y2329980D1*
X815852Y2330469D1*
X814251Y2331243D1*
X812895Y2332314D1*
X811525Y2333385D1*
X810467Y2334782D1*
X809735Y2336491D1*
X808988Y2338214D1*
X808609Y2340276D1*
Y2342676D1*
Y2344033D1*
X808866Y2346013D1*
X809382Y2348604D1*
X816286Y2380776D1*
X822416D1*
X815417Y2348400D1*
X815227Y2347627D1*
X815064Y2346799D1*
X814929Y2345932D1*
X814794Y2345050D1*
X814739Y2344196D1*
Y2343354D1*
Y2341727D1*
X815024Y2340343D1*
X815608Y2339177D1*
X816190Y2338010D1*
X816978Y2337060D1*
X817941Y2336356D1*
X818917Y2335636D1*
X820029Y2335121D1*
X821304Y2334795D1*
X822566Y2334470D1*
X823867Y2334307D1*
X825238D1*
X827503D1*
X829659Y2334795D1*
X831707Y2335772D1*
X833741Y2336735D1*
X835627Y2338118D1*
X837336Y2339895D1*
X839059Y2341686D1*
X840564Y2343856D1*
X841866Y2346420D1*
X843155Y2348970D1*
X844159Y2351845D1*
X844877Y2355018D1*
X850411Y2380776D1*
X856542D1*
X845745Y2330618D1*
X840117D1*
G37*
G36*
X872098Y2380776D2*
X875299Y2395953D1*
X881430D1*
X878217Y2380776D1*
X888226D1*
X887262Y2375635D1*
X877050D1*
X870146Y2343449D1*
X869888Y2342282D1*
X869711Y2341387D1*
X869617Y2340777D1*
X869522Y2340154D1*
X869467Y2339462D1*
Y2338689D1*
Y2337780D1*
X869711Y2336966D1*
X870199Y2336247D1*
X870688Y2335542D1*
X871516Y2335189D1*
X872682D1*
X875070D1*
X877470Y2335379D1*
X879870Y2335772D1*
X878799Y2330524D1*
X877768Y2330387D1*
X876724Y2330293D1*
X875693Y2330224D1*
X874648Y2330157D1*
X873618Y2330130D1*
X872573D1*
X871407D1*
X870281Y2330211D1*
X869182Y2330374D1*
X868071Y2330537D1*
X867080Y2330875D1*
X866213Y2331391D1*
X865331Y2331907D1*
X864639Y2332639D1*
X864123Y2333575D1*
X863608Y2334525D1*
X863337Y2335731D1*
Y2337223D1*
Y2337739D1*
X863391Y2338458D1*
X863486Y2339366D1*
X863581Y2340276D1*
X863770Y2341280D1*
X864029Y2342378D1*
X870932Y2375635D1*
X861886D1*
X863052Y2380776D1*
X872098D1*
G37*
G36*
X948501Y2394094D2*
X947240Y2394056D1*
X946024Y2393938D1*
X944853Y2393744D1*
X943728Y2393470D1*
X942648Y2393118D1*
X941615Y2392686D1*
X940629Y2392176D1*
X939689Y2391585D1*
X938357Y2390570D1*
X937100Y2389461D1*
X935916Y2388264D1*
X934806Y2386978D1*
X933769Y2385602D1*
X932503Y2383633D1*
X930814Y2380496D1*
X929358Y2377206D1*
X926465Y2368315D1*
X925660Y2365327D1*
X925850D1*
X928479Y2363101D1*
D1*
X929959Y2364814D1*
X931458Y2366169D1*
X933110Y2367349D1*
X934919Y2368352D1*
X936409Y2368959D1*
X937969Y2369400D1*
X939832Y2369702D1*
X941756Y2369789D1*
X944218Y2369619D1*
X946345Y2369202D1*
X948348Y2368533D1*
X950184Y2367636D1*
X951698Y2366634D1*
X953064Y2365453D1*
X954138Y2364243D1*
X955055Y2362896D1*
X955894Y2361244D1*
X956466Y2359617D1*
X956849Y2357877D1*
X957047Y2355814D1*
X956971Y2352900D1*
X956566Y2349925D1*
X955837Y2347025D1*
X954965Y2344741D1*
X953854Y2342627D1*
X952507Y2340676D1*
X951259Y2339266D1*
X949690Y2337861D1*
X948150Y2336773D1*
X946467Y2335840D1*
X944883Y2335194D1*
X943197Y2334724D1*
X941408Y2334429D1*
X939240Y2334307D1*
X937058Y2334430D1*
X935234Y2334761D1*
X933533Y2335302D1*
X931955Y2336042D1*
X930370Y2337050D1*
X929097Y2338122D1*
X927970Y2339345D1*
X926886Y2340852D1*
X925900Y2342684D1*
X925133Y2344690D1*
X924602Y2346816D1*
X924332Y2349043D1*
Y2351702D1*
X924642Y2354252D1*
X925253Y2356755D1*
X926159Y2359177D1*
X927210Y2361218D1*
X928479Y2363101D1*
X925850Y2365327D1*
X926818Y2366780D1*
X927571Y2367751D1*
X928377Y2368663D1*
X929234Y2369516D1*
X930144Y2370311D1*
X931105Y2371049D1*
X932119Y2371726D1*
X933186Y2372344D1*
X934860Y2373150D1*
X936581Y2373807D1*
X938352Y2374315D1*
X940169Y2374673D1*
X942031Y2374883D1*
X943902Y2374942D1*
X945923Y2374844D1*
X947377Y2374657D1*
X948777Y2374373D1*
X950125Y2373991D1*
X951420Y2373512D1*
X953058Y2372735D1*
X954581Y2371832D1*
X955990Y2370806D1*
X957285Y2369654D1*
X958181Y2368706D1*
X959262Y2367337D1*
X960218Y2365864D1*
X961047Y2364282D1*
X961755Y2362592D1*
X962329Y2360808D1*
X962759Y2358975D1*
X963042Y2357092D1*
X963177Y2355156D1*
X963156Y2352848D1*
X962944Y2350383D1*
X962657Y2348602D1*
X962261Y2346878D1*
X961759Y2345209D1*
X961148Y2343596D1*
X960444Y2342056D1*
X959652Y2340597D1*
X958773Y2339217D1*
X957806Y2337913D1*
X956751Y2336690D1*
X955609Y2335551D1*
X954387Y2334503D1*
X953087Y2333539D1*
X951706Y2332667D1*
X950244Y2331882D1*
X948172Y2330975D1*
X946542Y2330409D1*
X944853Y2329955D1*
X943104Y2329613D1*
X941295Y2329382D1*
X938794Y2329251D1*
X936423Y2329314D1*
X934756Y2329482D1*
X933172Y2329755D1*
X931668Y2330130D1*
X930245Y2330608D1*
X928903Y2331186D1*
X927638Y2331849D1*
X926457Y2332597D1*
X925358Y2333428D1*
X924341Y2334340D1*
X923407Y2335333D1*
X922552Y2336407D1*
X921776Y2337551D1*
X920858Y2339181D1*
X920076Y2340929D1*
X919430Y2342794D1*
X918925Y2344765D1*
X918475Y2347352D1*
X918226Y2350071D1*
X918184Y2353257D1*
X918394Y2357457D1*
X918873Y2361836D1*
X919806Y2367333D1*
X920669Y2371033D1*
X921745Y2374647D1*
X923037Y2378176D1*
X924543Y2381619D1*
X926076Y2384542D1*
X927785Y2387252D1*
X929673Y2389778D1*
X931434Y2391756D1*
X933327Y2393531D1*
X934997Y2394857D1*
X936777Y2396025D1*
X938672Y2397030D1*
X940685Y2397869D1*
X942378Y2398413D1*
X944144Y2398822D1*
X945984Y2399094D1*
X948385Y2399244D1*
X949862Y2399235D1*
X951794Y2399119D1*
X953627Y2398887D1*
X955360Y2398537D1*
X956993Y2398070D1*
X957773Y2397791D1*
X958529Y2397484D1*
X959259Y2397147D1*
X959965Y2396781D1*
X960644Y2396385D1*
X961301Y2395959D1*
X961932Y2395505D1*
X962539Y2395020D1*
X963117Y2394505D1*
X963661Y2393959D1*
X964171Y2393382D1*
X964647Y2392774D1*
X965088Y2392134D1*
X965496Y2391462D1*
X965870Y2390759D1*
X966210Y2390024D1*
X966517Y2389259D1*
X966789Y2388462D1*
X967026Y2387633D1*
X967231Y2386773D1*
X967402Y2385882D1*
X967640Y2384007D1*
X967743Y2382005D1*
X967734Y2381467D1*
X961665D1*
X961617Y2381819D1*
X961510Y2383220D1*
X961322Y2384538D1*
X961049Y2385770D1*
X960692Y2386917D1*
X960253Y2387980D1*
X959731Y2388957D1*
X959125Y2389849D1*
X958436Y2390656D1*
X957664Y2391378D1*
X956810Y2392014D1*
X955871Y2392567D1*
X954850Y2393034D1*
X953747Y2393416D1*
X952560Y2393713D1*
X951290Y2393925D1*
X949937Y2394052D1*
X948501Y2394094D1*
G37*
G36*
X653199Y3769814D2*
X655356Y3768890D1*
X657143Y3767850D1*
X658769Y3766621D1*
X660231Y3765201D1*
X661510Y3763605D1*
X662609Y3761833D1*
X663608Y3759680D1*
X664293Y3757551D1*
X664785Y3755022D1*
X665008Y3752045D1*
X664852Y3747671D1*
X664297Y3743516D1*
X663346Y3739429D1*
X662256Y3736142D1*
X660899Y3733068D1*
X659278Y3730209D1*
X657591Y3727819D1*
X655900Y3725877D1*
X654035Y3724119D1*
X651997Y3722549D1*
X649787Y3721164D1*
X648009Y3720264D1*
X646130Y3719521D1*
X643808Y3718854D1*
X641350Y3718406D1*
X641113Y3723398D1*
D1*
X639018Y3723207D1*
X636476Y3723270D1*
X634495Y3723530D1*
X632970Y3723890D1*
X631559Y3724381D1*
X630264Y3725000D1*
X629310Y3725591D1*
X628429Y3726262D1*
X627623Y3727020D1*
X626718Y3728080D1*
X625772Y3729472D1*
X624978Y3730979D1*
X624339Y3732600D1*
X623852Y3734336D1*
X623479Y3736505D1*
X623315Y3738833D1*
X623370Y3741433D1*
X623841Y3745121D1*
X624899Y3749369D1*
X626201Y3752806D1*
X627765Y3755795D1*
X629522Y3758367D1*
X631256Y3760341D1*
X633202Y3762089D1*
X635361Y3763610D1*
X636908Y3764450D1*
X638541Y3765105D1*
X640480Y3765625D1*
X642526Y3765912D1*
X644928Y3765962D1*
X646920Y3765801D1*
X648759Y3765457D1*
X650175Y3765033D1*
X651484Y3764482D1*
X652686Y3763804D1*
X653571Y3763172D1*
X654387Y3762458D1*
X655134Y3761664D1*
X656133Y3760356D1*
X656976Y3758938D1*
X657668Y3757413D1*
X658205Y3755778D1*
X658589Y3754035D1*
X658843Y3751864D1*
X658885Y3749378D1*
X658526Y3745495D1*
X657559Y3741010D1*
X656354Y3737467D1*
X654781Y3734156D1*
X652967Y3731273D1*
X651281Y3729205D1*
X649382Y3727373D1*
X647273Y3725773D1*
X646140Y3725083D1*
X644554Y3724331D1*
X642879Y3723769D1*
X641113Y3723398D1*
X641350Y3718406D1*
X638753Y3718173D1*
X636134Y3718155D1*
X634071Y3718297D1*
X632122Y3718579D1*
X630290Y3719004D1*
X628572Y3719570D1*
X627358Y3720087D1*
X626210Y3720684D1*
X625126Y3721361D1*
X624106Y3722118D1*
X623152Y3722954D1*
X621978Y3724190D1*
X620928Y3725533D1*
X620008Y3726972D1*
X619218Y3728510D1*
X618558Y3730146D1*
X618028Y3731879D1*
X617627Y3733710D1*
X617307Y3736136D1*
X617193Y3739482D1*
X617416Y3743219D1*
X617991Y3746903D1*
X618917Y3750533D1*
X620058Y3753714D1*
X621315Y3756395D1*
X622797Y3758906D1*
X624501Y3761244D1*
X626420Y3763383D1*
X628542Y3765301D1*
X630869Y3766995D1*
X633400Y3768467D1*
X635500Y3769416D1*
X637718Y3770156D1*
X640054Y3770686D1*
X642507Y3771009D1*
X646085Y3771109D1*
X649118Y3770837D1*
X651744Y3770277D1*
X653199Y3769814D1*
G37*
G36*
X703329Y3719500D2*
X705080Y3728642D1*
X704877D1*
X703004Y3725657D1*
X700482Y3723163D1*
X697348Y3721155D1*
X694202Y3719148D1*
X690743Y3718138D1*
X686986D1*
X684789D1*
X682768Y3718382D1*
X680909Y3718870D1*
X679066Y3719352D1*
X677465Y3720131D1*
X676108Y3721202D1*
X674739Y3722274D1*
X673680Y3723664D1*
X672948Y3725381D1*
X672202Y3727096D1*
X671822Y3729157D1*
Y3731558D1*
Y3732915D1*
X672080Y3734895D1*
X672596Y3737486D1*
X679499Y3769664D1*
X685630D1*
X678631Y3737289D1*
X678441Y3736516D1*
X678278Y3735688D1*
X678143Y3734814D1*
X678007Y3733938D1*
X677953Y3733077D1*
Y3732236D1*
Y3730615D1*
X678238Y3729226D1*
X678820Y3728059D1*
X679404Y3726892D1*
X680190Y3725950D1*
X681154Y3725238D1*
X682130Y3724525D1*
X683243Y3724004D1*
X684517Y3723678D1*
X685778Y3723360D1*
X687081Y3723197D1*
X688451D1*
X690717D1*
X692873Y3723678D1*
X694920Y3724655D1*
X696955Y3725625D1*
X698840Y3727001D1*
X700550Y3728785D1*
X702272Y3730568D1*
X703777Y3732738D1*
X705080Y3735302D1*
X706367Y3737858D1*
X707371Y3740727D1*
X708091Y3743900D1*
X713625Y3769664D1*
X719755D1*
X708958Y3719500D1*
X703329D1*
G37*
G36*
X735312Y3769664D2*
X738513Y3784835D1*
X744644D1*
X741429Y3769664D1*
X751440D1*
X750476Y3764517D1*
X740262D1*
X733360Y3732331D1*
X733101Y3731165D1*
X732925Y3730277D1*
X732831Y3729659D1*
X732735Y3729042D1*
X732681Y3728350D1*
Y3727571D1*
Y3726661D1*
X732925Y3725854D1*
X733413Y3725136D1*
X733902Y3724424D1*
X734730Y3724071D1*
X735895D1*
X738282D1*
X740684Y3724261D1*
X743084Y3724655D1*
X742013Y3719406D1*
X740982Y3719277D1*
X739937Y3719175D1*
X738907Y3719114D1*
X737862Y3719046D1*
X736832Y3719012D1*
X735787D1*
X734621D1*
X733495Y3719093D1*
X732396Y3719256D1*
X731283Y3719419D1*
X730294Y3719759D1*
X729425Y3720281D1*
X728545Y3720795D1*
X727853Y3721528D1*
X727337Y3722465D1*
X726822Y3723407D1*
X726550Y3724621D1*
Y3726113D1*
Y3726627D1*
X726605Y3727340D1*
X726699Y3728249D1*
X726794Y3729157D1*
X726984Y3730161D1*
X727241Y3731266D1*
X734146Y3764517D1*
X725098D1*
X726265Y3769664D1*
X735312D1*
G37*
G36*
X766711D2*
X764759Y3760625D1*
X764962D1*
X766459Y3762755D1*
X767948Y3764533D1*
X769526Y3766118D1*
X771197Y3767510D1*
X772598Y3768487D1*
X773718Y3769123D1*
X774911Y3769672D1*
X776180Y3770133D1*
X777524Y3770507D1*
X779433Y3770866D1*
X781478Y3771071D1*
X784343Y3771102D1*
X786634Y3770919D1*
X788757Y3770543D1*
X790399Y3770085D1*
X791924Y3769495D1*
X793617Y3768639D1*
X794911Y3767812D1*
X796102Y3766883D1*
X797190Y3765849D1*
X798180Y3764714D1*
X799063Y3763479D1*
X799836Y3762144D1*
X800621Y3760415D1*
X801339Y3758220D1*
X801856Y3755882D1*
X802201Y3753042D1*
X802287Y3750358D1*
X802147Y3747420D1*
X801766Y3744488D1*
X801143Y3741563D1*
X800274Y3738646D1*
X799186Y3735823D1*
X798114Y3733583D1*
X796891Y3731445D1*
X795517Y3729409D1*
X794000Y3727487D1*
X792353Y3725710D1*
X790575Y3724083D1*
X788665Y3722605D1*
X786626Y3721278D1*
X784909Y3720345D1*
X783121Y3719576D1*
X781260Y3718971D1*
X779328Y3718529D1*
X777325Y3718252D1*
X775255Y3718140D1*
X772388Y3718255D1*
X769584Y3718690D1*
X767581Y3719239D1*
X765945Y3719899D1*
X764438Y3720723D1*
X763228Y3721591D1*
X762139Y3722600D1*
X761169Y3723752D1*
X760437Y3724852D1*
X759827Y3726056D1*
X759266Y3727593D1*
X758871Y3729277D1*
X758831Y3729517D1*
X762304Y3730168D1*
D1*
X761699Y3731633D1*
X761244Y3733214D1*
X760941Y3734913D1*
X760780Y3737045D1*
X760839Y3739714D1*
X761298Y3743404D1*
X762331Y3747672D1*
X763680Y3751367D1*
X765293Y3754600D1*
X767244Y3757591D1*
X769049Y3759734D1*
X771072Y3761635D1*
X773316Y3763297D1*
X774113Y3763786D1*
X775768Y3764617D1*
X777507Y3765249D1*
X779332Y3765686D1*
X781487Y3765941D1*
X783730Y3765948D1*
X785559Y3765760D1*
X786970Y3765467D1*
X788278Y3765052D1*
X789483Y3764514D1*
X790585Y3763852D1*
X791392Y3763235D1*
X792133Y3762538D1*
X792808Y3761764D1*
X793698Y3760492D1*
X794451Y3759131D1*
X795070Y3757682D1*
X795618Y3755881D1*
X795979Y3753958D1*
X796154Y3751915D1*
X796106Y3749012D1*
X795594Y3744937D1*
X794504Y3740508D1*
X793160Y3736924D1*
X791552Y3733787D1*
X789739Y3731076D1*
X787938Y3729000D1*
X785915Y3727165D1*
X783669Y3725575D1*
X782055Y3724713D1*
X780350Y3724043D1*
X778556Y3723567D1*
X776430Y3723264D1*
X774039Y3723209D1*
X771927Y3723391D1*
X770255Y3723723D1*
X768709Y3724215D1*
X767518Y3724748D1*
X766416Y3725394D1*
X765402Y3726151D1*
X764478Y3727020D1*
X763650Y3727988D1*
X762925Y3729038D1*
X762304Y3730168D1*
X758831Y3729517D1*
X758642D1*
X752505Y3701028D1*
X746493D1*
X761161Y3769651D1*
X761182Y3769664D1*
X766711D1*
G37*
G36*
X840117Y3719500D2*
X841866Y3728642D1*
X841663D1*
X839791Y3725657D1*
X837268Y3723163D1*
X834135Y3721155D1*
X830988Y3719148D1*
X827530Y3718138D1*
X823773D1*
X821575D1*
X819554Y3718382D1*
X817696Y3718870D1*
X815852Y3719352D1*
X814251Y3720131D1*
X812895Y3721202D1*
X811525Y3722274D1*
X810467Y3723664D1*
X809735Y3725381D1*
X808988Y3727096D1*
X808609Y3729157D1*
Y3731558D1*
Y3732915D1*
X808866Y3734895D1*
X809382Y3737486D1*
X816286Y3769664D1*
X822416D1*
X815417Y3737289D1*
X815227Y3736516D1*
X815064Y3735688D1*
X814929Y3734814D1*
X814794Y3733938D1*
X814739Y3733077D1*
Y3732236D1*
Y3730615D1*
X815024Y3729226D1*
X815608Y3728059D1*
X816190Y3726892D1*
X816978Y3725950D1*
X817941Y3725238D1*
X818917Y3724525D1*
X820029Y3724004D1*
X821304Y3723678D1*
X822566Y3723360D1*
X823867Y3723197D1*
X825238D1*
X827503D1*
X829659Y3723678D1*
X831707Y3724655D1*
X833741Y3725625D1*
X835627Y3727001D1*
X837336Y3728785D1*
X839059Y3730568D1*
X840564Y3732738D1*
X841866Y3735302D1*
X843155Y3737858D1*
X844159Y3740727D1*
X844877Y3743900D1*
X850411Y3769664D1*
X856542D1*
X845745Y3719500D1*
X840117D1*
G37*
G36*
X872098Y3769664D2*
X875299Y3784835D1*
X881430D1*
X878217Y3769664D1*
X888226D1*
X887262Y3764517D1*
X877050D1*
X870146Y3732331D1*
X869888Y3731165D1*
X869711Y3730277D1*
X869617Y3729659D1*
X869522Y3729042D1*
X869467Y3728350D1*
Y3727571D1*
Y3726661D1*
X869711Y3725854D1*
X870199Y3725136D1*
X870688Y3724424D1*
X871516Y3724071D1*
X872682D1*
X875070D1*
X877470Y3724261D1*
X879870Y3724655D1*
X878799Y3719406D1*
X877768Y3719277D1*
X876724Y3719175D1*
X875693Y3719114D1*
X874648Y3719046D1*
X873618Y3719012D1*
X872573D1*
X871407D1*
X870281Y3719093D1*
X869182Y3719256D1*
X868071Y3719419D1*
X867080Y3719759D1*
X866213Y3720281D1*
X865331Y3720795D1*
X864639Y3721528D1*
X864123Y3722465D1*
X863608Y3723407D1*
X863337Y3724621D1*
Y3726113D1*
Y3726627D1*
X863391Y3727340D1*
X863486Y3728249D1*
X863581Y3729157D1*
X863770Y3730161D1*
X864029Y3731266D1*
X870932Y3764517D1*
X861886D1*
X863052Y3769664D1*
X872098D1*
G37*
G36*
X962797Y3787555D2*
X952882Y3741568D1*
X963190D1*
X962024Y3736413D1*
X951811D1*
X948122Y3719500D1*
X941991D1*
X945680Y3736413D1*
X946752Y3741568D1*
D1*
X921673D1*
X954239Y3777056D1*
X954429Y3776860D1*
X946752Y3741568D1*
X945680Y3736413D1*
X914675D1*
X915638Y3742151D1*
X957358Y3787555D1*
X962797D1*
G37*
G36*
X653199Y1686480D2*
X655356Y1685559D1*
X657143Y1684518D1*
X658769Y1683287D1*
X660231Y1681870D1*
X661510Y1680274D1*
X662709Y1678316D1*
X663608Y1676354D1*
X664293Y1674223D1*
X664785Y1671692D1*
X665008Y1668711D1*
X664852Y1664339D1*
X664297Y1660188D1*
X663346Y1656102D1*
X662256Y1652812D1*
X660899Y1649739D1*
X659278Y1646878D1*
X657790Y1644743D1*
X656121Y1642780D1*
X654278Y1641001D1*
X652261Y1639406D1*
X650072Y1637995D1*
X648312Y1637071D1*
X646450Y1636303D1*
X644148Y1635606D1*
X641710Y1635125D1*
X640886Y1640031D1*
D1*
X638778Y1639867D1*
X636134Y1639967D1*
X634181Y1640259D1*
X632678Y1640644D1*
X631290Y1641160D1*
X630018Y1641807D1*
X629083Y1642417D1*
X628222Y1643112D1*
X627434Y1643888D1*
X626718Y1644747D1*
X625772Y1646142D1*
X624978Y1647650D1*
X624339Y1649272D1*
X623852Y1651007D1*
X623479Y1653176D1*
X623315Y1655500D1*
X623370Y1658100D1*
X623841Y1661791D1*
X624899Y1666041D1*
X626201Y1669476D1*
X627765Y1672465D1*
X629522Y1675034D1*
X631256Y1677008D1*
X633202Y1678756D1*
X635361Y1680277D1*
X636908Y1681117D1*
X638541Y1681772D1*
X640480Y1682291D1*
X642526Y1682579D1*
X644928Y1682629D1*
X646920Y1682467D1*
X648759Y1682126D1*
X650175Y1681702D1*
X651484Y1681151D1*
X652686Y1680475D1*
X653571Y1679841D1*
X654387Y1679127D1*
X655134Y1678331D1*
X656133Y1677022D1*
X656976Y1675606D1*
X657668Y1674083D1*
X658205Y1672449D1*
X658589Y1670707D1*
X658843Y1668537D1*
X658885Y1666051D1*
X658526Y1662164D1*
X657559Y1657677D1*
X656354Y1654139D1*
X654781Y1650829D1*
X652967Y1647946D1*
X651281Y1645878D1*
X649382Y1644043D1*
X647273Y1642440D1*
X645948Y1641646D1*
X644349Y1640916D1*
X642663Y1640379D1*
X640886Y1640031D1*
X641710Y1635125D1*
X639133Y1634860D1*
X636668Y1634808D1*
X634576Y1634915D1*
X632598Y1635163D1*
X630738Y1635552D1*
X628991Y1636084D1*
X627756Y1636575D1*
X626587Y1637146D1*
X625480Y1637797D1*
X624440Y1638526D1*
X623463Y1639335D1*
X622551Y1640223D1*
X621436Y1641516D1*
X620451Y1642908D1*
X619596Y1644398D1*
X618871Y1645984D1*
X618277Y1647669D1*
X617811Y1649451D1*
X617475Y1651332D1*
X617236Y1653818D1*
X617234Y1657514D1*
X617584Y1661232D1*
X618286Y1664895D1*
X619341Y1668499D1*
X620589Y1671598D1*
X621946Y1674205D1*
X623526Y1676639D1*
X625329Y1678895D1*
X627105Y1680719D1*
X629295Y1682559D1*
X631689Y1684177D1*
X633988Y1685428D1*
X636122Y1686319D1*
X638374Y1687001D1*
X640743Y1687474D1*
X643594Y1687757D1*
X646803Y1687749D1*
X649567Y1687437D1*
X651955Y1686887D1*
X653199Y1686480D1*
G37*
G36*
X703329Y1636173D2*
X705080Y1645315D1*
X704877D1*
X703004Y1642332D1*
X700482Y1639836D1*
X697348Y1637828D1*
X694202Y1635822D1*
X690743Y1634804D1*
X686986D1*
X684789D1*
X682768Y1635049D1*
X680909Y1635537D1*
X679066Y1636025D1*
X677465Y1636798D1*
X676108Y1637869D1*
X674739Y1638941D1*
X673680Y1640337D1*
X672948Y1642047D1*
X672202Y1643769D1*
X671822Y1645831D1*
Y1648231D1*
Y1649588D1*
X672080Y1651568D1*
X672596Y1654159D1*
X679499Y1686331D1*
X685630D1*
X678631Y1653955D1*
X678441Y1653182D1*
X678278Y1652354D1*
X678143Y1651487D1*
X678007Y1650605D1*
X677953Y1649751D1*
Y1648909D1*
Y1647282D1*
X678238Y1645899D1*
X678820Y1644732D1*
X679404Y1643566D1*
X680190Y1642617D1*
X681154Y1641911D1*
X682130Y1641192D1*
X683243Y1640677D1*
X684517Y1640352D1*
X685778Y1640026D1*
X687081Y1639864D1*
X688451D1*
X690717D1*
X692873Y1640352D1*
X694920Y1641328D1*
X696955Y1642291D1*
X698840Y1643675D1*
X700550Y1645451D1*
X702272Y1647241D1*
X703777Y1649412D1*
X705080Y1651975D1*
X706367Y1654525D1*
X707371Y1657400D1*
X708091Y1660575D1*
X713625Y1686331D1*
X719755D1*
X708958Y1636173D1*
X703329D1*
G37*
G36*
X735312Y1686331D2*
X738513Y1701508D1*
X744644D1*
X741429Y1686331D1*
X751440D1*
X750476Y1681190D1*
X740262D1*
X733360Y1649005D1*
X733101Y1647839D1*
X732925Y1646944D1*
X732831Y1646333D1*
X732735Y1645709D1*
X732681Y1645017D1*
Y1644244D1*
Y1643335D1*
X732925Y1642521D1*
X733413Y1641803D1*
X733902Y1641097D1*
X734730Y1640744D1*
X735895D1*
X738282D1*
X740684Y1640934D1*
X743084Y1641328D1*
X742013Y1636079D1*
X740982Y1635944D1*
X739937Y1635848D1*
X738907Y1635781D1*
X737862Y1635713D1*
X736832Y1635685D1*
X735787D1*
X734621D1*
X733495Y1635766D1*
X732396Y1635929D1*
X731283Y1636092D1*
X730294Y1636432D1*
X729425Y1636948D1*
X728545Y1637462D1*
X727853Y1638194D1*
X727337Y1639131D1*
X726822Y1640080D1*
X726550Y1641287D1*
Y1642780D1*
Y1643294D1*
X726605Y1644013D1*
X726699Y1644923D1*
X726794Y1645831D1*
X726984Y1646835D1*
X727241Y1647933D1*
X734146Y1681190D1*
X725098D1*
X726265Y1686331D1*
X735312D1*
G37*
G36*
X766711D2*
X764759Y1677298D1*
X764962D1*
X766459Y1679428D1*
X767948Y1681205D1*
X769526Y1682789D1*
X771197Y1684182D1*
X772598Y1685160D1*
X773718Y1685797D1*
X774911Y1686345D1*
X776180Y1686807D1*
X777524Y1687180D1*
X779433Y1687541D1*
X781478Y1687745D1*
X784343Y1687776D1*
X786634Y1687592D1*
X788757Y1687218D1*
X790399Y1686759D1*
X791924Y1686168D1*
X793617Y1685311D1*
X794911Y1684483D1*
X796102Y1683554D1*
X797190Y1682522D1*
X798180Y1681385D1*
X799063Y1680147D1*
X799836Y1678814D1*
X800621Y1677084D1*
X801248Y1675217D1*
X801794Y1672896D1*
X802172Y1670077D1*
X802287Y1667031D1*
X802147Y1664092D1*
X801766Y1661159D1*
X801143Y1658234D1*
X800274Y1655319D1*
X799186Y1652496D1*
X798114Y1650256D1*
X796891Y1648118D1*
X795517Y1646083D1*
X794000Y1644160D1*
X792353Y1642382D1*
X790575Y1640755D1*
X788665Y1639276D1*
X786626Y1637945D1*
X784909Y1637012D1*
X783121Y1636243D1*
X781260Y1635638D1*
X779328Y1635196D1*
X777325Y1634919D1*
X775255Y1634807D1*
X772388Y1634924D1*
X769584Y1635364D1*
X767581Y1635909D1*
X765945Y1636571D1*
X764438Y1637398D1*
X763228Y1638262D1*
X762139Y1639270D1*
X761169Y1640424D1*
X760437Y1641524D1*
X759827Y1642726D1*
X759266Y1644264D1*
X758871Y1645944D1*
X758831Y1646184D1*
X762304Y1646840D1*
D1*
X761699Y1648303D1*
X761244Y1649883D1*
X760941Y1651581D1*
X760780Y1653711D1*
X760839Y1656383D1*
X761298Y1660072D1*
X762331Y1664339D1*
X763680Y1668034D1*
X765293Y1671266D1*
X767244Y1674257D1*
X769049Y1676402D1*
X771072Y1678304D1*
X773316Y1679970D1*
X774113Y1680457D1*
X775768Y1681285D1*
X777507Y1681917D1*
X779332Y1682353D1*
X781487Y1682608D1*
X783730Y1682614D1*
X785559Y1682428D1*
X786970Y1682136D1*
X788278Y1681722D1*
X789483Y1681185D1*
X790585Y1680525D1*
X791392Y1679908D1*
X792133Y1679211D1*
X792808Y1678437D1*
X793698Y1677163D1*
X794451Y1675802D1*
X795070Y1674353D1*
X795618Y1672551D1*
X795979Y1670627D1*
X796164Y1668280D1*
X796092Y1665459D1*
X795550Y1661378D1*
X794430Y1656945D1*
X793064Y1653379D1*
X791434Y1650255D1*
X789739Y1647745D1*
X787938Y1645672D1*
X785915Y1643839D1*
X783669Y1642248D1*
X782055Y1641385D1*
X780350Y1640714D1*
X778556Y1640236D1*
X776430Y1639930D1*
X774039Y1639875D1*
X771927Y1640059D1*
X770255Y1640391D1*
X768709Y1640886D1*
X767518Y1641420D1*
X766416Y1642066D1*
X765402Y1642824D1*
X764478Y1643694D1*
X763650Y1644661D1*
X762925Y1645710D1*
X762304Y1646840D1*
X758831Y1646184D1*
X758642D1*
X752505Y1617701D1*
X746493D1*
X761161Y1686318D1*
X761182Y1686331D1*
X766711D1*
G37*
G36*
X840117Y1636173D2*
X841866Y1645315D1*
X841663D1*
X839791Y1642332D1*
X837268Y1639836D1*
X834135Y1637828D1*
X830988Y1635822D1*
X827530Y1634804D1*
X823773D1*
X821575D1*
X819554Y1635049D1*
X817696Y1635537D1*
X815852Y1636025D1*
X814251Y1636798D1*
X812895Y1637869D1*
X811525Y1638941D1*
X810467Y1640337D1*
X809735Y1642047D1*
X808988Y1643769D1*
X808609Y1645831D1*
Y1648231D1*
Y1649588D1*
X808866Y1651568D1*
X809382Y1654159D1*
X816286Y1686331D1*
X822416D1*
X815417Y1653955D1*
X815227Y1653182D1*
X815064Y1652354D1*
X814929Y1651487D1*
X814794Y1650605D1*
X814739Y1649751D1*
Y1648909D1*
Y1647282D1*
X815024Y1645899D1*
X815608Y1644732D1*
X816190Y1643566D1*
X816978Y1642617D1*
X817941Y1641911D1*
X818917Y1641192D1*
X820029Y1640677D1*
X821304Y1640352D1*
X822566Y1640026D1*
X823867Y1639864D1*
X825238D1*
X827503D1*
X829659Y1640352D1*
X831707Y1641328D1*
X833741Y1642291D1*
X835627Y1643675D1*
X837336Y1645451D1*
X839059Y1647241D1*
X840564Y1649412D1*
X841866Y1651975D1*
X843155Y1654525D1*
X844159Y1657400D1*
X844877Y1660575D1*
X850411Y1686331D1*
X856542D1*
X845745Y1636173D1*
X840117D1*
G37*
G36*
X872098Y1686331D2*
X875299Y1701508D1*
X881430D1*
X878217Y1686331D1*
X888226D1*
X887262Y1681190D1*
X877050D1*
X870146Y1649005D1*
X869888Y1647839D1*
X869711Y1646944D1*
X869617Y1646333D1*
X869522Y1645709D1*
X869467Y1645017D1*
Y1644244D1*
Y1643335D1*
X869711Y1642521D1*
X870199Y1641803D1*
X870688Y1641097D1*
X871516Y1640744D1*
X872682D1*
X875070D1*
X877470Y1640934D1*
X879870Y1641328D1*
X878799Y1636079D1*
X877768Y1635944D1*
X876724Y1635848D1*
X875693Y1635781D1*
X874648Y1635713D1*
X873618Y1635685D1*
X872573D1*
X871407D1*
X870281Y1635766D1*
X869182Y1635929D1*
X868071Y1636092D1*
X867080Y1636432D1*
X866213Y1636948D1*
X865331Y1637462D1*
X864639Y1638194D1*
X864123Y1639131D1*
X863608Y1640080D1*
X863337Y1641287D1*
Y1642780D1*
Y1643294D1*
X863391Y1644013D1*
X863486Y1644923D1*
X863581Y1645831D1*
X863770Y1646835D1*
X864029Y1647933D1*
X870932Y1681190D1*
X861886D1*
X863052Y1686331D1*
X872098D1*
G37*
G36*
X970189Y1703353D2*
X968915Y1698104D1*
X963991Y1693235D1*
X959542Y1688189D1*
X955554Y1682940D1*
X951567Y1677677D1*
X947986Y1672333D1*
X944812Y1666895D1*
X941693Y1661442D1*
X939021Y1656139D1*
X936782Y1650945D1*
X934558Y1645762D1*
X932727Y1640840D1*
X931290Y1636173D1*
X924495D1*
X926366Y1642454D1*
X928591Y1648231D1*
X931154Y1653480D1*
X933703Y1658730D1*
X936606Y1663938D1*
X939848Y1669133D1*
X946399Y1679631D1*
X953913Y1689152D1*
X962404Y1697711D1*
X925362D1*
X926732Y1703353D1*
X970189D1*
G37*
G36*
X653199Y3075369D2*
X655356Y3074445D1*
X657143Y3073406D1*
X658769Y3072176D1*
X660231Y3070757D1*
X661510Y3069160D1*
X662609Y3067388D1*
X663608Y3065236D1*
X664293Y3063106D1*
X664785Y3060577D1*
X665008Y3057601D1*
X664852Y3053226D1*
X664297Y3049071D1*
X663346Y3044984D1*
X662256Y3041698D1*
X660899Y3038625D1*
X659278Y3035765D1*
X657591Y3033374D1*
X655900Y3031432D1*
X654035Y3029676D1*
X651997Y3028105D1*
X649787Y3026719D1*
X648009Y3025819D1*
X646130Y3025076D1*
X643808Y3024411D1*
X641350Y3023961D1*
X641113Y3028953D1*
D1*
X639018Y3028762D1*
X636476Y3028825D1*
X634495Y3029087D1*
X632970Y3029446D1*
X631559Y3029936D1*
X630264Y3030556D1*
X629310Y3031146D1*
X628429Y3031819D1*
X627623Y3032575D1*
X626718Y3033635D1*
X625772Y3035028D1*
X624978Y3036534D1*
X624339Y3038155D1*
X623852Y3039891D1*
X623479Y3042062D1*
X623315Y3044388D1*
X623370Y3046988D1*
X623841Y3050676D1*
X624899Y3054924D1*
X626201Y3058362D1*
X627765Y3061350D1*
X629522Y3063924D1*
X631256Y3065898D1*
X633202Y3067644D1*
X635361Y3069167D1*
X636908Y3070005D1*
X638541Y3070661D1*
X640480Y3071180D1*
X642526Y3071467D1*
X644928Y3071517D1*
X646920Y3071356D1*
X648759Y3071013D1*
X650175Y3070588D1*
X651484Y3070038D1*
X652686Y3069361D1*
X653571Y3068728D1*
X654387Y3068014D1*
X655134Y3067219D1*
X656133Y3065912D1*
X656976Y3064495D1*
X657668Y3062969D1*
X658205Y3061333D1*
X658589Y3059591D1*
X658843Y3057419D1*
X658885Y3054933D1*
X658526Y3051050D1*
X657559Y3046566D1*
X656354Y3043024D1*
X654781Y3039713D1*
X652967Y3036828D1*
X651281Y3034761D1*
X649382Y3032928D1*
X647273Y3031329D1*
X646140Y3030639D1*
X644554Y3029886D1*
X642879Y3029324D1*
X641113Y3028953D1*
X641350Y3023961D1*
X638753Y3023728D1*
X636134Y3023710D1*
X634071Y3023852D1*
X632122Y3024135D1*
X630290Y3024559D1*
X628572Y3025125D1*
X627358Y3025643D1*
X626210Y3026240D1*
X625126Y3026916D1*
X624106Y3027673D1*
X623152Y3028509D1*
X621978Y3029745D1*
X620928Y3031088D1*
X620008Y3032529D1*
X619218Y3034066D1*
X618558Y3035701D1*
X618028Y3037434D1*
X617627Y3039265D1*
X617307Y3041692D1*
X617193Y3045037D1*
X617416Y3048774D1*
X617991Y3052458D1*
X618917Y3056088D1*
X620058Y3059269D1*
X621315Y3061950D1*
X622797Y3064461D1*
X624501Y3066799D1*
X626420Y3068940D1*
X628542Y3070856D1*
X630869Y3072550D1*
X633400Y3074024D1*
X635500Y3074971D1*
X637718Y3075711D1*
X640054Y3076243D1*
X642507Y3076564D1*
X646085Y3076664D1*
X649118Y3076392D1*
X651744Y3075833D1*
X653199Y3075369D1*
G37*
G36*
X703329Y3025056D2*
X705080Y3034198D1*
X704877D1*
X703004Y3031214D1*
X700482Y3028718D1*
X697348Y3026710D1*
X694202Y3024703D1*
X690743Y3023693D1*
X686986D1*
X684789D1*
X682768Y3023937D1*
X680909Y3024425D1*
X679066Y3024907D1*
X677465Y3025686D1*
X676108Y3026759D1*
X674739Y3027829D1*
X673680Y3029220D1*
X672948Y3030936D1*
X672202Y3032651D1*
X671822Y3034713D1*
Y3037114D1*
Y3038470D1*
X672080Y3040450D1*
X672596Y3043041D1*
X679499Y3075220D1*
X685630D1*
X678631Y3042844D1*
X678441Y3042071D1*
X678278Y3041244D1*
X678143Y3040369D1*
X678007Y3039493D1*
X677953Y3038633D1*
Y3037791D1*
Y3036171D1*
X678238Y3034781D1*
X678820Y3033614D1*
X679404Y3032448D1*
X680190Y3031505D1*
X681154Y3030793D1*
X682130Y3030081D1*
X683243Y3029559D1*
X684517Y3029234D1*
X685778Y3028915D1*
X687081Y3028752D1*
X688451D1*
X690717D1*
X692873Y3029234D1*
X694920Y3030210D1*
X696955Y3031180D1*
X698840Y3032556D1*
X700550Y3034340D1*
X702272Y3036123D1*
X703777Y3038294D1*
X705080Y3040857D1*
X706367Y3043413D1*
X707371Y3046282D1*
X708091Y3049457D1*
X713625Y3075220D1*
X719755D1*
X708958Y3025056D1*
X703329D1*
G37*
G36*
X735312Y3075220D2*
X738513Y3090391D1*
X744644D1*
X741429Y3075220D1*
X751440D1*
X750476Y3070072D1*
X740262D1*
X733360Y3037887D1*
X733101Y3036720D1*
X732925Y3035832D1*
X732831Y3035215D1*
X732735Y3034597D1*
X732681Y3033906D1*
Y3033126D1*
Y3032218D1*
X732925Y3031411D1*
X733413Y3030692D1*
X733902Y3029979D1*
X734730Y3029627D1*
X735895D1*
X738282D1*
X740684Y3029816D1*
X743084Y3030210D1*
X742013Y3024961D1*
X740982Y3024832D1*
X739937Y3024731D1*
X738907Y3024669D1*
X737862Y3024601D1*
X736832Y3024568D1*
X735787D1*
X734621D1*
X733495Y3024650D1*
X732396Y3024812D1*
X731283Y3024975D1*
X730294Y3025314D1*
X729425Y3025836D1*
X728545Y3026352D1*
X727853Y3027084D1*
X727337Y3028020D1*
X726822Y3028962D1*
X726550Y3030176D1*
Y3031668D1*
Y3032184D1*
X726605Y3032895D1*
X726699Y3033804D1*
X726794Y3034713D1*
X726984Y3035717D1*
X727241Y3036822D1*
X734146Y3070072D1*
X725098D1*
X726265Y3075220D1*
X735312D1*
G37*
G36*
X766711D2*
X764759Y3066180D1*
X764962D1*
X766459Y3068311D1*
X767948Y3070089D1*
X769526Y3071673D1*
X771197Y3073067D1*
X772598Y3074042D1*
X773718Y3074678D1*
X774911Y3075228D1*
X776180Y3075689D1*
X777524Y3076062D1*
X779433Y3076423D1*
X781478Y3076627D1*
X784343Y3076657D1*
X786634Y3076474D1*
X788757Y3076100D1*
X790399Y3075640D1*
X791924Y3075050D1*
X793617Y3074194D1*
X794911Y3073367D1*
X796102Y3072438D1*
X797190Y3071406D1*
X798180Y3070269D1*
X799063Y3069034D1*
X799836Y3067701D1*
X800621Y3065970D1*
X801339Y3063776D1*
X801856Y3061437D1*
X802201Y3058597D1*
X802287Y3055913D1*
X802147Y3052975D1*
X801766Y3050043D1*
X801143Y3047118D1*
X800274Y3044201D1*
X799186Y3041378D1*
X798114Y3039138D1*
X796891Y3037000D1*
X795517Y3034966D1*
X794000Y3033042D1*
X792353Y3031265D1*
X790575Y3029638D1*
X788665Y3028161D1*
X786626Y3026833D1*
X784909Y3025902D1*
X783121Y3025131D1*
X781260Y3024526D1*
X779328Y3024084D1*
X777325Y3023807D1*
X775255Y3023696D1*
X772388Y3023811D1*
X769584Y3024245D1*
X767581Y3024795D1*
X765945Y3025454D1*
X764438Y3026280D1*
X763228Y3027146D1*
X762139Y3028156D1*
X761169Y3029307D1*
X760437Y3030408D1*
X759827Y3031612D1*
X759266Y3033150D1*
X758871Y3034832D1*
X758831Y3035072D1*
X762304Y3035724D1*
D1*
X761699Y3037189D1*
X761244Y3038770D1*
X760941Y3040469D1*
X760780Y3042600D1*
X760839Y3045270D1*
X761298Y3048959D1*
X762331Y3053228D1*
X763680Y3056924D1*
X765293Y3060155D1*
X767244Y3063146D1*
X769049Y3065290D1*
X771072Y3067192D1*
X773316Y3068852D1*
X774113Y3069341D1*
X775768Y3070172D1*
X777507Y3070806D1*
X779332Y3071241D1*
X781487Y3071497D1*
X783730Y3071504D1*
X785559Y3071315D1*
X786970Y3071024D1*
X788278Y3070608D1*
X789483Y3070070D1*
X790585Y3069408D1*
X791392Y3068790D1*
X792133Y3068094D1*
X792808Y3067320D1*
X793698Y3066047D1*
X794451Y3064688D1*
X795070Y3063239D1*
X795618Y3061437D1*
X795979Y3059514D1*
X796154Y3057470D1*
X796106Y3054567D1*
X795594Y3050492D1*
X794504Y3046063D1*
X793160Y3042479D1*
X791552Y3039343D1*
X789739Y3036631D1*
X787938Y3034555D1*
X785915Y3032720D1*
X783669Y3031130D1*
X782055Y3030268D1*
X780350Y3029598D1*
X778556Y3029123D1*
X776430Y3028819D1*
X774039Y3028764D1*
X771927Y3028948D1*
X770255Y3029278D1*
X768709Y3029770D1*
X767518Y3030304D1*
X766416Y3030949D1*
X765402Y3031706D1*
X764478Y3032576D1*
X763650Y3033543D1*
X762925Y3034593D1*
X762304Y3035724D1*
X758831Y3035072D1*
X758642D1*
X752505Y3006583D1*
X746493D1*
X761161Y3075207D1*
X761182Y3075220D1*
X766711D1*
G37*
G36*
X840117Y3025056D2*
X841866Y3034198D1*
X841663D1*
X839791Y3031214D1*
X837268Y3028718D1*
X834135Y3026710D1*
X830988Y3024703D1*
X827530Y3023693D1*
X823773D1*
X821575D1*
X819554Y3023937D1*
X817696Y3024425D1*
X815852Y3024907D1*
X814251Y3025686D1*
X812895Y3026759D1*
X811525Y3027829D1*
X810467Y3029220D1*
X809735Y3030936D1*
X808988Y3032651D1*
X808609Y3034713D1*
Y3037114D1*
Y3038470D1*
X808866Y3040450D1*
X809382Y3043041D1*
X816286Y3075220D1*
X822416D1*
X815417Y3042844D1*
X815227Y3042071D1*
X815064Y3041244D1*
X814929Y3040369D1*
X814794Y3039493D1*
X814739Y3038633D1*
Y3037791D1*
Y3036171D1*
X815024Y3034781D1*
X815608Y3033614D1*
X816190Y3032448D1*
X816978Y3031505D1*
X817941Y3030793D1*
X818917Y3030081D1*
X820029Y3029559D1*
X821304Y3029234D1*
X822566Y3028915D1*
X823867Y3028752D1*
X825238D1*
X827503D1*
X829659Y3029234D1*
X831707Y3030210D1*
X833741Y3031180D1*
X835627Y3032556D1*
X837336Y3034340D1*
X839059Y3036123D1*
X840564Y3038294D1*
X841866Y3040857D1*
X843155Y3043413D1*
X844159Y3046282D1*
X844877Y3049457D1*
X850411Y3075220D1*
X856542D1*
X845745Y3025056D1*
X840117D1*
G37*
G36*
X872098Y3075220D2*
X875299Y3090391D1*
X881430D1*
X878217Y3075220D1*
X888226D1*
X887262Y3070072D1*
X877050D1*
X870146Y3037887D1*
X869888Y3036720D1*
X869711Y3035832D1*
X869617Y3035215D1*
X869522Y3034597D1*
X869467Y3033906D1*
Y3033126D1*
Y3032218D1*
X869711Y3031411D1*
X870199Y3030692D1*
X870688Y3029979D1*
X871516Y3029627D1*
X872682D1*
X875070D1*
X877470Y3029816D1*
X879870Y3030210D1*
X878799Y3024961D1*
X877768Y3024832D1*
X876724Y3024731D1*
X875693Y3024669D1*
X874648Y3024601D1*
X873618Y3024568D1*
X872573D1*
X871407D1*
X870281Y3024650D1*
X869182Y3024812D1*
X868071Y3024975D1*
X867080Y3025314D1*
X866213Y3025836D1*
X865331Y3026352D1*
X864639Y3027084D1*
X864123Y3028020D1*
X863608Y3028962D1*
X863337Y3030176D1*
Y3031668D1*
Y3032184D1*
X863391Y3032895D1*
X863486Y3033804D1*
X863581Y3034713D1*
X863770Y3035717D1*
X864029Y3036822D1*
X870932Y3070072D1*
X861886D1*
X863052Y3075220D1*
X872098D1*
G37*
G36*
X966391Y3092235D2*
X965042Y3086626D1*
X964984Y3086600D1*
X935299D1*
X935228Y3086454D1*
X927993Y3064816D1*
X928182D1*
X929118Y3065681D1*
X930316Y3066612D1*
X931600Y3067428D1*
X932969Y3068129D1*
X934424Y3068715D1*
X936466Y3069328D1*
X938535Y3069772D1*
X940631Y3070051D1*
X942756Y3070165D1*
X944399Y3070135D1*
X946000Y3069991D1*
X947537Y3069732D1*
X949008Y3069361D1*
X950415Y3068875D1*
X951753Y3068278D1*
X953013Y3067596D1*
X954194Y3066829D1*
X955298Y3065980D1*
X956323Y3065050D1*
X957270Y3064037D1*
X958133Y3062949D1*
X958913Y3061790D1*
X959614Y3060560D1*
X960234Y3059259D1*
X960770Y3057887D1*
X961211Y3056459D1*
X961654Y3054480D1*
X961925Y3052420D1*
X962024Y3050278D1*
X961966Y3048117D1*
X961772Y3045978D1*
X961440Y3043912D1*
X960971Y3041917D1*
X960367Y3039995D1*
X959636Y3038150D1*
X958786Y3036403D1*
X957816Y3034759D1*
X956727Y3033214D1*
X955522Y3031769D1*
X954199Y3030428D1*
X952776Y3029198D1*
X951256Y3028083D1*
X949639Y3027081D1*
X947928Y3026197D1*
X946119Y3025428D1*
X944228Y3024794D1*
X942257Y3024304D1*
X940207Y3023957D1*
X938080Y3023753D1*
X935912Y3023693D1*
X933543Y3023798D1*
X931850Y3023997D1*
X930228Y3024302D1*
X928678Y3024709D1*
X927205Y3025218D1*
X925811Y3025827D1*
X924503Y3026526D1*
X923278Y3027319D1*
X922140Y3028206D1*
X921089Y3029186D1*
X920130Y3030256D1*
X919266Y3031412D1*
X918501Y3032654D1*
X917832Y3033983D1*
X917262Y3035398D1*
X916791Y3036891D1*
X916438Y3038453D1*
X916205Y3040083D1*
X916088Y3041783D1*
X916091Y3043551D1*
X916117Y3044156D1*
X916167Y3044310D1*
X922201D1*
X922245Y3044192D1*
X922154Y3042358D1*
X922165Y3041483D1*
X922214Y3040635D1*
X922302Y3039815D1*
X922427Y3039021D1*
X922589Y3038255D1*
X922791Y3037514D1*
X923030Y3036802D1*
X923307Y3036117D1*
X923622Y3035459D1*
X923976Y3034828D1*
X924367Y3034224D1*
X924797Y3033648D1*
X925264Y3033098D1*
X925768Y3032577D1*
X926299Y3032087D1*
X926860Y3031631D1*
X927445Y3031209D1*
X928059Y3030819D1*
X928701Y3030465D1*
X929369Y3030142D1*
X930064Y3029854D1*
X930787Y3029600D1*
X931538Y3029378D1*
X932316Y3029190D1*
X933123Y3029035D1*
X934819Y3028827D1*
X936625Y3028752D1*
X938322Y3028807D1*
X939906Y3028984D1*
X941425Y3029283D1*
X942879Y3029703D1*
X944270Y3030245D1*
X945601Y3030902D1*
X946860Y3031646D1*
X948043Y3032474D1*
X949155Y3033388D1*
X950193Y3034388D1*
X951156Y3035471D1*
X952038Y3036617D1*
X952833Y3037824D1*
X953545Y3039092D1*
X954169Y3040420D1*
X954703Y3041808D1*
X955262Y3043719D1*
X955647Y3045688D1*
X955854Y3047711D1*
X955891Y3049409D1*
X955808Y3051167D1*
X955606Y3052836D1*
X955285Y3054417D1*
X954844Y3055911D1*
X954577Y3056625D1*
X954282Y3057318D1*
X953958Y3057987D1*
X953602Y3058635D1*
X953218Y3059262D1*
X952804Y3059867D1*
X952361Y3060450D1*
X951886Y3061007D1*
X951379Y3061528D1*
X950841Y3062012D1*
X950269Y3062461D1*
X949665Y3062873D1*
X949030Y3063248D1*
X948362Y3063588D1*
X947661Y3063891D1*
X946928Y3064159D1*
X946163Y3064388D1*
X945365Y3064584D1*
X944535Y3064741D1*
X943673Y3064864D1*
X942778Y3064950D1*
X940940Y3065013D1*
X939177Y3064944D1*
X937462Y3064744D1*
X935798Y3064417D1*
X934182Y3063959D1*
X932617Y3063374D1*
X931610Y3062904D1*
X930654Y3062348D1*
X929749Y3061707D1*
X928895Y3060979D1*
X928092Y3060167D1*
X927340Y3059266D1*
X926638Y3058281D1*
X925984Y3057210D1*
X925896Y3057144D1*
X920543Y3057625D1*
X920514Y3057655D1*
X931664Y3092176D1*
X931845Y3092235D1*
X966391D1*
G37*
G36*
X653199Y992035D2*
X655356Y991115D1*
X657143Y990073D1*
X658769Y988843D1*
X660231Y987425D1*
X661510Y985831D1*
X662709Y983873D1*
X663608Y981909D1*
X664293Y979778D1*
X664785Y977247D1*
X665008Y974268D1*
X664852Y969895D1*
X664297Y965743D1*
X663346Y961659D1*
X662256Y958367D1*
X660899Y955294D1*
X659278Y952434D1*
X657790Y950298D1*
X656121Y948335D1*
X654278Y946556D1*
X652261Y944962D1*
X650072Y943550D1*
X648312Y942626D1*
X646450Y941858D1*
X644148Y941161D1*
X641710Y940680D1*
X640886Y945587D1*
D1*
X638778Y945423D1*
X636134Y945522D1*
X634181Y945814D1*
X632678Y946201D1*
X631290Y946717D1*
X630018Y947362D1*
X629083Y947972D1*
X628222Y948667D1*
X627434Y949444D1*
X626718Y950302D1*
X625772Y951697D1*
X624978Y953205D1*
X624339Y954827D1*
X623852Y956563D1*
X623479Y958731D1*
X623315Y961056D1*
X623370Y963655D1*
X623841Y967348D1*
X624899Y971597D1*
X626201Y975031D1*
X627765Y978020D1*
X629522Y980591D1*
X631256Y982564D1*
X633202Y984311D1*
X635361Y985833D1*
X636908Y986672D1*
X638541Y987328D1*
X640480Y987846D1*
X642526Y988134D1*
X644928Y988184D1*
X646920Y988024D1*
X648759Y987681D1*
X650175Y987257D1*
X651484Y986707D1*
X652686Y986030D1*
X653571Y985398D1*
X654387Y984682D1*
X655134Y983887D1*
X656133Y982579D1*
X656976Y981163D1*
X657668Y979638D1*
X658205Y978005D1*
X658589Y976262D1*
X658843Y974092D1*
X658885Y971606D1*
X658526Y967719D1*
X657559Y963232D1*
X656354Y959696D1*
X654781Y956386D1*
X652967Y953501D1*
X651281Y951434D1*
X649382Y949598D1*
X647273Y947996D1*
X645948Y947201D1*
X644349Y946472D1*
X642663Y945934D1*
X640886Y945587D1*
X641710Y940680D1*
X639133Y940415D1*
X636668Y940364D1*
X634576Y940470D1*
X632598Y940718D1*
X630738Y941108D1*
X628991Y941639D1*
X627756Y942131D1*
X626587Y942702D1*
X625480Y943352D1*
X624440Y944081D1*
X623463Y944890D1*
X622551Y945778D1*
X621436Y947072D1*
X620451Y948463D1*
X619596Y949953D1*
X618871Y951541D1*
X618277Y953226D1*
X617811Y955008D1*
X617475Y956887D1*
X617236Y959373D1*
X617234Y963070D1*
X617584Y966787D1*
X618286Y970451D1*
X619341Y974054D1*
X620589Y977154D1*
X621946Y979760D1*
X623526Y982194D1*
X625329Y984451D1*
X627105Y986274D1*
X629295Y988114D1*
X631689Y989734D1*
X633988Y990983D1*
X636122Y991875D1*
X638374Y992556D1*
X640743Y993029D1*
X643594Y993312D1*
X646803Y993306D1*
X649567Y992992D1*
X651955Y992442D1*
X653199Y992035D1*
G37*
G36*
X703329Y941730D2*
X705080Y950871D1*
X704877D1*
X703004Y947887D1*
X700482Y945391D1*
X697348Y943385D1*
X694202Y941377D1*
X690743Y940360D1*
X686986D1*
X684789D1*
X682768Y940604D1*
X680909Y941092D1*
X679066Y941580D1*
X677465Y942353D1*
X676108Y943425D1*
X674739Y944496D1*
X673680Y945894D1*
X672948Y947602D1*
X672202Y949325D1*
X671822Y951386D1*
Y953787D1*
Y955143D1*
X672080Y957123D1*
X672596Y959714D1*
X679499Y991887D1*
X685630D1*
X678631Y959510D1*
X678441Y958738D1*
X678278Y957911D1*
X678143Y957042D1*
X678007Y956160D1*
X677953Y955306D1*
Y954466D1*
Y952837D1*
X678238Y951454D1*
X678820Y950287D1*
X679404Y949121D1*
X680190Y948172D1*
X681154Y947467D1*
X682130Y946748D1*
X683243Y946232D1*
X684517Y945907D1*
X685778Y945581D1*
X687081Y945419D1*
X688451D1*
X690717D1*
X692873Y945907D1*
X694920Y946883D1*
X696955Y947846D1*
X698840Y949230D1*
X700550Y951007D1*
X702272Y952797D1*
X703777Y954967D1*
X705080Y957530D1*
X706367Y960080D1*
X707371Y962955D1*
X708091Y966130D1*
X713625Y991887D1*
X719755D1*
X708958Y941730D1*
X703329D1*
G37*
G36*
X735312Y991887D2*
X738513Y1007064D1*
X744644D1*
X741429Y991887D1*
X751440D1*
X750476Y986747D1*
X740262D1*
X733360Y954560D1*
X733101Y953394D1*
X732925Y952499D1*
X732831Y951888D1*
X732735Y951264D1*
X732681Y950572D1*
Y949799D1*
Y948891D1*
X732925Y948077D1*
X733413Y947358D1*
X733902Y946652D1*
X734730Y946301D1*
X735895D1*
X738282D1*
X740684Y946490D1*
X743084Y946883D1*
X742013Y941634D1*
X740982Y941499D1*
X739937Y941404D1*
X738907Y941336D1*
X737862Y941268D1*
X736832Y941241D1*
X735787D1*
X734621D1*
X733495Y941323D1*
X732396Y941486D1*
X731283Y941648D1*
X730294Y941987D1*
X729425Y942503D1*
X728545Y943018D1*
X727853Y943751D1*
X727337Y944686D1*
X726822Y945635D1*
X726550Y946843D1*
Y948335D1*
Y948850D1*
X726605Y949570D1*
X726699Y950478D1*
X726794Y951386D1*
X726984Y952390D1*
X727241Y953488D1*
X734146Y986747D1*
X725098D1*
X726265Y991887D1*
X735312D1*
G37*
G36*
X766711D2*
X764759Y982853D1*
X764962D1*
X766459Y984983D1*
X767948Y986760D1*
X769526Y988344D1*
X771197Y989738D1*
X772598Y990715D1*
X773718Y991353D1*
X774911Y991902D1*
X776180Y992362D1*
X777524Y992735D1*
X779433Y993096D1*
X781478Y993301D1*
X784343Y993331D1*
X786634Y993147D1*
X788757Y992773D1*
X790399Y992315D1*
X791924Y991723D1*
X793617Y990866D1*
X794911Y990039D1*
X796102Y989109D1*
X797190Y988077D1*
X798180Y986941D1*
X799063Y985703D1*
X799836Y984369D1*
X800621Y982640D1*
X801248Y980773D1*
X801794Y978451D1*
X802172Y975633D1*
X802287Y972587D1*
X802147Y969647D1*
X801766Y966714D1*
X801143Y963789D1*
X800274Y960874D1*
X799186Y958052D1*
X798114Y955812D1*
X796891Y953673D1*
X795517Y951639D1*
X794000Y949715D1*
X792353Y947938D1*
X790575Y946311D1*
X788665Y944832D1*
X786626Y943500D1*
X784909Y942568D1*
X783121Y941798D1*
X781260Y941193D1*
X779328Y940751D1*
X777325Y940474D1*
X775255Y940362D1*
X772388Y940480D1*
X769584Y940919D1*
X767581Y941465D1*
X765945Y942126D1*
X764438Y942953D1*
X763228Y943818D1*
X762139Y944827D1*
X761169Y945979D1*
X760437Y947079D1*
X759827Y948282D1*
X759266Y949819D1*
X758871Y951500D1*
X758831Y951739D1*
X762304Y952395D1*
D1*
X761699Y953858D1*
X761244Y955438D1*
X760941Y957136D1*
X760780Y959266D1*
X760839Y961940D1*
X761298Y965627D1*
X762331Y969895D1*
X763680Y973591D1*
X765293Y976822D1*
X767244Y979812D1*
X769049Y981957D1*
X771072Y983860D1*
X773316Y985525D1*
X774113Y986013D1*
X775768Y986841D1*
X777507Y987474D1*
X779332Y987909D1*
X781487Y988164D1*
X783730Y988171D1*
X785559Y987983D1*
X786970Y987692D1*
X788278Y987278D1*
X789483Y986740D1*
X790585Y986080D1*
X791392Y985463D1*
X792133Y984768D1*
X792808Y983993D1*
X793698Y982719D1*
X794451Y981357D1*
X795070Y979908D1*
X795618Y978106D1*
X795979Y976184D1*
X796164Y973836D1*
X796092Y971014D1*
X795550Y966933D1*
X794430Y962501D1*
X793064Y958936D1*
X791434Y955811D1*
X789739Y953301D1*
X787938Y951228D1*
X785915Y949394D1*
X783669Y947804D1*
X782055Y946940D1*
X780350Y946269D1*
X778556Y945791D1*
X776430Y945486D1*
X774039Y945430D1*
X771927Y945614D1*
X770255Y945948D1*
X768709Y946441D1*
X767518Y946975D1*
X766416Y947622D1*
X765402Y948379D1*
X764478Y949249D1*
X763650Y950217D1*
X762925Y951265D1*
X762304Y952395D1*
X758831Y951739D1*
X758642D1*
X752505Y923256D1*
X746493D1*
X761161Y991874D1*
X761182Y991887D1*
X766711D1*
G37*
G36*
X840117Y941730D2*
X841866Y950871D1*
X841663D1*
X839791Y947887D1*
X837268Y945391D1*
X834135Y943385D1*
X830988Y941377D1*
X827530Y940360D1*
X823773D1*
X821575D1*
X819554Y940604D1*
X817696Y941092D1*
X815852Y941580D1*
X814251Y942353D1*
X812895Y943425D1*
X811525Y944496D1*
X810467Y945894D1*
X809735Y947602D1*
X808988Y949325D1*
X808609Y951386D1*
Y953787D1*
Y955143D1*
X808866Y957123D1*
X809382Y959714D1*
X816286Y991887D1*
X822416D1*
X815417Y959510D1*
X815227Y958738D1*
X815064Y957911D1*
X814929Y957042D1*
X814794Y956160D1*
X814739Y955306D1*
Y954466D1*
Y952837D1*
X815024Y951454D1*
X815608Y950287D1*
X816190Y949121D1*
X816978Y948172D1*
X817941Y947467D1*
X818917Y946748D1*
X820029Y946232D1*
X821304Y945907D1*
X822566Y945581D1*
X823867Y945419D1*
X825238D1*
X827503D1*
X829659Y945907D1*
X831707Y946883D1*
X833741Y947846D1*
X835627Y949230D1*
X837336Y951007D1*
X839059Y952797D1*
X840564Y954967D1*
X841866Y957530D1*
X843155Y960080D1*
X844159Y962955D1*
X844877Y966130D1*
X850411Y991887D1*
X856542D1*
X845745Y941730D1*
X840117D1*
G37*
G36*
X872098Y991887D2*
X875299Y1007064D1*
X881430D1*
X878217Y991887D1*
X888226D1*
X887262Y986747D1*
X877050D1*
X870146Y954560D1*
X869888Y953394D1*
X869711Y952499D1*
X869617Y951888D1*
X869522Y951264D1*
X869467Y950572D1*
Y949799D1*
Y948891D1*
X869711Y948077D1*
X870199Y947358D1*
X870688Y946652D1*
X871516Y946301D1*
X872682D1*
X875070D1*
X877470Y946490D1*
X879870Y946883D1*
X878799Y941634D1*
X877768Y941499D1*
X876724Y941404D1*
X875693Y941336D1*
X874648Y941268D1*
X873618Y941241D1*
X872573D1*
X871407D1*
X870281Y941323D1*
X869182Y941486D1*
X868071Y941648D1*
X867080Y941987D1*
X866213Y942503D1*
X865331Y943018D1*
X864639Y943751D1*
X864123Y944686D1*
X863608Y945635D1*
X863337Y946843D1*
Y948335D1*
Y948850D1*
X863391Y949570D1*
X863486Y950478D1*
X863581Y951386D1*
X863770Y952390D1*
X864029Y953488D1*
X870932Y986747D1*
X861886D1*
X863052Y991887D1*
X872098D1*
G37*
G36*
X960220Y952377D2*
X959424Y950997D1*
X958542Y949702D1*
X957577Y948490D1*
X956528Y947358D1*
X955394Y946307D1*
X954177Y945340D1*
X952894Y944459D1*
X951085Y943417D1*
X949164Y942526D1*
X947130Y941785D1*
X945016Y941194D1*
X942882Y940761D1*
X940728Y940483D1*
X938551Y940365D1*
X935932Y940428D1*
X933421Y940701D1*
X931476Y941071D1*
X929588Y941573D1*
X927783Y942217D1*
X926083Y942991D1*
X924488Y943896D1*
X922999Y944933D1*
X921966Y945807D1*
X921010Y946766D1*
X920133Y947811D1*
X919333Y948938D1*
X918612Y950151D1*
X917970Y951449D1*
X917434Y952832D1*
X917013Y954302D1*
X916703Y955857D1*
X916509Y957499D1*
X916427Y959224D1*
X916479Y961219D1*
X916694Y963066D1*
X916962Y964396D1*
X917323Y965680D1*
X917949Y967319D1*
X918697Y968860D1*
X919559Y970293D1*
X920533Y971619D1*
X921618Y972844D1*
X922815Y973954D1*
X924119Y974961D1*
X925531Y975861D1*
X927051Y976655D1*
X928654Y977333D1*
X930311Y977883D1*
X932028Y978306D1*
X934409Y978677D1*
X934883Y974749D1*
D1*
X937213Y975150D1*
X939635Y975272D1*
X943299Y975035D1*
X946505Y974416D1*
X948516Y973745D1*
X950163Y972949D1*
X951640Y971970D1*
X952814Y970923D1*
X953833Y969717D1*
X954703Y968353D1*
X955260Y967172D1*
X955684Y965869D1*
X956009Y964231D1*
X956172Y962196D1*
X956096Y959823D1*
X955790Y957812D1*
X955329Y956133D1*
X954689Y954558D1*
X953791Y952927D1*
X952724Y951449D1*
X951490Y950121D1*
X950093Y948946D1*
X948381Y947832D1*
X946497Y946921D1*
X944239Y946155D1*
X941856Y945654D1*
X939350Y945430D1*
X936559Y945499D1*
X933759Y945895D1*
X931301Y946567D1*
X929575Y947295D1*
X928022Y948211D1*
X926772Y949197D1*
X925669Y950337D1*
X924711Y951631D1*
X923816Y953244D1*
X923509Y953946D1*
X923022Y955440D1*
X922677Y957259D1*
X922543Y959226D1*
X922646Y961474D1*
X922970Y963381D1*
X923508Y965177D1*
X924164Y966676D1*
X925175Y968388D1*
X926251Y969777D1*
X927488Y971018D1*
X929043Y972230D1*
X930762Y973245D1*
X932651Y974073D1*
X934883Y974749D1*
X934409Y978677D1*
Y978866D1*
X933318Y979249D1*
X932289Y979698D1*
X931323Y980211D1*
X930419Y980791D1*
X929576Y981436D1*
X928794Y982146D1*
X928073Y982923D1*
X927413Y983765D1*
X926819Y984665D1*
X926299Y985596D1*
X925850Y986551D1*
X925475Y987535D1*
X925172Y988545D1*
X924942Y989580D1*
X924785Y990642D1*
X924701Y991730D1*
Y993319D1*
X924818Y994795D1*
X925045Y996206D1*
X925381Y997555D1*
X925825Y998841D1*
X926379Y1000066D1*
X927264Y1001589D1*
X928009Y1002655D1*
X928828Y1003657D1*
X929720Y1004594D1*
X930685Y1005469D1*
X932068Y1006522D1*
X933554Y1007454D1*
X935142Y1008264D1*
X936833Y1008950D1*
X938612Y1009507D1*
X940423Y1009924D1*
X942266Y1010202D1*
X944144Y1010343D1*
X946950Y1010311D1*
X949681Y1010050D1*
X952346Y1009560D1*
X954064Y1009097D1*
X955693Y1008503D1*
X957234Y1007780D1*
X958685Y1006928D1*
X959710Y1006207D1*
X960663Y1005413D1*
X961539Y1004549D1*
X962341Y1003610D1*
X963067Y1002601D1*
X963719Y1001517D1*
X964105Y1000751D1*
X964588Y999528D1*
X964959Y998218D1*
X965220Y996819D1*
X965371Y995332D1*
X965408Y993424D1*
X965307Y991924D1*
X965083Y990475D1*
X964738Y989077D1*
X964269Y987732D1*
X963686Y986451D1*
X963003Y985243D1*
X962218Y984106D1*
X961098Y982790D1*
X959850Y981600D1*
X958476Y980542D1*
X956972Y979617D1*
X955692Y978972D1*
X954358Y978437D1*
X952615Y977920D1*
X951038Y977604D1*
X950306Y981253D1*
D1*
X948514Y980697D1*
X946630Y980425D1*
X944609D1*
X942804D1*
X941055Y980643D1*
X939360Y981104D1*
X937677Y981551D1*
X936199Y982270D1*
X934938Y983234D1*
X933677Y984210D1*
X932673Y985444D1*
X931927Y986936D1*
X931181Y988428D1*
X930815Y990177D1*
Y992185D1*
Y994260D1*
X931207Y996105D1*
X932022Y997732D1*
X932836Y999346D1*
X933921Y1000703D1*
X935277Y1001815D1*
X936647Y1002913D1*
X938193Y1003755D1*
X939942Y1004337D1*
X941693Y1004921D1*
X943551Y1005206D1*
X945491D1*
X947375D1*
X949152Y1004990D1*
X950835Y1004528D1*
X952516Y1004080D1*
X953995Y1003375D1*
X955256Y1002438D1*
X956530Y1001503D1*
X957508Y1000297D1*
X958226Y998845D1*
X958945Y997379D1*
X959298Y995617D1*
Y993542D1*
Y991412D1*
X958904Y989526D1*
X958131Y987912D1*
X957358Y986285D1*
X956301Y984902D1*
X954971Y983776D1*
X953642Y982636D1*
X952083Y981795D1*
X950306Y981253D1*
X951038Y977604D1*
Y977509D1*
X952349Y977070D1*
X953581Y976551D1*
X954731Y975954D1*
X955799Y975278D1*
X956786Y974524D1*
X957693Y973689D1*
X958516Y972776D1*
X959259Y971782D1*
X959921Y970717D1*
X960505Y969612D1*
X961007Y968474D1*
X961427Y967301D1*
X961764Y966093D1*
X962021Y964852D1*
X962197Y963575D1*
X962291Y962262D1*
X962287Y960367D1*
X962146Y958622D1*
X961869Y956950D1*
X961455Y955352D1*
X961104Y954327D1*
X960693Y953336D1*
X960220Y952377D1*
G37*
G36*
X1181113Y5209003D2*
X393445Y5209021D1*
X392944Y5209177D1*
X392499Y5209490D1*
X392172Y5209923D1*
X392000Y5210413D1*
X391983Y5210953D1*
X392125Y5211458D1*
X392425Y5211911D1*
X392849Y5212249D1*
X393335Y5212436D1*
X393705Y5212475D1*
X1181374Y5212455D1*
X1181874Y5212299D1*
X1182319Y5211987D1*
X1182646Y5211554D1*
X1182819Y5211063D1*
X1182836Y5210524D1*
X1182694Y5210020D1*
X1182394Y5209566D1*
X1181970Y5209227D1*
X1181483Y5209042D1*
X1181113Y5209003D1*
G37*
G36*
Y638954D2*
X393445Y638974D1*
X392944Y639129D1*
X392499Y639438D1*
X392172Y639871D1*
X392000Y640364D1*
X391983Y640907D1*
X392125Y641412D1*
X392425Y641866D1*
X392849Y642203D1*
X393335Y642387D1*
X393705Y642427D1*
X1181374Y642407D1*
X1181874Y642253D1*
X1182319Y641942D1*
X1182646Y641509D1*
X1182819Y641017D1*
X1182836Y640474D1*
X1182694Y639969D1*
X1182394Y639514D1*
X1181970Y639178D1*
X1181483Y638993D1*
X1181113Y638954D1*
G37*
M02*
