G04 DipTrace 4.0.0.5*
G04 BottomSilk.gbr*
%MOIN*%
G04 #@! TF.FileFunction,Legend,Bot*
G04 #@! TF.Part,Single*
%ADD10C,0.009843*%
%ADD13C,0.004724*%
%ADD16C,0.007874*%
%ADD18C,0.005906*%
%ADD22C,0.003937*%
%ADD29C,0.012*%
%ADD30C,0.005*%
%ADD35C,0.00315*%
%ADD66C,0.003281*%
%ADD67C,0.013895*%
%FSLAX26Y26*%
G04*
G70*
G90*
G75*
G01*
G04 BotSilk*
%LPD*%
X1137351Y3159792D2*
D18*
Y3152705D1*
X1175147Y3159793D2*
Y3152706D1*
X2187351Y3153543D2*
Y3146456D1*
X2225147Y3153543D2*
Y3146457D1*
X871457Y2443601D2*
X878543D1*
X871456Y2481396D2*
X878543D1*
X1646457Y2437350D2*
X1653543D1*
X1646456Y2475145D2*
X1653543D1*
X2668897Y3190206D2*
Y3197293D1*
X2631102Y3190205D2*
Y3197292D1*
X2427706Y2612351D2*
X2434793D1*
X2427705Y2650147D2*
X2434792D1*
X3202706Y2443602D2*
X3209793D1*
X3202705Y2481397D2*
X3209792D1*
X2328542Y1206397D2*
X2321456D1*
X2328544Y1168602D2*
X2321457D1*
X3109792Y1206396D2*
X3102705D1*
X3109793Y1168601D2*
X3102706D1*
X1086493Y2137645D2*
X1079407D1*
X1086493Y2099850D2*
X1079407D1*
X1327707Y1599851D2*
X1334794D1*
X1327707Y1637647D2*
X1334794D1*
X1333957Y2087198D2*
X1341043D1*
X1333956Y2124993D2*
X1341043D1*
X1084794Y1637647D2*
X1077707D1*
X1084794Y1599851D2*
X1077707D1*
X793602Y1659792D2*
Y1652705D1*
X831397Y1659793D2*
Y1652706D1*
X1587351Y1672292D2*
X1587352Y1665205D1*
X1625147Y1672293D2*
Y1665206D1*
X1017178Y817180D2*
D10*
X977808Y817178D1*
X997494Y797494D2*
X997492Y836864D1*
X974430Y838075D2*
G02X863074Y838069I-55681J55673D01*
G01*
X863068Y949423D2*
G02X974424Y949429I55681J-55673D01*
G01*
X1017176Y604675D2*
X977806Y604674D1*
X997491Y584989D2*
X997490Y624359D1*
X974429Y625571D2*
G02X863073Y625569I-55679J55675D01*
G01*
X863070Y736923D2*
G02X974426Y736926I55679J-55675D01*
G01*
X900147Y1196456D2*
D18*
Y1203543D1*
X862351Y1196456D2*
Y1203543D1*
Y534792D2*
Y527706D1*
X900147Y534792D2*
Y527706D1*
X3329775Y1706068D2*
Y1698981D1*
X3367571Y1706068D2*
Y1698982D1*
X3386025Y1706068D2*
Y1698981D1*
X3423820Y1706068D2*
Y1698982D1*
X3406862Y2087370D2*
X3410406Y2081233D1*
X3439594Y2106268D2*
X3443137Y2100131D1*
X3456861Y2112370D2*
X3460404Y2106233D1*
X3489593Y2131268D2*
X3493136Y2125131D1*
X2238000Y650076D2*
Y642989D1*
X2275795Y650076D2*
Y642989D1*
X3464878Y1706068D2*
Y1698981D1*
X3502673Y1706068D2*
Y1698981D1*
X3521127Y1706068D2*
Y1698981D1*
X3558922Y1706068D2*
Y1698981D1*
X1529677Y817179D2*
D10*
X1490307Y817177D1*
X1509993Y797493D2*
X1509991Y836863D1*
X1486929Y838075D2*
G02X1375574Y838070I-55680J55674D01*
G01*
X1375569Y949424D2*
G02X1486925Y949429I55680J-55674D01*
G01*
X1529677Y604677D2*
X1490307Y604676D1*
X1509993Y584992D2*
X1509991Y624362D1*
X1486929Y625573D2*
G02X1375574Y625569I-55680J55674D01*
G01*
X1375569Y736923D2*
G02X1486925Y736928I55680J-55674D01*
G01*
X1425147Y1196456D2*
D18*
Y1203543D1*
X1387351Y1196456D2*
Y1203543D1*
Y534792D2*
Y527706D1*
X1425147Y534792D2*
Y527706D1*
X1215206Y2293602D2*
X1222292D1*
X1215206Y2331397D2*
X1222292D1*
X2042183Y823433D2*
D10*
X2002813Y823429D1*
X2022499Y803746D2*
X2022496Y843116D1*
X1999434Y844327D2*
G02X1888078Y844317I-55683J55671D01*
G01*
X1888069Y955672D2*
G02X1999425Y955681I55683J-55671D01*
G01*
X2042178Y604678D2*
X2002808Y604676D1*
X2022494Y584992D2*
X2022492Y624362D1*
X1999430Y625574D2*
G02X1888074Y625568I-55681J55673D01*
G01*
X1888068Y736922D2*
G02X1999424Y736928I55681J-55673D01*
G01*
X3042106Y2059130D2*
D18*
X3047117Y2064141D1*
X3015381Y2085856D2*
X3020392Y2090867D1*
X3077881Y1601642D2*
X3082892Y1596631D1*
X3104606Y1628368D2*
X3109617Y1623357D1*
X3023357Y2121632D2*
X3028368Y2126643D1*
X2996632Y2148357D2*
X3001643Y2153368D1*
X3121632Y1645392D2*
X3126643Y1640381D1*
X3148357Y1672117D2*
X3153368Y1667106D1*
X2372119Y1998357D2*
X2367108Y2003368D1*
X2345393Y1971632D2*
X2340382Y1976643D1*
X2357892Y1615868D2*
X2352881Y1610857D1*
X2384617Y1589143D2*
X2379606Y1584132D1*
X2322292Y1925147D2*
X2315206D1*
X2322292Y1887351D2*
X2315206D1*
X2314141Y1659616D2*
X2309130Y1654605D1*
X2340867Y1632891D2*
X2335856Y1627880D1*
X1962647Y1196456D2*
Y1203543D1*
X1924851Y1196456D2*
Y1203543D1*
X1899851Y534792D2*
Y527706D1*
X1937647Y534792D2*
Y527706D1*
X2642107Y2134132D2*
X2647117Y2139143D1*
X2615381Y2160856D2*
X2620392Y2165868D1*
X2415868Y2035857D2*
X2410857Y2040868D1*
X2389143Y2009132D2*
X2384132Y2014143D1*
X2481206Y2106404D2*
X2443901Y2143707D1*
X2431099Y2056292D2*
X2393793Y2093595D1*
X2621011Y1476020D2*
X2626022Y1471009D1*
X2647736Y1502746D2*
X2652747Y1497735D1*
X2758956Y3774851D2*
X2766043D1*
X2758956Y3812647D2*
X2766043D1*
X2322292Y3807050D2*
X2315206D1*
X2322292Y3769254D2*
X2315206D1*
X1412351Y1778543D2*
Y1771456D1*
X1450147Y1778543D2*
Y1771457D1*
X1306397Y4240206D2*
Y4247293D1*
X1268602Y4240205D2*
Y4247292D1*
X898048Y2691042D2*
Y2683955D1*
X935844Y2691042D2*
Y2683955D1*
X1025148Y1852706D2*
Y1859793D1*
X987353Y1852705D2*
Y1859792D1*
X1731397Y4108956D2*
Y4116043D1*
X1693602Y4108956D2*
Y4116043D1*
X1244290Y2465057D2*
D13*
X1284841D1*
Y2409939D1*
X1205707Y2465057D2*
X1165156D1*
Y2409939D1*
G36*
X1279329Y2383168D2*
X1279413Y2384452D1*
X1279664Y2385715D1*
X1280078Y2386934D1*
X1280648Y2388089D1*
X1281363Y2389159D1*
X1282212Y2390127D1*
X1283180Y2390976D1*
X1284250Y2391692D1*
X1285405Y2392261D1*
X1286624Y2392675D1*
X1287887Y2392926D1*
X1289172Y2393010D1*
X1290456Y2392926D1*
X1291719Y2392675D1*
X1292938Y2392261D1*
X1294093Y2391692D1*
X1295163Y2390976D1*
X1296131Y2390127D1*
X1296980Y2389159D1*
X1297695Y2388089D1*
X1298265Y2386934D1*
X1298679Y2385715D1*
X1298930Y2384452D1*
X1299014Y2383168D1*
D1*
X1298930Y2381883D1*
X1298679Y2380620D1*
X1298265Y2379401D1*
X1297695Y2378246D1*
X1296980Y2377176D1*
X1296131Y2376208D1*
X1295163Y2375359D1*
X1294093Y2374644D1*
X1292938Y2374074D1*
X1291719Y2373661D1*
X1290456Y2373409D1*
X1289172Y2373325D1*
X1287887Y2373409D1*
X1286624Y2373661D1*
X1285405Y2374074D1*
X1284250Y2374644D1*
X1283180Y2375359D1*
X1282212Y2376208D1*
X1281363Y2377176D1*
X1280648Y2378246D1*
X1280078Y2379401D1*
X1279664Y2380620D1*
X1279413Y2381883D1*
X1279329Y2383168D1*
D1*
G37*
X2176279Y2662488D2*
D10*
X2176285Y2362514D1*
G36*
X2207361Y2597545D2*
X2205563Y2597662D1*
X2203796Y2598014D1*
X2202090Y2598593D1*
X2200474Y2599390D1*
X2198976Y2600391D1*
X2197622Y2601579D1*
X2196434Y2602933D1*
X2195433Y2604431D1*
X2194636Y2606047D1*
X2194057Y2607753D1*
X2193705Y2609520D1*
X2193587Y2611318D1*
X2193705Y2613116D1*
X2194056Y2614883D1*
X2194635Y2616589D1*
X2195432Y2618205D1*
X2196433Y2619703D1*
X2197621Y2621058D1*
X2198976Y2622246D1*
X2200474Y2623246D1*
X2202090Y2624043D1*
X2203796Y2624623D1*
X2205563Y2624974D1*
X2207360Y2625092D1*
X2207385D1*
X2209183Y2624974D1*
X2210950Y2624623D1*
X2212656Y2624044D1*
X2214272Y2623247D1*
X2215770Y2622246D1*
X2217125Y2621058D1*
X2218313Y2619703D1*
X2219314Y2618205D1*
X2220111Y2616589D1*
X2220690Y2614883D1*
X2221041Y2613116D1*
X2221159Y2611319D1*
X2221042Y2609521D1*
X2220690Y2607754D1*
X2220111Y2606048D1*
X2219314Y2604432D1*
X2218313Y2602934D1*
X2217125Y2601579D1*
X2215771Y2600391D1*
X2214273Y2599390D1*
X2212657Y2598593D1*
X2210951Y2598014D1*
X2209184Y2597663D1*
X2207386Y2597545D1*
X2207361D1*
G37*
X1912489Y2712693D2*
D10*
X1912492Y2556178D1*
X1912489Y2712693D2*
X2112499Y2712696D1*
X2176279Y2662488D2*
X2112500Y2662487D1*
X2176285Y2362514D2*
X2112505Y2362513D1*
X1912497Y2312299D2*
X1912494Y2468814D1*
X1912497Y2312299D2*
X2112506Y2312303D1*
X2112505Y2362513D2*
X2112506Y2312303D1*
X2112499Y2712696D2*
X2112500Y2662487D1*
X2756307Y2077716D2*
D16*
X2497282Y1818675D1*
X2756191Y1559782D1*
X3015216Y1818823D1*
X2756307Y2077716D1*
X2799749Y2118014D2*
D10*
G02X2799749Y2118014I4927J0D01*
G01*
X3319987Y1959647D2*
D16*
X3365223Y1881295D1*
X3467510Y1940350D1*
X3422274Y2018702D1*
X3319987Y1959647D1*
X3285499Y2019382D2*
X3313078Y1971614D1*
X1868749Y4407477D2*
D22*
Y4042521D1*
X2968749D2*
Y4407477D1*
X2768318Y3969880D2*
D16*
X2768780D1*
G03X2768780Y3973819I0J1969D01*
G01*
X2768318D1*
G03X2768318Y3969880I0J-1969D01*
G01*
X1020127Y2691140D2*
D18*
Y2658857D1*
X1067371Y2691140D2*
Y2658857D1*
X2290107Y1813878D2*
X2322391D1*
X2290107Y1861122D2*
X2322391D1*
X1882627Y3772390D2*
Y3740107D1*
X1929871Y3772391D2*
Y3740108D1*
X793749Y2799998D2*
D29*
X3193749D1*
Y3499998D2*
X793749D1*
X2283749Y3399998D2*
X1803749D1*
G03X1793749Y3389998I1J-10001D01*
G01*
Y2909998D1*
G03X1803749Y2899998I10001J1D01*
G01*
X2283749D1*
G03X2293749Y2909998I-1J10001D01*
G01*
Y3389998D1*
G03X2283749Y3399998I-10001J-1D01*
G01*
X3193749Y2799998D2*
Y3499998D1*
X943749Y2999998D2*
X868749D1*
X818749D1*
X793749D1*
X743749D1*
Y3299998D1*
X793749D1*
X818749D1*
X868749D1*
X943749D1*
Y3274998D1*
Y3237498D1*
Y3224998D1*
Y3199998D1*
Y3174998D1*
Y3149998D1*
Y3124998D1*
Y3099998D1*
Y3074998D1*
Y3062498D1*
Y3024998D1*
Y2999998D1*
X793749Y2799998D2*
Y2999998D1*
Y3499998D2*
Y3299998D1*
X943749Y3149998D2*
D30*
X993749D1*
X943749Y3124998D2*
X993749D1*
X943749Y3099998D2*
X993749D1*
X943749Y3174998D2*
X993749D1*
X943749Y3199998D2*
X993749D1*
X943749Y3074998D2*
X993749D1*
Y3024998D1*
X943749D1*
Y3224998D2*
X993749D1*
Y3274998D1*
X943749D1*
X818749Y2999998D2*
Y2949998D1*
X868749D1*
Y2999998D1*
X818749Y3299998D2*
Y3349998D1*
X868749D1*
Y3299998D1*
X768749Y3024998D2*
X831249D1*
G03X843749Y3037498I-1J12501D01*
G01*
Y3062498D1*
G03X831249Y3074998I-12501J-1D01*
G01*
X768749D1*
Y3274998D2*
X831249D1*
G02X843749Y3262498I-1J-12501D01*
G01*
Y3237498D1*
G02X831249Y3224998I-12501J1D01*
G01*
X768749D1*
Y3024998D2*
Y3074998D1*
Y3224998D2*
Y3274998D1*
X943749Y3099998D2*
X893749D1*
Y3024998D1*
X912059D1*
G03X922460Y3030565I1J12499D01*
G01*
X943749Y3062498D1*
Y3199998D2*
X893749D1*
Y3274998D1*
X912059D1*
G02X922460Y3269431I1J-12499D01*
G01*
X943749Y3237498D1*
X1204483Y2010798D2*
D18*
Y2026546D1*
X1166687Y2010798D2*
Y2026546D1*
X3336958Y4322439D2*
D13*
X3296407D1*
Y4377557D1*
X3375540Y4322439D2*
X3416092D1*
Y4377557D1*
G36*
X3301918Y4404329D2*
X3301834Y4403044D1*
X3301583Y4401782D1*
X3301169Y4400563D1*
X3300600Y4399408D1*
X3299884Y4398337D1*
X3299036Y4397369D1*
X3298068Y4396521D1*
X3296997Y4395805D1*
X3295842Y4395236D1*
X3294623Y4394822D1*
X3293361Y4394571D1*
X3292076Y4394487D1*
X3290791Y4394571D1*
X3289528Y4394822D1*
X3288309Y4395236D1*
X3287155Y4395805D1*
X3286084Y4396521D1*
X3285116Y4397369D1*
X3284267Y4398337D1*
X3283552Y4399408D1*
X3282983Y4400563D1*
X3282569Y4401782D1*
X3282318Y4403044D1*
X3282233Y4404329D1*
D1*
X3282318Y4405614D1*
X3282569Y4406877D1*
X3282983Y4408096D1*
X3283552Y4409250D1*
X3284267Y4410321D1*
X3285116Y4411289D1*
X3286084Y4412138D1*
X3287155Y4412853D1*
X3288309Y4413422D1*
X3289528Y4413836D1*
X3290791Y4414087D1*
X3292076Y4414172D1*
X3293361Y4414087D1*
X3294623Y4413836D1*
X3295842Y4413422D1*
X3296997Y4412853D1*
X3298068Y4412138D1*
X3299036Y4411289D1*
X3299884Y4410321D1*
X3300600Y4409250D1*
X3301169Y4408096D1*
X3301583Y4406877D1*
X3301834Y4405614D1*
X3301918Y4404329D1*
D1*
G37*
X3336958Y3953690D2*
D13*
X3296407D1*
Y4008808D1*
X3375540Y3953690D2*
X3416092D1*
Y4008808D1*
G36*
X3301918Y4035580D2*
X3301834Y4034295D1*
X3301583Y4033032D1*
X3301169Y4031813D1*
X3300600Y4030658D1*
X3299884Y4029588D1*
X3299036Y4028620D1*
X3298068Y4027771D1*
X3296997Y4027056D1*
X3295842Y4026486D1*
X3294623Y4026073D1*
X3293361Y4025821D1*
X3292076Y4025737D1*
X3290791Y4025821D1*
X3289528Y4026073D1*
X3288309Y4026486D1*
X3287155Y4027056D1*
X3286084Y4027771D1*
X3285116Y4028620D1*
X3284267Y4029588D1*
X3283552Y4030658D1*
X3282983Y4031813D1*
X3282569Y4033032D1*
X3282318Y4034295D1*
X3282233Y4035580D1*
D1*
X3282318Y4036864D1*
X3282569Y4038127D1*
X3282983Y4039346D1*
X3283552Y4040501D1*
X3284267Y4041572D1*
X3285116Y4042539D1*
X3286084Y4043388D1*
X3287155Y4044104D1*
X3288309Y4044673D1*
X3289528Y4045087D1*
X3290791Y4045338D1*
X3292076Y4045422D1*
X3293361Y4045338D1*
X3294623Y4045087D1*
X3295842Y4044673D1*
X3296997Y4044104D1*
X3298068Y4043388D1*
X3299036Y4042539D1*
X3299884Y4041572D1*
X3300600Y4040501D1*
X3301169Y4039346D1*
X3301583Y4038127D1*
X3301834Y4036864D1*
X3301918Y4035580D1*
D1*
G37*
X1395372Y4412647D2*
D18*
X1379624D1*
X1395372Y4374851D2*
X1379624D1*
X1532872Y4412647D2*
X1517124D1*
X1532872Y4374851D2*
X1517124D1*
X1798375Y3699851D2*
X1814123D1*
X1798375Y3737647D2*
X1814123D1*
X1660875Y3699851D2*
X1676623D1*
X1660875Y3737647D2*
X1676623D1*
X1699851Y4326623D2*
X1699852Y4310875D1*
X1737647Y4326623D2*
Y4310875D1*
X1800147D2*
Y4326623D1*
X1762351Y4310875D2*
Y4326623D1*
X1090824Y2068896D2*
X1075076D1*
X1090824Y2031101D2*
X1075076D1*
X1323376Y1531101D2*
X1339124D1*
X1323376Y1568896D2*
X1339124D1*
X2310875Y3699851D2*
X2326623D1*
X2310875Y3737647D2*
X2326623D1*
X1326622Y2193744D2*
X1310874D1*
X1326622Y2155949D2*
X1310874D1*
X1198376Y1531101D2*
X1214124D1*
X1198376Y1568896D2*
X1214124D1*
X1130025Y2223446D2*
X1114277D1*
X1130025Y2185651D2*
X1114277D1*
X2262679Y1614044D2*
X2251544Y1625179D1*
X2235954Y1587319D2*
X2224819Y1598454D1*
X2185875Y3699851D2*
X2201623D1*
X2185875Y3737647D2*
X2201623D1*
X1667124Y3949851D2*
X1682872D1*
X1667124Y3987647D2*
X1682872D1*
X1329626Y2024698D2*
X1345374D1*
X1329626Y2062493D2*
X1345374D1*
X1089124Y1568896D2*
X1073376D1*
X1089124Y1531101D2*
X1073376D1*
X1682872Y3906397D2*
X1667124D1*
X1682872Y3868602D2*
X1667124D1*
X1457874Y1925147D2*
X1442126D1*
X1457874Y1887351D2*
X1442126D1*
X1214124Y1637647D2*
X1198376D1*
X1214124Y1599851D2*
X1198376D1*
X1189904Y2159020D2*
Y2143272D1*
X1227699Y2159021D2*
Y2143273D1*
X2817126Y3699851D2*
X2832874D1*
X2817126Y3737647D2*
X2832874D1*
X1073377Y1462350D2*
X1089125D1*
X1073376Y1500145D2*
X1089124Y1500146D1*
X2685875Y3699851D2*
X2701623D1*
X2685875Y3737647D2*
X2701623D1*
X1229626Y3949851D2*
X1245374D1*
X1229626Y3987647D2*
X1245374D1*
Y3906397D2*
X1229626D1*
X1245374Y3868602D2*
X1229626D1*
X1124851Y2995372D2*
X1124852Y2979624D1*
X1162647Y2995373D2*
Y2979625D1*
X2806101Y3226624D2*
Y3210876D1*
X2843896Y3226625D2*
Y3210877D1*
X1324851Y2989124D2*
X1324852Y2973376D1*
X1362647Y2989125D2*
Y2973377D1*
X2881102Y3226624D2*
Y3210876D1*
X2918897Y3226625D2*
Y3210877D1*
X1662647Y3267126D2*
Y3282874D1*
X1624851Y3267126D2*
Y3282874D1*
X1424851Y2989123D2*
X1424852Y2973375D1*
X1462647Y2989123D2*
Y2973375D1*
X1762647Y3267126D2*
Y3282874D1*
X1724851Y3267126D2*
Y3282874D1*
X3256399Y4360875D2*
Y4376623D1*
X3218603Y4360875D2*
Y4376623D1*
X3256399Y3992126D2*
Y4007874D1*
X3218603Y3992126D2*
Y4007874D1*
X724851Y1207873D2*
X724852Y1192125D1*
X762647Y1207874D2*
Y1192126D1*
Y523376D2*
X762646Y539124D1*
X724852Y523375D2*
X724851Y539123D1*
X793602Y1207873D2*
Y1192125D1*
X831397Y1207874D2*
Y1192126D1*
X831398Y523376D2*
X831397Y539124D1*
X793602Y523375D2*
Y539123D1*
X2956102Y3226622D2*
Y3210874D1*
X2993897Y3226624D2*
X2993898Y3210876D1*
X2793897Y2692124D2*
Y2707872D1*
X2756102Y2692124D2*
Y2707872D1*
X3268574Y1926921D2*
X3260700Y1940559D1*
X3235843Y1908023D2*
X3227969Y1921661D1*
X2868897Y2692124D2*
Y2707872D1*
X2831102Y2692124D2*
Y2707872D1*
X2943898Y2692125D2*
X2943897Y2707873D1*
X2906102Y2692124D2*
Y2707872D1*
X1137647Y2385875D2*
Y2401623D1*
X1099851Y2385875D2*
Y2401623D1*
X1639123Y2737647D2*
X1623375D1*
X1639123Y2699851D2*
X1623375D1*
X1249851Y1207873D2*
X1249852Y1192125D1*
X1287647Y1207874D2*
Y1192126D1*
Y523376D2*
X1287646Y539124D1*
X1249852Y523375D2*
X1249851Y539123D1*
X1498375Y2699851D2*
X1514123Y2699852D1*
X1498375Y2737647D2*
X1514123D1*
X1318602Y1207873D2*
Y1192125D1*
X1356397Y1207874D2*
Y1192126D1*
X1356398Y523376D2*
X1356397Y539124D1*
X1318602Y523375D2*
Y539123D1*
X1756101Y1207873D2*
Y1192125D1*
X1793896Y1207874D2*
Y1192126D1*
X1800147Y523376D2*
X1800146Y539124D1*
X1762352Y523375D2*
X1762351Y539123D1*
X1856102Y1207873D2*
Y1192125D1*
X1893897Y1207874D2*
Y1192126D1*
X1868898Y523376D2*
X1868897Y539124D1*
X1831102Y523375D2*
Y539123D1*
X1336564Y4108758D2*
D13*
X1333808D1*
Y4266239D1*
X1336564D1*
X1675934Y4108758D2*
X1678690D1*
Y4266239D1*
X1675934D1*
G36*
X1338926Y4314270D2*
X1338842Y4312985D1*
X1338591Y4311723D1*
X1338177Y4310503D1*
X1337608Y4309349D1*
X1336892Y4308278D1*
X1336043Y4307310D1*
X1335075Y4306461D1*
X1334005Y4305746D1*
X1332850Y4305177D1*
X1331631Y4304763D1*
X1330368Y4304512D1*
X1329084Y4304428D1*
X1327799Y4304512D1*
X1326536Y4304763D1*
X1325317Y4305177D1*
X1324162Y4305746D1*
X1323092Y4306461D1*
X1322124Y4307310D1*
X1321275Y4308278D1*
X1320560Y4309349D1*
X1319990Y4310503D1*
X1319577Y4311723D1*
X1319325Y4312985D1*
X1319241Y4314270D1*
D1*
X1319325Y4315555D1*
X1319577Y4316817D1*
X1319990Y4318037D1*
X1320560Y4319191D1*
X1321275Y4320262D1*
X1322124Y4321230D1*
X1323092Y4322079D1*
X1324162Y4322794D1*
X1325317Y4323363D1*
X1326536Y4323777D1*
X1327799Y4324028D1*
X1329084Y4324113D1*
X1330368Y4324028D1*
X1331631Y4323777D1*
X1332850Y4323363D1*
X1334005Y4322794D1*
X1335075Y4322079D1*
X1336043Y4321230D1*
X1336892Y4320262D1*
X1337608Y4319191D1*
X1338177Y4318037D1*
X1338591Y4316817D1*
X1338842Y4315555D1*
X1338926Y4314270D1*
D1*
G37*
X1382185Y1891239D2*
D13*
X1384941D1*
Y1733758D1*
X1382185D1*
X1042815Y1891239D2*
X1040059D1*
Y1733758D1*
X1042815D1*
G36*
X1379823Y1685727D2*
X1379907Y1687011D1*
X1380158Y1688274D1*
X1380572Y1689493D1*
X1381141Y1690648D1*
X1381856Y1691718D1*
X1382705Y1692686D1*
X1383673Y1693535D1*
X1384744Y1694251D1*
X1385898Y1694820D1*
X1387118Y1695234D1*
X1388380Y1695485D1*
X1389665Y1695569D1*
X1390950Y1695485D1*
X1392212Y1695234D1*
X1393432Y1694820D1*
X1394586Y1694251D1*
X1395657Y1693535D1*
X1396625Y1692686D1*
X1397474Y1691718D1*
X1398189Y1690648D1*
X1398758Y1689493D1*
X1399172Y1688274D1*
X1399423Y1687011D1*
X1399508Y1685727D1*
D1*
X1399423Y1684442D1*
X1399172Y1683179D1*
X1398758Y1681960D1*
X1398189Y1680805D1*
X1397474Y1679735D1*
X1396625Y1678767D1*
X1395657Y1677918D1*
X1394586Y1677203D1*
X1393432Y1676633D1*
X1392212Y1676220D1*
X1390950Y1675968D1*
X1389665Y1675884D1*
X1388380Y1675968D1*
X1387118Y1676220D1*
X1385898Y1676633D1*
X1384744Y1677203D1*
X1383673Y1677918D1*
X1382705Y1678767D1*
X1381856Y1679735D1*
X1381141Y1680805D1*
X1380572Y1681960D1*
X1380158Y1683179D1*
X1379907Y1684442D1*
X1379823Y1685727D1*
D1*
G37*
G36*
X587498Y1237498D2*
X587445Y1236682D1*
X587285Y1235880D1*
X587023Y1235106D1*
X586661Y1234373D1*
X586207Y1233693D1*
X585668Y1233079D1*
X585053Y1232540D1*
X584374Y1232085D1*
X583640Y1231724D1*
X582866Y1231461D1*
X582064Y1231301D1*
X581249Y1231248D1*
X580433Y1231301D1*
X579631Y1231461D1*
X578857Y1231724D1*
X578124Y1232085D1*
X577444Y1232539D1*
X576829Y1233078D1*
X576290Y1233693D1*
X575836Y1234373D1*
X575474Y1235106D1*
X575211Y1235880D1*
X575052Y1236682D1*
X574998Y1237498D1*
D1*
X575052Y1238314D1*
X575211Y1239115D1*
X575474Y1239890D1*
X575836Y1240623D1*
X576290Y1241303D1*
X576829Y1241917D1*
X577444Y1242456D1*
X578123Y1242910D1*
X578856Y1243272D1*
X579631Y1243535D1*
X580432Y1243694D1*
X581248Y1243748D1*
X582064Y1243694D1*
X582866Y1243535D1*
X583640Y1243272D1*
X584373Y1242911D1*
X585053Y1242456D1*
X585668Y1241917D1*
X586207Y1241303D1*
X586661Y1240623D1*
X587023Y1239890D1*
X587285Y1239116D1*
X587445Y1238314D1*
X587498Y1237498D1*
D1*
G37*
X606249Y1256248D2*
D35*
X681249Y1256250D1*
X606249Y1218747D2*
X681249Y1218749D1*
G36*
X587498Y506250D2*
X587445Y505434D1*
X587285Y504632D1*
X587023Y503858D1*
X586661Y503125D1*
X586207Y502445D1*
X585668Y501830D1*
X585053Y501291D1*
X584373Y500837D1*
X583640Y500475D1*
X582866Y500213D1*
X582064Y500053D1*
X581248Y500000D1*
X580433Y500053D1*
X579631Y500213D1*
X578857Y500475D1*
X578123Y500837D1*
X577444Y501291D1*
X576829Y501830D1*
X576290Y502445D1*
X575836Y503125D1*
X575474Y503858D1*
X575211Y504632D1*
X575052Y505434D1*
X574998Y506250D1*
D1*
X575052Y507065D1*
X575211Y507867D1*
X575474Y508641D1*
X575836Y509375D1*
X576290Y510054D1*
X576829Y510669D1*
X577444Y511208D1*
X578123Y511662D1*
X578857Y512024D1*
X579631Y512287D1*
X580433Y512446D1*
X581248Y512500D1*
X582064Y512446D1*
X582866Y512287D1*
X583640Y512024D1*
X584373Y511662D1*
X585053Y511208D1*
X585668Y510669D1*
X586207Y510054D1*
X586661Y509375D1*
X587023Y508641D1*
X587285Y507867D1*
X587445Y507065D1*
X587498Y506250D1*
D1*
G37*
X606249Y525000D2*
D35*
X681249D1*
X606249Y487498D2*
X681249D1*
G36*
X1112498Y1237498D2*
X1112445Y1236682D1*
X1112285Y1235880D1*
X1112023Y1235106D1*
X1111661Y1234373D1*
X1111207Y1233693D1*
X1110668Y1233079D1*
X1110053Y1232540D1*
X1109374Y1232085D1*
X1108640Y1231724D1*
X1107866Y1231461D1*
X1107064Y1231301D1*
X1106249Y1231248D1*
X1105433Y1231301D1*
X1104631Y1231461D1*
X1103857Y1231724D1*
X1103124Y1232085D1*
X1102444Y1232539D1*
X1101829Y1233078D1*
X1101290Y1233693D1*
X1100836Y1234373D1*
X1100474Y1235106D1*
X1100211Y1235880D1*
X1100052Y1236682D1*
X1099998Y1237498D1*
D1*
X1100052Y1238314D1*
X1100211Y1239115D1*
X1100474Y1239890D1*
X1100836Y1240623D1*
X1101290Y1241303D1*
X1101829Y1241917D1*
X1102444Y1242456D1*
X1103123Y1242910D1*
X1103856Y1243272D1*
X1104631Y1243535D1*
X1105432Y1243694D1*
X1106248Y1243748D1*
X1107064Y1243694D1*
X1107866Y1243535D1*
X1108640Y1243272D1*
X1109373Y1242911D1*
X1110053Y1242456D1*
X1110668Y1241917D1*
X1111207Y1241303D1*
X1111661Y1240623D1*
X1112023Y1239890D1*
X1112285Y1239116D1*
X1112445Y1238314D1*
X1112498Y1237498D1*
D1*
G37*
X1131249Y1256248D2*
D35*
X1206249Y1256250D1*
X1131249Y1218747D2*
X1206249Y1218749D1*
G36*
X1112498Y506250D2*
X1112445Y505434D1*
X1112285Y504632D1*
X1112023Y503858D1*
X1111661Y503125D1*
X1111207Y502445D1*
X1110668Y501830D1*
X1110053Y501291D1*
X1109373Y500837D1*
X1108640Y500475D1*
X1107866Y500213D1*
X1107064Y500053D1*
X1106248Y500000D1*
X1105433Y500053D1*
X1104631Y500213D1*
X1103857Y500475D1*
X1103123Y500837D1*
X1102444Y501291D1*
X1101829Y501830D1*
X1101290Y502445D1*
X1100836Y503125D1*
X1100474Y503858D1*
X1100211Y504632D1*
X1100052Y505434D1*
X1099998Y506250D1*
D1*
X1100052Y507065D1*
X1100211Y507867D1*
X1100474Y508641D1*
X1100836Y509375D1*
X1101290Y510054D1*
X1101829Y510669D1*
X1102444Y511208D1*
X1103123Y511662D1*
X1103857Y512024D1*
X1104631Y512287D1*
X1105433Y512446D1*
X1106248Y512500D1*
X1107064Y512446D1*
X1107866Y512287D1*
X1108640Y512024D1*
X1109373Y511662D1*
X1110053Y511208D1*
X1110668Y510669D1*
X1111207Y510054D1*
X1111661Y509375D1*
X1112023Y508641D1*
X1112285Y507867D1*
X1112445Y507065D1*
X1112498Y506250D1*
D1*
G37*
X1131249Y525000D2*
D35*
X1206249D1*
X1131249Y487498D2*
X1206249D1*
G36*
X1620025Y1237498D2*
X1619971Y1236682D1*
X1619812Y1235880D1*
X1619549Y1235106D1*
X1619187Y1234373D1*
X1618733Y1233693D1*
X1618194Y1233079D1*
X1617580Y1232540D1*
X1616900Y1232085D1*
X1616167Y1231724D1*
X1615392Y1231461D1*
X1614591Y1231301D1*
X1613775Y1231248D1*
X1612959Y1231301D1*
X1612157Y1231461D1*
X1611383Y1231724D1*
X1610650Y1232085D1*
X1609970Y1232539D1*
X1609355Y1233078D1*
X1608816Y1233693D1*
X1608362Y1234373D1*
X1608000Y1235106D1*
X1607738Y1235880D1*
X1607578Y1236682D1*
X1607525Y1237498D1*
D1*
X1607578Y1238314D1*
X1607738Y1239115D1*
X1608000Y1239890D1*
X1608362Y1240623D1*
X1608816Y1241303D1*
X1609355Y1241917D1*
X1609970Y1242456D1*
X1610650Y1242910D1*
X1611383Y1243272D1*
X1612157Y1243535D1*
X1612959Y1243694D1*
X1613774Y1243748D1*
X1614590Y1243694D1*
X1615392Y1243535D1*
X1616166Y1243272D1*
X1616900Y1242911D1*
X1617579Y1242456D1*
X1618194Y1241917D1*
X1618733Y1241303D1*
X1619187Y1240623D1*
X1619549Y1239890D1*
X1619812Y1239116D1*
X1619971Y1238314D1*
X1620025Y1237498D1*
D1*
G37*
X1638775Y1256248D2*
D35*
X1713775Y1256250D1*
X1638776Y1218747D2*
X1713776Y1218749D1*
G36*
X1624998Y506250D2*
X1624945Y505434D1*
X1624785Y504632D1*
X1624523Y503858D1*
X1624161Y503125D1*
X1623707Y502445D1*
X1623168Y501830D1*
X1622553Y501291D1*
X1621873Y500837D1*
X1621140Y500475D1*
X1620366Y500213D1*
X1619564Y500053D1*
X1618748Y500000D1*
X1617933Y500053D1*
X1617131Y500213D1*
X1616357Y500475D1*
X1615623Y500837D1*
X1614944Y501291D1*
X1614329Y501830D1*
X1613790Y502445D1*
X1613336Y503125D1*
X1612974Y503858D1*
X1612711Y504632D1*
X1612552Y505434D1*
X1612498Y506250D1*
D1*
X1612552Y507065D1*
X1612711Y507867D1*
X1612974Y508641D1*
X1613336Y509375D1*
X1613790Y510054D1*
X1614329Y510669D1*
X1614944Y511208D1*
X1615623Y511662D1*
X1616357Y512024D1*
X1617131Y512287D1*
X1617933Y512446D1*
X1618748Y512500D1*
X1619564Y512446D1*
X1620366Y512287D1*
X1621140Y512024D1*
X1621873Y511662D1*
X1622553Y511208D1*
X1623168Y510669D1*
X1623707Y510054D1*
X1624161Y509375D1*
X1624523Y508641D1*
X1624785Y507867D1*
X1624945Y507065D1*
X1624998Y506250D1*
D1*
G37*
X1643749Y525000D2*
D35*
X1718749D1*
X1643749Y487498D2*
X1718749D1*
X2846310Y2202657D2*
D13*
X2791192Y2202655D1*
X2846306Y2322342D2*
X2791187Y2322340D1*
G36*
X2762452Y2207378D2*
X2763737Y2207294D1*
X2764999Y2207043D1*
X2766219Y2206629D1*
X2767373Y2206060D1*
X2768444Y2205344D1*
X2769412Y2204495D1*
X2770261Y2203528D1*
X2770976Y2202457D1*
X2771545Y2201302D1*
X2771959Y2200083D1*
X2772211Y2198821D1*
X2772295Y2197536D1*
X2772211Y2196251D1*
X2771960Y2194988D1*
X2771546Y2193769D1*
X2770976Y2192615D1*
X2770261Y2191544D1*
X2769412Y2190576D1*
X2768444Y2189727D1*
X2767374Y2189012D1*
X2766219Y2188442D1*
X2765000Y2188028D1*
X2763737Y2187777D1*
X2762453Y2187693D1*
D1*
X2761168Y2187777D1*
X2759905Y2188028D1*
X2758686Y2188442D1*
X2757531Y2189011D1*
X2756461Y2189727D1*
X2755493Y2190575D1*
X2754644Y2191543D1*
X2753929Y2192614D1*
X2753359Y2193769D1*
X2752945Y2194988D1*
X2752694Y2196250D1*
X2752610Y2197535D1*
X2752694Y2198820D1*
X2752945Y2200083D1*
X2753359Y2201302D1*
X2753928Y2202456D1*
X2754643Y2203527D1*
X2755492Y2204495D1*
X2756460Y2205344D1*
X2757531Y2206059D1*
X2758685Y2206629D1*
X2759905Y2207043D1*
X2761167Y2207294D1*
X2762452Y2207378D1*
D1*
G37*
X1323376Y1462350D2*
D18*
X1339124D1*
X1323376Y1500145D2*
X1339124D1*
X1214124D2*
X1198376D1*
X1214124Y1462350D2*
X1198376D1*
X1267174Y2013384D2*
Y2029132D1*
X1229379Y2013384D2*
Y2029132D1*
G36*
X2793749Y4537500D2*
X2831249D1*
Y3906249D1*
X2793749D1*
Y4537500D1*
G37*
G36*
X1117110Y4424672D2*
Y4323622D1*
X1118422D1*
Y4424672D1*
X1117110D1*
G37*
G36*
X819210Y4419423D2*
Y4397113D1*
X802149Y4395801D1*
Y4394488D1*
X819210Y4393176D1*
Y4334121D1*
X817897Y4332808D1*
X816585Y4328871D1*
Y4327559D1*
X813960Y4326247D1*
X802149Y4324934D1*
Y4323622D1*
X813960D1*
X816585Y4324934D1*
X819210Y4327559D1*
X820522Y4330184D1*
Y4393176D1*
X834958Y4394488D1*
Y4395801D1*
X820522Y4397113D1*
Y4419423D1*
X819210D1*
G37*
G36*
X928133Y4394488D2*
X926821Y4393176D1*
X924196Y4391864D1*
X917635Y4385302D1*
X912385Y4374803D1*
X911073Y4369554D1*
Y4351181D1*
X912385Y4345932D1*
X913698Y4341995D1*
X916322Y4336746D1*
X920259Y4331496D1*
X921572Y4330184D1*
X926821Y4326247D1*
X932070Y4323622D1*
X936007Y4322310D1*
X951755D1*
X955692Y4323622D1*
X960942Y4326247D1*
X966191Y4330184D1*
X967503Y4331496D1*
X971441Y4336746D1*
X974065Y4341995D1*
X975378Y4345932D1*
X976690Y4351181D1*
Y4369554D1*
X975378Y4374803D1*
X970128Y4385302D1*
X963566Y4391864D1*
X959629Y4394488D1*
X954380Y4397113D1*
X947818Y4398425D1*
X939944D1*
X933383Y4397113D1*
X928133Y4394488D1*
X938632D1*
X942132Y4395801D1*
X945631D1*
X949131Y4394488D1*
X954380Y4393176D1*
X962254Y4389239D1*
X968816Y4382677D1*
Y4381365D1*
X971441Y4376116D1*
X972753Y4372179D1*
X974065Y4365617D1*
X975378Y4364305D1*
Y4355118D1*
X974065Y4353806D1*
X972753Y4347244D1*
X971441Y4343307D1*
X968816Y4338058D1*
Y4336746D1*
X960942Y4328871D1*
X955692Y4326247D1*
X951755Y4324934D1*
X946506Y4323622D1*
X941257D1*
X936007Y4324934D1*
X932070Y4326247D1*
X926821Y4328871D1*
X918947Y4336746D1*
Y4338058D1*
X916322Y4343307D1*
X915010Y4347244D1*
X913698Y4353806D1*
X912385Y4355118D1*
Y4364305D1*
X913698Y4365617D1*
X915010Y4372179D1*
X916322Y4376116D1*
X918947Y4381365D1*
Y4382677D1*
X925509Y4389239D1*
X933383Y4393176D1*
X938632Y4394488D1*
X928133D1*
G37*
G36*
X1048868Y4364305D2*
Y4328871D1*
X1047556Y4327559D1*
X1044931Y4326247D1*
X1043182Y4324934D1*
X1041432D1*
X1039682Y4326247D1*
Y4323622D1*
X1046244D1*
X1048868Y4324934D1*
X1050181Y4326247D1*
Y4336746D1*
X1051161Y4337588D1*
X1051841Y4337512D1*
X1052743Y4336615D1*
X1053447Y4335408D1*
X1054118Y4334121D1*
X1060679Y4327559D1*
X1068553Y4323622D1*
X1072490Y4322310D1*
X1089551D1*
X1093488Y4323622D1*
X1098737Y4326247D1*
X1102674Y4330184D1*
X1105299Y4335433D1*
Y4348557D1*
X1102674Y4353806D1*
X1097425Y4359055D1*
X1094800Y4360368D1*
X1090863Y4361680D1*
X1084301Y4362992D1*
X1065929Y4364305D1*
X1058055Y4365617D1*
X1054118Y4366929D1*
X1051493Y4369554D1*
Y4370866D1*
X1050181Y4372179D1*
Y4378740D1*
X1051493Y4380053D1*
X1052805Y4385302D1*
Y4386614D1*
X1058055Y4391864D1*
X1060679Y4393176D1*
X1067241Y4394488D1*
X1070741Y4395801D1*
X1074240D1*
X1077740Y4394488D1*
X1084301Y4393176D1*
X1089551Y4390551D1*
X1096112Y4383990D1*
Y4382677D1*
X1097425Y4377428D1*
X1098737Y4373491D1*
X1100049D1*
Y4378740D1*
X1098737Y4382677D1*
X1096112Y4387927D1*
X1090863Y4393176D1*
X1085614Y4395801D1*
X1081677Y4397113D1*
X1063304D1*
X1059367Y4395801D1*
X1056742Y4394488D1*
X1051493Y4389239D1*
X1050181Y4386614D1*
X1048868Y4382677D1*
Y4364305D1*
X1050181D1*
X1051161Y4365147D1*
X1051841Y4365071D1*
X1052805Y4364305D1*
X1055430Y4362992D1*
X1060679Y4361680D1*
X1072490Y4360368D1*
X1088238Y4359055D1*
X1093488Y4357743D1*
X1098737Y4355118D1*
X1099794Y4353424D1*
X1100049Y4352494D1*
X1102674Y4345932D1*
X1103986Y4344620D1*
Y4338058D1*
X1102674Y4336746D1*
X1100049Y4331496D1*
X1096112Y4327559D1*
X1093488Y4326247D1*
X1088238Y4324934D1*
X1083864Y4323622D1*
X1079489D1*
X1075115Y4324934D1*
X1069866Y4326247D1*
X1065929Y4327559D1*
X1063304Y4328871D1*
X1060679Y4331496D1*
X1058055Y4332808D1*
X1056498Y4334284D1*
X1056742Y4335433D1*
X1054118Y4339370D1*
X1052805Y4341995D1*
X1051493Y4348557D1*
X1050181Y4364305D1*
X1048868D1*
G37*
G36*
X844144Y4395801D2*
Y4323622D1*
X845456D1*
Y4336746D1*
X846436Y4337588D1*
X847100Y4337478D1*
X847847Y4336393D1*
X848081Y4335433D1*
X850706Y4331496D1*
X855955Y4326247D1*
X861204Y4323622D1*
X865141Y4322310D1*
X879577D1*
X883514Y4323622D1*
X888763Y4326247D1*
X894013Y4331496D1*
X896637Y4336746D1*
X897950Y4340683D1*
Y4395801D1*
X896637D1*
X895325Y4343307D1*
X894013Y4336746D1*
X891388Y4332808D1*
Y4331496D1*
X888763Y4328871D1*
X883514Y4326247D1*
X878265Y4324934D1*
X874328Y4323622D1*
X870391D1*
X862517Y4326247D1*
X857267Y4328871D1*
X850706Y4335433D1*
Y4336746D1*
X849393Y4339370D1*
X848081Y4343307D1*
X846769Y4349869D1*
X845456Y4395801D1*
X844144D1*
G37*
G36*
X979315D2*
X980627Y4394488D1*
Y4391864D1*
X981939Y4389239D1*
X984564Y4381365D1*
X985876Y4378740D1*
X987189Y4374803D1*
X988501Y4372179D1*
X991126Y4364305D1*
X992438Y4361680D1*
X993750Y4357743D1*
X995063Y4355118D1*
X997687Y4347244D1*
X999000Y4344620D1*
X1000312Y4340683D1*
X1001624Y4338058D1*
X1004249Y4330184D1*
X1005561Y4327559D1*
X1006874Y4323622D1*
X1008186Y4320997D1*
X1010811Y4313123D1*
X1012123Y4310499D1*
X1013435Y4306562D1*
X1016060Y4302625D1*
X1019997Y4300000D1*
X1022622Y4298688D1*
X1031808D1*
Y4300000D1*
X1027871Y4301312D1*
X1021309Y4302625D1*
X1018685Y4303937D1*
X1017128Y4305412D1*
X1017372Y4306562D1*
X1014748Y4311811D1*
X1013435Y4315748D1*
X1012123Y4318373D1*
X1010811Y4322310D1*
X1009254Y4323785D1*
X1009660Y4324662D1*
X1010811Y4326247D1*
X1013435Y4331496D1*
X1014748Y4335433D1*
X1017372Y4340683D1*
X1018685Y4344620D1*
X1021309Y4349869D1*
X1022622Y4353806D1*
X1023934Y4356431D1*
X1025246Y4360368D1*
X1027871Y4365617D1*
X1029183Y4369554D1*
X1031808Y4374803D1*
X1033120Y4378740D1*
X1034433Y4381365D1*
X1035745Y4385302D1*
X1038370Y4390551D1*
X1039682Y4394488D1*
Y4395801D1*
X1037057D1*
X1035745Y4391864D1*
X1033120Y4386614D1*
X1031808Y4382677D1*
X1030496Y4380053D1*
X1029183Y4376116D1*
X1026559Y4370866D1*
X1025246Y4366929D1*
X1023934Y4364305D1*
X1022622Y4360368D1*
X1019997Y4355118D1*
X1018685Y4351181D1*
X1016060Y4345932D1*
X1014748Y4341995D1*
X1013435Y4339370D1*
X1012123Y4335433D1*
X1009498Y4330184D1*
X1009165Y4328636D1*
X1008109Y4327438D1*
X1007430Y4327659D1*
X1006874Y4328871D1*
Y4331496D1*
X1005561Y4335433D1*
X1004249Y4338058D1*
X1002937Y4341995D1*
X1001624Y4344620D1*
X999000Y4352494D1*
X997687Y4355118D1*
X995063Y4362992D1*
X993750Y4365617D1*
X991126Y4373491D1*
X989813Y4376116D1*
X988501Y4380053D1*
X987189Y4382677D1*
X984564Y4390551D1*
X981939Y4395801D1*
X979315D1*
G37*
G36*
X778527Y4261942D2*
Y4248819D1*
X779839D1*
Y4261942D1*
X778527D1*
G37*
G36*
X937320Y4216011D2*
Y4160892D1*
X938632D1*
Y4176641D1*
X939612Y4177483D1*
X940292Y4177407D1*
X941195Y4176510D1*
X941898Y4175303D1*
X943881Y4171391D1*
X951755Y4163517D1*
X957005Y4160892D1*
X960942Y4159580D1*
X976690D1*
X980627Y4160892D1*
X985876Y4163517D1*
X993750Y4171391D1*
X996375Y4175328D1*
X997687Y4177953D1*
X999000Y4181890D1*
X1000312Y4187139D1*
Y4206824D1*
X999000Y4212074D1*
X997687Y4216011D1*
X996375Y4218635D1*
X991126Y4226509D1*
X989813Y4227822D1*
X984564Y4231759D1*
X979315Y4234383D1*
X972753Y4235696D1*
X964879D1*
X958317Y4234383D1*
X950443Y4230446D1*
X945194Y4225197D1*
X942569Y4221260D1*
X941257Y4218635D1*
X940924Y4217087D1*
X939868Y4215890D1*
X939188Y4216111D1*
X938632Y4217323D1*
Y4261942D1*
X937320D1*
Y4216011D1*
X942569D1*
X943881Y4217323D1*
X945194Y4219948D1*
Y4221260D1*
X950443Y4226509D1*
X958317Y4230446D1*
X964879Y4231759D1*
X967941Y4233071D1*
X971003D1*
X974065Y4231759D1*
X979315Y4230446D1*
X983252Y4229134D1*
X985876Y4226509D1*
X988501Y4225197D1*
X991126Y4222572D1*
Y4221260D1*
X993750Y4217323D1*
X996375Y4209449D1*
X997687Y4202887D1*
X999000Y4201575D1*
Y4192389D1*
X997687Y4191076D1*
X996375Y4183202D1*
X995063Y4179265D1*
X992438Y4174016D1*
Y4172704D1*
X985876Y4166142D1*
X980627Y4163517D1*
X976690Y4162205D1*
X971878Y4160892D1*
X967066D1*
X962254Y4162205D1*
X958317Y4163517D1*
X953068Y4166142D1*
X951755Y4167454D1*
X949131Y4168766D1*
X947574Y4170242D1*
X947818Y4171391D1*
X943881Y4176641D1*
X941257Y4184515D1*
X939944Y4191076D1*
X938632Y4192389D1*
Y4201575D1*
X939944Y4202887D1*
X941257Y4210761D1*
X942569Y4214698D1*
Y4216011D1*
X937320D1*
G37*
G36*
X1086926Y4213386D2*
Y4212074D1*
X1081677Y4206824D1*
X1076427Y4200263D1*
X1072490Y4195013D1*
X1067241Y4188452D1*
X1063304Y4183202D1*
X1061912Y4181777D1*
X1061233Y4181990D1*
X1060679Y4183202D1*
Y4185827D1*
X1059367Y4191076D1*
X1058055Y4198950D1*
X1056742D1*
Y4188452D1*
X1059367Y4180578D1*
X1058055Y4176641D1*
X1052805Y4170079D1*
X1048868Y4164829D1*
X1046244Y4160892D1*
Y4159580D1*
X1047556D1*
X1052805Y4164829D1*
X1058055Y4171391D1*
Y4172704D1*
X1060679Y4175328D1*
X1061992D1*
X1064616Y4172704D1*
Y4171391D1*
X1073803Y4162205D1*
X1079052Y4159580D1*
X1082989Y4158268D1*
X1098737D1*
X1102674Y4159580D1*
X1110548Y4163517D1*
X1115797Y4168766D1*
X1119734Y4176641D1*
Y4189764D1*
X1118422Y4193701D1*
X1113173Y4201575D1*
X1107923Y4206824D1*
X1102674Y4210761D1*
X1098737Y4213386D1*
X1093488Y4216011D1*
Y4217323D1*
X1096112Y4219948D1*
X1101362Y4226509D1*
X1103986Y4230446D1*
X1107923Y4238320D1*
Y4248819D1*
X1105299Y4254068D1*
X1101362Y4258005D1*
X1096112Y4260630D1*
X1092175Y4261942D1*
X1082989D1*
X1079052Y4260630D1*
X1076427Y4259318D1*
X1082989D1*
X1086051Y4260630D1*
X1089113D1*
X1092175Y4259318D1*
X1096112Y4258005D1*
X1101362Y4255381D1*
X1103986Y4252756D1*
Y4251444D1*
X1105299Y4247507D1*
X1106611Y4246194D1*
Y4242257D1*
X1105299Y4240945D1*
X1103986Y4237008D1*
X1102674Y4234383D1*
X1100049Y4230446D1*
X1094800Y4223885D1*
Y4222572D1*
X1090863Y4218635D1*
X1089551D1*
X1086926Y4221260D1*
X1081677Y4225197D1*
X1079052Y4226509D1*
X1072490Y4233071D1*
Y4234383D1*
X1069866Y4239633D1*
X1068553Y4240945D1*
Y4246194D1*
X1069866Y4247507D1*
X1071178Y4251444D1*
Y4252756D1*
X1073803Y4255381D1*
X1079052Y4258005D1*
X1082989Y4259318D1*
X1076427D1*
X1073803Y4258005D1*
X1069866Y4254068D1*
X1067241Y4248819D1*
Y4237008D1*
X1068553Y4234383D1*
X1071178Y4230446D1*
X1079052Y4222572D1*
X1082989Y4219948D1*
X1085614Y4218635D1*
X1088238Y4216011D1*
X1087807Y4214418D1*
X1086926Y4213386D1*
X1090863D1*
X1091843Y4214229D1*
X1092523Y4214152D1*
X1093473Y4213346D1*
X1094800Y4212074D1*
X1102674Y4206824D1*
X1105299Y4205512D1*
X1114485Y4196326D1*
Y4195013D1*
X1115797Y4192389D1*
X1117110Y4187139D1*
X1118422Y4185827D1*
Y4180578D1*
X1117110Y4179265D1*
X1115797Y4174016D1*
Y4172704D1*
X1107923Y4164829D1*
X1105299Y4163517D1*
X1101362Y4162205D1*
X1094800Y4160892D1*
X1088238D1*
X1081677Y4162205D1*
X1077740Y4163517D1*
X1076427Y4164829D1*
X1073803Y4166142D1*
X1064616Y4175328D1*
Y4176641D1*
X1063060Y4178116D1*
X1063304Y4179265D1*
X1065929Y4181890D1*
X1076427Y4195013D1*
X1080364Y4200263D1*
X1090863Y4213386D1*
X1086926D1*
G37*
G36*
X719472Y4231759D2*
X718160Y4230446D1*
X715535Y4229134D1*
X711598Y4225197D1*
X708973Y4221260D1*
X707661Y4218635D1*
Y4216011D1*
X706269Y4214585D1*
X705590Y4214798D1*
X705036Y4216011D1*
Y4233071D1*
X703724D1*
Y4154331D1*
X705036Y4150394D1*
X707661Y4145144D1*
X714223Y4138583D1*
X719472Y4135958D1*
X724721Y4134646D1*
X743094D1*
X747031Y4135958D1*
X752280Y4138583D1*
X756217Y4141207D1*
X758842Y4145144D1*
X761467Y4150394D1*
Y4156955D1*
X760154D1*
X758842Y4153018D1*
X756217Y4146457D1*
Y4145144D1*
X753593Y4142520D1*
X745719Y4138583D1*
X737845Y4137270D1*
X735220Y4135958D1*
X732595D1*
X729971Y4137270D1*
X722097Y4138583D1*
X718160Y4139895D1*
X712910Y4142520D1*
X708973Y4146457D1*
Y4147769D1*
X707661Y4151706D1*
X706349Y4156955D1*
X705036Y4158268D1*
Y4181890D1*
X706016Y4182733D1*
X706680Y4182623D1*
X707427Y4181538D1*
X707661Y4180578D1*
X708973Y4177953D1*
X711598Y4174016D1*
X712910Y4172704D1*
X718160Y4168766D1*
X723409Y4166142D1*
X727346Y4164829D1*
X743094D1*
X747031Y4166142D1*
X752280Y4168766D1*
X758842Y4175328D1*
X761467Y4179265D1*
X762779Y4181890D1*
X765404Y4189764D1*
Y4208137D1*
X764091Y4213386D1*
X762779Y4217323D1*
X761467Y4219948D1*
X758842Y4223885D1*
X753593Y4229134D1*
X749656Y4231759D1*
X747031Y4233071D1*
X743094Y4234383D1*
X735220Y4235696D1*
X732595D1*
X726034Y4234383D1*
X722097Y4233071D1*
X719472Y4231759D1*
X729971D1*
X733033Y4233071D1*
X736095D1*
X739157Y4231759D1*
X744406Y4230446D1*
X748343Y4229134D1*
X750968Y4227822D1*
X758842Y4219948D1*
Y4218635D1*
X760154Y4216011D1*
X761467Y4212074D1*
X762779Y4205512D1*
X764091Y4204200D1*
Y4195013D1*
X762779Y4193701D1*
X761467Y4187139D1*
X760154Y4183202D1*
X758842Y4180578D1*
X756217Y4176641D1*
X755786Y4175048D1*
X754905Y4174016D1*
X752280Y4172704D1*
X750968Y4171391D1*
X745719Y4168766D1*
X739157Y4167454D1*
X736532Y4166142D1*
X733908D1*
X731283Y4167454D1*
X724721Y4168766D1*
X720784Y4170079D1*
X719472Y4171391D1*
X716847Y4172704D1*
X711598Y4177953D1*
Y4179265D1*
X708973Y4183202D1*
X707661Y4187139D1*
X706349Y4193701D1*
X705036Y4195013D1*
Y4202887D1*
X706349Y4204200D1*
X707661Y4210761D1*
X708973Y4214698D1*
X711598Y4219948D1*
Y4221260D1*
X718160Y4227822D1*
X723409Y4230446D1*
X729971Y4231759D1*
X719472D1*
G37*
G36*
X875640D2*
X874328Y4230446D1*
X871703Y4229134D1*
X866454Y4223885D1*
X861204Y4213386D1*
X859892Y4208137D1*
Y4197638D1*
X921572Y4196326D1*
Y4192389D1*
X920259Y4191076D1*
X918947Y4183202D1*
X917635Y4179265D1*
X915010Y4174016D1*
Y4172704D1*
X908448Y4166142D1*
X905824Y4164829D1*
X901887Y4163517D1*
X895325Y4162205D1*
X888763D1*
X882202Y4163517D1*
X878265Y4164829D1*
X873015Y4167454D1*
X867766Y4172704D1*
Y4174016D1*
X865141Y4179265D1*
X863829Y4184515D1*
X862517Y4185827D1*
X861204D1*
Y4181890D1*
X862517Y4177953D1*
X865141Y4172704D1*
X867766Y4168766D1*
X870391Y4166142D1*
X874328Y4163517D1*
X879577Y4160892D1*
X884826Y4159580D1*
X899262D1*
X907136Y4162205D1*
X911073Y4164829D1*
X916322Y4170079D1*
X920259Y4177953D1*
X921572Y4181890D1*
X922884Y4187139D1*
Y4206824D1*
X920259Y4214698D1*
X917635Y4219948D1*
X915010Y4223885D1*
X909761Y4229134D1*
X905824Y4231759D1*
X903199Y4233071D1*
X899262Y4234383D1*
X892700Y4235696D1*
X890076D1*
X882202Y4234383D1*
X878265Y4233071D1*
X875640Y4231759D1*
X886139D1*
X889201Y4233071D1*
X892263D1*
X895325Y4231759D1*
X901887Y4230446D1*
X907136Y4227822D1*
X915010Y4219948D1*
Y4218635D1*
X917635Y4213386D1*
X918947Y4209449D1*
X920259Y4202887D1*
X921317Y4201193D1*
X921572Y4200263D1*
X901449Y4198950D1*
X881327D1*
X861204Y4200263D1*
Y4202887D1*
X862517Y4204200D1*
X863829Y4212074D1*
X865141Y4216011D1*
X867766Y4219948D1*
Y4221260D1*
X874328Y4227822D1*
X876952Y4229134D1*
X880889Y4230446D1*
X886139Y4231759D1*
X875640D1*
G37*
G36*
X649918Y4234383D2*
X645981Y4233071D1*
X643357Y4231759D1*
X636795Y4225197D1*
X634170Y4219948D1*
X632858Y4216011D1*
Y4160892D1*
X634170D1*
X635483Y4213386D1*
X636795Y4219948D1*
X639420Y4223885D1*
X639675Y4224815D1*
X640732Y4226509D1*
X643357Y4227822D1*
X644669Y4229134D1*
X647294Y4230446D1*
X652543Y4231759D1*
X656042Y4233071D1*
X659542D1*
X663042Y4231759D1*
X668291Y4230446D1*
X673540Y4227822D1*
X680102Y4221260D1*
Y4219948D1*
X681414Y4217323D1*
X682727Y4213386D1*
X684039Y4206824D1*
X685351Y4160892D1*
X686664D1*
Y4233071D1*
X685351D1*
Y4218635D1*
X683960Y4217210D1*
X683280Y4217423D1*
X682727Y4218635D1*
Y4221260D1*
X681414Y4223885D1*
X674853Y4230446D1*
X666979Y4234383D1*
X649918D1*
G37*
G36*
X813960D2*
X810023Y4233071D1*
X804774Y4230446D1*
X799524Y4225197D1*
X796900Y4219948D1*
Y4212074D1*
X798212D1*
X799524Y4217323D1*
X800837Y4221260D1*
Y4222572D1*
X807399Y4229134D1*
X811336Y4230446D1*
X817897Y4231759D1*
X821834Y4233071D1*
X825771D1*
X829708Y4231759D1*
X834958Y4230446D1*
X838895Y4229134D1*
X845456Y4222572D1*
Y4219948D1*
X846769Y4218635D1*
Y4214698D1*
X845456Y4213386D1*
X844144Y4209449D1*
X843713Y4207857D1*
X842832Y4206824D1*
X837582Y4204200D1*
X833645Y4202887D1*
X817897Y4198950D1*
X808711Y4196326D1*
X804774Y4195013D1*
X802149Y4193701D1*
X795587Y4187139D1*
X794275Y4184515D1*
Y4174016D1*
X795587Y4170079D1*
X802149Y4163517D1*
X807399Y4160892D1*
X812648Y4159580D1*
X831021D1*
X836270Y4160892D1*
X841519Y4163517D1*
X846769Y4168766D1*
X849393Y4172704D1*
X850706Y4176641D1*
Y4185827D1*
X849393D1*
X848081Y4180578D1*
X846769Y4174016D1*
Y4172704D1*
X840207Y4166142D1*
X837582Y4164829D1*
X833645Y4163517D1*
X827084Y4162205D1*
X823584Y4160892D1*
X820084D1*
X816585Y4162205D1*
X810023Y4163517D1*
X802149Y4167454D1*
X800593Y4168930D1*
X800837Y4170079D1*
X798212Y4175328D1*
X796900Y4176641D1*
Y4181890D1*
X798212Y4183202D1*
X799524Y4185827D1*
X799780Y4186757D1*
X800837Y4188452D1*
X803462Y4189764D1*
X804774Y4191076D1*
X807399Y4192389D1*
X811336Y4193701D1*
X832333Y4198950D1*
X836270Y4200263D1*
X844144Y4204200D1*
X845456Y4205512D1*
X848081Y4210761D1*
Y4221260D1*
X845456Y4226509D1*
X841519Y4230446D1*
X836270Y4233071D1*
X832333Y4234383D1*
X813960D1*
G37*
G36*
X778527Y4233071D2*
Y4160892D1*
X779839D1*
Y4233071D1*
X778527D1*
G37*
G36*
X666979Y4099213D2*
Y4086089D1*
X668291D1*
Y4099213D1*
X666979D1*
G37*
G36*
X1114485Y4054593D2*
Y4055906D1*
X1113173Y4058530D1*
X1110548Y4062467D1*
X1105299Y4067717D1*
X1097425Y4071654D1*
X1090863Y4072966D1*
X1082989D1*
X1076427Y4071654D1*
X1071178Y4069029D1*
X1065929Y4065092D1*
X1064616Y4063780D1*
X1059367Y4055906D1*
X1058055Y4053281D1*
X1056742Y4049344D1*
X1055430Y4044095D1*
Y4024410D1*
X1056742Y4019160D1*
X1058055Y4015223D1*
X1059367Y4012599D1*
X1061992Y4008662D1*
X1069866Y4000787D1*
X1075115Y3998163D1*
X1079052Y3996850D1*
X1094800D1*
X1098737Y3998163D1*
X1103986Y4000787D1*
X1111860Y4008662D1*
X1114485Y4013911D1*
X1114699Y4014926D1*
X1115504Y4016002D1*
X1116151Y4015971D1*
X1117110Y4015223D1*
Y3998163D1*
X1118422D1*
Y4099213D1*
X1117110D1*
Y4054593D1*
X1115718Y4053168D1*
X1115039Y4053381D1*
X1114485Y4054593D1*
X1111860D1*
X1113173Y4051969D1*
X1114485Y4048032D1*
X1115797Y4040158D1*
X1117110Y4038845D1*
Y4029659D1*
X1115797Y4028347D1*
X1114485Y4021785D1*
X1113173Y4016536D1*
X1111860Y4013911D1*
X1107923Y4008662D1*
X1107492Y4007069D1*
X1106611Y4006037D1*
X1103986Y4004725D1*
X1102674Y4003412D1*
X1097425Y4000787D1*
X1093488Y3999475D1*
X1088676Y3998163D1*
X1083864D1*
X1079052Y3999475D1*
X1075115Y4000787D1*
X1069866Y4003412D1*
X1063304Y4009974D1*
Y4011286D1*
X1060679Y4016536D1*
X1059367Y4020473D1*
X1058055Y4028347D1*
X1056742Y4029659D1*
Y4038845D1*
X1058055Y4040158D1*
X1059367Y4046719D1*
X1061992Y4054593D1*
X1064616Y4058530D1*
Y4059843D1*
X1068553Y4063780D1*
X1071178Y4065092D1*
X1072490Y4066404D1*
X1076427Y4067717D1*
X1081677Y4069029D1*
X1084739Y4070341D1*
X1087801D1*
X1090863Y4069029D1*
X1097425Y4067717D1*
X1105299Y4063780D1*
X1110548Y4058530D1*
Y4057218D1*
X1111860Y4054593D1*
X1114485D1*
G37*
G36*
X496375Y4069029D2*
X495063Y4067717D1*
X492438Y4066404D1*
X487189Y4061155D1*
X481939Y4050656D1*
X480627Y4045407D1*
Y4034908D1*
X542307Y4033596D1*
Y4029659D1*
X540994Y4028347D1*
X539682Y4020473D1*
X538370Y4016536D1*
X535745Y4011286D1*
Y4009974D1*
X529183Y4003412D1*
X526559Y4002100D1*
X522622Y4000787D1*
X516060Y3999475D1*
X509498D1*
X502937Y4000787D1*
X499000Y4002100D1*
X493750Y4004725D1*
X488501Y4009974D1*
Y4011286D1*
X485876Y4016536D1*
X484564Y4021785D1*
X483252Y4023097D1*
X481939D1*
Y4019160D1*
X483252Y4015223D1*
X485876Y4009974D1*
X488501Y4006037D1*
X491126Y4003412D1*
X495063Y4000787D1*
X500312Y3998163D1*
X505561Y3996850D1*
X519997D1*
X527871Y3999475D1*
X531808Y4002100D1*
X537057Y4007349D1*
X540994Y4015223D1*
X542307Y4019160D1*
X543619Y4024410D1*
Y4044095D1*
X540994Y4051969D1*
X538370Y4057218D1*
X535745Y4061155D1*
X530496Y4066404D1*
X526559Y4069029D1*
X523934Y4070341D1*
X519997Y4071654D1*
X513435Y4072966D1*
X510811D1*
X502937Y4071654D1*
X499000Y4070341D1*
X496375Y4069029D1*
X506874D1*
X509936Y4070341D1*
X512998D1*
X516060Y4069029D1*
X522622Y4067717D1*
X527871Y4065092D1*
X535745Y4057218D1*
Y4055906D1*
X538370Y4050656D1*
X539682Y4046719D1*
X540994Y4040158D1*
X542051Y4038463D1*
X542307Y4037533D1*
X522184Y4036221D1*
X502062D1*
X481939Y4037533D1*
Y4040158D1*
X483252Y4041470D1*
X484564Y4049344D1*
X485876Y4053281D1*
X488501Y4057218D1*
Y4058530D1*
X495063Y4065092D1*
X497687Y4066404D1*
X501624Y4067717D1*
X506874Y4069029D1*
X496375D1*
G37*
G36*
X794275D2*
X792963Y4067717D1*
X790338Y4066404D1*
X785089Y4061155D1*
X779839Y4050656D1*
X778527Y4045407D1*
Y4034908D1*
X840207Y4033596D1*
Y4029659D1*
X838895Y4028347D1*
X837582Y4020473D1*
X836270Y4016536D1*
X833645Y4011286D1*
Y4009974D1*
X827084Y4003412D1*
X824459Y4002100D1*
X820522Y4000787D1*
X813960Y3999475D1*
X807399D1*
X800837Y4000787D1*
X796900Y4002100D1*
X791650Y4004725D1*
X786401Y4009974D1*
Y4011286D1*
X783776Y4016536D1*
X782464Y4021785D1*
X781152Y4023097D1*
X779839D1*
Y4019160D1*
X781152Y4015223D1*
X783776Y4009974D1*
X786401Y4006037D1*
X789026Y4003412D1*
X792963Y4000787D1*
X798212Y3998163D1*
X803462Y3996850D1*
X817897D1*
X825771Y3999475D1*
X829708Y4002100D1*
X834958Y4007349D1*
X838895Y4015223D1*
X840207Y4019160D1*
X841519Y4024410D1*
Y4044095D1*
X838895Y4051969D1*
X836270Y4057218D1*
X833645Y4061155D1*
X828396Y4066404D1*
X824459Y4069029D1*
X821834Y4070341D1*
X817897Y4071654D1*
X811336Y4072966D1*
X808711D1*
X800837Y4071654D1*
X796900Y4070341D1*
X794275Y4069029D1*
X804774D1*
X807836Y4070341D1*
X810898D1*
X813960Y4069029D1*
X820522Y4067717D1*
X825771Y4065092D1*
X833645Y4057218D1*
Y4055906D1*
X836270Y4050656D1*
X837582Y4046719D1*
X838895Y4040158D1*
X839952Y4038463D1*
X840207Y4037533D1*
X820084Y4036221D1*
X799962D1*
X779839Y4037533D1*
Y4040158D1*
X781152Y4041470D1*
X782464Y4049344D1*
X783776Y4053281D1*
X786401Y4057218D1*
Y4058530D1*
X792963Y4065092D1*
X795587Y4066404D1*
X799524Y4067717D1*
X804774Y4069029D1*
X794275D1*
G37*
G36*
X437320Y4071654D2*
Y4070341D1*
X443881Y4069029D1*
X449131Y4067717D1*
X454380Y4065092D1*
X460942Y4058530D1*
Y4057218D1*
X462254Y4054593D1*
X463566Y4050656D1*
X464879Y4044095D1*
X466191Y3998163D1*
X467503D1*
Y4070341D1*
X466191D1*
Y4055906D1*
X464800Y4054480D1*
X464123Y4054691D1*
X463281Y4056136D1*
X463566Y4057218D1*
X460942Y4062467D1*
X457005Y4066404D1*
X453068Y4069029D1*
X450443Y4070341D1*
X446506Y4071654D1*
X437320D1*
G37*
G36*
X571178D2*
X567241Y4070341D1*
X563304Y4067717D1*
X561992Y4066404D1*
X559367Y4062467D1*
X558055Y4059843D1*
X556742Y4054593D1*
Y3998163D1*
X558055D1*
X559367Y4051969D1*
X560679Y4058530D1*
X561992Y4061155D1*
Y4062467D1*
X565929Y4066404D1*
X568553Y4067717D1*
X573803Y4069029D1*
X576865Y4070341D1*
X579927D1*
X582989Y4069029D1*
X588238Y4067717D1*
X590863Y4066404D1*
X592175Y4065092D1*
X594800Y4063780D1*
X597425Y4061155D1*
Y4059843D1*
X600049Y4054593D1*
X601362Y4049344D1*
X602674Y3998163D1*
X603986D1*
X605299Y4050656D1*
X606611Y4058530D1*
X607923Y4061155D1*
Y4062467D1*
X611860Y4066404D1*
X614485Y4067717D1*
X619734Y4069029D1*
X622797Y4070341D1*
X625859D1*
X628921Y4069029D1*
X632858Y4067717D1*
X635483Y4066404D1*
X636795Y4065092D1*
X639420Y4063780D1*
X640477Y4062085D1*
X640732Y4061155D1*
X643357Y4057218D1*
X644669Y4054593D1*
X645981Y4050656D1*
X647294Y4044095D1*
X648606Y3998163D1*
X649918D1*
Y4070341D1*
X648606D1*
Y4057218D1*
X647214Y4055793D1*
X646538Y4056003D1*
X645695Y4057448D1*
X645981Y4058530D1*
X644669Y4061155D1*
X636795Y4069029D1*
X631545Y4071654D1*
X617110D1*
X613173Y4070341D1*
X607923Y4066404D1*
X605299Y4062467D1*
X603986Y4059843D1*
Y4057218D1*
X602595Y4055793D1*
X601915Y4056006D1*
X601362Y4057218D1*
X598737Y4062467D1*
X592175Y4069029D1*
X586926Y4071654D1*
X571178D1*
G37*
G36*
X844144D2*
Y4070341D1*
X850706Y4069029D1*
X855955Y4067717D1*
X861204Y4065092D1*
X867766Y4058530D1*
Y4057218D1*
X869078Y4054593D1*
X870391Y4050656D1*
X871703Y4044095D1*
X873015Y3998163D1*
X874328D1*
Y4070341D1*
X873015D1*
Y4055906D1*
X871624Y4054480D1*
X870948Y4054691D1*
X870105Y4056136D1*
X870391Y4057218D1*
X867766Y4062467D1*
X863829Y4066404D1*
X859892Y4069029D1*
X857267Y4070341D1*
X853330Y4071654D1*
X844144D1*
G37*
G36*
X892700Y4038845D2*
Y4003412D1*
X891388Y4002100D1*
X888763Y4000787D1*
X887014Y3999475D1*
X885264D1*
X883514Y4000787D1*
Y3998163D1*
X890076D1*
X892700Y3999475D1*
X894013Y4000787D1*
Y4011286D1*
X894993Y4012129D1*
X895673Y4012052D1*
X896575Y4011156D1*
X897279Y4009949D1*
X897950Y4008662D1*
X904511Y4002100D1*
X912385Y3998163D1*
X916322Y3996850D1*
X933383D1*
X937320Y3998163D1*
X942569Y4000787D1*
X946506Y4004725D1*
X949131Y4009974D1*
Y4023097D1*
X946506Y4028347D1*
X941257Y4033596D1*
X938632Y4034908D1*
X934695Y4036221D1*
X928133Y4037533D1*
X909761Y4038845D1*
X901887Y4040158D1*
X897950Y4041470D1*
X895325Y4044095D1*
Y4045407D1*
X894013Y4046719D1*
Y4053281D1*
X895325Y4054593D1*
X896637Y4059843D1*
Y4061155D1*
X901887Y4066404D1*
X904511Y4067717D1*
X911073Y4069029D1*
X914573Y4070341D1*
X918072D1*
X921572Y4069029D1*
X928133Y4067717D1*
X933383Y4065092D1*
X939944Y4058530D1*
Y4057218D1*
X941257Y4051969D1*
X942569Y4048032D1*
X943881D1*
Y4053281D1*
X942569Y4057218D1*
X939944Y4062467D1*
X934695Y4067717D1*
X929446Y4070341D1*
X925509Y4071654D1*
X907136D1*
X903199Y4070341D1*
X900574Y4069029D1*
X895325Y4063780D1*
X894013Y4061155D1*
X892700Y4057218D1*
Y4038845D1*
X894013D1*
X894993Y4039688D1*
X895673Y4039611D1*
X896637Y4038845D1*
X899262Y4037533D1*
X904511Y4036221D1*
X916322Y4034908D1*
X932070Y4033596D1*
X937320Y4032284D1*
X942569Y4029659D1*
X943626Y4027965D1*
X943881Y4027034D1*
X946506Y4020473D1*
X947818Y4019160D1*
Y4012599D1*
X946506Y4011286D1*
X943881Y4006037D1*
X939944Y4002100D1*
X937320Y4000787D1*
X932070Y3999475D1*
X927696Y3998163D1*
X923322D1*
X918947Y3999475D1*
X913698Y4000787D1*
X909761Y4002100D1*
X907136Y4003412D1*
X904511Y4006037D1*
X901887Y4007349D1*
X900330Y4008825D1*
X900574Y4009974D1*
X897950Y4013911D1*
X896637Y4016536D1*
X895325Y4023097D1*
X894013Y4038845D1*
X892700D1*
G37*
G36*
X666979Y4070341D2*
Y3998163D1*
X668291D1*
Y4070341D1*
X666979D1*
G37*
G36*
X714223D2*
X715535Y4069029D1*
Y4066404D1*
X716847Y4063780D1*
X719472Y4055906D1*
X720784Y4053281D1*
X723409Y4045407D1*
X724721Y4042782D1*
X727346Y4034908D1*
X728658Y4032284D1*
X731283Y4024410D1*
X732595Y4021785D1*
X735220Y4013911D1*
X736532Y4011286D1*
X737845Y4007349D1*
X739157Y4004725D1*
X740469Y4000787D1*
X741782Y3998163D1*
X745719D1*
X747031Y4002100D1*
X749656Y4007349D1*
X750968Y4011286D1*
X752280Y4013911D1*
X753593Y4017848D1*
X754905Y4020473D1*
X756217Y4024410D1*
X758842Y4029659D1*
X760154Y4033596D1*
X761467Y4036221D1*
X762779Y4040158D1*
X764091Y4042782D1*
X765404Y4046719D1*
X768028Y4051969D1*
X769341Y4055906D1*
X770653Y4058530D1*
X771965Y4062467D1*
X773278Y4065092D1*
X774590Y4069029D1*
Y4070341D1*
X771965D1*
X770653Y4067717D1*
X769341Y4063780D1*
X768028Y4061155D1*
X766716Y4057218D1*
X765404Y4054593D1*
X764091Y4050656D1*
X762779Y4048032D1*
X761467Y4044095D1*
X760154Y4041470D1*
X758842Y4037533D1*
X757530Y4034908D1*
X756217Y4030971D1*
X754905Y4028347D1*
X753593Y4024410D1*
X752280Y4021785D1*
X750968Y4017848D1*
X748343Y4012599D1*
X747031Y4008662D1*
X745719Y4006037D1*
Y4003412D1*
X744119Y4002043D1*
X742597Y4002211D1*
X741354Y4003730D1*
X741782Y4004725D1*
X739157Y4012599D1*
X737845Y4015223D1*
X735220Y4023097D1*
X733908Y4025722D1*
X731283Y4033596D1*
X729971Y4036221D1*
X726034Y4048032D1*
X724721Y4050656D1*
X722097Y4058530D1*
X720784Y4061155D1*
X718160Y4069029D1*
X716847Y4070341D1*
X714223D1*
G37*
G36*
X989813D2*
X991126Y4069029D1*
Y4066404D1*
X992438Y4063780D1*
X995063Y4055906D1*
X996375Y4053281D1*
X997687Y4049344D1*
X999000Y4046719D1*
X1001624Y4038845D1*
X1002937Y4036221D1*
X1004249Y4032284D1*
X1005561Y4029659D1*
X1008186Y4021785D1*
X1009498Y4019160D1*
X1010811Y4015223D1*
X1012123Y4012599D1*
X1014748Y4004725D1*
X1016060Y4002100D1*
X1017372Y3998163D1*
X1018685Y3995538D1*
X1021309Y3987664D1*
X1022622Y3985039D1*
X1023934Y3981102D1*
X1026559Y3977165D1*
X1030496Y3974541D1*
X1033120Y3973228D1*
X1042307D1*
Y3974541D1*
X1038370Y3975853D1*
X1031808Y3977165D1*
X1029183Y3978478D1*
X1027627Y3979953D1*
X1027871Y3981102D1*
X1025246Y3986352D1*
X1023934Y3990289D1*
X1022622Y3992913D1*
X1021309Y3996850D1*
X1019753Y3998326D1*
X1020158Y3999202D1*
X1021309Y4000787D1*
X1023934Y4006037D1*
X1025246Y4009974D1*
X1027871Y4015223D1*
X1029183Y4019160D1*
X1031808Y4024410D1*
X1033120Y4028347D1*
X1034433Y4030971D1*
X1035745Y4034908D1*
X1038370Y4040158D1*
X1039682Y4044095D1*
X1042307Y4049344D1*
X1043619Y4053281D1*
X1044931Y4055906D1*
X1046244Y4059843D1*
X1048868Y4065092D1*
X1050181Y4069029D1*
Y4070341D1*
X1047556D1*
X1046244Y4066404D1*
X1043619Y4061155D1*
X1042307Y4057218D1*
X1040994Y4054593D1*
X1039682Y4050656D1*
X1037057Y4045407D1*
X1035745Y4041470D1*
X1034433Y4038845D1*
X1033120Y4034908D1*
X1030496Y4029659D1*
X1029183Y4025722D1*
X1026559Y4020473D1*
X1025246Y4016536D1*
X1023934Y4013911D1*
X1022622Y4009974D1*
X1019997Y4004725D1*
X1019664Y4003176D1*
X1018608Y4001979D1*
X1017928Y4002200D1*
X1017372Y4003412D1*
Y4006037D1*
X1016060Y4009974D1*
X1014748Y4012599D1*
X1013435Y4016536D1*
X1012123Y4019160D1*
X1009498Y4027034D1*
X1008186Y4029659D1*
X1005561Y4037533D1*
X1004249Y4040158D1*
X1001624Y4048032D1*
X1000312Y4050656D1*
X999000Y4054593D1*
X997687Y4057218D1*
X995063Y4065092D1*
X992438Y4070341D1*
X989813D1*
G37*
X2872155Y4593494D2*
D67*
X2822412D1*
X2794621Y4621450D2*
X2785966Y4625827D1*
X2773033Y4638661D1*
Y4548328D1*
X2740865Y4617172D2*
Y4621450D1*
X2736587Y4630105D1*
X2732309Y4634383D1*
X2723654Y4638661D1*
X2706443D1*
X2697888Y4634383D1*
X2693610Y4630105D1*
X2689232Y4621450D1*
Y4612894D1*
X2693610Y4604239D1*
X2702165Y4591405D1*
X2745242Y4548328D1*
X2684954D1*
X2657164Y4638760D2*
X2622742Y4548328D1*
X2588320Y4638760D1*
X1097995Y3158817D2*
D66*
X1095143Y3160243D1*
X1092258Y3163128D1*
X1090832Y3165980D1*
Y3171717D1*
X1092257Y3174602D1*
X1095143Y3177454D1*
X1097994Y3178913D1*
X1102305Y3180339D1*
X1109501D1*
X1113779Y3178913D1*
X1116664Y3177454D1*
X1119516Y3174603D1*
X1120976Y3171717D1*
Y3165981D1*
X1119517Y3163129D1*
X1116665Y3160243D1*
X1113780Y3158817D1*
X1090865Y3135044D2*
Y3149370D1*
X1103765Y3150796D1*
X1102339Y3149370D1*
X1100880Y3145059D1*
Y3140782D1*
X1102339Y3136471D1*
X1105191Y3133586D1*
X1109502Y3132160D1*
X1112354D1*
X1116665Y3133586D1*
X1119550Y3136471D1*
X1120976Y3140782D1*
Y3145060D1*
X1119550Y3149371D1*
X1118091Y3150797D1*
X1115239Y3152256D1*
X2208087Y3076741D2*
X2209513Y3079593D1*
X2212398Y3082478D1*
X2215250Y3083904D1*
X2220987D1*
X2223872Y3082478D1*
X2226724Y3079593D1*
X2228183Y3076741D1*
X2229609Y3072430D1*
X2229610Y3065234D1*
X2228184Y3060956D1*
X2226725Y3058071D1*
X2223873Y3055219D1*
X2220988Y3053760D1*
X2215251D1*
X2212399Y3055219D1*
X2209514Y3058071D1*
X2208088Y3060956D1*
X2184315Y3079592D2*
X2185741Y3082444D1*
X2190052Y3083870D1*
X2192904D1*
X2197215Y3082444D1*
X2200100Y3078133D1*
X2201526Y3070971D1*
Y3063808D1*
X2200100Y3058071D1*
X2197215Y3055186D1*
X2192904Y3053760D1*
X2191478Y3053759D1*
X2187200Y3055185D1*
X2184315Y3058070D1*
X2182889Y3062381D1*
Y3063807D1*
X2184315Y3068118D1*
X2187200Y3070970D1*
X2191478Y3072396D1*
X2192904D1*
X2197215Y3070971D1*
X2200100Y3068119D1*
X2201526Y3063808D1*
X877567Y2411586D2*
X878993Y2414438D1*
X881878Y2417323D1*
X884730Y2418749D1*
X890467D1*
X893352Y2417323D1*
X896204Y2414438D1*
X897663Y2411586D1*
X899089Y2407275D1*
X899090Y2400079D1*
X897664Y2395801D1*
X896205Y2392916D1*
X893353Y2390064D1*
X890468Y2388605D1*
X884731D1*
X881879Y2390064D1*
X878994Y2392916D1*
X877568Y2395801D1*
X865269Y2388605D2*
X850910Y2418715D1*
X871006Y2418716D1*
X1652551Y2411586D2*
X1653977Y2414438D1*
X1656862Y2417323D1*
X1659713Y2418749D1*
X1665450D1*
X1668336Y2417323D1*
X1671187Y2414438D1*
X1672647Y2411586D1*
X1674073Y2407275D1*
Y2400079D1*
X1672647Y2395801D1*
X1671188Y2392916D1*
X1668336Y2390064D1*
X1665451Y2388605D1*
X1659714D1*
X1656862Y2390064D1*
X1653977Y2392916D1*
X1652551Y2395801D1*
X1638826Y2418715D2*
X1643104Y2417290D1*
X1644563Y2414438D1*
Y2411553D1*
X1643104Y2408701D1*
X1640252Y2407242D1*
X1634515Y2405815D1*
X1630204Y2404389D1*
X1627352Y2401504D1*
X1625926Y2398652D1*
X1625927Y2394341D1*
X1627353Y2391489D1*
X1628779Y2390030D1*
X1633090Y2388605D1*
X1638827D1*
X1643104Y2390031D1*
X1644563Y2391490D1*
X1645989Y2394342D1*
Y2398653D1*
X1644563Y2401505D1*
X1641678Y2404390D1*
X1637400Y2405816D1*
X1631663Y2407241D1*
X1628778Y2408700D1*
X1627352Y2411552D1*
Y2414437D1*
X1628778Y2417289D1*
X1633089Y2418715D1*
X1638826D1*
X2651854Y3120776D2*
X2653280Y3123628D1*
X2656165Y3126513D1*
X2659017Y3127939D1*
X2664754Y3127940D1*
X2667639Y3126514D1*
X2670491Y3123629D1*
X2671950Y3120777D1*
X2673376Y3116466D1*
Y3109270D1*
X2671950Y3104992D1*
X2670491Y3102107D1*
X2667639Y3099255D1*
X2664754Y3097796D1*
X2659017Y3097795D1*
X2656165Y3099254D1*
X2653280Y3102106D1*
X2651854Y3104991D1*
X2626622Y3117891D2*
X2628081Y3113580D1*
X2630933Y3110695D1*
X2635244Y3109269D1*
X2636670D1*
X2640981Y3110695D1*
X2643833Y3113580D1*
X2645292Y3117891D1*
Y3119317D1*
X2643833Y3123628D1*
X2640981Y3126480D1*
X2636670Y3127906D1*
X2635244D1*
X2630933Y3126480D1*
X2628081Y3123628D1*
X2626622Y3117891D1*
Y3110694D1*
X2628082Y3103532D1*
X2630934Y3099221D1*
X2635245Y3097795D1*
X2638097D1*
X2642408Y3099221D1*
X2643834Y3102106D1*
X2438540Y2688856D2*
X2439966Y2691708D1*
X2442851Y2694594D1*
X2445702Y2696020D1*
X2451439D1*
X2454325Y2694594D1*
X2457176Y2691709D1*
X2458636Y2688857D1*
X2460062Y2684546D1*
Y2677350D1*
X2458636Y2673072D1*
X2457177Y2670187D1*
X2454325Y2667335D1*
X2451440Y2665876D1*
X2445703D1*
X2442851Y2667335D1*
X2439966Y2670186D1*
X2438540Y2673071D1*
X2431978Y2690249D2*
X2429093Y2691708D1*
X2424782Y2695986D1*
Y2665875D1*
X2409598Y2695986D2*
X2413909Y2694560D1*
X2416794Y2690249D1*
X2418220Y2683086D1*
Y2678775D1*
X2416795Y2671612D1*
X2413910Y2667301D1*
X2409599Y2665875D1*
X2406747D1*
X2402436Y2667301D1*
X2399584Y2671612D1*
X2398124Y2678774D1*
Y2683085D1*
X2399583Y2690248D1*
X2402435Y2694559D1*
X2406746Y2695986D1*
X2409598D1*
X2399583Y2690248D2*
X2416795Y2671612D1*
X3209246Y2417838D2*
X3210671Y2420690D1*
X3213556Y2423575D1*
X3216408Y2425001D1*
X3222145D1*
X3225030Y2423575D1*
X3227882Y2420690D1*
X3229342Y2417838D1*
X3230768Y2413527D1*
Y2406331D1*
X3229342Y2402053D1*
X3227883Y2399168D1*
X3225031Y2396316D1*
X3222146Y2394857D1*
X3216409D1*
X3213557Y2396316D1*
X3210672Y2399168D1*
X3209246Y2402053D1*
X3202684Y2419231D2*
X3199799Y2420690D1*
X3195488Y2424967D1*
Y2394857D1*
X3188926Y2419230D2*
X3186041Y2420689D1*
X3181730Y2424967D1*
Y2394856D1*
X2334446Y1256609D2*
X2335872Y1259461D1*
X2338757Y1262346D1*
X2341608Y1263772D1*
X2347345D1*
X2350231Y1262346D1*
X2353083Y1259461D1*
X2354542Y1256609D1*
X2355968Y1252298D1*
Y1245102D1*
X2354542Y1240824D1*
X2353083Y1237939D1*
X2350231Y1235087D1*
X2347346Y1233628D1*
X2341609D1*
X2338757Y1235087D1*
X2335872Y1237939D1*
X2334446Y1240824D1*
X2327884Y1258001D2*
X2324999Y1259460D1*
X2320688Y1263738D1*
X2320689Y1233627D1*
X2312667Y1256575D2*
Y1258001D1*
X2311241Y1260886D1*
X2309815Y1262312D1*
X2306930Y1263738D1*
X2301193Y1263737D1*
X2298341Y1262311D1*
X2296915Y1260885D1*
X2295456Y1258000D1*
Y1255148D1*
X2296915Y1252263D1*
X2299768Y1247985D1*
X2314127Y1233627D1*
X2294031Y1233626D1*
X3118780Y1256609D2*
X3120206Y1259461D1*
X3123091Y1262346D1*
X3125943Y1263772D1*
X3131680D1*
X3134565Y1262346D1*
X3137417Y1259461D1*
X3138876Y1256609D1*
X3140302Y1252298D1*
X3140303Y1245102D1*
X3138877Y1240824D1*
X3137418Y1237939D1*
X3134566Y1235087D1*
X3131681Y1233628D1*
X3125944D1*
X3123092Y1235087D1*
X3120207Y1237939D1*
X3118781Y1240824D1*
X3112219Y1258001D2*
X3109334Y1259460D1*
X3105022Y1263738D1*
X3105023Y1233627D1*
X3095576Y1263738D2*
X3079824Y1263737D1*
X3088413Y1252264D1*
X3084102Y1252263D1*
X3081250Y1250837D1*
X3079824Y1249411D1*
X3078365Y1245100D1*
Y1242248D1*
X3079825Y1237937D1*
X3082677Y1235052D1*
X3086988Y1233627D1*
X3091299D1*
X3095576Y1235053D1*
X3097002Y1236512D1*
X3098461Y1239364D1*
X999359Y2128464D2*
X1000785Y2131316D1*
X1003670Y2134201D1*
X1006522Y2135627D1*
X1012259D1*
X1015144Y2134201D1*
X1017996Y2131316D1*
X1019455Y2128464D1*
X1020881Y2124153D1*
Y2116957D1*
X1019455Y2112679D1*
X1017996Y2109794D1*
X1015144Y2106942D1*
X1012259Y2105483D1*
X1006522D1*
X1003670Y2106942D1*
X1000785Y2109794D1*
X999359Y2112679D1*
X992797Y2129857D2*
X989912Y2131316D1*
X985601Y2135594D1*
Y2105483D1*
X964680D2*
Y2135594D1*
X979039Y2115531D1*
X957517D1*
X1409567Y1628196D2*
X1406715Y1629622D1*
X1403830Y1632507D1*
X1402404Y1635359D1*
Y1641096D1*
X1403830Y1643981D1*
X1406715Y1646833D1*
X1409567Y1648292D1*
X1413878Y1649718D1*
X1421074D1*
X1425352Y1648292D1*
X1428237Y1646833D1*
X1431089Y1643981D1*
X1432548Y1641096D1*
Y1635359D1*
X1431089Y1632507D1*
X1428237Y1629622D1*
X1425352Y1628196D1*
X1408174Y1621634D2*
X1406715Y1618749D1*
X1402437Y1614438D1*
X1432548D1*
X1402437Y1590665D2*
Y1604991D1*
X1415337Y1606417D1*
X1413911Y1604991D1*
X1412452Y1600680D1*
Y1596402D1*
X1413911Y1592091D1*
X1416763Y1589206D1*
X1421074Y1587780D1*
X1423926D1*
X1428237Y1589206D1*
X1431122Y1592091D1*
X1432548Y1596402D1*
Y1600680D1*
X1431122Y1604991D1*
X1429663Y1606417D1*
X1426811Y1607876D1*
X1458992Y2115812D2*
X1460418Y2118664D1*
X1463303Y2121549D1*
X1466155Y2122975D1*
X1471892D1*
X1474777Y2121549D1*
X1477629Y2118664D1*
X1479088Y2115812D1*
X1480514Y2111501D1*
Y2104305D1*
X1479088Y2100027D1*
X1477629Y2097142D1*
X1474777Y2094290D1*
X1471892Y2092831D1*
X1466155D1*
X1463303Y2094290D1*
X1460418Y2097142D1*
X1458992Y2100027D1*
X1450971Y2115778D2*
Y2117204D1*
X1449545Y2120089D1*
X1448119Y2121515D1*
X1445234Y2122941D1*
X1439497D1*
X1436645Y2121515D1*
X1435219Y2120089D1*
X1433760Y2117204D1*
Y2114352D1*
X1435219Y2111467D1*
X1438071Y2107189D1*
X1452431Y2092831D1*
X1432335Y2092830D1*
X1422887Y2122941D2*
X1407136Y2122940D1*
X1415725Y2111467D1*
X1411414D1*
X1408562Y2110040D1*
X1407136Y2108615D1*
X1405677Y2104303D1*
Y2101452D1*
X1407136Y2097141D1*
X1409988Y2094256D1*
X1414299Y2092830D1*
X1418610D1*
X1422888Y2094256D1*
X1424314Y2095715D1*
X1425773Y2098567D1*
X996534Y1635359D2*
X993682Y1636785D1*
X990797Y1639670D1*
X989371Y1642522D1*
Y1648259D1*
X990797Y1651144D1*
X993682Y1653996D1*
X996534Y1655455D1*
X1000845Y1656881D1*
X1008041D1*
X1012319Y1655455D1*
X1015204Y1653996D1*
X1018056Y1651144D1*
X1019515Y1648259D1*
Y1642522D1*
X1018056Y1639670D1*
X1015204Y1636785D1*
X1012319Y1635359D1*
X996567Y1627338D2*
X995141D1*
X992256Y1625912D1*
X990830Y1624486D1*
X989404Y1621601D1*
Y1615864D1*
X990830Y1613012D1*
X992256Y1611586D1*
X995141Y1610127D1*
X997993D1*
X1000878Y1611586D1*
X1005156Y1614438D1*
X1019515Y1628797D1*
Y1608701D1*
Y1587780D2*
X989404D1*
X1009467Y1602139D1*
Y1580617D1*
X828887Y1579843D2*
X830313Y1582695D1*
X833198Y1585581D1*
X836050Y1587007D1*
X841787D1*
X844672Y1585581D1*
X847524Y1582696D1*
X848983Y1579844D1*
X850409Y1575533D1*
Y1568337D1*
X848984Y1564059D1*
X847525Y1561174D1*
X844673Y1558322D1*
X841788Y1556863D1*
X836051D1*
X833199Y1558322D1*
X830314Y1561173D1*
X828888Y1564059D1*
X819440Y1586973D2*
X803689D1*
X812278Y1575499D1*
X807967D1*
X805115Y1574073D1*
X803689Y1572647D1*
X802230Y1568336D1*
Y1565484D1*
X803689Y1561173D1*
X806541Y1558288D1*
X810852Y1556862D1*
X815163D1*
X819441Y1558288D1*
X820867Y1559747D1*
X822326Y1562599D1*
X794209Y1579810D2*
Y1581236D1*
X792783Y1584121D1*
X791357Y1585547D1*
X788472Y1586973D1*
X782735Y1586972D1*
X779883Y1585546D1*
X778457Y1584120D1*
X776998Y1581235D1*
Y1578383D1*
X778457Y1575498D1*
X781309Y1571221D1*
X795668Y1556862D1*
X775572Y1556861D1*
X1622146Y1585548D2*
X1623572Y1588400D1*
X1626457Y1591286D1*
X1629309Y1592712D1*
X1635046D1*
X1637931Y1591286D1*
X1640783Y1588401D1*
X1642242Y1585549D1*
X1643668Y1581238D1*
Y1574042D1*
X1642242Y1569764D1*
X1640783Y1566879D1*
X1637932Y1564027D1*
X1635047Y1562568D1*
X1629310D1*
X1626458Y1564027D1*
X1623572Y1566878D1*
X1622146Y1569763D1*
X1612699Y1592678D2*
X1596947Y1592677D1*
X1605536Y1581204D1*
X1601225D1*
X1598373Y1579778D1*
X1596948Y1578352D1*
X1595489Y1574040D1*
Y1571189D1*
X1596948Y1566878D1*
X1599800Y1563993D1*
X1604111Y1562567D1*
X1608422D1*
X1612700Y1563993D1*
X1614126Y1565452D1*
X1615585Y1568304D1*
X1586041Y1592677D2*
X1570289Y1592676D1*
X1578879Y1581203D1*
X1574568D1*
X1571716Y1579777D1*
X1570290Y1578351D1*
X1568831Y1574040D1*
Y1571188D1*
X1570290Y1566877D1*
X1573142Y1563992D1*
X1577453Y1562566D1*
X1581764D1*
X1586042Y1563992D1*
X1587468Y1565451D1*
X1588927Y1568303D1*
X1031531Y877140D2*
X1034383Y875715D1*
X1037268Y872830D1*
X1038695Y869978D1*
Y864241D1*
X1037269Y861356D1*
X1034384Y858504D1*
X1031532Y857044D1*
X1027221Y855618D1*
X1020025D1*
X1015747Y857044D1*
X1012862Y858503D1*
X1010010Y861354D1*
X1008551Y864239D1*
Y869976D1*
X1010010Y872828D1*
X1012861Y875713D1*
X1015746Y877140D1*
X1038661Y886588D2*
X1038660Y902339D1*
X1027186Y893750D1*
Y898061D1*
X1025760Y900913D1*
X1024334Y902339D1*
X1020023Y903798D1*
X1017171Y903797D1*
X1012860Y902338D1*
X1009975Y899486D1*
X1008549Y895175D1*
Y890864D1*
X1009976Y886586D1*
X1011435Y885160D1*
X1014287Y883701D1*
X1008548Y924718D2*
X1038658Y924719D1*
X1018596Y910359D1*
X1018595Y931881D1*
X1031530Y665352D2*
X1034382Y663926D1*
X1037267Y661041D1*
X1038693Y658189D1*
Y652452D1*
X1037267Y649567D1*
X1034382Y646715D1*
X1031530Y645256D1*
X1027219Y643830D1*
X1020023D1*
X1015745Y645256D1*
X1012860Y646715D1*
X1010008Y649567D1*
X1008549Y652452D1*
Y658189D1*
X1010008Y661040D1*
X1012860Y663926D1*
X1015745Y665352D1*
X1038659Y674799D2*
Y690551D1*
X1027185Y681962D1*
Y686273D1*
X1025759Y689125D1*
X1024333Y690550D1*
X1020022Y692009D1*
X1017170D1*
X1012859Y690550D1*
X1009974Y687698D1*
X1008548Y683387D1*
Y679076D1*
X1009974Y674798D1*
X1011434Y673372D1*
X1014285Y671913D1*
X1038658Y715783D2*
X1038659Y701457D1*
X1025759Y700030D1*
X1027185Y701456D1*
X1028644Y705767D1*
X1028643Y710045D1*
X1027184Y714356D1*
X1024332Y717241D1*
X1020021Y718667D1*
X1017169D1*
X1012858Y717241D1*
X1009973Y714356D1*
X1008547Y710045D1*
X1008548Y705767D1*
X1009974Y701456D1*
X1011433Y700030D1*
X1014285Y698571D1*
X871533Y1115167D2*
X868681Y1116593D1*
X865796Y1119478D1*
X864370Y1122330D1*
Y1128067D1*
X865796Y1130952D1*
X868681Y1133804D1*
X871533Y1135263D1*
X875844Y1136689D1*
X883040D1*
X887318Y1135263D1*
X890203Y1133804D1*
X893055Y1130952D1*
X894514Y1128067D1*
Y1122330D1*
X893055Y1119478D1*
X890203Y1116593D1*
X887318Y1115167D1*
X864403Y1105720D2*
Y1089968D1*
X875877Y1098557D1*
Y1094246D1*
X877303Y1091394D1*
X878729Y1089968D1*
X883040Y1088509D1*
X885892D1*
X890203Y1089968D1*
X893088Y1092820D1*
X894514Y1097131D1*
Y1101442D1*
X893088Y1105720D1*
X891629Y1107146D1*
X888777Y1108605D1*
X868681Y1064737D2*
X865829Y1066163D1*
X864403Y1070474D1*
Y1073325D1*
X865829Y1077636D1*
X870140Y1080522D1*
X877303Y1081947D1*
X884466D1*
X890203Y1080522D1*
X893088Y1077636D1*
X894514Y1073325D1*
Y1071899D1*
X893088Y1067622D1*
X890203Y1064737D1*
X885892Y1063311D1*
X884466D1*
X880155Y1064737D1*
X877303Y1067622D1*
X875877Y1071899D1*
Y1073325D1*
X877303Y1077636D1*
X880155Y1080522D1*
X884466Y1081947D1*
X870646Y453395D2*
X867794Y454821D1*
X864909Y457706D1*
X863483Y460558D1*
Y466295D1*
X864909Y469180D1*
X867794Y472032D1*
X870646Y473491D1*
X874957Y474917D1*
X882153D1*
X886431Y473491D1*
X889316Y472032D1*
X892168Y469180D1*
X893627Y466295D1*
Y460558D1*
X892168Y457706D1*
X889316Y454821D1*
X886431Y453395D1*
X863516Y443948D2*
Y428197D1*
X874990Y436785D1*
Y432474D1*
X876416Y429622D1*
X877842Y428197D1*
X882153Y426737D1*
X885005D1*
X889316Y428197D1*
X892201Y431048D1*
X893627Y435359D1*
Y439670D1*
X892201Y443948D1*
X890742Y445374D1*
X887890Y446833D1*
X893627Y414439D2*
X863516Y400080D1*
Y420176D1*
X3344319Y1612154D2*
X3341467Y1613580D1*
X3338582Y1616465D1*
X3337156Y1619317D1*
Y1625054D1*
X3338582Y1627939D1*
X3341467Y1630791D1*
X3344319Y1632250D1*
X3348630Y1633676D1*
X3355826D1*
X3360104Y1632250D1*
X3362989Y1630791D1*
X3365841Y1627939D1*
X3367300Y1625054D1*
Y1619317D1*
X3365841Y1616465D1*
X3362989Y1613580D1*
X3360104Y1612154D1*
X3337190Y1602707D2*
Y1586955D1*
X3348664Y1595544D1*
Y1591233D1*
X3350090Y1588382D1*
X3351516Y1586956D1*
X3355827Y1585497D1*
X3358679D1*
X3362990Y1586956D1*
X3365875Y1589808D1*
X3367301Y1594119D1*
Y1598430D1*
X3365875Y1602708D1*
X3364415Y1604134D1*
X3361564Y1605593D1*
X3337190Y1571772D2*
X3338616Y1576049D1*
X3341468Y1577509D1*
X3344353D1*
X3347205Y1576050D1*
X3348664Y1573198D1*
X3350090Y1567461D1*
X3351516Y1563150D1*
X3354401Y1560298D1*
X3357253Y1558872D1*
X3361564D1*
X3364416Y1560298D1*
X3365875Y1561724D1*
X3367301Y1566035D1*
Y1571772D1*
X3365875Y1576050D1*
X3364416Y1577509D1*
X3361564Y1578935D1*
X3357253D1*
X3354401Y1577509D1*
X3351516Y1574624D1*
X3350090Y1570346D1*
X3348664Y1564609D1*
X3347205Y1561724D1*
X3344353Y1560298D1*
X3341468D1*
X3338616Y1561724D1*
X3337190Y1566035D1*
Y1571772D1*
X3400569Y1611458D2*
X3397717Y1612884D1*
X3394832Y1615769D1*
X3393406Y1618620D1*
X3393405Y1624357D1*
X3394831Y1627243D1*
X3397716Y1630094D1*
X3400568Y1631554D1*
X3404879Y1632980D1*
X3412075D1*
X3416353Y1631554D1*
X3419238Y1630095D1*
X3422090Y1627243D1*
X3423549Y1624358D1*
X3423550Y1618621D1*
X3422091Y1615769D1*
X3419239Y1612884D1*
X3416354Y1611458D1*
X3393439Y1602011D2*
Y1586259D1*
X3404913Y1594848D1*
Y1590537D1*
X3406339Y1587685D1*
X3407765Y1586259D1*
X3412076Y1584800D1*
X3414928D1*
X3419239Y1586259D1*
X3422124Y1589111D1*
X3423550Y1593422D1*
Y1597733D1*
X3422124Y1602011D1*
X3420665Y1603437D1*
X3417813Y1604896D1*
X3403455Y1559568D2*
X3407766Y1561027D1*
X3410651Y1563879D1*
X3412077Y1568190D1*
Y1569616D1*
X3410651Y1573927D1*
X3407765Y1576779D1*
X3403454Y1578238D1*
X3402028D1*
X3397717Y1576779D1*
X3394866Y1573927D1*
X3393440Y1569616D1*
Y1568190D1*
X3394866Y1563879D1*
X3397718Y1561027D1*
X3403455Y1559568D1*
X3410651D1*
X3417814Y1561028D1*
X3422125Y1563880D1*
X3423551Y1568191D1*
X3423550Y1571043D1*
X3422124Y1575354D1*
X3419239Y1576779D1*
X3489860Y1998398D2*
X3493043Y1998589D1*
X3496984Y1997533D1*
X3499644Y1995776D1*
X3502513Y1990808D1*
X3502721Y1987597D1*
X3501648Y1983684D1*
X3499908Y1980995D1*
X3496887Y1977604D1*
X3490655Y1974006D1*
X3486238Y1973102D1*
X3483009Y1972923D1*
X3479114Y1973967D1*
X3476407Y1975736D1*
X3473539Y1980704D1*
X3473377Y1983904D1*
X3474404Y1987828D1*
X3476190Y1990506D1*
X3459497Y2005026D2*
X3485574Y2020081D1*
X3475379Y1997614D1*
X3464618Y2016253D1*
X3474401Y2039434D2*
X3475321Y2034987D1*
X3473030Y2030333D1*
X3467540Y2025517D1*
X3463807Y2023361D1*
X3456890Y2021015D1*
X3451714Y2021358D1*
X3448324Y2024378D1*
X3446898Y2026848D1*
X3445977Y2031295D1*
X3448285Y2035920D1*
X3453759Y2040765D1*
X3457492Y2042921D1*
X3464425Y2045238D1*
X3469584Y2044924D1*
X3472975Y2041904D1*
X3474401Y2039434D1*
X3464425Y2045238D2*
X3456890Y2021015D1*
X3535144Y2031046D2*
X3538327Y2031237D1*
X3542268Y2030181D1*
X3544929Y2028424D1*
X3547798Y2023456D1*
X3548005Y2020244D1*
X3546933Y2016332D1*
X3545192Y2013642D1*
X3542172Y2010252D1*
X3535940Y2006654D1*
X3531522Y2005750D1*
X3528294Y2005571D1*
X3524398Y2006615D1*
X3521692Y2008384D1*
X3518824Y2013352D1*
X3518661Y2016552D1*
X3519689Y2020476D1*
X3521474Y2023154D1*
X3504782Y2037673D2*
X3530859Y2052729D1*
X3520663Y2030262D1*
X3509902Y2048901D1*
X3519028Y2061746D2*
X3518849Y2064974D1*
X3520398Y2070847D1*
X3494322Y2055791D1*
X2270743Y563334D2*
X2272169Y566186D1*
X2275054Y569071D1*
X2277906Y570497D1*
X2283643D1*
X2286528Y569071D1*
X2289380Y566186D1*
X2290839Y563334D1*
X2292265Y559023D1*
Y551827D1*
X2290839Y547549D1*
X2289380Y544664D1*
X2286528Y541812D1*
X2283643Y540353D1*
X2277906D1*
X2275054Y541812D1*
X2272169Y544664D1*
X2270743Y547549D1*
X2249823Y540353D2*
Y570464D1*
X2264182Y550401D1*
X2242660D1*
X2234639Y563301D2*
Y564727D1*
X2233213Y567612D1*
X2231787Y569038D1*
X2228902Y570464D1*
X2223165D1*
X2220313Y569038D1*
X2218887Y567612D1*
X2217428Y564727D1*
Y561875D1*
X2218887Y558990D1*
X2221739Y554712D1*
X2236098Y540353D1*
X2216002D1*
X3479421Y1612884D2*
X3476569Y1614310D1*
X3473684Y1617195D1*
X3472258Y1620047D1*
Y1625784D1*
X3473684Y1628669D1*
X3476569Y1631521D1*
X3479421Y1632980D1*
X3483732Y1634406D1*
X3490928D1*
X3495206Y1632980D1*
X3498091Y1631521D1*
X3500943Y1628669D1*
X3502402Y1625784D1*
Y1620047D1*
X3500943Y1617195D1*
X3498091Y1614310D1*
X3495206Y1612884D1*
X3502402Y1591963D2*
X3472292D1*
X3492354Y1606322D1*
Y1584800D1*
X3472292Y1575353D2*
Y1559601D1*
X3483766Y1568190D1*
Y1563879D1*
X3485191Y1561027D1*
X3486617Y1559601D1*
X3490928Y1558142D1*
X3493780D1*
X3498091Y1559601D1*
X3500976Y1562453D1*
X3502402Y1566764D1*
Y1571075D1*
X3500976Y1575353D1*
X3499517Y1576779D1*
X3496665Y1578238D1*
X3529421Y1613598D2*
X3526569Y1615024D1*
X3523684Y1617909D1*
X3522258Y1620761D1*
Y1626498D1*
X3523684Y1629383D1*
X3526569Y1632235D1*
X3529421Y1633694D1*
X3533732Y1635120D1*
X3540928D1*
X3545206Y1633694D1*
X3548091Y1632235D1*
X3550943Y1629383D1*
X3552402Y1626498D1*
Y1620761D1*
X3550943Y1617909D1*
X3548091Y1615024D1*
X3545206Y1613598D1*
X3552402Y1592677D2*
X3522292D1*
X3542354Y1607036D1*
Y1585514D1*
X3552402Y1564594D2*
X3522292D1*
X3542354Y1578953D1*
Y1557431D1*
X1525769Y877140D2*
X1528621Y875714D1*
X1531506Y872829D1*
X1532932Y869977D1*
Y864240D1*
X1531506Y861355D1*
X1528621Y858503D1*
X1525770Y857044D1*
X1521459Y855618D1*
X1514262Y855617D1*
X1509985Y857043D1*
X1507099Y858502D1*
X1504247Y861354D1*
X1502788Y864239D1*
Y869976D1*
X1504247Y872828D1*
X1507099Y875713D1*
X1509984Y877139D1*
X1502787Y898059D2*
X1532898Y898061D1*
X1512835Y883701D1*
X1512834Y905223D1*
X1532896Y928996D2*
X1532897Y914670D1*
X1519997Y913244D1*
X1521423Y914670D1*
X1522882Y918981D1*
Y923259D1*
X1521422Y927570D1*
X1518570Y930455D1*
X1514259Y931881D1*
X1511407Y931880D1*
X1507096Y930454D1*
X1504212Y927569D1*
X1502786Y923258D1*
Y918980D1*
X1504212Y914669D1*
X1505671Y913243D1*
X1508523Y911784D1*
X1525769Y665368D2*
X1528621Y663942D1*
X1531506Y661057D1*
X1532932Y658205D1*
Y652468D1*
X1531506Y649583D1*
X1528621Y646731D1*
X1525769Y645272D1*
X1521459Y643846D1*
X1514262D1*
X1509984Y645271D1*
X1507099Y646730D1*
X1504247Y649582D1*
X1502788Y652467D1*
Y658204D1*
X1504247Y661056D1*
X1507099Y663941D1*
X1509984Y665367D1*
X1502787Y686288D2*
X1532898Y686289D1*
X1512835Y671929D1*
X1512834Y693451D1*
X1528618Y717224D2*
X1531470Y715798D1*
X1532897Y711488D1*
Y708636D1*
X1531471Y704325D1*
X1527160Y701439D1*
X1519997Y700013D1*
X1512834D1*
X1507097Y701438D1*
X1504212Y704323D1*
X1502786Y708634D1*
Y710060D1*
X1504212Y714338D1*
X1507097Y717223D1*
X1511407Y718650D1*
X1512833D1*
X1517145Y717224D1*
X1519997Y714339D1*
X1521423Y710061D1*
Y708635D1*
X1519997Y704324D1*
X1517145Y701439D1*
X1512834Y700013D1*
X1396533Y1116609D2*
X1393681Y1118035D1*
X1390796Y1120920D1*
X1389370Y1123772D1*
Y1129509D1*
X1390796Y1132394D1*
X1393681Y1135246D1*
X1396533Y1136705D1*
X1400844Y1138131D1*
X1408040D1*
X1412318Y1136705D1*
X1415203Y1135246D1*
X1418055Y1132394D1*
X1419514Y1129509D1*
Y1123772D1*
X1418055Y1120920D1*
X1415203Y1118035D1*
X1412318Y1116609D1*
X1419514Y1095689D2*
X1389403D1*
X1409466Y1110048D1*
Y1088526D1*
X1419514Y1076227D2*
X1389403Y1061868D1*
Y1081964D1*
X1395646Y454091D2*
X1392794Y455517D1*
X1389909Y458403D1*
X1388483Y461254D1*
Y466991D1*
X1389909Y469876D1*
X1392794Y472728D1*
X1395646Y474187D1*
X1399957Y475613D1*
X1407153D1*
X1411431Y474187D1*
X1414316Y472728D1*
X1417168Y469876D1*
X1418627Y466991D1*
Y461254D1*
X1417168Y458403D1*
X1414316Y455517D1*
X1411431Y454091D1*
X1418627Y433171D2*
X1388516D1*
X1408579Y447530D1*
Y426008D1*
X1388516Y412283D2*
X1389942Y416561D1*
X1392794Y418020D1*
X1395679D1*
X1398531Y416561D1*
X1399990Y413709D1*
X1401416Y407972D1*
X1402842Y403661D1*
X1405727Y400809D1*
X1408579Y399383D1*
X1412890D1*
X1415742Y400809D1*
X1417201Y402235D1*
X1418627Y406546D1*
Y412283D1*
X1417201Y416561D1*
X1415742Y418020D1*
X1412890Y419446D1*
X1408579D1*
X1405727Y418020D1*
X1402842Y415135D1*
X1401416Y410857D1*
X1399990Y405120D1*
X1398531Y402235D1*
X1395679Y400809D1*
X1392794D1*
X1389942Y402235D1*
X1388516Y406546D1*
Y412283D1*
X1129051Y2322216D2*
X1130477Y2325068D1*
X1133362Y2327953D1*
X1136214Y2329379D1*
X1141951D1*
X1144836Y2327953D1*
X1147688Y2325068D1*
X1149147Y2322216D1*
X1150573Y2317905D1*
Y2310709D1*
X1149147Y2306431D1*
X1147688Y2303546D1*
X1144836Y2300694D1*
X1141951Y2299235D1*
X1136214D1*
X1133362Y2300694D1*
X1130477Y2303546D1*
X1129051Y2306431D1*
X1108131Y2299235D2*
Y2329346D1*
X1122490Y2309283D1*
X1100968D1*
X1075736Y2319331D2*
X1077195Y2315020D1*
X1080047Y2312135D1*
X1084358Y2310709D1*
X1085784D1*
X1090095Y2312135D1*
X1092947Y2315020D1*
X1094406Y2319331D1*
Y2320757D1*
X1092947Y2325068D1*
X1090095Y2327920D1*
X1085784Y2329346D1*
X1084358D1*
X1080047Y2327920D1*
X1077195Y2325068D1*
X1075736Y2319331D1*
Y2312135D1*
X1077195Y2304972D1*
X1080047Y2300661D1*
X1084358Y2299235D1*
X1087210D1*
X1091521Y2300661D1*
X1092947Y2303546D1*
X2037139Y884104D2*
X2039991Y882678D1*
X2042876Y879793D1*
X2044303Y876942D1*
Y871205D1*
X2042877Y868319D1*
X2039993Y865467D1*
X2037141Y864008D1*
X2032830Y862582D1*
X2025634Y862581D1*
X2021356Y864006D1*
X2018471Y865465D1*
X2015618Y868317D1*
X2014159Y871202D1*
Y876939D1*
X2015617Y879791D1*
X2018469Y882676D1*
X2021354Y884103D1*
X2044267Y907877D2*
X2044268Y893551D1*
X2031368Y892124D1*
X2032794Y893550D1*
X2034253Y897861D1*
X2034252Y902139D1*
X2032793Y906450D1*
X2029941Y909335D1*
X2025630Y910761D1*
X2022778Y910760D1*
X2018467Y909334D1*
X2015582Y906449D1*
X2014156Y902138D1*
X2014157Y897860D1*
X2015583Y893549D1*
X2017042Y892123D1*
X2019894Y890664D1*
X2044265Y925946D2*
X2042840Y921635D1*
X2038529Y918749D1*
X2031366Y917323D1*
X2027055Y917322D1*
X2019892Y918748D1*
X2015581Y921632D1*
X2014154Y925943D1*
Y928795D1*
X2015580Y933106D1*
X2019891Y935959D1*
X2027053Y937418D1*
X2031364Y937419D1*
X2038527Y935960D1*
X2042839Y933109D1*
X2044265Y928798D1*
Y925946D1*
X2038527Y935960D2*
X2019892Y918748D1*
X2037138Y671801D2*
X2039990Y670375D1*
X2042876Y667490D1*
X2044302Y664638D1*
Y658902D1*
X2042876Y656016D1*
X2039991Y653164D1*
X2037140Y651705D1*
X2032829Y650279D1*
X2025633Y650278D1*
X2021355Y651704D1*
X2018469Y653163D1*
X2015617Y656015D1*
X2014158Y658900D1*
Y664637D1*
X2015617Y667489D1*
X2018469Y670374D1*
X2021354Y671800D1*
X2044267Y695574D2*
X2044268Y681248D1*
X2031368Y679821D1*
X2032794Y681248D1*
X2034253Y685559D1*
X2034252Y689836D1*
X2032793Y694147D1*
X2029941Y697032D1*
X2025630Y698458D1*
X2022778D1*
X2018467Y697032D1*
X2015582Y694146D1*
X2014156Y689835D1*
X2014157Y685558D1*
X2015583Y681247D1*
X2017042Y679821D1*
X2019894Y678362D1*
X2038529Y705020D2*
X2039988Y707906D1*
X2044266Y712217D1*
X2014155Y712215D1*
X3141135Y1462404D2*
X3144160Y1463412D1*
X3148240D1*
X3151265Y1462404D1*
X3155321Y1458347D1*
X3156353Y1455299D1*
X3156330Y1451242D1*
X3155345Y1448194D1*
X3153305Y1444137D1*
X3148216Y1439049D1*
X3144183Y1437032D1*
X3141111Y1436024D1*
X3137078D1*
X3134006Y1437032D1*
X3129950Y1441089D1*
X3128965Y1444137D1*
X3128941Y1448194D1*
X3129973Y1451242D1*
X3129367Y1484255D2*
X3139496Y1474125D1*
X3131383Y1463995D1*
Y1466012D1*
X3129367Y1470092D1*
X3126342Y1473117D1*
X3122262Y1475134D1*
X3118205Y1475157D1*
X3114148Y1473117D1*
X3112132Y1471100D1*
X3110092Y1467044D1*
Y1462964D1*
X3112132Y1458907D1*
X3115157Y1455882D1*
X3119213Y1453842D1*
X3121253Y1453865D1*
X3124302Y1454850D1*
X3116590Y1486902D2*
X3117598Y1487910D1*
X3118630Y1490958D1*
Y1492975D1*
X3117598Y1496023D1*
X3113542Y1500080D1*
X3110517Y1501088D1*
X3108500D1*
X3105428Y1500080D1*
X3103412Y1498063D1*
X3102403Y1494992D1*
X3101395Y1489950D1*
Y1469643D1*
X3087185Y1483853D1*
X3111884Y2166844D2*
X3110876Y2169869D1*
Y2173949D1*
X3111884Y2176974D1*
X3115941Y2181031D1*
X3118989Y2182063D1*
X3123046Y2182039D1*
X3126094Y2181054D1*
X3130151Y2179014D1*
X3135239Y2173926D1*
X3137256Y2169893D1*
X3138264Y2166821D1*
Y2162788D1*
X3137256Y2159716D1*
X3133199Y2155659D1*
X3130151Y2154674D1*
X3126094Y2154651D1*
X3123046Y2155683D1*
X3090033Y2155076D2*
X3100162Y2165206D1*
X3110292Y2157093D1*
X3108276D1*
X3104196Y2155076D1*
X3101171Y2152051D1*
X3099154Y2147971D1*
X3099131Y2143914D1*
X3101171Y2139858D1*
X3103187Y2137841D1*
X3107244Y2135801D1*
X3111324D1*
X3115381Y2137841D1*
X3118406Y2140866D1*
X3120446Y2144923D1*
X3120422Y2146963D1*
X3119437Y2150011D1*
X3081313Y2146356D2*
X3070174Y2135218D1*
X3084361Y2133178D1*
X3081313Y2130130D1*
X3080304Y2127105D1*
Y2125088D1*
X3082321Y2121008D1*
X3084338Y2118991D1*
X3088418Y2116975D1*
X3092474Y2116951D1*
X3096531Y2118991D1*
X3099579Y2122040D1*
X3101596Y2126073D1*
X3101572Y2128113D1*
X3100588Y2131161D1*
X3179849Y1537610D2*
X3182874Y1538619D1*
X3186954D1*
X3189979Y1537611D1*
X3194036Y1533554D1*
X3195067Y1530506D1*
X3195044Y1526449D1*
X3194059Y1523401D1*
X3192019Y1519344D1*
X3186931Y1514256D1*
X3182898Y1512239D1*
X3179826Y1511230D1*
X3175793D1*
X3172721Y1512239D1*
X3168664Y1516295D1*
X3167679Y1519344D1*
X3167656Y1523400D1*
X3168688Y1526449D1*
X3168080Y1559461D2*
X3178210Y1549332D1*
X3170097Y1539202D1*
Y1541218D1*
X3168081Y1545298D1*
X3165056Y1548323D1*
X3160975Y1550340D1*
X3156919Y1550363D1*
X3152862Y1548323D1*
X3150846Y1546306D1*
X3148806Y1542250D1*
Y1538170D1*
X3150846Y1534113D1*
X3153871Y1531088D1*
X3157928Y1529048D1*
X3159968Y1529072D1*
X3163016Y1530056D1*
X3129956Y1555002D2*
X3151247Y1576294D1*
X3147214Y1551954D1*
X3131995Y1567172D1*
X3086886Y2223095D2*
X3085877Y2226120D1*
Y2230200D1*
X3086886Y2233225D1*
X3090942Y2237281D1*
X3093991Y2238313D1*
X3098047Y2238290D1*
X3101096Y2237305D1*
X3105152Y2235265D1*
X3110241Y2230176D1*
X3112257Y2226143D1*
X3113266Y2223071D1*
Y2219038D1*
X3112257Y2215966D1*
X3108201Y2211910D1*
X3105152Y2210925D1*
X3101096Y2210901D1*
X3098047Y2211933D1*
X3065034Y2211327D2*
X3075164Y2221457D1*
X3085294Y2213343D1*
X3083278D1*
X3079197Y2211327D1*
X3076173Y2208302D1*
X3074156Y2204222D1*
X3074133Y2200165D1*
X3076173Y2196108D1*
X3078189Y2194092D1*
X3082246Y2192052D1*
X3086326D1*
X3090383Y2194092D1*
X3093407Y2197117D1*
X3095448Y2201173D1*
X3095424Y2203213D1*
X3094439Y2206262D1*
X3046185Y2192477D2*
X3056314Y2202607D1*
X3066444Y2194493D1*
X3064428D1*
X3060348Y2192477D1*
X3057323Y2189452D1*
X3055306Y2185372D1*
X3055283Y2181315D1*
X3057323Y2177258D1*
X3059339Y2175242D1*
X3063396Y2173202D1*
X3067476D1*
X3071533Y2175242D1*
X3074558Y2178267D1*
X3076598Y2182323D1*
X3076574Y2184363D1*
X3075589Y2187412D1*
X3228830Y1576128D2*
X3231855Y1577137D1*
X3235935D1*
X3238960Y1576128D1*
X3243016Y1572072D1*
X3244048Y1569023D1*
X3244025Y1564967D1*
X3243040Y1561918D1*
X3241000Y1557862D1*
X3235911Y1552773D1*
X3231878Y1550757D1*
X3228806Y1549748D1*
X3224773D1*
X3221701Y1550757D1*
X3217645Y1554813D1*
X3216660Y1557862D1*
X3216636Y1561918D1*
X3217668Y1564967D1*
X3217062Y1597980D2*
X3227191Y1587850D1*
X3219078Y1577720D1*
Y1579736D1*
X3217062Y1583816D1*
X3214037Y1586841D1*
X3209957Y1588858D1*
X3205900Y1588881D1*
X3201843Y1586841D1*
X3199827Y1584825D1*
X3197787Y1580768D1*
Y1576688D1*
X3199827Y1572631D1*
X3202851Y1569606D1*
X3206908Y1567566D1*
X3208948Y1567590D1*
X3211997Y1568575D1*
X3195187Y1613804D2*
X3198212Y1614813D1*
X3202268Y1612773D1*
X3204285Y1610756D1*
X3206325Y1606699D1*
X3205317Y1601611D1*
X3201260Y1595538D1*
X3196195Y1590473D1*
X3191130Y1587424D1*
X3187050D1*
X3182993Y1589465D1*
X3181985Y1590473D1*
X3179968Y1594506D1*
Y1598586D1*
X3182009Y1602643D1*
X3183017Y1603651D1*
X3187073Y1605691D1*
X3191130Y1605668D1*
X3195163Y1603651D1*
X3196172Y1602643D1*
X3198212Y1598586D1*
X3198235Y1594529D1*
X3196195Y1590473D1*
X2402589Y1513642D2*
X2401580Y1516667D1*
Y1520747D1*
X2402589Y1523772D1*
X2406645Y1527829D1*
X2409694Y1528860D1*
X2413750Y1528837D1*
X2416799Y1527852D1*
X2420855Y1525812D1*
X2425944Y1520724D1*
X2427960Y1516690D1*
X2428969Y1513619D1*
Y1509585D1*
X2427960Y1506514D1*
X2423904Y1502457D1*
X2420855Y1501472D1*
X2416799Y1501449D1*
X2413750Y1502480D1*
X2380737Y1501874D2*
X2390867Y1512004D1*
X2400997Y1503890D1*
X2398981D1*
X2394901Y1501874D1*
X2391876Y1498849D1*
X2389859Y1494769D1*
X2389836Y1490712D1*
X2391876Y1486655D1*
X2393892Y1484639D1*
X2397949Y1482599D1*
X2402029D1*
X2406086Y1484639D1*
X2409111Y1487664D1*
X2411151Y1491720D1*
X2411127Y1493760D1*
X2410142Y1496809D1*
X2391292Y1469846D2*
X2359848Y1480984D1*
X2374058Y1495194D1*
X2300421Y2046712D2*
X2303446Y2047720D1*
X2307526D1*
X2310551Y2046712D1*
X2314607Y2042655D1*
X2315639Y2039607D1*
X2315616Y2035550D1*
X2314631Y2032502D1*
X2312591Y2028445D1*
X2307502Y2023357D1*
X2303469Y2021340D1*
X2300397Y2020332D1*
X2296364D1*
X2293292Y2021340D1*
X2289236Y2025397D1*
X2288251Y2028445D1*
X2288227Y2032502D1*
X2289259Y2035550D1*
X2288653Y2068563D2*
X2298782Y2058433D1*
X2290669Y2048304D1*
Y2050320D1*
X2288653Y2054400D1*
X2285628Y2057425D1*
X2281548Y2059442D1*
X2277491Y2059465D1*
X2273434Y2057425D1*
X2271418Y2055409D1*
X2269378Y2051352D1*
Y2047272D1*
X2271418Y2043215D1*
X2274443Y2040190D1*
X2278499Y2038150D1*
X2280539Y2038174D1*
X2283588Y2039158D1*
X2276908Y2080308D2*
X2278924Y2076275D1*
X2277939Y2073227D1*
X2275899Y2071187D1*
X2272851Y2070202D1*
X2269803Y2071187D1*
X2264738Y2074235D1*
X2260681Y2076275D1*
X2256624Y2076252D1*
X2253600Y2075243D1*
X2250551Y2072195D1*
X2249543Y2069170D1*
X2249519Y2067130D1*
X2251560Y2063073D1*
X2255616Y2059017D1*
X2259649Y2057000D1*
X2261713D1*
X2264738Y2058008D1*
X2267786Y2061057D1*
X2268794Y2064082D1*
Y2068162D1*
X2266778Y2072195D1*
X2263729Y2077260D1*
X2262721Y2080332D1*
X2263729Y2083357D1*
X2265770Y2085397D1*
X2268794Y2086405D1*
X2272851Y2084365D1*
X2276908Y2080308D1*
X2445585Y1682400D2*
X2444577Y1685425D1*
Y1689505D1*
X2445585Y1692530D1*
X2449642Y1696586D1*
X2452690Y1697618D1*
X2456747Y1697595D1*
X2459795Y1696610D1*
X2463852Y1694570D1*
X2468941Y1689481D1*
X2470957Y1685448D1*
X2471965Y1682376D1*
Y1678343D1*
X2470957Y1675271D1*
X2466900Y1671215D1*
X2463852Y1670230D1*
X2459795Y1670206D1*
X2456747Y1671238D1*
X2423734Y1670631D2*
X2433864Y1680761D1*
X2443994Y1672648D1*
X2441977D1*
X2437897Y1670631D1*
X2434872Y1667606D1*
X2432856Y1663526D1*
X2432832Y1659470D1*
X2434872Y1655413D1*
X2436889Y1653396D1*
X2440946Y1651356D1*
X2445026D1*
X2449082Y1653396D1*
X2452107Y1656421D1*
X2454147Y1660478D1*
X2454124Y1662518D1*
X2453139Y1665566D1*
X2410934Y1643668D2*
X2415014Y1641652D1*
X2419071Y1641628D1*
X2423128Y1643668D1*
X2424136Y1644677D1*
X2426176Y1648733D1*
X2426152Y1652790D1*
X2424136Y1656870D1*
X2423128Y1657878D1*
X2419047Y1659895D1*
X2415014D1*
X2410958Y1657855D1*
X2409949Y1656847D1*
X2407909Y1652790D1*
Y1648757D1*
X2410934Y1643668D1*
X2416023Y1638580D1*
X2422119Y1634547D1*
X2427184Y1633515D1*
X2431241Y1635555D1*
X2433257Y1637572D1*
X2435298Y1641628D1*
X2434266Y1644677D1*
X2433916Y1910603D2*
X2435342Y1913455D1*
X2438227Y1916340D1*
X2441079Y1917766D1*
X2446816D1*
X2449701Y1916340D1*
X2452553Y1913455D1*
X2454012Y1910603D1*
X2455438Y1906292D1*
Y1899096D1*
X2454012Y1894818D1*
X2452553Y1891933D1*
X2449701Y1889081D1*
X2446816Y1887622D1*
X2441079D1*
X2438227Y1889081D1*
X2435342Y1891933D1*
X2433916Y1894818D1*
X2410144Y1913455D2*
X2411570Y1916307D1*
X2415881Y1917733D1*
X2418732D1*
X2423043Y1916307D1*
X2425929Y1911996D1*
X2427355Y1904833D1*
Y1897670D1*
X2425929Y1891933D1*
X2423043Y1889048D1*
X2418732Y1887622D1*
X2417307D1*
X2413029Y1889048D1*
X2410144Y1891933D1*
X2408718Y1896244D1*
Y1897670D1*
X2410144Y1901981D1*
X2413029Y1904833D1*
X2417307Y1906259D1*
X2418732D1*
X2423043Y1904833D1*
X2425929Y1901981D1*
X2427355Y1897670D1*
X2393534Y1917733D2*
X2397845Y1916307D1*
X2400730Y1911996D1*
X2402156Y1904833D1*
Y1900522D1*
X2400730Y1893359D1*
X2397845Y1889048D1*
X2393534Y1887622D1*
X2390682D1*
X2386371Y1889048D1*
X2383519Y1893359D1*
X2382060Y1900522D1*
Y1904833D1*
X2383519Y1911996D1*
X2386371Y1916307D1*
X2390682Y1917733D1*
X2393534D1*
X2383519Y1911996D2*
X2400730Y1893359D1*
X2393805Y1721031D2*
X2392796Y1724056D1*
Y1728136D1*
X2393805Y1731161D1*
X2397861Y1735218D1*
X2400910Y1736250D1*
X2404966Y1736226D1*
X2408015Y1735241D1*
X2412071Y1733201D1*
X2417160Y1728113D1*
X2419176Y1724080D1*
X2420185Y1721008D1*
Y1716975D1*
X2419176Y1713903D1*
X2415120Y1709846D1*
X2412071Y1708861D1*
X2408015Y1708838D1*
X2404966Y1709870D1*
X2374978Y1706238D2*
X2373970Y1709263D1*
X2376010Y1713320D1*
X2378027Y1715336D1*
X2382083Y1717376D1*
X2387172Y1716368D1*
X2393245Y1712311D1*
X2398310Y1707247D1*
X2401358Y1702182D1*
Y1698101D1*
X2399318Y1694045D1*
X2398310Y1693036D1*
X2394277Y1691020D1*
X2390197D1*
X2386140Y1693060D1*
X2385132Y1694068D1*
X2383092Y1698125D1*
X2383115Y1702182D1*
X2385132Y1706215D1*
X2386140Y1707223D1*
X2390197Y1709263D1*
X2394253Y1709287D1*
X2398310Y1707247D1*
X2370362Y1699558D2*
X2367290Y1698550D1*
X2361217Y1698527D1*
X2382508Y1677235D1*
X1934033Y1111785D2*
X1931181Y1113211D1*
X1928296Y1116096D1*
X1926870Y1118948D1*
Y1124685D1*
X1928296Y1127570D1*
X1931181Y1130422D1*
X1934033Y1131881D1*
X1938344Y1133307D1*
X1945540D1*
X1949818Y1131881D1*
X1952703Y1130422D1*
X1955555Y1127570D1*
X1957014Y1124685D1*
Y1118948D1*
X1955555Y1116096D1*
X1952703Y1113211D1*
X1949818Y1111785D1*
X1931181Y1088012D2*
X1928329Y1089438D1*
X1926903Y1093749D1*
Y1096601D1*
X1928329Y1100912D1*
X1932640Y1103797D1*
X1939803Y1105223D1*
X1946966D1*
X1952703Y1103797D1*
X1955588Y1100912D1*
X1957014Y1096601D1*
Y1095175D1*
X1955588Y1090897D1*
X1952703Y1088012D1*
X1948392Y1086586D1*
X1946966D1*
X1942655Y1088012D1*
X1939803Y1090897D1*
X1938377Y1095175D1*
Y1096601D1*
X1939803Y1100912D1*
X1942655Y1103797D1*
X1946966Y1105223D1*
X1934066Y1078566D2*
X1932640D1*
X1929755Y1077140D1*
X1928329Y1075714D1*
X1926903Y1072829D1*
Y1067092D1*
X1928329Y1064240D1*
X1929755Y1062814D1*
X1932640Y1061355D1*
X1935492D1*
X1938377Y1062814D1*
X1942655Y1065666D1*
X1957014Y1080025D1*
Y1059929D1*
X1914396Y452666D2*
X1911544Y454091D1*
X1908659Y456977D1*
X1907233Y459828D1*
Y465565D1*
X1908659Y468451D1*
X1911544Y471302D1*
X1914396Y472762D1*
X1918707Y474187D1*
X1925903D1*
X1930181Y472762D1*
X1933066Y471302D1*
X1935918Y468451D1*
X1937377Y465565D1*
Y459828D1*
X1935918Y456977D1*
X1933066Y454091D1*
X1930181Y452666D1*
X1911544Y428893D2*
X1908693Y430319D1*
X1907267Y434630D1*
Y437482D1*
X1908693Y441793D1*
X1913004Y444678D1*
X1920167Y446104D1*
X1927329D1*
X1933066Y444678D1*
X1935952Y441793D1*
X1937377Y437482D1*
Y436056D1*
X1935952Y431778D1*
X1933066Y428893D1*
X1928755Y427467D1*
X1927329D1*
X1923018Y428893D1*
X1920167Y431778D1*
X1918741Y436056D1*
Y437482D1*
X1920167Y441793D1*
X1923018Y444678D1*
X1927329Y446104D1*
X1907267Y418020D2*
Y402268D1*
X1918741Y410857D1*
Y406546D1*
X1920167Y403694D1*
X1921592Y402268D1*
X1925903Y400809D1*
X1928755D1*
X1933066Y402268D1*
X1935952Y405120D1*
X1937377Y409431D1*
Y413742D1*
X1935952Y418020D1*
X1934492Y419446D1*
X1931640Y420905D1*
X2705119Y2235079D2*
X2704111Y2238104D1*
X2704110Y2242184D1*
X2705119Y2245209D1*
X2709175Y2249266D1*
X2712224Y2250297D1*
X2716280Y2250274D1*
X2719329Y2249289D1*
X2723385Y2247249D1*
X2728474Y2242161D1*
X2730491Y2238128D1*
X2731499Y2235056D1*
Y2231023D1*
X2730491Y2227951D1*
X2726434Y2223894D1*
X2723386Y2222909D1*
X2719329Y2222886D1*
X2716281Y2223918D1*
X2686293Y2220285D2*
X2685285Y2223310D1*
X2687324Y2227367D1*
X2689341Y2229384D1*
X2693398Y2231424D1*
X2698486Y2230416D1*
X2704559Y2226359D1*
X2709625Y2221294D1*
X2712673Y2216229D1*
Y2212149D1*
X2710633Y2208092D1*
X2709625Y2207084D1*
X2705592Y2205067D1*
X2701512D1*
X2697455Y2207107D1*
X2696447Y2208116D1*
X2694406Y2212172D1*
X2694430Y2216229D1*
X2696446Y2220262D1*
X2697455Y2221270D1*
X2701511Y2223311D1*
X2705568Y2223334D1*
X2709625Y2221294D1*
X2665450Y2205492D2*
X2675580Y2215622D1*
X2685710Y2207509D1*
X2683693D1*
X2679613Y2205492D1*
X2676589Y2202467D1*
X2674572Y2198387D1*
X2674549Y2194330D1*
X2676589Y2190274D1*
X2678605Y2188257D1*
X2682662Y2186217D1*
X2686742D1*
X2690799Y2188257D1*
X2693824Y2191282D1*
X2695864Y2195339D1*
X2695840Y2197379D1*
X2694855Y2200427D1*
X2450110Y2217193D2*
X2453135Y2218201D1*
X2457215D1*
X2460240Y2217193D1*
X2464296Y2213136D1*
X2465328Y2210088D1*
X2465305Y2206031D1*
X2464320Y2202983D1*
X2462280Y2198926D1*
X2457191Y2193838D1*
X2453158Y2191821D1*
X2450086Y2190813D1*
X2446053D1*
X2442981Y2191821D1*
X2438925Y2195878D1*
X2437940Y2198926D1*
X2437916Y2202983D1*
X2438948Y2206031D1*
X2435317Y2236019D2*
X2438341Y2237027D1*
X2442398Y2234987D1*
X2444415Y2232971D1*
X2446455Y2228914D1*
X2445446Y2223826D1*
X2441390Y2217752D1*
X2436325Y2212687D1*
X2431260Y2209639D1*
X2427180D1*
X2423123Y2211679D1*
X2422115Y2212687D1*
X2420098Y2216721D1*
Y2220801D1*
X2422138Y2224857D1*
X2423147Y2225866D1*
X2427203Y2227906D1*
X2431260Y2227882D1*
X2435293Y2225866D1*
X2436301Y2224857D1*
X2438341Y2220801D1*
X2438365Y2216744D1*
X2436325Y2212687D1*
X2417498Y2253837D2*
X2420523Y2254846D1*
X2424580Y2252805D1*
X2426597Y2250789D1*
X2428637Y2246732D1*
X2427628Y2241644D1*
X2423572Y2235571D1*
X2418507Y2230506D1*
X2413442Y2227457D1*
X2409362D1*
X2405305Y2229497D1*
X2404297Y2230506D1*
X2402280Y2234539D1*
Y2238619D1*
X2404320Y2242676D1*
X2405329Y2243684D1*
X2409385Y2245724D1*
X2413442Y2245700D1*
X2417475Y2243684D1*
X2418483Y2242676D1*
X2420523Y2238619D1*
X2420547Y2234562D1*
X2418507Y2230506D1*
X2343666Y2084716D2*
X2346691Y2085725D1*
X2350771D1*
X2353796Y2084716D1*
X2357853Y2080660D1*
X2358884Y2077611D1*
X2358861Y2073555D1*
X2357876Y2070506D1*
X2355836Y2066450D1*
X2350748Y2061361D1*
X2346714Y2059345D1*
X2343643Y2058336D1*
X2339609D1*
X2336538Y2059345D1*
X2332481Y2063401D1*
X2331496Y2066450D1*
X2331473Y2070506D1*
X2332504Y2073555D1*
X2328873Y2103543D2*
X2331898Y2104551D1*
X2335954Y2102511D1*
X2337971Y2100494D1*
X2340011Y2096438D1*
X2339003Y2091349D1*
X2334946Y2085276D1*
X2329881Y2080211D1*
X2324816Y2077163D1*
X2320736D1*
X2316679Y2079203D1*
X2315671Y2080211D1*
X2313655Y2084244D1*
Y2088324D1*
X2315695Y2092381D1*
X2316703Y2093389D1*
X2320760Y2095429D1*
X2324816Y2095406D1*
X2328849Y2093389D1*
X2329858Y2092381D1*
X2331898Y2088324D1*
X2331921Y2084268D1*
X2329881Y2080211D1*
X2300901Y2094981D2*
X2312040Y2126426D1*
X2326250Y2112216D1*
X2346378Y2183923D2*
X2349403Y2184932D1*
X2353483D1*
X2356508Y2183924D1*
X2360565Y2179867D1*
X2361597Y2176819D1*
X2361574Y2172762D1*
X2360589Y2169714D1*
X2358549Y2165657D1*
X2353461Y2160569D1*
X2349428Y2158552D1*
X2346356Y2157544D1*
X2342323Y2157543D1*
X2339251Y2158552D1*
X2335194Y2162608D1*
X2334209Y2165656D1*
X2334185Y2169713D1*
X2335217Y2172761D1*
X2331584Y2202749D2*
X2334609Y2203758D1*
X2338666Y2201718D1*
X2340683Y2199701D1*
X2342723Y2195645D1*
X2341715Y2190556D1*
X2337658Y2184483D1*
X2332593Y2179418D1*
X2327529Y2176369D1*
X2323449D1*
X2319392Y2178409D1*
X2318383Y2179417D1*
X2316367Y2183450D1*
Y2187530D1*
X2318406Y2191587D1*
X2319415Y2192595D1*
X2323471Y2194636D1*
X2327528Y2194612D1*
X2331561Y2192596D1*
X2332570Y2191588D1*
X2334610Y2187531D1*
X2334633Y2183474D1*
X2332593Y2179418D1*
X2323895Y2216487D2*
X2325912Y2212454D1*
X2324928Y2209405D1*
X2322888Y2207365D1*
X2319839Y2206380D1*
X2316791Y2207365D1*
X2311726Y2210413D1*
X2307669Y2212453D1*
X2303612Y2212429D1*
X2300587Y2211421D1*
X2297539Y2208372D1*
X2296531Y2205348D1*
X2296508Y2203307D1*
X2298548Y2199251D1*
X2302605Y2195194D1*
X2306638Y2193178D1*
X2308702D1*
X2311726Y2194186D1*
X2314775Y2197235D1*
X2315783Y2200260D1*
Y2204340D1*
X2313766Y2208373D1*
X2310717Y2213438D1*
X2309709Y2216510D1*
X2310717Y2219535D1*
X2312757Y2221575D1*
X2315782Y2222583D1*
X2319839Y2220543D1*
X2323895Y2216487D1*
X2721455Y1407262D2*
X2724480Y1408270D1*
X2728560D1*
X2731585Y1407262D1*
X2735641Y1403205D1*
X2736673Y1400157D1*
X2736650Y1396100D1*
X2735665Y1393052D1*
X2733625Y1388995D1*
X2728537Y1383907D1*
X2724504Y1381890D1*
X2721432Y1380882D1*
X2717399D1*
X2714327Y1381890D1*
X2710270Y1385947D1*
X2709285Y1388995D1*
X2709262Y1393052D1*
X2710293Y1396100D1*
X2706661Y1426088D2*
X2709686Y1427096D1*
X2713743Y1425056D1*
X2715759Y1423040D1*
X2717800Y1418983D1*
X2716791Y1413895D1*
X2712735Y1407821D1*
X2707670Y1402756D1*
X2702605Y1399708D1*
X2698525D1*
X2694468Y1401748D1*
X2693460Y1402756D1*
X2691443Y1406789D1*
Y1410869D1*
X2693483Y1414926D1*
X2694492Y1415934D1*
X2698548Y1417974D1*
X2702605Y1417951D1*
X2706638Y1415935D1*
X2707646Y1414926D1*
X2709686Y1410870D1*
X2709710Y1406813D1*
X2707670Y1402756D1*
X2683754Y1440881D2*
X2681738Y1436800D1*
X2681715Y1432744D1*
X2683755Y1428687D1*
X2684763Y1427679D1*
X2688820Y1425639D1*
X2692876Y1425662D1*
X2696956Y1427679D1*
X2697965Y1428687D1*
X2699981Y1432768D1*
Y1436801D1*
X2697941Y1440857D1*
X2696933Y1441866D1*
X2692876Y1443906D1*
X2688843D1*
X2683754Y1440881D1*
X2678666Y1435792D1*
X2674633Y1429695D1*
X2673601Y1424630D1*
X2675642Y1420574D1*
X2677658Y1418557D1*
X2681715Y1416517D1*
X2684763Y1417549D1*
X2452590Y1451141D2*
X2451581Y1454166D1*
Y1458247D1*
X2452590Y1461271D1*
X2456646Y1465328D1*
X2459695Y1466360D1*
X2463751Y1466336D1*
X2466800Y1465352D1*
X2470856Y1463311D1*
X2475945Y1458223D1*
X2477961Y1454190D1*
X2478970Y1451118D1*
Y1447085D1*
X2477961Y1444013D1*
X2473905Y1439956D1*
X2470856Y1438972D1*
X2466800Y1438948D1*
X2463751Y1439980D1*
X2460143Y1426195D2*
X2428698Y1437333D1*
X2442908Y1451543D1*
X2417962Y1426597D2*
X2422018Y1428637D1*
X2427107Y1427628D1*
X2433180Y1423572D1*
X2436228Y1420523D1*
X2440285Y1414450D1*
X2441293Y1409362D1*
X2439253Y1405305D1*
X2437237Y1403288D1*
X2433180Y1401248D1*
X2428115Y1402280D1*
X2422018Y1406313D1*
X2418970Y1409362D1*
X2414937Y1415458D1*
X2413905Y1420523D1*
X2415945Y1424580D1*
X2417962Y1426597D1*
X2414937Y1415458D2*
X2440285Y1414450D1*
X2672802Y3889241D2*
X2674228Y3892093D1*
X2677113Y3894978D1*
X2679965Y3896404D1*
X2685702D1*
X2688587Y3894978D1*
X2691439Y3892093D1*
X2692898Y3889241D1*
X2694324Y3884930D1*
Y3877734D1*
X2692898Y3873456D1*
X2691439Y3870571D1*
X2688587Y3867719D1*
X2685702Y3866260D1*
X2679965D1*
X2677113Y3867719D1*
X2674228Y3870571D1*
X2672802Y3873456D1*
X2660503Y3866260D2*
X2646144Y3896371D1*
X2666240D1*
X2638123Y3889208D2*
Y3890634D1*
X2636697Y3893519D1*
X2635272Y3894945D1*
X2632386Y3896371D1*
X2626649D1*
X2623798Y3894945D1*
X2622372Y3893519D1*
X2620913Y3890634D1*
Y3887782D1*
X2622372Y3884897D1*
X2625224Y3880619D1*
X2639583Y3866260D1*
X2619487D1*
X2672802Y3799087D2*
X2674228Y3801939D1*
X2677113Y3804824D1*
X2679965Y3806250D1*
X2685702D1*
X2688587Y3804824D1*
X2691439Y3801939D1*
X2692898Y3799087D1*
X2694324Y3794776D1*
Y3787580D1*
X2692898Y3783302D1*
X2691439Y3780417D1*
X2688587Y3777565D1*
X2685702Y3776106D1*
X2679965D1*
X2677113Y3777565D1*
X2674228Y3780417D1*
X2672802Y3783302D1*
X2660503Y3776106D2*
X2646144Y3806217D1*
X2666240D1*
X2636697D2*
X2620946D1*
X2629535Y3794743D1*
X2625224D1*
X2622372Y3793317D1*
X2620946Y3791891D1*
X2619487Y3787580D1*
Y3784728D1*
X2620946Y3780417D1*
X2623798Y3777532D1*
X2628109Y3776106D1*
X2632420D1*
X2636697Y3777532D1*
X2638123Y3778991D1*
X2639583Y3781843D1*
X2229052Y3799087D2*
X2230478Y3801939D1*
X2233363Y3804824D1*
X2236215Y3806250D1*
X2241952D1*
X2244837Y3804824D1*
X2247689Y3801939D1*
X2249148Y3799087D1*
X2250574Y3794776D1*
Y3787580D1*
X2249148Y3783302D1*
X2247689Y3780417D1*
X2244837Y3777565D1*
X2241952Y3776106D1*
X2236215D1*
X2233363Y3777565D1*
X2230478Y3780417D1*
X2229052Y3783302D1*
X2216753Y3776106D2*
X2202394Y3806217D1*
X2222490D1*
X2181473Y3776106D2*
Y3806217D1*
X2195832Y3786154D1*
X2174310D1*
X2210941Y3889241D2*
X2212367Y3892093D1*
X2215252Y3894978D1*
X2218104Y3896404D1*
X2223841D1*
X2226726Y3894978D1*
X2229578Y3892093D1*
X2231037Y3889241D1*
X2232463Y3884930D1*
Y3877734D1*
X2231037Y3873456D1*
X2229578Y3870571D1*
X2226726Y3867719D1*
X2223841Y3866260D1*
X2218104D1*
X2215252Y3867719D1*
X2212367Y3870571D1*
X2210941Y3873456D1*
X2198642Y3866260D2*
X2184283Y3896371D1*
X2204379D1*
X2160511D2*
X2174837D1*
X2176263Y3883471D1*
X2174837Y3884897D1*
X2170526Y3886356D1*
X2166248D1*
X2161937Y3884897D1*
X2159052Y3882045D1*
X2157626Y3877734D1*
Y3874882D1*
X2159052Y3870571D1*
X2161937Y3867686D1*
X2166248Y3866260D1*
X2170526D1*
X2174837Y3867686D1*
X2176263Y3869145D1*
X2177722Y3871997D1*
X1517083Y1824872D2*
X1518509Y1827724D1*
X1521394Y1830609D1*
X1524246Y1832035D1*
X1529982D1*
X1532868Y1830610D1*
X1535720Y1827725D1*
X1537179Y1824873D1*
X1538605Y1820562D1*
Y1813366D1*
X1537179Y1809088D1*
X1535720Y1806203D1*
X1532868Y1803351D1*
X1529983Y1801891D1*
X1524246D1*
X1521394Y1803350D1*
X1518509Y1806202D1*
X1517083Y1809087D1*
X1503358Y1832002D2*
X1507636Y1830576D1*
X1509095Y1827724D1*
Y1824839D1*
X1507636Y1821987D1*
X1504784Y1820528D1*
X1499047Y1819102D1*
X1494736Y1817676D1*
X1491884Y1814791D1*
X1490458Y1811939D1*
Y1807628D1*
X1491885Y1804776D1*
X1493310Y1803317D1*
X1497622Y1801891D1*
X1503359D1*
X1507636Y1803317D1*
X1509095Y1804776D1*
X1510521Y1807628D1*
Y1811939D1*
X1509095Y1814791D1*
X1506210Y1817676D1*
X1501932Y1819102D1*
X1496195Y1820528D1*
X1493310Y1821987D1*
X1491884Y1824839D1*
Y1827724D1*
X1493310Y1830576D1*
X1497621Y1832002D1*
X1503358D1*
X1469538Y1801890D2*
X1469537Y1832001D1*
X1483897Y1811939D1*
X1462375Y1811938D1*
X1225912Y4259628D2*
X1223060Y4261053D1*
X1220175Y4263938D1*
X1218749Y4266790D1*
X1218748Y4272527D1*
X1220174Y4275412D1*
X1223059Y4278264D1*
X1225911Y4279724D1*
X1230222Y4281150D1*
X1237418D1*
X1241696Y4279724D1*
X1244581Y4278265D1*
X1247433Y4275413D1*
X1248892Y4272528D1*
X1248893Y4266791D1*
X1247434Y4263939D1*
X1244582Y4261054D1*
X1241697Y4259628D1*
X1218782Y4245903D2*
X1220208Y4250181D1*
X1223060Y4251640D1*
X1225945D1*
X1228797Y4250181D1*
X1230256Y4247329D1*
X1231682Y4241592D1*
X1233108Y4237281D1*
X1235994Y4234429D1*
X1238845Y4233003D1*
X1243157Y4233004D1*
X1246008Y4234430D1*
X1247467Y4235856D1*
X1248893Y4240167D1*
Y4245904D1*
X1247467Y4250181D1*
X1246008Y4251640D1*
X1243156Y4253066D1*
X1238845D1*
X1235993Y4251640D1*
X1233108Y4248755D1*
X1231682Y4244477D1*
X1230256Y4238740D1*
X1228797Y4235855D1*
X1225946Y4234429D1*
X1223060D1*
X1220209Y4235855D1*
X1218782Y4240166D1*
Y4245903D1*
X1218783Y4209230D2*
Y4223556D1*
X1231683Y4224982D1*
X1230257Y4223556D1*
X1228798Y4219245D1*
Y4214968D1*
X1230257Y4210657D1*
X1233109Y4207772D1*
X1237420Y4206346D1*
X1240272D1*
X1244583Y4207772D1*
X1247468Y4210657D1*
X1248894Y4214968D1*
Y4219246D1*
X1247468Y4223557D1*
X1246009Y4224983D1*
X1243157Y4226442D1*
X932096Y2612797D2*
X933522Y2615649D1*
X936407Y2618534D1*
X939259Y2619960D1*
X944996D1*
X947881Y2618534D1*
X950733Y2615649D1*
X952192Y2612797D1*
X953618Y2608486D1*
Y2601290D1*
X952192Y2597012D1*
X950733Y2594127D1*
X947881Y2591275D1*
X944996Y2589816D1*
X939259D1*
X936407Y2591275D1*
X933522Y2594127D1*
X932096Y2597012D1*
X918372Y2619927D2*
X922650Y2618501D1*
X924109Y2615649D1*
Y2612764D1*
X922650Y2609912D1*
X919798Y2608453D1*
X914061Y2607027D1*
X909750Y2605601D1*
X906898Y2602716D1*
X905472Y2599864D1*
Y2595553D1*
X906898Y2592701D1*
X908324Y2591242D1*
X912635Y2589816D1*
X918372D1*
X922650Y2591242D1*
X924109Y2592701D1*
X925535Y2595553D1*
Y2599864D1*
X924109Y2602716D1*
X921224Y2605601D1*
X916946Y2607027D1*
X911209Y2608453D1*
X908324Y2609912D1*
X906898Y2612764D1*
Y2615649D1*
X908324Y2618501D1*
X912635Y2619927D1*
X918372D1*
X881699Y2615649D2*
X883125Y2618501D1*
X887436Y2619927D1*
X890288D1*
X894599Y2618501D1*
X897484Y2614190D1*
X898910Y2607027D1*
Y2599864D1*
X897484Y2594127D1*
X894599Y2591242D1*
X890288Y2589816D1*
X888862D1*
X884584Y2591242D1*
X881699Y2594127D1*
X880273Y2598438D1*
Y2599864D1*
X881699Y2604175D1*
X884584Y2607027D1*
X888862Y2608453D1*
X890288D1*
X894599Y2607027D1*
X897484Y2604175D1*
X898910Y2599864D1*
X763197Y2697128D2*
X760345Y2698554D1*
X757460Y2701439D1*
X756034Y2704291D1*
X756033Y2710028D1*
X757459Y2712913D1*
X760344Y2715765D1*
X763196Y2717224D1*
X767507Y2718650D1*
X774703D1*
X778981Y2717224D1*
X781866Y2715765D1*
X784718Y2712913D1*
X786177Y2710028D1*
X786178Y2704291D1*
X784718Y2701439D1*
X781867Y2698554D1*
X778982Y2697128D1*
X756067Y2683403D2*
X757493Y2687681D1*
X760345Y2689140D1*
X763230D1*
X766082Y2687681D1*
X767541Y2684829D1*
X768967Y2679092D1*
X770393Y2674781D1*
X773278Y2671930D1*
X776130Y2670504D1*
X780441D1*
X783293Y2671930D1*
X784752Y2673356D1*
X786178Y2677667D1*
Y2683404D1*
X784752Y2687682D1*
X783293Y2689141D1*
X780441Y2690567D1*
X776130Y2690566D1*
X773278Y2689140D1*
X770393Y2686255D1*
X768967Y2681977D1*
X767541Y2676240D1*
X766082Y2673355D1*
X763230Y2671929D1*
X760345D1*
X757493Y2673355D1*
X756067Y2677666D1*
Y2683403D1*
X786178Y2658205D2*
X756068Y2643846D1*
X756067Y2663942D1*
X1022113Y1940966D2*
X1023539Y1943818D1*
X1026424Y1946703D1*
X1029276Y1948129D1*
X1035013D1*
X1037898Y1946703D1*
X1040750Y1943818D1*
X1042209Y1940966D1*
X1043635Y1936655D1*
Y1929459D1*
X1042209Y1925181D1*
X1040750Y1922296D1*
X1037899Y1919444D1*
X1035014Y1917985D1*
X1029277D1*
X1026425Y1919444D1*
X1023539Y1922296D1*
X1022113Y1925181D1*
X1008388Y1948095D2*
X1012666Y1946669D1*
X1014125Y1943817D1*
Y1940932D1*
X1012666Y1938080D1*
X1009814Y1936621D1*
X1004078Y1935195D1*
X999767Y1933769D1*
X996915Y1930884D1*
X995489Y1928032D1*
Y1923721D1*
X996915Y1920869D1*
X998341Y1919410D1*
X1002652Y1917984D1*
X1008389D1*
X1012667Y1919410D1*
X1014126Y1920869D1*
X1015552Y1923721D1*
Y1928032D1*
X1014126Y1930884D1*
X1011241Y1933769D1*
X1006963Y1935195D1*
X1001226Y1936621D1*
X998340Y1938080D1*
X996914Y1940932D1*
Y1943817D1*
X998340Y1946669D1*
X1002651Y1948095D1*
X1008388D1*
X981764Y1948094D2*
X986042Y1946669D1*
X987501Y1943817D1*
Y1940932D1*
X986042Y1938080D1*
X983190Y1936620D1*
X977453Y1935194D1*
X973142Y1933768D1*
X970290Y1930883D1*
X968864Y1928031D1*
Y1923720D1*
X970290Y1920868D1*
X971716Y1919409D1*
X976028Y1917983D1*
X981764Y1917984D1*
X986042Y1919410D1*
X987501Y1920869D1*
X988927Y1923721D1*
Y1928032D1*
X987501Y1930884D1*
X984616Y1933769D1*
X980338Y1935194D1*
X974601Y1936620D1*
X971716Y1938079D1*
X970290Y1940931D1*
Y1943816D1*
X971716Y1946668D1*
X976027Y1948094D1*
X981764D1*
X1769480Y4073169D2*
X1768054Y4070317D1*
X1765169Y4067432D1*
X1762317Y4066006D1*
X1756580D1*
X1753695Y4067432D1*
X1750843Y4070317D1*
X1749384Y4073169D1*
X1747958Y4077480D1*
Y4084676D1*
X1749384Y4088954D1*
X1750843Y4091839D1*
X1753695Y4094691D1*
X1756580Y4096150D1*
X1762317D1*
X1765169Y4094691D1*
X1768054Y4091839D1*
X1769480Y4088954D1*
X1783204Y4066040D2*
X1778926Y4067466D1*
X1777467Y4070317D1*
Y4073203D1*
X1778926Y4076054D1*
X1781778Y4077514D1*
X1787515Y4078939D1*
X1791826Y4080365D1*
X1794678Y4083251D1*
X1796104Y4086102D1*
Y4090413D1*
X1794678Y4093265D1*
X1793252Y4094724D1*
X1788941Y4096150D1*
X1783204D1*
X1778926Y4094724D1*
X1777467Y4093265D1*
X1776041Y4090413D1*
Y4086102D1*
X1777467Y4083251D1*
X1780352Y4080365D1*
X1784630Y4078939D1*
X1790367Y4077514D1*
X1793252Y4076054D1*
X1794678Y4073203D1*
Y4070317D1*
X1793252Y4067466D1*
X1788941Y4066040D1*
X1783204D1*
X1821336Y4076054D2*
X1819877Y4080365D1*
X1817025Y4083251D1*
X1812714Y4084676D1*
X1811288D1*
X1806977Y4083251D1*
X1804125Y4080365D1*
X1802666Y4076054D1*
Y4074628D1*
X1804125Y4070317D1*
X1806977Y4067466D1*
X1811288Y4066040D1*
X1812714D1*
X1817025Y4067466D1*
X1819877Y4070317D1*
X1821336Y4076054D1*
Y4083251D1*
X1819877Y4090413D1*
X1817025Y4094724D1*
X1812714Y4096150D1*
X1809862D1*
X1805551Y4094724D1*
X1804125Y4091839D1*
X1338826Y2459053D2*
Y2428909D1*
X1328778D1*
X1324467Y2430368D1*
X1321581Y2433220D1*
X1320155Y2436105D1*
X1318730Y2440383D1*
Y2447579D1*
X1320155Y2451890D1*
X1321581Y2454742D1*
X1324467Y2457627D1*
X1328778Y2459053D1*
X1338826D1*
X1312168Y2453283D2*
X1309283Y2454742D1*
X1304972Y2459020D1*
Y2428909D1*
X1823965Y2539169D2*
X1825391Y2537743D1*
X1823965Y2536284D1*
X1822506Y2537743D1*
X1823965Y2539169D1*
X1834013Y2537743D2*
X1854109D1*
X1831162Y2528263D2*
X1829736D1*
X1826851Y2526837D1*
X1825425Y2525411D1*
X1823999Y2522526D1*
Y2516789D1*
X1825425Y2513937D1*
X1826851Y2512511D1*
X1829736Y2511052D1*
X1832588D1*
X1835473Y2512511D1*
X1839751Y2515363D1*
X1854109Y2529722D1*
X1854110Y2509626D1*
X1838325Y2485820D2*
X1835440Y2488705D1*
X1834014Y2491590D1*
Y2495868D1*
X1835440Y2498753D1*
X1838325Y2501605D1*
X1842636Y2503065D1*
X1845488D1*
X1849799Y2501606D1*
X1852651Y2498754D1*
X1854110Y2495869D1*
Y2491591D1*
X1852651Y2488706D1*
X1849799Y2485821D1*
X2559494Y2045077D2*
X2580810Y2023763D1*
X2544702Y2020153D2*
X2543694Y2023178D1*
X2543693Y2027258D1*
X2544702Y2030283D1*
X2548758Y2034340D1*
X2551806Y2035372D1*
X2555863Y2035349D1*
X2558912Y2034364D1*
X2562968Y2032324D1*
X2568057Y2027236D1*
X2570074Y2023202D1*
X2571082Y2020131D1*
Y2016098D1*
X2570074Y2013026D1*
X2566017Y2008969D1*
X2562969Y2007984D1*
X2558912Y2007960D1*
X2555864Y2008992D1*
X2539077Y2016498D2*
X2536006Y2015490D1*
X2529932Y2015466D1*
X2551225Y1994175D1*
X3291447Y1922562D2*
X3317553Y1937634D1*
X3311692Y1901823D2*
X3308509Y1901632D1*
X3304568Y1902688D1*
X3301907Y1904445D1*
X3299039Y1909413D1*
X3298831Y1912624D1*
X3299904Y1916537D1*
X3301644Y1919226D1*
X3304665Y1922617D1*
X3310897Y1926215D1*
X3315314Y1927119D1*
X3318543Y1927298D1*
X3322438Y1926254D1*
X3325144Y1924485D1*
X3328013Y1919517D1*
X3328175Y1916317D1*
X3327148Y1912393D1*
X3325362Y1909715D1*
X3315731Y1894893D2*
X3314496Y1894180D1*
X3312711Y1891503D1*
X3312189Y1889555D1*
X3312397Y1886343D1*
X3315265Y1881375D1*
X3317926Y1879618D1*
X3319874Y1879096D1*
X3323102Y1879275D1*
X3325572Y1880701D1*
X3327341Y1883407D1*
X3329619Y1888016D1*
X3334875Y1907631D1*
X3344923Y1890227D1*
X1985085Y4017426D2*
Y3994478D1*
X1986511Y3990167D1*
X1987970Y3988741D1*
X1990822Y3987282D1*
X1993707D1*
X1996559Y3988741D1*
X1997985Y3990167D1*
X1999444Y3994478D1*
Y3997330D1*
X1975638Y4017393D2*
X1959886D1*
X1968475Y4005919D1*
X1964164D1*
X1961312Y4004493D1*
X1959886Y4003067D1*
X1958427Y3998756D1*
Y3995904D1*
X1959886Y3991593D1*
X1962738Y3988708D1*
X1967049Y3987282D1*
X1971360D1*
X1975638Y3988708D1*
X1977064Y3990167D1*
X1978523Y3993019D1*
X1055001Y2599506D2*
Y2569362D1*
X1037790D1*
X1031229Y2593736D2*
X1028343Y2595195D1*
X1024032Y2599473D1*
Y2569362D1*
X2421934Y1857776D2*
Y1827632D1*
X2404723D1*
X2396702Y1850580D2*
Y1852006D1*
X2395276Y1854891D1*
X2393850Y1856317D1*
X2390965Y1857743D1*
X2385228D1*
X2382376Y1856317D1*
X2380950Y1854891D1*
X2379491Y1852006D1*
Y1849154D1*
X2380950Y1846269D1*
X2383802Y1841991D1*
X2398161Y1827632D1*
X2378065D1*
X1942127Y3778183D2*
X1972271D1*
Y3760972D1*
X1942160Y3751525D2*
X1942161Y3735773D1*
X1953634Y3744362D1*
X1953635Y3740051D1*
X1955061Y3737199D1*
X1956487Y3735773D1*
X1960798Y3734314D1*
X1963650D1*
X1967961Y3735774D1*
X1970846Y3738626D1*
X1972271Y3742937D1*
Y3747248D1*
X1970845Y3751526D1*
X1969386Y3752951D1*
X1966534Y3754411D1*
X1961073Y2751111D2*
Y2781255D1*
X1972547Y2751111D1*
X1984021Y2781255D1*
Y2751111D1*
X1954511Y2775485D2*
X1951626Y2776944D1*
X1947315Y2781222D1*
Y2751111D1*
X1146936Y1996192D2*
X1134036D1*
X1129725Y1997651D1*
X1128266Y1999077D1*
X1126840Y2001929D1*
Y2004814D1*
X1128266Y2007666D1*
X1129725Y2009125D1*
X1134036Y2010551D1*
X1146936D1*
Y1980407D1*
X1136888Y1996192D2*
X1126840Y1980407D1*
X1101608Y2000503D2*
X1103067Y1996192D1*
X1105919Y1993307D1*
X1110230Y1991881D1*
X1111656D1*
X1115967Y1993307D1*
X1118819Y1996192D1*
X1120278Y2000503D1*
Y2001929D1*
X1118819Y2006240D1*
X1115967Y2009092D1*
X1111656Y2010518D1*
X1110230D1*
X1105919Y2009092D1*
X1103067Y2006240D1*
X1101608Y2000503D1*
Y1993307D1*
X1103067Y1986144D1*
X1105919Y1981833D1*
X1110230Y1980407D1*
X1113082D1*
X1117393Y1981833D1*
X1118819Y1984718D1*
X1077836Y2006240D2*
X1079262Y2009092D1*
X1083573Y2010518D1*
X1086425D1*
X1090736Y2009092D1*
X1093621Y2004781D1*
X1095047Y1997618D1*
Y1990455D1*
X1093621Y1984718D1*
X1090736Y1981833D1*
X1086425Y1980407D1*
X1084999D1*
X1080721Y1981833D1*
X1077836Y1984718D1*
X1076410Y1989029D1*
Y1990455D1*
X1077836Y1994766D1*
X1080721Y1997618D1*
X1084999Y1999044D1*
X1086425D1*
X1090736Y1997618D1*
X1093621Y1994766D1*
X1095047Y1990455D1*
X3365996Y4272608D2*
X3368848Y4271216D1*
X3371733Y4268331D1*
X3373159Y4265446D1*
X3374618Y4261135D1*
Y4253972D1*
X3373159Y4249661D1*
X3371733Y4246809D1*
X3368848Y4243924D1*
X3365996Y4242498D1*
X3360259D1*
X3357374Y4243924D1*
X3354522Y4246809D1*
X3353097Y4249661D1*
X3351637Y4253972D1*
Y4261135D1*
X3353097Y4265446D1*
X3354522Y4268331D1*
X3357374Y4271216D1*
X3360259Y4272608D1*
X3365996D1*
X3361685Y4248235D2*
X3353097Y4239613D1*
X3345076Y4266838D2*
X3342191Y4268297D1*
X3337880Y4272575D1*
Y4242464D1*
X3372446Y3899702D2*
X3375298Y3898309D1*
X3378183Y3895424D1*
X3379609Y3892539D1*
X3381068Y3888228D1*
Y3881065D1*
X3379609Y3876754D1*
X3378183Y3873902D1*
X3375298Y3871017D1*
X3372446Y3869591D1*
X3366709D1*
X3363824Y3871017D1*
X3360972Y3873902D1*
X3359546Y3876754D1*
X3358087Y3881065D1*
Y3888228D1*
X3359546Y3892539D1*
X3360972Y3895424D1*
X3363824Y3898309D1*
X3366709Y3899702D1*
X3372446D1*
X3368135Y3875328D2*
X3359546Y3866706D1*
X3350067Y3892506D2*
Y3893932D1*
X3348641Y3896817D1*
X3347215Y3898243D1*
X3344330Y3899668D1*
X3338593D1*
X3335741Y3898243D1*
X3334315Y3896817D1*
X3332856Y3893932D1*
Y3891080D1*
X3334315Y3888195D1*
X3337167Y3883917D1*
X3351526Y3869558D1*
X3331430D1*
X1404425Y4448679D2*
X1391525D1*
X1387214Y4450138D1*
X1385755Y4451564D1*
X1384329Y4454416D1*
Y4457301D1*
X1385755Y4460153D1*
X1387214Y4461612D1*
X1391525Y4463038D1*
X1404425D1*
Y4432894D1*
X1394377Y4448679D2*
X1384329Y4432894D1*
X1377768Y4457267D2*
X1374883Y4458727D1*
X1370572Y4463004D1*
Y4432894D1*
X1548375Y4448679D2*
X1535475D1*
X1531164Y4450138D1*
X1529705Y4451564D1*
X1528279Y4454416D1*
Y4457301D1*
X1529705Y4460153D1*
X1531164Y4461612D1*
X1535475Y4463038D1*
X1548375D1*
Y4432894D1*
X1538327Y4448679D2*
X1528279Y4432894D1*
X1520258Y4455842D2*
Y4457267D1*
X1518832Y4460153D1*
X1517407Y4461578D1*
X1514521Y4463004D1*
X1508784D1*
X1505933Y4461578D1*
X1504507Y4460153D1*
X1503048Y4457267D1*
Y4454416D1*
X1504507Y4451530D1*
X1507359Y4447253D1*
X1521718Y4432894D1*
X1501622D1*
X1828896Y3670949D2*
X1815996D1*
X1811685Y3672408D1*
X1810226Y3673834D1*
X1808800Y3676686D1*
Y3679571D1*
X1810226Y3682423D1*
X1811685Y3683882D1*
X1815996Y3685308D1*
X1828896D1*
Y3655164D1*
X1818848Y3670949D2*
X1808800Y3655164D1*
X1785028Y3680997D2*
X1786454Y3683849D1*
X1790765Y3685275D1*
X1793617D1*
X1797928Y3683849D1*
X1800813Y3679538D1*
X1802239Y3672375D1*
Y3665212D1*
X1800813Y3659475D1*
X1797928Y3656590D1*
X1793617Y3655164D1*
X1792191D1*
X1787913Y3656590D1*
X1785028Y3659475D1*
X1783602Y3663786D1*
Y3665212D1*
X1785028Y3669523D1*
X1787913Y3672375D1*
X1792191Y3673801D1*
X1793617D1*
X1797928Y3672375D1*
X1800813Y3669523D1*
X1802239Y3665212D1*
X1698275Y3670949D2*
X1685375D1*
X1681064Y3672408D1*
X1679605Y3673834D1*
X1678179Y3676686D1*
Y3679571D1*
X1679605Y3682423D1*
X1681064Y3683882D1*
X1685375Y3685308D1*
X1698275D1*
Y3655164D1*
X1688227Y3670949D2*
X1678179Y3655164D1*
X1671618Y3679538D2*
X1668732Y3680997D1*
X1664421Y3685275D1*
Y3655164D1*
X1640649Y3680997D2*
X1642075Y3683849D1*
X1646386Y3685275D1*
X1649238D1*
X1653549Y3683849D1*
X1656434Y3679538D1*
X1657860Y3672375D1*
Y3665212D1*
X1656434Y3659475D1*
X1653549Y3656590D1*
X1649238Y3655164D1*
X1647812D1*
X1643534Y3656590D1*
X1640649Y3659475D1*
X1639223Y3663786D1*
Y3665212D1*
X1640649Y3669523D1*
X1643534Y3672375D1*
X1647812Y3673801D1*
X1649238D1*
X1653549Y3672375D1*
X1656434Y3669523D1*
X1657860Y3665212D1*
X1739814Y4397647D2*
X1726914D1*
X1722603Y4399106D1*
X1721144Y4400532D1*
X1719718Y4403384D1*
Y4406269D1*
X1721144Y4409121D1*
X1722603Y4410580D1*
X1726914Y4412006D1*
X1739814Y4412007D1*
X1739815Y4381862D1*
X1729766Y4397647D2*
X1719719Y4381862D1*
X1713157Y4406236D2*
X1710271Y4407695D1*
X1705960Y4411973D1*
X1705961Y4381862D1*
X1693662D2*
X1679303Y4411972D1*
X1699399Y4411973D1*
X1816617Y4397648D2*
X1803717D1*
X1799406Y4399108D1*
X1797947Y4400533D1*
X1796521Y4403385D1*
Y4406270D1*
X1797947Y4409122D1*
X1799406Y4410581D1*
X1803717Y4412007D1*
X1816617D1*
Y4381863D1*
X1806569Y4397648D2*
X1796521Y4381863D1*
X1789959Y4406237D2*
X1787074Y4407696D1*
X1782763Y4411974D1*
Y4381863D1*
X1769038Y4411974D2*
X1773316Y4410548D1*
X1774775Y4407696D1*
Y4404811D1*
X1773316Y4401959D1*
X1770464Y4400500D1*
X1764727Y4399074D1*
X1760416Y4397648D1*
X1757564Y4394763D1*
X1756139Y4391911D1*
Y4387600D1*
X1757564Y4384748D1*
X1758990Y4383289D1*
X1763301Y4381863D1*
X1769038D1*
X1773316Y4383289D1*
X1774775Y4384748D1*
X1776201Y4387600D1*
Y4391911D1*
X1774775Y4394763D1*
X1771890Y4397648D1*
X1767612Y4399074D1*
X1761875Y4400500D1*
X1758990Y4401959D1*
X1757564Y4404811D1*
Y4407696D1*
X1758990Y4410548D1*
X1763301Y4411974D1*
X1769038D1*
X1018742Y2052518D2*
X1005842D1*
X1001531Y2053978D1*
X1000072Y2055404D1*
X998646Y2058255D1*
Y2061141D1*
X1000072Y2063992D1*
X1001531Y2065452D1*
X1005842Y2066878D1*
X1018742D1*
Y2036734D1*
X1008694Y2052518D2*
X998646Y2036734D1*
X992084Y2061107D2*
X989199Y2062566D1*
X984888Y2066844D1*
Y2036734D1*
X959656Y2056830D2*
X961116Y2052518D1*
X963967Y2049633D1*
X968278Y2048207D1*
X969704D1*
X974015Y2049633D1*
X976867Y2052518D1*
X978326Y2056830D1*
Y2058255D1*
X976867Y2062566D1*
X974015Y2065418D1*
X969704Y2066844D1*
X968278D1*
X963967Y2065418D1*
X961116Y2062566D1*
X959656Y2056830D1*
Y2049633D1*
X961116Y2042470D1*
X963967Y2038159D1*
X968278Y2036734D1*
X971130D1*
X975441Y2038159D1*
X976867Y2041045D1*
X1467956Y1552518D2*
X1455056D1*
X1450745Y1553978D1*
X1449286Y1555404D1*
X1447860Y1558255D1*
Y1561141D1*
X1449286Y1563992D1*
X1450745Y1565452D1*
X1455056Y1566878D1*
X1467956D1*
Y1536734D1*
X1457908Y1552518D2*
X1447860Y1536734D1*
X1439839Y1559681D2*
Y1561107D1*
X1438413Y1563992D1*
X1436987Y1565418D1*
X1434102Y1566844D1*
X1428365D1*
X1425513Y1565418D1*
X1424087Y1563992D1*
X1422628Y1561107D1*
Y1558255D1*
X1424087Y1555370D1*
X1426939Y1551093D1*
X1441298Y1536734D1*
X1421202D1*
X1411756Y1566844D2*
X1396004D1*
X1404593Y1555370D1*
X1400282D1*
X1397430Y1553944D1*
X1396004Y1552518D1*
X1394545Y1548207D1*
Y1545356D1*
X1396004Y1541045D1*
X1398856Y1538159D1*
X1403167Y1536734D1*
X1407478D1*
X1411756Y1538159D1*
X1413182Y1539619D1*
X1414641Y1542470D1*
X2356168Y3670949D2*
X2343268D1*
X2338957Y3672408D1*
X2337498Y3673834D1*
X2336072Y3676686D1*
Y3679571D1*
X2337498Y3682423D1*
X2338957Y3683882D1*
X2343268Y3685308D1*
X2356168D1*
Y3655164D1*
X2346120Y3670949D2*
X2336072Y3655164D1*
X2328051Y3678112D2*
Y3679538D1*
X2326625Y3682423D1*
X2325199Y3683849D1*
X2322314Y3685275D1*
X2316577D1*
X2313725Y3683849D1*
X2312299Y3682423D1*
X2310840Y3679538D1*
Y3676686D1*
X2312299Y3673801D1*
X2315151Y3669523D1*
X2329510Y3655164D1*
X2309414D1*
X2288493D2*
Y3685275D1*
X2302852Y3665212D1*
X2281330D1*
X1355453Y2227942D2*
X1342554D1*
X1338242Y2229401D1*
X1336783Y2230827D1*
X1335357Y2233679D1*
Y2236564D1*
X1336783Y2239416D1*
X1338242Y2240875D1*
X1342554Y2242301D1*
X1355453D1*
Y2212157D1*
X1345405Y2227942D2*
X1335357Y2212157D1*
X1327337Y2235105D2*
Y2236531D1*
X1325911Y2239416D1*
X1324485Y2240842D1*
X1321600Y2242268D1*
X1315863D1*
X1313011Y2240842D1*
X1311585Y2239416D1*
X1310126Y2236531D1*
Y2233679D1*
X1311585Y2230794D1*
X1314437Y2226516D1*
X1328796Y2212157D1*
X1308700D1*
X1284927Y2242268D2*
X1299253D1*
X1300679Y2229368D1*
X1299253Y2230794D1*
X1294942Y2232253D1*
X1290664D1*
X1286353Y2230794D1*
X1283468Y2227942D1*
X1282042Y2223631D1*
Y2220779D1*
X1283468Y2216468D1*
X1286353Y2213583D1*
X1290664Y2212157D1*
X1294942D1*
X1299253Y2213583D1*
X1300679Y2215042D1*
X1302138Y2217894D1*
X1241671Y1425534D2*
X1228771D1*
X1224460Y1426993D1*
X1223001Y1428419D1*
X1221575Y1431271D1*
Y1434156D1*
X1223001Y1437008D1*
X1224460Y1438467D1*
X1228771Y1439893D1*
X1241671D1*
Y1409749D1*
X1231623Y1425534D2*
X1221575Y1409749D1*
X1212129Y1439860D2*
X1196377D1*
X1204966Y1428386D1*
X1200655D1*
X1197803Y1426960D1*
X1196377Y1425534D1*
X1194918Y1421223D1*
Y1418371D1*
X1196377Y1414060D1*
X1199229Y1411175D1*
X1203540Y1409749D1*
X1207851D1*
X1212129Y1411175D1*
X1213554Y1412634D1*
X1215014Y1415486D1*
X1186897Y1432697D2*
Y1434123D1*
X1185471Y1437008D1*
X1184045Y1438434D1*
X1181160Y1439860D1*
X1175423D1*
X1172571Y1438434D1*
X1171145Y1437008D1*
X1169686Y1434123D1*
Y1431271D1*
X1171145Y1428386D1*
X1173997Y1424108D1*
X1188356Y1409749D1*
X1168260D1*
X1158856Y2255269D2*
X1145956D1*
X1141645Y2256728D1*
X1140186Y2258154D1*
X1138760Y2261006D1*
Y2263891D1*
X1140186Y2266743D1*
X1141645Y2268202D1*
X1145956Y2269628D1*
X1158856D1*
Y2239484D1*
X1148808Y2255269D2*
X1138760Y2239484D1*
X1129314Y2269595D2*
X1113562D1*
X1122151Y2258121D1*
X1117840D1*
X1114988Y2256695D1*
X1113562Y2255269D1*
X1112103Y2250958D1*
Y2248106D1*
X1113562Y2243795D1*
X1116414Y2240910D1*
X1120725Y2239484D1*
X1125036D1*
X1129314Y2240910D1*
X1130740Y2242369D1*
X1132199Y2245221D1*
X1102656Y2269595D2*
X1086904D1*
X1095493Y2258121D1*
X1091182D1*
X1088330Y2256695D1*
X1086904Y2255269D1*
X1085445Y2250958D1*
Y2248106D1*
X1086904Y2243795D1*
X1089756Y2240910D1*
X1094067Y2239484D1*
X1098378D1*
X1102656Y2240910D1*
X1104082Y2242369D1*
X1105541Y2245221D1*
X2199256Y1647275D2*
X2190135Y1656397D1*
X2188118Y1660477D1*
X2188095Y1662517D1*
X2189103Y1665542D1*
X2191143Y1667582D1*
X2194168Y1668590D1*
X2196231D1*
X2200288Y1666550D1*
X2209410Y1657429D1*
X2188095Y1636114D1*
X2192151Y1654380D2*
X2173885Y1650324D1*
X2188496Y1678295D2*
X2177358Y1689433D1*
X2175318Y1675247D1*
X2172270Y1678295D1*
X2169245Y1679304D1*
X2167228D1*
X2163148Y1677287D1*
X2161132Y1675270D1*
X2159115Y1671190D1*
X2159092Y1667134D1*
X2161132Y1663077D1*
X2164180Y1660029D1*
X2168213Y1658012D1*
X2170253Y1658035D1*
X2173302Y1659020D1*
X2140242Y1683967D2*
X2161533Y1705258D1*
X2157500Y1680918D1*
X2142282Y1696137D1*
X2230438Y3670949D2*
X2217538D1*
X2213227Y3672408D1*
X2211768Y3673834D1*
X2210342Y3676686D1*
Y3679571D1*
X2211768Y3682423D1*
X2213227Y3683882D1*
X2217538Y3685308D1*
X2230438D1*
Y3655164D1*
X2220390Y3670949D2*
X2210342Y3655164D1*
X2200895Y3685275D2*
X2185144D1*
X2193732Y3673801D1*
X2189421D1*
X2186570Y3672375D1*
X2185144Y3670949D1*
X2183684Y3666638D1*
Y3663786D1*
X2185144Y3659475D1*
X2187995Y3656590D1*
X2192307Y3655164D1*
X2196618D1*
X2200895Y3656590D1*
X2202321Y3658049D1*
X2203780Y3660901D1*
X2169960Y3685275D2*
X2174238Y3683849D1*
X2175697Y3680997D1*
Y3678112D1*
X2174238Y3675260D1*
X2171386Y3673801D1*
X2165649Y3672375D1*
X2161338Y3670949D1*
X2158486Y3668064D1*
X2157060Y3665212D1*
Y3660901D1*
X2158486Y3658049D1*
X2159912Y3656590D1*
X2164223Y3655164D1*
X2169960D1*
X2174238Y3656590D1*
X2175697Y3658049D1*
X2177123Y3660901D1*
Y3665212D1*
X2175697Y3668064D1*
X2172812Y3670949D1*
X2168534Y3672375D1*
X2162797Y3673801D1*
X2159912Y3675260D1*
X2158486Y3678112D1*
Y3680997D1*
X2159912Y3683849D1*
X2164223Y3685275D1*
X2169960D1*
X1710991Y4018423D2*
X1698091D1*
X1693780Y4019882D1*
X1692321Y4021308D1*
X1690895Y4024160D1*
Y4027045D1*
X1692321Y4029897D1*
X1693780Y4031356D1*
X1698091Y4032782D1*
X1710991D1*
Y4002638D1*
X1700943Y4018423D2*
X1690895Y4002638D1*
X1681448Y4032749D2*
X1665697D1*
X1674285Y4021275D1*
X1669974D1*
X1667122Y4019849D1*
X1665697Y4018423D1*
X1664237Y4014112D1*
Y4011260D1*
X1665697Y4006949D1*
X1668548Y4004064D1*
X1672859Y4002638D1*
X1677170D1*
X1681448Y4004064D1*
X1682874Y4005523D1*
X1684333Y4008375D1*
X1639006Y4022734D2*
X1640465Y4018423D1*
X1643317Y4015538D1*
X1647628Y4014112D1*
X1649054D1*
X1653365Y4015538D1*
X1656217Y4018423D1*
X1657676Y4022734D1*
Y4024160D1*
X1656217Y4028471D1*
X1653365Y4031323D1*
X1649054Y4032749D1*
X1647628D1*
X1643317Y4031323D1*
X1640465Y4028471D1*
X1639006Y4022734D1*
Y4015538D1*
X1640465Y4008375D1*
X1643317Y4004064D1*
X1647628Y4002638D1*
X1650480D1*
X1654791Y4004064D1*
X1656217Y4006949D1*
X1480514Y2046116D2*
X1467614D1*
X1463303Y2047575D1*
X1461844Y2049001D1*
X1460418Y2051853D1*
Y2054738D1*
X1461844Y2057590D1*
X1463303Y2059049D1*
X1467614Y2060475D1*
X1480514D1*
Y2030331D1*
X1470466Y2046116D2*
X1460418Y2030331D1*
X1439497D2*
Y2060441D1*
X1453856Y2040379D1*
X1432335D1*
X1417151Y2060441D2*
X1421462Y2059016D1*
X1424347Y2054704D1*
X1425773Y2047542D1*
Y2043231D1*
X1424347Y2036068D1*
X1421462Y2031757D1*
X1417151Y2030331D1*
X1414299D1*
X1409988Y2031757D1*
X1407136Y2036068D1*
X1405677Y2043231D1*
Y2047542D1*
X1407136Y2054704D1*
X1409988Y2059016D1*
X1414299Y2060441D1*
X1417151D1*
X1407136Y2054704D2*
X1424347Y2036068D1*
X1018470Y1553406D2*
X1005570D1*
X1001259Y1554865D1*
X999800Y1556291D1*
X998374Y1559143D1*
Y1562028D1*
X999800Y1564880D1*
X1001259Y1566339D1*
X1005570Y1567765D1*
X1018470D1*
Y1537621D1*
X1008422Y1553406D2*
X998374Y1537621D1*
X977453D2*
Y1567731D1*
X991812Y1547669D1*
X970290D1*
X963728Y1561995D2*
X960843Y1563454D1*
X956532Y1567731D1*
Y1537621D1*
X1712417Y3834658D2*
X1699517D1*
X1695206Y3836117D1*
X1693747Y3837543D1*
X1692321Y3840395D1*
Y3843280D1*
X1693747Y3846132D1*
X1695206Y3847591D1*
X1699517Y3849017D1*
X1712417D1*
Y3818873D1*
X1702369Y3834658D2*
X1692321Y3818873D1*
X1671400D2*
Y3848983D1*
X1685759Y3828921D1*
X1664237D1*
X1656217Y3841821D2*
Y3843246D1*
X1654791Y3846132D1*
X1653365Y3847557D1*
X1650480Y3848983D1*
X1644743D1*
X1641891Y3847557D1*
X1640465Y3846132D1*
X1639006Y3843246D1*
Y3840395D1*
X1640465Y3837509D1*
X1643317Y3833232D1*
X1657676Y3818873D1*
X1637580D1*
X1486689Y1969398D2*
X1473789D1*
X1469478Y1970857D1*
X1468019Y1972283D1*
X1466593Y1975135D1*
Y1978020D1*
X1468019Y1980872D1*
X1469478Y1982331D1*
X1473789Y1983757D1*
X1486689D1*
Y1953613D1*
X1476641Y1969398D2*
X1466593Y1953613D1*
X1445672D2*
Y1983724D1*
X1460031Y1963661D1*
X1438509D1*
X1414737Y1979446D2*
X1416163Y1982298D1*
X1420474Y1983724D1*
X1423325D1*
X1427636Y1982298D1*
X1430522Y1977987D1*
X1431947Y1970824D1*
Y1963661D1*
X1430522Y1957924D1*
X1427636Y1955039D1*
X1423325Y1953613D1*
X1421899D1*
X1417622Y1955039D1*
X1414737Y1957924D1*
X1413311Y1962235D1*
Y1963661D1*
X1414737Y1967972D1*
X1417622Y1970824D1*
X1421899Y1972250D1*
X1423325D1*
X1427636Y1970824D1*
X1430522Y1967972D1*
X1431947Y1963661D1*
X1243669Y1659656D2*
X1230769D1*
X1226458Y1661115D1*
X1224999Y1662541D1*
X1223573Y1665393D1*
Y1668278D1*
X1224999Y1671130D1*
X1226458Y1672589D1*
X1230769Y1674015D1*
X1243669D1*
Y1643871D1*
X1233621Y1659656D2*
X1223573Y1643871D1*
X1202652D2*
Y1673982D1*
X1217011Y1653919D1*
X1195489D1*
X1183191Y1643871D2*
X1168832Y1673982D1*
X1188928D1*
X1265444Y2227943D2*
X1252544D1*
X1248233Y2229402D1*
X1246774Y2230828D1*
X1245348Y2233680D1*
Y2236565D1*
X1246773Y2239417D1*
X1248233Y2240876D1*
X1252544Y2242302D1*
X1265443D1*
X1265444Y2212158D1*
X1255396Y2227943D2*
X1245348Y2212158D1*
X1224427D2*
Y2242269D1*
X1238786Y2222206D1*
X1217264D1*
X1203539Y2242268D2*
X1207817Y2240842D1*
X1209276Y2237990D1*
Y2235105D1*
X1207817Y2232253D1*
X1204965Y2230794D1*
X1199228Y2229368D1*
X1194917Y2227942D1*
X1192066Y2225057D1*
X1190640Y2222205D1*
Y2217894D1*
X1192066Y2215042D1*
X1193492Y2213583D1*
X1197803Y2212157D1*
X1203540D1*
X1207818Y2213583D1*
X1209277Y2215042D1*
X1210703Y2217894D1*
X1210702Y2222205D1*
X1209276Y2225057D1*
X1206391Y2227942D1*
X1202113Y2229368D1*
X1196376Y2230794D1*
X1193491Y2232253D1*
X1192065Y2235105D1*
Y2237990D1*
X1193491Y2240842D1*
X1197802Y2242268D1*
X1203539D1*
X2861705Y3670949D2*
X2848805D1*
X2844494Y3672408D1*
X2843035Y3673834D1*
X2841609Y3676686D1*
Y3679571D1*
X2843035Y3682423D1*
X2844494Y3683882D1*
X2848805Y3685308D1*
X2861705D1*
Y3655164D1*
X2851657Y3670949D2*
X2841609Y3655164D1*
X2820689D2*
Y3685275D1*
X2835048Y3665212D1*
X2813526D1*
X2788294Y3675260D2*
X2789753Y3670949D1*
X2792605Y3668064D1*
X2796916Y3666638D1*
X2798342D1*
X2802653Y3668064D1*
X2805505Y3670949D1*
X2806964Y3675260D1*
Y3676686D1*
X2805505Y3680997D1*
X2802653Y3683849D1*
X2798342Y3685275D1*
X2796916D1*
X2792605Y3683849D1*
X2789753Y3680997D1*
X2788294Y3675260D1*
Y3668064D1*
X2789753Y3660901D1*
X2792605Y3656590D1*
X2796916Y3655164D1*
X2799768D1*
X2804079Y3656590D1*
X2805505Y3659475D1*
X1115385Y1426808D2*
X1102485D1*
X1098174Y1428267D1*
X1096715Y1429693D1*
X1095289Y1432544D1*
Y1435430D1*
X1096715Y1438281D1*
X1098174Y1439741D1*
X1102485Y1441167D1*
X1115385D1*
Y1411023D1*
X1105337Y1426808D2*
X1095289Y1411023D1*
X1071516Y1441133D2*
X1085842D1*
X1087268Y1428233D1*
X1085842Y1429659D1*
X1081531Y1431118D1*
X1077253D1*
X1072942Y1429659D1*
X1070057Y1426807D1*
X1068631Y1422496D1*
X1068632Y1419644D1*
X1070058Y1415333D1*
X1072943Y1412448D1*
X1077254Y1411022D1*
X1081532D1*
X1085843Y1412448D1*
X1087269Y1413907D1*
X1088728Y1416759D1*
X1053447Y1441132D2*
X1057758Y1439707D1*
X1060644Y1435396D1*
X1062070Y1428233D1*
Y1423922D1*
X1060644Y1416759D1*
X1057759Y1412448D1*
X1053448Y1411022D1*
X1050596D1*
X1046285Y1412447D1*
X1043433Y1416758D1*
X1041974Y1423921D1*
Y1428232D1*
X1043433Y1435395D1*
X1046284Y1439706D1*
X1050595Y1441132D1*
X1053447D1*
X1043433Y1435395D2*
X1060644Y1416759D1*
X2729725Y3670949D2*
X2716825D1*
X2712514Y3672408D1*
X2711055Y3673834D1*
X2709629Y3676686D1*
Y3679571D1*
X2711055Y3682423D1*
X2712514Y3683882D1*
X2716825Y3685308D1*
X2729725D1*
Y3655164D1*
X2719677Y3670949D2*
X2709629Y3655164D1*
X2685857Y3680997D2*
X2687283Y3683849D1*
X2691594Y3685275D1*
X2694445D1*
X2698756Y3683849D1*
X2701642Y3679538D1*
X2703067Y3672375D1*
Y3665212D1*
X2701642Y3659475D1*
X2698756Y3656590D1*
X2694445Y3655164D1*
X2693019D1*
X2688742Y3656590D1*
X2685857Y3659475D1*
X2684431Y3663786D1*
Y3665212D1*
X2685857Y3669523D1*
X2688742Y3672375D1*
X2693019Y3673801D1*
X2694445D1*
X2698756Y3672375D1*
X2701642Y3669523D1*
X2703067Y3665212D1*
X2669247Y3685275D2*
X2673558Y3683849D1*
X2676443Y3679538D1*
X2677869Y3672375D1*
Y3668064D1*
X2676443Y3660901D1*
X2673558Y3656590D1*
X2669247Y3655164D1*
X2666395D1*
X2662084Y3656590D1*
X2659232Y3660901D1*
X2657773Y3668064D1*
Y3672375D1*
X2659232Y3679538D1*
X2662084Y3683849D1*
X2666395Y3685275D1*
X2669247D1*
X2659232Y3679538D2*
X2676443Y3660901D1*
X1267026Y4020382D2*
X1254126D1*
X1249815Y4021841D1*
X1248356Y4023267D1*
X1246930Y4026119D1*
Y4029004D1*
X1248356Y4031856D1*
X1249815Y4033315D1*
X1254126Y4034741D1*
X1267026D1*
Y4004597D1*
X1256978Y4020382D2*
X1246930Y4004597D1*
X1223157Y4030430D2*
X1224583Y4033282D1*
X1228894Y4034708D1*
X1231746D1*
X1236057Y4033282D1*
X1238942Y4028971D1*
X1240368Y4021808D1*
Y4014645D1*
X1238942Y4008908D1*
X1236057Y4006023D1*
X1231746Y4004597D1*
X1230320D1*
X1226042Y4006023D1*
X1223157Y4008908D1*
X1221731Y4013219D1*
Y4014645D1*
X1223157Y4018956D1*
X1226042Y4021808D1*
X1230320Y4023234D1*
X1231746D1*
X1236057Y4021808D1*
X1238942Y4018956D1*
X1240368Y4014645D1*
X1215170Y4028971D2*
X1212285Y4030430D1*
X1207974Y4034708D1*
Y4004597D1*
X1273476Y3834658D2*
X1260576D1*
X1256265Y3836117D1*
X1254806Y3837543D1*
X1253380Y3840395D1*
Y3843280D1*
X1254806Y3846132D1*
X1256265Y3847591D1*
X1260576Y3849017D1*
X1273476D1*
Y3818873D1*
X1263428Y3834658D2*
X1253380Y3818873D1*
X1229607Y3844706D2*
X1231033Y3847557D1*
X1235344Y3848983D1*
X1238196D1*
X1242507Y3847557D1*
X1245392Y3843246D1*
X1246818Y3836084D1*
Y3828921D1*
X1245392Y3823184D1*
X1242507Y3820299D1*
X1238196Y3818873D1*
X1236770D1*
X1232492Y3820299D1*
X1229607Y3823184D1*
X1228181Y3827495D1*
Y3828921D1*
X1229607Y3833232D1*
X1232492Y3836084D1*
X1236770Y3837509D1*
X1238196D1*
X1242507Y3836084D1*
X1245392Y3833232D1*
X1246818Y3828921D1*
X1218735Y3848983D2*
X1202983D1*
X1211572Y3837509D1*
X1207261D1*
X1204409Y3836084D1*
X1202983Y3834658D1*
X1201524Y3830347D1*
Y3827495D1*
X1202983Y3823184D1*
X1205835Y3820299D1*
X1210146Y3818873D1*
X1214457D1*
X1218735Y3820299D1*
X1220160Y3821758D1*
X1221620Y3824610D1*
X1181760Y3065580D2*
X1168860Y3065579D1*
X1164549Y3067038D1*
X1163089Y3068464D1*
X1161663Y3071316D1*
Y3074201D1*
X1163089Y3077053D1*
X1164548Y3078512D1*
X1168859Y3079938D1*
X1181759Y3079939D1*
X1181760Y3049795D1*
X1171712Y3065579D2*
X1161664Y3049794D1*
X1137891Y3075627D2*
X1139317Y3078479D1*
X1143628Y3079905D1*
X1146480D1*
X1150791Y3078479D1*
X1153676Y3074168D1*
X1155102Y3067005D1*
Y3059842D1*
X1153676Y3054105D1*
X1150791Y3051220D1*
X1146480Y3049794D1*
X1145054D1*
X1140776Y3051220D1*
X1137891Y3054105D1*
X1136465Y3058416D1*
Y3059842D1*
X1137891Y3064153D1*
X1140776Y3067005D1*
X1145054Y3068431D1*
X1146480D1*
X1150791Y3067005D1*
X1153676Y3064153D1*
X1155102Y3059842D1*
X1115545Y3049793D2*
X1115544Y3079904D1*
X1129903Y3059842D1*
X1108381Y3059841D1*
X2833107Y3151361D2*
Y3138461D1*
X2831648Y3134150D1*
X2830222Y3132690D1*
X2827370Y3131264D1*
X2824485D1*
X2821633Y3132690D1*
X2820174Y3134149D1*
X2818748Y3138460D1*
Y3151360D1*
X2848892Y3151361D1*
X2833107Y3141313D2*
X2848892Y3131265D1*
X2823060Y3107492D2*
X2820208Y3108918D1*
X2818782Y3113229D1*
Y3116081D1*
X2820207Y3120392D1*
X2824518Y3123277D1*
X2831681Y3124703D1*
X2838844D1*
X2844581Y3123277D1*
X2847466Y3120392D1*
X2848892Y3116081D1*
Y3114655D1*
X2847467Y3110377D1*
X2844582Y3107492D1*
X2840271Y3106066D1*
X2838845D1*
X2834534Y3107492D1*
X2831682Y3110377D1*
X2830256Y3114655D1*
Y3116081D1*
X2831681Y3120392D1*
X2834533Y3123277D1*
X2838844Y3124703D1*
X2823060Y3082293D2*
X2820208Y3083719D1*
X2818782Y3088030D1*
Y3090882D1*
X2820208Y3095193D1*
X2824519Y3098078D1*
X2831682Y3099504D1*
X2838845D1*
X2844582Y3098079D1*
X2847467Y3095194D1*
X2848893Y3090883D1*
Y3089457D1*
X2847467Y3085179D1*
X2844582Y3082294D1*
X2840271Y3080868D1*
X2838845D1*
X2834534Y3082293D1*
X2831682Y3085178D1*
X2830256Y3089456D1*
Y3090882D1*
X2831682Y3095193D1*
X2834534Y3098078D1*
X2838845Y3099504D1*
X1307773Y3060537D2*
X1320673D1*
X1324984Y3059078D1*
X1326443Y3057652D1*
X1327869Y3054800D1*
Y3051915D1*
X1326443Y3049063D1*
X1324984Y3047604D1*
X1320673Y3046178D1*
X1307773D1*
X1307772Y3076322D1*
X1317821Y3060537D2*
X1327868Y3076322D1*
X1351642Y3050490D2*
X1350216Y3047638D1*
X1345905Y3046212D1*
X1343053Y3046211D1*
X1338742Y3047637D1*
X1335857Y3051948D1*
X1334430Y3059111D1*
Y3066274D1*
X1335856Y3072011D1*
X1338741Y3074896D1*
X1343052Y3076322D1*
X1344478D1*
X1348756Y3074896D1*
X1351641Y3072011D1*
X1353067Y3067700D1*
Y3066275D1*
X1351641Y3061963D1*
X1348756Y3059111D1*
X1344479Y3057685D1*
X1343053D1*
X1338742Y3059111D1*
X1335856Y3061963D1*
X1334430Y3066274D1*
X1365366Y3076323D2*
X1379725Y3046212D1*
X1359629D1*
X2908108Y3155421D2*
Y3142521D1*
X2906649Y3138210D1*
X2905223Y3136751D1*
X2902371Y3135325D1*
X2899486D1*
X2896634Y3136751D1*
X2895175Y3138210D1*
X2893749Y3142521D1*
Y3155421D1*
X2923893Y3155422D1*
X2908108Y3145373D2*
X2923893Y3135326D1*
X2898061Y3111553D2*
X2895209Y3112978D1*
X2893783Y3117289D1*
Y3120141D1*
X2895209Y3124452D1*
X2899520Y3127338D1*
X2906683Y3128764D1*
X2913846D1*
X2919583Y3127338D1*
X2922468Y3124453D1*
X2923894Y3120142D1*
Y3118716D1*
X2922468Y3114438D1*
X2919583Y3111553D1*
X2915272Y3110127D1*
X2913846D1*
X2909535Y3111553D1*
X2906683Y3114438D1*
X2905257Y3118716D1*
Y3120142D1*
X2906683Y3124453D1*
X2909535Y3127338D1*
X2913846Y3128764D1*
X2893783Y3096402D2*
X2895209Y3100680D1*
X2898061Y3102139D1*
X2900946D1*
X2903798Y3100680D1*
X2905257Y3097828D1*
X2906683Y3092091D1*
X2908109Y3087780D1*
X2910994Y3084928D1*
X2913846Y3083502D1*
X2918157D1*
X2921009Y3084928D1*
X2922468Y3086354D1*
X2923894Y3090665D1*
Y3096402D1*
X2922468Y3100680D1*
X2921009Y3102139D1*
X2918157Y3103565D1*
X2913846D1*
X2910994Y3102139D1*
X2908109Y3099254D1*
X2906683Y3094976D1*
X2905257Y3089239D1*
X2903798Y3086354D1*
X2900946Y3084928D1*
X2898061D1*
X2895209Y3086354D1*
X2893783Y3090665D1*
Y3096402D1*
X1679012Y3198580D2*
X1666112D1*
X1661801Y3200039D1*
X1660342Y3201465D1*
X1658916Y3204317D1*
Y3207202D1*
X1660342Y3210054D1*
X1661801Y3211513D1*
X1666112Y3212939D1*
X1679012D1*
Y3182795D1*
X1668964Y3198580D2*
X1658916Y3182795D1*
X1635144Y3208628D2*
X1636570Y3211480D1*
X1640881Y3212906D1*
X1643732D1*
X1648043Y3211480D1*
X1650929Y3207169D1*
X1652355Y3200006D1*
Y3192843D1*
X1650929Y3187106D1*
X1648043Y3184221D1*
X1643732Y3182795D1*
X1642307D1*
X1638029Y3184221D1*
X1635144Y3187106D1*
X1633718Y3191417D1*
Y3192843D1*
X1635144Y3197154D1*
X1638029Y3200006D1*
X1642307Y3201432D1*
X1643732D1*
X1648043Y3200006D1*
X1650929Y3197154D1*
X1652355Y3192843D1*
X1608486Y3202891D2*
X1609945Y3198580D1*
X1612797Y3195695D1*
X1617108Y3194269D1*
X1618534D1*
X1622845Y3195695D1*
X1625697Y3198580D1*
X1627156Y3202891D1*
Y3204317D1*
X1625697Y3208628D1*
X1622845Y3211480D1*
X1618534Y3212906D1*
X1617108D1*
X1612797Y3211480D1*
X1609945Y3208628D1*
X1608486Y3202891D1*
Y3195695D1*
X1609945Y3188532D1*
X1612797Y3184221D1*
X1617108Y3182795D1*
X1619960D1*
X1624271Y3184221D1*
X1625697Y3187106D1*
X1407043Y3060537D2*
X1419943D1*
X1424254Y3059078D1*
X1425713Y3057652D1*
X1427139Y3054800D1*
Y3051915D1*
X1425713Y3049063D1*
X1424254Y3047604D1*
X1419943Y3046178D1*
X1407043D1*
Y3076322D1*
X1417091Y3060537D2*
X1427139Y3076322D1*
X1439438D2*
X1453797Y3046212D1*
X1433701Y3046211D1*
X1468981Y3046212D2*
X1464670Y3047638D1*
X1461785Y3051949D1*
X1460359Y3059112D1*
Y3063423D1*
X1461784Y3070586D1*
X1464669Y3074897D1*
X1468980Y3076323D1*
X1471832D1*
X1476143Y3074897D1*
X1478995Y3070586D1*
X1480455Y3063423D1*
Y3059112D1*
X1478996Y3051949D1*
X1476144Y3047638D1*
X1471833Y3046212D1*
X1468981D1*
X1478996Y3051949D2*
X1461784Y3070586D1*
X1774005Y3194486D2*
X1761105D1*
X1756794Y3195945D1*
X1755335Y3197371D1*
X1753909Y3200223D1*
Y3203108D1*
X1755335Y3205960D1*
X1756794Y3207419D1*
X1761105Y3208845D1*
X1774005D1*
Y3178701D1*
X1763957Y3194486D2*
X1753909Y3178701D1*
X1741610D2*
X1727251Y3208812D1*
X1747347D1*
X1720689Y3203075D2*
X1717804Y3204534D1*
X1713493Y3208812D1*
Y3178701D1*
X3274207Y4292869D2*
X3261307D1*
X3256996Y4294328D1*
X3255537Y4295754D1*
X3254111Y4298606D1*
Y4301491D1*
X3255537Y4304343D1*
X3256996Y4305802D1*
X3261307Y4307228D1*
X3274207D1*
Y4277084D1*
X3264159Y4292869D2*
X3254111Y4277084D1*
X3241812D2*
X3227453Y4307195D1*
X3247549D1*
X3219432Y4300032D2*
Y4301458D1*
X3218006Y4304343D1*
X3216580Y4305769D1*
X3213695Y4307195D1*
X3207958D1*
X3205106Y4305769D1*
X3203680Y4304343D1*
X3202221Y4301458D1*
Y4298606D1*
X3203680Y4295721D1*
X3206532Y4291443D1*
X3220891Y4277084D1*
X3200795D1*
X3274207Y3920555D2*
X3261307D1*
X3256996Y3922014D1*
X3255537Y3923440D1*
X3254111Y3926292D1*
Y3929177D1*
X3255537Y3932029D1*
X3256996Y3933488D1*
X3261307Y3934914D1*
X3274207D1*
Y3904770D1*
X3264159Y3920555D2*
X3254111Y3904770D1*
X3241812D2*
X3227453Y3934881D1*
X3247549D1*
X3218006D2*
X3202254D1*
X3210843Y3923407D1*
X3206532D1*
X3203680Y3921981D1*
X3202254Y3920555D1*
X3200795Y3916244D1*
Y3913392D1*
X3202254Y3909081D1*
X3205106Y3906196D1*
X3209417Y3904770D1*
X3213728D1*
X3218006Y3906196D1*
X3219432Y3907655D1*
X3220891Y3910507D1*
X741227Y1137418D2*
X741228Y1124518D1*
X739769Y1120207D1*
X738343Y1118748D1*
X735491Y1117322D1*
X732606D1*
X729754Y1118748D1*
X728295Y1120207D1*
X726869Y1124518D1*
X726868Y1137418D1*
X757012Y1137419D1*
X741228Y1127370D2*
X757013Y1117323D1*
Y1105024D2*
X726902Y1090664D1*
Y1110760D1*
X757014Y1069744D2*
X726903D1*
X746965Y1084103D1*
X746966Y1062581D1*
X739356Y474205D2*
X739357Y461305D1*
X737898Y456994D1*
X736472Y455535D1*
X733620Y454109D1*
X730735D1*
X727883Y455535D1*
X726424Y456994D1*
X724998Y461305D1*
X724997Y474205D1*
X755141Y474206D1*
X739357Y464157D2*
X755142Y454110D1*
Y441811D2*
X725032Y427451D1*
X725031Y447547D1*
X725032Y403679D2*
Y418004D1*
X737932Y419431D1*
X736506Y418005D1*
X735047Y413694D1*
Y409416D1*
X736506Y405105D1*
X739358Y402220D1*
X743669Y400794D1*
X746521D1*
X750832Y402220D1*
X753717Y405105D1*
X755143Y409416D1*
Y413694D1*
X753717Y418005D1*
X752258Y419431D1*
X749406Y420890D1*
X809978Y1135976D2*
Y1123076D1*
X808519Y1118765D1*
X807093Y1117306D1*
X804242Y1115880D1*
X801356D1*
X798505Y1117306D1*
X797045Y1118765D1*
X795619Y1123076D1*
Y1135976D1*
X825763D1*
X809978Y1125928D2*
X825764Y1115880D1*
Y1103581D2*
X795653Y1089222D1*
Y1109318D1*
X799931Y1065449D2*
X797080Y1066875D1*
X795653Y1071186D1*
Y1074038D1*
X797079Y1078349D1*
X801390Y1081234D1*
X808553Y1082660D1*
X815716Y1082661D1*
X821453Y1081235D1*
X824338Y1078350D1*
X825764Y1074039D1*
Y1072613D1*
X824338Y1068335D1*
X821453Y1065450D1*
X817142Y1064024D1*
X815716D1*
X811405Y1065450D1*
X808553Y1068335D1*
X807127Y1072612D1*
Y1074038D1*
X808553Y1078349D1*
X811405Y1081234D1*
X815716Y1082661D1*
X808107Y474205D2*
Y461305D1*
X806648Y456994D1*
X805222Y455535D1*
X802371Y454109D1*
X799486D1*
X796634Y455535D1*
X795174Y456994D1*
X793748Y461305D1*
Y474205D1*
X823892Y474206D1*
X808107Y464157D2*
X823893Y454110D1*
Y441811D2*
X793782Y427451D1*
Y447547D1*
X823894Y415153D2*
X793783Y400794D1*
Y420890D1*
X2983108Y3153995D2*
Y3141095D1*
X2981649Y3136784D1*
X2980223Y3135325D1*
X2977371Y3133899D1*
X2974486D1*
X2971634Y3135324D1*
X2970175Y3136783D1*
X2968749Y3141094D1*
Y3153994D1*
X2998893Y3153995D1*
X2983108Y3143947D2*
X2998893Y3133899D1*
X2998894Y3121601D2*
X2968783Y3107241D1*
Y3127337D1*
X2968784Y3093516D2*
X2970210Y3097794D1*
X2973062Y3099253D1*
X2975947D1*
X2978799Y3097794D1*
X2980258Y3094942D1*
X2981684Y3089205D1*
X2983110Y3084895D1*
X2985995Y3082043D1*
X2988847Y3080617D1*
X2993158D1*
X2996010Y3082043D1*
X2997469Y3083469D1*
X2998895Y3087780D1*
Y3093517D1*
X2997469Y3097795D1*
X2996009Y3099254D1*
X2993158Y3100680D1*
X2988846D1*
X2985995Y3099254D1*
X2983110Y3096368D1*
X2981684Y3092091D1*
X2980258Y3086354D1*
X2978799Y3083468D1*
X2975947Y3082042D1*
X2973062D1*
X2970210Y3083468D1*
X2968784Y3087779D1*
Y3093516D1*
X2772158Y2570256D2*
Y2583156D1*
X2773617Y2587467D1*
X2775043Y2588926D1*
X2777895Y2590352D1*
X2780780D1*
X2783632Y2588926D1*
X2785091Y2587467D1*
X2786517Y2583156D1*
Y2570256D1*
X2756373D1*
X2772158Y2580304D2*
X2756373Y2590352D1*
Y2602651D2*
X2786483Y2617010D1*
Y2596914D1*
X2776469Y2642242D2*
X2772158Y2640783D1*
X2769273Y2637931D1*
X2767847Y2633620D1*
Y2632194D1*
X2769273Y2627883D1*
X2772158Y2625031D1*
X2776469Y2623572D1*
X2777895D1*
X2782206Y2625031D1*
X2785057Y2627883D1*
X2786483Y2632194D1*
Y2633620D1*
X2785057Y2637931D1*
X2782206Y2640783D1*
X2776469Y2642242D1*
X2769273D1*
X2762110Y2640783D1*
X2757799Y2637931D1*
X2756373Y2633620D1*
Y2630768D1*
X2757799Y2626457D1*
X2760684Y2625031D1*
X3315118Y1808979D2*
X3308668Y1820151D1*
X3307776Y1824614D1*
X3308282Y1826591D1*
X3310039Y1829252D1*
X3312537Y1830694D1*
X3315720Y1830885D1*
X3317713Y1830351D1*
X3321104Y1827331D1*
X3327554Y1816159D1*
X3301448Y1801087D1*
X3310094Y1817681D2*
X3291400Y1818491D1*
X3310615Y1845432D2*
X3311519Y1841014D1*
X3309778Y1838325D1*
X3307280Y1836882D1*
X3304080Y1836720D1*
X3301391Y1838460D1*
X3297287Y1842715D1*
X3293897Y1845736D1*
X3289972Y1846763D1*
X3286790Y1846572D1*
X3283056Y1844417D1*
X3281299Y1841756D1*
X3280749Y1839791D1*
X3281669Y1835345D1*
X3284538Y1830376D1*
X3287912Y1827385D1*
X3289905Y1826851D1*
X3293088Y1827042D1*
X3296821Y1829197D1*
X3298578Y1831858D1*
X3299634Y1835799D1*
X3298730Y1840217D1*
X3297096Y1845898D1*
X3296917Y1849126D1*
X3298674Y1851787D1*
X3301173Y1853230D1*
X3304356Y1853421D1*
X3307746Y1850400D1*
X3310615Y1845432D1*
X3296573Y1869753D2*
X3297493Y1865307D1*
X3295202Y1860653D1*
X3289712Y1855836D1*
X3285979Y1853681D1*
X3279062Y1851334D1*
X3273886Y1851677D1*
X3270496Y1854698D1*
X3269070Y1857167D1*
X3268149Y1861614D1*
X3270457Y1866239D1*
X3275931Y1871084D1*
X3279664Y1873240D1*
X3286597Y1875558D1*
X3291756Y1875243D1*
X3295147Y1872223D1*
X3296573Y1869753D1*
X3286597Y1875558D2*
X3279062Y1851334D1*
X2847158Y2582259D2*
Y2595159D1*
X2848617Y2599470D1*
X2850043Y2600929D1*
X2852895Y2602355D1*
X2855780D1*
X2858632Y2600929D1*
X2860091Y2599470D1*
X2861517Y2595159D1*
Y2582259D1*
X2831373D1*
X2847158Y2592307D2*
X2831373Y2602355D1*
X2861483Y2616080D2*
X2860057Y2611802D1*
X2857206Y2610343D1*
X2854321D1*
X2851469Y2611802D1*
X2850009Y2614654D1*
X2848584Y2620391D1*
X2847158Y2624702D1*
X2844273Y2627554D1*
X2841421Y2628980D1*
X2837110D1*
X2834258Y2627554D1*
X2832799Y2626128D1*
X2831373Y2621817D1*
Y2616080D1*
X2832799Y2611802D1*
X2834258Y2610343D1*
X2837110Y2608917D1*
X2841421D1*
X2844273Y2610343D1*
X2847158Y2613228D1*
X2848584Y2617506D1*
X2850009Y2623243D1*
X2851469Y2626128D1*
X2854321Y2627554D1*
X2857206D1*
X2860057Y2626128D1*
X2861483Y2621817D1*
Y2616080D1*
X2855746Y2635541D2*
X2857206Y2638427D1*
X2861483Y2642738D1*
X2831373D1*
X2928410Y2569560D2*
Y2582460D1*
X2929869Y2586771D1*
X2931295Y2588230D1*
X2934147Y2589656D1*
X2937032D1*
X2939884Y2588230D1*
X2941343Y2586771D1*
X2942769Y2582460D1*
Y2569560D1*
X2912625D1*
X2928410Y2579608D2*
X2912625Y2589656D1*
X2942735Y2603381D2*
X2941309Y2599103D1*
X2938458Y2597644D1*
X2935572D1*
X2932721Y2599103D1*
X2931261Y2601955D1*
X2929835Y2607692D1*
X2928409Y2612003D1*
X2925524Y2614855D1*
X2922672Y2616280D1*
X2918361D1*
X2915509Y2614854D1*
X2914050Y2613428D1*
X2912624Y2609117D1*
Y2603380D1*
X2914051Y2599102D1*
X2915510Y2597643D1*
X2918362Y2596217D1*
X2922673Y2596218D1*
X2925524Y2597644D1*
X2928409Y2600529D1*
X2929835Y2604807D1*
X2931261Y2610544D1*
X2932720Y2613429D1*
X2935572Y2614855D1*
X2938457D1*
X2941309Y2613429D1*
X2942735Y2609118D1*
Y2603381D1*
X2935572Y2624302D2*
X2936998D1*
X2939883Y2625728D1*
X2941309Y2627154D1*
X2942735Y2630039D1*
X2942734Y2635776D1*
X2941308Y2638628D1*
X2939882Y2640053D1*
X2936997Y2641513D1*
X2934145Y2641512D1*
X2931260Y2640053D1*
X2926983Y2637201D1*
X2912624Y2622842D1*
X2912623Y2642938D1*
X1064718Y2358842D2*
Y2371742D1*
X1066177Y2376053D1*
X1067603Y2377512D1*
X1070455Y2378938D1*
X1073340D1*
X1076192Y2377512D1*
X1077651Y2376053D1*
X1079077Y2371742D1*
Y2358842D1*
X1048933D1*
X1064718Y2368890D2*
X1048933Y2378938D1*
X1079044Y2392663D2*
X1077618Y2388385D1*
X1074766Y2386926D1*
X1071881D1*
X1069029Y2388385D1*
X1067570Y2391237D1*
X1066144Y2396974D1*
X1064718Y2401285D1*
X1061833Y2404137D1*
X1058981Y2405563D1*
X1054670D1*
X1051818Y2404137D1*
X1050359Y2402711D1*
X1048933Y2398400D1*
Y2392663D1*
X1050359Y2388385D1*
X1051818Y2386926D1*
X1054670Y2385500D1*
X1058981D1*
X1061833Y2386926D1*
X1064718Y2389811D1*
X1066144Y2394089D1*
X1067570Y2399826D1*
X1069029Y2402711D1*
X1071881Y2404137D1*
X1074766D1*
X1077618Y2402711D1*
X1079044Y2398400D1*
Y2392663D1*
Y2415009D2*
Y2430761D1*
X1067570Y2422172D1*
Y2426483D1*
X1066144Y2429335D1*
X1064718Y2430761D1*
X1060407Y2432220D1*
X1057555D1*
X1053244Y2430761D1*
X1050359Y2427909D1*
X1048933Y2423598D1*
Y2419287D1*
X1050359Y2415009D1*
X1051818Y2413583D1*
X1054670Y2412124D1*
X1668651Y2673138D2*
X1655751D1*
X1651440Y2674597D1*
X1649981Y2676023D1*
X1648555Y2678875D1*
Y2681760D1*
X1649981Y2684612D1*
X1651440Y2686071D1*
X1655751Y2687497D1*
X1668651D1*
Y2657353D1*
X1658603Y2673138D2*
X1648555Y2657353D1*
X1634831Y2687464D2*
X1639108Y2686038D1*
X1640567Y2683186D1*
Y2680301D1*
X1639108Y2677449D1*
X1636256Y2675990D1*
X1630519Y2674564D1*
X1626208Y2673138D1*
X1623357Y2670253D1*
X1621931Y2667401D1*
Y2663090D1*
X1623357Y2660238D1*
X1624783Y2658779D1*
X1629094Y2657353D1*
X1634831D1*
X1639108Y2658779D1*
X1640567Y2660238D1*
X1641993Y2663090D1*
Y2667401D1*
X1640567Y2670253D1*
X1637682Y2673138D1*
X1633405Y2674564D1*
X1627668Y2675990D1*
X1624783Y2677449D1*
X1623357Y2680301D1*
Y2683186D1*
X1624783Y2686038D1*
X1629094Y2687464D1*
X1634831D1*
X1601010Y2657353D2*
Y2687464D1*
X1615369Y2667401D1*
X1593847D1*
X1266227Y1136689D2*
X1266228Y1123789D1*
X1264769Y1119478D1*
X1263343Y1118019D1*
X1260491Y1116593D1*
X1257606D1*
X1254754Y1118019D1*
X1253295Y1119478D1*
X1251869Y1123789D1*
X1251868Y1136688D1*
X1282012Y1136689D1*
X1266228Y1126641D2*
X1282013Y1116593D1*
X1251902Y1102868D2*
X1253328Y1107146D1*
X1256180Y1108605D1*
X1259065D1*
X1261917Y1107146D1*
X1263376Y1104294D1*
X1264802Y1098557D1*
X1266228Y1094246D1*
X1269113Y1091394D1*
X1271965Y1089968D1*
X1276276D1*
X1279128Y1091394D1*
X1280587Y1092820D1*
X1282013Y1097131D1*
Y1102868D1*
X1280587Y1107146D1*
X1279128Y1108605D1*
X1276276Y1110031D1*
X1271965D1*
X1269113Y1108605D1*
X1266228Y1105720D1*
X1264802Y1101442D1*
X1263376Y1095705D1*
X1261917Y1092820D1*
X1259065Y1091394D1*
X1256180D1*
X1253328Y1092820D1*
X1251902Y1097131D1*
Y1102868D1*
X1251903Y1066195D2*
Y1080521D1*
X1264803Y1081947D1*
X1263377Y1080521D1*
X1261918Y1076210D1*
Y1071933D1*
X1263377Y1067622D1*
X1266229Y1064737D1*
X1270540Y1063311D1*
X1273392D1*
X1277703Y1064737D1*
X1280588Y1067622D1*
X1282014Y1071933D1*
Y1076211D1*
X1280588Y1080522D1*
X1279128Y1081948D1*
X1276276Y1083407D1*
X1270607Y473459D2*
Y460559D1*
X1269148Y456248D1*
X1267722Y454789D1*
X1264871Y453363D1*
X1261986D1*
X1259134Y454789D1*
X1257674Y456248D1*
X1256248Y460559D1*
Y473459D1*
X1286392Y473460D1*
X1270607Y463411D2*
X1286393Y453364D1*
X1256282Y439638D2*
X1257708Y443916D1*
X1260560Y445375D1*
X1263445D1*
X1266297Y443916D1*
X1267756Y441065D1*
X1269182Y435328D1*
X1270608Y431017D1*
X1273493Y428165D1*
X1276345Y426739D1*
X1280656D1*
X1283508Y428165D1*
X1284967Y429591D1*
X1286393Y433902D1*
Y439639D1*
X1284967Y443917D1*
X1283508Y445376D1*
X1280656Y446802D1*
X1276345D1*
X1273493Y445376D1*
X1270608Y442491D1*
X1269182Y438213D1*
X1267756Y432476D1*
X1266297Y429591D1*
X1263445Y428165D1*
X1260560Y428164D1*
X1257708Y429590D1*
X1256282Y433901D1*
Y439638D1*
X1260561Y402966D2*
X1257709Y404392D1*
X1256283Y408703D1*
Y411555D1*
X1257709Y415866D1*
X1262020Y418751D1*
X1269183Y420177D1*
X1276345D1*
X1282082Y418751D1*
X1284968Y415866D1*
X1286394Y411555D1*
Y410129D1*
X1284968Y405852D1*
X1282083Y402966D1*
X1277772Y401540D1*
X1276346D1*
X1272035Y402966D1*
X1269183Y405851D1*
X1267757Y410129D1*
Y411555D1*
X1269183Y415866D1*
X1272034Y418751D1*
X1276345Y420177D1*
X1542940Y2673139D2*
X1530041Y2673138D1*
X1525730Y2674597D1*
X1524270Y2676023D1*
X1522844Y2678875D1*
Y2681760D1*
X1524270Y2684612D1*
X1525729Y2686071D1*
X1530040Y2687497D1*
X1542940Y2687498D1*
X1542941Y2657354D1*
X1532892Y2673138D2*
X1522845Y2657353D1*
X1509120Y2687464D2*
X1513397Y2686038D1*
X1514857Y2683186D1*
Y2680301D1*
X1513398Y2677449D1*
X1510546Y2675990D1*
X1504809Y2674564D1*
X1500498Y2673138D1*
X1497646Y2670253D1*
X1496220Y2667401D1*
Y2663090D1*
X1497646Y2660238D1*
X1499072Y2658779D1*
X1503383Y2657353D1*
X1509120D1*
X1513398Y2658779D1*
X1514857Y2660238D1*
X1516283Y2663090D1*
Y2667401D1*
X1514857Y2670253D1*
X1511972Y2673138D1*
X1507694Y2674564D1*
X1501957Y2675990D1*
X1499072Y2677449D1*
X1497646Y2680301D1*
Y2683186D1*
X1499072Y2686038D1*
X1503383Y2687464D1*
X1509120D1*
X1483922Y2657352D2*
X1469562Y2687463D1*
X1489658D1*
X1334978Y1136672D2*
Y1123772D1*
X1333519Y1119461D1*
X1332093Y1118002D1*
X1329242Y1116576D1*
X1326356D1*
X1323505Y1118002D1*
X1322045Y1119461D1*
X1320619Y1123772D1*
Y1136672D1*
X1350763D1*
X1334978Y1126624D2*
X1350764Y1116576D1*
X1320653Y1102851D2*
X1322079Y1107129D1*
X1324931Y1108588D1*
X1327816D1*
X1330668Y1107129D1*
X1332127Y1104277D1*
X1333553Y1098541D1*
X1334979Y1094230D1*
X1337864Y1091378D1*
X1340716Y1089952D1*
X1345027D1*
X1347879Y1091378D1*
X1349338Y1092804D1*
X1350764Y1097115D1*
Y1102852D1*
X1349338Y1107130D1*
X1347879Y1108589D1*
X1345027Y1110015D1*
X1340716D1*
X1337864Y1108589D1*
X1334979Y1105703D1*
X1333553Y1101426D1*
X1332127Y1095689D1*
X1330668Y1092803D1*
X1327816Y1091377D1*
X1324931D1*
X1322079Y1092803D1*
X1320653Y1097114D1*
Y1102851D1*
Y1076227D2*
X1322079Y1080505D1*
X1324931Y1081964D1*
X1327816D1*
X1330668Y1080505D1*
X1332127Y1077653D1*
X1333553Y1071916D1*
X1334979Y1067605D1*
X1337865Y1064753D1*
X1340716Y1063327D1*
X1345028D1*
X1347879Y1064753D1*
X1349338Y1066179D1*
X1350764Y1070490D1*
Y1076227D1*
X1349338Y1080505D1*
X1347879Y1081964D1*
X1345027Y1083390D1*
X1340716D1*
X1337864Y1081964D1*
X1334979Y1079079D1*
X1333553Y1074801D1*
X1332127Y1069064D1*
X1330668Y1066179D1*
X1327817Y1064753D1*
X1324931D1*
X1322080Y1066179D1*
X1320654Y1070490D1*
X1320653Y1076227D1*
X1339358Y473476D2*
Y460576D1*
X1337899Y456265D1*
X1336473Y454806D1*
X1333621Y453380D1*
X1330736D1*
X1327884Y454806D1*
X1326425Y456265D1*
X1324999Y460576D1*
Y473476D1*
X1355143D1*
X1339358Y463428D2*
X1355143Y453380D1*
X1325033Y439655D2*
X1326459Y443933D1*
X1329310Y445392D1*
X1332196D1*
X1335047Y443933D1*
X1336507Y441081D1*
X1337933Y435344D1*
X1339359Y431033D1*
X1342244Y428181D1*
X1345096Y426756D1*
X1349407D1*
X1352259Y428182D1*
X1353718Y429608D1*
X1355144Y433919D1*
Y439656D1*
X1353718Y443933D1*
X1352258Y445393D1*
X1349406Y446818D1*
X1345095D1*
X1342244Y445392D1*
X1339359Y442507D1*
X1337933Y438229D1*
X1336507Y432492D1*
X1335048Y429607D1*
X1332196Y428181D1*
X1329311D1*
X1326459Y429607D1*
X1325033Y433918D1*
Y439655D1*
X1335049Y401524D2*
X1339360Y402983D1*
X1342245Y405835D1*
X1343670Y410146D1*
Y411572D1*
X1342244Y415883D1*
X1339359Y418735D1*
X1335048Y420194D1*
X1333622D1*
X1329311Y418734D1*
X1326459Y415882D1*
X1325033Y411571D1*
X1325034Y410145D1*
X1326460Y405834D1*
X1329312Y402982D1*
X1335049Y401524D1*
X1342245D1*
X1349408Y402983D1*
X1353719Y405835D1*
X1355144Y410146D1*
Y412998D1*
X1353718Y417309D1*
X1350833Y418735D1*
X1772477Y1132610D2*
Y1119711D1*
X1771018Y1115400D1*
X1769592Y1113940D1*
X1766740Y1112514D1*
X1763855D1*
X1761003Y1113940D1*
X1759544Y1115399D1*
X1758118Y1119710D1*
Y1132610D1*
X1788262Y1132611D1*
X1772477Y1122562D2*
X1788262Y1112515D1*
X1768167Y1087283D2*
X1772478Y1088742D1*
X1775363Y1091594D1*
X1776789Y1095905D1*
Y1097331D1*
X1775363Y1101642D1*
X1772477Y1104494D1*
X1768166Y1105953D1*
X1766740D1*
X1762429Y1104493D1*
X1759578Y1101642D1*
X1758152Y1097330D1*
Y1095905D1*
X1759578Y1091594D1*
X1762430Y1088742D1*
X1768167Y1087283D1*
X1775363D1*
X1782526Y1088742D1*
X1786837Y1091594D1*
X1788263Y1095905D1*
Y1098757D1*
X1786836Y1103068D1*
X1783951Y1104494D1*
X1758152Y1072099D2*
X1759578Y1076410D1*
X1763889Y1079295D1*
X1771052Y1080721D1*
X1775363D1*
X1782526Y1079295D1*
X1786837Y1076410D1*
X1788263Y1072099D1*
Y1069247D1*
X1786837Y1064936D1*
X1782526Y1062084D1*
X1775363Y1060625D1*
X1771052D1*
X1763889Y1062084D1*
X1759578Y1064936D1*
X1758152Y1069247D1*
Y1072099D1*
X1763889Y1062084D2*
X1782526Y1079295D1*
X1776857Y467042D2*
Y454142D1*
X1775398Y449831D1*
X1773972Y448372D1*
X1771120Y446946D1*
X1768235D1*
X1765383Y448372D1*
X1763924Y449831D1*
X1762498Y454142D1*
Y467042D1*
X1792642Y467043D1*
X1776857Y456994D2*
X1792642Y446947D1*
X1772547Y421715D2*
X1776858Y423174D1*
X1779743Y426026D1*
X1781169Y430337D1*
Y431763D1*
X1779742Y436074D1*
X1776857Y438926D1*
X1772546Y440385D1*
X1771120D1*
X1766809Y438925D1*
X1763957Y436073D1*
X1762532Y431762D1*
Y430336D1*
X1763958Y426025D1*
X1766810Y423173D1*
X1772547Y421715D1*
X1779743D1*
X1786906Y423174D1*
X1791217Y426026D1*
X1792643Y430337D1*
X1792642Y433189D1*
X1791216Y437500D1*
X1788331Y438926D1*
X1768269Y415153D2*
X1766810Y412268D1*
X1762532Y407956D1*
X1792643Y407957D1*
X1872478Y1132610D2*
Y1119711D1*
X1871019Y1115400D1*
X1869594Y1113940D1*
X1866742Y1112514D1*
X1863857D1*
X1861005Y1113940D1*
X1859545Y1115399D1*
X1858119Y1119710D1*
Y1132610D1*
X1888263Y1132611D1*
X1872478Y1122562D2*
X1888264Y1112515D1*
X1868168Y1087283D2*
X1872479Y1088742D1*
X1875364Y1091594D1*
X1876790Y1095905D1*
Y1097331D1*
X1875364Y1101642D1*
X1872479Y1104494D1*
X1868168Y1105953D1*
X1866742D1*
X1862431Y1104493D1*
X1859579Y1101642D1*
X1858153Y1097330D1*
Y1095905D1*
X1859579Y1091594D1*
X1862431Y1088742D1*
X1868168Y1087283D1*
X1875364D1*
X1882527Y1088742D1*
X1886838Y1091594D1*
X1888264Y1095905D1*
Y1098757D1*
X1886838Y1103068D1*
X1883953Y1104494D1*
X1865316Y1079262D2*
X1863890D1*
X1861005Y1077836D1*
X1859579Y1076410D1*
X1858153Y1073525D1*
X1858154Y1067788D1*
X1859580Y1064936D1*
X1861006Y1063510D1*
X1863891Y1062051D1*
X1866743D1*
X1869628Y1063510D1*
X1873905Y1066362D1*
X1888264Y1080721D1*
X1888265Y1060625D1*
X1845607Y473492D2*
Y460592D1*
X1844148Y456281D1*
X1842722Y454822D1*
X1839871Y453396D1*
X1836986D1*
X1834134Y454822D1*
X1832674Y456281D1*
X1831248Y460592D1*
Y473492D1*
X1861392Y473493D1*
X1845607Y463444D2*
X1861393Y453397D1*
X1841297Y428164D2*
X1845608Y429624D1*
X1848493Y432476D1*
X1849919Y436787D1*
Y438213D1*
X1848493Y442524D1*
X1845608Y445375D1*
X1841297Y446835D1*
X1839871Y446834D1*
X1835560Y445375D1*
X1832708Y442523D1*
X1831282Y438212D1*
Y436786D1*
X1832708Y432475D1*
X1835560Y429623D1*
X1841297Y428164D1*
X1848493Y428165D1*
X1855656Y429624D1*
X1859967Y432476D1*
X1861393Y436787D1*
Y439639D1*
X1859967Y443950D1*
X1857082Y445376D1*
X1831283Y418717D2*
Y402966D1*
X1842757Y411555D1*
Y407244D1*
X1844183Y404392D1*
X1845609Y402966D1*
X1849920Y401507D1*
X1852772D1*
X1857083Y402966D1*
X1859968Y405818D1*
X1861394Y410129D1*
Y414440D1*
X1859968Y418718D1*
X1858508Y420144D1*
X1855656Y421603D1*
X1292225Y4056001D2*
Y4077523D1*
X1293651Y4081834D1*
X1296536Y4084686D1*
X1300847Y4086145D1*
X1303699D1*
X1308010Y4084686D1*
X1310895Y4081834D1*
X1312321Y4077523D1*
Y4056001D1*
X1318883Y4061771D2*
X1321768Y4060312D1*
X1326079Y4056034D1*
Y4086145D1*
X1030340Y1750245D2*
Y1728723D1*
X1028914Y1724412D1*
X1026029Y1721560D1*
X1021718Y1720101D1*
X1018866D1*
X1014555Y1721560D1*
X1011670Y1724412D1*
X1010244Y1728723D1*
Y1750245D1*
X989323Y1720101D2*
Y1750212D1*
X1003682Y1730149D1*
X982161D1*
X664197Y1206574D2*
X664198Y1185052D1*
X662772Y1180741D1*
X659887Y1177889D1*
X655576Y1176430D1*
X652724Y1176429D1*
X648413Y1177888D1*
X645528Y1180740D1*
X644102Y1185051D1*
X644101Y1206573D1*
X637540Y1200803D2*
X634654Y1202262D1*
X630343Y1206540D1*
X630344Y1176429D1*
X615160Y1206539D2*
X619471Y1205114D1*
X622356Y1200803D1*
X623782Y1193640D1*
Y1189329D1*
X622356Y1182166D1*
X619471Y1177855D1*
X615160Y1176429D1*
X612308D1*
X607997Y1177854D1*
X605145Y1182165D1*
X603686Y1189328D1*
Y1193639D1*
X605145Y1200802D1*
X607997Y1205113D1*
X612308Y1206539D1*
X615160D1*
X605145Y1200802D2*
X622356Y1182166D1*
X671605Y572332D2*
Y550810D1*
X670179Y546499D1*
X667294Y543647D1*
X662983Y542188D1*
X660131D1*
X655820Y543647D1*
X652935Y546499D1*
X651509Y550810D1*
Y572332D1*
X644947Y566561D2*
X642062Y568021D1*
X637751Y572298D1*
Y542188D1*
X631189Y566561D2*
X628304Y568021D1*
X623993Y572298D1*
Y542188D1*
X1189197Y1206574D2*
X1189198Y1185052D1*
X1187772Y1180741D1*
X1184887Y1177889D1*
X1180576Y1176430D1*
X1177724Y1176429D1*
X1173413Y1177888D1*
X1170528Y1180740D1*
X1169102Y1185051D1*
X1169101Y1206573D1*
X1162540Y1200803D2*
X1159654Y1202262D1*
X1155343Y1206540D1*
X1155344Y1176429D1*
X1147323Y1199377D2*
Y1200803D1*
X1145897Y1203688D1*
X1144471Y1205114D1*
X1141586Y1206539D1*
X1135849D1*
X1132997Y1205113D1*
X1131571Y1203687D1*
X1130112Y1200802D1*
Y1197950D1*
X1131571Y1195065D1*
X1134423Y1190788D1*
X1148782Y1176429D1*
X1128686Y1176428D1*
X1203055Y572332D2*
Y550810D1*
X1201629Y546499D1*
X1198744Y543647D1*
X1194433Y542188D1*
X1191581D1*
X1187270Y543647D1*
X1184385Y546499D1*
X1182959Y550810D1*
Y572332D1*
X1176397Y566561D2*
X1173512Y568021D1*
X1169201Y572298D1*
Y542188D1*
X1159754Y572298D2*
X1144002D1*
X1152591Y560824D1*
X1148280D1*
X1145428Y559399D1*
X1144002Y557973D1*
X1142543Y553662D1*
Y550810D1*
X1144002Y546499D1*
X1146854Y543614D1*
X1151165Y542188D1*
X1155476D1*
X1159754Y543614D1*
X1161180Y545073D1*
X1162639Y547925D1*
X1702970Y1202621D2*
X1702971Y1181099D1*
X1701545Y1176788D1*
X1698660Y1173936D1*
X1694349Y1172477D1*
X1691497D1*
X1687186Y1173936D1*
X1684301Y1176788D1*
X1682875Y1181099D1*
X1682874Y1202621D1*
X1676313Y1196850D2*
X1673428Y1198309D1*
X1669117Y1202587D1*
Y1172476D1*
X1648197D2*
X1648196Y1202587D1*
X1662555Y1182524D1*
X1641034D1*
X1715555Y572332D2*
Y550810D1*
X1714129Y546499D1*
X1711244Y543647D1*
X1706933Y542188D1*
X1704081D1*
X1699770Y543647D1*
X1696885Y546499D1*
X1695459Y550810D1*
Y572332D1*
X1688897Y566561D2*
X1686012Y568021D1*
X1681701Y572298D1*
Y542188D1*
X1657928Y572298D2*
X1672254D1*
X1673680Y559399D1*
X1672254Y560824D1*
X1667943Y562284D1*
X1663665D1*
X1659354Y560824D1*
X1656469Y557973D1*
X1655043Y553662D1*
Y550810D1*
X1656469Y546499D1*
X1659354Y543614D1*
X1663665Y542188D1*
X1667943D1*
X1672254Y543614D1*
X1673680Y545073D1*
X1675139Y547925D1*
X2719492Y2153193D2*
X2719491Y2174715D1*
X2720917Y2179026D1*
X2723802Y2181878D1*
X2728113Y2183337D1*
X2730965D1*
X2735276Y2181878D1*
X2738161Y2179026D1*
X2739587Y2174715D1*
X2739588Y2153194D1*
X2746150Y2158964D2*
X2749035Y2157505D1*
X2753346Y2153227D1*
X2753345Y2183338D1*
X2777118Y2157506D2*
X2775693Y2154654D1*
X2771382Y2153228D1*
X2768530D1*
X2764219Y2154654D1*
X2761333Y2158965D1*
X2759907Y2166127D1*
Y2173290D1*
X2761333Y2179027D1*
X2764218Y2181913D1*
X2768529Y2183339D1*
X2769954D1*
X2774232Y2181913D1*
X2777118Y2179028D1*
X2778544Y2174717D1*
Y2173291D1*
X2777118Y2168980D1*
X2774233Y2166128D1*
X2769955Y2164702D1*
X2768529D1*
X2764218Y2166128D1*
X2761333Y2168979D1*
X2759907Y2173290D1*
X1362816Y1424299D2*
X1349916D1*
X1345605Y1425758D1*
X1344146Y1427184D1*
X1342720Y1430036D1*
Y1432921D1*
X1344146Y1435773D1*
X1345605Y1437232D1*
X1349916Y1438658D1*
X1362816D1*
Y1408514D1*
X1352768Y1424299D2*
X1342720Y1408514D1*
X1317488Y1428610D2*
X1318947Y1424299D1*
X1321799Y1421414D1*
X1326110Y1419988D1*
X1327536D1*
X1331847Y1421414D1*
X1334699Y1424299D1*
X1336158Y1428610D1*
Y1430036D1*
X1334699Y1434347D1*
X1331847Y1437199D1*
X1327536Y1438625D1*
X1326110D1*
X1321799Y1437199D1*
X1318947Y1434347D1*
X1317488Y1428610D1*
Y1421414D1*
X1318947Y1414251D1*
X1321799Y1409940D1*
X1326110Y1408514D1*
X1328962D1*
X1333273Y1409940D1*
X1334699Y1412825D1*
X1296567Y1408514D2*
Y1438625D1*
X1310926Y1418562D1*
X1289404D1*
X1239672Y1378581D2*
X1226772D1*
X1222461Y1380041D1*
X1221002Y1381467D1*
X1219576Y1384318D1*
Y1387204D1*
X1221002Y1390055D1*
X1222461Y1391515D1*
X1226772Y1392940D1*
X1239672D1*
Y1362796D1*
X1229624Y1378581D2*
X1219576Y1362796D1*
X1194344Y1382892D2*
X1195804Y1378581D1*
X1198655Y1375696D1*
X1202967Y1374270D1*
X1204392D1*
X1208703Y1375696D1*
X1211555Y1378581D1*
X1213015Y1382892D1*
Y1384318D1*
X1211555Y1388629D1*
X1208703Y1391481D1*
X1204392Y1392907D1*
X1202967D1*
X1198655Y1391481D1*
X1195804Y1388629D1*
X1194344Y1382892D1*
Y1375696D1*
X1195804Y1368533D1*
X1198655Y1364222D1*
X1202967Y1362796D1*
X1205818D1*
X1210129Y1364222D1*
X1211555Y1367108D1*
X1170572Y1392907D2*
X1184898D1*
X1186324Y1380007D1*
X1184898Y1381433D1*
X1180587Y1382892D1*
X1176309D1*
X1171998Y1381433D1*
X1169113Y1378581D1*
X1167687Y1374270D1*
Y1371419D1*
X1169113Y1367108D1*
X1171998Y1364222D1*
X1176309Y1362796D1*
X1180587D1*
X1184898Y1364222D1*
X1186324Y1365682D1*
X1187783Y1368533D1*
X1347656Y1984410D2*
X1334757D1*
X1330446Y1985869D1*
X1328986Y1987295D1*
X1327560Y1990147D1*
Y1993032D1*
X1328986Y1995884D1*
X1330446Y1997343D1*
X1334757Y1998769D1*
X1347656D1*
Y1968625D1*
X1337608Y1984410D2*
X1327560Y1968625D1*
X1302329Y1988721D2*
X1303788Y1984410D1*
X1306640Y1981524D1*
X1310951Y1980099D1*
X1312377D1*
X1316688Y1981524D1*
X1319540Y1984410D1*
X1320999Y1988721D1*
Y1990147D1*
X1319540Y1994458D1*
X1316688Y1997309D1*
X1312377Y1998735D1*
X1310951D1*
X1306640Y1997309D1*
X1303788Y1994458D1*
X1302329Y1988721D1*
Y1981524D1*
X1303788Y1974362D1*
X1306640Y1970051D1*
X1310951Y1968625D1*
X1313803D1*
X1318114Y1970051D1*
X1319540Y1972936D1*
X1290030Y1968625D2*
X1275671Y1998735D1*
X1295767D1*
M02*
