G04 DipTrace 4.0.0.5*
G04 BottomAssembly.gbr*
%MOIN*%
G04 #@! TF.FileFunction,Drawing,Bot*
G04 #@! TF.Part,Single*
%ADD12C,0.005512*%
%ADD13C,0.004724*%
%ADD16C,0.007874*%
%ADD22C,0.003937*%
%FSLAX26Y26*%
G04*
G70*
G90*
G75*
G01*
G04 BotAssy*
%LPD*%
X1137352Y3121603D2*
D13*
X1175147Y3121604D1*
X1175146Y3190895D1*
X1137351Y3190894D1*
X1137352Y3121603D1*
X2187352Y3115354D2*
X2225147D1*
X2225146Y3184646D1*
X2187351Y3184645D1*
X2187352Y3115354D1*
X909646Y2443602D2*
X909645Y2481397D1*
X840354Y2481395D1*
Y2443600D1*
X909646Y2443602D1*
X1684646Y2437351D2*
X1684645Y2475146D1*
X1615354Y2475145D1*
Y2437349D1*
X1684646Y2437351D1*
X2668896Y3228395D2*
X2631101Y3228394D1*
X2631103Y3159103D1*
X2668898Y3159104D1*
X2668896Y3228395D1*
X2465895Y2612352D2*
X2465894Y2650147D1*
X2396603Y2650146D1*
X2396604Y2612351D1*
X2465895Y2612352D1*
X3240895Y2443603D2*
X3240894Y2481398D1*
X3171603Y2481397D1*
X3171604Y2443601D1*
X3240895Y2443603D1*
X2290353Y1206396D2*
X2290355Y1168601D1*
X2359646Y1168603D1*
X2359645Y1206398D1*
X2290353Y1206396D1*
X3071603Y1206395D2*
X3071604Y1168600D1*
X3140895Y1168602D1*
X3140894Y1206397D1*
X3071603Y1206395D1*
X1048304Y2137645D2*
Y2099850D1*
X1117596D1*
Y2137645D1*
X1048304D1*
X1365896Y1599851D2*
Y1637647D1*
X1296605D1*
Y1599851D1*
X1365896D1*
X1372146Y2087199D2*
X1372145Y2124994D1*
X1302854Y2124992D1*
Y2087197D1*
X1372146Y2087199D1*
X1046605Y1637647D2*
Y1599851D1*
X1115896D1*
Y1637647D1*
X1046605D1*
X793603Y1621603D2*
X831398Y1621604D1*
X831397Y1690895D1*
X793601Y1690894D1*
X793603Y1621603D1*
X1587353Y1634103D2*
X1625148Y1634104D1*
X1625146Y1703395D1*
X1587350Y1703394D1*
X1587353Y1634103D1*
X900147Y1234645D2*
X862351D1*
Y1165354D1*
X900147D1*
Y1234645D1*
X862351Y496603D2*
X900147D1*
Y565895D1*
X862351D1*
Y496603D1*
X3329776Y1667879D2*
X3367571D1*
X3367570Y1737171D1*
X3329775Y1737170D1*
X3329776Y1667879D1*
X3386025D2*
X3423821D1*
X3423819Y1737171D1*
X3386024Y1737170D1*
X3386025Y1667879D1*
X3425957Y2054298D2*
X3458688Y2073195D1*
X3424043Y2133203D1*
X3391311Y2114306D1*
X3425957Y2054298D1*
X3475955Y2079298D2*
X3508687Y2098195D1*
X3474041Y2158203D1*
X3441310Y2139306D1*
X3475955Y2079298D1*
X2238000Y611887D2*
X2275795D1*
Y681178D1*
X2238000D1*
Y611887D1*
X3464878Y1667879D2*
X3502673D1*
Y1737170D1*
X3464878D1*
Y1667879D1*
X3521127D2*
X3558922D1*
Y1737170D1*
X3521127D1*
Y1667879D1*
X1425147Y1234645D2*
X1387351D1*
Y1165354D1*
X1425147D1*
Y1234645D1*
X1387351Y496603D2*
X1425147D1*
Y565895D1*
X1387351D1*
Y496603D1*
X1253395Y2293602D2*
Y2331397D1*
X1184103D1*
Y2293602D1*
X1253395D1*
X3060300Y1499053D2*
X3100945Y1539698D1*
X3039699Y1600943D1*
X2999055Y1560299D1*
X3060300Y1499053D1*
X3069110Y2086134D2*
X3042385Y2112859D1*
X2993388Y2063863D1*
X3020114Y2037138D1*
X3069110Y2086134D1*
X3104885Y1574639D2*
X3131610Y1601365D1*
X3082613Y1650360D1*
X3055888Y1623634D1*
X3104885Y1574639D1*
X3050361Y2148635D2*
X3023635Y2175361D1*
X2974639Y2126364D1*
X3001364Y2099639D1*
X3050361Y2148635D1*
X3148635Y1618388D2*
X3175361Y1645114D1*
X3126364Y1694110D1*
X3099639Y1667385D1*
X3148635Y1618388D1*
X2417804Y1564699D2*
X2458449Y1524055D1*
X2519694Y1585300D1*
X2479049Y1625945D1*
X2417804Y1564699D1*
X2345115Y2025361D2*
X2318390Y1998635D1*
X2367386Y1949639D1*
X2394111Y1976364D1*
X2345115Y2025361D1*
X2330888Y1588864D2*
X2357614Y1562139D1*
X2406610Y1611135D1*
X2379885Y1637861D1*
X2330888Y1588864D1*
X2284103Y1925147D2*
Y1887351D1*
X2353395D1*
Y1925147D1*
X2284103D1*
X2287138Y1632612D2*
X2313863Y1605887D1*
X2362859Y1654883D1*
X2336134Y1681609D1*
X2287138Y1632612D1*
X1962647Y1234645D2*
X1924851D1*
Y1165354D1*
X1962647D1*
Y1234645D1*
X1899851Y496603D2*
X1937647D1*
Y565895D1*
X1899851D1*
Y496603D1*
X2669110Y2161136D2*
X2642384Y2187861D1*
X2593388Y2138863D1*
X2620114Y2112139D1*
X2669110Y2161136D1*
X2508449Y2200945D2*
X2467804Y2160300D1*
X2529049Y2099055D1*
X2569694Y2139699D1*
X2508449Y2200945D1*
X2388864Y2062861D2*
X2362139Y2036135D1*
X2411135Y1987139D1*
X2437861Y2013864D1*
X2388864Y2062861D1*
X2415226Y2172380D2*
X2365118Y2122268D1*
X2459774Y2027620D1*
X2509882Y2077732D1*
X2415226Y2172380D1*
X2648015Y1449017D2*
X2674740Y1475743D1*
X2625743Y1524738D1*
X2599018Y1498012D1*
X2648015Y1449017D1*
X2474055Y1508449D2*
X2514699Y1467804D1*
X2575945Y1529049D1*
X2535300Y1569694D1*
X2474055Y1508449D1*
X2799557Y3852509D2*
Y3909989D1*
X2712943D1*
Y3852509D1*
X2799557D1*
X2797145Y3774851D2*
Y3812647D1*
X2727854D1*
Y3774851D1*
X2797145D1*
X2284103Y3807050D2*
Y3769254D1*
X2353395D1*
Y3807050D1*
X2284103D1*
X2265993Y3909989D2*
Y3852509D1*
X2352607D1*
Y3909989D1*
X2265993D1*
X1412352Y1740354D2*
X1450147D1*
X1450146Y1809646D1*
X1412351Y1809645D1*
X1412352Y1740354D1*
X1306396Y4278395D2*
X1268601Y4278394D1*
X1268603Y4209103D1*
X1306398Y4209104D1*
X1306396Y4278395D1*
X898048Y2652853D2*
X935844D1*
Y2722144D1*
X898048D1*
Y2652853D1*
X802510Y2637940D2*
X859990Y2637941D1*
X859988Y2724555D1*
X802508Y2724554D1*
X802510Y2637940D1*
X1025147Y1890895D2*
X987352Y1890894D1*
X987354Y1821603D1*
X1025149Y1821604D1*
X1025147Y1890895D1*
X1731397Y4147145D2*
X1693602D1*
Y4077854D1*
X1731397D1*
Y4147145D1*
X1266468Y2409939D2*
X1284841Y2428312D1*
Y2465057D1*
X1165156D1*
Y2409939D1*
X1266468D1*
X2756380Y2097277D2*
D22*
X2477721Y1818601D1*
X2756119Y1540221D1*
X3034777Y1818897D1*
X2756380Y2097277D1*
X2770299Y2083358D2*
X2742447Y2083343D1*
X3313078Y1971614D2*
X3372133Y1869328D1*
X3474419Y1928383D1*
X3415364Y2030669D1*
X3313078Y1971614D1*
X3330159Y1981476D2*
X3322940Y1954532D1*
X2968749Y4407477D2*
D16*
X1868749D1*
Y4042521D1*
X2968749D1*
Y4407477D1*
X1020127Y2629723D2*
D13*
X1067371D1*
Y2720274D1*
X1020127D1*
Y2629723D1*
X2351525Y1813878D2*
Y1861122D1*
X2260973D1*
Y1813878D1*
X2351525D1*
X1882628Y3710973D2*
X1929872Y3710974D1*
X1929870Y3801525D1*
X1882626Y3801524D1*
X1882628Y3710973D1*
X1204483Y2052136D2*
X1166687D1*
Y1985207D1*
X1204483D1*
Y2052136D1*
X3314779Y4377557D2*
X3296407Y4359185D1*
Y4322439D1*
X3416092D1*
Y4377557D1*
X3314779D1*
Y4008808D2*
X3296407Y3990435D1*
Y3953690D1*
X3416092D1*
Y4008808D1*
X3314779D1*
X1354034Y4412647D2*
Y4374851D1*
X1420963D1*
Y4412647D1*
X1354034D1*
X1491534D2*
Y4374851D1*
X1558463D1*
Y4412647D1*
X1491534D1*
X1839714Y3699851D2*
Y3737647D1*
X1772784D1*
Y3699851D1*
X1839714D1*
X1702214D2*
Y3737647D1*
X1635284D1*
Y3699851D1*
X1702214D1*
X1699852Y4285284D2*
X1737647Y4285285D1*
X1737646Y4352214D1*
X1699851Y4352213D1*
X1699852Y4285284D1*
X1800147Y4352214D2*
X1762351D1*
Y4285284D1*
X1800147D1*
Y4352214D1*
X1049485Y2068896D2*
Y2031101D1*
X1116414D1*
Y2068896D1*
X1049485D1*
X1364715Y1531101D2*
Y1568896D1*
X1297786D1*
Y1531101D1*
X1364715D1*
X2352214Y3699851D2*
Y3737647D1*
X2285284D1*
Y3699851D1*
X2352214D1*
X1285283Y2193744D2*
Y2155949D1*
X1352212D1*
Y2193744D1*
X1285283D1*
X1239715Y1531101D2*
Y1568896D1*
X1172786D1*
Y1531101D1*
X1239715D1*
X1088686Y2223446D2*
Y2185651D1*
X1155615D1*
Y2223446D1*
X1088686D1*
X2233449Y1643275D2*
X2206723Y1616549D1*
X2254049Y1569223D1*
X2280775Y1595949D1*
X2233449Y1643275D1*
X2227214Y3699851D2*
Y3737647D1*
X2160284D1*
Y3699851D1*
X2227214D1*
X1708463Y3949851D2*
Y3987647D1*
X1641534D1*
Y3949851D1*
X1708463D1*
X1370964Y2024698D2*
Y2062493D1*
X1304035D1*
Y2024698D1*
X1370964D1*
X1047786Y1568896D2*
Y1531101D1*
X1114715D1*
Y1568896D1*
X1047786D1*
X1641534Y3906397D2*
Y3868602D1*
X1708463D1*
Y3906397D1*
X1641534D1*
X1416535Y1925147D2*
Y1887351D1*
X1483464D1*
Y1925147D1*
X1416535D1*
X1172786Y1637647D2*
Y1599851D1*
X1239715D1*
Y1637647D1*
X1172786D1*
X1189905Y2117682D2*
X1227700D1*
X1227699Y2184612D1*
X1189903Y2184611D1*
X1189905Y2117682D1*
X2858464Y3699851D2*
Y3737647D1*
X2791535D1*
Y3699851D1*
X2858464D1*
X1114715Y1462351D2*
Y1500146D1*
X1047785Y1500145D1*
X1047786Y1462349D1*
X1114715Y1462351D1*
X2727214Y3699851D2*
Y3737647D1*
X2660284D1*
Y3699851D1*
X2727214D1*
X1270964Y3949851D2*
Y3987647D1*
X1204035D1*
Y3949851D1*
X1270964D1*
X1204035Y3906397D2*
Y3868602D1*
X1270964D1*
Y3906397D1*
X1204035D1*
X1124852Y2954033D2*
X1162647Y2954034D1*
X1162646Y3020963D1*
X1124851D1*
X1124852Y2954033D1*
X2806101Y3185285D2*
X2843897Y3185286D1*
X2843895Y3252215D1*
X2806100D1*
X2806101Y3185285D1*
X1324852Y2947785D2*
X1362647Y2947786D1*
X1362646Y3014715D1*
X1324851D1*
X1324852Y2947785D1*
X2881103Y3185285D2*
X2918898Y3185286D1*
X2918897Y3252215D1*
X2881101D1*
X2881103Y3185285D1*
X1662647Y3308464D2*
X1624851D1*
Y3241535D1*
X1662647D1*
Y3308464D1*
X1424852Y2947784D2*
X1462647Y2947785D1*
X1462646Y3014714D1*
X1424851Y3014713D1*
X1424852Y2947784D1*
X1762647Y3308464D2*
X1724851D1*
Y3241535D1*
X1762647D1*
Y3308464D1*
X3256399Y4402214D2*
X3218603D1*
Y4335284D1*
X3256399D1*
Y4402214D1*
Y4033464D2*
X3218603D1*
Y3966535D1*
X3256399D1*
Y4033464D1*
X724852Y1166535D2*
X762647D1*
X762646Y1233465D1*
X724851Y1233464D1*
X724852Y1166535D1*
X762646Y564714D2*
X724851Y564713D1*
X724852Y497784D1*
X762648Y497785D1*
X762646Y564714D1*
X793603Y1166535D2*
X831398D1*
X831397Y1233465D1*
X793601Y1233464D1*
X793603Y1166535D1*
X831396Y564714D2*
X793601Y564713D1*
X793603Y497784D1*
X831398Y497785D1*
X831396Y564714D1*
X2956103Y3185284D2*
X2993898Y3185285D1*
X2993896Y3252214D1*
X2956101Y3252213D1*
X2956103Y3185284D1*
X2793897Y2733463D2*
X2756102D1*
Y2666534D1*
X2793897D1*
Y2733463D1*
X3247905Y1962721D2*
X3215173Y1943823D1*
X3248638Y1885861D1*
X3281369Y1904759D1*
X3247905Y1962721D1*
X2868897Y2733463D2*
X2831102D1*
Y2666534D1*
X2868897D1*
Y2733463D1*
X2943896D2*
X2906101Y2733462D1*
X2906103Y2666533D1*
X2943898Y2666534D1*
X2943896Y2733463D1*
X1137647Y2427214D2*
X1099851D1*
Y2360284D1*
X1137647D1*
Y2427214D1*
X1597784Y2737647D2*
Y2699851D1*
X1664714D1*
Y2737647D1*
X1597784D1*
X1249852Y1166535D2*
X1287647D1*
X1287646Y1233465D1*
X1249851Y1233464D1*
X1249852Y1166535D1*
X1287646Y564714D2*
X1249851Y564713D1*
X1249852Y497784D1*
X1287648Y497785D1*
X1287646Y564714D1*
X1539714Y2699852D2*
X1539713Y2737647D1*
X1472784Y2737646D1*
X1472785Y2699851D1*
X1539714Y2699852D1*
X1318603Y1166535D2*
X1356398D1*
X1356397Y1233465D1*
X1318601Y1233464D1*
X1318603Y1166535D1*
X1356396Y564714D2*
X1318601Y564713D1*
X1318603Y497784D1*
X1356398Y497785D1*
X1356396Y564714D1*
X1756101Y1166535D2*
X1793897D1*
X1793895Y1233465D1*
X1756100Y1233464D1*
X1756101Y1166535D1*
X1800146Y564714D2*
X1762351Y564713D1*
X1762352Y497784D1*
X1800148Y497785D1*
X1800146Y564714D1*
X1856103Y1166535D2*
X1893898D1*
X1893897Y1233465D1*
X1856101Y1233464D1*
X1856103Y1166535D1*
X1868896Y564714D2*
X1831101Y564713D1*
X1831103Y497784D1*
X1868898Y497785D1*
X1868896Y564714D1*
X1333808Y4108758D2*
X1678690D1*
Y4266239D1*
X1373178D1*
X1333808Y4226868D1*
Y4108758D1*
X1384941Y1891239D2*
X1040059D1*
Y1733758D1*
X1345571D1*
X1384941Y1773128D1*
Y1891239D1*
X2791192Y2221027D2*
X2809565Y2202655D1*
X2846310Y2202657D1*
X2846306Y2322342D1*
X2791187Y2322340D1*
X2791192Y2221027D1*
X1364715Y1462350D2*
Y1500145D1*
X1297786D1*
Y1462350D1*
X1364715D1*
X1172786Y1500145D2*
Y1462350D1*
X1239715D1*
Y1500145D1*
X1172786D1*
X1267174Y2054723D2*
X1229379D1*
Y1987794D1*
X1267174D1*
Y2054723D1*
X468749Y393749D2*
D12*
X3506249D1*
G03X3581249Y468749I2643J72357D01*
G01*
Y4606249D1*
G03X3506249Y4681249I-72357J2643D01*
G01*
X468749D1*
G03X393749Y4606249I-2643J-72357D01*
G01*
Y468749D1*
G03X468749Y393749I72357J-2643D01*
G01*
M02*
