M48
INCH
T01C0.0118
T02C0.0157
T03C0.0276
T04C0.0354
T05C0.0394
T06C0.0472
T07C0.0709
%
T01
X+026750Y+026302
X+027125Y+026562
X+026937Y+028062
X+025937Y+027875
X+024937Y+028625
X+023937Y+027750
X+023937Y+027125
X+023101Y+026391
X+022062Y+025875
X+022125Y+024750
X+021812Y+024562
X+022125Y+023250
X+022875Y+023562
X+023562Y+022875
X+023687Y+022500
X+024750Y+023625
X+025187Y+023625
X+025375Y+025187
X+025687Y+025750
X+026000Y+025500
X+023750Y+024437
X+023375Y+024562
X+022250Y+027250
X+021312Y+027250
X+018250Y+026750
X+017812Y+027250
X+016645Y+027187
X+015937Y+026500
X+015875Y+026062
X+014730Y+027230
X+014187Y+027312
X+013812Y+027312
X+013750Y+026937
X+013375Y+025937
X+013437Y+025125
X+013437Y+023625
X+012313Y+023625
X+015562Y+024312
X+016500Y+024187
X+017245Y+023807
X+016562Y+023312
X+018125Y+023625
X+017812Y+025125
X+018125Y+025750
X+018187Y+029812
X+019062Y+031625
X+020476Y+031625
X+021437Y+030688
X+025625Y+031500
X+025562Y+032375
X+025562Y+033250
X+020847Y+035625
X+015875Y+034937
X+013937Y+035562
X+011937Y+034000
X+015562Y+032687
X+015937Y+030687
X+014687Y+029125
X+013937Y+029500
X+013937Y+028687
X+012937Y+028000
X+011967Y+027219
X+009875Y+025959
X+008656Y+023344
X+008937Y+022312
X+007667Y+021583
X+007402Y+020387
X+007756Y+019953
X+008678Y+018983
X+009089Y+019001
X+008648Y+018133
X+009961Y+017259
X+011468Y+017876
X+013293Y+017791
X+012312Y+016187
X+011730Y+015500
X+011187Y+014812
X+008812Y+011685
X+008812Y+007625
X+014685Y+011685
X+015000Y+011437
X+015764Y+012764
X+015481Y+013019
X+017724Y+014422
X+018062Y+014625
X+017724Y+015883
X+018193Y+016231
X+019120Y+015633
X+019562Y+015687
X+020931Y+016858
X+021327Y+017220
X+022312Y+015687
X+023937Y+018187
X+024551Y+018649
X+024101Y+018952
X+025090Y+018223
X+025500Y+018500
X+025937Y+018937
X+026472Y+019218
X+026715Y+019723
X+026062Y+020687
X+025750Y+020437
X+026198Y+017527
X+026375Y+017062
X+026625Y+016750
X+026937Y+016937
X+027187Y+016687
X+027536Y+016750
X+027875Y+016750
X+027187Y+012812
X+026812Y+012812
X+026687Y+011687
X+028000Y+011562
X+025500Y+009437
X+027937Y+006062
X+028250Y+005750
X+020185Y+006519
X+019875Y+007750
X+021145Y+010562
X+018562Y+018312
X+018062Y+019420
X+018375Y+019562
X+018687Y+019812
X+018062Y+020437
X+017625Y+020687
X+017750Y+019687
X+017375Y+019596
X+016875Y+019687
X+019875Y+020500
X+020167Y+020875
X+020562Y+022062
X+021313Y+020125
X+028998Y+023423
X+029062Y+025937
X+029750Y+027125
X+030187Y+027500
X+029875Y+027812
X+030687Y+027875
X+031062Y+027812
X+031562Y+026687
X+032312Y+027000
X+032875Y+027375
X+033125Y+026625
X+033500Y+026187
X+035312Y+026125
X+035375Y+025625
X+035312Y+021312
X+035563Y+019625
X+035119Y+018579
X+034798Y+017816
X+033938Y+015937
X+034500Y+013250
X+034500Y+012750
X+031187Y+020187
X+033375Y+020875
X+033000Y+036188
X+018937Y+041375
X+019250Y+042875
X+019802Y+043625
X+017187Y+042855
X+015562Y+040875
X+013905Y+040033
X+012021Y+038841
X+014562Y+042828
X+013562Y+043750
X+012812Y+046250
X+007784Y+034168
X+008502Y+031949
X+012875Y+029812
X+007750Y+024000
X+009836Y+021120
X+011759Y+019944
X+005750Y+019625
T02
X+028276Y+017179
X+028713Y+017048
X+028776Y+017679
X+029213Y+017548
X+029276Y+018179
X+030638Y+018286
X+032544Y+017655
X+031881Y+014846
X+032436Y+012756
X+028937Y+012812
X+027714Y+014318
X+028213Y+016548
X+026785Y+017973
X+027375Y+018782
X+027949Y+019424
X+029187Y+021250
X+029902Y+021160
X+030576Y+022320
X+027969Y+022219
X+026625Y+023437
X+026438Y+024373
X+024875Y+022813
X+024328Y+020974
X+022981Y+019666
X+021419Y+019001
X+022188Y+018000
X+023596Y+017860
X+023250Y+017000
X+021750Y+016000
X+021503Y+014997
X+023192Y+015159
X+024625Y+014125
X+025101Y+014829
X+026996Y+011111
X+020835Y+011687
X+019935Y+013007
X+018812Y+013687
X+016500Y+014687
X+015312Y+014687
X+014220Y+015661
X+014424Y+018588
X+013125Y+019886
X+012125Y+017937
X+010062Y+019812
X+008250Y+019107
X+008625Y+021250
X+010062Y+023312
X+011061Y+022727
X+012500Y+022749
X+013000Y+024876
X+014650Y+026056
X+016366Y+023684
X+015250Y+022500
X+016056Y+021295
X+017465Y+019207
X+017072Y+018697
X+018803Y+022219
X+018951Y+023694
X+020051Y+023848
X+021385Y+025189
X+022625Y+024687
X+022437Y+027625
X+024564Y+027314
X+023625Y+030125
X+024607Y+030569
X+021132Y+031600
X+020002Y+027085
X+018595Y+027536
X+010750Y+026625
X+006000Y+023625
X+007375Y+033812
X+005834Y+035107
X+011750Y+035375
X+012437Y+033621
X+015062Y+041000
X+017125Y+041437
X+017875Y+042062
X+018750Y+042062
X+022687Y+042882
X+023687Y+043600
X+024687Y+043600
X+025687Y+043600
X+024687Y+042265
X+024687Y+040900
X+025687Y+040900
X+026687Y+040900
X+027687Y+040900
X+029687Y+037750
X+031625Y+036562
X+033824Y+036074
X+027812Y+035375
X+023687Y+040900
X+022687Y+040900
X+012375Y+042125
X+028637Y+024880
X+031750Y+027437
X+034624Y+023633
X+030693Y+005638
X+015659Y+005987
X+015937Y+011062
X+014062Y+012315
X+010556Y+005979
T03
X+019217Y+019670
X+019217Y+019080
X+019375Y+017858
X+019375Y+017267
X+022275Y+017071
X+022692Y+017489
X+022062Y+018955
X+022062Y+019545
X+019437Y+009295
X+019438Y+008705
X+019437Y+007108
X+019438Y+006517
X+014312Y+006517
X+014312Y+007108
X+014312Y+008642
X+014312Y+009233
X+009187Y+009233
X+009188Y+008642
X+009187Y+007108
X+009187Y+006517
T04
X+035345Y+027744
X+035345Y+028531
X+035345Y+029319
X+035345Y+030106
X+035345Y+030894
X+035345Y+031681
X+035345Y+032469
X+035345Y+033256
X+033573Y+033256
X+033573Y+032469
X+033573Y+031681
X+033573Y+030894
X+033573Y+030106
X+033573Y+029319
X+033573Y+028531
X+033573Y+027744
X+006198Y+027744
X+006198Y+028531
X+006198Y+029319
X+006198Y+030106
X+006198Y+030894
X+006198Y+031681
X+006198Y+032469
X+006198Y+033256
X+004427Y+033256
X+004427Y+032469
X+004427Y+031681
X+004427Y+030894
X+004427Y+030106
X+004427Y+029319
X+004427Y+028531
X+004427Y+027744
T05
X+016765Y+004500
X+016765Y+007768
X+017203Y+008750
X+016328Y+008946
X+016765Y+009928
X+016765Y+013196
X+011615Y+013196
X+011615Y+009928
X+011177Y+008946
X+012052Y+008750
X+011615Y+007768
X+011615Y+004500
X+006479Y+004500
X+006479Y+007768
X+006917Y+008750
X+006042Y+008946
X+006479Y+009928
X+006479Y+013196
X+007250Y+025437
X+008250Y+025438
X+009250Y+025438
X+009437Y+028500
X+010437Y+028500
X+011437Y+028500
X+012437Y+028500
X+013437Y+028500
X+014437Y+028500
X+015437Y+028500
X+016437Y+028500
X+017437Y+028500
X+018437Y+028500
X+019437Y+028500
X+020437Y+028500
X+021437Y+028500
X+022437Y+028500
X+023437Y+028500
X+024437Y+028500
X+025437Y+028500
X+026437Y+028500
X+027437Y+028500
X+028437Y+028500
X+029437Y+028500
X+030437Y+028500
X+031437Y+028500
X+031562Y+025438
X+032562Y+025438
X+030562Y+025437
X+024792Y+025438
X+023792Y+025438
X+022792Y+025437
X+022938Y+030500
X+022937Y+031500
X+022937Y+032500
X+022437Y+034500
X+021437Y+034500
X+020437Y+034500
X+019437Y+034500
X+018437Y+034500
X+017437Y+034500
X+016437Y+034500
X+015437Y+034500
X+014437Y+034500
X+013437Y+034500
X+012437Y+034500
X+011437Y+034500
X+010437Y+034500
X+009437Y+034500
X+008437Y+034500
X+007562Y+036125
X+006562Y+036125
X+005562Y+036125
X+010687Y+036125
X+011687Y+036125
X+012687Y+036125
X+012437Y+032500
X+012437Y+031500
X+012438Y+030500
X+008437Y+028500
X+015021Y+025437
X+016021Y+025438
X+017021Y+025438
X+017375Y+036125
X+016375Y+036125
X+018375Y+036125
X+021500Y+036125
X+022500Y+036125
X+023500Y+036125
X+023437Y+034500
X+024437Y+034500
X+025437Y+034500
X+026437Y+034500
X+027437Y+034500
X+028437Y+034500
X+029437Y+034500
X+030437Y+034500
X+031437Y+034500
X+028625Y+036125
X+027625Y+036125
X+026625Y+036125
X+027437Y+032500
X+027437Y+031500
X+027437Y+030500
X+032874Y+037520
X+033312Y+038502
X+033312Y+041769
X+031951Y+045087
X+030969Y+045524
X+029911Y+044649
X+028929Y+045087
X+025661Y+045087
X+024382Y+045115
X+021114Y+045115
X+020132Y+045553
X+019645Y+044649
X+018664Y+045087
X+015396Y+045087
X+013566Y+045087
X+010298Y+045086
X+009316Y+045524
X+008823Y+044649
X+007842Y+045087
X+004574Y+045086
X+035219Y+045087
X+032562Y+011000
X+031562Y+011000
X+030562Y+011000
X+028812Y+008750
X+028375Y+007768
X+028375Y+004500
X+033312Y+004500
X+033312Y+007768
X+033750Y+008750
X+024812Y+011000
X+023812Y+011000
X+022812Y+011000
T06
X+015062Y+017500
X+014826Y+016516
X+015062Y+015531
X+017031Y+015531
X+017267Y+016516
X+017031Y+017500
X+009330Y+016516
X+009093Y+017500
X+007125Y+017500
X+006889Y+016516
X+007125Y+015531
X+009093Y+015531
X+021569Y+007465
X+021333Y+006481
X+021569Y+005497
X+023537Y+005497
X+023774Y+006481
X+023537Y+007465
T07
X+004687Y+039204G85X+004687Y+039046
X+008437Y+039204G85X+008437Y+039046
X+009812Y+039204G85X+009812Y+039046
X+013562Y+039204G85X+013562Y+039046
X+015500Y+039204G85X+015500Y+039046
X+019250Y+039204G85X+019250Y+039046
X+020625Y+039204G85X+020625Y+039046
X+024375Y+039204G85X+024375Y+039046
X+025750Y+039204G85X+025750Y+039046
X+029500Y+039204G85X+029500Y+039046
X+030359Y+033375G85X+030516Y+033375
X+030359Y+029625G85X+030516Y+029625
X+029688Y+022516G85X+029688Y+022359
X+033438Y+022516G85X+033438Y+022359
X+025667Y+022516G85X+025667Y+022359
X+021917Y+022516G85X+021917Y+022359
X+017896Y+022516G85X+017896Y+022359
X+014146Y+022516G85X+014146Y+022359
X+010125Y+022516G85X+010125Y+022359
X+006375Y+022516G85X+006375Y+022359
X+009516Y+029625G85X+009359Y+029625
X+009516Y+033375G85X+009359Y+033375
X+020016Y+033375G85X+019859Y+033375
X+020016Y+029625G85X+019859Y+029625
X+021937Y+013921G85X+021937Y+014079
X+025687Y+013921G85X+025687Y+014079
X+029687Y+013921G85X+029687Y+014079
X+033437Y+013921G85X+033437Y+014079
T00
M30
