G04 DipTrace 4.0.0.5*
G04 TopAssembly.gbr*
%MOIN*%
G04 #@! TF.FileFunction,Drawing,Top*
G04 #@! TF.Part,Single*
%ADD12C,0.005512*%
%ADD13C,0.004724*%
%ADD16C,0.007874*%
%FSLAX26Y26*%
G04*
G70*
G90*
G75*
G01*
G04 TopAssy*
%LPD*%
X1959645Y2068602D2*
D13*
Y2106397D1*
X1890354D1*
Y2068602D1*
X1959645D1*
X1178395Y2087351D2*
Y2125147D1*
X1109103D1*
Y2087351D1*
X1178395D1*
X2778396Y2568602D2*
Y2606397D1*
X2709105D1*
Y2568602D1*
X2778396D1*
X3397488Y1112057D2*
X3340008Y1112055D1*
X3340010Y1025441D1*
X3397490Y1025443D1*
X3397488Y1112057D1*
X2003395Y2637351D2*
Y2675147D1*
X1934103D1*
Y2637351D1*
X2003395D1*
X1215896D2*
Y2675147D1*
X1146605D1*
Y2637351D1*
X1215896D1*
X2815354Y1575147D2*
Y1537351D1*
X2884645D1*
Y1575147D1*
X2815354D1*
X2112054Y1752305D2*
X2112053Y1790100D1*
X2042762Y1790099D1*
X2042763Y1752303D1*
X2112054Y1752305D1*
X423889Y3413742D2*
X481370D1*
Y3500357D1*
X423889D1*
Y3413742D1*
X1990895Y1037351D2*
Y1075147D1*
X1921603D1*
Y1037351D1*
X1990895D1*
X2740895Y2087351D2*
Y2125147D1*
X2671603D1*
Y2087351D1*
X2740895D1*
X2802854Y1081396D2*
Y1043601D1*
X2872145D1*
Y1081396D1*
X2802854D1*
X2112054Y1840623D2*
X2112053Y1878418D1*
X2042762Y1878416D1*
X2042763Y1840621D1*
X2112054Y1840623D1*
X1881397Y2478395D2*
X1843602D1*
Y2409103D1*
X1881397D1*
Y2478395D1*
X1856102Y1415353D2*
X1893897D1*
Y1484644D1*
X1856102D1*
Y1415353D1*
X1093896Y2509645D2*
X1056101D1*
Y2440354D1*
X1093896D1*
Y2509645D1*
X2682614Y1987859D2*
X2655888Y1961134D1*
X2704885Y1912138D1*
X2731610Y1938863D1*
X2682614Y1987859D1*
X2638864Y1950361D2*
X2612139Y1923635D1*
X2661135Y1874639D1*
X2687861Y1901364D1*
X2638864Y1950361D1*
X2601364Y1912859D2*
X2574639Y1886134D1*
X2623635Y1837138D1*
X2650361Y1863863D1*
X2601364Y1912859D1*
X2563864Y1875361D2*
X2537139Y1848635D1*
X2586135Y1799639D1*
X2612861Y1826364D1*
X2563864Y1875361D1*
X2526364Y1837861D2*
X2499639Y1811135D1*
X2548635Y1762139D1*
X2575361Y1788864D1*
X2526364Y1837861D1*
X2618388Y1763864D2*
X2645114Y1737139D1*
X2694110Y1786135D1*
X2667385Y1812861D1*
X2618388Y1763864D1*
X2662648Y2503395D2*
X2624853D1*
Y2434103D1*
X2662648D1*
Y2503395D1*
X2906102Y1134103D2*
X2943897D1*
Y1203395D1*
X2906102D1*
Y1134103D1*
X3583698Y3394488D2*
Y2705512D1*
X393452D2*
Y3394488D1*
X2083465Y2143603D2*
X2083464Y2181398D1*
X2016535Y2181397D1*
X2016536Y2143601D1*
X2083465Y2143603D1*
X1302214Y2156102D2*
Y2193897D1*
X1235284D1*
Y2156102D1*
X1302214D1*
X2902214Y2568602D2*
Y2606397D1*
X2835284D1*
Y2568602D1*
X2902214D1*
X2016535Y2031397D2*
Y1993602D1*
X2083464D1*
Y2031397D1*
X2016535D1*
X1958464Y2143602D2*
Y2181397D1*
X1891535D1*
Y2143602D1*
X1958464D1*
X1216661Y1988175D2*
X1254456Y1988176D1*
X1254454Y2055105D1*
X1216659Y2055104D1*
X1216661Y1988175D1*
X1177214Y2156102D2*
Y2193897D1*
X1110284D1*
Y2156102D1*
X1177214D1*
X2902214Y2637351D2*
Y2675147D1*
X2835284D1*
Y2637351D1*
X2902214D1*
X2777215D2*
Y2675147D1*
X2710286D1*
Y2637351D1*
X2777215D1*
X2016535Y2106397D2*
Y2068602D1*
X2083464D1*
Y2106397D1*
X2016535D1*
X1302214Y2087352D2*
X1302213Y2125147D1*
X1235284Y2125146D1*
X1235285Y2087351D1*
X1302214Y2087352D1*
X2902214Y2706101D2*
Y2743896D1*
X2835284D1*
Y2706101D1*
X2902214D1*
X2127214D2*
Y2743896D1*
X2060284D1*
Y2706101D1*
X2127214D1*
X1339714D2*
Y2743896D1*
X1272784D1*
Y2706101D1*
X1339714D1*
X2691535Y1643897D2*
Y1606102D1*
X2758464D1*
Y1643897D1*
X2691535D1*
X2127214Y2637351D2*
Y2675147D1*
X2060284D1*
Y2637351D1*
X2127214D1*
X2002214Y2568602D2*
Y2606397D1*
X1935284D1*
Y2568602D1*
X2002214D1*
X1339714Y2637351D2*
Y2675147D1*
X1272784D1*
Y2637351D1*
X1339714D1*
X1214715Y2568602D2*
Y2606397D1*
X1147786D1*
Y2568602D1*
X1214715D1*
X2691535Y1575147D2*
Y1537351D1*
X2758464D1*
Y1575147D1*
X2691535D1*
X2816535Y1506397D2*
Y1468602D1*
X2883464D1*
Y1506397D1*
X2816535D1*
X2127214Y2568602D2*
Y2606397D1*
X2060284D1*
Y2568602D1*
X2127214D1*
X1339714D2*
Y2606397D1*
X1272784D1*
Y2568602D1*
X1339714D1*
X2691535Y1506397D2*
Y1468602D1*
X2758464D1*
Y1506397D1*
X2691535D1*
X2114714Y1106101D2*
Y1143896D1*
X2047784D1*
Y1106101D1*
X2114714D1*
X2864716Y2087353D2*
X2864714Y2125148D1*
X2797785Y2125145D1*
X2797786Y2087350D1*
X2864716Y2087353D1*
X2679035Y1081397D2*
Y1043602D1*
X2745964D1*
Y1081397D1*
X2679035D1*
X2114714Y1037351D2*
Y1075147D1*
X2047784D1*
Y1037351D1*
X2114714D1*
X1989714Y1106101D2*
Y1143896D1*
X1922784D1*
Y1106101D1*
X1989714D1*
X2797784Y2050144D2*
X2797785Y2012349D1*
X2864714Y2012351D1*
X2864713Y2050146D1*
X2797784Y2050144D1*
X2739714Y2156102D2*
Y2193897D1*
X2672784D1*
Y2156102D1*
X2739714D1*
Y987351D2*
Y1025147D1*
X2672784D1*
Y987351D1*
X2739714D1*
X2804035Y1012647D2*
Y974851D1*
X2870964D1*
Y1012647D1*
X2804035D1*
X2047784Y1006397D2*
Y968602D1*
X2114714D1*
Y1006397D1*
X2047784D1*
X2864714Y2156102D2*
Y2193897D1*
X2797784D1*
Y2156102D1*
X2864714D1*
X2604035Y962646D2*
X2604036Y924850D1*
X2670965Y924852D1*
X2670964Y962648D1*
X2604035Y962646D1*
X2074851Y1535284D2*
X2112647D1*
Y1602214D1*
X2074851D1*
Y1535284D1*
X2043897Y1602214D2*
X2006102D1*
Y1535284D1*
X2043897D1*
Y1602214D1*
X1380296Y1887951D2*
D16*
X1828942D1*
Y1415510D1*
X1380296D1*
Y1887951D1*
X586546D2*
X1035191D1*
Y1415510D1*
X586546D1*
Y1887951D1*
X2030946Y884487D2*
X2479592D1*
Y412046D1*
X2030946D1*
Y884487D1*
X504643Y3413742D2*
D13*
X542438D1*
Y3483034D1*
X504643D1*
Y3413742D1*
X3257973Y2854198D2*
X3295769D1*
Y2923489D1*
X3257973D1*
Y2854198D1*
G36*
X393749Y393749D2*
D1*
D1*
D1*
D1*
D1*
D1*
D1*
D1*
D1*
D1*
D1*
D1*
D1*
D1*
D1*
D1*
D1*
D1*
D1*
D1*
D1*
D1*
D1*
D1*
D1*
D1*
D1*
D1*
D1*
D1*
D1*
D1*
D1*
D1*
D1*
G37*
G36*
X1745719Y2716011D2*
X1744406Y2714698D1*
X1743094Y2712074D1*
Y2705512D1*
X1745719Y2702887D1*
X1752280Y2701575D1*
X1783776Y2700263D1*
X1781152Y2697638D1*
X1770653Y2681890D1*
X1766716Y2676641D1*
X1761467Y2670079D1*
X1749656Y2656955D1*
X1741782Y2649081D1*
X1740469Y2646457D1*
Y2641207D1*
X1743094Y2638583D1*
X1753593D1*
X1768028Y2639895D1*
X1773715Y2641207D1*
X1779402D1*
X1785089Y2639895D1*
X1799524D1*
X1800837Y2641207D1*
X1802149Y2643832D1*
Y2649081D1*
X1800837Y2651706D1*
X1799524Y2653018D1*
X1790338Y2654331D1*
X1766716Y2655643D1*
X1769341Y2658268D1*
X1773278Y2663517D1*
X1775902Y2667454D1*
X1779839Y2672704D1*
X1785089Y2680578D1*
X1792963Y2691076D1*
X1798212Y2697638D1*
X1800837Y2701575D1*
X1803462Y2706824D1*
Y2714698D1*
X1802149Y2716011D1*
X1778527D1*
X1773278Y2714698D1*
X1768028D1*
X1762779Y2716011D1*
X1745719D1*
G37*
X468749Y393749D2*
D12*
X3506249D1*
G03X3581249Y468749I2643J72357D01*
G01*
Y4606249D1*
G03X3506249Y4681249I-72357J2643D01*
G01*
X468749D1*
G03X393749Y4606249I-2643J-72357D01*
G01*
Y468749D1*
G03X468749Y393749I72357J-2643D01*
G01*
M02*
