G04 DipTrace 4.0.0.5*
G04 TopSilk.gbr*
%MOIN*%
G04 #@! TF.FileFunction,Legend,Top*
G04 #@! TF.Part,Single*
%ADD10C,0.009843*%
%ADD16C,0.007874*%
%ADD18C,0.005906*%
%ADD22C,0.003937*%
%ADD66C,0.003281*%
%FSLAX26Y26*%
G04*
G70*
G90*
G75*
G01*
G04 TopSilk*
%LPD*%
X1928543Y2068602D2*
D18*
X1921456D1*
X1928543Y2106397D2*
X1921456D1*
X1147292Y2087351D2*
X1140206D1*
X1147292Y2125147D2*
X1140206D1*
X2747294Y2568602D2*
X2740207D1*
X2747294Y2606397D2*
X2740207D1*
X1972292Y2637351D2*
X1965206D1*
X1972292Y2675147D2*
X1965206D1*
X1184794Y2637351D2*
X1177707D1*
X1184794Y2675147D2*
X1177707D1*
X2846456Y1575147D2*
X2853543D1*
X2846456Y1537351D2*
X2853543D1*
X1823265Y1860923D2*
D10*
X1862635Y1860924D1*
X1842950Y1841239D2*
X1842949Y1880609D1*
X1866011Y1881822D2*
G03X1977367Y1881824I55677J55677D01*
G01*
X1977365Y1993178D2*
G03X1866009Y1993176I-55677J-55677D01*
G01*
X2372076Y1712561D2*
X2344237Y1740399D1*
X2372076D2*
X2344237Y1712561D1*
X2327073Y1728010D2*
G03X2248332Y1806751I-78739J1D01*
G01*
X2169593Y1728011D2*
G03X2248333Y1649271I78739J-1D01*
G01*
X2080952Y1752304D2*
D18*
X2073865D1*
X2080951Y1790100D2*
X2073864Y1790099D1*
X1959792Y1037351D2*
X1952706D1*
X1959792Y1075147D2*
X1952706D1*
X2709792Y2087351D2*
X2702706D1*
X2709792Y2125147D2*
X2702706D1*
X2833956Y1081396D2*
X2841043D1*
X2833956Y1043601D2*
X2841043D1*
X1839075Y1679674D2*
D10*
X1878445D1*
X1858760Y1659989D2*
Y1699359D1*
X1881821Y1700572D2*
G03X1993177Y1700572I55678J55676D01*
G01*
Y1811926D2*
G03X1881821Y1811926I-55678J-55676D01*
G01*
X2107825Y1848422D2*
X2147195Y1848423D1*
X2127510Y1828737D2*
Y1868108D1*
X2150571Y1869321D2*
G03X2261927Y1869323I55677J55677D01*
G01*
X2261925Y1980677D2*
G03X2150569Y1980675I-55677J-55677D01*
G01*
X2080952Y1840622D2*
D18*
X2073865D1*
X2080951Y1878417D2*
X2073864D1*
X1881397Y2447292D2*
Y2440206D1*
X1843602Y2447292D2*
Y2440206D1*
X1856102Y1446455D2*
Y1453542D1*
X1893897Y1446455D2*
Y1453542D1*
X1093896Y2478543D2*
Y2471456D1*
X1056101Y2478543D2*
Y2471456D1*
X2704606Y1965867D2*
X2709617Y1960856D1*
X2677881Y1939141D2*
X2682892Y1934130D1*
X2660857Y1928368D2*
X2665868Y1923357D1*
X2634132Y1901643D2*
X2639143Y1896632D1*
X2623357Y1890867D2*
X2628368Y1885856D1*
X2596632Y1864141D2*
X2601643Y1859130D1*
X2585857Y1853368D2*
X2590868Y1848357D1*
X2559132Y1826643D2*
X2564143Y1821632D1*
X2548357Y1815868D2*
X2553368Y1810857D1*
X2521632Y1789143D2*
X2526643Y1784132D1*
X2640381Y1785857D2*
X2645392Y1790868D1*
X2667106Y1759132D2*
X2672117Y1764143D1*
X2662648Y2472292D2*
Y2465206D1*
X2624853Y2472292D2*
Y2465206D1*
X2906102Y1165206D2*
Y1172292D1*
X2943897Y1165206D2*
Y1172292D1*
X3544328Y3368897D2*
D10*
X3347477D1*
Y2731102D1*
X3544328D1*
Y3368897D1*
X432823Y2731102D2*
X629673D1*
Y3368897D1*
X432823D1*
Y2731102D1*
X1853687Y406004D2*
Y819372D1*
X1499357D1*
Y406004D1*
X1853687D1*
X1558412Y643749D2*
G02X1558412Y643749I118110J0D01*
G01*
X470742Y1363634D2*
X470737Y950266D1*
X825067Y950261D1*
X825072Y1363630D1*
X470742Y1363634D1*
X529794Y1125887D2*
G02X529794Y1125887I118110J0D01*
G01*
X984314Y1363634D2*
X984309Y950266D1*
X1338640Y950261D1*
X1338644Y1363630D1*
X984314Y1363634D1*
X1043366Y1125887D2*
G02X1043366Y1125887I118110J0D01*
G01*
X1499363Y1363636D2*
X1499352Y950267D1*
X1853683Y950257D1*
X1853694Y1363626D1*
X1499363Y1363636D1*
X1558412Y1125886D2*
G02X1558412Y1125886I118110J0D01*
G01*
X825071Y406004D2*
Y819372D1*
X470740D1*
Y406004D1*
X825071D1*
X529795Y643749D2*
G02X529795Y643749I118110J0D01*
G01*
X1338643Y406004D2*
Y819372D1*
X984312D1*
Y406004D1*
X1338643D1*
X1043367Y643749D2*
G02X1043367Y643749I118110J0D01*
G01*
X413351Y4331476D2*
X826719Y4331496D1*
X826703Y4685826D1*
X413334Y4685807D1*
X413351Y4331476D1*
X532977Y4508653D2*
G02X532977Y4508653I118110J0D01*
G01*
X3014665Y406004D2*
Y819372D1*
X2660334D1*
Y406004D1*
X3014665D1*
X2719389Y643749D2*
G02X2719389Y643749I118110J0D01*
G01*
X1400609Y4685836D2*
X987241Y4685807D1*
X987265Y4331477D1*
X1400634Y4331505D1*
X1400609Y4685836D1*
X1044766Y4508654D2*
G02X1044766Y4508654I118110J0D01*
G01*
X3508414Y406004D2*
Y819372D1*
X3154084D1*
Y406004D1*
X3508414D1*
X3213139Y643749D2*
G02X3213139Y643749I118110J0D01*
G01*
X3153998Y4220980D2*
X3154010Y3807611D1*
X3508340Y3807622D1*
X3508328Y4220990D1*
X3153998Y4220980D1*
X3213060Y3983240D2*
G02X3213060Y3983240I118110J0D01*
G01*
X3565901Y4685825D2*
X3152532Y4685814D1*
X3152541Y4331484D1*
X3565910Y4331494D1*
X3565901Y4685825D1*
X3210050Y4508654D2*
G02X3210050Y4508654I118110J0D01*
G01*
X1495540Y4331488D2*
X1908909D1*
Y4685819D1*
X1495540D1*
Y4331488D1*
X1615176Y4508653D2*
G02X1615176Y4508653I118110J0D01*
G01*
X2482243Y4688695D2*
X2068874D1*
Y4334365D1*
X2482242Y4334364D1*
X2482243Y4688695D1*
X2126387Y4511530D2*
G02X2126387Y4511530I118110J0D01*
G01*
X2522099Y4331510D2*
X2935468D1*
Y4685841D1*
X2522099D1*
Y4331510D1*
X2641735Y4508676D2*
G02X2641735Y4508676I118110J0D01*
G01*
X481302Y4112498D2*
Y3993737D1*
Y4112498D2*
X831197D1*
Y3993737D2*
Y4112498D1*
Y3831266D2*
Y3687487D1*
X481302D2*
X831197D1*
X481302D2*
Y3831266D1*
X536170Y3912498D2*
G02X536170Y3912498I120079J0D01*
G01*
X999950Y2043756D2*
X999948Y2162517D1*
X999950Y2043756D2*
X650055Y2043748D1*
X650053Y2162509D2*
X650055Y2043748D1*
X650049Y2324980D2*
X650046Y2468760D1*
X999941Y2468767D2*
X650046Y2468760D1*
X999941Y2468767D2*
X999944Y2324988D1*
X704920Y2243752D2*
G02X704920Y2243752I120079J0D01*
G01*
X1777034Y2043756D2*
X1777032Y2162517D1*
X1777034Y2043756D2*
X1427139Y2043748D1*
X1427137Y2162509D2*
X1427139Y2043748D1*
X1427133Y2324980D2*
X1427130Y2468760D1*
X1777025Y2468767D2*
X1427130Y2468760D1*
X1777025Y2468767D2*
X1777028Y2324988D1*
X1482004Y2243752D2*
G02X1482004Y2243752I120079J0D01*
G01*
X2554121Y2043758D2*
X2554117Y2162519D1*
X2554121Y2043758D2*
X2204226Y2043745D1*
X2204222Y2162506D2*
X2204226Y2043745D1*
X2204216Y2324978D2*
X2204210Y2468757D1*
X2554105Y2468770D2*
X2204210Y2468757D1*
X2554105Y2468770D2*
X2554111Y2324990D1*
X2259087Y2243752D2*
G02X2259087Y2243752I120079J0D01*
G01*
X3331201Y2043756D2*
X3331199Y2162517D1*
X3331201Y2043756D2*
X2981306Y2043748D1*
X2981303Y2162509D2*
X2981306Y2043748D1*
X2981300Y2324980D2*
X2981297Y2468760D1*
X3331192Y2468767D2*
X2981297Y2468760D1*
X3331192Y2468767D2*
X3331195Y2324988D1*
X3036170Y2243752D2*
G02X3036170Y2243752I120079J0D01*
G01*
X2206302Y1600000D2*
Y1481239D1*
Y1600000D2*
X2556197D1*
Y1481239D2*
Y1600000D1*
Y1318767D2*
Y1174988D1*
X2206302D2*
X2556197D1*
X2206302D2*
Y1318767D1*
X2261170Y1400000D2*
G02X2261170Y1400000I120079J0D01*
G01*
X2981302Y1600000D2*
Y1481239D1*
Y1600000D2*
X3331197D1*
Y1481239D2*
Y1600000D1*
Y1318767D2*
Y1174988D1*
X2981302D2*
X3331197D1*
X2981302D2*
Y1318767D1*
X3036170Y1400000D2*
G02X3036170Y1400000I120079J0D01*
G01*
X743752Y2975053D2*
X862513Y2975055D1*
X743752Y2975053D2*
X743746Y3324948D1*
X862507Y3324950D2*
X743746Y3324948D1*
X1024978Y3324953D2*
X1168758Y3324955D1*
X1168764Y2975060D2*
X1168758Y3324955D1*
X1168764Y2975060D2*
X1024985Y2975058D1*
X823670Y3150004D2*
G02X823670Y3150004I120079J0D01*
G01*
X1793752Y2975053D2*
X1912513Y2975055D1*
X1793752Y2975053D2*
X1793746Y3324948D1*
X1912507Y3324950D2*
X1793746Y3324948D1*
X2074978Y3324953D2*
X2218758Y3324955D1*
X2218764Y2975060D2*
X2218758Y3324955D1*
X2218764Y2975060D2*
X2074985Y2975058D1*
X1873670Y3150004D2*
G02X1873670Y3150004I120079J0D01*
G01*
X3243749Y3324913D2*
X3124988D1*
X3243749D2*
Y2975018D1*
X3124988D2*
X3243749D1*
X2962517D2*
X2818737D1*
Y3324913D2*
Y2975018D1*
Y3324913D2*
X2962517D1*
X2923670Y3149966D2*
G02X2923670Y3149966I120079J0D01*
G01*
X2057874Y2143602D2*
D18*
X2042126D1*
X2057873Y2181398D2*
X2042125Y2181397D1*
X1276623Y2156102D2*
X1260875D1*
X1276623Y2193897D2*
X1260875D1*
X2876623Y2568602D2*
X2860875D1*
X2876623Y2606397D2*
X2860875D1*
X2042126Y2031397D2*
X2057874D1*
X2042126Y1993602D2*
X2057874D1*
X1932874Y2143602D2*
X1917126D1*
X1932874Y2181397D2*
X1917126D1*
X1216660Y2013765D2*
Y2029514D1*
X1254455Y2013767D2*
Y2029515D1*
X1151623Y2156102D2*
X1135875D1*
X1151623Y2193897D2*
X1135875D1*
X2876623Y2637351D2*
X2860875D1*
X2876623Y2675147D2*
X2860875D1*
X2751624Y2637351D2*
X2735876D1*
X2751624Y2675147D2*
X2735876D1*
X2042126Y2106397D2*
X2057874D1*
X2042126Y2068602D2*
X2057874D1*
X1276623Y2087352D2*
X1260875Y2087351D1*
X1276623Y2125147D2*
X1260875D1*
X2876623Y2706101D2*
X2860875D1*
X2876623Y2743896D2*
X2860875D1*
X2101623Y2706101D2*
X2085875D1*
X2101623Y2743896D2*
X2085875D1*
X1314123Y2706101D2*
X1298375D1*
X1314123Y2743896D2*
X1298375D1*
X2717126Y1643897D2*
X2732874D1*
X2717126Y1606102D2*
X2732874D1*
X2101623Y2637351D2*
X2085875D1*
X2101623Y2675147D2*
X2085875D1*
X1976623Y2568602D2*
X1960875D1*
X1976623Y2606397D2*
X1960875D1*
X1314123Y2637351D2*
X1298375D1*
X1314123Y2675147D2*
X1298375D1*
X1189124Y2568602D2*
X1173376D1*
X1189124Y2606397D2*
X1173376D1*
X2717126Y1575147D2*
X2732874D1*
X2717126Y1537351D2*
X2732874D1*
X2842126Y1506397D2*
X2857874D1*
X2842126Y1468602D2*
X2857874D1*
X2101623Y2568602D2*
X2085875D1*
X2101623Y2606397D2*
X2085875D1*
X1314123Y2568602D2*
X1298375D1*
X1314123Y2606397D2*
X1298375D1*
X2717126Y1506397D2*
X2732874D1*
X2717126Y1468602D2*
X2732874D1*
X2089123Y1106101D2*
X2073375D1*
X2089123Y1143896D2*
X2073375D1*
X2839125Y2087352D2*
X2823377Y2087351D1*
X2839124Y2125147D2*
X2823376Y2125146D1*
X2704626Y1081397D2*
X2720374D1*
X2704626Y1043602D2*
X2720374D1*
X2089123Y1037351D2*
X2073375D1*
X2089123Y1075147D2*
X2073375D1*
X1964123Y1106101D2*
X1948375D1*
X1964123Y1143896D2*
X1948375D1*
X2823374Y2050145D2*
X2839123Y2050146D1*
X2823376Y2012350D2*
X2839124D1*
X2714123Y2156102D2*
X2698375D1*
X2714123Y2193897D2*
X2698375D1*
X2714123Y987351D2*
X2698375D1*
X2714123Y1025147D2*
X2698375D1*
X2829626Y1012647D2*
X2845374D1*
X2829626Y974851D2*
X2845374D1*
X2073375Y1006397D2*
X2089123D1*
X2073375Y968602D2*
X2089123D1*
X2839123Y2156102D2*
X2823375D1*
X2839123Y2193897D2*
X2823375D1*
X2629625Y962646D2*
X2645373Y962647D1*
X2629626Y924851D2*
X2645374Y924852D1*
X2074851Y1560875D2*
Y1576623D1*
X2112647Y1560875D2*
Y1576623D1*
X2043897D2*
Y1560875D1*
X2006102Y1576623D2*
Y1560875D1*
X993802Y4112498D2*
D10*
Y3993737D1*
Y4112498D2*
X1343697D1*
Y3993737D2*
Y4112498D1*
Y3831266D2*
Y3687487D1*
X993802D2*
X1343697D1*
X993802D2*
Y3831266D1*
X1048670Y3912498D2*
G02X1048670Y3912498I120079J0D01*
G01*
X1380296Y1887951D2*
D22*
X1828942D1*
Y1415510D1*
X1380296D1*
Y1887951D1*
X1348564Y1749998D2*
D16*
D3*
X586546Y1887951D2*
D22*
X1035191D1*
Y1415510D1*
X586546D1*
Y1887951D1*
X554813Y1749998D2*
D16*
D3*
X2030946Y884487D2*
D22*
X2479592D1*
Y412046D1*
X2030946D1*
Y884487D1*
X1999214Y746534D2*
D16*
D3*
X1907821Y2330061D2*
D10*
X2104677D1*
X1907821Y2432437D2*
X2104677D1*
Y2330061D2*
Y2432437D1*
X1907821Y2361555D2*
Y2330061D1*
Y2400943D2*
Y2432437D1*
Y2361555D2*
G03X1907821Y2400943I-8J19694D01*
G01*
X1126571Y2330061D2*
X1323426D1*
X1126571Y2432437D2*
X1323426D1*
Y2330061D2*
Y2432437D1*
X1126571Y2361555D2*
Y2330061D1*
Y2400943D2*
Y2432437D1*
Y2361555D2*
G03X1126571Y2400943I-8J19694D01*
G01*
X2873428Y1313686D2*
X2676572D1*
X2873428Y1211311D2*
X2676572D1*
Y1313686D2*
Y1211311D1*
X2873428Y1282193D2*
Y1313686D1*
Y1242804D2*
Y1211311D1*
Y1282193D2*
G03X2873428Y1242804I8J-19694D01*
G01*
X1920323Y1286311D2*
X2117178D1*
X1920323Y1388686D2*
X2117178D1*
Y1286311D2*
Y1388686D1*
X1920323Y1317804D2*
Y1286311D1*
Y1357193D2*
Y1388686D1*
Y1317804D2*
G03X1920323Y1357193I-8J19694D01*
G01*
X2689072Y2330061D2*
X2885928D1*
X2689072Y2432437D2*
X2885928D1*
Y2330061D2*
Y2432437D1*
X2689072Y2361555D2*
Y2330061D1*
Y2400943D2*
Y2432437D1*
Y2361555D2*
G03X2689072Y2400943I-8J19694D01*
G01*
X1562552Y4112498D2*
Y3993737D1*
Y4112498D2*
X1912447D1*
Y3993737D2*
Y4112498D1*
Y3831266D2*
Y3687487D1*
X1562552D2*
X1912447D1*
X1562552D2*
Y3831266D1*
X1617421Y3912498D2*
G02X1617421Y3912498I120079J0D01*
G01*
X2075052Y4112498D2*
Y3993737D1*
Y4112498D2*
X2424947D1*
Y3993737D2*
Y4112498D1*
Y3831266D2*
Y3687487D1*
X2075052D2*
X2424947D1*
X2075052D2*
Y3831266D1*
X2129921Y3912498D2*
G02X2129921Y3912498I120079J0D01*
G01*
X2587552Y4112498D2*
Y3993737D1*
Y4112498D2*
X2937447D1*
Y3993737D2*
Y4112498D1*
Y3831266D2*
Y3687487D1*
X2587552D2*
X2937447D1*
X2587552D2*
Y3831266D1*
X2642421Y3912498D2*
G02X2642421Y3912498I120079J0D01*
G01*
X504643Y3444845D2*
D18*
Y3451931D1*
X542438Y3444845D2*
Y3451931D1*
X3257973Y2885300D2*
Y2892387D1*
X3295769Y2885300D2*
Y2892387D1*
X1847631Y2092838D2*
D66*
X1846205Y2095690D1*
X1843320Y2098575D1*
X1840468Y2100001D1*
X1834731D1*
X1831846Y2098575D1*
X1828994Y2095690D1*
X1827535Y2092838D1*
X1826109Y2088527D1*
Y2081331D1*
X1827535Y2077053D1*
X1828994Y2074168D1*
X1831846Y2071316D1*
X1834731Y2069857D1*
X1840468D1*
X1843320Y2071316D1*
X1846205Y2074168D1*
X1847631Y2077053D1*
X1854193Y2094231D2*
X1857078Y2095690D1*
X1861389Y2099968D1*
Y2069857D1*
X1054798Y2113095D2*
X1053372Y2115947D1*
X1050487Y2118832D1*
X1047635Y2120258D1*
X1041898D1*
X1039013Y2118832D1*
X1036161Y2115947D1*
X1034702Y2113095D1*
X1033276Y2108784D1*
Y2101588D1*
X1034702Y2097310D1*
X1036161Y2094425D1*
X1039013Y2091573D1*
X1041898Y2090114D1*
X1047635D1*
X1050487Y2091573D1*
X1053372Y2094425D1*
X1054798Y2097310D1*
X1062819Y2113062D2*
Y2114488D1*
X1064245Y2117373D1*
X1065671Y2118799D1*
X1068556Y2120225D1*
X1074293D1*
X1077145Y2118799D1*
X1078571Y2117373D1*
X1080030Y2114488D1*
Y2111636D1*
X1078571Y2108751D1*
X1075719Y2104473D1*
X1061360Y2090114D1*
X1081456D1*
X2655394Y2597767D2*
X2653968Y2600619D1*
X2651083Y2603504D1*
X2648231Y2604930D1*
X2642494D1*
X2639609Y2603504D1*
X2636757Y2600619D1*
X2635298Y2597767D1*
X2633872Y2593456D1*
Y2586260D1*
X2635298Y2581982D1*
X2636757Y2579097D1*
X2639609Y2576245D1*
X2642494Y2574786D1*
X2648231D1*
X2651083Y2576245D1*
X2653968Y2579097D1*
X2655394Y2581982D1*
X2664841Y2604897D2*
X2680592D1*
X2672003Y2593423D1*
X2676314D1*
X2679166Y2591997D1*
X2680592Y2590571D1*
X2682051Y2586260D1*
Y2583408D1*
X2680592Y2579097D1*
X2677740Y2576212D1*
X2673429Y2574786D1*
X2669118D1*
X2664841Y2576212D1*
X2663415Y2577671D1*
X2661955Y2580523D1*
X3451695Y1072032D2*
X3454547Y1073458D1*
X3457432Y1076343D1*
X3458858Y1079195D1*
X3458857Y1084932D1*
X3457431Y1087817D1*
X3454546Y1090669D1*
X3451694Y1092128D1*
X3447383Y1093554D1*
X3440187D1*
X3435909Y1092128D1*
X3433024Y1090668D1*
X3430172Y1087816D1*
X3428713Y1084931D1*
X3428714Y1079194D1*
X3430173Y1076342D1*
X3433025Y1073457D1*
X3435910Y1072032D1*
X3428714Y1051111D2*
X3458825D1*
X3438762Y1065470D1*
Y1043948D1*
X1869702Y2659674D2*
X1868277Y2662526D1*
X1865391Y2665411D1*
X1862540Y2666837D1*
X1856803D1*
X1853917Y2665411D1*
X1851066Y2662526D1*
X1849606Y2659674D1*
X1848181Y2655363D1*
Y2648167D1*
X1849606Y2643889D1*
X1851066Y2641004D1*
X1853917Y2638152D1*
X1856803Y2636693D1*
X1862540D1*
X1865391Y2638152D1*
X1868277Y2641004D1*
X1869702Y2643889D1*
X1876264Y2661067D2*
X1879149Y2662526D1*
X1883460Y2666804D1*
Y2636693D1*
X1907233Y2662526D2*
X1905807Y2665378D1*
X1901496Y2666804D1*
X1898644D1*
X1894333Y2665378D1*
X1891448Y2661067D1*
X1890022Y2653904D1*
Y2646741D1*
X1891448Y2641004D1*
X1894333Y2638119D1*
X1898644Y2636693D1*
X1900070D1*
X1904348Y2638119D1*
X1907233Y2641004D1*
X1908659Y2645315D1*
Y2646741D1*
X1907233Y2651052D1*
X1904348Y2653904D1*
X1900070Y2655330D1*
X1898644D1*
X1894333Y2653904D1*
X1891448Y2651052D1*
X1890022Y2646741D1*
X1083187Y2659674D2*
X1081761Y2662526D1*
X1078876Y2665411D1*
X1076024Y2666837D1*
X1070287D1*
X1067402Y2665411D1*
X1064550Y2662526D1*
X1063091Y2659674D1*
X1061665Y2655363D1*
Y2648167D1*
X1063091Y2643889D1*
X1064550Y2641004D1*
X1067402Y2638152D1*
X1070287Y2636693D1*
X1076024D1*
X1078876Y2638152D1*
X1081761Y2641004D1*
X1083187Y2643889D1*
X1089748Y2661067D2*
X1092634Y2662526D1*
X1096945Y2666804D1*
Y2636693D1*
X1109243D2*
X1123602Y2666804D1*
X1103506D1*
X2840570Y1610603D2*
X2839144Y1613455D1*
X2836259Y1616340D1*
X2833407Y1617766D1*
X2827670D1*
X2824785Y1616340D1*
X2821933Y1613455D1*
X2820474Y1610603D1*
X2819048Y1606292D1*
Y1599096D1*
X2820474Y1594818D1*
X2821933Y1591933D1*
X2824785Y1589081D1*
X2827670Y1587622D1*
X2833407D1*
X2836259Y1589081D1*
X2839144Y1591933D1*
X2840570Y1594818D1*
X2847131Y1611996D2*
X2850016Y1613455D1*
X2854327Y1617733D1*
Y1587622D1*
X2868052Y1617733D2*
X2863774Y1616307D1*
X2862315Y1613455D1*
Y1610570D1*
X2863774Y1607718D1*
X2866626Y1606259D1*
X2872363Y1604833D1*
X2876674Y1603407D1*
X2879526Y1600522D1*
X2880952Y1597670D1*
Y1593359D1*
X2879526Y1590507D1*
X2878100Y1589048D1*
X2873789Y1587622D1*
X2868052D1*
X2863774Y1589048D1*
X2862315Y1590507D1*
X2860889Y1593359D1*
Y1597670D1*
X2862315Y1600522D1*
X2865200Y1603407D1*
X2869478Y1604833D1*
X2875215Y1606259D1*
X2878100Y1607718D1*
X2879526Y1610570D1*
Y1613455D1*
X2878100Y1616307D1*
X2873789Y1617733D1*
X2868052D1*
X1833280Y2046083D2*
X1831854Y2048935D1*
X1828968Y2051820D1*
X1826116Y2053246D1*
X1820379D1*
X1817494Y2051820D1*
X1814643Y2048935D1*
X1813184Y2046083D1*
X1811758Y2041772D1*
Y2034576D1*
X1813184Y2030298D1*
X1814643Y2027413D1*
X1817495Y2024561D1*
X1820380Y2023102D1*
X1826117D1*
X1828969Y2024561D1*
X1831854Y2027413D1*
X1833280Y2030298D1*
X1839841Y2047476D2*
X1842726Y2048936D1*
X1847037Y2053213D1*
X1847038Y2023103D1*
X1872269Y2043199D2*
X1870810Y2038888D1*
X1867958Y2036003D1*
X1863647Y2034577D1*
X1862221D1*
X1857910Y2036003D1*
X1855058Y2038888D1*
X1853599Y2043199D1*
Y2044625D1*
X1855058Y2048936D1*
X1857910Y2051788D1*
X1862221Y2053214D1*
X1863647D1*
X1867958Y2051788D1*
X1870810Y2048936D1*
X1872269Y2043199D1*
Y2036003D1*
X1870810Y2028840D1*
X1867958Y2024529D1*
X1863647Y2023103D1*
X1860795D1*
X1856484Y2024529D1*
X1855058Y2027414D1*
X2329638Y1662825D2*
X2332662Y1661817D1*
X2336743D1*
X2339767Y1662825D1*
X2343824Y1666882D1*
X2344856Y1669930D1*
X2344832Y1673987D1*
X2343848Y1677035D1*
X2341807Y1681092D1*
X2336719Y1686180D1*
X2332686Y1688197D1*
X2329614Y1689205D1*
X2325581D1*
X2322509Y1688197D1*
X2318452Y1684140D1*
X2317468Y1681092D1*
X2317444Y1677035D1*
X2318476Y1673987D1*
X2323942Y1657177D2*
X2324951Y1656169D1*
X2325983Y1653120D1*
Y1651104D1*
X2324951Y1648055D1*
X2320894Y1643999D1*
X2317869Y1642990D1*
X2315853D1*
X2312781Y1643999D1*
X2310764Y1646015D1*
X2309756Y1649087D1*
X2308748Y1654129D1*
Y1674435D1*
X2294538Y1660225D1*
X2305093Y1628197D2*
X2307133Y1632254D1*
X2306124Y1637342D1*
X2302068Y1643416D1*
X2299019Y1646464D1*
X2292946Y1650521D1*
X2287858Y1651529D1*
X2283801Y1649489D1*
X2281784Y1647472D1*
X2279744Y1643416D1*
X2280776Y1638351D1*
X2284809Y1632254D1*
X2287858Y1629206D1*
X2293954Y1625172D1*
X2299019Y1624141D1*
X2303076Y1626181D1*
X2305093Y1628197D1*
X2293954Y1625172D2*
X2292946Y1650521D1*
X2067961Y1726540D2*
X2066535Y1729392D1*
X2063650Y1732277D1*
X2060798Y1733703D1*
X2055061Y1733702D1*
X2052176Y1732276D1*
X2049324Y1729391D1*
X2047865Y1726539D1*
X2046439Y1722228D1*
Y1715032D1*
X2047865Y1710754D1*
X2049324Y1707869D1*
X2052176Y1705018D1*
X2055061Y1703558D1*
X2060798Y1703559D1*
X2063650Y1705018D1*
X2066535Y1707870D1*
X2067961Y1710755D1*
X2075982Y1726507D2*
Y1727933D1*
X2077407Y1730818D1*
X2078833Y1732244D1*
X2081718Y1733670D1*
X2087455D1*
X2090307Y1732244D1*
X2091733Y1730818D1*
X2093192Y1727933D1*
X2093193Y1725081D1*
X2091733Y1722196D1*
X2088882Y1717918D1*
X2074523Y1703559D1*
X2094619D1*
X2101180Y1727933D2*
X2104065Y1729393D1*
X2108376Y1733670D1*
X2108377Y1703560D1*
X447441Y3551426D2*
X444589Y3550000D1*
X441704Y3547115D1*
X440278Y3544263D1*
Y3538526D1*
X441704Y3535641D1*
X444589Y3532789D1*
X447441Y3531330D1*
X451752Y3529904D1*
X458948D1*
X463226Y3531330D1*
X466111Y3532789D1*
X468963Y3535641D1*
X470422Y3538526D1*
Y3544263D1*
X468963Y3547115D1*
X466111Y3550000D1*
X463226Y3551426D1*
X447474Y3559447D2*
X446048D1*
X443163Y3560873D1*
X441737Y3562299D1*
X440311Y3565184D1*
Y3570921D1*
X441737Y3573772D1*
X443163Y3575198D1*
X446048Y3576658D1*
X448900D1*
X451785Y3575198D1*
X456063Y3572347D1*
X470422Y3557988D1*
Y3578084D1*
X447474Y3586104D2*
X446048D1*
X443163Y3587530D1*
X441737Y3588956D1*
X440311Y3591841D1*
Y3597578D1*
X441737Y3600430D1*
X443163Y3601856D1*
X446048Y3603315D1*
X448900D1*
X451785Y3601856D1*
X456063Y3599004D1*
X470422Y3584645D1*
Y3604741D1*
X1892344Y1035138D2*
X1895196Y1036564D1*
X1898081Y1039449D1*
X1899507Y1042301D1*
Y1048038D1*
X1898081Y1050923D1*
X1895196Y1053775D1*
X1892344Y1055234D1*
X1888033Y1056660D1*
X1880837D1*
X1876560Y1055234D1*
X1873674Y1053775D1*
X1870823Y1050923D1*
X1869363Y1048038D1*
Y1042301D1*
X1870823Y1039449D1*
X1873674Y1036564D1*
X1876560Y1035138D1*
X1892311Y1027117D2*
X1893737D1*
X1896622Y1025691D1*
X1898048Y1024265D1*
X1899474Y1021380D1*
Y1015643D1*
X1898048Y1012791D1*
X1896622Y1011365D1*
X1893737Y1009906D1*
X1890885D1*
X1888000Y1011365D1*
X1883722Y1014217D1*
X1869363Y1028576D1*
Y1008480D1*
X1899474Y984708D2*
Y999033D1*
X1886574Y1000459D1*
X1888000Y999033D1*
X1889459Y994722D1*
Y990445D1*
X1888000Y986134D1*
X1885148Y983248D1*
X1880837Y981823D1*
X1877985D1*
X1873674Y983248D1*
X1870789Y986134D1*
X1869363Y990445D1*
Y994722D1*
X1870789Y999033D1*
X1872248Y1000459D1*
X1875100Y1001919D1*
X2597331Y2106184D2*
X2595905Y2109036D1*
X2593020Y2111921D1*
X2590168Y2113347D1*
X2584431D1*
X2581546Y2111921D1*
X2578694Y2109036D1*
X2577235Y2106184D1*
X2575809Y2101873D1*
Y2094677D1*
X2577235Y2090399D1*
X2578694Y2087514D1*
X2581546Y2084662D1*
X2584431Y2083203D1*
X2590168D1*
X2593020Y2084662D1*
X2595905Y2087514D1*
X2597331Y2090399D1*
X2605352Y2106151D2*
Y2107577D1*
X2606778Y2110462D1*
X2608204Y2111888D1*
X2611089Y2113314D1*
X2616826D1*
X2619678Y2111888D1*
X2621104Y2110462D1*
X2622563Y2107577D1*
Y2104725D1*
X2621104Y2101840D1*
X2618252Y2097562D1*
X2603893Y2083203D1*
X2623989D1*
X2647762Y2109036D2*
X2646336Y2111888D1*
X2642025Y2113314D1*
X2639173D1*
X2634862Y2111888D1*
X2631977Y2107577D1*
X2630551Y2100414D1*
Y2093251D1*
X2631977Y2087514D1*
X2634862Y2084629D1*
X2639173Y2083203D1*
X2640599D1*
X2644876Y2084629D1*
X2647762Y2087514D1*
X2649187Y2091825D1*
Y2093251D1*
X2647762Y2097562D1*
X2644876Y2100414D1*
X2640599Y2101840D1*
X2639173D1*
X2634862Y2100414D1*
X2631977Y2097562D1*
X2630551Y2093251D1*
X2915354Y1066852D2*
X2913928Y1069704D1*
X2911043Y1072589D1*
X2908191Y1074015D1*
X2902454D1*
X2899569Y1072589D1*
X2896717Y1069704D1*
X2895258Y1066852D1*
X2893832Y1062541D1*
Y1055345D1*
X2895258Y1051067D1*
X2896717Y1048182D1*
X2899569Y1045330D1*
X2902454Y1043871D1*
X2908191D1*
X2911043Y1045330D1*
X2913928Y1048182D1*
X2915354Y1051067D1*
X2923374Y1066819D2*
Y1068245D1*
X2924800Y1071130D1*
X2926226Y1072556D1*
X2929111Y1073982D1*
X2934848D1*
X2937700Y1072556D1*
X2939126Y1071130D1*
X2940585Y1068245D1*
Y1065393D1*
X2939126Y1062508D1*
X2936274Y1058230D1*
X2921915Y1043871D1*
X2942011D1*
X2954310D2*
X2968669Y1073982D1*
X2948573D1*
X1935694Y1883585D2*
X1934268Y1886437D1*
X1931383Y1889322D1*
X1928531Y1890748D1*
X1922794D1*
X1919909Y1889322D1*
X1917057Y1886437D1*
X1915598Y1883585D1*
X1914172Y1879274D1*
Y1872078D1*
X1915598Y1867800D1*
X1917057Y1864915D1*
X1919909Y1862063D1*
X1922794Y1860604D1*
X1928531D1*
X1931383Y1862063D1*
X1934268Y1864915D1*
X1935694Y1867800D1*
X1943715Y1883551D2*
Y1884977D1*
X1945141Y1887863D1*
X1946567Y1889288D1*
X1949452Y1890714D1*
X1955189D1*
X1958041Y1889288D1*
X1959467Y1887863D1*
X1960926Y1884977D1*
Y1882126D1*
X1959467Y1879240D1*
X1956615Y1874963D1*
X1942256Y1860604D1*
X1962352D1*
X1976077Y1890714D2*
X1971799Y1889288D1*
X1970340Y1886437D1*
Y1883551D1*
X1971799Y1880700D1*
X1974651Y1879240D1*
X1980388Y1877815D1*
X1984699Y1876389D1*
X1987551Y1873503D1*
X1988977Y1870652D1*
Y1866341D1*
X1987551Y1863489D1*
X1986125Y1862030D1*
X1981814Y1860604D1*
X1976077D1*
X1971799Y1862030D1*
X1970340Y1863489D1*
X1968914Y1866341D1*
Y1870652D1*
X1970340Y1873503D1*
X1973225Y1876389D1*
X1977503Y1877815D1*
X1983240Y1879240D1*
X1986125Y1880700D1*
X1987551Y1883551D1*
Y1886437D1*
X1986125Y1889288D1*
X1981814Y1890714D1*
X1976077D1*
X2260472Y1807762D2*
X2263324Y1809188D1*
X2266209Y1812073D1*
X2267635Y1814925D1*
Y1820662D1*
X2266209Y1823547D1*
X2263324Y1826399D1*
X2260472Y1827858D1*
X2256161Y1829284D1*
X2248965D1*
X2244687Y1827858D1*
X2241802Y1826399D1*
X2238950Y1823547D1*
X2237491Y1820662D1*
Y1814925D1*
X2238950Y1812073D1*
X2241802Y1809188D1*
X2244687Y1807762D1*
X2260439Y1799741D2*
X2261865D1*
X2264751Y1798316D1*
X2266176Y1796890D1*
X2267602Y1794005D1*
X2267603Y1788268D1*
X2266177Y1785416D1*
X2264751Y1783990D1*
X2261866Y1782531D1*
X2259014Y1782530D1*
X2256129Y1783990D1*
X2251851Y1786841D1*
X2237492Y1801200D1*
Y1781104D1*
X2257588Y1755873D2*
X2253277Y1757332D1*
X2250392Y1760184D1*
X2248966Y1764495D1*
Y1765921D1*
X2250392Y1770232D1*
X2253277Y1773084D1*
X2257588Y1774543D1*
X2259014D1*
X2263325Y1773084D1*
X2266177Y1770232D1*
X2267603Y1765921D1*
Y1764495D1*
X2266177Y1760184D1*
X2263325Y1757332D1*
X2257588Y1755873D1*
X2250392D1*
X2243229Y1757332D1*
X2238918Y1760183D1*
X2237492Y1764494D1*
Y1767346D1*
X2238918Y1771657D1*
X2241803Y1773083D1*
X2061511Y1914856D2*
X2060085Y1917708D1*
X2057200Y1920593D1*
X2054348Y1922019D1*
X2048611D1*
X2045726Y1920593D1*
X2042874Y1917707D1*
X2041415Y1914856D1*
X2039989Y1910544D1*
X2039990Y1903348D1*
X2041416Y1899071D1*
X2042875Y1896185D1*
X2045727Y1893334D1*
X2048612Y1891875D1*
X2054349D1*
X2057201Y1893334D1*
X2060086Y1896186D1*
X2061512Y1899071D1*
X2070958Y1921986D2*
X2086710D1*
X2078121Y1910512D1*
X2082432D1*
X2085284Y1909086D1*
X2086710Y1907660D1*
X2088169Y1903349D1*
Y1900498D1*
X2086710Y1896186D1*
X2083858Y1893301D1*
X2079547Y1891875D1*
X2075236D1*
X2070958Y1893301D1*
X2069532Y1894760D1*
X2068073Y1897612D1*
X2103352Y1921987D2*
X2099041Y1920561D1*
X2096157Y1916250D1*
X2094731Y1909087D1*
Y1904776D1*
X2096157Y1897613D1*
X2099042Y1893302D1*
X2103353Y1891876D1*
X2106205D1*
X2110516Y1893302D1*
X2113368Y1897613D1*
X2114827Y1904776D1*
Y1909087D1*
X2113367Y1916250D1*
X2110515Y1920561D1*
X2106204Y1921987D1*
X2103352D1*
X2113367Y1916250D2*
X2096157Y1897613D1*
X1869661Y2321620D2*
X1866810Y2320194D1*
X1863924Y2317309D1*
X1862499Y2314457D1*
Y2308720D1*
X1863924Y2305835D1*
X1866810Y2302983D1*
X1869661Y2301524D1*
X1873972Y2300098D1*
X1881169D1*
X1885446Y2301524D1*
X1888332Y2302983D1*
X1891183Y2305835D1*
X1892643Y2308720D1*
Y2314457D1*
X1891183Y2317309D1*
X1888332Y2320194D1*
X1885446Y2321620D1*
X1866810Y2345392D2*
X1863958Y2343966D1*
X1862532Y2339655D1*
Y2336803D1*
X1863958Y2332492D1*
X1868269Y2329607D1*
X1875432Y2328181D1*
X1882595D1*
X1888332Y2329607D1*
X1891217Y2332492D1*
X1892643Y2336803D1*
Y2338229D1*
X1891217Y2342507D1*
X1888332Y2345392D1*
X1884020Y2346818D1*
X1882595D1*
X1878284Y2345392D1*
X1875432Y2342507D1*
X1874006Y2338229D1*
Y2336803D1*
X1875432Y2332492D1*
X1878284Y2329607D1*
X1882595Y2328181D1*
X1892643Y2367739D2*
X1862532D1*
X1882595Y2353380D1*
Y2374902D1*
X1870647Y1534301D2*
X1867795Y1532875D1*
X1864910Y1529990D1*
X1863484Y1527138D1*
Y1521401D1*
X1864910Y1518516D1*
X1867795Y1515664D1*
X1870647Y1514205D1*
X1874958Y1512779D1*
X1882154D1*
X1886432Y1514205D1*
X1889317Y1515664D1*
X1892169Y1518516D1*
X1893628Y1521401D1*
Y1527138D1*
X1892169Y1529990D1*
X1889317Y1532875D1*
X1886432Y1534301D1*
X1893628Y1546600D2*
X1863517Y1560959D1*
Y1540863D1*
X1869254Y1567520D2*
X1867795Y1570405D1*
X1863517Y1574716D1*
X1893628D1*
X1075911Y2359833D2*
X1073059Y2358407D1*
X1070174Y2355522D1*
X1068748Y2352670D1*
Y2346933D1*
X1070174Y2344048D1*
X1073059Y2341196D1*
X1075911Y2339737D1*
X1080222Y2338311D1*
X1087418D1*
X1091696Y2339737D1*
X1094581Y2341196D1*
X1097433Y2344048D1*
X1098892Y2346933D1*
Y2352670D1*
X1097433Y2355522D1*
X1094581Y2358407D1*
X1091696Y2359833D1*
X1098892Y2372131D2*
X1068781Y2386490D1*
Y2366394D1*
X1073059Y2410263D2*
X1070207Y2408837D1*
X1068781Y2404526D1*
Y2401674D1*
X1070207Y2397363D1*
X1074518Y2394478D1*
X1081681Y2393052D1*
X1088844D1*
X1094581Y2394478D1*
X1097466Y2397363D1*
X1098892Y2401674D1*
Y2403100D1*
X1097466Y2407378D1*
X1094581Y2410263D1*
X1090270Y2411689D1*
X1088844D1*
X1084533Y2410263D1*
X1081681Y2407378D1*
X1080255Y2403100D1*
Y2401674D1*
X1081681Y2397363D1*
X1084533Y2394478D1*
X1088844Y2393052D1*
X2623334Y2040648D2*
X2624342Y2043673D1*
Y2047753D1*
X2623334Y2050778D1*
X2619277Y2054835D1*
X2616229Y2055867D1*
X2612172Y2055843D1*
X2609124Y2054858D1*
X2605067Y2052818D1*
X2599979Y2047730D1*
X2597962Y2043697D1*
X2596954Y2040625D1*
Y2036592D1*
X2597962Y2033520D1*
X2602019Y2029463D1*
X2605067Y2028478D1*
X2609124Y2028455D1*
X2612172Y2029487D1*
X2615780Y2015702D2*
X2647225Y2026840D1*
X2633015Y2041050D1*
X2634630Y1996852D2*
X2666075Y2007990D1*
X2651865Y2022200D1*
X2579596Y2003138D2*
X2580605Y2006163D1*
Y2010243D1*
X2579596Y2013268D1*
X2575540Y2017324D1*
X2572491Y2018356D1*
X2568435Y2018333D1*
X2565386Y2017348D1*
X2561330Y2015308D1*
X2556241Y2010219D1*
X2554225Y2006186D1*
X2553216Y2003114D1*
Y1999081D1*
X2554225Y1996009D1*
X2558281Y1991953D1*
X2561330Y1990968D1*
X2565386Y1990944D1*
X2568435Y1991976D1*
X2572043Y1978191D2*
X2603488Y1989329D1*
X2589278Y2003539D1*
X2613192Y1979625D2*
X2609159Y1981641D1*
X2606111Y1980656D1*
X2604071Y1978616D1*
X2603086Y1975568D1*
X2604071Y1972520D1*
X2607119Y1967455D1*
X2609159Y1963398D1*
X2609136Y1959341D1*
X2608127Y1956317D1*
X2605079Y1953268D1*
X2602054Y1952260D1*
X2600014Y1952236D1*
X2595957Y1954276D1*
X2591901Y1958333D1*
X2589884Y1962366D1*
Y1964430D1*
X2590892Y1967455D1*
X2593941Y1970503D1*
X2596966Y1971511D1*
X2601046D1*
X2605079Y1969495D1*
X2610144Y1966446D1*
X2613216Y1965438D1*
X2616241Y1966446D1*
X2618281Y1968486D1*
X2619289Y1971511D1*
X2617249Y1975568D1*
X2613192Y1979625D1*
X2542589Y1965144D2*
X2543597Y1968169D1*
Y1972249D1*
X2542589Y1975274D1*
X2538532Y1979331D1*
X2535484Y1980362D1*
X2531427Y1980339D1*
X2528379Y1979354D1*
X2524322Y1977314D1*
X2519234Y1972226D1*
X2517217Y1968192D1*
X2516209Y1965121D1*
Y1961087D1*
X2517217Y1958016D1*
X2521274Y1953959D1*
X2524322Y1952974D1*
X2528379Y1952951D1*
X2531427Y1953982D1*
X2535035Y1940198D2*
X2566480Y1951336D1*
X2552270Y1965546D1*
X2577240Y1926413D2*
X2573160Y1924396D1*
X2569103Y1924373D1*
X2565047Y1926413D1*
X2564038Y1927421D1*
X2561998Y1931478D1*
X2562022Y1935534D1*
X2564038Y1939614D1*
X2565047Y1940623D1*
X2569127Y1942639D1*
X2573160D1*
X2577217Y1940599D1*
X2578225Y1939591D1*
X2580265Y1935534D1*
Y1931501D1*
X2577240Y1926413D1*
X2572152Y1921324D1*
X2566055Y1917291D1*
X2560990Y1916259D1*
X2556933Y1918299D1*
X2554917Y1920316D1*
X2552877Y1924373D1*
X2553908Y1927421D1*
X2504596Y1928138D2*
X2505605Y1931163D1*
Y1935243D1*
X2504596Y1938268D1*
X2500540Y1942324D1*
X2497491Y1943356D1*
X2493435Y1943333D1*
X2490386Y1942348D1*
X2486330Y1940308D1*
X2481241Y1935219D1*
X2479225Y1931186D1*
X2478216Y1928114D1*
Y1924081D1*
X2479225Y1921009D1*
X2483281Y1916953D1*
X2486330Y1915968D1*
X2490386Y1915944D1*
X2493435Y1916976D1*
X2519343Y1923475D2*
X2515309Y1925491D1*
X2512261Y1924506D1*
X2510221Y1922466D1*
X2509236Y1919418D1*
X2510221Y1916370D1*
X2513269Y1911305D1*
X2515309Y1907248D1*
X2515286Y1903191D1*
X2514278Y1900166D1*
X2511229Y1897118D1*
X2508204Y1896110D1*
X2506164Y1896086D1*
X2502108Y1898126D1*
X2498051Y1902183D1*
X2496034Y1906216D1*
Y1908280D1*
X2497043Y1911305D1*
X2500091Y1914353D1*
X2503116Y1915361D1*
X2507196D1*
X2511229Y1913345D1*
X2516294Y1910296D1*
X2519366Y1909288D1*
X2522391Y1910296D1*
X2524431Y1912336D1*
X2525439Y1915361D1*
X2523399Y1919418D1*
X2519343Y1923475D1*
X2539201Y1903616D2*
X2535144Y1905656D1*
X2530056Y1904648D1*
X2523982Y1900591D1*
X2520934Y1897543D1*
X2516877Y1891470D1*
X2515869Y1886381D1*
X2517909Y1882325D1*
X2519926Y1880308D1*
X2523982Y1878268D1*
X2529047Y1879300D1*
X2535144Y1883333D1*
X2538192Y1886381D1*
X2542226Y1892478D1*
X2543257Y1897543D1*
X2541217Y1901600D1*
X2539201Y1903616D1*
X2542226Y1892478D2*
X2516877Y1891470D1*
X2471657Y1886077D2*
X2472665Y1889102D1*
Y1893182D1*
X2471657Y1896207D1*
X2467600Y1900264D1*
X2464552Y1901295D1*
X2460495Y1901272D1*
X2457447Y1900287D1*
X2453390Y1898247D1*
X2448302Y1893159D1*
X2446285Y1889125D1*
X2445277Y1886054D1*
Y1882020D1*
X2446285Y1878949D1*
X2450342Y1874892D1*
X2453390Y1873907D1*
X2457447Y1873884D1*
X2460495Y1874915D1*
X2486403Y1881414D2*
X2482370Y1883430D1*
X2479322Y1882445D1*
X2477282Y1880405D1*
X2476297Y1877357D1*
X2477282Y1874309D1*
X2480330Y1869244D1*
X2482370Y1865187D1*
X2482347Y1861130D1*
X2481338Y1858106D1*
X2478290Y1855057D1*
X2475265Y1854049D1*
X2473225Y1854025D1*
X2469168Y1856065D1*
X2465112Y1860122D1*
X2463095Y1864155D1*
Y1866219D1*
X2464103Y1869244D1*
X2467152Y1872292D1*
X2470177Y1873300D1*
X2474257D1*
X2478290Y1871284D1*
X2483355Y1868235D1*
X2486427Y1867227D1*
X2489452Y1868235D1*
X2491492Y1870276D1*
X2492500Y1873300D1*
X2490460Y1877357D1*
X2486403Y1881414D1*
X2496108Y1863596D2*
X2499180Y1862587D1*
X2505253Y1862564D1*
X2483962Y1841272D1*
X2676475Y1732314D2*
X2673450Y1733323D1*
X2669370D1*
X2666345Y1732314D1*
X2662288Y1728258D1*
X2661256Y1725209D1*
X2661280Y1721153D1*
X2662265Y1718104D1*
X2664305Y1714048D1*
X2669393Y1708959D1*
X2673426Y1706943D1*
X2676498Y1705934D1*
X2680531D1*
X2683603Y1706943D1*
X2687660Y1710999D1*
X2688645Y1714048D1*
X2688668Y1718104D1*
X2687636Y1721153D1*
X2681138Y1747061D2*
X2679121Y1743028D1*
X2680106Y1739979D1*
X2682146Y1737939D1*
X2685194Y1736954D1*
X2688243Y1737939D1*
X2693308Y1740987D1*
X2697364Y1743028D1*
X2701421Y1743004D1*
X2704446Y1741996D1*
X2707494Y1738947D1*
X2708503Y1735923D1*
X2708526Y1733882D1*
X2706486Y1729826D1*
X2702429Y1725769D1*
X2698396Y1723753D1*
X2696333D1*
X2693308Y1724761D1*
X2690259Y1727809D1*
X2689251Y1730834D1*
Y1734914D1*
X2691268Y1738947D1*
X2694316Y1744012D1*
X2695324Y1747084D1*
X2694316Y1750109D1*
X2692276Y1752149D1*
X2689251Y1753157D1*
X2685194Y1751117D1*
X2681138Y1747061D1*
X2700996Y1756789D2*
X2699988Y1757797D1*
X2698956Y1760846D1*
Y1762862D1*
X2699988Y1765911D1*
X2704044Y1769967D1*
X2707069Y1770976D1*
X2709086D1*
X2712158Y1769967D1*
X2714174Y1767951D1*
X2715182Y1764879D1*
X2716191Y1759837D1*
Y1739531D1*
X2730401Y1753741D1*
X2620994Y2386632D2*
X2619568Y2389484D1*
X2616683Y2392369D1*
X2613831Y2393795D1*
X2608094D1*
X2605209Y2392369D1*
X2602357Y2389484D1*
X2600898Y2386632D1*
X2599472Y2382321D1*
Y2375125D1*
X2600898Y2370847D1*
X2602357Y2367962D1*
X2605209Y2365110D1*
X2608094Y2363651D1*
X2613831D1*
X2616683Y2365110D1*
X2619568Y2367962D1*
X2620994Y2370847D1*
X2634718Y2393762D2*
X2630440Y2392336D1*
X2628981Y2389484D1*
Y2386599D1*
X2630440Y2383747D1*
X2633292Y2382288D1*
X2639029Y2380862D1*
X2643340Y2379436D1*
X2646192Y2376551D1*
X2647618Y2373699D1*
Y2369388D1*
X2646192Y2366536D1*
X2644766Y2365077D1*
X2640455Y2363651D1*
X2634718D1*
X2630440Y2365077D1*
X2628981Y2366536D1*
X2627555Y2369388D1*
Y2373699D1*
X2628981Y2376551D1*
X2631866Y2379436D1*
X2636144Y2380862D1*
X2641881Y2382288D1*
X2644766Y2383747D1*
X2646192Y2386599D1*
Y2389484D1*
X2644766Y2392336D1*
X2640455Y2393762D1*
X2634718D1*
X2657065D2*
X2672817D1*
X2664228Y2382288D1*
X2668539D1*
X2671391Y2380862D1*
X2672817Y2379436D1*
X2674276Y2375125D1*
Y2372273D1*
X2672817Y2367962D1*
X2669965Y2365077D1*
X2665654Y2363651D1*
X2661343D1*
X2657065Y2365077D1*
X2655639Y2366536D1*
X2654180Y2369388D1*
X2921117Y1257263D2*
X2918265Y1255838D1*
X2915380Y1252952D1*
X2913954Y1250101D1*
Y1244364D1*
X2915380Y1241479D1*
X2918265Y1238627D1*
X2921117Y1237167D1*
X2925428Y1235742D1*
X2932624D1*
X2936902Y1237167D1*
X2939787Y1238627D1*
X2942639Y1241479D1*
X2944098Y1244364D1*
Y1250101D1*
X2942639Y1252952D1*
X2939787Y1255838D1*
X2936902Y1257263D1*
X2924002Y1282495D2*
X2928313Y1281036D1*
X2931198Y1278184D1*
X2932624Y1273873D1*
Y1272447D1*
X2931198Y1268136D1*
X2928313Y1265284D1*
X2924002Y1263825D1*
X2922576D1*
X2918265Y1265284D1*
X2915413Y1268136D1*
X2913987Y1272447D1*
Y1273873D1*
X2915413Y1278184D1*
X2918265Y1281036D1*
X2924002Y1282495D1*
X2931198D1*
X2938361Y1281036D1*
X2942672Y1278184D1*
X2944098Y1273873D1*
Y1271021D1*
X2942672Y1266710D1*
X2939787Y1265284D1*
X2913987Y1297679D2*
X2915413Y1293368D1*
X2919724Y1290483D1*
X2926887Y1289057D1*
X2931198D1*
X2938361Y1290483D1*
X2942672Y1293368D1*
X2944098Y1297679D1*
Y1300531D1*
X2942672Y1304842D1*
X2938361Y1307694D1*
X2931198Y1309153D1*
X2926887D1*
X2919724Y1307694D1*
X2915413Y1304842D1*
X2913987Y1300531D1*
Y1297679D1*
X2919724Y1307694D2*
X2938361Y1290483D1*
X3626956Y3049699D2*
X3604008D1*
X3599697Y3051125D1*
X3598271Y3052584D1*
X3596812Y3055436D1*
Y3058321D1*
X3598271Y3061173D1*
X3599697Y3062599D1*
X3604008Y3064058D1*
X3606860D1*
X3621186Y3043137D2*
X3622645Y3040252D1*
X3626923Y3035941D1*
X3596812D1*
X350194Y3043850D2*
X373142D1*
X377453Y3042424D1*
X378879Y3040965D1*
X380338Y3038113D1*
Y3035228D1*
X378879Y3032376D1*
X377453Y3030950D1*
X373142Y3029491D1*
X370290D1*
X357390Y3051871D2*
X355964D1*
X353079Y3053297D1*
X351653Y3054723D1*
X350227Y3057608D1*
Y3063345D1*
X351653Y3066197D1*
X353079Y3067623D1*
X355964Y3069082D1*
X358816D1*
X361701Y3067623D1*
X365979Y3064771D1*
X380338Y3050412D1*
Y3070508D1*
X1657328Y624262D2*
Y601314D1*
X1655902Y597003D1*
X1654443Y595577D1*
X1651591Y594118D1*
X1648706D1*
X1645854Y595577D1*
X1644428Y597003D1*
X1642969Y601314D1*
Y604166D1*
X1663890Y618492D2*
X1666775Y619951D1*
X1671086Y624229D1*
Y594118D1*
X1696317Y624262D2*
X1677647D1*
Y594118D1*
Y609903D2*
X1689121D1*
X1702879Y618492D2*
X1705764Y619951D1*
X1710075Y624229D1*
Y594118D1*
X633436Y1144391D2*
Y1121443D1*
X632010Y1117132D1*
X630551Y1115706D1*
X627699Y1114247D1*
X624814D1*
X621962Y1115706D1*
X620536Y1117132D1*
X619077Y1121443D1*
Y1124295D1*
X662979Y1114246D2*
X651472Y1144391D1*
X639997Y1114247D1*
X644309Y1124295D2*
X658668Y1124294D1*
X669541Y1138620D2*
X672426Y1140079D1*
X676737Y1144357D1*
X676736Y1114246D1*
X1154701Y1194391D2*
Y1171443D1*
X1153275Y1167132D1*
X1151815Y1165706D1*
X1148963Y1164247D1*
X1146078D1*
X1143226Y1165706D1*
X1141801Y1167132D1*
X1140341Y1171443D1*
X1140342Y1174295D1*
X1161262Y1194391D2*
Y1164247D1*
X1174195Y1164246D1*
X1178506Y1165706D1*
X1179932Y1167131D1*
X1181358Y1169983D1*
Y1174294D1*
X1179932Y1177179D1*
X1178506Y1178605D1*
X1174195Y1180031D1*
X1178506Y1181491D1*
X1179932Y1182916D1*
X1181358Y1185768D1*
Y1188653D1*
X1179932Y1191505D1*
X1178507Y1192964D1*
X1174196Y1194390D1*
X1161262Y1194391D1*
Y1180032D2*
X1174195Y1180031D1*
X1187920Y1188620D2*
X1190805Y1190079D1*
X1195116Y1194357D1*
Y1164246D1*
X1662788Y1200640D2*
Y1177692D1*
X1661362Y1173381D1*
X1659903Y1171956D1*
X1657051Y1170496D1*
X1654166Y1170497D1*
X1651314Y1171956D1*
X1649888Y1173382D1*
X1648429Y1177693D1*
Y1180545D1*
X1690872Y1193477D2*
X1689446Y1196329D1*
X1686561Y1199214D1*
X1683709Y1200640D1*
X1677972D1*
X1675087Y1199214D1*
X1672235Y1196329D1*
X1670776Y1193477D1*
X1669350Y1189166D1*
Y1181970D1*
X1670775Y1177692D1*
X1672234Y1174807D1*
X1675086Y1171955D1*
X1677971Y1170496D1*
X1683708D1*
X1686560Y1171955D1*
X1689445Y1174807D1*
X1690871Y1177692D1*
X1697434Y1194869D2*
X1700319Y1196328D1*
X1704630Y1200606D1*
X1704629Y1170495D1*
X634877Y599262D2*
Y576314D1*
X633451Y572003D1*
X631992Y570577D1*
X629140Y569118D1*
X626255D1*
X623403Y570577D1*
X621977Y572003D1*
X620518Y576314D1*
Y579166D1*
X641439Y599262D2*
Y569118D1*
X651487D1*
X655798Y570577D1*
X658683Y573429D1*
X660109Y576314D1*
X661535Y580592D1*
Y587788D1*
X660109Y592099D1*
X658683Y594951D1*
X655798Y597836D1*
X651487Y599262D1*
X641439D1*
X668096Y593492D2*
X670981Y594951D1*
X675292Y599229D1*
Y569118D1*
X1149179Y618011D2*
Y595063D1*
X1147753Y590752D1*
X1146294Y589326D1*
X1143442Y587867D1*
X1140557D1*
X1137705Y589326D1*
X1136279Y590752D1*
X1134820Y595063D1*
Y597915D1*
X1174377Y618011D2*
X1155740D1*
Y587867D1*
X1174377D1*
X1155740Y603652D2*
X1167214D1*
X1180939Y612241D2*
X1183824Y613700D1*
X1188135Y617978D1*
Y587867D1*
X585774Y4514399D2*
X585775Y4491451D1*
X584349Y4487140D1*
X582890Y4485714D1*
X580038Y4484254D1*
X577153D1*
X574301Y4485713D1*
X572875Y4487139D1*
X571416Y4491450D1*
X571415Y4494302D1*
X592335Y4514399D2*
X592337Y4484255D1*
X609548Y4484256D1*
X616108Y4514400D2*
X616109Y4484256D1*
X642765Y4514401D2*
X642767Y4484257D1*
X622669Y4514400D1*
X622671Y4484256D1*
X2797630Y636762D2*
Y613814D1*
X2796204Y609503D1*
X2794745Y608077D1*
X2791893Y606618D1*
X2789008D1*
X2786156Y608077D1*
X2784730Y609503D1*
X2783271Y613814D1*
Y616666D1*
X2804191Y636762D2*
Y606618D1*
X2821402D1*
X2836586Y636762D2*
X2833701Y635336D1*
X2830849Y632451D1*
X2829390Y629599D1*
X2827964Y625288D1*
Y618092D1*
X2829390Y613814D1*
X2830849Y610929D1*
X2833701Y608077D1*
X2836586Y606618D1*
X2842323D1*
X2845175Y608077D1*
X2848060Y610929D1*
X2849486Y613814D1*
X2850912Y618092D1*
Y625288D1*
X2849486Y629599D1*
X2848060Y632451D1*
X2845175Y635336D1*
X2842323Y636762D1*
X2836586D1*
X2857474D2*
Y615240D1*
X2858900Y610929D1*
X2861785Y608077D1*
X2866096Y606618D1*
X2868948D1*
X2873259Y608077D1*
X2876144Y610929D1*
X2877570Y615240D1*
Y636762D1*
X2894179D2*
Y606618D1*
X2884131Y636762D2*
X2904227D1*
X1152859Y4501928D2*
X1152861Y4478980D1*
X1151435Y4474669D1*
X1149976Y4473242D1*
X1147124Y4471783D1*
X1144239D1*
X1141387Y4473242D1*
X1139961Y4474668D1*
X1138502Y4478979D1*
Y4481831D1*
X1159422Y4487569D2*
X1172322Y4487570D1*
X1176633Y4489029D1*
X1178092Y4490455D1*
X1179518Y4493307D1*
X1179517Y4496192D1*
X1178091Y4499044D1*
X1176632Y4500503D1*
X1172321Y4501929D1*
X1159421Y4501928D1*
X1159423Y4471784D1*
X1169470Y4487570D2*
X1179519Y4471785D1*
X1186079Y4501930D2*
X1186081Y4471786D1*
X1212736Y4501932D2*
X1212738Y4471788D1*
X1192640Y4501930D1*
X1192642Y4471786D1*
X3277437Y624262D2*
Y601314D1*
X3276011Y597003D1*
X3274552Y595577D1*
X3271700Y594118D1*
X3268815D1*
X3265963Y595577D1*
X3264537Y597003D1*
X3263078Y601314D1*
Y604166D1*
X3283998Y609903D2*
X3296898D1*
X3301209Y611362D1*
X3302668Y612788D1*
X3304094Y615640D1*
Y618525D1*
X3302668Y621377D1*
X3301209Y622836D1*
X3296898Y624262D1*
X3283998D1*
Y594118D1*
X3294046Y609903D2*
X3304094Y594118D1*
X3319278Y624262D2*
X3316393Y622836D1*
X3313541Y619951D1*
X3312082Y617099D1*
X3310656Y612788D1*
Y605592D1*
X3312082Y601314D1*
X3313541Y598429D1*
X3316393Y595577D1*
X3319278Y594118D1*
X3325015D1*
X3327867Y595577D1*
X3330752Y598429D1*
X3332178Y601314D1*
X3333604Y605592D1*
Y612788D1*
X3332178Y617099D1*
X3330752Y619951D1*
X3327867Y622836D1*
X3325015Y624262D1*
X3319278D1*
X3340166D2*
Y602740D1*
X3341591Y598429D1*
X3344477Y595577D1*
X3348788Y594118D1*
X3351639D1*
X3355951Y595577D1*
X3358836Y598429D1*
X3360262Y602740D1*
Y624262D1*
X3376871D2*
Y594118D1*
X3366823Y624262D2*
X3386919D1*
X3322445Y4020494D2*
X3322446Y3997546D1*
X3321020Y3993235D1*
X3319561Y3991809D1*
X3316709Y3990350D1*
X3313824D1*
X3310972Y3991809D1*
X3309546Y3993235D1*
X3308087Y3997546D1*
Y4000398D1*
X3333318Y4020494D2*
X3333319Y3996087D1*
X3334745Y3991810D1*
X3337630Y3990350D1*
X3340482Y3990351D1*
X3329007Y4010446D2*
X3339055Y4010447D1*
X3347043Y4014725D2*
X3349928Y4016184D1*
X3354239Y4020462D1*
Y3990351D1*
X3338237Y4514417D2*
Y4491470D1*
X3336811Y4487158D1*
X3335352Y4485732D1*
X3332500Y4484273D1*
X3329615D1*
X3326763Y4485732D1*
X3325337Y4487158D1*
X3323878Y4491469D1*
Y4494321D1*
X3349109Y4514418D2*
X3349110Y4490011D1*
X3350536Y4485733D1*
X3353421Y4484274D1*
X3356273D1*
X3344799Y4504370D2*
X3354847D1*
X3364293Y4507222D2*
Y4508648D1*
X3365719Y4511533D1*
X3367145Y4512959D1*
X3370030Y4514385D1*
X3375767D1*
X3378619Y4512959D1*
X3380045Y4511533D1*
X3381504Y4508648D1*
Y4505797D1*
X3380045Y4502911D1*
X3377193Y4498633D1*
X3362835Y4484274D1*
X3382931Y4484275D1*
X1688763Y4526912D2*
Y4503964D1*
X1687337Y4499653D1*
X1685878Y4498227D1*
X1683026Y4496768D1*
X1680141D1*
X1677289Y4498227D1*
X1675863Y4499653D1*
X1674404Y4503964D1*
Y4506816D1*
X1695325Y4526912D2*
X1715421Y4496768D1*
Y4526912D2*
X1695325Y4496768D1*
X1721982Y4521141D2*
X1724867Y4522601D1*
X1729178Y4526878D1*
Y4496768D1*
X2274039Y4511038D2*
Y4488090D1*
X2272613Y4483779D1*
X2271154Y4482353D1*
X2268302Y4480894D1*
X2265417D1*
X2262565Y4482353D1*
X2261139Y4483779D1*
X2259680Y4488090D1*
Y4490942D1*
X2280601Y4511038D2*
X2292075Y4496679D1*
Y4480894D1*
X2303549Y4511038D2*
X2292075Y4496679D1*
X2310110Y4505267D2*
X2312995Y4506727D1*
X2317306Y4511004D1*
Y4480894D1*
X2702821Y4501934D2*
Y4478986D1*
X2701395Y4474675D1*
X2699935Y4473249D1*
X2697084Y4471790D1*
X2694199D1*
X2691347Y4473249D1*
X2689921Y4474675D1*
X2688462Y4478986D1*
Y4481838D1*
X2709382Y4501934D2*
X2729478D1*
X2709382Y4471790D1*
X2729478D1*
X2736040Y4496164D2*
X2738925Y4497623D1*
X2743236Y4501901D1*
Y4471790D1*
X589285Y3943257D2*
Y3913113D1*
X606495D1*
X613057Y3908139D2*
X640316D1*
X669859Y3913113D2*
X658352Y3943257D1*
X646878Y3913113D1*
X651189Y3923161D2*
X665548D1*
X686469Y3943257D2*
Y3913113D1*
X676421Y3943257D2*
X696517D1*
X713126D2*
Y3913113D1*
X703078Y3943257D2*
X723174D1*
X748958Y2233723D2*
X761891Y2233724D1*
X766169Y2235150D1*
X767628Y2236609D1*
X769054Y2239461D1*
Y2243772D1*
X767628Y2246624D1*
X766169Y2248083D1*
X761891Y2249509D1*
X748958Y2249508D1*
X748959Y2219364D1*
X784238Y2249509D2*
X781353Y2248083D1*
X778501Y2245198D1*
X777042Y2242346D1*
X775616Y2238035D1*
Y2230839D1*
X777042Y2226561D1*
X778501Y2223676D1*
X781353Y2220824D1*
X784238Y2219365D1*
X789975D1*
X792827Y2220824D1*
X795712Y2223676D1*
X797138Y2226562D1*
X798564Y2230839D1*
Y2238036D1*
X797138Y2242347D1*
X795712Y2245198D1*
X792827Y2248083D1*
X789975Y2249509D1*
X784238D1*
X815173Y2249510D2*
X815174Y2219366D1*
X805125Y2249510D2*
X825221D1*
X831784Y2214392D2*
X859043Y2214393D1*
X888585Y2219367D2*
X877078Y2249511D1*
X865604Y2219367D1*
X869915Y2229415D2*
X884274D1*
X1527485Y2233723D2*
X1540418Y2233724D1*
X1544696Y2235150D1*
X1546155Y2236609D1*
X1547581Y2239461D1*
Y2243772D1*
X1546155Y2246624D1*
X1544696Y2248083D1*
X1540418Y2249509D1*
X1527485Y2249508D1*
Y2219364D1*
X1562764Y2249509D2*
X1559879Y2248083D1*
X1557027Y2245198D1*
X1555568Y2242346D1*
X1554143Y2238035D1*
Y2230839D1*
X1555569Y2226561D1*
X1557028Y2223676D1*
X1559880Y2220824D1*
X1562765Y2219365D1*
X1568502D1*
X1571354Y2220824D1*
X1574239Y2223676D1*
X1575665Y2226562D1*
X1577091Y2230839D1*
X1577090Y2238036D1*
X1575664Y2242347D1*
X1574238Y2245198D1*
X1571353Y2248083D1*
X1568501Y2249509D1*
X1562764D1*
X1593700Y2249510D2*
X1593701Y2219366D1*
X1583652Y2249510D2*
X1603748D1*
X1610310Y2214392D2*
X1637569Y2214393D1*
X1644130Y2249511D2*
X1644131Y2219367D1*
X1657064D1*
X1661375Y2220826D1*
X1662801Y2222252D1*
X1664227Y2225104D1*
Y2229415D1*
X1662801Y2232300D1*
X1661375Y2233726D1*
X1657064Y2235152D1*
X1661375Y2236611D1*
X1662800Y2238037D1*
X1664226Y2240889D1*
Y2243774D1*
X1662800Y2246626D1*
X1661374Y2248085D1*
X1657063Y2249511D1*
X1644130D1*
Y2235152D2*
X1657064D1*
X2310109Y2239972D2*
X2323042D1*
X2327320Y2241398D1*
X2328779Y2242858D1*
X2330205Y2245710D1*
X2330204Y2250021D1*
X2328778Y2252872D1*
X2327319Y2254332D1*
X2323041Y2255757D1*
X2310108D1*
X2310109Y2225613D1*
X2345388Y2255758D2*
X2342503Y2254332D1*
X2339651Y2251447D1*
X2338192Y2248595D1*
X2336766Y2244284D1*
X2336767Y2237088D1*
X2338193Y2232810D1*
X2339652Y2229925D1*
X2342504Y2227073D1*
X2345389Y2225614D1*
X2351126D1*
X2353978Y2227074D1*
X2356863Y2229926D1*
X2358289Y2232811D1*
X2359715Y2237089D1*
X2359714Y2244285D1*
X2358288Y2248596D1*
X2356862Y2251448D1*
X2353977Y2254333D1*
X2351125Y2255758D1*
X2345388D1*
X2376324Y2255759D2*
X2376325Y2225615D1*
X2366276Y2255759D2*
X2386372Y2255760D1*
X2392934Y2220642D2*
X2420193Y2220643D1*
X2448276Y2248599D2*
X2446850Y2251451D1*
X2443965Y2254336D1*
X2441113Y2255762D1*
X2435376Y2255761D1*
X2432491Y2254335D1*
X2429639Y2251450D1*
X2428180Y2248598D1*
X2426754Y2244287D1*
Y2237091D1*
X2428181Y2232813D1*
X2429640Y2229928D1*
X2432492Y2227076D1*
X2435377Y2225617D1*
X2441114Y2225618D1*
X2443966Y2227077D1*
X2446851Y2229929D1*
X2448277Y2232814D1*
X3087902Y2252473D2*
X3100835D1*
X3105113Y2253899D1*
X3106572Y2255358D1*
X3107998Y2258210D1*
Y2262521D1*
X3106572Y2265373D1*
X3105112Y2266832D1*
X3100835Y2268258D1*
X3087902D1*
Y2238114D1*
X3123181Y2268259D2*
X3120296Y2266833D1*
X3117444Y2263948D1*
X3115985Y2261096D1*
X3114559Y2256785D1*
X3114560Y2249588D1*
X3115986Y2245311D1*
X3117445Y2242426D1*
X3120297Y2239574D1*
X3123182Y2238115D1*
X3128919D1*
X3131771Y2239574D1*
X3134656Y2242426D1*
X3136082Y2245311D1*
X3137508Y2249589D1*
X3137507Y2256785D1*
X3136081Y2261096D1*
X3134655Y2263948D1*
X3131770Y2266833D1*
X3128918Y2268259D1*
X3123181D1*
X3154117D2*
Y2238115D1*
X3144069Y2268259D2*
X3164165Y2268260D1*
X3170727Y2233141D2*
X3197986Y2233142D1*
X3204547Y2268260D2*
X3204548Y2238116D1*
X3214596Y2238117D1*
X3218907Y2239576D1*
X3221792Y2242428D1*
X3223218Y2245313D1*
X3224643Y2249591D1*
Y2256787D1*
X3223217Y2261098D1*
X3221791Y2263950D1*
X3218906Y2266835D1*
X3214595Y2268261D1*
X3204547Y2268260D1*
X2326088Y1408722D2*
X2339021D1*
X2343299Y1410148D1*
X2344758Y1411608D1*
X2346184Y1414459D1*
Y1418770D1*
X2344758Y1421622D1*
X2343299Y1423081D1*
X2339021Y1424507D1*
X2326088D1*
Y1394363D1*
X2361368Y1424507D2*
X2358483Y1423081D1*
X2355631Y1420196D1*
X2354172Y1417344D1*
X2352746Y1413033D1*
Y1405837D1*
X2354172Y1401560D1*
X2355631Y1398674D1*
X2358483Y1395823D1*
X2361368Y1394363D1*
X2367105D1*
X2369957Y1395823D1*
X2372842Y1398674D1*
X2374268Y1401560D1*
X2375694Y1405837D1*
Y1413033D1*
X2374268Y1417344D1*
X2372842Y1420196D1*
X2369957Y1423081D1*
X2367105Y1424507D1*
X2361368D1*
X2392303D2*
Y1394363D1*
X2382255Y1424507D2*
X2402351D1*
X2408913Y1389389D2*
X2436172D1*
X2461371Y1424507D2*
X2442734D1*
Y1394363D1*
X2461371D1*
X2442734Y1410148D2*
X2454208D1*
X3082322Y1396222D2*
X3095255D1*
X3099533Y1397648D1*
X3100992Y1399108D1*
X3102418Y1401959D1*
Y1406270D1*
X3100992Y1409122D1*
X3099533Y1410581D1*
X3095255Y1412007D1*
X3082322D1*
Y1381863D1*
X3117602Y1412007D2*
X3114717Y1410581D1*
X3111865Y1407696D1*
X3110406Y1404844D1*
X3108980Y1400533D1*
Y1393337D1*
X3110406Y1389060D1*
X3111865Y1386174D1*
X3114717Y1383323D1*
X3117602Y1381863D1*
X3123339D1*
X3126191Y1383323D1*
X3129076Y1386174D1*
X3130502Y1389060D1*
X3131928Y1393337D1*
Y1400533D1*
X3130502Y1404844D1*
X3129076Y1407696D1*
X3126191Y1410581D1*
X3123339Y1412007D1*
X3117602D1*
X3148537D2*
Y1381863D1*
X3138489Y1412007D2*
X3158585D1*
X3165147Y1376889D2*
X3192406D1*
X3217638Y1412007D2*
X3198968D1*
Y1381863D1*
Y1397648D2*
X3210442D1*
X881627Y3164952D2*
X894560Y3164953D1*
X898838Y3166379D1*
X900297Y3167838D1*
X901723Y3170690D1*
Y3175001D1*
X900297Y3177853D1*
X898838Y3179312D1*
X894560Y3180738D1*
X881627Y3180737D1*
X881628Y3150593D1*
X916907Y3180738D2*
X914022Y3179312D1*
X911170Y3176427D1*
X909711Y3173575D1*
X908285Y3169264D1*
Y3162068D1*
X909711Y3157790D1*
X911170Y3154905D1*
X914022Y3152053D1*
X916907Y3150594D1*
X922644D1*
X925496Y3152053D1*
X928381Y3154905D1*
X929807Y3157790D1*
X931233Y3162068D1*
Y3169264D1*
X929807Y3173575D1*
X928381Y3176427D1*
X925496Y3179312D1*
X922644Y3180738D1*
X916907D1*
X947842Y3180739D2*
X947843Y3150595D1*
X937794Y3180738D2*
X957890Y3180739D1*
X964453Y3145621D2*
X991712D1*
X998273Y3180739D2*
X1018369Y3150596D1*
Y3180740D2*
X998273Y3150595D1*
X1923952Y3146203D2*
X1936885D1*
X1941163Y3147629D1*
X1942622Y3149088D1*
X1944048Y3151940D1*
Y3156251D1*
X1942622Y3159103D1*
X1941163Y3160562D1*
X1936885Y3161988D1*
X1923952D1*
X1923953Y3131844D1*
X1959232Y3161989D2*
X1956347Y3160562D1*
X1953495Y3157677D1*
X1952036Y3154825D1*
X1950610Y3150514D1*
Y3143318D1*
X1952036Y3139040D1*
X1953495Y3136155D1*
X1956347Y3133304D1*
X1959232Y3131845D1*
X1964969D1*
X1967821Y3133304D1*
X1970706Y3136156D1*
X1972132Y3139041D1*
X1973558Y3143319D1*
Y3150515D1*
X1972132Y3154826D1*
X1970706Y3157678D1*
X1967821Y3160563D1*
X1964969Y3161989D1*
X1959232D1*
X1990167D2*
X1990168Y3131845D1*
X1980119Y3161989D2*
X2000215D1*
X2006778Y3126871D2*
X2034037Y3126872D1*
X2040598Y3161990D2*
X2052072Y3147631D1*
Y3131846D1*
X2063546Y3161990D2*
X2052072Y3147631D1*
X2962878Y3146209D2*
X2975811D1*
X2980089Y3147635D1*
X2981548Y3149094D1*
X2982974Y3151946D1*
Y3156257D1*
X2981548Y3159109D1*
X2980089Y3160568D1*
X2975811Y3161994D1*
X2962878D1*
Y3131850D1*
X2998158Y3161994D2*
X2995273Y3160568D1*
X2992421Y3157683D1*
X2990962Y3154831D1*
X2989536Y3150520D1*
Y3143324D1*
X2990962Y3139046D1*
X2992421Y3136161D1*
X2995273Y3133309D1*
X2998158Y3131850D1*
X3003895D1*
X3006747Y3133309D1*
X3009632Y3136161D1*
X3011058Y3139046D1*
X3012484Y3143324D1*
Y3150520D1*
X3011058Y3154831D1*
X3009632Y3157683D1*
X3006747Y3160568D1*
X3003895Y3161994D1*
X2998158D1*
X3029094D2*
Y3131850D1*
X3019046Y3161994D2*
X3039142D1*
X3045703Y3126876D2*
X3072962D1*
X3079524Y3161994D2*
X3099620D1*
X3079524Y3131850D1*
X3099620D1*
X2107873Y2166892D2*
X2120773Y2166893D1*
X2125084Y2168352D1*
X2126543Y2169778D1*
X2127969Y2172630D1*
Y2175515D1*
X2126543Y2178367D1*
X2125084Y2179826D1*
X2120773Y2181252D1*
X2107873Y2181251D1*
X2107874Y2151107D1*
X2117921Y2166893D2*
X2127970Y2151108D1*
X2137416Y2181219D2*
X2153168D1*
X2144579Y2169745D1*
X2148890D1*
X2151742Y2168319D1*
X2153168Y2166893D1*
X2154627Y2162582D1*
Y2159731D1*
X2153168Y2155420D1*
X2150316Y2152534D1*
X2146005Y2151108D1*
X2141694D1*
X2137416Y2152534D1*
X2135991Y2153993D1*
X2134531Y2156845D1*
X1332159Y2172940D2*
X1345059D1*
X1349370Y2174399D1*
X1350829Y2175825D1*
X1352255Y2178677D1*
Y2181562D1*
X1350829Y2184414D1*
X1349370Y2185873D1*
X1345059Y2187299D1*
X1332159D1*
Y2157155D1*
X1342207Y2172940D2*
X1352255Y2157155D1*
X1373176D2*
Y2187266D1*
X1358817Y2167203D1*
X1380339D1*
X2934583Y2586557D2*
X2947483D1*
X2951794Y2588016D1*
X2953254Y2589442D1*
X2954679Y2592294D1*
Y2595179D1*
X2953254Y2598030D1*
X2951794Y2599490D1*
X2947483Y2600916D1*
X2934583D1*
Y2570772D1*
X2944631Y2586557D2*
X2954679Y2570772D1*
X2978452Y2600882D2*
X2964126D1*
X2962700Y2587982D1*
X2964126Y2589408D1*
X2968437Y2590868D1*
X2972715D1*
X2977026Y2589408D1*
X2979911Y2586557D1*
X2981337Y2582246D1*
Y2579394D1*
X2979911Y2575083D1*
X2977026Y2572198D1*
X2972715Y2570772D1*
X2968437D1*
X2964126Y2572198D1*
X2962700Y2573657D1*
X2961241Y2576509D1*
X1992127Y2008108D2*
X1979227D1*
X1974916Y2006649D1*
X1973457Y2005223D1*
X1972031Y2002371D1*
Y1999486D1*
X1973457Y1996634D1*
X1974916Y1995175D1*
X1979227Y1993749D1*
X1992127D1*
Y2023893D1*
X1982079Y2008108D2*
X1972031Y2023893D1*
X1959733D2*
X1945374Y1993782D1*
X1965470D1*
X1820390Y2166891D2*
X1833290D1*
X1837601Y2168350D1*
X1839060Y2169776D1*
X1840486Y2172628D1*
Y2175513D1*
X1839060Y2178365D1*
X1837601Y2179824D1*
X1833290Y2181250D1*
X1820390D1*
Y2151106D1*
X1830438Y2166891D2*
X1840486Y2151106D1*
X1854211Y2181217D2*
X1849933Y2179791D1*
X1848474Y2176939D1*
Y2174054D1*
X1849933Y2171202D1*
X1852785Y2169743D1*
X1858522Y2168317D1*
X1862833Y2166891D1*
X1865685Y2164006D1*
X1867111Y2161154D1*
Y2156843D1*
X1865685Y2153991D1*
X1864259Y2152532D1*
X1859948Y2151106D1*
X1854211D1*
X1849933Y2152532D1*
X1848474Y2153991D1*
X1847048Y2156843D1*
Y2161154D1*
X1848474Y2164006D1*
X1851359Y2166891D1*
X1855637Y2168317D1*
X1861374Y2169743D1*
X1864259Y2171202D1*
X1865685Y2174054D1*
Y2176939D1*
X1864259Y2179791D1*
X1859948Y2181217D1*
X1854211D1*
X1266199Y2022590D2*
X1279099Y2022591D1*
X1283410Y2024050D1*
X1284869Y2025476D1*
X1286295Y2028328D1*
Y2031213D1*
X1284869Y2034065D1*
X1283410Y2035524D1*
X1279099Y2036950D1*
X1266199Y2036949D1*
X1266200Y2006805D1*
X1276247Y2022591D2*
X1286296Y2006806D1*
X1311527Y2026903D2*
X1310068Y2022592D1*
X1307216Y2019707D1*
X1302905Y2018281D1*
X1301479D1*
X1297168Y2019706D1*
X1294316Y2022591D1*
X1292857Y2026902D1*
Y2028328D1*
X1294316Y2032639D1*
X1297168Y2035491D1*
X1301479Y2036917D1*
X1302905D1*
X1307216Y2035492D1*
X1310068Y2032640D1*
X1311527Y2026903D1*
Y2019707D1*
X1310068Y2012544D1*
X1307217Y2008233D1*
X1302906Y2006807D1*
X1300054Y2006806D1*
X1295743Y2008232D1*
X1294317Y2011117D1*
X1025993Y2157543D2*
X1038893D1*
X1043204Y2159003D1*
X1044663Y2160428D1*
X1046089Y2163280D1*
Y2166165D1*
X1044663Y2169017D1*
X1043204Y2170476D1*
X1038893Y2171902D1*
X1025993D1*
Y2141758D1*
X1036041Y2157543D2*
X1046089Y2141758D1*
X1052651Y2166132D2*
X1055536Y2167591D1*
X1059847Y2171869D1*
Y2141758D1*
X1075031Y2171869D2*
X1070720Y2170443D1*
X1067835Y2166132D1*
X1066409Y2158969D1*
Y2154658D1*
X1067835Y2147495D1*
X1070720Y2143184D1*
X1075031Y2141758D1*
X1077883D1*
X1082194Y2143184D1*
X1085046Y2147495D1*
X1086505Y2154658D1*
Y2158969D1*
X1085046Y2166132D1*
X1082194Y2170443D1*
X1077883Y2171869D1*
X1075031D1*
X1085046Y2166132D2*
X1067835Y2147495D1*
X2935865Y2662148D2*
X2948764D1*
X2953075Y2663608D1*
X2954535Y2665033D1*
X2955961Y2667885D1*
Y2670770D1*
X2954535Y2673622D1*
X2953075Y2675081D1*
X2948764Y2676507D1*
X2935865D1*
Y2646363D1*
X2945913Y2662148D2*
X2955961Y2646363D1*
X2962522Y2670737D2*
X2965407Y2672196D1*
X2969718Y2676474D1*
Y2646363D1*
X2976280Y2670737D2*
X2979165Y2672196D1*
X2983476Y2676474D1*
Y2646363D1*
X2624283Y2653596D2*
X2637183D1*
X2641494Y2655055D1*
X2642953Y2656481D1*
X2644379Y2659333D1*
Y2662218D1*
X2642953Y2665070D1*
X2641494Y2666529D1*
X2637183Y2667955D1*
X2624283D1*
Y2637811D1*
X2634331Y2653596D2*
X2644379Y2637811D1*
X2650941Y2662185D2*
X2653826Y2663644D1*
X2658137Y2667922D1*
Y2637811D1*
X2666158Y2660759D2*
Y2662185D1*
X2667584Y2665070D1*
X2669010Y2666496D1*
X2671895Y2667922D1*
X2677632D1*
X2680484Y2666496D1*
X2681910Y2665070D1*
X2683369Y2662185D1*
Y2659333D1*
X2681910Y2656448D1*
X2679058Y2652170D1*
X2664699Y2637811D1*
X2684795D1*
X2167755Y2083108D2*
X2154856D1*
X2150544Y2081649D1*
X2149085Y2080223D1*
X2147659Y2077371D1*
Y2074486D1*
X2149085Y2071634D1*
X2150544Y2070175D1*
X2154856Y2068749D1*
X2167755D1*
Y2098893D1*
X2157707Y2083108D2*
X2147659Y2098893D1*
X2141098Y2074519D2*
X2138213Y2073060D1*
X2133902Y2068782D1*
Y2098893D1*
X2124455Y2068782D2*
X2108703D1*
X2117292Y2080256D1*
X2112981D1*
X2110129Y2081682D1*
X2108703Y2083108D1*
X2107244Y2087419D1*
Y2090271D1*
X2108703Y2094582D1*
X2111555Y2097467D1*
X2115866Y2098893D1*
X2120177D1*
X2124455Y2097467D1*
X2125881Y2096008D1*
X2127340Y2093156D1*
X1328108Y2111033D2*
X1341008D1*
X1345319Y2112492D1*
X1346778Y2113918D1*
X1348204Y2116770D1*
Y2119655D1*
X1346778Y2122507D1*
X1345319Y2123966D1*
X1341008Y2125392D1*
X1328108D1*
X1328109Y2095248D1*
X1338156Y2111033D2*
X1348205Y2095248D1*
X1354766Y2119622D2*
X1357651Y2121082D1*
X1361962Y2125360D1*
Y2095249D1*
X1382883D2*
X1382882Y2125360D1*
X1368524Y2105297D1*
X1390046D1*
X2932836Y2725767D2*
X2945736D1*
X2950047Y2727226D1*
X2951506Y2728652D1*
X2952932Y2731503D1*
Y2734389D1*
X2951506Y2737240D1*
X2950047Y2738700D1*
X2945736Y2740126D1*
X2932836D1*
Y2709982D1*
X2942884Y2725767D2*
X2952932Y2709982D1*
X2959494Y2734355D2*
X2962379Y2735815D1*
X2966690Y2740092D1*
Y2709982D1*
X2990462Y2740092D2*
X2976136D1*
X2974710Y2727192D1*
X2976136Y2728618D1*
X2980447Y2730078D1*
X2984725D1*
X2989036Y2728618D1*
X2991921Y2725767D1*
X2993347Y2721455D1*
Y2718604D1*
X2991921Y2714293D1*
X2989036Y2711407D1*
X2984725Y2709982D1*
X2980447D1*
X2976136Y2711407D1*
X2974710Y2712867D1*
X2973251Y2715719D1*
X2162176Y2729781D2*
X2175076D1*
X2179387Y2731240D1*
X2180846Y2732666D1*
X2182272Y2735518D1*
Y2738403D1*
X2180846Y2741255D1*
X2179387Y2742714D1*
X2175076Y2744140D1*
X2162176D1*
Y2713996D1*
X2172224Y2729781D2*
X2182272Y2713996D1*
X2190293Y2736944D2*
Y2738370D1*
X2191719Y2741255D1*
X2193145Y2742681D1*
X2196030Y2744107D1*
X2201767D1*
X2204619Y2742681D1*
X2206045Y2741255D1*
X2207504Y2738370D1*
Y2735518D1*
X2206045Y2732633D1*
X2203193Y2728355D1*
X2188834Y2713996D1*
X2208930D1*
X2224113Y2744107D2*
X2219802Y2742681D1*
X2216917Y2738370D1*
X2215491Y2731207D1*
Y2726896D1*
X2216917Y2719733D1*
X2219802Y2715422D1*
X2224113Y2713996D1*
X2226965D1*
X2231276Y2715422D1*
X2234128Y2719733D1*
X2235587Y2726896D1*
Y2731207D1*
X2234128Y2738370D1*
X2231276Y2742681D1*
X2226965Y2744107D1*
X2224113D1*
X2234128Y2738370D2*
X2216917Y2719733D1*
X1370861Y2729781D2*
X1383761D1*
X1388072Y2731240D1*
X1389531Y2732666D1*
X1390957Y2735518D1*
Y2738403D1*
X1389531Y2741255D1*
X1388072Y2742714D1*
X1383761Y2744140D1*
X1370861D1*
Y2713996D1*
X1380909Y2729781D2*
X1390957Y2713996D1*
X1398978Y2736944D2*
Y2738370D1*
X1400404Y2741255D1*
X1401829Y2742681D1*
X1404715Y2744107D1*
X1410452D1*
X1413303Y2742681D1*
X1414729Y2741255D1*
X1416189Y2738370D1*
Y2735518D1*
X1414729Y2732633D1*
X1411877Y2728355D1*
X1397518Y2713996D1*
X1417614D1*
X1424176Y2738370D2*
X1427061Y2739829D1*
X1431372Y2744107D1*
Y2713996D1*
X2594543Y1622158D2*
X2607443D1*
X2611754Y1623617D1*
X2613213Y1625043D1*
X2614639Y1627895D1*
Y1630780D1*
X2613213Y1633632D1*
X2611754Y1635091D1*
X2607443Y1636517D1*
X2594543D1*
Y1606373D1*
X2604591Y1622158D2*
X2614639Y1606373D1*
X2622660Y1629321D2*
Y1630746D1*
X2624086Y1633632D1*
X2625512Y1635057D1*
X2628397Y1636483D1*
X2634134D1*
X2636986Y1635057D1*
X2638412Y1633632D1*
X2639871Y1630746D1*
Y1627895D1*
X2638412Y1625009D1*
X2635560Y1620732D1*
X2621201Y1606373D1*
X2641297D1*
X2649318Y1629321D2*
Y1630746D1*
X2650744Y1633632D1*
X2652170Y1635057D1*
X2655055Y1636483D1*
X2660792D1*
X2663644Y1635057D1*
X2665070Y1633632D1*
X2666529Y1630746D1*
Y1627895D1*
X2665070Y1625009D1*
X2662218Y1620732D1*
X2647859Y1606373D1*
X2667955D1*
X2161194Y2660438D2*
X2174094D1*
X2178405Y2661898D1*
X2179864Y2663323D1*
X2181290Y2666175D1*
Y2669060D1*
X2179864Y2671912D1*
X2178405Y2673371D1*
X2174094Y2674797D1*
X2161194D1*
Y2644653D1*
X2171242Y2660438D2*
X2181290Y2644653D1*
X2189311Y2667601D2*
Y2669027D1*
X2190737Y2671912D1*
X2192163Y2673338D1*
X2195048Y2674764D1*
X2200785D1*
X2203637Y2673338D1*
X2205063Y2671912D1*
X2206522Y2669027D1*
Y2666175D1*
X2205063Y2663290D1*
X2202211Y2659012D1*
X2187852Y2644653D1*
X2207948D1*
X2231720Y2670486D2*
X2230295Y2673338D1*
X2225984Y2674764D1*
X2223132D1*
X2218821Y2673338D1*
X2215935Y2669027D1*
X2214510Y2661864D1*
Y2654701D1*
X2215935Y2648964D1*
X2218821Y2646079D1*
X2223132Y2644653D1*
X2224558D1*
X2228835Y2646079D1*
X2231720Y2648964D1*
X2233146Y2653275D1*
Y2654701D1*
X2231720Y2659012D1*
X2228835Y2661864D1*
X2224558Y2663290D1*
X2223132D1*
X2218821Y2661864D1*
X2215935Y2659012D1*
X2214510Y2654701D1*
X1837176Y2586557D2*
X1850076D1*
X1854387Y2588016D1*
X1855846Y2589442D1*
X1857272Y2592294D1*
Y2595179D1*
X1855846Y2598030D1*
X1854387Y2599490D1*
X1850076Y2600916D1*
X1837176D1*
Y2570772D1*
X1847224Y2586557D2*
X1857272Y2570772D1*
X1865293Y2593719D2*
Y2595145D1*
X1866719Y2598030D1*
X1868145Y2599456D1*
X1871030Y2600882D1*
X1876767D1*
X1879619Y2599456D1*
X1881045Y2598030D1*
X1882504Y2595145D1*
Y2592294D1*
X1881045Y2589408D1*
X1878193Y2585131D1*
X1863834Y2570772D1*
X1883930D1*
X1896228D2*
X1910587Y2600882D1*
X1890491D1*
X1367849Y2657610D2*
X1380749D1*
X1385060Y2659069D1*
X1386519Y2660495D1*
X1387945Y2663347D1*
Y2666232D1*
X1386519Y2669084D1*
X1385060Y2670543D1*
X1380749Y2671969D1*
X1367849D1*
Y2641825D1*
X1377897Y2657610D2*
X1387945Y2641825D1*
X1395965Y2664773D2*
Y2666199D1*
X1397391Y2669084D1*
X1398817Y2670510D1*
X1401702Y2671936D1*
X1407439D1*
X1410291Y2670510D1*
X1411717Y2669084D1*
X1413176Y2666199D1*
Y2663347D1*
X1411717Y2660462D1*
X1408865Y2656184D1*
X1394506Y2641825D1*
X1414602D1*
X1428327Y2671936D2*
X1424049Y2670510D1*
X1422590Y2667658D1*
Y2664773D1*
X1424049Y2661921D1*
X1426901Y2660462D1*
X1432638Y2659036D1*
X1436949Y2657610D1*
X1439801Y2654725D1*
X1441227Y2651873D1*
Y2647562D1*
X1439801Y2644710D1*
X1438375Y2643251D1*
X1434064Y2641825D1*
X1428327D1*
X1424049Y2643251D1*
X1422590Y2644710D1*
X1421164Y2647562D1*
Y2651873D1*
X1422590Y2654725D1*
X1425475Y2657610D1*
X1429753Y2659036D1*
X1435490Y2660462D1*
X1438375Y2661921D1*
X1439801Y2664773D1*
Y2667658D1*
X1438375Y2670510D1*
X1434064Y2671936D1*
X1428327D1*
X1043546Y2588268D2*
X1056446D1*
X1060757Y2589727D1*
X1062216Y2591153D1*
X1063642Y2594005D1*
Y2596890D1*
X1062216Y2599742D1*
X1060757Y2601201D1*
X1056446Y2602627D1*
X1043546D1*
Y2572483D1*
X1053594Y2588268D2*
X1063642Y2572483D1*
X1071663Y2595431D2*
Y2596857D1*
X1073089Y2599742D1*
X1074515Y2601168D1*
X1077400Y2602594D1*
X1083137D1*
X1085989Y2601168D1*
X1087415Y2599742D1*
X1088874Y2596857D1*
Y2594005D1*
X1087415Y2591120D1*
X1084563Y2586842D1*
X1070204Y2572483D1*
X1090300D1*
X1115532Y2592579D2*
X1114073Y2588268D1*
X1111221Y2585383D1*
X1106910Y2583957D1*
X1105484D1*
X1101173Y2585383D1*
X1098321Y2588268D1*
X1096862Y2592579D1*
Y2594005D1*
X1098321Y2598316D1*
X1101173Y2601168D1*
X1105484Y2602594D1*
X1106910D1*
X1111221Y2601168D1*
X1114073Y2598316D1*
X1115532Y2592579D1*
Y2585383D1*
X1114073Y2578220D1*
X1111221Y2573909D1*
X1106910Y2572483D1*
X1104058D1*
X1099747Y2573909D1*
X1098321Y2576794D1*
X2594545Y1553407D2*
X2607445D1*
X2611756Y1554866D1*
X2613215Y1556292D1*
X2614641Y1559144D1*
Y1562029D1*
X2613215Y1564881D1*
X2611756Y1566340D1*
X2607445Y1567766D1*
X2594545D1*
Y1537622D1*
X2604593Y1553407D2*
X2614641Y1537622D1*
X2624087Y1567733D2*
X2639839D1*
X2631250Y1556259D1*
X2635561D1*
X2638413Y1554833D1*
X2639839Y1553407D1*
X2641298Y1549096D1*
Y1546244D1*
X2639839Y1541933D1*
X2636987Y1539048D1*
X2632676Y1537622D1*
X2628365D1*
X2624087Y1539048D1*
X2622661Y1540507D1*
X2621202Y1543359D1*
X2656482Y1567733D2*
X2652171Y1566307D1*
X2649286Y1561996D1*
X2647860Y1554833D1*
Y1550522D1*
X2649286Y1543359D1*
X2652171Y1539048D1*
X2656482Y1537622D1*
X2659334D1*
X2663645Y1539048D1*
X2666497Y1543359D1*
X2667956Y1550522D1*
Y1554833D1*
X2666497Y1561996D1*
X2663645Y1566307D1*
X2659334Y1567733D1*
X2656482D1*
X2666497Y1561996D2*
X2649286Y1543359D1*
X2927350Y1481752D2*
Y1494652D1*
X2925891Y1498963D1*
X2924465Y1500422D1*
X2921613Y1501848D1*
X2918728D1*
X2915876Y1500422D1*
X2914417Y1498963D1*
X2912991Y1494652D1*
Y1481752D1*
X2943135D1*
X2927350Y1491800D2*
X2943135Y1501848D1*
X2913024Y1511295D2*
Y1527046D1*
X2924498Y1518458D1*
Y1522769D1*
X2925924Y1525620D1*
X2927350Y1527046D1*
X2931661Y1528506D1*
X2934513D1*
X2938824Y1527046D1*
X2941709Y1524195D1*
X2943135Y1519883D1*
Y1515572D1*
X2941709Y1511295D1*
X2940250Y1509869D1*
X2937398Y1508410D1*
X2918761Y1535067D2*
X2917302Y1537952D1*
X2913024Y1542263D1*
X2943135D1*
X2157043Y2595110D2*
X2169943D1*
X2174254Y2596569D1*
X2175713Y2597995D1*
X2177139Y2600847D1*
Y2603732D1*
X2175713Y2606584D1*
X2174254Y2608043D1*
X2169943Y2609469D1*
X2157043D1*
Y2579325D1*
X2167091Y2595110D2*
X2177139Y2579325D1*
X2186586Y2609436D2*
X2202338D1*
X2193749Y2597962D1*
X2198060D1*
X2200912Y2596536D1*
X2202338Y2595110D1*
X2203797Y2590799D1*
Y2587947D1*
X2202338Y2583636D1*
X2199486Y2580751D1*
X2195175Y2579325D1*
X2190864D1*
X2186586Y2580751D1*
X2185160Y2582210D1*
X2183701Y2585062D1*
X2227570Y2609436D2*
X2213244D1*
X2211818Y2596536D1*
X2213244Y2597962D1*
X2217555Y2599421D1*
X2221833D1*
X2226144Y2597962D1*
X2229029Y2595110D1*
X2230455Y2590799D1*
Y2587947D1*
X2229029Y2583636D1*
X2226144Y2580751D1*
X2221833Y2579325D1*
X2217555D1*
X2213244Y2580751D1*
X2211818Y2582210D1*
X2210359Y2585062D1*
X1368562Y2586557D2*
X1381462D1*
X1385773Y2588016D1*
X1387232Y2589442D1*
X1388658Y2592294D1*
Y2595179D1*
X1387232Y2598030D1*
X1385773Y2599490D1*
X1381462Y2600916D1*
X1368562D1*
Y2570772D1*
X1378610Y2586557D2*
X1388658Y2570772D1*
X1398104Y2600882D2*
X1413856D1*
X1405267Y2589408D1*
X1409578D1*
X1412430Y2587982D1*
X1413856Y2586557D1*
X1415315Y2582246D1*
Y2579394D1*
X1413856Y2575083D1*
X1411004Y2572198D1*
X1406693Y2570772D1*
X1402382D1*
X1398104Y2572198D1*
X1396678Y2573657D1*
X1395219Y2576509D1*
X1439088Y2596605D2*
X1437662Y2599456D1*
X1433351Y2600882D1*
X1430499D1*
X1426188Y2599456D1*
X1423303Y2595145D1*
X1421877Y2587982D1*
Y2580820D1*
X1423303Y2575083D1*
X1426188Y2572198D1*
X1430499Y2570772D1*
X1431925D1*
X1436203Y2572198D1*
X1439088Y2575083D1*
X1440514Y2579394D1*
Y2580820D1*
X1439088Y2585131D1*
X1436203Y2587982D1*
X1431925Y2589408D1*
X1430499D1*
X1426188Y2587982D1*
X1423303Y2585131D1*
X1421877Y2580820D1*
X2594543Y1490907D2*
X2607443D1*
X2611754Y1492366D1*
X2613213Y1493792D1*
X2614639Y1496644D1*
Y1499529D1*
X2613213Y1502381D1*
X2611754Y1503840D1*
X2607443Y1505266D1*
X2594543D1*
Y1475122D1*
X2604591Y1490907D2*
X2614639Y1475122D1*
X2624086Y1505233D2*
X2639838D1*
X2631249Y1493759D1*
X2635560D1*
X2638412Y1492333D1*
X2639838Y1490907D1*
X2641297Y1486596D1*
Y1483744D1*
X2639838Y1479433D1*
X2636986Y1476548D1*
X2632675Y1475122D1*
X2628364D1*
X2624086Y1476548D1*
X2622660Y1478007D1*
X2621201Y1480859D1*
X2653596Y1475122D2*
X2667955Y1505233D1*
X2647859D1*
X2143830Y1129390D2*
X2156730D1*
X2161041Y1130849D1*
X2162500Y1132275D1*
X2163926Y1135127D1*
Y1138012D1*
X2162500Y1140864D1*
X2161041Y1142323D1*
X2156730Y1143749D1*
X2143830D1*
Y1113605D1*
X2153878Y1129390D2*
X2163926Y1113605D1*
X2184847D2*
Y1143716D1*
X2170488Y1123653D1*
X2192010D1*
X2201457Y1143716D2*
X2217209D1*
X2208620Y1132242D1*
X2212931D1*
X2215783Y1130816D1*
X2217209Y1129390D1*
X2218668Y1125079D1*
Y1122227D1*
X2217209Y1117916D1*
X2214357Y1115031D1*
X2210046Y1113605D1*
X2205735D1*
X2201457Y1115031D1*
X2200031Y1116490D1*
X2198572Y1119342D1*
X2897132Y2113861D2*
X2910031D1*
X2914342Y2115321D1*
X2915802Y2116747D1*
X2917227Y2119599D1*
Y2122484D1*
X2915801Y2125335D1*
X2914342Y2126794D1*
X2910031Y2128220D1*
X2897131D1*
X2897132Y2098076D1*
X2907180Y2113861D2*
X2917228Y2098077D1*
X2938149D2*
X2938148Y2128188D1*
X2923789Y2108125D1*
X2945311Y2108126D1*
X2966232Y2098078D2*
X2966231Y2128189D1*
X2951873Y2108126D1*
X2973395Y2108127D1*
X2581330Y1059658D2*
X2594230D1*
X2598541Y1061117D1*
X2600000Y1062543D1*
X2601426Y1065395D1*
Y1068280D1*
X2600000Y1071132D1*
X2598541Y1072591D1*
X2594230Y1074017D1*
X2581330D1*
Y1043873D1*
X2591378Y1059658D2*
X2601426Y1043873D1*
X2622347D2*
Y1073983D1*
X2607988Y1053921D1*
X2629510D1*
X2653283Y1073983D2*
X2638957D1*
X2637531Y1061084D1*
X2638957Y1062509D1*
X2643268Y1063969D1*
X2647546D1*
X2651857Y1062509D1*
X2654742Y1059658D1*
X2656168Y1055347D1*
Y1052495D1*
X2654742Y1048184D1*
X2651857Y1045299D1*
X2647546Y1043873D1*
X2643268D1*
X2638957Y1045299D1*
X2637531Y1046758D1*
X2636072Y1049610D1*
X2146744Y1054268D2*
X2159644D1*
X2163955Y1055727D1*
X2165414Y1057153D1*
X2166840Y1060005D1*
Y1062890D1*
X2165414Y1065742D1*
X2163955Y1067201D1*
X2159644Y1068627D1*
X2146744D1*
Y1038483D1*
X2156792Y1054268D2*
X2166840Y1038483D1*
X2190613Y1068594D2*
X2176287D1*
X2174861Y1055694D1*
X2176287Y1057120D1*
X2180598Y1058579D1*
X2184876D1*
X2189187Y1057120D1*
X2192072Y1054268D1*
X2193498Y1049957D1*
Y1047105D1*
X2192072Y1042794D1*
X2189187Y1039909D1*
X2184876Y1038483D1*
X2180598D1*
X2176287Y1039909D1*
X2174861Y1041368D1*
X2173402Y1044220D1*
X2200059Y1062857D2*
X2202944Y1064316D1*
X2207255Y1068594D1*
Y1038483D1*
X1887150Y1243938D2*
Y1231038D1*
X1888609Y1226727D1*
X1890035Y1225268D1*
X1892887Y1223842D1*
X1895772D1*
X1898624Y1225268D1*
X1900083Y1226727D1*
X1901509Y1231038D1*
Y1243938D1*
X1871365D1*
X1887150Y1233890D2*
X1871365Y1223842D1*
X1901476Y1200069D2*
Y1214395D1*
X1888576Y1215821D1*
X1890002Y1214395D1*
X1891461Y1210084D1*
Y1205806D1*
X1890002Y1201495D1*
X1887150Y1198610D1*
X1882839Y1197184D1*
X1879987D1*
X1875676Y1198610D1*
X1872791Y1201495D1*
X1871365Y1205806D1*
Y1210084D1*
X1872791Y1214395D1*
X1874250Y1215821D1*
X1877102Y1217280D1*
X1894313Y1189163D2*
X1895739D1*
X1898624Y1187737D1*
X1900050Y1186311D1*
X1901476Y1183426D1*
Y1177689D1*
X1900050Y1174837D1*
X1898624Y1173411D1*
X1895739Y1171952D1*
X1892887D1*
X1890002Y1173411D1*
X1885724Y1176263D1*
X1871365Y1190622D1*
Y1170526D1*
X2700793Y2028402D2*
X2713693D1*
X2718004Y2029861D1*
X2719463Y2031287D1*
X2720889Y2034139D1*
Y2037024D1*
X2719463Y2039876D1*
X2718003Y2041335D1*
X2713692Y2042761D1*
X2700792D1*
X2700793Y2012617D1*
X2710841Y2028402D2*
X2720889Y2012617D1*
X2744661Y2042729D2*
X2730335D1*
X2728910Y2029829D1*
X2730335Y2031255D1*
X2734646Y2032714D1*
X2738924D1*
X2743235Y2031255D1*
X2746121Y2028403D1*
X2747547Y2024092D1*
Y2021240D1*
X2746121Y2016929D1*
X2743236Y2014044D1*
X2738925Y2012618D1*
X2734647D1*
X2730336Y2014044D1*
X2728910Y2015503D1*
X2727451Y2018355D1*
X2756993Y2042729D2*
X2772745Y2042730D1*
X2764156Y2031256D1*
X2768467D1*
X2771319Y2029830D1*
X2772745Y2028404D1*
X2774204Y2024093D1*
Y2021241D1*
X2772745Y2016930D1*
X2769894Y2014045D1*
X2765583Y2012619D1*
X2761272D1*
X2756994Y2014044D1*
X2755568Y2015503D1*
X2754108Y2018355D1*
X2569948Y2176886D2*
X2582848D1*
X2587159Y2178345D1*
X2588619Y2179771D1*
X2590044Y2182623D1*
Y2185508D1*
X2588619Y2188360D1*
X2587159Y2189819D1*
X2582848Y2191245D1*
X2569948D1*
Y2161101D1*
X2579996Y2176886D2*
X2590044Y2161101D1*
X2613817Y2191212D2*
X2599491D1*
X2598065Y2178312D1*
X2599491Y2179738D1*
X2603802Y2181197D1*
X2608080D1*
X2612391Y2179738D1*
X2615276Y2176886D1*
X2616702Y2172575D1*
Y2169723D1*
X2615276Y2165412D1*
X2612391Y2162527D1*
X2608080Y2161101D1*
X2603802D1*
X2599491Y2162527D1*
X2598065Y2163986D1*
X2596606Y2166838D1*
X2637623Y2161101D2*
Y2191212D1*
X2623264Y2171149D1*
X2644786D1*
X2575793Y1004390D2*
X2588693D1*
X2593004Y1005849D1*
X2594463Y1007275D1*
X2595889Y1010127D1*
Y1013012D1*
X2594463Y1015864D1*
X2593004Y1017323D1*
X2588693Y1018749D1*
X2575793D1*
Y988605D1*
X2585841Y1004390D2*
X2595889Y988605D1*
X2619661Y1018716D2*
X2605335D1*
X2603910Y1005816D1*
X2605335Y1007242D1*
X2609646Y1008701D1*
X2613924D1*
X2618235Y1007242D1*
X2621120Y1004390D1*
X2622546Y1000079D1*
Y997227D1*
X2621120Y992916D1*
X2618235Y990031D1*
X2613924Y988605D1*
X2609646D1*
X2605335Y990031D1*
X2603910Y991490D1*
X2602450Y994342D1*
X2646319Y1018716D2*
X2631993D1*
X2630567Y1005816D1*
X2631993Y1007242D1*
X2636304Y1008701D1*
X2640582D1*
X2644893Y1007242D1*
X2647778Y1004390D1*
X2649204Y1000079D1*
Y997227D1*
X2647778Y992916D1*
X2644893Y990031D1*
X2640582Y988605D1*
X2636304D1*
X2631993Y990031D1*
X2630567Y991490D1*
X2629108Y994342D1*
X2901524Y990907D2*
X2914423D1*
X2918735Y992366D1*
X2920194Y993792D1*
X2921620Y996644D1*
Y999529D1*
X2920194Y1002381D1*
X2918735Y1003840D1*
X2914423Y1005266D1*
X2901524D1*
Y975122D1*
X2911572Y990907D2*
X2921620Y975122D1*
X2945392Y1005233D2*
X2931066D1*
X2929640Y992333D1*
X2931066Y993759D1*
X2935377Y995218D1*
X2939655D1*
X2943966Y993759D1*
X2946851Y990907D1*
X2948277Y986596D1*
Y983744D1*
X2946851Y979433D1*
X2943966Y976548D1*
X2939655Y975122D1*
X2935377D1*
X2931066Y976548D1*
X2929640Y978007D1*
X2928181Y980859D1*
X2972050Y1000955D2*
X2970624Y1003807D1*
X2966313Y1005233D1*
X2963461D1*
X2959150Y1003807D1*
X2956265Y999496D1*
X2954839Y992333D1*
Y985170D1*
X2956265Y979433D1*
X2959150Y976548D1*
X2963461Y975122D1*
X2964887D1*
X2969165Y976548D1*
X2972050Y979433D1*
X2973476Y983744D1*
Y985170D1*
X2972050Y989481D1*
X2969165Y992333D1*
X2964887Y993759D1*
X2963461D1*
X2959150Y992333D1*
X2956265Y989481D1*
X2954839Y985170D1*
X1945605Y983425D2*
X1958505D1*
X1962816Y984884D1*
X1964275Y986310D1*
X1965701Y989162D1*
Y992047D1*
X1964275Y994899D1*
X1962816Y996358D1*
X1958505Y997784D1*
X1945605D1*
Y967640D1*
X1955653Y983425D2*
X1965701Y967640D1*
X1989474Y997751D2*
X1975148D1*
X1973722Y984851D1*
X1975148Y986277D1*
X1979459Y987736D1*
X1983737D1*
X1988048Y986277D1*
X1990933Y983425D1*
X1992359Y979114D1*
Y976262D1*
X1990933Y971951D1*
X1988048Y969066D1*
X1983737Y967640D1*
X1979459D1*
X1975148Y969066D1*
X1973722Y970525D1*
X1972263Y973377D1*
X2004657Y967640D2*
X2019016Y997751D1*
X1998920D1*
X2895153Y2167214D2*
X2908053D1*
X2912364Y2168673D1*
X2913823Y2170099D1*
X2915249Y2172951D1*
Y2175836D1*
X2913823Y2178688D1*
X2912364Y2180147D1*
X2908053Y2181573D1*
X2895153D1*
Y2151429D1*
X2905201Y2167214D2*
X2915249Y2151429D1*
X2939022Y2181540D2*
X2924696D1*
X2923270Y2168640D1*
X2924696Y2170066D1*
X2929007Y2171525D1*
X2933285D1*
X2937596Y2170066D1*
X2940481Y2167214D1*
X2941907Y2162903D1*
Y2160051D1*
X2940481Y2155740D1*
X2937596Y2152855D1*
X2933285Y2151429D1*
X2929007D1*
X2924696Y2152855D1*
X2923270Y2154314D1*
X2921811Y2157166D1*
X2955631Y2181540D2*
X2951354Y2180114D1*
X2949894Y2177262D1*
Y2174377D1*
X2951354Y2171525D1*
X2954205Y2170066D1*
X2959942Y2168640D1*
X2964253Y2167214D1*
X2967105Y2164329D1*
X2968531Y2161477D1*
Y2157166D1*
X2967105Y2154314D1*
X2965679Y2152855D1*
X2961368Y2151429D1*
X2955631D1*
X2951354Y2152855D1*
X2949894Y2154314D1*
X2948468Y2157166D1*
Y2161477D1*
X2949894Y2164329D1*
X2952780Y2167214D1*
X2957057Y2168640D1*
X2962794Y2170066D1*
X2965679Y2171525D1*
X2967105Y2174377D1*
Y2177262D1*
X2965679Y2180114D1*
X2961368Y2181540D1*
X2955631D1*
X2507756Y940907D2*
X2520656D1*
X2524967Y942367D1*
X2526426Y943793D1*
X2527852Y946645D1*
Y949530D1*
X2526426Y952382D1*
X2524967Y953841D1*
X2520656Y955266D1*
X2507756D1*
X2507757Y925122D1*
X2517804Y940907D2*
X2527853Y925123D1*
X2551625Y955234D2*
X2537299D1*
X2535873Y942334D1*
X2537299Y943760D1*
X2541610Y945219D1*
X2545888D1*
X2550199Y943760D1*
X2553084Y940908D1*
X2554510Y936597D1*
Y933745D1*
X2553084Y929434D1*
X2550200Y926549D1*
X2545889Y925123D1*
X2541611D1*
X2537300Y926549D1*
X2535874Y928008D1*
X2534414Y930860D1*
X2579742Y945220D2*
X2578283Y940909D1*
X2575431Y938024D1*
X2571120Y936598D1*
X2569694D1*
X2565383Y938024D1*
X2562531Y940909D1*
X2561072Y945220D1*
Y946646D1*
X2562531Y950957D1*
X2565382Y953809D1*
X2569693Y955235D1*
X2571119D1*
X2575430Y953809D1*
X2578282Y950957D1*
X2579742Y945220D1*
Y938024D1*
X2578283Y930861D1*
X2575431Y926550D1*
X2571120Y925124D1*
X2568268D1*
X2563957Y926550D1*
X2562531Y929435D1*
X2140342Y1532773D2*
Y1545673D1*
X2138883Y1549984D1*
X2137457Y1551443D1*
X2134605Y1552869D1*
X2131720D1*
X2128868Y1551443D1*
X2127409Y1549984D1*
X2125983Y1545673D1*
Y1532773D1*
X2156127D1*
X2140342Y1542821D2*
X2156127Y1552869D1*
X2130294Y1576642D2*
X2127442Y1575216D1*
X2126016Y1570905D1*
Y1568053D1*
X2127442Y1563742D1*
X2131753Y1560857D1*
X2138916Y1559431D1*
X2146079D1*
X2151816Y1560857D1*
X2154701Y1563742D1*
X2156127Y1568053D1*
Y1569479D1*
X2154701Y1573756D1*
X2151816Y1576642D1*
X2147505Y1578067D1*
X2146079D1*
X2141768Y1576642D1*
X2138916Y1573756D1*
X2137490Y1569479D1*
Y1568053D1*
X2138916Y1563742D1*
X2141768Y1560857D1*
X2146079Y1559431D1*
X2133179Y1586088D2*
X2131753D1*
X2128868Y1587514D1*
X2127442Y1588940D1*
X2126016Y1591825D1*
Y1597562D1*
X2127442Y1600414D1*
X2128868Y1601840D1*
X2131753Y1603299D1*
X2134605D1*
X2137490Y1601840D1*
X2141768Y1598988D1*
X2156127Y1584629D1*
Y1604725D1*
X1976859Y1532773D2*
Y1545673D1*
X1975400Y1549984D1*
X1973974Y1551443D1*
X1971122Y1552869D1*
X1968237D1*
X1965385Y1551443D1*
X1963926Y1549984D1*
X1962500Y1545673D1*
Y1532773D1*
X1992644D1*
X1976859Y1542821D2*
X1992644Y1552869D1*
X1966811Y1576642D2*
X1963959Y1575216D1*
X1962533Y1570905D1*
Y1568053D1*
X1963959Y1563742D1*
X1968270Y1560857D1*
X1975433Y1559431D1*
X1982596D1*
X1988333Y1560857D1*
X1991218Y1563742D1*
X1992644Y1568053D1*
Y1569479D1*
X1991218Y1573756D1*
X1988333Y1576642D1*
X1984022Y1578067D1*
X1982596D1*
X1978285Y1576642D1*
X1975433Y1573756D1*
X1974007Y1569479D1*
Y1568053D1*
X1975433Y1563742D1*
X1978285Y1560857D1*
X1982596Y1559431D1*
X1962533Y1601840D2*
Y1587514D1*
X1975433Y1586088D1*
X1974007Y1587514D1*
X1972548Y1591825D1*
Y1596103D1*
X1974007Y1600414D1*
X1976859Y1603299D1*
X1981170Y1604725D1*
X1984022D1*
X1988333Y1603299D1*
X1991218Y1600414D1*
X1992644Y1596103D1*
Y1591825D1*
X1991218Y1587514D1*
X1989759Y1586088D1*
X1986907Y1584629D1*
X1106591Y3910147D2*
X1119491D1*
X1123802Y3911606D1*
X1125261Y3913032D1*
X1126687Y3915884D1*
Y3918769D1*
X1125261Y3921621D1*
X1123802Y3923080D1*
X1119491Y3924506D1*
X1106591D1*
Y3894362D1*
X1116639Y3910147D2*
X1126687Y3894362D1*
X1133249Y3889388D2*
X1160508D1*
X1190051Y3894362D2*
X1178544Y3924506D1*
X1167070Y3894362D1*
X1171381Y3904410D2*
X1185740D1*
X1206660Y3924506D2*
Y3894362D1*
X1196612Y3924506D2*
X1216708D1*
X1233318D2*
Y3894362D1*
X1223270Y3924506D2*
X1243366D1*
X1591922Y1926899D2*
X1589070Y1929784D1*
X1584759Y1931210D1*
X1579022D1*
X1574711Y1929784D1*
X1571826Y1926899D1*
Y1924047D1*
X1573285Y1921162D1*
X1574711Y1919736D1*
X1577563Y1918310D1*
X1586185Y1915425D1*
X1589070Y1913999D1*
X1590496Y1912539D1*
X1591922Y1909688D1*
Y1905377D1*
X1589070Y1902525D1*
X1584759Y1901066D1*
X1579022D1*
X1574711Y1902525D1*
X1571826Y1905377D1*
X1598484Y1925439D2*
X1601369Y1926899D1*
X1605680Y1931176D1*
Y1901066D1*
X791721Y1926899D2*
X788870Y1929784D1*
X784559Y1931210D1*
X778822D1*
X774511Y1929784D1*
X771625Y1926899D1*
Y1924047D1*
X773085Y1921162D1*
X774511Y1919736D1*
X777362Y1918310D1*
X785985Y1915425D1*
X788870Y1913999D1*
X790296Y1912539D1*
X791721Y1909688D1*
Y1905377D1*
X788870Y1902525D1*
X784559Y1901066D1*
X778822D1*
X774511Y1902525D1*
X771625Y1905377D1*
X799742Y1924013D2*
Y1925439D1*
X801168Y1928324D1*
X802594Y1929750D1*
X805479Y1931176D1*
X811216D1*
X814068Y1929750D1*
X815494Y1928324D1*
X816953Y1925439D1*
Y1922587D1*
X815494Y1919702D1*
X812642Y1915425D1*
X798283Y1901066D1*
X818379D1*
X2236122Y923434D2*
X2233270Y926319D1*
X2228959Y927745D1*
X2223222D1*
X2218911Y926319D1*
X2216026Y923434D1*
Y920582D1*
X2217485Y917697D1*
X2218911Y916271D1*
X2221763Y914845D1*
X2230385Y911960D1*
X2233270Y910534D1*
X2234696Y909075D1*
X2236122Y906223D1*
Y901912D1*
X2233270Y899060D1*
X2228959Y897601D1*
X2223222D1*
X2218911Y899060D1*
X2216026Y901912D1*
X2245568Y927712D2*
X2261320D1*
X2252731Y916238D1*
X2257042D1*
X2259894Y914812D1*
X2261320Y913386D1*
X2262779Y909075D1*
Y906223D1*
X2261320Y901912D1*
X2258468Y899027D1*
X2254157Y897601D1*
X2249846D1*
X2245568Y899027D1*
X2244143Y900486D1*
X2242683Y903338D1*
X2120814Y2382872D2*
X2142335D1*
X2146646Y2384298D1*
X2149498Y2387183D1*
X2150958Y2391494D1*
Y2394346D1*
X2149498Y2398657D1*
X2146646Y2401542D1*
X2142335Y2402968D1*
X2120814D1*
X2128010Y2410989D2*
X2126584D1*
X2123699Y2412415D1*
X2122273Y2413841D1*
X2120847Y2416726D1*
Y2422463D1*
X2122273Y2425315D1*
X2123699Y2426741D1*
X2126584Y2428200D1*
X2129436D1*
X2132321Y2426741D1*
X2136598Y2423889D1*
X2150958Y2409530D1*
Y2429626D1*
X1345759Y2391345D2*
Y2369823D1*
X1347185Y2365512D1*
X1350070Y2362660D1*
X1354381Y2361201D1*
X1357233D1*
X1361544Y2362660D1*
X1364429Y2365512D1*
X1365855Y2369823D1*
Y2391345D1*
X1375302Y2391312D2*
X1391054D1*
X1382465Y2379838D1*
X1386776D1*
X1389628Y2378412D1*
X1391054Y2376986D1*
X1392513Y2372675D1*
Y2369823D1*
X1391054Y2365512D1*
X1388202Y2362627D1*
X1383891Y2361201D1*
X1379580D1*
X1375302Y2362627D1*
X1373876Y2364086D1*
X1372417Y2366938D1*
X2605090Y1298767D2*
Y1277245D1*
X2606516Y1272934D1*
X2609401Y1270082D1*
X2613712Y1268623D1*
X2616564D1*
X2620875Y1270082D1*
X2623760Y1272934D1*
X2625186Y1277245D1*
Y1298767D1*
X2648959Y1298734D2*
X2634633D1*
X2633207Y1285834D1*
X2634633Y1287260D1*
X2638944Y1288719D1*
X2643222D1*
X2647533Y1287260D1*
X2650418Y1284408D1*
X2651844Y1280097D1*
Y1277245D1*
X2650418Y1272934D1*
X2647533Y1270049D1*
X2643222Y1268623D1*
X2638944D1*
X2634633Y1270049D1*
X2633207Y1271508D1*
X2631748Y1274360D1*
X2138079Y1285160D2*
Y1263638D1*
X2139505Y1259327D1*
X2142390Y1256475D1*
X2146701Y1255016D1*
X2149553D1*
X2153864Y1256475D1*
X2156749Y1259327D1*
X2158175Y1263638D1*
Y1285160D1*
X2171900Y1285126D2*
X2167622Y1283701D1*
X2166163Y1280849D1*
Y1277964D1*
X2167622Y1275112D1*
X2170474Y1273653D1*
X2176211Y1272227D1*
X2180522Y1270801D1*
X2183374Y1267916D1*
X2184800Y1265064D1*
Y1260753D1*
X2183374Y1257901D1*
X2181948Y1256442D1*
X2177637Y1255016D1*
X2171900D1*
X2167622Y1256442D1*
X2166163Y1257901D1*
X2164737Y1260753D1*
Y1265064D1*
X2166163Y1267916D1*
X2169048Y1270801D1*
X2173326Y1272227D1*
X2179063Y1273653D1*
X2181948Y1275112D1*
X2183374Y1277964D1*
Y1280849D1*
X2181948Y1283701D1*
X2177637Y1285126D1*
X2171900D1*
X2902064Y2383585D2*
X2923586D1*
X2927897Y2385011D1*
X2930749Y2387896D1*
X2932208Y2392207D1*
Y2395059D1*
X2930749Y2399370D1*
X2927897Y2402255D1*
X2923586Y2403681D1*
X2902064D1*
X2912112Y2428913D2*
X2916423Y2427454D1*
X2919308Y2424602D1*
X2920734Y2420291D1*
Y2418865D1*
X2919308Y2414554D1*
X2916423Y2411702D1*
X2912112Y2410243D1*
X2910686D1*
X2906375Y2411702D1*
X2903523Y2414554D1*
X2902097Y2418865D1*
Y2420291D1*
X2903523Y2424602D1*
X2906375Y2427454D1*
X2912112Y2428913D1*
X2919308D1*
X2926471Y2427454D1*
X2930782Y2424602D1*
X2932208Y2420291D1*
Y2417439D1*
X2930782Y2413128D1*
X2927897Y2411702D1*
X1675342Y3905757D2*
X1695438Y3875613D1*
Y3905757D2*
X1675342Y3875613D1*
X1702000Y3870639D2*
X1729259D1*
X1758801Y3875613D2*
X1747294Y3905757D1*
X1735820Y3875613D1*
X1740131Y3885661D2*
X1754490D1*
X1775411Y3905757D2*
Y3875613D1*
X1765363Y3905757D2*
X1785459D1*
X1802069D2*
Y3875613D1*
X1792021Y3905757D2*
X1812117D1*
X2180167D2*
X2191641Y3891398D1*
Y3875613D1*
X2203115Y3905757D2*
X2191641Y3891398D1*
X2209676Y3870639D2*
X2236935D1*
X2266478Y3875613D2*
X2254971Y3905757D1*
X2243497Y3875613D1*
X2247808Y3885661D2*
X2262167D1*
X2283088Y3905757D2*
Y3875613D1*
X2273040Y3905757D2*
X2293136D1*
X2309745D2*
Y3875613D1*
X2299697Y3905757D2*
X2319793D1*
X2694093D2*
X2714189D1*
X2694093Y3875613D1*
X2714189D1*
X2720750Y3870639D2*
X2748009D1*
X2777552Y3875613D2*
X2766045Y3905757D1*
X2754571Y3875613D1*
X2758882Y3885661D2*
X2773241D1*
X2794162Y3905757D2*
Y3875613D1*
X2784114Y3905757D2*
X2804210D1*
X2820819D2*
Y3875613D1*
X2810771Y3905757D2*
X2830867D1*
X518298Y3532250D2*
X515446Y3530824D1*
X512561Y3527939D1*
X511135Y3525087D1*
Y3519350D1*
X512561Y3516465D1*
X515446Y3513613D1*
X518298Y3512154D1*
X522609Y3510728D1*
X529805D1*
X534083Y3512154D1*
X536968Y3513613D1*
X539820Y3516465D1*
X541279Y3519350D1*
Y3525087D1*
X539820Y3527939D1*
X536968Y3530824D1*
X534083Y3532250D1*
X511168Y3541697D2*
Y3557448D1*
X522642Y3548859D1*
Y3553171D1*
X524068Y3556022D1*
X525494Y3557448D1*
X529805Y3558907D1*
X532657D1*
X536968Y3557448D1*
X539853Y3554596D1*
X541279Y3550285D1*
Y3545974D1*
X539853Y3541697D1*
X538394Y3540271D1*
X535542Y3538811D1*
X516905Y3565469D2*
X515446Y3568354D1*
X511168Y3572665D1*
X541279D1*
X3203768Y2880110D2*
X3200916Y2878684D1*
X3198031Y2875799D1*
X3196605Y2872947D1*
Y2867210D1*
X3198031Y2864325D1*
X3200916Y2861473D1*
X3203768Y2860014D1*
X3208079Y2858588D1*
X3215275D1*
X3219553Y2860014D1*
X3222438Y2861473D1*
X3225290Y2864325D1*
X3226749Y2867210D1*
Y2872947D1*
X3225290Y2875799D1*
X3222438Y2878684D1*
X3219553Y2880110D1*
X3206653Y2905341D2*
X3210964Y2903882D1*
X3213849Y2901030D1*
X3215275Y2896719D1*
Y2895293D1*
X3213849Y2890982D1*
X3210964Y2888131D1*
X3206653Y2886671D1*
X3205227D1*
X3200916Y2888131D1*
X3198064Y2890982D1*
X3196638Y2895293D1*
Y2896719D1*
X3198064Y2901030D1*
X3200916Y2903882D1*
X3206653Y2905341D1*
X3213849D1*
X3221012Y2903882D1*
X3225323Y2901030D1*
X3226749Y2896719D1*
Y2893868D1*
X3225323Y2889557D1*
X3222438Y2888131D1*
X3202375Y2911903D2*
X3200916Y2914788D1*
X3196638Y2919099D1*
X3226749D1*
M02*
